<?xml version="1.0" encoding="utf-8"?>
<!-- Generator: Adobe Illustrator 21.0.0, SVG Export Plug-In . SVG Version: 6.00 Build 0)  -->
<svg version="1.1" id="Layer_1" xmlns="http://www.w3.org/2000/svg" xmlns:xlink="http://www.w3.org/1999/xlink" x="0px" y="0px"
	 viewBox="0 0 478.9 478.8" style="enable-background:new 0 0 478.9 478.8;" xml:space="preserve">
<style type="text/css">
	.st0{clip-path:url(#SVGID_2_);}
	.st1{fill:#FDB8CD;}
	.st2{fill:#212121;}
	.st3{fill:none;}
	.st4{fill:#8B6556;}
	.st5{fill:#D19781;}
	.st6{fill:#E0BAAB;}
</style>
<g id="Idle_4_">
	<g>
		<g>
			<defs>
				<circle id="SVGID_1_" cx="239.5" cy="288.1" r="189.1"/>
			</defs>
			<clipPath id="SVGID_2_">
				<use xlink:href="#SVGID_1_"  style="overflow:visible;"/>
			</clipPath>
			<g class="st0">
				<g>
					<path class="st1" d="M227.3,318.7h24.2c54.8,0,99.2,44.4,99.2,99.2v76H128.2v-76C128.2,363.1,172.6,318.7,227.3,318.7z"/>
					<path class="st2" d="M350.7,497H128.2c-1.7,0-3.2-1.4-3.2-3.2v-76c0-56.4,45.9-102.3,102.3-102.3h24.2
						c56.4,0,102.3,45.9,102.3,102.3v76C353.9,495.6,352.5,497,350.7,497z M131.3,490.7h216.2v-72.8c0-52.9-43.1-96-96-96h-24.2
						c-52.9,0-96,43.1-96,96V490.7z"/>
				</g>
				<g>
					<g>
						<g>
							<line class="st3" x1="183.9" y1="493.8" x2="183.9" y2="441"/>
							<path class="st2" d="M183.9,497c-1.7,0-3.2-1.4-3.2-3.2V441c0-1.7,1.4-3.2,3.2-3.2s3.2,1.4,3.2,3.2v52.8
								C187.1,495.6,185.6,497,183.9,497z"/>
						</g>
					</g>
					<g>
						<g>
							<line class="st3" x1="295" y1="493.8" x2="295" y2="441"/>
							<path class="st2" d="M295,497c-1.7,0-3.2-1.4-3.2-3.2V441c0-1.7,1.4-3.2,3.2-3.2s3.2,1.4,3.2,3.2v52.8
								C298.2,495.6,296.7,497,295,497z"/>
						</g>
					</g>
				</g>
			</g>
		</g>
	</g>
</g>
<g id="Avatar_4">
	<g>
		<path class="st4" d="M260.5,92.4c-0.8-6.7-6-11.8-12.3-12.8c1.7-2.7,2.6-6,2.2-9.5c-0.9-8-8.2-13.8-16.2-12.9
			c-1.5,0.2-3,0.6-4.3,1.2c0-0.5,0-1-0.1-1.5c-0.9-8-8.2-13.8-16.2-12.9c-4,0.5-7.4,2.5-9.7,5.4c-2.7-5.2-8.4-8.5-14.6-7.7
			c-6.2,0.7-11,5.2-12.5,10.9c-2.9-2.3-6.7-3.5-10.7-3c-8,0.9-13.8,8.2-12.9,16.2c0.1,0.5,0.1,1,0.2,1.5c-1.4-0.3-2.9-0.3-4.5-0.2
			c-8,0.9-13.8,8.2-12.9,16.2c0.4,3.4,2,6.5,4.2,8.7c-6,2.4-9.9,8.5-9.1,15.2c0.8,6.7,6,11.8,12.3,12.8c-1.7,2.7-2.6,6-2.2,9.5
			c0.9,8,8.2,13.8,16.2,12.9c1.5-0.2,3-0.6,4.3-1.2c0,0.5,0,1,0.1,1.5c0.9,8,8.2,13.8,16.2,12.9c4-0.5,7.4-2.5,9.7-5.4
			c2.7,5.2,8.4,8.5,14.6,7.7c6.2-0.7,11-5.2,12.5-10.9c2.9,2.3,6.7,3.5,10.7,3c8-0.9,13.8-8.2,12.9-16.2c-0.1-0.5-0.1-1-0.2-1.5
			c1.4,0.3,2.9,0.3,4.5,0.2c8-0.9,13.8-8.2,12.9-16.2c-0.4-3.4-2-6.5-4.2-8.7C257.4,105.3,261.3,99.1,260.5,92.4z"/>
		<path class="st2" d="M250.8,110.8c2.1,2.4,3.5,5.5,3.7,9c0.4,8.1-5.7,14.9-13.8,15.4c-1.5,0.1-3-0.1-4.4-0.4
			c0.1,0.5,0.1,1,0.1,1.5c0.4,8-5.7,14.9-13.8,15.4c-4,0.2-7.7-1.2-10.5-3.7c-1.8,5.6-6.9,9.7-13.1,10.1c-6.2,0.3-11.7-3.3-14.1-8.6
			c-2.5,2.8-6,4.6-10.1,4.8c-8.1,0.4-14.9-5.7-15.4-13.8c0-0.5,0-1,0-1.5c-1.4,0.5-2.8,0.8-4.4,0.9c-7.7,0.4-14.2-5.1-15.3-12.6
			c2.8-3,6.8-4.8,11.2-4.5c1.3,0.1,2.4,0.3,3.6,0.7c-0.2-1.2-0.3-2.4-0.3-3.7c0.5-7.8,7.2-13.7,14.9-13.2c2.7,0.2,5.2,1.1,7.3,2.6
			c0-0.4,0-0.8,0-1.2c0.5-7.8,7.2-13.7,14.9-13.2c3.6,0.2,6.8,1.8,9.1,4.1c1.6-6.5,7.6-11.2,14.6-10.8c5,0.3,9.1,3.1,11.4,7.1
			c2.4-5,7.7-8.4,13.6-8c5.9,0.4,10.7,4.3,12.5,9.6c1.7-2.4,4.2-4.1,7-5c0.6,1.4,0.9,3,1,4.6C261.2,102.8,256.9,108.7,250.8,110.8z"
			/>
		<path class="st2" d="M201,161.1c-5.2,0-10.1-2.3-13.4-6.1c-2.6,2-5.6,3.3-8.9,3.6c-9,1-17.2-4.8-19.3-13.4
			c-0.4,0.1-0.9,0.1-1.3,0.2c-9.7,1.1-18.6-5.9-19.7-15.6c-0.3-2.6,0-5.3,0.8-7.8c-5.9-2.4-10.2-7.9-11-14.4
			c-0.8-6.5,2.2-12.9,7.4-16.6c-1.4-2.2-2.3-4.8-2.6-7.4c-0.5-4.7,0.8-9.4,3.7-13.1c3-3.7,7.2-6.1,11.9-6.6c0.4-0.1,0.9-0.1,1.3-0.1
			c0.1-8.8,6.8-16.3,15.7-17.4c3.3-0.4,6.6,0.2,9.5,1.5c2.7-5.1,7.7-8.7,13.7-9.3c5.9-0.7,11.6,1.7,15.4,6c2.6-2,5.6-3.3,8.9-3.6
			c4.7-0.5,9.4,0.8,13.1,3.7c3.1,2.5,5.3,5.8,6.2,9.6c0.4-0.1,0.9-0.1,1.3-0.2c9.7-1.1,18.6,5.9,19.7,15.6c0.3,2.6,0,5.3-0.8,7.8
			c5.9,2.4,10.2,7.9,11,14.4c0.8,6.5-2.2,12.9-7.4,16.6c1.4,2.2,2.3,4.8,2.6,7.4c1.1,9.7-5.9,18.6-15.6,19.7
			c-0.4,0.1-0.9,0.1-1.3,0.1c-0.1,8.8-6.8,16.4-15.7,17.4c-3.3,0.4-6.6-0.2-9.5-1.5c-2.7,5.1-7.8,8.7-13.7,9.3
			C202.3,161.1,201.6,161.1,201,161.1z M188,146.9c0.1,0,0.2,0,0.3,0c1.1,0.1,2,0.7,2.5,1.7c2.2,4.2,6.7,6.6,11.4,6.1
			c4.7-0.5,8.6-3.9,9.8-8.5c0.3-1,1-1.9,2-2.2c1-0.3,2.1-0.1,3,0.5c2.4,1.9,5.4,2.7,8.4,2.4c6.3-0.7,10.8-6.4,10.1-12.7
			c0-0.4-0.1-0.8-0.2-1.2c-0.2-1,0.1-2.1,0.8-2.9c0.7-0.8,1.8-1.1,2.9-0.9c1.2,0.2,2.3,0.3,3.5,0.1c6.3-0.7,10.8-6.4,10.1-12.7
			c-0.3-2.6-1.5-5-3.3-6.8c-0.8-0.7-1.1-1.8-0.9-2.9c0.2-1,0.9-1.9,1.9-2.3c4.8-1.9,7.7-6.8,7.1-11.9c0,0,0,0,0,0
			c-0.6-5.1-4.6-9.2-9.6-10c-1.1-0.2-2-0.8-2.4-1.8c-0.4-1-0.4-2.1,0.2-3c1.4-2.2,2-4.8,1.7-7.4c-0.7-6.3-6.4-10.8-12.7-10.1
			c-1.2,0.1-2.3,0.4-3.4,0.9c-1,0.4-2.1,0.4-3-0.2c-0.9-0.6-1.4-1.6-1.5-2.6c0-0.4,0-0.8-0.1-1.2c-0.3-3-1.9-5.8-4.3-7.7
			c-2.4-1.9-5.4-2.8-8.4-2.4c-3,0.3-5.7,1.8-7.6,4.2c-0.7,0.8-1.7,1.3-2.8,1.2c-1.1-0.1-2-0.7-2.5-1.7c-2.2-4.2-6.7-6.6-11.4-6.1
			c-4.7,0.5-8.6,3.9-9.8,8.5c-0.3,1-1,1.9-2,2.2c-1,0.3-2.1,0.1-3-0.5c-2.4-1.9-5.4-2.7-8.4-2.4c-6.3,0.7-10.8,6.4-10.1,12.7
			c0,0.4,0.1,0.8,0.2,1.2c0.2,1-0.1,2.1-0.8,2.9c-0.7,0.8-1.8,1.1-2.9,0.9c-1.2-0.2-2.3-0.3-3.5-0.1c-3,0.3-5.8,1.9-7.7,4.3
			c-1.9,2.4-2.8,5.4-2.4,8.4c0.3,2.6,1.5,5,3.3,6.8c0.8,0.7,1.1,1.8,0.9,2.9c-0.2,1-0.9,1.9-1.9,2.3c-4.8,1.9-7.7,6.8-7.1,11.9
			c0.6,5.1,4.6,9.2,9.6,10c1.1,0.2,2,0.8,2.4,1.8c0.4,1,0.4,2.1-0.2,3c-1.4,2.2-2,4.8-1.7,7.4c0.7,6.3,6.4,10.8,12.7,10.1
			c1.2-0.1,2.3-0.4,3.4-0.9c1-0.4,2.1-0.4,3,0.2c0.9,0.6,1.4,1.6,1.5,2.6c0,0.4,0,0.8,0.1,1.2c0.7,6.3,6.4,10.8,12.7,10.1
			c3-0.3,5.7-1.8,7.6-4.2C186.1,147.4,187,146.9,188,146.9z"/>
		<g>
			<path class="st4" d="M355.1,202.6c0-6.2-4-11.4-9.5-13.3c3.1-2.6,5.1-6.5,5.1-10.9c0-7.3-5.6-13.3-12.7-14.1
				c1.5-2.2,2.4-5,2.4-7.9c0-7.8-6.3-14.1-14.1-14.1c-1.3,0-2.5,0.2-3.6,0.5c0.3-1.2,0.5-2.4,0.5-3.6c0-7.8-6.3-14.1-14.1-14.1
				c-2.7,0-5.2,0.8-7.4,2.1c0-0.4,0.1-0.8,0.1-1.1c0-7.8-6.3-14.1-14.1-14.1c-3.6,0-6.8,1.3-9.3,3.5c-1.2-6.6-6.9-11.6-13.9-11.6
				c-5,0-9.3,2.6-11.8,6.4c-2.1-5.2-7.2-8.8-13.1-8.8s-11,3.6-13.1,8.8c-2.5-3.9-6.9-6.4-11.8-6.4c-6.9,0-12.7,5-13.9,11.6
				c-2.5-2.2-5.8-3.5-9.3-3.5c-7.8,0-14.1,6.3-14.1,14.1c0,0.4,0,0.8,0.1,1.1c-2.2-1.3-4.7-2.1-7.4-2.1c-7.8,0-14.1,6.3-14.1,14.1
				c0,1.3,0.2,2.5,0.5,3.6c-1.2-0.3-2.4-0.5-3.6-0.5c-7.8,0-14.1,6.3-14.1,14.1c0,2.9,0.9,5.6,2.4,7.9c-7.1,0.7-12.7,6.7-12.7,14.1
				c0,4.4,2,8.3,5.1,10.9c-5.5,1.9-9.5,7.2-9.5,13.3c0,6.2,4,11.4,9.5,13.3c-3.1,2.6-5.1,6.5-5.1,10.9c0,7.3,5.6,13.3,12.7,14.1
				c-1.5,2.2-2.4,5-2.4,7.9c0,7.8,6.3,14.1,14.1,14.1c1.3,0,2.5-0.2,3.6-0.5c-0.3,1.2-0.5,2.4-0.5,3.6c0,7.8,6.3,14.1,14.1,14.1
				c2.7,0,5.2-0.8,7.4-2.1c0,0.4-0.1,0.8-0.1,1.1c0,7.8,6.3,14.1,14.1,14.1c3.6,0,6.8-1.3,9.3-3.5c1.2,6.6,6.9,11.6,13.9,11.6
				c5,0,9.3-2.6,11.8-6.4c2.1,5.2,7.2,8.8,13.1,8.8s11-3.6,13.1-8.8c2.5,3.9,6.9,6.4,11.8,6.4c6.9,0,12.7-5,13.9-11.6
				c2.5,2.2,5.8,3.5,9.3,3.5c7.8,0,14.1-6.3,14.1-14.1c0-0.4,0-0.8-0.1-1.1c2.2,1.3,4.7,2.1,7.4,2.1c7.8,0,14.1-6.3,14.1-14.1
				c0-1.3-0.2-2.5-0.5-3.6c1.2,0.3,2.4,0.5,3.6,0.5c7.8,0,14.1-6.3,14.1-14.1c0-2.9-0.9-5.6-2.4-7.9c7.1-0.7,12.7-6.7,12.7-14.1
				c0-4.4-2-8.3-5.1-10.9C351.1,214,355.1,208.7,355.1,202.6z"/>
			<path class="st2" d="M239.5,306.9c-5.4,0-10.4-2.5-13.6-6.6c-3.1,2.7-7.1,4.2-11.3,4.2c-6.8,0-12.8-4-15.6-9.9
				c-2.4,1.2-5,1.8-7.6,1.8c-8.3,0-15.3-5.9-16.9-13.8c-1.5,0.4-3,0.6-4.5,0.6c-9.5,0-17.3-7.7-17.3-17.3c-9.5,0-17.3-7.8-17.3-17.3
				c0-2,0.3-3.9,1-5.7c-6.6-2.4-11.3-8.8-11.3-16.2c0-3.6,1.1-7.1,3.2-10c-4.6-3.2-7.5-8.5-7.5-14.2c0-5.8,2.9-11.1,7.5-14.2
				c-2-2.9-3.2-6.3-3.2-10c0-7.4,4.6-13.8,11.3-16.2c-0.6-1.8-1-3.7-1-5.7c0-9.5,7.7-17.3,17.3-17.3c0-9.5,7.8-17.3,17.3-17.3
				c1.5,0,3.1,0.2,4.5,0.6c1.6-7.8,8.6-13.8,16.9-13.8c2.7,0,5.3,0.6,7.6,1.8c2.8-5.9,8.8-9.9,15.6-9.9c4.2,0,8.2,1.5,11.3,4.2
				c3.2-4.1,8.2-6.6,13.6-6.6c5.4,0,10.4,2.5,13.6,6.6c3.1-2.7,7.1-4.2,11.3-4.2c6.8,0,12.8,4,15.6,9.9c2.4-1.2,5-1.8,7.6-1.8
				c8.3,0,15.3,5.9,16.9,13.8c1.5-0.4,3-0.6,4.5-0.6c9.5,0,17.3,7.7,17.3,17.3c9.5,0,17.3,7.8,17.3,17.3c0,2-0.3,3.9-1,5.7
				c6.6,2.4,11.3,8.8,11.3,16.2c0,3.6-1.1,7.1-3.2,10c4.6,3.2,7.5,8.5,7.5,14.2c0,5.8-2.9,11.1-7.5,14.2c2,2.9,3.2,6.3,3.2,10
				c0,7.4-4.6,13.8-11.3,16.2c0.6,1.8,1,3.7,1,5.7c0,9.5-7.7,17.3-17.3,17.3c0,9.5-7.8,17.3-17.3,17.3c-1.5,0-3.1-0.2-4.5-0.6
				c-1.6,7.8-8.6,13.8-16.9,13.8c-2.7,0-5.3-0.6-7.6-1.8c-2.8,5.9-8.8,9.9-15.6,9.9c-4.2,0-8.2-1.5-11.3-4.2
				C249.8,304.4,244.9,306.9,239.5,306.9z M226.4,291.7c0.1,0,0.2,0,0.3,0c1.2,0.1,2.2,0.9,2.6,2c1.7,4.2,5.7,6.8,10.2,6.8
				c4.5,0,8.5-2.7,10.2-6.8c0.4-1.1,1.5-1.8,2.6-2c1.2-0.1,2.3,0.4,2.9,1.4c2,3.1,5.5,5,9.2,5c5.3,0,9.8-3.8,10.8-9
				c0.2-1.1,1-2.1,2.1-2.4c1.1-0.4,2.3-0.1,3.1,0.6c2,1.8,4.6,2.8,7.2,2.8c6,0,11-4.9,11-11c0-0.3,0-0.6,0-0.9
				c-0.1-1.2,0.5-2.3,1.5-2.9c1-0.6,2.3-0.6,3.3,0c1.7,1.1,3.7,1.6,5.7,1.6c6,0,11-4.9,11-11c0-0.9-0.1-1.9-0.4-2.8
				c-0.3-1.1,0-2.2,0.8-3c0.8-0.8,2-1.1,3-0.8c1,0.3,1.9,0.4,2.8,0.4c6,0,11-4.9,11-11c0-2.2-0.6-4.3-1.9-6.1
				c-0.6-0.9-0.7-2.1-0.2-3.1c0.5-1,1.4-1.7,2.5-1.8c5.6-0.6,9.9-5.3,9.9-10.9c0-3.3-1.4-6.4-4-8.4c-0.9-0.7-1.3-1.9-1.1-3
				c0.2-1.1,1-2,2.1-2.4c4.4-1.5,7.4-5.7,7.4-10.3c0-4.6-3-8.8-7.4-10.3c-1.1-0.4-1.9-1.3-2.1-2.4c-0.2-1.1,0.2-2.3,1.1-3
				c2.5-2.1,4-5.2,4-8.4c0-5.7-4.2-10.3-9.9-10.9c-1.1-0.1-2.1-0.8-2.5-1.8c-0.5-1-0.4-2.2,0.2-3.1c1.2-1.8,1.9-3.9,1.9-6.1
				c0-6-4.9-11-11-11c-0.9,0-1.9,0.1-2.8,0.4c-1.1,0.3-2.2,0-3-0.8c-0.8-0.8-1.1-2-0.8-3c0.3-1,0.4-1.9,0.4-2.8c0-6-4.9-11-11-11
				c-2,0-4,0.6-5.7,1.6c-1,0.6-2.3,0.6-3.3,0c-1-0.6-1.6-1.8-1.5-2.9c0-0.3,0-0.6,0-0.9c0-6-4.9-11-11-11c-2.7,0-5.2,1-7.2,2.8
				c-0.9,0.8-2.1,1-3.1,0.6c-1.1-0.4-1.9-1.3-2.1-2.4c-0.9-5.2-5.5-9-10.8-9c-3.7,0-7.1,1.9-9.2,5c-0.6,1-1.8,1.5-2.9,1.4
				c-1.2-0.1-2.2-0.9-2.6-2c-1.7-4.2-5.7-6.8-10.2-6.8c-4.5,0-8.5,2.7-10.2,6.8c-0.4,1.1-1.5,1.8-2.6,2c-1.2,0.1-2.3-0.4-2.9-1.4
				c-2-3.1-5.5-5-9.2-5c-5.3,0-9.8,3.8-10.8,9c-0.2,1.1-1,2.1-2.1,2.4c-1.1,0.4-2.3,0.1-3.1-0.6c-2-1.8-4.6-2.8-7.2-2.8
				c-6,0-11,4.9-11,11c0,0.3,0,0.6,0,0.9c0.1,1.2-0.5,2.3-1.5,2.9c-1,0.6-2.3,0.6-3.3,0c-1.7-1.1-3.7-1.6-5.7-1.6c-6,0-11,4.9-11,11
				c0,0.9,0.1,1.9,0.4,2.8c0.3,1.1,0,2.2-0.8,3c-0.8,0.8-2,1.1-3,0.8c-1-0.3-1.9-0.4-2.8-0.4c-6,0-11,4.9-11,11
				c0,2.2,0.6,4.3,1.9,6.1c0.6,0.9,0.7,2.1,0.2,3.1c-0.5,1-1.4,1.7-2.5,1.8c-5.6,0.6-9.9,5.3-9.9,10.9c0,3.3,1.4,6.4,4,8.4
				c0.9,0.7,1.3,1.9,1.1,3c-0.2,1.1-1,2-2.1,2.4c-4.4,1.5-7.4,5.7-7.4,10.3c0,4.6,3,8.8,7.4,10.3c1.1,0.4,1.9,1.3,2.1,2.4
				c0.2,1.1-0.2,2.3-1.1,3c-2.5,2.1-4,5.2-4,8.4c0,5.7,4.2,10.3,9.9,10.9c1.1,0.1,2.1,0.8,2.5,1.8c0.5,1,0.4,2.2-0.2,3.1
				c-1.2,1.8-1.9,3.9-1.9,6.1c0,6,4.9,11,11,11c0.9,0,1.9-0.1,2.8-0.4c1.1-0.3,2.2,0,3,0.8c0.8,0.8,1.1,2,0.8,3
				c-0.3,1-0.4,1.9-0.4,2.8c0,6,4.9,11,11,11c2,0,4-0.6,5.7-1.6c1-0.6,2.3-0.6,3.3,0c1,0.6,1.6,1.8,1.5,2.9c0,0.3,0,0.6,0,0.9
				c0,6,4.9,11,11,11c2.7,0,5.2-1,7.2-2.8c0.9-0.8,2.1-1,3.1-0.6c1.1,0.4,1.9,1.3,2.1,2.4c0.9,5.2,5.5,9,10.8,9c3.7,0,7.1-1.9,9.2-5
				C224.3,292.3,225.3,291.7,226.4,291.7z"/>
		</g>
		<g>
			<g>
				<circle class="st5" cx="311.5" cy="268.6" r="16.5"/>
				<path class="st2" d="M311.5,288.2c-10.9,0-19.7-8.8-19.7-19.7c0-10.9,8.8-19.7,19.7-19.7s19.7,8.8,19.7,19.7
					C331.1,279.4,322.3,288.2,311.5,288.2z M311.5,255.2c-7.4,0-13.4,6-13.4,13.4c0,7.4,6,13.4,13.4,13.4c7.4,0,13.4-6,13.4-13.4
					C324.8,261.2,318.8,255.2,311.5,255.2z"/>
			</g>
			<g>
				<circle class="st5" cx="167.4" cy="268.6" r="16.5"/>
				<path class="st2" d="M167.4,288.2c-10.9,0-19.7-8.8-19.7-19.7c0-10.9,8.8-19.7,19.7-19.7c10.9,0,19.7,8.8,19.7,19.7
					C187.1,279.4,178.3,288.2,167.4,288.2z M167.4,255.2c-7.4,0-13.4,6-13.4,13.4c0,7.4,6,13.4,13.4,13.4c7.4,0,13.4-6,13.4-13.4
					C180.8,261.2,174.8,255.2,167.4,255.2z"/>
			</g>
			<g>
				<path class="st5" d="M239.5,343.2L239.5,343.2c-39.8,0-72.1-32.3-72.1-72.1v-36.7c0-39.8,32.3-72.1,72.1-72.1h0
					c39.8,0,72.1,32.3,72.1,72.1v36.7C311.6,310.9,279.4,343.2,239.5,343.2z"/>
				<path class="st2" d="M239.5,346.3c-41.5,0-75.3-33.8-75.3-75.3v-36.7c0-41.5,33.8-75.3,75.3-75.3s75.3,33.8,75.3,75.3v36.7
					C314.8,312.6,281,346.3,239.5,346.3z M239.5,165.4c-38,0-68.9,30.9-68.9,68.9v36.7c0,38,30.9,68.9,68.9,68.9
					s68.9-30.9,68.9-68.9v-36.7C308.5,196.4,277.6,165.4,239.5,165.4z"/>
			</g>
			<g>
				<path class="st5" d="M234.5,252.7l-5.7,18.6c-1.1,3.7,1.6,7.5,5.5,7.5h7.8"/>
				<path class="st2" d="M242.2,282h-7.8c-2.9,0-5.5-1.3-7.2-3.6c-1.7-2.3-2.2-5.2-1.4-7.9l5.7-18.6c0.5-1.7,2.3-2.6,3.9-2.1
					c1.7,0.5,2.6,2.3,2.1,3.9l-5.7,18.6c-0.2,0.8-0.1,1.7,0.4,2.3c0.5,0.7,1.3,1.1,2.1,1.1h7.8c1.7,0,3.2,1.4,3.2,3.2
					S244,282,242.2,282z"/>
			</g>
		</g>
		<g>
			<path class="st4" d="M323.8,162.2c0,7.8-6.3,14.1-14.1,14.1c-1.3,0-2.5-0.2-3.6-0.5c0.3,1.2,0.5,2.4,0.5,3.6
				c0,7.8-6.3,14.1-14.1,14.1c-2.7,0-5.2-0.8-7.4-2.1c0,0.4,0.1,0.8,0.1,1.1c0,7.8-6.3,14.1-14.1,14.1c-3.6,0-6.8-1.3-9.3-3.5
				c-1.2,6.6-6.9,11.6-13.9,11.6c-5,0-9.3-2.6-11.8-6.4c-2.1,5.2-7.2,8.8-13.1,8.8c-5.9,0-11-3.6-13.1-8.8
				c-2.5,3.9-6.9,6.4-11.8,6.4c-6.9,0-12.7-5-13.9-11.6c-2.5,2.2-5.8,3.5-9.3,3.5c-7.8,0-14.1-6.3-14.1-14.1c0-0.4,0-0.8,0.1-1.1
				l-0.1-34.6l44.7-31.1l82.3,4L323.8,162.2z"/>
			<path class="st2" d="M222.8,220.4c-5.4,0-10.4-2.5-13.6-6.6c-3.1,2.7-7.1,4.2-11.3,4.2c-6.8,0-12.8-4-15.6-9.9
				c-2.4,1.2-5,1.8-7.6,1.8c-9.5,0-17.3-7.8-17.3-17.3c0-0.5,0-1,0.1-1.4c0.1-1.7,1.7-3,3.4-2.9c1.7,0.1,3,1.7,2.9,3.4
				c0,0.3,0,0.6,0,0.9c0,6,4.9,11,11,11c2.7,0,5.2-1,7.2-2.8c0.9-0.8,2.1-1,3.1-0.6c1.1,0.4,1.9,1.3,2.1,2.4c0.9,5.2,5.5,9,10.8,9
				c3.7,0,7.1-1.9,9.2-5c0.6-1,1.8-1.5,2.9-1.4c1.2,0.1,2.2,0.9,2.6,2c1.7,4.2,5.7,6.8,10.2,6.8c4.5,0,8.5-2.7,10.2-6.8
				c0.4-1.1,1.5-1.8,2.6-2c1.2-0.1,2.3,0.4,2.9,1.4c2,3.1,5.5,5,9.2,5c5.3,0,9.8-3.8,10.8-9c0.2-1.1,1-2.1,2.1-2.4
				c1.1-0.4,2.3-0.1,3.1,0.6c2,1.8,4.6,2.8,7.2,2.8c6,0,11-4.9,11-11c0-0.3,0-0.6,0-0.9c-0.1-1.2,0.5-2.3,1.5-2.9
				c1-0.6,2.3-0.6,3.3,0c1.7,1.1,3.7,1.6,5.7,1.6c6,0,11-4.9,11-11c0-0.9-0.1-1.9-0.4-2.8c-0.3-1.1,0-2.2,0.8-3c0.8-0.8,2-1.1,3-0.8
				c1,0.3,1.9,0.4,2.8,0.4c6,0,11-4.9,11-11c0-1.7,1.4-3.2,3.2-3.2c1.7,0,3.2,1.4,3.2,3.2c0,9.5-7.7,17.3-17.3,17.3
				c0,9.5-7.8,17.3-17.3,17.3c-1.5,0-3.1-0.2-4.5-0.6c-1.6,7.8-8.6,13.8-16.9,13.8c-2.7,0-5.3-0.6-7.6-1.8
				c-2.8,5.9-8.8,9.9-15.6,9.9c-4.2,0-8.2-1.5-11.3-4.2C233.2,217.9,228.3,220.4,222.8,220.4z"/>
		</g>
		<path class="st5" d="M163.5,170.8c-1.2,0-2.3-0.7-2.9-1.8c-1.4-2.9-1.8-6-1.4-9.2c1.2-8.6,9.2-14.6,17.7-13.5
			c0.7-4.1,2.9-7.7,6.2-10.1c3.4-2.5,7.6-3.6,11.8-3c1.3,0.2,2.6,0.5,3.8,1c2.6-6.8,9.7-11.1,17.1-10c3.8,0.6,7.3,2.5,9.8,5.5
			c1.1,1.3,1,3.3-0.4,4.5c-1.3,1.1-3.3,1-4.5-0.4c-1.5-1.8-3.6-3-5.9-3.3c-5.2-0.8-10.1,2.9-10.9,8.1c0,0.3-0.1,0.5-0.1,0.8
			c-0.1,1.2-0.8,2.2-1.9,2.7c-1.1,0.5-2.4,0.3-3.3-0.5c-1.4-1.1-3-1.9-4.8-2.1c-2.5-0.4-5.1,0.3-7.1,1.8c-2.1,1.5-3.4,3.8-3.8,6.3
			c-0.1,0.8-0.1,1.6,0,2.5c0.1,1.1-0.3,2.2-1.3,2.9c-0.9,0.7-2.1,0.8-3.1,0.4c-0.8-0.3-1.6-0.6-2.4-0.7c-2.5-0.4-5.1,0.3-7.1,1.8
			c-2.1,1.5-3.4,3.8-3.8,6.3c-0.3,1.9,0,3.8,0.8,5.5c0.8,1.6,0.1,3.5-1.5,4.2C164.4,170.7,164,170.8,163.5,170.8z"/>
		<path class="st5" d="M167.9,80.3c-0.2,0-0.4,0-0.5,0c-1.7-0.3-2.9-1.9-2.6-3.7c0.2-1.4,0.7-2.7,1.2-3.9c3.7-8,13.1-11.5,21.1-7.8
			c1.2,0.5,2.3,1.2,3.3,2.1c1.8-2.3,4.2-4.1,7.1-5.2c4-1.5,8.3-1.3,12.2,0.5c3.5,1.6,6.3,4.5,7.9,8c0.7,1.6,0,3.5-1.6,4.2
			c-1.6,0.7-3.5,0-4.2-1.6c-0.9-2.1-2.6-3.9-4.7-4.8c-4.8-2.2-10.5-0.1-12.7,4.7c-0.1,0.2-0.2,0.5-0.3,0.7c-0.4,1.1-1.4,1.9-2.6,2
			c-1.2,0.1-2.3-0.4-3-1.4c-1-1.5-2.4-2.7-4-3.4c-4.8-2.2-10.5-0.1-12.7,4.7c-0.3,0.7-0.6,1.5-0.7,2.4
			C170.7,79.2,169.4,80.3,167.9,80.3z"/>
		<path class="st2" d="M250.4,194c-0.8,0-1.5-0.1-2.3-0.2c-3.8-0.6-7.3-2.5-9.8-5.5c-1.1-1.3-1-3.3,0.4-4.5c1.3-1.1,3.3-1,4.5,0.4
			c1.5,1.8,3.6,3,5.9,3.3c5.2,0.8,10.1-2.9,10.9-8.1c0-0.3,0.1-0.5,0.1-0.8c0.1-1.2,0.8-2.2,1.9-2.7c1.1-0.5,2.4-0.3,3.3,0.5
			c1.4,1.1,3,1.9,4.8,2.1c2.5,0.4,5.1-0.3,7.1-1.8c2.1-1.5,3.4-3.8,3.8-6.3c0.1-0.8,0.1-1.6,0-2.5c-0.2-1.7,1-3.3,2.8-3.5
			c1.7-0.2,3.3,1,3.5,2.8c0.2,1.4,0.1,2.8,0,4.1c-0.6,4.2-2.8,7.9-6.2,10.5c-3.4,2.5-7.6,3.6-11.8,3c-1.3-0.2-2.6-0.5-3.8-1
			C262.8,189.9,256.9,194,250.4,194z"/>
		<g>
			<g>
				<g>
					<g>
						<path class="st6" d="M281.4,268.7h-14.5c-6.1,0-11-4.9-11-11v-15.3h36.5v15.3C292.4,263.8,287.4,268.7,281.4,268.7z"/>
						<path class="st2" d="M281.4,271.9h-14.5c-7.8,0-14.2-6.4-14.2-14.2v-15.3c0-1.7,1.4-3.2,3.2-3.2h36.5c1.7,0,3.2,1.4,3.2,3.2
							v15.3C295.5,265.5,289.2,271.9,281.4,271.9z M259.1,245.6v12.1c0,4.3,3.5,7.9,7.9,7.9h14.5c4.3,0,7.9-3.5,7.9-7.9v-12.1H259.1
							z"/>
					</g>
					<circle class="st2" cx="274.1" cy="255.6" r="5.1"/>
					<g>
						<line class="st3" x1="292.4" y1="242.4" x2="311.5" y2="250.5"/>
						<path class="st2" d="M311.5,253.6c-0.4,0-0.8-0.1-1.2-0.2l-19.1-8c-1.6-0.7-2.4-2.5-1.7-4.1c0.7-1.6,2.5-2.4,4.1-1.7l19.1,8
							c1.6,0.7,2.4,2.5,1.7,4.1C313.9,252.9,312.7,253.6,311.5,253.6z"/>
					</g>
				</g>
				<g>
					<g>
						<path class="st6" d="M211,268.7h-14.5c-6.1,0-11-4.9-11-11v-15.3H222v15.3C222,263.8,217.1,268.7,211,268.7z"/>
						<path class="st2" d="M211,271.9h-14.5c-7.8,0-14.2-6.4-14.2-14.2v-15.3c0-1.7,1.4-3.2,3.2-3.2H222c1.7,0,3.2,1.4,3.2,3.2v15.3
							C225.2,265.5,218.8,271.9,211,271.9z M188.7,245.6v12.1c0,4.3,3.5,7.9,7.9,7.9H211c4.3,0,7.9-3.5,7.9-7.9v-12.1H188.7z"/>
					</g>
					<circle class="st2" cx="203.8" cy="255.6" r="5.1"/>
					<g>
						<line class="st3" x1="167.4" y1="250.5" x2="185.5" y2="242.4"/>
						<path class="st2" d="M167.4,253.6c-1.2,0-2.4-0.7-2.9-1.9c-0.7-1.6,0-3.5,1.6-4.2l18.1-8c1.6-0.7,3.5,0,4.2,1.6
							c0.7,1.6,0,3.5-1.6,4.2l-18.1,8C168.3,253.5,167.9,253.6,167.4,253.6z"/>
					</g>
				</g>
				<g>
					<line class="st3" x1="222" y1="242.4" x2="255.9" y2="242.4"/>
					<path class="st2" d="M255.9,245.6H222c-1.7,0-3.2-1.4-3.2-3.2s1.4-3.2,3.2-3.2h33.9c1.7,0,3.2,1.4,3.2,3.2
						S257.6,245.6,255.9,245.6z"/>
				</g>
			</g>
		</g>
	</g>
	<path class="st2" d="M191.6,234.1c-0.9,0-1.9-0.4-2.5-1.2c-1.1-1.4-0.8-3.4,0.6-4.4c8.1-6.2,19.4-6.8,28-1.3c1.5,0.9,1.9,2.9,1,4.4
		c-0.9,1.5-2.9,1.9-4.4,1c-6.4-4-14.8-3.7-20.8,1C192.9,233.9,192.2,234.1,191.6,234.1z"/>
	<path class="st2" d="M286.3,234.1c-0.7,0-1.3-0.2-1.9-0.7c-6-4.6-14.4-5-20.8-1c-1.5,0.9-3.4,0.5-4.4-1c-0.9-1.5-0.5-3.4,1-4.4
		c8.7-5.4,19.9-4.9,28,1.3c1.4,1.1,1.6,3,0.6,4.4C288.2,233.7,287.3,234.1,286.3,234.1z"/>
	<g>
		<path class="st5" d="M254.7,296.8c-4.5,2.5-9.6,3.9-15.1,3.9c-5.5,0-10.7-1.4-15.1-3.9"/>
		<path class="st2" d="M239.6,303.9c-5.8,0-11.6-1.5-16.7-4.3c-1.5-0.9-2.1-2.8-1.2-4.3c0.9-1.5,2.8-2.1,4.3-1.2
			c4.1,2.3,8.8,3.5,13.6,3.5c4.8,0,9.5-1.2,13.6-3.5c1.5-0.9,3.4-0.3,4.3,1.2c0.9,1.5,0.3,3.4-1.2,4.3
			C251.2,302.4,245.4,303.9,239.6,303.9z"/>
	</g>
</g>
<path class="st2" d="M239,9c31.1,0,61.3,6.1,89.7,18.2c27.4,11.6,52.1,28.3,73.2,49.4c21.2,21.2,37.8,45.8,49.4,73.3
	c12,28.4,18.1,58.6,18.1,89.7c0,31.1-6.1,61.3-18.1,89.7c-11.6,27.4-28.2,52.1-49.4,73.2c-21.2,21.2-45.8,37.8-73.2,49.4
	c-28.4,12-58.6,18.1-89.7,18.1h-0.1c-31.1,0-61.3-6.1-89.7-18.2c-27.4-11.6-52.1-28.3-73.2-49.4C54.6,381.1,38,356.5,26.4,329
	c-12-28.4-18.1-58.6-18.1-89.7c0-31.1,6.1-61.3,18.1-89.7c11.6-27.4,28.2-52.1,49.4-73.2c21.2-21.2,45.8-37.8,73.2-49.4
	C177.6,15.1,207.7,9,238.8,9H239 M238.8,0C106.6,0-0.6,107.1-0.6,239.3c-0.1,132.2,107.1,239.5,239.3,239.6c0,0,0.1,0,0.1,0
	c132.2,0,239.4-107.1,239.5-239.3C478.4,107.3,371.2,0.1,239,0C238.9,0,238.9,0,238.8,0L238.8,0z"/>
</svg>
