<?xml version="1.0" encoding="utf-8"?>
<!-- Generator: Adobe Illustrator 21.0.0, SVG Export Plug-In . SVG Version: 6.00 Build 0)  -->
<svg version="1.1" id="Layer_1" xmlns="http://www.w3.org/2000/svg" xmlns:xlink="http://www.w3.org/1999/xlink" x="0px" y="0px"
	 viewBox="0 0 478.9 478.9" style="enable-background:new 0 0 478.9 478.9;" xml:space="preserve">
<style type="text/css">
	.st0{clip-path:url(#SVGID_2_);}
	.st1{fill:#90ECD2;}
	.st2{fill:#212121;}
	.st3{fill:none;}
	.st4{fill:#D19781;}
	.st5{fill:#AE7E6B;}
	.st6{fill:#8B6556;}
</style>
<g id="Idle_11_">
	<g>
		<g>
			<defs>
				<circle id="SVGID_1_" cx="239.5" cy="239.5" r="239.5"/>
			</defs>
			<clipPath id="SVGID_2_">
				<use xlink:href="#SVGID_1_"  style="overflow:visible;"/>
			</clipPath>
			<g class="st0">
				<g>
					<path class="st1" d="M224.1,278.1h30.7c69.4,0,125.6,56.2,125.6,125.6v96.2H98.5v-96.2C98.5,334.3,154.8,278.1,224.1,278.1z"/>
					<path class="st2" d="M380.4,503.9H98.5c-2.2,0-4-1.8-4-4v-96.2c0-71.4,58.1-129.6,129.6-129.6h30.7
						c71.4,0,129.6,58.1,129.6,129.6v96.2C384.4,502.1,382.6,503.9,380.4,503.9z M102.5,495.9h273.8v-92.2
						c0-67-54.5-121.6-121.6-121.6h-30.7c-67,0-121.6,54.5-121.6,121.6V495.9z"/>
				</g>
				<g>
					<g>
						<g>
							<line class="st3" x1="169.1" y1="499.9" x2="169.1" y2="433.1"/>
							<path class="st2" d="M169.1,503.9c-2.2,0-4-1.8-4-4v-66.9c0-2.2,1.8-4,4-4s4,1.8,4,4v66.9
								C173.1,502.1,171.3,503.9,169.1,503.9z"/>
						</g>
					</g>
					<g>
						<g>
							<line class="st3" x1="309.8" y1="499.9" x2="309.8" y2="433.1"/>
							<path class="st2" d="M309.8,503.9c-2.2,0-4-1.8-4-4v-66.9c0-2.2,1.8-4,4-4s4,1.8,4,4v66.9C313.8,502.1,312,503.9,309.8,503.9
								z"/>
						</g>
					</g>
				</g>
			</g>
			<use xlink:href="#SVGID_1_"  style="overflow:visible;fill:none;stroke:#020504;stroke-miterlimit:10;"/>
		</g>
	</g>
</g>
<g id="Avatar_11">
	<g>
		<g>
			<circle class="st4" cx="330.7" cy="194.6" r="20.9"/>
			<path class="st2" d="M330.7,219.5c-13.7,0-24.9-11.2-24.9-24.9s11.2-24.9,24.9-24.9s24.9,11.2,24.9,24.9S344.4,219.5,330.7,219.5
				z M330.7,177.7c-9.3,0-16.9,7.6-16.9,16.9s7.6,16.9,16.9,16.9s16.9-7.6,16.9-16.9S340,177.7,330.7,177.7z"/>
		</g>
		<g>
			<circle class="st4" cx="148.3" cy="194.6" r="20.9"/>
			<path class="st2" d="M148.3,219.5c-13.7,0-24.9-11.2-24.9-24.9s11.2-24.9,24.9-24.9s24.9,11.2,24.9,24.9S162,219.5,148.3,219.5z
				 M148.3,177.7c-9.3,0-16.9,7.6-16.9,16.9s7.6,16.9,16.9,16.9s16.9-7.6,16.9-16.9S157.6,177.7,148.3,177.7z"/>
		</g>
		<g>
			<path class="st5" d="M239.6,309.1L239.6,309.1c-50.4,0-91.3-40.9-91.3-91.3v-46.5c0-50.4,40.9-91.3,91.3-91.3h0
				c50.4,0,91.3,40.9,91.3,91.3v46.5C330.9,268.3,290,309.1,239.6,309.1z"/>
			<path class="st2" d="M239.6,313.1c-52.6,0-95.3-42.8-95.3-95.3v-46.5c0-52.6,42.8-95.3,95.3-95.3s95.3,42.8,95.3,95.3v46.5
				C334.9,270.4,292.1,313.1,239.6,313.1z M239.6,84.1c-48.1,0-87.3,39.2-87.3,87.3v46.5c0,48.1,39.2,87.3,87.3,87.3
				s87.3-39.2,87.3-87.3v-46.5C326.9,123.2,287.7,84.1,239.6,84.1z"/>
		</g>
		<path class="st2" d="M206.6,194.6c0,6.2-5.1,11.2-11.2,11.2c-6.2,0-11.2-5.1-11.2-11.2s5-11.2,11.2-11.2c1,0,2.1,0.1,3.1,0.5
			c-1.3,0.9-2,2.5-2,4.2c0,3.1,2.5,5.5,5.5,5.5c1.8,0,3.3-0.8,4.3-2C206.4,192.5,206.6,193.5,206.6,194.6z"/>
		<path class="st2" d="M295,194.6c0,6.2-5.1,11.2-11.2,11.2s-11.2-5.1-11.2-11.2s5-11.2,11.2-11.2c1,0,2.1,0.1,3.1,0.5
			c-1.3,0.9-2,2.5-2,4.2c0,3.1,2.5,5.5,5.5,5.5c1.8,0,3.3-0.8,4.3-2C294.9,192.5,295,193.5,295,194.6z"/>
		<g>
			<path class="st5" d="M233.2,194.6l-7.2,23.6c-1.4,4.7,2.1,9.5,7,9.5h9.9"/>
			<path class="st2" d="M242.9,231.6H233c-3.6,0-6.9-1.7-9.1-4.6c-2.2-2.9-2.8-6.6-1.7-10.1l7.2-23.6c0.6-2.1,2.9-3.3,5-2.7
				c2.1,0.6,3.3,2.9,2.7,5l-7.2,23.6c-0.3,1-0.1,2.1,0.5,3s1.6,1.3,2.7,1.3h9.9c2.2,0,4,1.8,4,4S245.2,231.6,242.9,231.6z"/>
		</g>
		<path class="st6" d="M195.3,224.4c-8.5,0-16.4-3.8-21.7-10.4c-1.4-1.7-1.1-4.2,0.6-5.6c1.7-1.4,4.2-1.1,5.6,0.6
			c3.8,4.7,9.4,7.4,15.4,7.4c6.1,0,11.8-2.8,15.6-7.6c1.4-1.7,3.9-2,5.6-0.7c1.7,1.4,2,3.9,0.7,5.6
			C211.9,220.5,203.9,224.4,195.3,224.4z"/>
		<path class="st6" d="M283.7,224.4c-8.5,0-16.4-3.8-21.7-10.4c-1.4-1.7-1.1-4.2,0.6-5.6c1.7-1.4,4.2-1.1,5.6,0.6
			c3.8,4.7,9.4,7.4,15.4,7.4c6.1,0,11.8-2.8,15.6-7.6c1.4-1.7,3.9-2,5.6-0.7c1.7,1.4,2,3.9,0.7,5.6
			C300.3,220.5,292.3,224.4,283.7,224.4z"/>
		<path class="st4" d="M204.2,109.7c-1.4,0-2.8-0.8-3.5-2.1c-1.1-1.9-0.3-4.4,1.6-5.4c6.6-3.6,13.7-6.2,21-7.8
			c2.2-0.5,4.3,0.9,4.7,3.1c0.5,2.2-0.9,4.3-3.1,4.7c-6.6,1.4-12.9,3.7-18.9,7C205.5,109.6,204.8,109.7,204.2,109.7z"/>
		<path class="st4" d="M168.5,153.8c-0.4,0-0.8-0.1-1.1-0.2c-2.1-0.6-3.3-2.9-2.7-5c4.1-13.7,11.8-26,22.5-35.7
			c1.6-1.5,4.2-1.4,5.6,0.3s1.4,4.2-0.3,5.6c-9.6,8.7-16.5,19.7-20.2,32C171.8,152.6,170.2,153.8,168.5,153.8z"/>
		<g>
			<circle class="st6" cx="278.9" cy="121.3" r="4.1"/>
			<circle class="st6" cx="269.2" cy="131.2" r="4.1"/>
			<circle class="st6" cx="283" cy="133.5" r="4.1"/>
		</g>
	</g>
	<path class="st2" d="M180.3,181.3c-0.9,0-1.9-0.3-2.6-1c-1.7-1.5-1.8-4-0.4-5.6c8.5-9.8,22.3-13.2,34.4-8.6
		c2.1,0.8,3.1,3.1,2.3,5.2c-0.8,2.1-3.1,3.1-5.2,2.3c-9-3.4-19.3-0.8-25.6,6.4C182.6,180.9,181.4,181.3,180.3,181.3z"/>
	<path class="st2" d="M298.8,181.3c-1.1,0-2.2-0.5-3-1.4c-6.3-7.2-16.6-9.8-25.6-6.4c-2.1,0.8-4.4-0.3-5.2-2.3
		c-0.8-2.1,0.3-4.4,2.3-5.2c12.1-4.6,25.9-1.1,34.4,8.6c1.5,1.7,1.3,4.2-0.4,5.6C300.7,181,299.7,181.3,298.8,181.3z"/>
	<path class="st2" d="M239.6,259.4c-7.4,0-14.7-1.9-21.1-5.5c-1.9-1.1-2.6-3.5-1.5-5.4c1.1-1.9,3.5-2.6,5.4-1.5
		c5.2,2.9,11.2,4.5,17.2,4.5c6.1,0,12-1.5,17.2-4.5c1.9-1.1,4.4-0.4,5.5,1.5c1.1,1.9,0.4,4.4-1.5,5.5
		C254.3,257.5,247,259.4,239.6,259.4z"/>
</g>
<path class="st2" d="M239.4,9c31.1,0,61.3,6.1,89.7,18.2c27.4,11.6,52.1,28.3,73.2,49.4c21.2,21.2,37.8,45.8,49.4,73.3
	c12,28.4,18.1,58.6,18.1,89.7c0,31.1-6.1,61.3-18.1,89.7c-11.6,27.4-28.2,52.1-49.4,73.2c-21.2,21.2-45.8,37.8-73.2,49.4
	c-28.4,12-58.6,18.1-89.7,18.1h-0.1c-31.1,0-61.3-6.1-89.7-18.2c-27.4-11.6-52.1-28.3-73.2-49.4c-21.2-21.2-37.8-45.8-49.4-73.3
	c-12-28.4-18.1-58.6-18.1-89.7c0-31.1,6.1-61.3,18.1-89.7c11.6-27.4,28.2-52.1,49.4-73.2c21.2-21.2,45.8-37.8,73.2-49.4
	C178.1,15.1,208.2,9,239.3,9H239.4 M239.3,0C107.1,0-0.1,107.1-0.1,239.3C-0.2,371.6,107,478.8,239.2,478.9c0,0,0.1,0,0.1,0
	c132.2,0,239.4-107.1,239.5-239.3C478.9,107.3,371.7,0.1,239.5,0C239.4,0,239.4,0,239.3,0L239.3,0z"/>
</svg>
