<?xml version="1.0" encoding="utf-8"?>
<!-- Generator: Adobe Illustrator 21.0.0, SVG Export Plug-In . SVG Version: 6.00 Build 0)  -->
<svg version="1.1" id="Layer_1" xmlns="http://www.w3.org/2000/svg" xmlns:xlink="http://www.w3.org/1999/xlink" x="0px" y="0px"
	 viewBox="0 0 478.9 478.9" style="enable-background:new 0 0 478.9 478.9;" xml:space="preserve">
<style type="text/css">
	.st0{clip-path:url(#SVGID_2_);}
	.st1{fill:#F95D88;}
	.st2{fill:#212121;}
	.st3{fill:none;}
	.st4{fill:#F0DCD5;}
	.st5{fill:#33475B;}
	.st6{fill:#F5C26B;}
	.st7{fill:#DBAE60;}
	.st8{fill:#F7EEEA;}
	.st9{fill:#FFFFFF;}
	.st10{fill:#E8CBC0;}
</style>
<g id="Idle_7_">
	<g>
		<g>
			<defs>
				<circle id="SVGID_1_" cx="238.5" cy="254.5" r="224.4"/>
			</defs>
			<clipPath id="SVGID_2_">
				<use xlink:href="#SVGID_1_"  style="overflow:visible;"/>
			</clipPath>
			<g class="st0">
				<g>
					<path class="st1" d="M224.1,290.7h28.7c65,0,117.7,52.7,117.7,117.7v90.2H106.4v-90.2C106.4,343.4,159.1,290.7,224.1,290.7z"/>
					<path class="st2" d="M370.6,502.4H106.4c-2.1,0-3.7-1.7-3.7-3.7v-90.2c0-67,54.5-121.4,121.4-121.4h28.7
						c67,0,121.4,54.5,121.4,121.4v90.2C374.3,500.7,372.6,502.4,370.6,502.4z M110.2,494.9h256.6v-86.4
						c0-62.8-51.1-113.9-113.9-113.9h-28.7c-62.8,0-113.9,51.1-113.9,113.9V494.9z"/>
				</g>
				<g>
					<g>
						<g>
							<line class="st3" x1="172.6" y1="498.6" x2="172.6" y2="435.9"/>
							<path class="st2" d="M172.6,502.4c-2.1,0-3.7-1.7-3.7-3.7v-62.7c0-2.1,1.7-3.7,3.7-3.7c2.1,0,3.7,1.7,3.7,3.7v62.7
								C176.3,500.7,174.6,502.4,172.6,502.4z"/>
						</g>
					</g>
					<g>
						<g>
							<line class="st3" x1="304.4" y1="498.6" x2="304.4" y2="435.9"/>
							<path class="st2" d="M304.4,502.4c-2.1,0-3.7-1.7-3.7-3.7v-62.7c0-2.1,1.7-3.7,3.7-3.7s3.7,1.7,3.7,3.7v62.7
								C308.2,500.7,306.5,502.4,304.4,502.4z"/>
						</g>
					</g>
				</g>
			</g>
		</g>
	</g>
</g>
<g id="Avatar_7">
	<g>
		<g>
			<path class="st4" d="M238.4,307.4L238.4,307.4c-47.3,0-85.6-38.3-85.6-85.6v-43.5c0-47.3,38.3-85.6,85.6-85.6h0
				c47.3,0,85.6,38.3,85.6,85.6v43.5C324,269.1,285.6,307.4,238.4,307.4z"/>
			<path class="st5" d="M238.4,311.1c-49.3,0-89.3-40.1-89.3-89.3v-43.5c0-49.3,40.1-89.3,89.3-89.3c49.3,0,89.3,40.1,89.3,89.3
				v43.5C327.7,271.1,287.6,311.1,238.4,311.1z M238.4,96.4c-45.1,0-81.8,36.7-81.8,81.8v43.5c0,45.1,36.7,81.8,81.8,81.8h0
				c45.1,0,81.8-36.7,81.8-81.8v-43.5C320.2,133.2,283.5,96.4,238.4,96.4z"/>
		</g>
		<g>
			<path class="st4" d="M232.4,200l-6.8,22.1c-1.4,4.4,2,8.9,6.6,8.9h9.3"/>
			<path class="st2" d="M241.5,234.8h-9.3c-3.4,0-6.5-1.6-8.5-4.3c-2-2.7-2.6-6.2-1.6-9.4l6.8-22.1c0.6-2,2.7-3.1,4.7-2.5
				c2,0.6,3.1,2.7,2.5,4.7l-6.8,22.1c-0.3,1-0.1,2,0.5,2.8c0.6,0.8,1.5,1.3,2.5,1.3h9.3c2.1,0,3.7,1.7,3.7,3.7
				C245.3,233.1,243.6,234.8,241.5,234.8z"/>
		</g>
		<g>
			<path class="st6" d="M323.9,215.5l-0.2,0.1l-7.8,21.1c-6,16.2-25.6,22.7-40.1,13.3c-4.4-2.8-9.5-4.4-14.7-4.4h-22.7h-0.2h-22.7
				c-5.2,0-10.3,1.5-14.7,4.4c-14.5,9.4-34,3-40.1-13.3l-7.8-21.1c-2,8.3-3,16.9-3,25.8c0,53.7,38,98.6,88.6,109.3
				C289,340.1,327,295.2,327,241.4C327,232.5,325.9,223.8,323.9,215.5z"/>
			<path class="st2" d="M238.4,354.5c-0.3,0-0.5,0-0.8-0.1c-25.5-5.4-48.7-19.5-65.4-39.8c-16.9-20.6-26.2-46.6-26.2-73.2
				c0-9,1-18,3.1-26.7c0.4-1.6,1.8-2.8,3.4-2.9c1.7-0.1,3.2,0.9,3.7,2.4l7.8,21.1c2.5,6.7,7.8,11.8,14.5,14c6.7,2.2,14,1.3,20-2.6
				c5-3.3,10.8-5,16.8-5h45.6c6,0,11.8,1.7,16.8,5c6,3.9,13.3,4.8,20,2.6c6.7-2.2,12-7.3,14.5-14l7.8-21.1c0.4-1,1.2-1.8,2.2-2.2
				l0.2-0.1c1-0.4,2.1-0.3,3.1,0.2c1,0.5,1.6,1.4,1.9,2.4c2.1,8.7,3.1,17.7,3.1,26.8c0,26.6-9.3,52.6-26.2,73.2
				c-16.6,20.3-39.9,34.4-65.4,39.8C238.9,354.5,238.7,354.5,238.4,354.5z M154.1,230c-0.4,3.8-0.6,7.6-0.6,11.5
				c0,24.9,8.7,49.2,24.5,68.4c15.4,18.8,36.8,31.9,60.4,37.1c23.6-5.2,45-18.3,60.4-37.1c15.8-19.2,24.5-43.5,24.5-68.4
				c0-4-0.2-8-0.7-11.9l-3.2,8.5c-3.3,8.8-10.3,15.6-19.2,18.5c-8.9,3-18.6,1.7-26.4-3.4c-3.8-2.5-8.2-3.8-12.7-3.8h-45.6
				c-4.5,0-8.9,1.3-12.7,3.8c-7.9,5.1-17.5,6.4-26.4,3.4c-8.9-3-15.9-9.7-19.2-18.5L154.1,230z"/>
		</g>
		<path class="st7" d="M177.9,290.9c-1.6,0-3-1-3.5-2.5c-2.3-6.8-3.9-13.8-4.7-21c-0.2-2.1,1.3-3.9,3.3-4.1c2.1-0.2,3.9,1.3,4.1,3.3
			c0.7,6.6,2.2,13.1,4.3,19.4c0.7,2-0.4,4.1-2.3,4.8C178.7,290.8,178.3,290.9,177.9,290.9z"/>
		<path class="st7" d="M195.2,320.4c-1,0-2.1-0.4-2.8-1.2c-4.7-5.3-8.9-11.2-12.3-17.5c-1-1.8-0.3-4.1,1.5-5.1
			c1.8-1,4.1-0.3,5.1,1.5c3.1,5.8,6.9,11.2,11.2,16c1.4,1.5,1.3,3.9-0.3,5.3C197,320.1,196.1,320.4,195.2,320.4z"/>
		<path class="st7" d="M296,303.5c-0.5,0-1-0.1-1.4-0.3c-1.9-0.8-2.8-3-2.1-4.9c4.2-10.2,6.3-21.1,6.3-32.4c0-2.1,1.7-3.7,3.7-3.7
			s3.7,1.7,3.7,3.7c0,12.3-2.3,24.1-6.8,35.3C298.9,302.6,297.5,303.5,296,303.5z"/>
		<path class="st7" d="M203.2,306.4c-1.4,0-2.7-0.8-3.4-2.1c-3.4-6.9-5.9-14.3-7.6-22.1c-0.4-2,0.9-4,2.9-4.4c2-0.4,4,0.9,4.4,2.9
			c1.5,7.2,3.8,14,7,20.3c0.9,1.9,0.2,4.1-1.7,5C204.3,306.3,203.8,306.4,203.2,306.4z"/>
		<path class="st7" d="M270.9,322.7c-0.5,0-1.1-0.1-1.6-0.4c-1.9-0.9-2.7-3.1-1.8-5c2.1-4.5,3.8-9.5,5-14.6c0.5-2,2.5-3.3,4.5-2.8
			c2,0.5,3.3,2.5,2.8,4.5c-1.3,5.6-3.2,11-5.5,16C273.6,321.9,272.3,322.7,270.9,322.7z"/>
		<path class="st7" d="M278.3,292.5c-0.1,0-0.2,0-0.3,0c-2.1-0.2-3.6-2-3.4-4.1c0.2-2.5,0.3-5,0.3-7.5c0-2.1,1.7-3.7,3.7-3.7
			s3.7,1.7,3.7,3.7c0,2.7-0.1,5.5-0.3,8.1C281.8,291,280.2,292.5,278.3,292.5z"/>
		<g>
			<g>
				<g>
					<path class="st8" d="M288,215.6h-17.2c-7.2,0-13.1-5.9-13.1-13.1v-18.1h43.3v18.1C301.1,209.8,295.2,215.6,288,215.6z"/>
					<path class="st2" d="M288,219.4h-17.2c-9.3,0-16.8-7.5-16.8-16.8v-18.1c0-2.1,1.7-3.7,3.7-3.7h43.3c2.1,0,3.7,1.7,3.7,3.7v18.1
						C304.8,211.8,297.3,219.4,288,219.4z M261.5,188.2v14.4c0,5.1,4.2,9.3,9.3,9.3H288c5.1,0,9.3-4.2,9.3-9.3v-14.4H261.5z"/>
				</g>
				<circle class="st2" cx="279.4" cy="200" r="6.1"/>
				<g>
					<line class="st3" x1="301.1" y1="184.4" x2="323.7" y2="180.4"/>
					<path class="st2" d="M301.1,188.2c-1.8,0-3.4-1.3-3.7-3.1c-0.4-2,1-4,3-4.3l22.7-4c2-0.4,4,1,4.3,3c0.4,2-1,4-3,4.3l-22.7,4
						C301.5,188.2,301.3,188.2,301.1,188.2z"/>
				</g>
			</g>
			<g>
				<g>
					<path class="st8" d="M204.5,215.6h-17.2c-7.2,0-13.1-5.9-13.1-13.1v-18.1h43.3v18.1C217.6,209.8,211.7,215.6,204.5,215.6z"/>
					<path class="st2" d="M204.5,219.4h-17.2c-9.3,0-16.8-7.5-16.8-16.8v-18.1c0-2.1,1.7-3.7,3.7-3.7h43.3c2.1,0,3.7,1.7,3.7,3.7
						v18.1C221.3,211.8,213.8,219.4,204.5,219.4z M178,188.2v14.4c0,5.1,4.2,9.3,9.3,9.3h17.2c5.1,0,9.3-4.2,9.3-9.3v-14.4H178z"/>
				</g>
				<circle class="st2" cx="195.9" cy="200" r="6.1"/>
				<g>
					<line class="st3" x1="152.8" y1="180.4" x2="175.5" y2="184.4"/>
					<path class="st2" d="M175.5,188.2c-0.2,0-0.4,0-0.7-0.1l-22.7-4c-2-0.4-3.4-2.3-3-4.3c0.4-2,2.3-3.4,4.3-3l22.7,4
						c2,0.4,3.4,2.3,3,4.3C178.8,186.9,177.3,188.2,175.5,188.2z"/>
				</g>
			</g>
			<g>
				<line class="st3" x1="217.6" y1="184.4" x2="257.8" y2="184.4"/>
				<path class="st2" d="M257.8,188.2h-40.2c-2.1,0-3.7-1.7-3.7-3.7c0-2.1,1.7-3.7,3.7-3.7h40.2c2.1,0,3.7,1.7,3.7,3.7
					C261.5,186.5,259.9,188.2,257.8,188.2z"/>
			</g>
		</g>
		<g>
			<path class="st6" d="M323.9,211.6v-33.3c0-10.1-1.8-19.9-5-28.9c-11.8,1.3-24.1,2-36.9,2c-45.2,0-85.7-8.9-113.3-22.9
				c-10.1,14-16,31.2-16,49.8v14.5c-16-7.4-27-23.6-27-42.3c0-8.2,2.1-15.9,5.8-22.6c4.6-8.4,5.2-18.5,0.6-26.9
				c-3.2-5.9-5-12.7-4.8-20c0.4-20.8,16.9-38.2,37.7-39.6c0.5,0,1-0.1,1.5-0.1c11.4-0.3,21.8,4,29.4,11.4
				c12.2,11.8,29,17.2,45.8,14.3c6.2-1.1,12.7-1.5,19.2-1.2c43.7,2,79.6,36.4,83.9,79.6c0.1,1.4,0.2,2.8,0.3,4.1
				C346.2,173.3,338.1,195.1,323.9,211.6z"/>
			<path class="st2" d="M323.9,215.4c-0.4,0-0.9-0.1-1.3-0.2c-1.5-0.5-2.4-1.9-2.4-3.5v-33.3c0-8.5-1.3-16.8-3.8-24.8
				c-11.2,1.2-22.7,1.7-34.3,1.7c-42.5,0-83.1-7.9-112.1-21.9c-8.8,13.3-13.5,28.8-13.5,45v14.5c0,1.3-0.7,2.5-1.7,3.2
				c-1.1,0.7-2.4,0.8-3.6,0.2c-17.7-8.2-29.2-26.2-29.2-45.7c0-8.6,2.2-17,6.3-24.4c4.2-7.5,4.4-16.2,0.6-23.3
				c-3.6-6.7-5.4-14.2-5.3-21.8c0.4-22.8,18.5-41.8,41.2-43.3c0.5,0,1-0.1,1.5-0.1c12.2-0.4,23.5,4,32.2,12.4
				c11.5,11.1,27,16,42.5,13.3c6.5-1.1,13.3-1.5,20-1.2c45.4,2.1,83,37.8,87.4,83c0.1,1.2,0.2,2.6,0.3,4.3
				c1.2,23.8-6.6,46.8-22,64.8C326,214.9,325,215.4,323.9,215.4z M318.9,145.6c1.6,0,3,1,3.5,2.5c3.5,9.6,5.2,19.8,5.2,30.2v22.1
				c9.8-14.9,14.5-32.6,13.6-50.7c-0.1-1.6-0.2-2.8-0.3-3.9c-4.1-41.6-38.6-74.3-80.3-76.3c-6.2-0.3-12.4,0.1-18.4,1.1
				c-17.9,3.1-35.8-2.5-49-15.3c-7.2-6.9-16.6-10.6-26.6-10.3c-0.5,0-0.9,0-1.3,0.1c-18.8,1.2-33.9,17-34.2,35.9
				c-0.1,6.3,1.4,12.6,4.4,18.1c5,9.3,4.8,20.7-0.6,30.5c-3.5,6.3-5.4,13.5-5.4,20.8c0,14.6,7.5,28.1,19.5,36v-8.1
				c0-18.8,5.8-36.8,16.7-52c1.1-1.5,3.1-2,4.7-1.2c28.1,14.3,68.8,22.5,111.6,22.5c12.3,0,24.6-0.7,36.4-2
				C318.6,145.7,318.8,145.6,318.9,145.6z"/>
		</g>
		<path class="st9" d="M143,85.8c-2.1,0-3.7-1.7-3.7-3.7c0-15.6,12.7-28.2,28.2-28.2c2.1,0,3.7,1.7,3.7,3.7s-1.7,3.7-3.7,3.7
			c-11.4,0-20.7,9.3-20.7,20.7C146.8,84.1,145.1,85.8,143,85.8z"/>
		<g>
			<path class="st10" d="M152.8,180.4v39.2c-10.8,0-19.6-8.8-19.6-19.6C133.2,189.2,142,180.4,152.8,180.4z"/>
			<path class="st2" d="M152.8,223.4c-12.9,0-23.4-10.5-23.4-23.4s10.5-23.4,23.4-23.4c2.1,0,3.7,1.7,3.7,3.7v39.2
				C156.6,221.7,154.9,223.4,152.8,223.4z M149.1,184.6c-6.9,1.7-12.1,8-12.1,15.4c0,7.5,5.2,13.7,12.1,15.4V184.6z"/>
		</g>
		<g>
			<path class="st10" d="M324,219.6v-39.2c10.8,0,19.6,8.8,19.6,19.6C343.6,210.9,334.8,219.6,324,219.6z"/>
			<path class="st2" d="M324,223.4c-2.1,0-3.7-1.7-3.7-3.7v-39.2c0-2.1,1.7-3.7,3.7-3.7c12.9,0,23.4,10.5,23.4,23.4
				S336.8,223.4,324,223.4z M327.7,184.6v30.8c6.9-1.7,12.1-8,12.1-15.4C339.8,192.6,334.6,186.3,327.7,184.6z"/>
		</g>
		<path class="st7" d="M284.1,136.3c-11.9,0-24-0.8-36-2.3c-2.1-0.3-3.5-2.1-3.3-4.2c0.3-2.1,2.1-3.5,4.2-3.3
			c21.1,2.7,42.3,2.9,62.9,0.8c2.1-0.2,3.9,1.3,4.1,3.3c0.2,2.1-1.3,3.9-3.3,4.1C303.3,135.8,293.8,136.3,284.1,136.3z"/>
		<path class="st7" d="M223.3,129.7c-0.3,0-0.5,0-0.8-0.1c-25.5-5.6-40.9-12.5-41.5-12.8c-1.9-0.9-2.7-3.1-1.9-5
			c0.9-1.9,3.1-2.7,5-1.9c0.2,0.1,15.4,6.9,40,12.3c2,0.4,3.3,2.4,2.9,4.5C226.6,128.5,225.1,129.7,223.3,129.7z"/>
		<path class="st7" d="M270.4,118.5c-32.3,0-55.9-8.9-56.9-9.3c-1.9-0.7-2.9-2.9-2.2-4.8c0.7-1.9,2.9-2.9,4.8-2.2
			c0.3,0.1,23.4,8.8,54.2,8.8c2.1,0,3.7,1.7,3.7,3.7C274.1,116.8,272.5,118.5,270.4,118.5z"/>
		<path class="st7" d="M307,107.6c-1.2,0-2.3-0.5-3-1.5c-0.1-0.2-15.3-20.3-42.5-20.3c-2.1,0-3.7-1.7-3.7-3.7s1.7-3.7,3.7-3.7
			c31,0,47.8,22.4,48.5,23.4c1.2,1.7,0.9,4-0.8,5.2C308.6,107.4,307.8,107.6,307,107.6z"/>
	</g>
	<path class="st7" d="M182.6,175.1c-1.1,0-2.3-0.5-3-1.5c-1.2-1.7-0.9-4,0.8-5.2c9.7-7.2,23.1-7.6,33.3-1c1.7,1.1,2.2,3.5,1.1,5.2
		s-3.5,2.2-5.2,1.1c-7.5-4.9-17.5-4.6-24.7,0.7C184.1,174.8,183.4,175.1,182.6,175.1z"/>
	<path class="st7" d="M294.4,175.1c-0.8,0-1.6-0.2-2.2-0.7c-7.2-5.4-17.1-5.7-24.7-0.7c-1.7,1.1-4.1,0.6-5.2-1.1
		c-1.1-1.7-0.6-4.1,1.1-5.2c10.2-6.6,23.5-6.2,33.3,1c1.7,1.2,2,3.6,0.8,5.2C296.7,174.6,295.6,175.1,294.4,175.1z"/>
	<path class="st2" d="M238.4,273c-6.9,0-13.7-1.8-19.8-5.2c-1.8-1-2.5-3.3-1.4-5.1c1-1.8,3.3-2.5,5.1-1.4c4.9,2.7,10.5,4.2,16.1,4.2
		c5.7,0,11.3-1.4,16.1-4.2c1.8-1,4.1-0.4,5.1,1.4c1,1.8,0.4,4.1-1.4,5.1C252.2,271.2,245.4,273,238.4,273z"/>
</g>
<path class="st2" d="M239,8.3c31.1,0,61.3,6.1,89.7,18.2c27.4,11.6,52.1,28.3,73.2,49.4c21.2,21.2,37.8,45.8,49.4,73.3
	c12,28.4,18.1,58.6,18.1,89.7c0,31.1-6.1,61.3-18.1,89.7c-11.6,27.4-28.2,52.1-49.4,73.2c-21.2,21.2-45.8,37.8-73.2,49.4
	c-28.4,12-58.6,18.1-89.7,18.1h-0.1c-31.1,0-61.3-6.1-89.7-18.2c-27.4-11.6-52.1-28.3-73.2-49.4c-21.2-21.2-37.8-45.8-49.4-73.3
	c-12-28.4-18.1-58.6-18.1-89.7c0-31.1,6.1-61.3,18.1-89.7c11.6-27.4,28.2-52.1,49.4-73.2c21.2-21.2,45.8-37.8,73.2-49.4
	c28.4-12,58.6-18.1,89.7-18.1H239 M238.8-0.7C106.6-0.7-0.6,106.5-0.6,238.6c-0.1,132.2,107.1,239.5,239.3,239.6c0,0,0.1,0,0.1,0
	c132.2,0,239.4-107.1,239.5-239.3C478.4,106.7,371.2-0.6,239-0.7C238.9-0.7,238.9-0.7,238.8-0.7L238.8-0.7z"/>
</svg>
