<?xml version="1.0" encoding="utf-8"?>
<!-- Generator: Adobe Illustrator 21.0.0, SVG Export Plug-In . SVG Version: 6.00 Build 0)  -->
<svg version="1.1" id="Layer_1" xmlns="http://www.w3.org/2000/svg" xmlns:xlink="http://www.w3.org/1999/xlink" x="0px" y="0px"
	 viewBox="0 0 478.9 478.9" style="enable-background:new 0 0 478.9 478.9;" xml:space="preserve">
<style type="text/css">
	.st0{clip-path:url(#SVGID_2_);}
	.st1{fill:#4EDDAF;}
	.st2{fill:#212121;}
	.st3{fill:none;}
	.st4{fill:#516F90;}
	.st5{fill:#F4A9AD;}
	.st6{fill:#33475B;}
	.st7{fill:#D39E6E;}
	.st8{fill:#FFFFFF;}
	.st9{fill:#AD9B79;}
</style>
<g id="Idle_14_">
	<g>
		<g>
			<defs>
				<circle id="SVGID_1_" cx="239.5" cy="239.5" r="239.5"/>
			</defs>
			<clipPath id="SVGID_2_">
				<use xlink:href="#SVGID_1_"  style="overflow:visible;"/>
			</clipPath>
			<g class="st0">
				<g>
					<path class="st1" d="M224.1,278.1h30.7c69.4,0,125.6,56.2,125.6,125.6v96.2H98.5v-96.2C98.5,334.3,154.8,278.1,224.1,278.1z"/>
					<path class="st2" d="M380.4,503.9H98.5c-2.2,0-4-1.8-4-4v-96.2c0-71.4,58.1-129.6,129.6-129.6h30.7
						c71.4,0,129.6,58.1,129.6,129.6v96.2C384.4,502.1,382.6,503.9,380.4,503.9z M102.5,495.9h273.8v-92.2
						c0-67-54.5-121.6-121.6-121.6h-30.7c-67,0-121.6,54.5-121.6,121.6V495.9z"/>
				</g>
				<g>
					<g>
						<g>
							<line class="st3" x1="169.1" y1="499.9" x2="169.1" y2="433.1"/>
							<path class="st2" d="M169.1,503.9c-2.2,0-4-1.8-4-4v-66.9c0-2.2,1.8-4,4-4s4,1.8,4,4v66.9
								C173.1,502.1,171.3,503.9,169.1,503.9z"/>
						</g>
					</g>
					<g>
						<g>
							<line class="st3" x1="309.8" y1="499.9" x2="309.8" y2="433.1"/>
							<path class="st2" d="M309.8,503.9c-2.2,0-4-1.8-4-4v-66.9c0-2.2,1.8-4,4-4s4,1.8,4,4v66.9C313.8,502.1,312,503.9,309.8,503.9
								z"/>
						</g>
					</g>
				</g>
			</g>
		</g>
	</g>
</g>
<g id="Avatar_14">
	<g>
		<g>
			<path class="st4" d="M135.8,178.2c0,33.5-6.8,78.2-10.6,100.3c-1.4,8.5,3.2,16.9,11.3,20c15.6,6.1,42.4,13.3,69.9,4.9"/>
			<path class="st2" d="M179.9,311.3c-17.4,0-33.1-4.4-44.9-9c-9.7-3.8-15.5-14.1-13.8-24.4c3.9-23.1,10.5-66.8,10.5-99.7
				c0-2.2,1.8-4,4-4s4,1.8,4,4c0,33.4-6.7,77.6-10.6,101c-1.1,6.6,2.6,13.2,8.8,15.7c16.5,6.5,41.6,12.6,67.3,4.8
				c2.1-0.6,4.3,0.5,5,2.7c0.6,2.1-0.5,4.3-2.7,5C198.2,310.2,188.8,311.3,179.9,311.3z"/>
		</g>
		<g>
			<path class="st4" d="M343.1,178.2c0,33.5,6.8,78.2,10.6,100.3c1.4,8.5-3.2,16.9-11.3,20c-15.6,6.1-42.4,13.3-69.9,4.9"/>
			<path class="st2" d="M299,311.3c-8.9,0-18.3-1.2-27.7-4c-2.1-0.6-3.3-2.9-2.7-5c0.6-2.1,2.9-3.3,5-2.7
				c25.7,7.8,50.8,1.7,67.3-4.8c6.2-2.4,9.9-9,8.8-15.7c-4-23.4-10.6-67.5-10.6-101c0-2.2,1.8-4,4-4s4,1.8,4,4
				c0,32.9,6.6,76.5,10.5,99.7c1.8,10.3-4,20.6-13.8,24.4C332.2,306.9,316.4,311.3,299,311.3z"/>
		</g>
		<g>
			<path class="st5" d="M339.2,214c-2.7,1.3-5.8,2-9,2c-1,0-2.1-0.1-3.1-0.2c1-0.3,2-0.5,3.1-0.7C333.1,214.4,336.1,214.1,339.2,214
				z"/>
			<path class="st6" d="M330.2,220c-1.2,0-2.4-0.1-3.6-0.3c-1.9-0.3-3.3-1.8-3.4-3.7c-0.1-1.9,1.1-3.6,2.9-4.1
				c1.3-0.4,2.4-0.6,3.4-0.8c3.2-0.7,6.5-1.1,9.7-1.2c1.9,0,3.6,1.2,4,3.1c0.4,1.8-0.5,3.7-2.2,4.5C337.5,219.2,333.9,220,330.2,220
				z"/>
		</g>
		<g>
			<circle class="st7" cx="330.5" cy="195.1" r="20.9"/>
			<path class="st2" d="M330.5,220c-13.7,0-24.9-11.2-24.9-24.9s11.2-24.9,24.9-24.9s24.9,11.2,24.9,24.9S344.3,220,330.5,220z
				 M330.5,178.2c-9.3,0-16.9,7.6-16.9,16.9s7.6,16.9,16.9,16.9s16.9-7.6,16.9-16.9S339.9,178.2,330.5,178.2z"/>
		</g>
		<g>
			<path class="st7" d="M330.8,171.9v46.5c0,50.4-40.9,91.3-91.3,91.3c-50.4,0-91.3-40.9-91.3-91.3v-46.5
				c0-50.4,40.9-91.3,91.3-91.3c25.2,0,48,10.2,64.6,26.8C320.5,123.8,330.8,146.7,330.8,171.9z"/>
			<path class="st6" d="M239.5,313.6c-52.6,0-95.3-42.8-95.3-95.3v-46.5c0-52.6,42.8-95.3,95.3-95.3c25.5,0,49.4,9.9,67.4,27.9
				c18,18,27.9,41.9,27.9,67.4v46.5C334.8,270.9,292,313.6,239.5,313.6z M239.5,84.6c-48.1,0-87.3,39.2-87.3,87.3v46.5
				c0,48.1,39.2,87.3,87.3,87.3c48.1,0,87.3-39.2,87.3-87.3v-46.5c0-23.3-9.1-45.2-25.6-61.7C284.7,93.6,262.8,84.6,239.5,84.6z"/>
		</g>
		<path class="st2" d="M239.5,313.6c-52.6,0-95.3-42.8-95.3-95.3v-46.5c0-52.6,42.8-95.3,95.3-95.3c25.5,0,49.4,9.9,67.4,27.9
			c18,18,27.9,41.9,27.9,67.4v46.5C334.8,270.9,292,313.6,239.5,313.6z M239.5,84.6c-48.1,0-87.3,39.2-87.3,87.3v46.5
			c0,48.1,39.2,87.3,87.3,87.3c48.1,0,87.3-39.2,87.3-87.3v-46.5c0-23.3-9.1-45.2-25.6-61.7C284.7,93.6,262.8,84.6,239.5,84.6z"/>
		<g>
			<path class="st7" d="M233.1,195.1l-7.2,23.6c-1.4,4.7,2.1,9.5,7,9.5h9.9"/>
			<path class="st2" d="M242.8,232.2h-9.9c-3.6,0-6.9-1.7-9.1-4.6c-2.2-2.9-2.8-6.6-1.7-10.1l7.2-23.6c0.6-2.1,2.9-3.3,5-2.7
				c2.1,0.6,3.3,2.9,2.7,5l-7.2,23.6c-0.3,1-0.1,2.1,0.5,3s1.6,1.3,2.7,1.3h9.9c2.2,0,4,1.8,4,4S245,232.2,242.8,232.2z"/>
		</g>
		<g>
			<path class="st7" d="M148.1,174.2V216c-11.6,0-20.9-9.4-20.9-20.9C127.2,183.6,136.6,174.2,148.1,174.2z"/>
			<path class="st2" d="M148.1,220c-13.7,0-24.9-11.2-24.9-24.9s11.2-24.9,24.9-24.9c2.2,0,4,1.8,4,4V216
				C152.1,218.2,150.4,220,148.1,220z M144.1,178.7c-7.4,1.8-12.9,8.5-12.9,16.4s5.5,14.6,12.9,16.4V178.7z"/>
		</g>
		<g>
			<path class="st4" d="M148.1,174.2c18.4-18.4,34.8-27.5,61.3-27.7h0.8c51.6,0,93.6-22.3,93.6-39.4l0,0c0,55.8,26.7,67.1,26.7,67.1
				l12.6,4.2c0.2-2.6,0.3-5.3,0.3-7.9c0-16.1-3.7-31.4-10.2-45.1c-2.7-5.6-6.9-10.2-12-13.3c-5.1-3.1-11.1-5-17.3-5l0,0l0,0v-0.5
				c0-12.3-6.9-23.7-17.9-29.2c-14-7-29.8-10.9-46.5-10.9c-58.8,0-106.1,48.7-103.9,108c0,1.2,0.1,2.5,0.2,3.7
				C139.2,175.7,143.5,174.2,148.1,174.2"/>
			<path class="st2" d="M343.1,182.4c-0.4,0-0.9-0.1-1.3-0.2l-12.6-4.2c-0.1,0-0.2-0.1-0.3-0.1c-1.1-0.5-24.2-10.7-28.5-55.7
				c-5.1,5.2-12.7,10.3-22.5,14.7c-19.3,8.8-43.4,13.6-67.8,13.6h-0.8c-23.4,0.1-39.3,7.3-58.4,26.5c-0.8,0.8-1.8,1.2-2.8,1.2
				c-3.6,0-7.1,1.1-10,3.3c-1.2,0.9-2.7,1-4,0.4c-1.3-0.6-2.2-1.9-2.3-3.3c-0.1-1.5-0.2-2.7-0.2-3.9c-1.1-29.6,9.6-57.7,30.1-79
				c20.5-21.3,48.2-33.1,77.8-33.1c17,0,33.2,3.8,48.2,11.3c11.4,5.7,18.9,16.8,20,29.5c5.5,0.6,10.8,2.4,15.6,5.4
				c5.9,3.6,10.6,8.8,13.5,15c7.1,14.6,10.6,30.4,10.6,46.8c0,2.8-0.1,5.5-0.3,8.2c-0.1,1.2-0.8,2.3-1.8,3
				C344.7,182.2,343.9,182.4,343.1,182.4z M332,170.5l7.3,2.5c0-0.8,0-1.6,0-2.4c0-15.2-3.3-29.8-9.8-43.3
				c-2.3-4.8-5.9-8.8-10.5-11.6c-3.5-2.1-7.3-3.5-11.2-4.1C309.1,158.1,330.4,169.6,332,170.5z M239.4,70.5c-27.4,0-53,10.9-72,30.6
				c-18.4,19.1-28.3,44.1-27.9,70.6c2.2-0.8,4.5-1.3,6.9-1.5c9.9-9.7,18.4-16,27.6-20.4c10.5-5,21.7-7.3,35.4-7.4h0.8
				c49.5,0,89.6-21.4,89.6-35.4v-0.5c0-11-6-20.8-15.7-25.6C270.2,74.1,255.2,70.5,239.4,70.5z"/>
		</g>
		<path class="st8" d="M163.4,131.9c-0.7,0-1.3-0.2-2-0.5c-1.9-1.1-2.6-3.5-1.5-5.4c14.2-25.2,39.7-42.3,68.3-45.8
			c2.2-0.3,4.2,1.3,4.5,3.5c0.3,2.2-1.3,4.2-3.5,4.5c-26,3.2-49.3,18.9-62.3,41.8C166.1,131.2,164.8,131.9,163.4,131.9z"/>
		<g>
			<g>
				<g>
					<path class="st9" d="M292.5,211.8h-18.3c-7.7,0-13.9-6.2-13.9-13.9v-19.4h46.2v19.4C306.5,205.5,300.2,211.8,292.5,211.8z"/>
					<path class="st2" d="M292.5,215.8h-18.3c-9.9,0-17.9-8.1-17.9-17.9v-19.4c0-2.2,1.8-4,4-4h46.2c2.2,0,4,1.8,4,4v19.4
						C310.5,207.7,302.4,215.8,292.5,215.8z M264.3,182.5v15.4c0,5.5,4.5,9.9,9.9,9.9h18.3c5.5,0,9.9-4.5,9.9-9.9v-15.4H264.3z"/>
				</g>
				<circle class="st2" cx="283.4" cy="195.1" r="6.5"/>
				<g>
					<line class="st3" x1="306.5" y1="178.5" x2="330.7" y2="188.6"/>
					<path class="st2" d="M330.6,192.6c-0.5,0-1-0.1-1.6-0.3l-24.2-10.2c-2-0.9-3-3.2-2.1-5.2c0.9-2,3.2-3,5.2-2.1l24.2,10.2
						c2,0.9,3,3.2,2.1,5.2C333.7,191.7,332.2,192.6,330.6,192.6z"/>
				</g>
			</g>
			<g>
				<g>
					<path class="st9" d="M203.4,211.8h-18.3c-7.7,0-13.9-6.2-13.9-13.9v-19.4h46.2v19.4C217.4,205.5,211.1,211.8,203.4,211.8z"/>
					<path class="st2" d="M203.4,215.8h-18.3c-9.9,0-17.9-8.1-17.9-17.9v-19.4c0-2.2,1.8-4,4-4h46.2c2.2,0,4,1.8,4,4v19.4
						C221.4,207.7,213.3,215.8,203.4,215.8z M175.2,182.5v15.4c0,5.5,4.5,9.9,9.9,9.9h18.3c5.5,0,9.9-4.5,9.9-9.9v-15.4H175.2z"/>
				</g>
				<circle class="st2" cx="194.3" cy="195.1" r="6.5"/>
				<g>
					<line class="st3" x1="148.3" y1="188.6" x2="171.2" y2="178.5"/>
					<path class="st2" d="M148.3,192.6c-1.5,0-3-0.9-3.7-2.4c-0.9-2,0-4.4,2-5.3l22.9-10.2c2-0.9,4.4,0,5.3,2c0.9,2,0,4.4-2,5.3
						l-22.9,10.2C149.3,192.5,148.8,192.6,148.3,192.6z"/>
				</g>
			</g>
			<g>
				<line class="st3" x1="217.4" y1="178.5" x2="260.3" y2="178.5"/>
				<path class="st2" d="M260.3,182.5h-42.9c-2.2,0-4-1.8-4-4s1.8-4,4-4h42.9c2.2,0,4,1.8,4,4S262.5,182.5,260.3,182.5z"/>
			</g>
		</g>
	</g>
	<path class="st2" d="M180.2,176.5c-0.9,0-1.9-0.3-2.6-1c-1.7-1.5-1.8-4-0.4-5.6c8.5-9.8,22.3-13.2,34.4-8.6
		c2.1,0.8,3.1,3.1,2.3,5.2c-0.8,2.1-3.1,3.1-5.2,2.3c-9-3.4-19.3-0.8-25.6,6.4C182.4,176.1,181.3,176.5,180.2,176.5z"/>
	<path class="st2" d="M298.7,176.5c-1.1,0-2.2-0.5-3-1.4c-6.3-7.2-16.6-9.8-25.6-6.4c-2.1,0.8-4.4-0.3-5.2-2.3
		c-0.8-2.1,0.3-4.4,2.3-5.2c12.1-4.6,25.9-1.1,34.4,8.6c1.5,1.7,1.3,4.2-0.4,5.6C300.6,176.2,299.6,176.5,298.7,176.5z"/>
	<path class="st2" d="M242.1,259.1c-7.4,0-14.7-1.9-21.1-5.5c-1.9-1.1-2.6-3.5-1.5-5.4c1.1-1.9,3.5-2.6,5.4-1.5
		c5.2,2.9,11.2,4.5,17.2,4.5c6.1,0,12-1.5,17.2-4.5c1.9-1.1,4.4-0.4,5.5,1.5c1.1,1.9,0.4,4.4-1.5,5.5
		C256.8,257.2,249.5,259.1,242.1,259.1z"/>
</g>
<path class="st2" d="M240,8.3c31.1,0,61.3,6.1,89.7,18.2c27.4,11.6,52.1,28.3,73.2,49.4c21.2,21.2,37.8,45.8,49.4,73.3
	c12,28.4,18.1,58.6,18.1,89.7c0,31.1-6.1,61.3-18.1,89.7c-11.6,27.4-28.2,52.1-49.4,73.2c-21.2,21.2-45.8,37.8-73.2,49.4
	c-28.4,12-58.6,18.1-89.7,18.1h-0.1c-31.1,0-61.3-6.1-89.7-18.2c-27.4-11.6-52.1-28.3-73.2-49.4c-21.2-21.2-37.8-45.8-49.4-73.3
	c-12-28.4-18.1-58.6-18.1-89.7c0-31.1,6.1-61.3,18.1-89.7c11.6-27.4,28.2-52.1,49.4-73.2c21.2-21.2,45.8-37.8,73.2-49.4
	c28.4-12,58.6-18.1,89.7-18.1H240 M239.8-0.7C107.6-0.7,0.4,106.5,0.4,238.6C0.3,370.9,107.5,478.2,239.7,478.2c0,0,0.1,0,0.1,0
	c132.2,0,239.4-107.1,239.5-239.3C479.4,106.7,372.2-0.6,240-0.7C239.9-0.7,239.9-0.7,239.8-0.7L239.8-0.7z"/>
</svg>
