<?xml version="1.0" encoding="utf-8"?>
<!-- Generator: Adobe Illustrator 19.0.0, SVG Export Plug-In . SVG Version: 6.00 Build 0)  -->
<svg version="1.1" id="Layer_1" xmlns="http://www.w3.org/2000/svg" xmlns:xlink="http://www.w3.org/1999/xlink" x="0px" y="0px"
	 viewBox="0 0 640 480" style="enable-background:new 0 0 640 480;" xml:space="preserve">
<style type="text/css">
	.st0{fill:#FEE040;}
	.st1{fill:#FA6F9A;}
	.st2{fill:#73E4BD;}
	.st3{fill:#FDE041;}
	.st4{fill:#070606;}
	.st5{fill:#FEE45A;}
	.st6{fill:#FED732;}
	.st7{fill:#FEF7FE;}
	.st8{fill:#FDFEFE;}
	.st9{fill:#58524F;}
	.st10{fill:#FDCB1C;}
	.st11{fill:#F6F6F5;}
	.st12{fill:#040303;}
	.st13{fill:#CFC7C6;}
</style>
<g id="XMLID_1_">
	<path id="XMLID_223_" class="st0" d="M121.4,69.2c0.7-0.6,1.6-0.6,2.4-0.6c10.6,0,21.2-1.4,31.7-2.2c10.5-0.8,21-1.1,31.4-1.8
		c10.7-0.7,21.4-1.2,32.1-1.3c3.6,0,7.2,0.6,10.8,0.9c11,0.9,22.1,0.6,33.1,0.6c5.5,0,11,0.1,16.6-0.2c10.4-0.5,20.8-1.1,31.1-1.9
		c7-0.5,13.9-1.6,20.9-2.2c5.2-0.5,10.4-0.6,15.6-0.9c17.4-1,34.8-0.5,52.2-0.4c7.7,0.1,15.5,0.2,23.2,0.5c4.1,0.1,8.2-0.1,12.4-0.6
		c7.3-0.9,14.6-1.3,21.8-2c4.7-0.5,9.5-1.1,14.2-2c3.5-0.7,6.9-0.9,10.4-1c7.4-0.2,14.8-1.1,22.2-1.8c0.4,0,0.8-0.1,1.3-0.1
		c7.4-0.2,14.9-0.5,22.3-0.5c6,0,12,1.1,18.1,0.9c5.6-0.1,11.2-0.6,16.8-0.9c6.2-0.3,12.6-1,18.4,2.3c0.5,0.3,1,0.4,1.4,0.7
		c5.3,2.7,15.4,13.2,17.8,18.7c2.9,6.6,5.3,13.5,4.7,20.9c-0.3,3.9-0.7,7.8-1.5,11.7c-3.2,15.8-3.3,31.9-2.8,47.9
		c0.3,8.4,1.5,16.7,2.2,25c1.3,14.5,3.4,28.9,3.5,43.4c0,5.6,1.2,11.2,1.5,16.8c0.7,13.5,4,26.6,5.9,39.9
		c2.6,17.9,4.2,35.8,3.3,53.9c-0.4,8.9-0.9,17.8-1.3,26.7c-0.3,6.1-1.5,12.2-3.5,18.1c-1.5,4.3-2.4,8.8-2.1,13.4
		c0.2,3.8,0,7.6,0,11.5c0,6.3-3,10.5-8.3,13.6c-4.7,2.8-9.9,3.6-15.2,4.3c-2.5,0.3-5,0.6-7.6,0.9c0.1-12.9-0.3-25.9,0.3-38.8
		c0.5-10.1,0.7-20.1,1.4-30.2c0.4-5.6,0.8-11.2,1.2-16.8c0.6-9.8,1.3-19.7,2.1-29.5c0.1-1.9,0.5-3.8,1.3-5.5
		c3.1-6.1,5.9-12.2,8.6-18.5c2.3-5.6,4.8-11.1,5.9-17.1c2.2-11.2,3.8-22.6,3.4-34.1c-0.4-10.9-2.6-21.3-8.1-30.7
		c-5.7-9.9-13.9-16.7-25.2-19.4c-3.2-0.8-6.5-0.9-9.7-1.4c-3.7-0.6-7.4-0.7-11.1-0.3c-3.7-6.4-5.1-13.3-5.2-20.6
		c-0.1-7.4,0.3-14.8,1.4-22.1c4.7-0.7,7.8-3.6,9-8.2c0.7-2.6,0.7-5.3,0.2-7.9c-0.3-1.3-0.2-2.2,0.8-3c2.8-2.3,3.8-5.5,3.9-9
		c0-2.2-0.2-4.4-0.5-6.7c-0.8-6.8-4.1-11.9-10.2-15.1c-1.1-0.6-1.5-1.2-1.2-2.5c0.6-2.7,0.4-5.5,0-8.2c-0.8-4.5-3-8.1-6.7-10.8
		c-3.3-2.3-6.8-2.8-10.6-1.5c-0.6,0.2-1.2,0.1-1.8-0.2c-2.9-1.4-6.1-1.8-9.1-2.7c-4.6-1.2-9.2-1.6-13.9-1.1
		c-15.8,1.4-29.2,8-40.1,19.4c-6.2,6.5-9.8,14.3-9.5,23.6c0.1,1.4-0.6,1.9-1.5,2.5c-3.4,2.3-5.9,5.5-8,9c-1.4,2.3-2.1,4.8-2.1,7.6
		c0,3,1.3,5.4,4.1,6.7c4.3,2.1,10.1,2.4,14.2-1.7c2.6-2.7,4.8-5.7,6.6-8.9c1.4,2.7,2.1,5.7,3.2,8.6c3,8.3,5.2,16.9,7.8,25.4
		c-0.5,0-1.1,0-1.5-0.4c-2.9-2.9-6.3-5-9.5-7.5c-4.9-3.8-10.1-7.1-15.9-9.1c-7.2-2.5-14.8-3.5-22.4-3.4c-5.1,0.1-10.2,0-15.3,0
		c-5,0-9.8,1-14.7,1.7c-3.8,0.5-7.5,2.2-11.2,1.4c-4-0.9-8-0.8-12-1c-8.1-0.2-16.2-0.6-24.4-0.3c-7.3,0.2-14.6,0.4-21.9,0.7
		c-3.1,0.1-6.1,0.6-9.1,0.8c-4.7,0.3-9.4,1.2-14.1,1.7c-5.2,0.6-10.4,1.6-15.6,2.3c-5.6,0.8-11.1,2.4-16.8,2.9
		c-2.4,0.2-4.9,0.1-7.2,0.7c-3.2,0.8-6.4,0.8-9.5,0.3c-6-0.9-12.1-1.2-18.2-2.3c-2.6-0.4-5.2-0.9-7.9-0.8c-6.5,0.2-12.9,0-19.4,0.6
		c-2.5,0.2-5,0.4-7.5,1.2c-9.9,3.4-18.4,9-25.9,16.1c-3.4,3.2-6.6,6.6-9.7,10.1c-5.5,6.3-10.4,13.1-14.7,20.2c-1.8,3-3.7,6-4,9.6
		c-2.9-0.9-5.6-2.2-8.7-2.6c-5.8-0.7-11.6-0.4-17.4-0.6c-2.8-0.1-5.5-0.4-8.1-1.2c-0.1-0.5-0.2-1-0.3-1.6c-0.7-3.6-1.2-7.3-1-11
		c0.2-3,1.3-4.3,4.1-4.7c1.5-0.2,2.9-0.4,4.4-0.6c2.7-0.4,5-1.7,6.7-3.9c2.3-2.9,4.1-5.9,5.2-9.4c0.3-1.1,0.4-2.3,1.4-3.1
		c0.3,0.5-0.5,1.2,0.4,1.8c3.8-4.9,7.7-9.5,9.9-15.4c2-5.5,2.9-11.3,4.3-16.9c2.1-8.2,1.6-16.4,0.7-24.6c-0.2-1.8-0.6-3.6-1.1-5.3
		c-2.3-7.5-6.4-14-11.5-19.9c-2.2-2.6-5-4.5-8.1-6C128.1,70.6,124.8,69.9,121.4,69.2z"/>
	<path id="XMLID_222_" class="st1" d="M548.3,178.8c3.7-0.4,7.4-0.3,11.1,0.3c3.2,0.5,6.5,0.6,9.7,1.4c11.4,2.7,19.5,9.5,25.2,19.4
		c5.5,9.5,7.7,19.9,8.1,30.7c0.4,11.5-1.1,22.8-3.4,34.1c-1.2,6-3.6,11.5-5.9,17.1c-2.6,6.3-5.5,12.4-8.6,18.5
		c-0.9,1.7-1.2,3.6-1.3,5.5c-0.7,9.8-1.4,19.6-2.1,29.5c-0.4,5.6-0.8,11.2-1.2,16.8c-0.7,10.1-1,20.1-1.4,30.2
		c-0.6,13-0.2,25.9-0.3,38.8c-0.4,1-1.3,1-2.1,1c-9.3,0.2-18.6,1.5-27.9,2.1c-8.3,0.5-16.6,1.5-24.9,2.8c-7.2,1.1-14.5,2.3-21.8,2
		c-5.7-0.2-11.4-0.8-17.1-1.2c-0.2-4.5,0.5-8.9,0.7-13.3c0.2-6.5-0.7-12.9-0.5-19.4c0.1-4.4,0.1-8.9,0-13.3
		c-0.1-4.1-0.2-8.3,0.2-12.4c0.2-1.6-0.6-1.6-1.7-1.3c-0.5,0.1-1,0.4-1.5,0.6c-3.9,1.4-7.7,3-11.6,4.3c-11.2,3.5-22.8,3.7-34.2,1.8
		C419,372,404,365.1,390.4,355c3.1-7.4,6.1-14.8,9.2-22.2c0.8,0.1,1.3,0.6,1.9,1c2.6,1.8,5.4,3.2,8.3,4.3c9.5,5.1,19.7,7.5,30.4,8.1
		c6.5,0.3,12.9-0.7,19.1-2.5c8.7-2.5,16.5-6.7,22.9-13.2c0.9-0.9,1.7-1.8,1.6-3.3c-0.1-8.1-0.2-16.1-0.3-24.2
		c0.7-8.9-0.7-17.7-0.4-26.6c0-0.9,0-1.8-1.1-2c-1.3-0.2-2,0.7-2.1,1.9c-0.1,1-0.1,2.1-0.1,3.2c0.1,6.6-0.3,13.1-1.2,19.6
		c-0.4,2.4-1.3,4.7-1.5,7.1c-0.2,0.4-0.4,0.7-0.5,1.1c-3.1,8.7-8.2,15.9-15.9,21.2c-11.4,7.8-24,10-37.4,7.9c-2.1-0.3-4.1-1.1-6.3-1
		c-0.8-0.7-1.9-0.9-2.9-1.2c-4.5-1.6-8.8-3.4-12.8-5.9c2.5-6.8,5.1-13.6,7.9-20.3c3,1.2,6.2,2.2,9.3,3.1c7.7,2,14.7,0.1,21.4-3.4
		c1.4-0.8,2.6-1.9,3.5-3.2c3.4-4.5,6-9.5,7-15.2c1.5-9.2,2.2-18.5,2.1-27.8c-0.1-8.3,0.8-16.5,0.7-24.8c0-2.2,0.3-4.5,0.7-6.6
		c2.1-9.9,5.8-19,12.1-27c8.1-10.5,18.7-17,31.5-20.2c4.1-1,8.2-1.8,12.3-2.7c1.5-0.4,2.4,0.9,3.5,1.5c3.5,3.3,7.6,5.8,12.4,6.6
		c6,1,11.6-0.7,16.5-4.1C544.5,182.5,547.1,181.4,548.3,178.8z"/>
	<path id="XMLID_219_" class="st2" d="M116.3,192.8c2.6,0.8,5.3,1.1,8.1,1.2c5.8,0.1,11.6-0.1,17.4,0.6c3.1,0.4,5.8,1.7,8.7,2.6
		c0.7,0.4,1.5,0.8,2.2,1.2c2.6,1.7,5.6,3.1,7.2,6.1c1.8,3.4,3.3,6.9,4.2,10.6c2.1,8.4,2.5,17,2.9,25.5c0.5,11.2,0.3,22.5-0.1,33.7
		c-0.2,7.5-0.6,15-0.5,22.6c0,2.5,1.1,4.6,3.5,5.6c2.3,0.9,4.6,0.8,6.5-1c1.3-1.2,2.7-2.4,4-3.6c0.3,0.7,0.5,1.4,0.8,2.1
		c2,6.3,4.2,12.6,7,18.7c-2.9,3.8-5.9,7.5-9.6,10.6c-1.4,0.7-2.2,2-3.2,3c-1.8,1.7-3.4,3.5-5.5,4.8c-6.8,4.3-15.1,2.7-17.7-6.6
		c-0.8-2.7-1.2-5.5-2.2-8.2c-1.8,0.6-3,1.6-4.4,2.4c-1.5,0.9-2.2,2.1-2.1,3.9c0,2-0.1,4-0.2,6c-0.3,4.7-0.1,9.3,1.4,13.8
		c5.3,16.5,11.2,32.7,17,49c4,11.1,7.6,22.3,12.6,33c1.4,2.9,2.4,5.9,3.3,9c-0.1,1.1,0.5,2,1,2.9c-0.5,1.2-1.5,1-2.4,0.9
		c-6.9-0.2-13.8,0.2-20.6-0.5c-4.4-0.4-8.9-0.2-13.3-0.1c-6.2,0.1-12.2-1.3-18.3-1.6c-11.9-0.6-23.4-3.8-35.1-5.5
		c-4.6-0.7-9.2-1.3-13.4-3.6c-0.9-8.7-0.4-17.4-0.6-26.1c0-1.4,0-2.8-0.2-4.1c-0.2-1.8-0.1-3.6,0-5.4c0.2-4.2,0.5-8.5,0.9-12.7
		c0.6-6.9,1-13.7,1.5-20.6c0.1-1.7,0.4-3.4,0.5-5.1c0.1-0.8,0.2-1.8-0.7-2.3c-1-0.6-1.5,0.3-2.2,0.8c-5.1,4.1-9.9,3.2-15,0
		c-3-1.9-5.5-4.6-6.7-8.2c-0.6-1.8-1.5-3.5-2.3-5.3c-1.9-4.2-2.1-8.8-2.9-13.3c-1.3-7-2.1-14-1.7-21.2c0.2-4.5,0.2-9.1,0.5-13.7
		c0.5-6.3,0.5-12.7,0.9-19.1c0.4-5.9,1-11.8,1.6-17.7c0.4-4.3,1.3-8.6,1.5-12.9c0.5-12.4,4-24,8.2-35.5c0.2-0.6,0.5-1.2,0.8-1.7
		c3.5-6,8.7-9.7,15.3-11.6c5.4-1.5,10.9-2.7,16-5.1c1.5,4.9,4.9,8.1,9.7,9.6C107.2,203.2,114.1,199.6,116.3,192.8z M55.3,236.9
		c-0.1,0.8-1.1,1.6-0.1,2.4C55.8,238.4,55.4,237.7,55.3,236.9z"/>
	<path id="XMLID_218_" class="st0" d="M177.5,439.3c-0.9-3.1-1.9-6.1-3.3-9c-5.1-10.7-8.7-21.9-12.6-33c-5.8-16.3-11.7-32.5-17-49
		c-1.5-4.5-1.7-9.1-1.4-13.8c0.1-2,0.3-4,0.2-6c0-1.8,0.6-3,2.1-3.9c1.4-0.8,2.6-1.8,4.4-2.4c1,2.7,1.4,5.5,2.2,8.2
		c2.7,9.3,10.9,10.8,17.7,6.6c2.1-1.3,3.7-3.2,5.5-4.8c1.1-1,1.9-2.3,3.2-3c0.2,1.6,1.8,1.8,2.8,2.2c6.8,3.1,13.7,6.1,20.9,8.4
		c11.9,3.9,23.9,7,36.2,9.2c7.9,1.4,15.8,2.5,23.7,3.6c5.1,0.7,10.3,0.8,15.4,1.2c6,0.5,12,0,18.1,0.7c3.5,0.4,7.2-0.2,10.8-0.4
		c6.3-0.5,12.7-0.1,19-0.7c3.4-0.3,6.7-0.6,10.1-0.9c2.3-0.2,4.6-0.2,6.9-0.6c4.2-0.6,8.4-1,12.5-1.8c2.4-0.5,5.2,0.2,7.1-2
		c0.3,0,0.7,0,0.9,0.2c7.2,3.3,15.1,4.6,22.7,6.6c1.6,0.4,3.1,0.6,4.7,0.1c13.6,10.1,28.6,17,45.3,19.8c11.5,1.9,23,1.8,34.2-1.8
		c3.9-1.2,7.8-2.8,11.6-4.3c0.5-0.2,1-0.5,1.5-0.6c1.1-0.3,1.9-0.3,1.7,1.3c-0.4,4.1-0.3,8.3-0.2,12.4c0.1,4.4,0.1,8.9,0,13.3
		c-0.2,6.5,0.7,12.9,0.5,19.4c-0.2,4.4-0.9,8.9-0.7,13.3c-12.9,0.1-25.9-0.5-38.8,0.3c-11.9,0.7-23.8,0.8-35.6,0.3
		c-10.6-0.5-21.2-0.8-31.7-2.2c-3.5-0.5-7-0.7-10.5-0.7c-4.3-0.1-8.4-0.8-12.6-1.4c-5.7-0.8-11.5-0.6-17.2-0.3
		c-4.5,0.3-9.1,0.2-13.6,0.9c-5.1,0.8-10.3,1.4-15.4,1.9c-4.4,0.4-8.9,0.9-13.3,1.1c-7,0.4-13.9,1.3-20.9,2
		c-1.2-0.6-2.4-1.1-3.2,0.5c-0.4,0.1-0.8,0.1-1.2,0.2c-0.1-2.1,1.4-2.6,2.9-2.4c4.3,0.5,8.3-1.3,12.5-1.4c0.8,0,1.1-0.6,1.1-1.3
		c0-0.8-0.5-1-1.3-0.8c-6.3,1.1-12.7,2-19,3.2c-5,0.9-9.9,1.9-14.9,2.8c-6.7,1.2-13.5,2.4-20.2,3.5c-5.4,0.9-10.7,2.2-16.2,2.8
		c-4.2,0.5-8.3,1.3-12.5,1.6c-3.5,0.3-7.1,0.8-10.7,1C187.2,439.6,182.3,439.3,177.5,439.3z"/>
	<path id="XMLID_217_" class="st3" d="M90.8,191.3c-5.1,2.4-10.6,3.6-16,5.1c-6.6,1.9-11.8,5.6-15.3,11.6c-0.3,0.5-0.6,1.1-0.8,1.7
		c-4.2,11.5-7.7,23.1-8.2,35.5c-0.2,4.3-1,8.6-1.5,12.9c-0.6,5.9-1.2,11.8-1.6,17.7c-0.4,6.3-0.4,12.7-0.9,19.1
		c-0.4,4.6-0.3,9.1-0.5,13.7c-0.4,7.1,0.4,14.2,1.7,21.2c0.8,4.5,1,9.1,2.9,13.3c0.8,1.7,1.6,3.5,2.3,5.3c1.2,3.6,3.7,6.3,6.7,8.2
		c5,3.2,9.8,4,15,0c0.6-0.5,1.2-1.4,2.2-0.8c0.9,0.5,0.7,1.5,0.7,2.3c-0.1,1.7-0.4,3.4-0.5,5.1c-0.5,6.9-0.9,13.7-1.5,20.6
		c-0.3,4.2-0.7,8.4-0.9,12.7c-0.1,1.8-0.2,3.6,0,5.4c0.2,1.4,0.2,2.8,0.2,4.1c0.2,8.7-0.2,17.4,0.6,26.1c-6.6-1.3-12.8-3.6-19.2-5.7
		c-1.2-0.4-2.2-1.2-3.2-2.1c-4.5-3.7-7.8-8.3-10.4-13.5c-1.2-2.4-1-5-1.4-7.4c-0.5-3-0.5-6.1-0.4-9.2c0.4-7.3,0.2-14.6,0.1-22
		c-0.2-7.5-0.3-15.1-0.4-22.6c0-2.5-0.1-5.1-0.1-7.6c0-1.9-0.3-3.8-1-5.6c-3.3-9.3-6.5-18.6-8.6-28.3c-1.7-7.7-2.5-15.5-2.8-23.3
		c-0.4-8.1-0.3-16.1,0-24.2c0.3-10,0.7-19.9,1.3-29.9c0.5-9.4,1.8-18.8,3.3-28.1c0.2-1.4,0.3-2.7,0.3-4.1
		c-0.3-10.8-0.1-21.6,1.2-32.4c0.3-2.6,0.3-5.3,0.3-7.9c0.2-7.6,0-15.3,0.5-22.9c0.8-10,0.6-19.9,0.5-29.9
		c-0.1-7.7,3.1-13.6,8.5-18.4c5.7-5.1,12.4-8.4,19.9-10.2c2.3-0.5,4.5-1.2,6.7-1.8c-0.2,0.3-0.5,0.7-0.7,1
		c-17.7,18-29.6,55-9.7,87.8c2.3,3.8,5.1,6.9,8.9,9.3c6.6,4.1,13.5,7.5,20.7,10.4c0.2,0.2,0.3,0.5,0.7,0.4l0,0
		C89.4,186.4,91,188.7,90.8,191.3z"/>
	<path id="XMLID_216_" class="st4" d="M89.3,183.4c-7.2-3-14.1-6.3-20.7-10.4c-3.8-2.4-6.6-5.5-8.9-9.3
		c-19.9-32.8-7.9-69.8,9.7-87.8c0.3-0.3,0.5-0.7,0.7-1c3-2.4,5.8-4.9,9.1-6.8c7.1-4.1,14.7-6,22.9-4c3.8,0.9,7.1,2.7,10.1,5.1
		c1.2,1,2.4,1.6,4,0.8c1.5-0.7,3.3-0.6,5-0.7c3.4,0.7,6.8,1.4,10,3c3.1,1.5,5.8,3.4,8.1,6c5.1,5.9,9.2,12.4,11.5,19.9
		c0.5,1.7,0.9,3.5,1.1,5.3c0.9,8.2,1.5,16.4-0.7,24.6c-1.5,5.6-2.3,11.4-4.3,16.9c-2.2,5.9-6.1,10.6-9.9,15.4
		c-0.8-0.6,0-1.3-0.4-1.8c1.3-4.5,2.5-9,3.3-13.6c1.6-9.9,2.2-19.7,0.3-29.7c-1.7-8.9-6.3-14.6-15-16.9c-3.5-0.9-6.9-1.8-9.3-4.8
		c-1,1.3-1.7,2.3-2.6,3.3c-3.2,3.5-6.9,6.1-11.6,7.4c-6.1,1.7-11.2,5-14.4,10.7c-2.3,4-3.7,8.3-4.4,12.8c-1.4,9-0.4,17.8,2.2,26.4
		c3.4,11.3,7.6,22.3,15.6,31.3c0.2,0.2,0.4,0.5-0.1,0.9c-0.4-0.1-0.9-0.2-1.4-0.3c-3.1-0.5-6-1.9-9.2-2.3c0,0,0,0,0,0
		C90,183.3,89.7,183.3,89.3,183.4z"/>
	<path id="XMLID_215_" class="st5" d="M177.5,439.3c4.9,0,9.8,0.2,14.6-0.1c3.6-0.2,7.1-0.7,10.7-1c4.2-0.3,8.3-1.2,12.5-1.6
		c5.4-0.6,10.8-1.8,16.2-2.8c6.7-1.2,13.5-2.3,20.2-3.5c5-0.9,9.9-2,14.9-2.8c6.3-1.1,12.7-2.1,19-3.2c0.8-0.1,1.3,0,1.3,0.8
		c0,0.7-0.3,1.3-1.1,1.3c-4.2,0.1-8.2,1.9-12.5,1.4c-1.6-0.2-3,0.3-2.9,2.4c-4.1,1.2-8.3,1.7-12.4,2.5c-11.6,2.1-23.3,4.2-35,6.2
		c-12.1,2-24.2,3.8-36.6,3.6c-2.6,0-5.3,0-7.9-0.4C178,441.3,177.3,440.4,177.5,439.3z"/>
	<path id="XMLID_214_" class="st5" d="M271.6,430.2c0.8-1.7,2-1.2,3.2-0.5C273.7,429.9,272.7,430.5,271.6,430.2z"/>
	<path id="XMLID_213_" class="st6" d="M180.4,297.8c-1.3,1.2-2.7,2.4-4,3.6c-1.9,1.8-4.2,2-6.5,1c-2.4-1-3.5-3-3.5-5.6
		c0-7.5,0.3-15,0.5-22.6c0.4-11.2,0.6-22.5,0.1-33.7c-0.4-8.5-0.8-17.1-2.9-25.5c-0.9-3.7-2.4-7.2-4.2-10.6c-1.6-3-4.5-4.4-7.2-6.1
		c-0.7-0.5-1.5-0.8-2.2-1.2c0.3-3.6,2.2-6.7,4-9.6c4.2-7.2,9.2-13.9,14.7-20.2c3.1-3.5,6.3-6.9,9.7-10.1c7.5-7.2,16-12.8,25.9-16.1
		c2.4-0.8,4.9-1,7.5-1.2c6.5-0.6,12.9-0.4,19.4-0.6c2.7-0.1,5.3,0.4,7.9,0.8c6,1,12.1,1.3,18.2,2.3c3.1,0.5,6.3,0.4,9.5-0.3
		c2.3-0.6,4.8-0.5,7.2-0.7c5.7-0.5,11.2-2.2,16.8-2.9c5.2-0.7,10.4-1.8,15.6-2.3c4.7-0.5,9.4-1.4,14.1-1.7c3.1-0.2,6.1-0.7,9.1-0.8
		c7.3-0.3,14.6-0.5,21.9-0.7c8.1-0.3,16.3,0.1,24.4,0.3c3.9,0.1,8,0.1,12,1c3.8,0.8,7.5-0.9,11.2-1.4c4.9-0.7,9.8-1.7,14.7-1.7
		c5.1,0,10.2,0.1,15.3,0c7.7-0.1,15.2,0.9,22.4,3.4c5.8,2,11,5.3,15.9,9.1c3.2,2.5,6.6,4.6,9.5,7.5c0.4,0.4,0.9,0.4,1.5,0.4
		c0.7,0.9,0.8,1.9,1.2,2.9c1.4,3.7,2.7,7.5,4.9,11c1.8,2.9,4.3,4.8,7.6,5.8c3,0.9,6.1,0.5,9.1,0.4c0.3,1.3,1.4,2,2.4,2.8
		c2.3,1.6,4.2,3.7,5.9,5.9c-4.1,0.9-8.2,1.7-12.3,2.7c-12.8,3.2-23.3,9.7-31.5,20.2c-6.2,8.1-10,17.2-12.1,27
		c-0.5,2.2-0.8,4.4-0.7,6.6c0.2,8.3-0.8,16.5-0.7,24.8c0.1,9.3-0.5,18.6-2.1,27.8c-0.9,5.6-3.6,10.6-7,15.2
		c-0.9,1.3-2.1,2.4-3.5,3.2c-6.8,3.5-13.7,5.4-21.4,3.4c-3.2-0.8-6.3-1.8-9.3-3.1c-3.6-4.5-7.2-8.9-11.5-12.7
		c-0.2-7.9-0.9-15.8-0.8-23.7c0-1,0.4-2.1-0.5-3c0-0.2,0-0.4-0.1-0.6c1.3-0.1,2.1-1,2.8-1.9c3.2-4.2,6-8.6,7.9-13.7
		c3.4-9.4,4.1-18.7,0.6-28.2c-1.5-4.1-3.3-8-4.6-12.1c-0.7-2.3-1.9-4.6-3.3-6.5c-5.7-7.9-13.2-13.8-22.1-17.6
		c-5.9-2.5-12-4.4-18.4-5.7c-7.4-1.5-14.9-1.5-22.3-2.2c-4.5-0.4-9,0.7-13.6,0.7c-2,0-4.2,0.3-6.3,0.6c-6.5,0.8-12.8,2.8-19.4,2.5
		c-0.4,0-0.8,0.2-1.2,0.3c-4.6,0.6-9,2.1-13.7,1c-1.3-0.3-2.6-0.7-4-0.7c-5.9,0.1-11.8-0.2-17.7,1.3c-6.2,1.5-12.4,3-17.9,6.3
		c-2.4,1.5-5.2,2.6-6.7,5.2c-0.6,0-1.3,0.1-1.9,0.1c-8.2,0-14.3,4.1-19.3,10.1c-0.8,1-1.4,2.1-1.9,3.3c-0.9,2.6-1,2.6-3.7,2.5
		c-7.5-0.1-13.8,6-14.1,13.5c-0.1,3.4,1.4,6.1,3.2,8.8c-0.9,0.4-1.9,0.2-2.8,0.2c-2.2,0.1-2.2,0.1-2.2,2.4c0.1,4,1.3,7.6,3.2,11.1
		c1.8,3.4,4.4,6.1,7.1,8.8c-0.5,0.5-1.1,1-1.6,1.5c-5.4,4.4-7.3,10.1-5.7,16.7c0.7,3-0.1,5.1-2.2,7.1c-4.1,3.9-7.8,8.1-12.1,11.7
		C181.7,295.9,180.7,296.6,180.4,297.8z"/>
	<path id="XMLID_212_" class="st7" d="M501.6,171.4c-3,0.1-6.1,0.5-9.1-0.4c-3.3-1-5.8-2.9-7.6-5.8c-2.2-3.4-3.5-7.2-4.9-11
		c-0.4-1-0.5-2-1.2-2.9c-2.5-8.5-4.8-17-7.8-25.4c-1-2.9-1.7-5.9-3.2-8.6c0.1-0.5,0.2-1,0.2-1.6c0-2,1.1-2.8,3-3.2
		c6.3-1.3,11.8-4.4,16.7-8.7c7.8-6.7,16.3-12.5,26.7-14.7c3.6-0.8,7-0.4,10.1,1.6c3.2,2.1,5.9,4.8,7.6,8.4c2.8,5.9,3.8,12.1,3,18.6
		c-0.4,3-0.2,5.9,0.3,8.9c0.6,4,2.8,6.8,6.4,8.5c0.9,0.4,1.8,0.7,2.7,1c-1.1,7.3-1.5,14.7-1.4,22.1c0.1,7.3,1.5,14.2,5.2,20.6
		c-1.2,2.6-3.8,3.7-5.9,5.1c-5,3.4-10.5,5.1-16.5,4.1c-4.8-0.8-8.8-3.3-12.4-6.6c2.9-4.6,2.2-8.1-2.2-10.3c-1.1-0.5-2.2-0.7-3.4-0.7
		C505.8,170.6,503.7,170.9,501.6,171.4z"/>
	<path id="XMLID_211_" class="st4" d="M544.5,136.1c-0.9-0.3-1.8-0.6-2.7-1c-3.6-1.7-5.8-4.5-6.4-8.5c-0.5-2.9-0.7-5.9-0.3-8.9
		c0.9-6.5-0.2-12.7-3-18.6c-1.7-3.6-4.4-6.3-7.6-8.4c-3-2-6.4-2.4-10.1-1.6c-10.4,2.2-18.9,7.9-26.7,14.7c-5,4.3-10.4,7.3-16.7,8.7
		c-1.9,0.4-3,1.2-3,3.2c0,0.5-0.1,1-0.2,1.6c-1.8,3.3-3.9,6.3-6.6,8.9c-4,4.1-9.8,3.8-14.2,1.7c-2.7-1.3-4-3.7-4.1-6.7
		c0-2.7,0.7-5.3,2.1-7.6c2.1-3.5,4.6-6.7,8-9c0.9-0.6,1.6-1.1,1.5-2.5c-0.4-9.2,3.3-17.1,9.5-23.6c10.9-11.4,24.3-18,40.1-19.4
		c4.7-0.4,9.3-0.1,13.9,1.1c3.1,0.8,6.2,1.2,9.1,2.7c0.6,0.3,1.2,0.4,1.8,0.2c3.8-1.3,7.3-0.9,10.6,1.5c3.7,2.7,6,6.2,6.7,10.8
		c0.5,2.7,0.7,5.5,0,8.2c-0.3,1.3,0.1,1.9,1.2,2.5c6.1,3.2,9.4,8.3,10.2,15.1c0.3,2.2,0.5,4.4,0.5,6.7c-0.1,3.5-1,6.7-3.9,9
		c-1.1,0.9-1.1,1.7-0.8,3c0.6,2.6,0.5,5.2-0.2,7.9C552.3,132.5,549.2,135.4,544.5,136.1z"/>
	<path id="XMLID_210_" class="st8" d="M90,183.8c3.2,0.4,6.1,1.8,9.2,2.3c0.5,0.1,1,0.2,1.4,0.3c0.5-0.4,0.3-0.7,0.1-0.9
		c-8.1-9-12.2-20-15.6-31.3c-2.6-8.6-3.6-17.4-2.2-26.4c0.7-4.6,2.2-8.9,4.4-12.8c3.2-5.7,8.3-9,14.4-10.7c4.7-1.3,8.4-3.9,11.6-7.4
		c0.8-0.9,1.6-2,2.6-3.3c2.4,3,5.8,3.9,9.3,4.8c8.8,2.3,13.4,8,15,16.9c1.9,10,1.3,19.8-0.3,29.7c-0.7,4.6-1.9,9.1-3.3,13.6
		c-1,0.8-1.1,2-1.4,3.1c-1.1,3.5-2.9,6.6-5.2,9.4c-1.7,2.2-4,3.4-6.7,3.9c-1.5,0.2-2.9,0.4-4.4,0.6c-2.8,0.4-4,1.7-4.1,4.7
		c-0.2,3.7,0.3,7.4,1,11c0.1,0.5,0.2,1,0.3,1.6c-2.2,6.9-9,10.4-15.8,8.2c-4.8-1.6-8.1-4.7-9.7-9.6C91,188.7,89.4,186.4,90,183.8z"
		/>
	<path id="XMLID_209_" class="st7" d="M390.4,355c-1.6,0.4-3.1,0.3-4.7-0.1c-7.6-2-15.4-3.3-22.7-6.6c-0.3-0.1-0.6-0.1-0.9-0.2
		c-0.7-0.6-1.5-0.7-2.4-0.8c-0.8-1.4-2.3-1.8-3.6-2.6c-0.7-0.5-1.5-0.8-2.1-1.4c-0.6-0.5-1.1-1.1-0.8-2c0.3-0.9,1.1-0.8,1.9-0.9
		c1.1-0.1,2.1,0.4,3.1,0.8c2.6,0.8,5.1,1.6,7.7,2.4c1.9,0,1.9,0,1.3-1.3c-2.4-2.1-5.3-3.2-8.2-4.4c-3.2-1.7-6.5-3.4-9.7-5.2
		c-1.3-0.7-2.5-1.7-2.2-3.4c0.2-1,2-1.3,4-0.8c0.2,0.1,0.4,0.1,0.6,0.2c2.2,1,4.4,2,6.6,3c2.4,1.1,4.7,2.1,7.1,3.2
		c0.5,0.2,1.2,0.7,1.7,0c0.3-0.6,0.2-1.3-0.3-1.7c-2.6-1.8-4.6-4.3-7.6-5.4c-0.2-1.2-1.2-1.7-2-2.3c-2.2-1.7-4.5-3.4-6.7-5.2
		c-0.8-0.7-1.6-1.4-2.1-2.3c-0.5-0.9-0.8-2.1,0.1-2.9c0.9-0.9,1.9-0.6,2.9,0c2.1,1.3,4.3,2.7,6.4,4c0.9,0.5,1.8,1.1,2.7,1.6
		c3.7,2.2,7.4,4.5,11.1,6.8c0.6,0.3,1.1,0.7,1.7,0.2c0.6-0.4,0.5-1.2,0.3-1.8c-0.6-1.5-1.4-2.8-2.4-4.1c-2.9-3.4-5.6-6.9-8.5-10.2
		c-1.4-1.6-2.6-3.6-4.5-4.8c0-0.4,0-0.7-0.1-1.1c2.1-0.9,4.1-1.1,6,0.4c1.4,1.1,2.9,2.2,4.1,3.5c4.9,5,10.2,9.6,14.6,15.1
		c0.4,0.5,0.8,1,1.3,1.4c1.4,1.2,2.7,0.8,2.9-1.1c0.1-1.3,0.1-2.6-0.1-3.8c-0.8-5-1.7-10-2.6-15c-0.4-2.5,0.1-4.2,1.5-4.6
		c1.3-0.4,2.7,0.6,3.7,2.8c1.2,2.7,1.8,5.6,2.7,8.5c0.9,3.1,1.6,6.4,4,8.8c-0.1,2.1,0.9,3.9,1.7,5.7c0.4,1.9,1,3.8,1.8,5.5
		C396.6,340.2,393.5,347.6,390.4,355z"/>
	<path id="XMLID_208_" class="st0" d="M417.1,335.4c2.2-0.1,4.2,0.6,6.3,1c13.5,2.1,26.1,0,37.4-7.9c7.7-5.3,12.8-12.5,15.9-21.2
		c0.1-0.4,0.4-0.8,0.5-1.1c1.4,0.1,2.2-1,3.3-1.6c1-0.6,1.9-1.3,3-1.5c0.1,8.1,0.2,16.1,0.3,24.2c0,1.5-0.7,2.3-1.6,3.3
		c-6.4,6.5-14.2,10.7-22.9,13.2c-6.2,1.8-12.6,2.8-19.1,2.5c-10.7-0.5-20.9-2.9-30.4-8.1C412.1,336.6,414.7,336.2,417.1,335.4z"/>
	<path id="XMLID_207_" class="st9" d="M397.8,327.2c-0.8-1.8-1.9-3.6-1.7-5.7c1.7-0.4,2.4-1.5,2.3-3.2c-0.1-2,0-4,0-6
		c0-5.7-0.8-11.4-0.4-17.1c4.3,3.8,7.9,8.2,11.5,12.7c-2.8,6.7-5.5,13.4-7.9,20.3C400.2,327.9,399,327.5,397.8,327.2z"/>
	<path id="XMLID_206_" class="st6" d="M483.6,303c-1.2,0.2-2,1-3,1.5c-1,0.6-1.9,1.8-3.3,1.6c0.1-2.4,1.1-4.7,1.5-7.1
		c1-6.5,1.3-13,1.2-19.6c0-1.1-0.1-2.1,0.1-3.2c0.1-1.2,0.8-2,2.1-1.9c1.1,0.1,1.1,1.1,1.1,2C482.9,285.2,484.2,294.1,483.6,303z"/>
	<path id="XMLID_205_" class="st3" d="M501.6,171.4c2.1-0.5,4.2-0.8,6.3-0.9c1.2,0,2.3,0.1,3.4,0.7c4.4,2.2,5.1,5.7,2.2,10.3
		c-1.1-0.6-2-1.8-3.5-1.5c-1.7-2.2-3.6-4.2-5.9-5.9C503,173.4,501.9,172.7,501.6,171.4z"/>
	<path id="XMLID_204_" class="st6" d="M397.8,327.2c1.2,0.3,2.4,0.6,3.7,1c4,2.6,8.4,4.4,12.8,5.9c1,0.3,2,0.5,2.9,1.2
		c-2.5,0.8-5.1,1.2-7.3,2.7c-2.9-1.1-5.7-2.5-8.3-4.3c-0.6-0.4-1.1-0.9-1.9-1C398.8,331,398.1,329.2,397.8,327.2z"/>
	<path id="XMLID_203_" class="st6" d="M359.8,347.3c0.9,0.1,1.7,0.1,2.4,0.8c-1.9,2.2-4.7,1.5-7.1,2c-4.1,0.8-8.3,1.2-12.5,1.8
		c-2.3,0.4-4.6,0.4-6.9,0.6c-3.4,0.3-6.7,0.7-10.1,0.9c-6.4,0.5-12.7,0.2-19,0.7c-3.6,0.3-7.2,0.8-10.8,0.4
		c-6-0.6-12.1-0.2-18.1-0.7c-5.1-0.4-10.3-0.5-15.4-1.2c-7.9-1.1-15.8-2.2-23.7-3.6c-12.3-2.1-24.3-5.3-36.2-9.2
		c-7.1-2.3-14.1-5.3-20.9-8.4c-1.1-0.5-2.6-0.6-2.8-2.2c3.7-3.1,6.6-6.8,9.6-10.6c1.5-0.7,2.4-2,3.6-3.1c8.2-7.7,16-15.8,24.8-22.8
		c3.2-2.6,6.6-4.6,10.6-5.6c3.4-0.8,6.8-1.7,10.1-2.5c0,1.1,0.8,1.6,1.7,2.1c2.7,1.6,5.5,3.1,8.5,4.3c11.1,4.5,22.6,6.7,34.5,6.9
		c8.5,0.2,17.1,0.3,25.6-1.1c2.3-0.4,4.5-1.1,6.9-0.7c0.1,0.8,0.4,1.7,0.4,2.5c0.5,8.3,1.1,16.7,1.4,25.1c0.1,2.4,0.8,3.8,3.1,4.9
		c12.2,5.7,24.3,11.6,36.4,17.4C357,346.4,358.2,347.3,359.8,347.3z"/>
	<path id="XMLID_202_" class="st8" d="M237.2,284.6c-3.4,0.8-6.8,1.7-10.1,2.5c-4,1-7.4,3-10.6,5.6c-8.8,7-16.6,15.1-24.8,22.8
		c-1.1,1.1-2.1,2.4-3.6,3.1c-2.7-6.1-5-12.3-7-18.7c-0.2-0.7-0.5-1.4-0.8-2.1c0.3-1.2,1.3-1.9,2.2-2.7c4.3-3.6,8.1-7.8,12.1-11.7
		c2.1-2,2.9-4.1,2.2-7.1c-1.6-6.7,0.3-12.3,5.7-16.7c0.6-0.5,1.1-1,1.6-1.5c2.3-1.1,4.4-2.5,6.3-4.3c1.6-1.5,3.1-3.2,4.7-4.7
		c1-0.9,2.1-2.2,3.6-1.4c1.5,0.8,1.3,2.6,1.1,4.1c0,0.5-0.3,1-0.5,1.5c-1,2.2-2.3,4.3-4.2,5.9c-1.1,0.9-2,1.9-2.5,3.2
		c-0.4,1,0.1,1.7,1.2,1.5c0.5-0.1,1-0.3,1.5-0.5c12.7-5.3,26.1-7.8,39.6-10.4c1.5-0.3,3.7,0.4,4,1.1c0.4,1.2-0.3,2.2-2.4,3.2
		c-3.2,1.5-6.5,2.6-9.8,3.6c-4.2,1.3-8.1,3-12.1,4.8c-0.4,0.2-1.1,0.4-1,1c0.2,0.7,0.9,0.8,1.5,0.9c0.3,0,0.6-0.2,0.9-0.3
		c4-1.4,8.2-2.1,12.4-3c2.7-0.6,5.3-1.6,8.1-1.6c2.2,0,2.8,0.8,2.3,3c-0.1,0.5-0.4,1-0.5,1.5c-1.1,0.9-2.5,1.6-2.7,3.3
		c-0.2,2-1.3,3.3-3.1,4.1c-0.5,0.2-1.3,0.4-1,1.3c0.9,2.5-0.8,3.4-2.6,4.3C245.1,282,241.1,283.1,237.2,284.6z"/>
	<path id="XMLID_201_" class="st5" d="M55.3,236.9c0.1,0.7,0.5,1.5-0.1,2.4C54.2,238.5,55.2,237.7,55.3,236.9z"/>
	<path id="XMLID_200_" class="st8" d="M89.3,183.4c0.3-0.1,0.7-0.1,0.7,0.4C89.7,183.9,89.5,183.6,89.3,183.4z"/>
	<path id="XMLID_199_" class="st10" d="M237.2,284.6c3.9-1.4,7.9-2.5,11.6-4.3c1.8-0.9,3.5-1.8,2.6-4.3c-0.3-0.9,0.5-1.1,1-1.3
		c1.8-0.8,2.9-2.2,3.1-4.1c0.2-1.7,1.6-2.4,2.7-3.3c8.5-2.3,15.8-6.6,21.4-13.4c3.5-4.2,5.6-9,6-14.4c0.2-3.6,0.2-3.6-3.4-3.9
		c0.3-0.7,0.6-1.4,0.8-2.1c1.2-5.1-1.3-9.9-5.9-10.6c-1.8-0.3-2.2-1-2.5-2.5c-0.6-2.9-1.6-5.8-3.8-7.9c-2.8-2.7-6-4.9-9.8-6.3
		c-3.5-1.3-6.8-1.4-10.1,0.3c-1.2,0.6-1.9,0.7-2.3-0.8c-0.4-1.6-1.6-2.7-2.8-3.8c-2.6-2.5-5.6-4.1-9.2-4.4c1.5-2.7,4.3-3.8,6.7-5.2
		c5.5-3.4,11.7-4.8,17.9-6.3c5.8-1.5,11.8-1.2,17.7-1.3c1.4,0,2.7,0.4,4,0.7c4.7,1.1,9.2-0.4,13.7-1c0.4-0.1,0.8-0.3,1.2-0.3
		c6.6,0.3,12.9-1.7,19.4-2.5c2.1-0.3,4.2-0.6,6.3-0.6c4.6,0,9.1-1.2,13.6-0.7c7.4,0.7,14.9,0.7,22.3,2.2c6.4,1.3,12.5,3.2,18.4,5.7
		c8.9,3.8,16.4,9.6,22.1,17.6c1.4,2,2.6,4.2,3.3,6.5c1.3,4.2,3.1,8.1,4.6,12.1c3.4,9.5,2.8,18.9-0.6,28.2c-1.8,5-4.7,9.5-7.9,13.7
		c-0.7,0.9-1.5,1.8-2.8,1.9c-0.5-0.1-1-0.3-1.5-0.4c-12.5-4.4-24.9-8.8-37.3-13.3c-1.8-0.7-3.3-0.6-5.1,0.1
		c-10.8,4.5-21.7,8.9-32.6,13.4c-2,0.8-4.2,1.5-6,2.7c-1.7,1.5-0.6,3.3-0.6,5c0.3,6.8,1.1,13.7,1,20.5c-2.4-0.3-4.6,0.4-6.9,0.7
		c-8.5,1.4-17.1,1.3-25.6,1.1c-11.9-0.2-23.4-2.4-34.5-6.9c-3-1.2-5.8-2.6-8.5-4.3C238,286.1,237.2,285.7,237.2,284.6z"/>
	<path id="XMLID_180_" class="st11" d="M236.5,197.3c3.6,0.3,6.6,1.9,9.2,4.4c1.2,1.1,2.4,2.2,2.8,3.8c0.4,1.6,1.2,1.4,2.3,0.8
		c3.3-1.6,6.7-1.5,10.1-0.3c3.8,1.4,7,3.6,9.8,6.3c2.2,2.1,3.2,5,3.8,7.9c0.3,1.5,0.7,2.2,2.5,2.5c4.6,0.7,7.1,5.5,5.9,10.6
		c-0.2,0.7-0.5,1.4-0.8,2.1c-0.5,0-1.1,0.1-1.6,0.1c-26.5,0.1-53.1,0.2-79.6,0.2c-0.7,0-1.5-0.1-2.2-0.2c-1.8-2.7-3.3-5.4-3.2-8.8
		c0.3-7.5,6.5-13.6,14.1-13.5c2.7,0,2.8,0.1,3.7-2.5c0.4-1.2,1.1-2.3,1.9-3.3c5-6,11.1-10.1,19.3-10.1
		C235.3,197.3,235.9,197.3,236.5,197.3z M247.5,218.9c0.8-0.1,1.1-0.6,1.1-1.3c0-1-0.5-1.9-1.7-1.8c-0.6,0-0.9,0.5-0.9,1.1
		C246,217.9,246.4,218.7,247.5,218.9z M255.7,214.3c-0.2-1-0.6-1.8-1.8-1.7c-0.6,0-0.9,0.6-0.7,1.1c0.2,0.8,0.5,1.7,1.5,1.9
		C255.5,215.6,255.7,215,255.7,214.3z M262.5,222.9c0.7-0.3,1-0.8,0.8-1.5c-0.2-0.7-0.5-1.2-1.3-1.1c-0.7,0.1-1.2,0.6-1.1,1.3
		C261.1,222.4,261.6,222.9,262.5,222.9z M269.3,219.1c0.4-1.1,0.4-2-0.8-2.5c-0.1,0-0.4,0.1-0.5,0.3
		C267.6,218,267.9,218.9,269.3,219.1z M241.1,214.6c-0.1-0.9-0.2-1.7-1.3-1.9c-0.5-0.1-0.7,0.4-0.7,0.8c0,0.9,0.2,1.7,1.3,1.9
		C241,215.5,241,215,241.1,214.6z M231.8,222c-0.6,0.1-0.8,0.5-0.7,0.9c0.2,0.7,0.7,1.3,1.5,1.5c0.5,0.1,0.8-0.4,0.7-0.8
		C233.2,222.6,232.8,222,231.8,222z M209.8,219.6c-0.1-0.6-0.4-1.1-1.1-1.2c-0.6-0.1-0.9,0.5-0.9,1c0,0.7,0.3,1.3,1,1.3
		C209.4,220.7,209.8,220.3,209.8,219.6z M244.3,206.8c-0.1-0.6-0.1-1.4-1-1.6c-0.5-0.1-0.8,0.4-0.8,0.8c0,0.7,0.2,1.5,1.1,1.7
		C244.1,207.9,244.2,207.3,244.3,206.8z M228.3,203.4c0-0.6-0.3-1.1-1.1-1.1c-0.6,0-1,0.4-1,1c0,0.7,0.4,1.2,1.1,1.3
		C228,204.7,228.3,204.2,228.3,203.4z M252.5,222.2c-0.1-0.5-0.3-1.2-1.2-1.3c-0.4-0.1-0.6,0.2-0.6,0.5c-0.2,0.8,0.2,1.5,0.9,1.7
		C252,223.3,252.4,223,252.5,222.2z M221.1,221.8c-0.2-0.4-0.5-0.9-1.2-1.1c-0.4-0.1-0.6,0.2-0.5,0.5c0,0.7,0.4,1.2,1.1,1.3
		C220.8,222.6,221.1,222.4,221.1,221.8z M231.1,216.8c0-0.6-0.3-1.1-0.9-1.1c-0.3,0-0.6,0.1-0.6,0.5c0,0.6,0.3,1,0.8,1.1
		C230.7,217.3,231,217,231.1,216.8z M260.6,210.8c0-0.7-0.3-1.2-1-1.3c-0.5-0.1-0.7,0.4-0.7,0.8c0,0.6,0.1,1.3,0.9,1.3
		C260.2,211.7,260.4,211.2,260.6,210.8z M222.5,213.7c0.4-0.1,0.6-0.4,0.6-0.8c0-0.6-0.4-1-1-1c-0.6,0-1,0.4-0.9,1
		C221.4,213.5,221.8,213.8,222.5,213.7z M230.2,209.8c0-0.6-0.3-1.1-0.9-1.1c-0.4,0-0.8,0.2-0.8,0.7c0,0.6,0.4,1,0.9,1.1
		C229.9,210.6,230.1,210.2,230.2,209.8z M219.3,209.4c-0.1-0.6-0.4-1.1-0.9-1c-0.4,0.1-0.5,0.6-0.4,1c0.1,0.4,0.2,0.8,0.7,0.8
		C219.2,210.2,219.4,209.8,219.3,209.4z M233.3,201.8c0,0.5,0.1,0.8,0.6,0.9c0.6,0.1,0.7-0.4,0.7-0.8c0-0.3-0.2-0.7-0.5-0.7
		C233.8,201.1,233.4,201.2,233.3,201.8z"/>
	<path id="XMLID_179_" class="st12" d="M198.9,235.6c0.7,0.1,1.5,0.2,2.2,0.2c26.5-0.1,53.1-0.1,79.6-0.2c0.5,0,1.1-0.1,1.6-0.1
		c3.6,0.3,3.6,0.3,3.4,3.9c-0.4,5.5-2.5,10.3-6,14.4c-5.7,6.8-12.9,11.1-21.4,13.4c0.2-0.5,0.4-1,0.5-1.5c0.5-2.2-0.1-2.9-2.3-3
		c-2.8,0-5.4,1-8.1,1.6c-4.1,0.9-8.3,1.5-12.4,3c-0.3,0.1-0.6,0.3-0.9,0.3c-0.6,0-1.4-0.1-1.5-0.9c-0.2-0.7,0.6-0.9,1-1
		c3.9-1.8,7.9-3.5,12.1-4.8c3.3-1,6.7-2.1,9.8-3.6c2.1-1,2.8-1.9,2.4-3.2c-0.3-0.8-2.4-1.4-4-1.1c-13.4,2.6-26.9,5.2-39.6,10.4
		c-0.5,0.2-1,0.4-1.5,0.5c-1.1,0.2-1.6-0.4-1.2-1.5c0.5-1.3,1.5-2.3,2.5-3.2c2-1.6,3.2-3.7,4.2-5.9c0.2-0.5,0.5-1,0.5-1.5
		c0.1-1.5,0.4-3.2-1.1-4.1c-1.5-0.8-2.6,0.4-3.6,1.4c-1.6,1.5-3.1,3.2-4.7,4.7c-1.9,1.8-4,3.2-6.3,4.3c-2.7-2.7-5.3-5.4-7.1-8.8
		c-1.9-3.5-3.1-7.1-3.2-11.1c-0.1-2.3,0-2.3,2.2-2.4C197,235.8,197.9,235.9,198.9,235.6z"/>
	<path id="XMLID_178_" class="st13" d="M397.9,295.2c-0.4,5.7,0.4,11.4,0.4,17.1c0,2,0,4,0,6c0.1,1.7-0.5,2.8-2.3,3.2
		c-2.4-2.5-3-5.7-4-8.8c-0.9-2.8-1.4-5.8-2.7-8.5c-1-2.2-2.3-3.2-3.7-2.8c-1.4,0.4-2,2.1-1.5,4.6c0.9,5,1.8,10,2.6,15
		c0.2,1.2,0.2,2.6,0.1,3.8c-0.2,1.8-1.4,2.2-2.9,1.1c-0.5-0.4-0.9-0.9-1.3-1.4c-4.4-5.4-9.7-10.1-14.6-15.1
		c-1.3-1.3-2.7-2.3-4.1-3.5c-1.9-1.5-3.9-1.2-6-0.4c-0.4-0.9-0.3-1.9-0.3-2.8c-0.2-5.2-0.5-10.4-0.7-15.7c3.3-1.5,6.5-3,9.8-4.6
		c7.3-3.5,14.6-7.2,22-10.6c2.6-1.2,5.1-2.6,7.8-3.4c0.9,0.9,0.5,2,0.5,3C397,279.4,397.6,287.3,397.9,295.2z"/>
	<path id="XMLID_177_" class="st7" d="M396.5,268.5c-2.8,0.7-5.3,2.2-7.8,3.4c-7.4,3.4-14.7,7.1-22,10.6c-3.2,1.6-6.5,3.1-9.8,4.6
		c-1-0.3-2-0.7-3-1c-13.4-5.2-26.7-10.4-40-15.6c1.8-1.3,4-1.9,6-2.7c10.9-4.5,21.7-8.9,32.6-13.4c1.8-0.7,3.3-0.8,5.1-0.1
		c12.4,4.5,24.9,8.9,37.3,13.3c0.5,0.2,1,0.3,1.5,0.4C396.5,268.1,396.6,268.3,396.5,268.5z"/>
	<path id="XMLID_176_" class="st9" d="M313.9,270.4c13.3,5.2,26.7,10.4,40,15.6c1,0.4,2,0.7,3,1c0.2,5.2,0.5,10.4,0.7,15.7
		c0,0.9-0.1,1.9,0.3,2.8c0,0.4,0,0.7,0.1,1.1c0.1,3.2,0.2,6.4,0.2,9.7c0,0.9,0.5,1.9-0.6,2.6c-2.1-1.3-4.3-2.6-6.4-4
		c-1-0.6-2-0.8-2.9,0c-0.9,0.9-0.6,2-0.1,2.9c0.5,0.9,1.3,1.7,2.1,2.3c2.2,1.8,4.5,3.5,6.7,5.2c0.8,0.6,1.8,1.2,2,2.3
		c-0.7,1.2,0.6,2.8-0.8,3.9c-2.2-1-4.4-2-6.6-3c-0.2-0.1-0.4-0.1-0.6-0.2c-1.9-0.5-3.8-0.2-4,0.8c-0.4,1.8,0.9,2.7,2.2,3.4
		c3.2,1.8,6.5,3.5,9.7,5.2c-0.1,1.2,1.4,2.7-0.7,3.3c-1-0.4-1.9-0.8-3.1-0.8c-0.8,0-1.6,0-1.9,0.9c-0.3,0.8,0.2,1.5,0.8,2
		c0.6,0.5,1.4,0.9,2.1,1.4c1.2,0.8,2.7,1.2,3.6,2.6c-1.5-0.1-2.8-0.9-4.1-1.6c-12.1-5.8-24.2-11.7-36.4-17.4c-2.3-1.1-3-2.5-3.1-4.9
		c-0.3-8.4-0.9-16.7-1.4-25.1c-0.1-0.8-0.3-1.7-0.4-2.5c0-6.9-0.7-13.7-1-20.5C313.2,273.8,312.2,271.9,313.9,270.4z"/>
	<path id="XMLID_175_" class="st13" d="M357.6,318.9c1.1-0.6,0.6-1.7,0.6-2.6c0-3.2-0.1-6.4-0.2-9.7c1.8,1.3,3,3.2,4.5,4.8
		c2.9,3.3,5.6,6.8,8.5,10.2c1.1,1.2,1.8,2.6,2.4,4.1c0.2,0.6,0.3,1.3-0.3,1.8c-0.6,0.5-1.2,0.1-1.7-0.2c-3.7-2.3-7.4-4.5-11.1-6.8
		C359.4,320,358.5,319.4,357.6,318.9z"/>
	<path id="XMLID_174_" class="st13" d="M358.3,331.7c1.3-1.1,0.1-2.7,0.8-3.9c3.1,1,5.1,3.6,7.6,5.4c0.6,0.4,0.7,1.1,0.3,1.7
		c-0.4,0.8-1.1,0.3-1.7,0C363,333.8,360.6,332.7,358.3,331.7z"/>
	<path id="XMLID_173_" class="st13" d="M358.3,341.3c2.2-0.7,0.7-2.2,0.7-3.3c2.9,1.2,5.8,2.3,8.2,4.4c-0.6,0.3-1,0.7-1.3,1.3
		C363.4,342.9,360.8,342.1,358.3,341.3z"/>
	<path id="XMLID_172_" class="st5" d="M365.9,343.7c0.2-0.6,0.7-1,1.3-1.3C367.8,343.7,367.8,343.7,365.9,343.7z"/>
	<path id="XMLID_171_" class="st13" d="M247.5,218.9c-1.1-0.2-1.5-1-1.5-2c0-0.6,0.3-1.1,0.9-1.1c1.2,0,1.6,0.8,1.7,1.8
		C248.6,218.3,248.3,218.8,247.5,218.9z"/>
	<path id="XMLID_170_" class="st13" d="M255.7,214.3c0,0.8-0.3,1.4-1.1,1.3c-1-0.1-1.3-1-1.5-1.9c-0.1-0.6,0.1-1.1,0.7-1.1
		C255.1,212.5,255.6,213.3,255.7,214.3z"/>
	<path id="XMLID_169_" class="st13" d="M262.5,222.9c-0.9,0-1.4-0.6-1.5-1.3c-0.1-0.7,0.3-1.2,1.1-1.3c0.7-0.1,1.1,0.5,1.3,1.1
		C263.4,222.2,263.2,222.7,262.5,222.9z"/>
	<path id="XMLID_168_" class="st9" d="M269.3,219.1c-1.4-0.3-1.7-1.1-1.3-2.3c0-0.1,0.4-0.3,0.5-0.3
		C269.8,217.1,269.7,218.1,269.3,219.1z"/>
	<path id="XMLID_167_" class="st13" d="M241.1,214.6c-0.1,0.4-0.2,0.9-0.7,0.8c-1.1-0.2-1.3-1-1.3-1.9c0-0.4,0.2-0.9,0.7-0.8
		C240.9,212.9,241.1,213.8,241.1,214.6z"/>
	<path id="XMLID_166_" class="st13" d="M231.8,222c0.9,0,1.4,0.6,1.5,1.6c0,0.4-0.3,0.9-0.7,0.8c-0.8-0.1-1.3-0.7-1.5-1.5
		C231,222.5,231.2,222.1,231.8,222z"/>
	<path id="XMLID_165_" class="st13" d="M209.8,219.6c0,0.7-0.3,1.1-0.9,1.1c-0.7,0-1-0.6-1-1.3c0-0.6,0.2-1.1,0.9-1
		C209.4,218.4,209.7,219,209.8,219.6z"/>
	<path id="XMLID_164_" class="st13" d="M244.3,206.8c-0.1,0.5-0.2,1-0.8,0.9c-0.9-0.2-1-1-1.1-1.7c0-0.4,0.3-0.9,0.8-0.8
		C244.2,205.4,244.2,206.2,244.3,206.8z"/>
	<path id="XMLID_163_" class="st13" d="M228.3,203.4c0,0.7-0.3,1.2-0.9,1.2c-0.7-0.1-1.1-0.6-1.1-1.3c0-0.6,0.4-1,1-1
		C228,202.3,228.3,202.8,228.3,203.4z"/>
	<path id="XMLID_162_" class="st13" d="M252.5,222.2c-0.1,0.8-0.5,1.1-0.9,0.9c-0.7-0.3-1.1-0.9-0.9-1.7c0.1-0.3,0.3-0.6,0.6-0.5
		C252.2,221,252.3,221.7,252.5,222.2z"/>
	<path id="XMLID_161_" class="st9" d="M221.1,221.8c0,0.6-0.3,0.8-0.6,0.7c-0.7-0.1-1-0.6-1.1-1.3c0-0.3,0.1-0.6,0.5-0.5
		C220.6,220.9,220.9,221.4,221.1,221.8z"/>
	<path id="XMLID_160_" class="st9" d="M231.1,216.8c-0.2,0.2-0.4,0.5-0.6,0.5c-0.6-0.1-0.8-0.5-0.8-1.1c0-0.4,0.3-0.6,0.6-0.5
		C230.9,215.8,231.1,216.2,231.1,216.8z"/>
	<path id="XMLID_159_" class="st13" d="M260.6,210.8c-0.2,0.4-0.3,0.9-0.8,0.9c-0.8,0-1-0.7-0.9-1.3c0-0.4,0.2-0.9,0.7-0.8
		C260.2,209.6,260.6,210.1,260.6,210.8z"/>
	<path id="XMLID_158_" class="st13" d="M222.5,213.7c-0.7,0-1.1-0.2-1.2-0.8c-0.1-0.6,0.3-1,0.9-1c0.6,0,1,0.4,1,1
		C223.2,213.3,222.9,213.7,222.5,213.7z"/>
	<path id="XMLID_157_" class="st9" d="M230.2,209.8c-0.1,0.4-0.2,0.8-0.8,0.7c-0.5-0.1-0.9-0.5-0.9-1.1c0-0.5,0.4-0.7,0.8-0.7
		C229.9,208.7,230.2,209.1,230.2,209.8z"/>
	<path id="XMLID_156_" class="st13" d="M219.3,209.4c0,0.4-0.1,0.8-0.6,0.8c-0.5,0.1-0.6-0.4-0.7-0.8c-0.1-0.4,0-1,0.4-1
		C218.9,208.4,219.3,208.8,219.3,209.4z"/>
	<path id="XMLID_155_" class="st13" d="M233.3,201.8c0.1-0.5,0.4-0.7,0.9-0.6c0.2,0.1,0.5,0.5,0.5,0.7c0,0.4-0.2,0.9-0.7,0.8
		C233.4,202.6,233.3,202.2,233.3,201.8z"/>
</g>
</svg>
