<?xml version="1.0" encoding="utf-8"?>
<!-- Generator: Adobe Illustrator 19.0.0, SVG Export Plug-In . SVG Version: 6.00 Build 0)  -->
<svg version="1.1" id="Layer_1" xmlns="http://www.w3.org/2000/svg" xmlns:xlink="http://www.w3.org/1999/xlink" x="0px" y="0px"
	 viewBox="0 0 792 612" style="enable-background:new 0 0 792 612;" xml:space="preserve">
<style type="text/css">
	.st0{fill:#79C9B1;}
	.st1{fill:#F16F99;}
	.st2{fill:#040402;}
	.st3{fill:#FCE044;}
	.st4{fill:#FDE041;}
	.st5{fill:#57514F;}
	.st6{fill:#CFC7C5;}
	.st7{fill:#FDF7F9;}
	.st8{fill:#0B0A08;}
	.st9{fill:#161211;}
	.st10{fill:#F9DF46;}
	.st11{fill:#FDDD45;}
	.st12{fill:#FEE361;}
</style>
<g id="XMLID_1_">
	<path id="XMLID_102_" class="st0" d="M185,229.8c1.5-1.1,2.8-1.7,4.8-0.8c3.8,1.8,7.6,3.4,11.5,4.9c9.7,3.9,18.5,9.4,26.9,15.6
		c0.6,0.5,1.3,1,1.9,1.5c7.6,7.4,15.5,14.7,22.2,23c7,8.5,12.9,17.6,16.9,27.9c4.3,11.1,8.6,22.2,10.8,33.9
		c3.5,19.4,7.1,38.8,5.5,58.6c-0.2,2.6-0.1,5.1,0,7.7c0.2,7.2-0.3,14.3-1.4,21.4c-0.5,3.2-0.5,6.5-0.8,9.7
		c-1,12.1-4.4,23.6-8.8,34.8c-1.6,4.1-3.9,7.7-6.4,11.2c-4.9,7.1-9.3,14.6-16.1,20.2c-2.6,2.1-5,4.6-7.6,6.6c-1.7,1.3-2.2,2.8-2,4.9
		c0.7,6.6,1.3,13.1,2.1,19.7c0.4,3.5,0.3,7,1.2,10.4c0.1,1.4,0.1,2.8,0.2,4.1c-1.3,1.3-3.1,1-4.6,1.1c-8.1,0.6-16.1,1.7-24.2,1.1
		c-15.4-1.1-30.8-2.6-45.7-7.4c-6.8-2.1-13.5-4.6-20.6-5.7c-6.3-1.1-12.5-2-18.8-0.7c-0.5,0.1-1.1,0.1-1.6,0.1
		c-9.7,0.3-19.4,0.7-29.1,1c-0.7,0-1.3,0.1-2,0.1c-4.2,0-4.2,0-4.4-4.1c-0.2-3.4-0.5-6.7-0.8-10.1c-0.2-2.8-1.1-5.1-4.1-6.3
		c-2.9-1.2-5.6-2.7-8.3-4.2c-9.7-5.6-19.2-11.5-25.5-21.2c-1.7-2.7-3.4-5.5-5.1-8.3c-6.1-10.5-11.4-21.4-14.3-33.3
		c-0.8-3.1-1.2-6.3-2.6-9.3c-1.4-8.9-1.8-17.9-1.8-26.9c0-2.1,0.1-4.2,0.1-6.3c0.3-3.1,0.6-6.2,0.7-9.3c0.2-3.4,0-6.8,0.3-10.1
		c0.9-10.3,1.9-20.6,3-30.9c1.2-10.6,3.1-21.1,7.4-30.9c2.3-5.3,4.8-10.6,7.2-15.8c6-12.9,13.1-25,23.1-35.4
		c5.4-5.6,10.2-11.9,15.6-17.5c4.7-4.9,9.6-9.9,15.4-13.6c5-3.2,10.7-5.2,15.7-8.2c2.4-1.5,5.2-2.2,7.9-2.9c1.4-0.4,2.6-0.4,3.8,0.5
		c1.3,2.4,3.4,4.1,5.7,5.6c11,6.8,22.7,7.9,34.7,3.3C178.2,237.7,182.4,234.7,185,229.8z M92.3,469.8c0-3,0.2-4.9,0-6.9
		c-0.9-10.2-1.4-20.4-1.6-30.7c0-1.6-0.3-3.2-0.4-4.8c-0.6-7.9-1.4-15.8-1.8-23.8c-0.5-12-0.7-24-1-36c0-1.6,0-3.2-1.2-4.7
		c-1.7,5.7-3.4,11.2-4.9,16.8c-2.1,7.7-3.3,15.5-3.7,23.5c-0.9,18.1,2.6,35.4,7.9,52.5C87.1,460.4,89.5,464.7,92.3,469.8z
		 M232.8,351.6c0,1.1,0,2.2,0.2,3.2c1.6,11.9,2.2,23.9,2.4,35.9c0.1,4.3,0,8.6,0.2,12.9c0.6,12.7,1.3,25.3,1.4,38
		c0,2.5,0.1,5.1,0.2,7.6c2.7-4.5,3.4-9.5,4.8-14.3c3-10.8,5.4-21.7,5.3-33c0-4.3-1.2-8.5-1.6-12.8c-0.6-6.5-2.2-12.7-4.7-18.7
		c-1.3-3.1-2.3-6.3-3.2-9.6C236.7,357.4,234.8,354.6,232.8,351.6z"/>
	<path id="XMLID_101_" class="st1" d="M602.2,528.3c0.5-8.2,0.3-16.4,0.3-24.7c0-12.8-0.1-25.6-0.1-38.4c0-2,0-4,0-6.3
		c-3.5,0.4-6.4,1.8-9.3,3.1c-19.9,8.6-40.3,9-61,4.1c-22.4-5.3-41.9-16.1-59.2-31.1c-2.2-1.9-4.1-4.2-5.5-6.9
		c1.5-2.6,2.9-5.2,4.4-7.7c3.5-5.6,7-11.1,10.6-16.6c7.4,7.4,15.8,13.4,25.3,17.9c17.2,8,35.1,11.5,54,8.3
		c14.1-2.4,26.4-8.3,37-17.9c2.1-1.9,2.9-3.9,2.8-6.7c-0.4-20.5-0.6-41.1-0.9-61.6c0-0.5,0-1.1,0-1.6c-0.1-1-0.4-1.9-1.5-2.1
		c-1.3-0.2-2,0.5-2.5,1.6c-0.7,1.5-0.5,3.2-0.5,4.8c-0.1,10-0.1,19.9-2.4,29.7c-5.2,22.4-22.9,39.9-50.2,43.3
		c-10.1,1.3-20.2,0.1-30-3.2c-11.3-3.8-21.5-9.3-30-17.8c4.6-7.1,9.5-13.9,14.4-20.7c6.4,4.2,13.2,7.2,20.7,8.9
		c9.3,2.2,17.9,0.2,26.2-3.9c2.8-1.4,4.8-3.8,6.6-6.4c5.5-7.9,8-16.7,8.9-26.1c1.3-14.1,1.2-28.3,1.9-42.4
		c0.4-7.3,0.1-14.5,0.9-21.8c0.9-8.3,3.7-16.1,7.3-23.4c10.2-20.4,26.3-33.9,48.8-39.1c4.7-1.1,9.4-2.4,14.2-3.1
		c2.2-0.3,4-0.2,5.3,1.7c4.3,3.5,8.9,6.6,14.4,7.9c8.2,2,15.5-0.3,22.3-4.8c2.8-1.8,6-3.3,7.6-6.5c1-0.4,2-0.9,3.1-0.8
		c7.8,0.6,15.6,1,23.3,2.7c14.4,3.2,24.9,11.9,32.3,24.5c5.7,9.7,8.6,20.3,9.9,31.4c2.1,18.6-0.6,36.9-4.8,54.9
		c-2,8.4-5.7,16.3-9.2,24.2c-2,4.7-4.1,9.4-6.5,13.9c-2.4,4.4-3.3,9-3.7,13.9c-0.6,9.2-1.2,18.3-1.9,27.5
		c-0.7,10.2-1.6,20.4-2.2,30.7c-1.1,16.8-1.8,33.7-2,50.6c-0.1,9,0.5,18.1,0,27.1c-2.9,1-6,1.7-9.1,1.5c-13.3-0.6-26.3,1.3-39.4,3.6
		c-9.3,1.6-18.7,2.6-28.1,2.7c-8.1,0.1-16.1,1.1-24.2,1c-4.8,0-9.6,0.9-14.5,0.8C604.7,529.1,603.3,529.5,602.2,528.3z"/>
	<path id="XMLID_99_" class="st2" d="M132.8,230.8c2.1-2.3,4.1-4.7,4.8-7.8c0.8-3.3-0.4-5.9-3.5-7.3c-21.6-9.4-32.8-26.7-37.7-48.9
		c-0.3-1.2-0.4-2.4-0.8-3.6c-0.9-2.5-2.3-4.5-5.3-4.8c-11.1-1-15.7-14.6-10.4-24.4c2-3.6,5.3-4.7,10.2-3.6c6.5,1.4,6.5,1.3,9-4.9
		c3.9-9.7,8.7-18.9,15.3-27c2.8,0.5,5.4,1.7,8.3,1.8c6.6,0.3,11.5-3.1,16.2-7.1c2.4-2,4.7-4.1,7.1-6c5.2-4.2,11.2-5.6,17.7-5.8
		c1.9-0.1,3.7,0.4,5.5,1.2c3.7,1.6,7.4,3.2,11,5c5.6,2.8,11.3,3,17.3,1.7c0,0,0,0,0,0c0.3,0,0.5-0.1,0.7-0.2
		c9.9,9.3,16.7,20.4,19.9,33.6c0.8,3.1,1.2,3.5,4.6,3.1c3.7-0.5,6.3,1.2,8.1,4.2c4.2,7.1,3,17.6-6.8,21c-2.9,1-4,2.9-4.5,5.6
		c-1.3,7.1-3.3,13.9-6.2,20.5c-5.2,11.7-12.7,21.6-22.8,29.5c-1.8,1.4-3.6,2.8-5.3,4.4c-6.3,5.7-6.4,13-0.4,18.9
		c-2.6,4.9-6.8,7.9-11.8,9.8c-12.1,4.6-23.7,3.5-34.7-3.3C136.2,234.9,134.1,233.2,132.8,230.8z"/>
	<path id="XMLID_98_" class="st3" d="M34.2,438.2c1.3,3,1.8,6.2,2.6,9.3c2.9,11.9,8.2,22.8,14.3,33.3c1.6,2.8,3.3,5.5,5.1,8.3
		c6.3,9.7,15.8,15.7,25.5,21.2c2.7,1.5,5.4,3,8.3,4.2c2.9,1.2,3.8,3.5,4.1,6.3c0.3,3.3,0.5,6.7,0.8,10.1c0.2,4.1,0.2,4.1,4.4,4.1
		c0.7,0,1.3,0,2-0.1c-8,0.9-15.9,0.2-23.7-1.3c-4.3-0.9-8.6-2.3-12.8-3.6c-11.6-3.5-18.5-11.8-22.1-22.9c-3.2-10-4.9-20.4-6.8-30.8
		C33.5,463.5,34.3,450.8,34.2,438.2z"/>
	<path id="XMLID_3_" class="st4" d="M134.2,215.6c-21.6-9.4-32.8-26.7-37.7-48.9c-0.3-1.2-0.4-2.4-0.8-3.6c-0.9-2.5-2.3-4.5-5.3-4.8
		c-11.1-1-15.7-14.6-10.4-24.4c2-3.6,5.3-4.7,10.2-3.6c6.5,1.4,6.5,1.3,9-4.9c3.9-9.7,8.7-18.9,15.3-27c-1.5-1.9-4-2.7-5.1-5.1
		c-2.3-5.1-3.1-10.3-1.1-15.7c0.3-0.9,0.8-1.7,1.1-2.6c0.4-1.2,0-1.9-1.3-1.8c-2,0.1-4,0.3-6,0.6c-3.5,0.5-6.9,1.1-10.4,1.2
		c-4.7,0.1-9.4,0.9-13.9,2.3c-4.3,1.3-8.5,2.9-12.8,3.8c-6.7,1.4-12.9,4.1-18.7,7.5c-11.9,7-19.8,16.3-19,31.3
		c0.5,8.6,0.6,17.3-0.1,25.9c-1,13.3-1.2,26.7-1.2,40c0,2.3,0,4.6-0.3,6.9c-1.6,13-2.1,26.1-2.1,39.2c0,3.6,0,7.3,0,10.9
		c-0.9,1-0.8,2.1-0.6,3.3c-0.1,0.5-0.1,1.1-0.2,1.6c-0.2,0.4-0.5,0.7-0.5,1.1c-1.1,7.9-2,15.8-2.8,23.7c-0.7,7.5-0.7,15.1-1,22.6
		C18,312,17,328.8,17.8,345.7c0.7,14.7,2.6,29,6.8,43c2.3,7.6,4.5,15.3,7.8,22.5c0-2.1,0.1-4.2,0.1-6.3c0.3-3.1,0.6-6.2,0.7-9.3
		c0.2-3.4,0-6.8,0.3-10.1c0.9-10.3,1.9-20.6,3-30.9c1.2-10.6,3.1-21.1,7.4-30.9c2.3-5.3,4.8-10.6,7.2-15.8c6-12.9,13.1-25,23.1-35.4
		c5.4-5.6,10.2-11.9,15.6-17.5c4.7-4.9,9.6-9.9,15.4-13.6c5-3.2,10.7-5.2,15.7-8.2c2.4-1.5,5.2-2.2,7.9-2.9c1.4-0.4,2.6-0.4,3.8,0.5
		c2.1-2.3,4.1-4.7,4.8-7.8C138.4,219.7,137.2,217,134.2,215.6z"/>
	<path id="XMLID_92_" class="st4" d="M197.7,89.3C197.7,89.3,197.7,89.2,197.7,89.3C197.7,89.2,197.7,89.3,197.7,89.3z"/>
	<path id="XMLID_91_" class="st5" d="M419.4,417.7c-1.5,0.3-2.6-0.7-3.8-1.2c-27.4-13.1-54.7-26.3-82.1-39.3
		c-3.4-1.6-4.2-3.8-4.3-7.2c-0.8-16.3-1.8-32.6-2.8-48.9c-1.2-20.2-2.5-40.4-3.7-60.6c-0.1-1.3-0.6-2.8,1.5-3.1
		c1.9,0.7,3.8,1.5,5.6,2.2c21.2,8.3,42.4,16.7,63.6,25c6.9,2.7,13.7,5.7,20.8,7.9c-0.2,6.7,0.3,13.5,0.6,20.2
		c0.5,10.9,0.9,21.8,1.3,32.7c0.4,10.1,0.9,20.2,1.3,30.3c-2.6,1.4-3,2.4-1.7,4.6c0.7,1.3,1.7,2.4,2.6,3.6c-0.6,3.2,0.3,6.4-0.2,9.6
		c-1.4,0.2-3.2-0.5-3.8,1.3c-0.6,1.8,0.7,2.9,2,3.9c1,0.7,2.1,1.2,2.7,2.3C418.8,406.6,419.3,412.1,419.4,417.7z"/>
	<path id="XMLID_90_" class="st6" d="M417.5,375.8c-0.4-10.1-0.9-20.2-1.3-30.3c-0.5-10.9-0.8-21.8-1.3-32.7
		c-0.3-6.7-0.8-13.4-0.6-20.2c0.3-0.7,0.9-1,1.5-1.3c5.7-2.6,11.5-5.2,17.2-7.9c14.1-6.7,28.1-13.5,42.2-20.2c6.3-3,12.6-6,18.9-9
		c0.7-0.3,1.5-0.5,2.3-0.7c1,0.6,0.7,1.7,0.8,2.6c0.6,9,0.6,18,0.8,27.1c0.5,18.2,1.1,36.4,1.6,54.6c0.2,7,0.3,13.9,0.6,20.9
		c0.1,2-0.6,3.3-2.2,4.4c-1.6,1-3,2.3-4.5,3.4c-1,0.6-2.1,1.2-3,1.9c-5.6,3.9-11.1,7.9-16.7,11.9c-1-3.3-2-6.7-3.1-10
		c-0.9-2.7-1.7-5.4-2.8-8c-1-2.2-2.7-3-4.5-2.4c-2.1,0.6-2,2.4-1.9,3.9c0.3,2.7,0.8,5.3,1.1,8c0.6,4.9,2.4,9.7,2.1,14.7
		c-0.6,0.7-1.6,1-1.9,1.9c-0.6,0.3-1.3,0.5-1.9,0.8c-1.4-0.6-2.3-1.9-3.3-2.9c-5.9-5.9-11.8-11.8-17.7-17.7
		c-1.8-1.8-3.9-3.4-6.2-4.4c-1.4-0.6-3-0.8-4.1,0.7c-1,1.3,0.1,2.3,0.8,3.2c0.5,0.7,0.8,1.4,1.4,2c3.9,3.9,7.3,8.3,10.7,12.6
		c2,2.5,4.4,4.7,5.6,7.9c0.3,0.7,0.4,1.3-0.2,1.9c-0.6,0.7-1.4,0.8-2.2,0.4c-0.5-0.2-0.9-0.6-1.3-0.9c-7.8-4.8-15.6-9.6-23.3-14.5
		C419.8,376.5,418.8,375.9,417.5,375.8z"/>
	<path id="XMLID_89_" class="st7" d="M683,218.6c-1.6,3.2-4.8,4.7-7.6,6.5c-6.8,4.5-14.1,6.8-22.3,4.8c-5.5-1.3-10.1-4.4-14.4-7.9
		c0.5-0.8,1.1-1.5,1.5-2.4c2.4-5.5-1-11.1-7.1-11.6c-2-0.1-4,0.1-6,0.4c-3.9,0.6-7.8,0.8-11.7,0.5c-5.4-0.4-9.8-2.8-12.7-7.5
		c-2.7-4.4-4.6-9.1-6.3-14c-5.3-14.7-8.9-29.9-14.4-44.5c-0.4-1-0.7-2-1.1-3c0.1-0.8,0.3-1.6,0.3-2.4c0-1.8,0.7-2.6,2.5-3
		c9.1-1.8,16.6-6.3,23.7-12.4c9.5-8.1,19.8-14.8,32.4-17.5c5.7-1.2,10.6-0.2,15.2,3.4c4.2,3.4,7.1,7.6,9,12.7
		c2.2,5.8,3,11.7,2.4,17.9c-0.3,3.9-0.6,7.8-0.2,11.7c0.8,6.6,4,11.3,10.6,13.3c0.5,0.2,1,0.4,1.5,0.6c-2,13.3-2.6,26.7-0.7,40.1
		C678.6,209.4,681,214,683,218.6z"/>
	<path id="XMLID_88_" class="st8" d="M678.5,164.3c-0.5-0.2-1-0.5-1.5-0.6c-6.6-2-9.8-6.7-10.6-13.3c-0.5-3.9-0.2-7.8,0.2-11.7
		c0.5-6.1-0.3-12.1-2.4-17.9c-1.9-5.1-4.8-9.3-9-12.7c-4.5-3.6-9.5-4.6-15.2-3.4c-12.5,2.7-22.9,9.4-32.4,17.5
		c-7.1,6-14.6,10.6-23.7,12.4c-1.8,0.3-2.5,1.2-2.5,3c0,0.8-0.2,1.6-0.3,2.4c-2.2,4.4-4.9,8.3-8.5,11.7c-4.9,4.5-12.6,5.4-18.4,2
		c-3-1.8-4.7-4.4-4.8-7.9c-0.1-3.5,0.7-6.7,2.4-9.7c2.7-4.8,6-8.9,10.6-12c1-0.7,1.9-1.2,1.8-2.8c-0.7-12.3,4.4-22.5,12.6-30.9
		c10-10.3,22.1-17.7,36.1-21.5c10.8-2.9,21.7-3.9,32.8-0.9c3.5,1,7.2,1.4,10.5,3.1c1.3,0.7,2.6,0.4,3.9,0c5.5-1.7,10.1,0.2,14.2,3.8
		c6,5.3,7.5,12.2,7.1,19.8c0,0.9-0.2,1.9-0.3,2.8c-0.3,1.5,0,2.3,1.6,3.2c8.2,4.4,12.4,11.3,13.1,20.5c0.3,3.5,0.9,7,0.1,10.5
		c-0.6,3.1-1.8,6-4.3,8c-1.7,1.4-1.8,2.8-1.3,4.6c1.1,3.9,0.6,7.9-0.9,11.5C687.4,160.4,683.9,163.6,678.5,164.3z"/>
	<path id="XMLID_87_" class="st7" d="M496.4,253.3c-0.8,0.2-1.6,0.4-2.3,0.7c-6.3,3-12.6,6-18.9,9c-14.1,6.7-28.1,13.5-42.2,20.2
		c-5.7,2.7-11.5,5.3-17.2,7.9c-0.6,0.3-1.2,0.6-1.5,1.3c-7.1-2.2-13.9-5.2-20.8-7.9c-21.2-8.3-42.4-16.6-63.6-25
		c-1.9-0.7-3.8-1.5-5.6-2.2c6.1-3.2,12.6-5.4,18.9-8c20.9-8.6,41.9-17.1,62.8-25.8c2.8-1.2,5.3-1.2,8.1-0.2
		c26.3,9.5,52.7,18.9,79.1,28.3C494.3,252.2,495.5,252.5,496.4,253.3z"/>
	<path id="XMLID_86_" class="st7" d="M464.6,386.3c0.3-5-1.5-9.8-2.1-14.7c-0.3-2.7-0.9-5.3-1.1-8c-0.2-1.6-0.2-3.4,1.9-3.9
		c1.9-0.5,3.6,0.2,4.5,2.4c1.1,2.6,2,5.3,2.8,8c1.1,3.3,2,6.7,3.1,10c2.3,5.9,4.6,11.8,6.9,17.6c0.6,2,1.2,4.1,1.8,6.1
		c-3.5,5.5-7.1,11-10.6,16.6c-1.6,2.5-3,5.1-4.4,7.7c-11.9-2.5-23.7-5.1-34.9-9.9c-2.6-1.1-4.6-3.3-7.5-3.8
		c-0.6-0.6-1.1-1.1-1.7-1.7c-0.8-0.9-1.1-1.9-0.5-2.9c0.6-0.9,1.7-0.8,2.6-0.6c1.8,0.4,3.6,1,5.4,1.5c2.5,1.1,5.1,2.3,7.9,2.5
		c0.6,0,1.4,0.2,1.6-0.7c0.1-0.6-0.1-1.1-0.6-1.4c-2.1-1.1-3.9-2.9-6.5-2.7c-4.1-3.4-9.1-5.4-14-7.3c-0.6-1.1-1.7-1.6-2.7-2.3
		c-1.3-1-2.6-2.1-2-3.9c0.6-1.8,2.4-1.1,3.8-1.3c3,0.9,5.8,2.2,8.6,3.4c3.8,1.7,7.6,3.3,11.4,5c0.6,0.3,1.3,0.7,1.8,0
		c0.5-0.8,0-1.5-0.5-2.1c-0.4-0.4-0.8-0.7-1.2-1c-6.1-4.5-12.2-9.2-18-14.1c-0.5-0.5-1.1-0.7-1.8-0.7c-0.9-1.2-1.8-2.3-2.6-3.6
		c-1.3-2.2-0.8-3.1,1.7-4.6c1.3,0.1,2.3,0.7,3.3,1.4c7.8,4.8,15.6,9.6,23.3,14.5c0.5,0.3,0.9,0.6,1.3,0.9c0.8,0.4,1.6,0.3,2.2-0.4
		c0.5-0.6,0.4-1.2,0.2-1.9c-1.2-3.1-3.6-5.4-5.6-7.9c-3.5-4.3-6.8-8.7-10.7-12.6c-0.6-0.6-0.9-1.3-1.4-2c-0.7-1-1.7-1.9-0.8-3.2
		c1.1-1.5,2.7-1.3,4.1-0.7c2.4,1,4.4,2.5,6.2,4.4c5.9,5.9,11.8,11.8,17.7,17.7c1,1,1.9,2.3,3.3,2.9c-0.1,1.7,0.9,2.5,2.4,2.6
		c1.4,0.1,2.1-0.9,2.2-2.3C465.3,388.2,465.9,387,464.6,386.3z"/>
	<path id="XMLID_85_" class="st9" d="M480.6,397.7c-2.3-5.9-4.6-11.8-6.9-17.6c5.6-4,11.1-7.9,16.7-11.9c1-0.7,2-1.3,3-1.9
		c1.5,3.8,3,7.6,4.5,11.5c-5,6.8-9.9,13.6-14.4,20.7C482.5,398.3,481.8,397.1,480.6,397.7z"/>
	<path id="XMLID_84_" class="st6" d="M419.1,401c5,1.9,9.9,3.9,14,7.3c-0.8,0.8-1.6,1.5-2.4,2.3c-1.8-0.5-3.6-1.1-5.4-1.5
		c-0.9-0.2-2-0.4-2.6,0.6c-0.7,1-0.3,2.1,0.5,2.9c0.5,0.6,1.1,1.2,1.7,1.7c-1.7,1.3-3.2,3-5.5,3.4
		C419.3,412.1,418.8,406.6,419.1,401z"/>
	<path id="XMLID_83_" class="st10" d="M92.3,469.8c-2.9-5.1-5.3-9.4-6.7-14.1c-5.3-17.1-8.8-34.4-7.9-52.5c0.4-8,1.6-15.8,3.7-23.5
		c1.5-5.6,3.2-11.1,4.9-16.8c1.1,1.5,1.1,3.1,1.2,4.7c0.3,12,0.5,24,1,36c0.3,7.9,1.2,15.8,1.8,23.8c0.1,1.6,0.4,3.2,0.4,4.8
		c0.2,10.2,0.7,20.5,1.6,30.7C92.5,464.8,92.3,466.8,92.3,469.8z"/>
	<path id="XMLID_82_" class="st10" d="M232.8,351.6c2,2.9,4,5.8,4.9,9.2c0.9,3.2,2,6.5,3.2,9.6c2.5,6,4.1,12.3,4.7,18.7
		c0.4,4.3,1.6,8.5,1.6,12.8c0.1,11.3-2.3,22.2-5.3,33c-1.3,4.8-2.1,9.7-4.8,14.3c-0.1-2.5-0.2-5.1-0.2-7.6c0-12.7-0.8-25.3-1.4-38
		c-0.2-4.3-0.1-8.6-0.2-12.9c-0.2-12-0.8-24-2.4-35.9C232.8,353.8,232.8,352.7,232.8,351.6z"/>
	<path id="XMLID_81_" class="st11" d="M480.6,397.7c1.2-0.7,1.9,0.6,2.9,0.7c8.4,8.6,18.7,14.1,30,17.8c9.8,3.3,19.9,4.4,30,3.2
		c27.4-3.4,45-20.9,50.2-43.3c2.3-9.9,2.3-19.8,2.4-29.7c0-1.6-0.3-3.3,0.5-4.8c0.5-1,1.3-1.8,2.5-1.6c1.1,0.2,1.4,1.1,1.5,2.1
		c0,0.5,0,1.1,0,1.6c0.3,20.5,0.5,41.1,0.9,61.6c0.1,2.8-0.8,4.8-2.8,6.7c-10.6,9.6-23,15.6-37,17.9c-18.9,3.2-36.8-0.3-54-8.3
		c-9.5-4.4-17.9-10.5-25.3-17.9C481.8,401.8,481.2,399.8,480.6,397.7z"/>
	<path id="XMLID_11_" class="st4" d="M766.2,377.6c0-14.2-2.8-28.2-4.6-42.2c-1.4-10.7-3.5-21.3-5.4-31.9c-1.2-7.1-1.3-14.2-2-21.3
		c-0.7-6.8-1.4-13.7-1.6-20.6c-0.3-9.4-0.6-18.9-1.8-28.3c-1.2-9.2-2.1-18.5-3-27.8c-0.9-9.5-2.1-19.1-2.4-28.6
		c-0.5-20.4,0.1-40.8,4.1-60.9c2.6-12.9,1.7-25.5-3.8-37.6c-2-4.3-4.4-8.4-7.8-11.7c-3-2.9-5.9-5.9-9-8.7c-6-5.4-13-8.8-21.3-8.5
		c-6.9,0.2-13.8,0.4-20.6,0.9c-7.9,0.6-15.9,0.7-23.9,0c-12.2-1-24.3-0.7-36.4-0.1c-8.9,0.4-17.8,1.3-26.6,2.2
		c-7.4,0.7-14.8,0.4-22.1,2.1c-4.4,1.1-9.1,1.4-13.6,1.9c-8.9,0.9-17.7,1.6-26.6,2.4c-4.7,0.4-9.3,1.8-14.1,1.4
		c-2.6-0.2-5.1-0.5-7.7-0.5c-19.2-0.1-38.4-0.2-57.5-0.3c-23.4-0.2-46.7,0.4-69.9,3.3c-16.3,2.1-32.8,2.3-49.3,3.4
		c-2.8,0.2-5.6,0.5-8.5,0.5c-11.3,0.1-22.7,0.1-34,0c-7.3-0.1-14.6-0.4-21.8-1c-6.5-0.5-12.9-1.3-19.4-1.2
		c-3.9,0.1-7.8,0.4-11.7,0.6c-8.9,0.4-17.8,0.7-26.7,1.1c-2.8,0.1-5.6,0.5-8.5,0.7c-1.7,0.1-2.1,0.9-1.6,2.4c0.2,0.5,0.4,1,0.4,1.6
		c0.6,6.8,0.4,13.4-7,16.9c-0.7,0.3-1.3,0.9-2,1.3c9.9,9.3,16.7,20.4,19.9,33.6c0.8,3.1,1.2,3.5,4.6,3.1c3.7-0.5,6.3,1.2,8.1,4.2
		c4.2,7.1,3,17.6-6.8,21c-2.9,1-4,2.9-4.5,5.6c-1.3,7.1-3.3,13.9-6.2,20.5c-5.2,11.7-12.7,21.6-22.8,29.5c-1.8,1.4-3.6,2.8-5.3,4.4
		c-6.3,5.7-6.4,13-0.4,18.9c1.5-1.1,2.8-1.7,4.8-0.8c3.8,1.8,7.6,3.4,11.5,4.9c9.7,3.9,18.5,9.4,26.9,15.6c0.6,0.5,1.3,1,1.9,1.5
		c7.6,7.4,15.5,14.7,22.2,23c7,8.5,12.9,17.6,16.9,27.9c4.3,11.1,8.6,22.2,10.8,33.9c3.5,19.4,7.1,38.8,5.5,58.6
		c-0.2,2.6-0.1,5.1,0,7.7c0.2,7.2-0.3,14.3-1.4,21.4c-0.5,3.2-0.5,6.5-0.8,9.7c-1,12.1-4.4,23.6-8.8,34.8c-1.6,4.1-3.9,7.7-6.4,11.2
		c-4.9,7.1-9.3,14.6-16.1,20.2c-2.6,2.1-5,4.6-7.6,6.6c-1.7,1.3-2.2,2.8-2,4.9c0.7,6.6,1.3,13.1,2.1,19.7c0.4,3.5,0.3,7,1.2,10.4
		c0,0,0,0,0,0c0.1,1.4,0.1,2.8,0.2,4.1c7.1-0.5,14.1-1.7,21.2-2.9c16.3-2.8,32.6-5.7,48.8-8.7c5.5-1,11.2-1.5,16.6-3.2v0
		c3.2-0.4,6.4-0.8,9.6-1.1c9.1-0.9,18.2-1.9,27.4-2.5c5.7-0.4,11.3-1,16.9-1.6c6.6-0.7,13.1-1.6,19.7-2c15.8-1,31.5,0.7,47.3,2.1
		c3.1,0.3,6.2,0.3,9.3,0.7c13.4,1.8,26.9,2.2,40.4,2.8c16.5,0.8,32.9,0.5,49.4-0.4c16.6-0.9,33.2-0.2,49.8-0.2
		c0.5-8.2,0.3-16.4,0.3-24.7c0-12.8-0.1-25.6-0.1-38.4c0-2,0-4,0-6.3c-3.5,0.4-6.4,1.8-9.3,3.1c-19.9,8.6-40.3,9-61,4.1
		c-22.4-5.3-41.9-16.1-59.2-31.1c-2.2-1.9-4.1-4.2-5.5-6.9c-11.9-2.5-23.7-5.1-34.9-9.9c-2.6-1.1-4.6-3.3-7.5-3.8
		c-1.7,1.3-3.2,3-5.5,3.4c-1.5,0.3-2.6-0.7-3.8-1.2c-27.4-13.1-54.7-26.3-82.1-39.3c-3.4-1.6-4.2-3.8-4.3-7.2
		c-0.8-16.3-1.8-32.6-2.8-48.9c-1.2-20.2-2.5-40.4-3.7-60.6c-0.1-1.3-0.6-2.8,1.5-3.1c6.1-3.2,12.6-5.4,18.9-8
		c20.9-8.6,41.9-17.1,62.8-25.8c2.8-1.2,5.3-1.2,8.1-0.2c26.3,9.5,52.7,18.9,79.1,28.3c1.1,0.4,2.4,0.6,3.3,1.5
		c1,0.6,0.7,1.7,0.8,2.6c0.6,9,0.6,18,0.8,27.1c0.5,18.2,1.1,36.4,1.6,54.6c0.2,7,0.3,13.9,0.6,20.9c0.1,2-0.6,3.3-2.2,4.4
		c-1.6,1-3,2.3-4.5,3.4c1.5,3.8,3,7.6,4.5,11.5c6.4,4.2,13.2,7.2,20.7,8.9c9.3,2.2,17.9,0.2,26.2-3.9c2.8-1.4,4.8-3.8,6.6-6.4
		c5.5-7.9,8-16.7,8.9-26.1c1.3-14.1,1.2-28.3,1.9-42.4c0.4-7.3,0.1-14.5,0.9-21.8c0.9-8.3,3.7-16.1,7.3-23.4
		c10.2-20.4,26.3-33.9,48.8-39.1c4.7-1.1,9.4-2.4,14.2-3.1c2.2-0.3,4-0.2,5.3,1.7c0.5-0.8,1.1-1.5,1.5-2.4c2.4-5.5-1-11.1-7.1-11.6
		c-2-0.1-4,0.1-6,0.4c-3.9,0.6-7.8,0.8-11.7,0.5c-5.4-0.4-9.8-2.8-12.7-7.5c-2.7-4.4-4.6-9.1-6.3-14c-5.3-14.7-8.9-29.9-14.4-44.5
		c-0.4-1-0.7-2-1.1-3c-2.2,4.4-4.9,8.3-8.5,11.7c-4.9,4.5-12.6,5.4-18.4,2c-3-1.8-4.7-4.4-4.8-7.9c-0.1-3.5,0.7-6.7,2.4-9.7
		c2.7-4.8,6-8.9,10.6-12c1-0.7,1.9-1.2,1.8-2.8c-0.7-12.3,4.4-22.5,12.6-30.9c10-10.3,22.1-17.7,36.1-21.5
		c10.8-2.9,21.7-3.9,32.8-0.9c3.5,1,7.2,1.4,10.5,3.1c1.3,0.7,2.6,0.4,3.9,0c5.5-1.7,10.1,0.2,14.2,3.8c6,5.3,7.5,12.2,7.1,19.8
		c0,0.9-0.2,1.9-0.3,2.8c-0.3,1.5,0,2.3,1.6,3.2c8.2,4.4,12.4,11.3,13.1,20.5c0.3,3.5,0.9,7,0.1,10.5c-0.6,3.1-1.8,6-4.3,8
		c-1.7,1.4-1.8,2.8-1.3,4.6c1.1,3.9,0.6,7.9-0.9,11.5c-1.9,4.8-5.5,7.9-10.8,8.6c-2,13.3-2.6,26.7-0.7,40.1
		c0.7,5.1,3.2,9.6,5.2,14.3c1-0.4,2-0.9,3.1-0.8c7.8,0.6,15.6,1,23.3,2.7c14.4,3.2,24.9,11.9,32.3,24.5c5.7,9.7,8.6,20.3,9.9,31.4
		c2.1,18.6-0.6,36.9-4.8,54.9c-2,8.4-5.7,16.3-9.2,24.2c-2,4.7-4.1,9.4-6.5,13.9c-2.4,4.4-3.3,9-3.7,13.9
		c-0.6,9.2-1.2,18.3-1.9,27.5c-0.7,10.2-1.6,20.4-2.2,30.7c-1.1,16.8-1.8,33.7-2,50.6c-0.1,9,0.5,18.1,0,27.1
		c3.6-0.5,7.2-1.3,10.8-1.4c5.8-0.2,10.7-2.5,15.6-5.2c6-3.5,9.6-8.5,9.6-15.8c0-5.7,0.2-11.3,0.1-17c-0.1-4.7,0.7-9.1,2.2-13.5
		c3.8-11.4,5.5-23.1,5.6-35c0.1-4.3,0.2-8.6,0.5-13c0.6-7.9,1.2-15.9,1.2-23.8C766.8,388.9,766.2,383.2,766.2,377.6z M248.1,540.2
		c0.4-0.1,0.7-0.1,1.1-0.2C248.8,540.1,248.4,540.1,248.1,540.2z"/>
	<path id="XMLID_79_" class="st6" d="M418.4,383.9c0.7,0,1.3,0.2,1.8,0.7c5.8,4.9,11.8,9.6,18,14.1c0.4,0.3,0.8,0.7,1.2,1
		c0.6,0.6,1.1,1.3,0.5,2.1c-0.5,0.7-1.2,0.3-1.8,0c-3.8-1.6-7.6-3.3-11.4-5c-2.8-1.3-5.6-2.5-8.6-3.4
		C418.7,390.3,417.7,387.1,418.4,383.9z"/>
	<path id="XMLID_78_" class="st12" d="M465.3,389.2c-0.1,1.4-0.8,2.4-2.2,2.3c-1.5-0.1-2.5-0.9-2.4-2.6c0.6-0.3,1.3-0.5,1.9-0.8
		C463.4,388.9,464.3,389.2,465.3,389.2z"/>
	<path id="XMLID_77_" class="st5" d="M465.3,389.2c-1,0-1.9-0.3-2.7-1c0.4-0.9,1.3-1.3,1.9-1.9C465.9,387,465.3,388.2,465.3,389.2z"
		/>
	<path id="XMLID_76_" class="st12" d="M430.7,410.6c0.8-0.8,1.6-1.5,2.4-2.3c2.6-0.1,4.4,1.6,6.5,2.7c0.5,0.3,0.7,0.8,0.6,1.4
		c-0.2,0.9-1,0.8-1.6,0.7C435.8,412.9,433.3,411.7,430.7,410.6z"/>
</g>
</svg>
