<?xml version="1.0" encoding="utf-8"?>
<!-- Generator: Adobe Illustrator 19.0.0, SVG Export Plug-In . SVG Version: 6.00 Build 0)  -->
<svg version="1.1" id="Layer_1" xmlns="http://www.w3.org/2000/svg" xmlns:xlink="http://www.w3.org/1999/xlink" x="0px" y="0px"
	 viewBox="0 0 640 480" style="enable-background:new 0 0 640 480;" xml:space="preserve">
<style type="text/css">
	.st0{fill:#FEE040;}
	.st1{fill:#72E4BD;}
	.st2{fill:#FEE041;}
	.st3{fill:#060606;}
	.st4{fill:#030201;}
	.st5{fill:#020101;}
	.st6{fill:#FA709A;}
	.st7{fill:#FEE45C;}
	.st8{fill:#8F8988;}
	.st9{fill:#FB709A;}
	.st10{fill:#FDFEFE;}
	.st11{fill:#020201;}
	.st12{fill:#F6F6F5;}
	.st13{fill:#FDFEFD;}
</style>
<g id="XMLID_1_">
	<path id="XMLID_226_" class="st0" d="M162.1,52.6c3.2-0.2,6.5-0.4,9.7-0.6c10.5-0.6,21-1,31.5-1.6c7.4-0.4,14.7-0.2,22,0.7
		c5.7,0.6,11.5,0.7,17.2,0.8c9.6,0.1,19.1,0.1,28.7,0c3.7,0,7.4-0.2,11-0.7c6-0.8,12.1-0.5,18.2-1c8.7-0.7,17.5-1.5,26.2-2.6
		c2.6-0.3,5.2-0.7,7.8-0.7c7.8-0.1,15.6-1,23.4-0.9c20.2,0.2,40.4,0.2,60.6,0.2c1.9,0,3.7,0.4,5.5,0.5c3.7,0.1,7.4-0.2,11-0.8
		c0.6-0.1,1.3-0.3,1.9-0.3c0.6,0,1,0.3,1,1c0,0.5,0.1,1.3-0.5,1.4c-4.8,0.6-4.7,4.4-5.1,7.8c-0.1,1.1-0.5,1.4-1.6,1.6
		c-3.7,0.8-5,2.5-5.2,6.3c0,0.4,0,0.9,0,1.3c0.2,1.3-0.2,1.9-1.7,2c-5.1,0.3-6.9,3.7-4.5,8.7c-1.1,1-2.6,1.4-3.6,2.6
		c-2,2.2-2.4,4-1.1,6.8c0.4,0.9,0.4,1.2-0.4,1.8c-3,2.5-3.1,3.2-1.5,6.9c0.3,0.7,0.2,1.1-0.1,1.8c-1.6,3.6-1.4,4.2,1.9,6.7
		c0.8,0.5,0.8,0.9,0.6,1.8c-1.3,4.6-1.2,4.9,3,7.3c0.6,0.3,0.7,0.7,0.8,1.3c0.9,3.3,2.9,4.3,6,3.2c1.2-0.4,2.1-1.2,2.9-2.1
		c0.9-1,1.9-1.6,3.4-1.2c1.9,0.5,3.6-0.3,5.1-1.5c0.2,0.8,0.5,1.7,0.6,2.5c1.6,9.5,3.4,19,5.4,28.4c1.1,5,2,10,3.9,14.8
		c2.2,5.5,7.1,10.4,14.3,9.6c1.3-0.1,2.6,0.1,3.9,0c5.2-0.2,11.8,6,10.6,13.1c-0.6,3.5-1.8,6.7-4.5,9.1c-1.5-1.7-2.8-0.8-4.2,0.2
		c-9,5.9-17.5,12.3-25,20.2c-4.1,4.3-6.5,9.1-8,14.6c-1.8,6.6-2.4,13.5-2.4,20.3c0,8.1,0.7,16.2,1.1,24.3c0.1,2.5,0.1,5,0.1,7.5
		c0,1.5,0.7,2,2,1.7c1.7-0.4,3.4-0.8,5.1-0.5c-1.4,4.7-2.7,9.4-4.2,14c-0.8,2.6-1.6,5.2-2.9,7.6c-1.9,3.7-4.9,6.1-9.3,2.2
		c-3.7-3.3-6.9-7-9.6-11c-6.9-10.1-11.9-21.1-15.7-32.8c-1.6-5-1.7-10-0.8-15.1c0.5-2.9,1-5.8,1.3-8.7c0.4-3.4,0.6-6.9,0-10.4
		c-0.5-3.4-1.8-6.2-5-7.9c-0.9-0.5-1.9-1-2.6-1.9c1.5-5.4,3-10.8,4.6-16.2c0.3-1,0.3-2.1,1.4-2.8c4.7-2.8,6.6-7.5,8.1-12.4
		c0.4-1.3,0.8-2.7,0.7-4.1c0-1.3-0.7-1.7-1.9-1.6c-0.4,0-0.7-0.1-1.1-0.1c-0.6-0.9-1.5-0.8-2.4-0.7c0,0-0.2,0-0.2,0
		c-1.5-1.6-1.6-1.6-3,0.7c-0.3,0-0.5,0-0.8,0c0.1-0.8,0.1-1.6-0.9-1.8c-0.9-0.2-1.4,0.4-1.8,1.1c-2.1,4-3.2,8.2-3.1,12.7
		c0.1,1.9,0.1,3.8,1.5,5.1c1.2,1.1,1,2.2,0.6,3.5c-1.4,5.1-2.7,10.2-4,15.3c-2.1-0.8-4.2-1.6-6.4-2.3c-3.8-1.3-5.7-0.5-7.1,3.2
		c-0.3,0.9-0.7,1.2-1.5,1.2c-2.4,0.1-3.3,1.7-3.6,3.8c-0.3,1.6,0,3,0.7,4.4c0.6,1.2,0.5,2-0.7,3.1c-2.7,2.4-2.9,4.5-1.1,7.8
		c0.4,0.6,0.9,1.1,0.4,2c-1.6,2.9-0.8,5.7,0,8.8c0.8,3,0.1,6.3,2.3,8.9c0.2,0.2,0.4,0.5,0.6,0.8c1.4,1.6,2.7,3.4,4.4,4.7
		c2.2,1.8,3.8,4.1,4.6,6.9c1.1,3.6,2.4,7.2,3.6,10.8c5,14.5,11.1,28.5,19.6,41.3c4,6.1,8.6,11.7,14.4,16.2c2.8,2.1,5.8,3.9,9.2,4.7
		c6,1.4,11.7-1.3,15.5-7.2c2-3.2,3.9-6.5,5.6-9.9c3.9-7.3,6.8-15,10-22.6c2.3,4.2,4,8.6,5.1,13.2c1.3,6,2.8,12,3.2,18.2
		c0.4,6.4,1.7,12.6,1.5,19.1c-0.1,2.9-0.2,5.9,0.2,8.8c0.9,8.7,1.5,17.5,1,26.2c-1.2,0.4-2.4,0-3.5-0.3c-1.8-0.6-3.5-1-5.4-1.3
		c-8.7-1.4-17.3-1.1-25.8,0.9c-1.3,0.3-2.5,0.8-3.6,1.5c-1.6,1-2.3,2.6-1.9,4.2c0.5,1.9,2,2.1,3.5,2.2c0.6,0,1.3,0,2,0
		c2.4,0,4.8-0.1,7.1-0.4c0.5-0.1,1.1-0.1,1.3,0.6c0.2,0.7-0.4,0.9-0.9,1.1c-3.1,1.3-5.9,3.2-8.7,5c-3.9,2.5-7.6,5.4-10.8,8.8
		c-1.2,1.3-2.2,2.7-2.3,4.5c-0.1,1.9,1.1,2.8,2.9,2c0.7-0.3,1.3-0.7,2-1.1c4.3-2.6,8.5-5.2,12.8-7.8c0.6-0.4,1.3-0.8,2-1.1
		c0.4-0.2,0.8-0.2,1.2,0.2c0.3,0.4,0.3,0.8,0.2,1.2c-0.3,1.1-1.3,1.7-2.2,2.3c-4.9,3.7-9.9,7.4-14.8,11.2c-2.2,1.7-3.9,3.7-4.3,6.6
		c-9.5-0.5-19.1-0.8-28.6-1.4c-8.8-0.6-17.5-1.3-26.2-2.2c-11.4-1.2-22.9-2.1-34.4-1.4c-6.4,0.4-12.7,1.3-19.1,2
		c-3.9,0.5-7.7,0.8-11.6,1.1c-8.2,0.7-16.4,1.1-24.6,2.3c-2.6,0.4-5.1,0.7-7.7,1c-0.3-0.4-0.9-0.9-0.9-1.2c0.1-0.9,0.9-0.7,1.5-0.7
		c5.4,0.2,10.4-1.6,15.8-2.2c-0.8-1.4-1.8-2.1-3.1-1.7c-1.6,0.5-3.2,0.4-4.8,0.7c-10.7,1.9-21.4,3.8-32.1,5.8
		c-7.8,1.4-15.6,3-23.5,4.4c-4.7,0.8-9.4,1.4-14,2c-2.3-5.3-4.8-10.4-6.8-15.8c-8.3-21.5-15.6-43.4-23.7-65
		c-3.8-10.1-5.8-20.4-4.8-31.2c0.1-1.4,0-2.9,1.4-3.8c1.8-1.2,3.4-2.7,5.8-3.2c0.7,3.3,1.5,6.4,2.5,9.5c1.9,5.7,6.8,9.2,12.9,8.1
		c3.3-0.6,6.1-2.1,8.5-4.4c2.3-2.2,4.3-4.6,6.8-6.5c3.8-3,6.7-6.7,9.5-10.6c1.3-1,2.2-2.3,3.3-3.5c2.7-3,5.3-6,8.2-8.8
		c5.7-5.5,11.7-10.7,17.3-16.3c5.3-5.3,11-10.1,16.7-15c3.1-2.7,6.7-4.4,10.6-5.4c7.4-1.8,14.7-3.7,21.7-6.9c3.1-1.4,3.1-1.4,3-4.9
		c11-2.2,21.2-6.3,29.9-13.5c5.4-4.5,9.7-9.9,12-16.7c1-2.9,1.6-5.9,1.7-8.9c0.2-3.3,0.1-3.3-3.1-3.3c-1.2,0-2.4-0.1-3.6-0.1
		c0.4-1.7,0.3-3.5,0.2-5.2c-0.3-3.9-4.1-7.9-7.9-8.3c-1.6-0.1-2.3-0.5-2.5-2.2c-1.2-8.8-6.8-14.3-14.4-18c-3.9-1.9-8-3.5-12.5-2
		c-1.2,0.4-2.4,0.9-3.6,1.5c-1.1,0.5-1.6,0.2-1.9-0.8c-0.3-1.3-0.9-2.4-1.7-3.4c-4.7-5.4-10.3-8.5-17.7-7.6
		c-3.7,0.5-7.4,0.7-10.3,3.3l0-0.1c-3.8,2-7.5,4.1-10,7.7c-0.6,0.2-0.7,0.7-0.8,1.2c-1.7,1.3-2.5,3.2-3.2,5.2
		c-1.2,3.4-1.2,3.4-4.9,3.3c-3.1-0.1-5.9,0.6-8.6,2.2c-6.4,3.9-11.6,14.1-6.5,23.2c-2.2,0-4.3,0.2-6.5,0.1c-1.7-0.1-2.2,0.5-2.2,2.2
		c0.1,5.7,1.7,10.9,4.6,15.7c4.3,7.2,10.4,12.4,17.6,16.4c0.2,3.7-0.4,7.4,0.7,11c0.4,1.3-0.3,2.3-1.1,3.2
		c-3.1,3.8-6.7,7.1-10.2,10.4c-7.5,7-15,14-22.6,21c-2.1,1.2-4.4,0.9-6.7,0.7c-2.2-0.2-3.8-1.3-4.8-3.4c-1.3-2.7-1.9-5.5-2-8.5
		c-0.2-4.2,0-8.4,0.4-12.6c0.6-6.6,0.1-13.2-0.2-19.8c-0.4-9.3-0.4-18.6-1.6-27.9c-0.6-4.6-0.8-9.3-2-13.8
		c-1.2-4.5-2.5-9.3-5.7-12.6c-4.8-4.9-10.9-7.7-17.8-8.7c-6.4-0.9-12.8-0.7-19.2-0.7c-2.7,0-5.4-0.3-8-1.1
		c-1.3-4.3-1.6-8.7-1.5-13.1c0.1-3.2,1.2-4.5,4.2-5.1c0.8-0.2,1.7-0.2,2.6-0.3c4.3-0.3,7.8-2,10.4-5.7c1.8-2.6,3.3-5.3,4.3-8.3
		c0.4-1.2,0.5-2.6,1.5-3.5c0.3,0.5-0.5,1.2,0.4,1.8c4.1-5.1,8.2-10,10.6-16.2c2.2-5.8,3.1-11.9,4.7-17.9c2.2-8.3,1.6-16.5,0.8-24.8
		c-0.2-2-0.6-4.1-1.2-6C176.7,68.4,171,59.4,162.1,52.6z"/>
	<path id="XMLID_223_" class="st1" d="M143.6,177.9c2.6,0.8,5.3,1.1,8,1.1c6.4,0,12.8-0.2,19.2,0.7c6.9,1,13,3.8,17.8,8.7
		c3.3,3.3,4.5,8.1,5.7,12.6c1.2,4.5,1.5,9.2,2,13.8c1.2,9.3,1.2,18.6,1.6,27.9c0.3,6.6,0.8,13.2,0.2,19.8c-0.4,4.2-0.6,8.4-0.4,12.6
		c0.1,3,0.8,5.8,2,8.5c1,2.1,2.6,3.2,4.8,3.4c2.3,0.2,4.6,0.4,6.7-0.7c0.7,3.9,2.6,7.5,3.9,11.2c1.4,4,2.5,8.2,4.5,12
		c-2.8,3.9-5.8,7.6-9.5,10.6c-2.4,2-4.5,4.4-6.8,6.5c-2.4,2.3-5.2,3.8-8.5,4.4c-6.1,1.1-11-2.4-12.9-8.1c-1-3.1-1.9-6.2-2.5-9.5
		c-2.4,0.6-4,2.1-5.8,3.2c-1.4,0.9-1.3,2.4-1.4,3.8c-1,10.8,1,21,4.8,31.2c8.1,21.6,15.5,43.5,23.7,65c2.1,5.4,4.6,10.5,6.8,15.8
		c0.4,1.1,0.7,2.2,1.1,3.4c-5,1.6-10.2,2.8-15.5,3.1c-5.8,0.4-11.7,0.4-17.5-0.4c-6.2-0.9-12.3-2.3-18.4-3.7
		c-4.5-1-8.9-1.7-13.5-1.7c-3.7,0.1-7.3-1.1-10.9-1.5c-3.4-0.4-6.8-1-10.3-1.1c-6.9-0.3-13.8-1.5-20.7-1.2c-3.9,0.2-7.8,0-11.7-0.1
		c-1.4,0-2.8,0.1-4.1-0.8c-1.7-5.4-2-11-2-16.7c0.1-12.1,0-24.3,0.8-36.4c0.4-6.3,1.1-12.5,2.4-18.7c0.6-2.7-0.1-4.3-2.3-5.6
		c-0.7-0.4-1.2-1-1.8-1.3c-2.8-1.6-4.6-4.1-6-7c-3-6.2-5.3-12.5-6.2-19.4c-1.2-8.8-2.7-17.6-2.1-26.5c0.1-2.1,0.3-4.1,0.4-6.2
		c0.3-7.9,0.4-15.8,1-23.7c0.7-10.1,1.7-20.3,3.1-30.4c0.6-4.8,1-9.7,1.6-14.5c1-8.5,4.1-16.4,6.8-24.4c1.3-3.9,3.5-7.1,6.6-9.9
		c3.9-3.5,8.5-5.5,13.5-6.7c5-1.2,10.1-2.4,14.8-4.8c0.3,0.7,0.5,1.4,0.8,2.1c3.7,8.3,16.8,12.5,23.8,4.1
		C142.1,181,142.8,179.5,143.6,177.9z M78.5,226.6c0.5-1.1,0.3-1.8,0.1-2.7C78.3,224.7,77.8,225.4,78.5,226.6z"/>
	<path id="XMLID_222_" class="st0" d="M511.8,141c3.5,1.3,4.9,1,7-1.9c1.1-1.5,2.2-2.7,4.2-3.2c2.8-0.7,3.8-3.2,3.6-5.9
		c-0.1-1.6,0.3-2.4,1.9-3.1c3.2-1.4,3.9-3.1,3-6.9c-0.4-1.4-0.2-2.1,1.2-2.8c2.3-1.1,3.1-3.2,3.2-5.7c0-1.4,0.4-2.3,1.8-3
		c3.3-1.7,5.2-4.6,5.1-8.4c0-1.7,0.6-2.8,1.9-3.8c2.4-1.9,3.8-4.4,4-7.5c0.1-0.9,0.2-1.6,1-2.2c3.5-2.6,4-4.3,1.7-8.1
		c-0.8-1.4-0.7-2.2,0.1-3.4c3.4-5.6,2.7-9.7-2.4-13.9c-0.6-0.5-0.8-0.9-0.7-1.6c0.8-5.1-3.3-9.8-8.2-9.5c-1.5,0.1-1.6-0.8-1.9-2
		c-0.6-3.2-2.3-5.5-5.8-6.3c-1.4-0.3-2.5,0.2-3.7,0.7c-0.5,0.2-1.1,0.4-1.4-0.2c-0.4-0.9,0.3-1.2,0.9-1.3c1.2-0.3,2.4-0.6,3-1.7
		c0.7-1.2,1.7-1.2,2.8-1c6.8,1,13.7,0.6,20.5,0.4c6.6-0.2,13.2-0.8,19.8-0.7c6.2,0.1,11.4,2.5,15.9,6.5c2.7,2.3,5.1,5,7.7,7.5
		c2.8,2.7,4.7,5.9,6.2,9.5c2.8,6.8,5,13.7,4.2,21.2c-0.5,5.2-1.3,10.3-2.2,15.5c-1.2,7.3-2.3,14.6-2.3,22c0,6.8-0.1,13.7,0,20.5
		c0,6.2,1,12.3,1.5,18.5c0.5,6.2,1.2,12.3,1.8,18.4c0.4,4,0.8,8,1.4,11.9c0.9,6.7,0.9,13.4,1.1,20.1c0.3,7.3,1.4,14.5,1.8,21.7
		c0.7,13.2,4.3,26.1,5.8,39.2c1.1,9.8,3,19.5,3.2,29.4c0.2,8.6,0.6,17.1,0.2,25.7c-0.4,9.1-0.9,18.2-1.4,27.3
		c-0.4,6.8-1.7,13.5-4,20c-1.2,3.4-1.8,6.9-1.7,10.5c0.1,4.4,0,8.9,0,13.4c0,6.4-2.9,10.9-8.5,14c-4.3,2.4-8.8,3.3-13.6,4.2
		c-8.7,1.6-17.5,1.2-26.3,1.3c-5.9,0.1-11.7,0.6-17.4,1.7c-0.8,0.2-1.7,0.1-2.6,0.2c0-0.2,0-0.4,0-0.7c0.4-2.2-0.4-4.3-1-6.3
		c-4.2-13.9-6.8-28-8.2-42.4c0.6-0.9,1.3-1.8,1.9-2.6c6.2-7.7,11.5-16.1,15.4-25.2c10.6-24.3,13-49.1,3.8-74.4
		c1.2-1.1,2.8-1.7,4.2-2.5c0.8-0.5,1.4-1,1.3-2c-0.5-4.2-0.9-8.4-1.5-12.5c-0.8-6.2-2.3-12.3-3.7-18.4c-2-8.8-4.2-17.5-9.3-25.1
		c-2.5-3.7-5.1-7.2-8-10.6c-2.4-2.9-5.5-5.3-9-6.9c-5.9-2.6-11.9-5.1-18.2-6.9c-1.5-0.4-2.9-0.7-4.5-0.4c-2.3-1.4-2.4-4-3.3-6.2
		c-1.9-5-2.3-10.1-1.4-15.3C505.5,152.9,508.3,146.8,511.8,141z"/>
	<path id="XMLID_219_" class="st2" d="M116.3,176.2c-4.7,2.3-9.7,3.5-14.8,4.8c-5,1.2-9.6,3.2-13.5,6.7c-3.1,2.7-5.3,6-6.6,9.9
		c-2.6,8-5.8,15.9-6.8,24.4c-0.6,4.8-1,9.7-1.6,14.5c-1.4,10.1-2.3,20.2-3.1,30.4c-0.6,7.9-0.7,15.8-1,23.7
		c-0.1,2.1-0.3,4.1-0.4,6.2c-0.6,8.9,0.9,17.7,2.1,26.5c1,6.9,3.2,13.2,6.2,19.4c1.4,2.9,3.2,5.4,6,7c0.7,0.4,1.2,1,1.8,1.3
		c2.2,1.3,2.9,2.9,2.3,5.6c-1.3,6.1-2,12.4-2.4,18.7c-0.8,12.1-0.6,24.3-0.8,36.4c-0.1,5.7,0.3,11.2,2,16.7
		c-10.2,0.6-20-1.1-29.7-4.4c-8.3-2.8-13.6-8.7-16.6-16.7c-2.5-6.8-3.6-14-5.1-21.1c-1.7-8-2.1-16.1-2.2-24.2
		c0-9.5-0.3-19.1-0.5-28.6c0-1.1-0.3-2.1-0.5-3.2c1-1.2,0.5-2.4,0.1-3.7c-1.6-5.3-3.6-10.4-5.1-15.8c-2.5-8.9-4.2-17.9-4.7-27
		c-0.4-7.2-0.5-14.4-0.3-21.6c0.2-5.2,0.9-10.5,0.1-15.8c-0.3-2,0.6-3.8,0.7-5.8c0.1-3,0.4-6.1,0.3-9c-0.1-3,0.1-6,0.3-9
		c0.4-5.2-0.4-10.4,0.7-15.6c0.2-0.9,0.4-2.3-1.2-2.6c0.1-0.6,0.1-1.3,0.2-1.9c2-1.5,2.3-3.1,0.9-5.9c1.2-8.3,0.4-16.7,0.8-25
		c0.3-6.9,1-13.8,1.6-20.7c0.1-1.4,0.2-2.8,0.3-4.2c0.1-7.5-0.3-15,0.3-22.4c0.8-10.5,0.5-21,0.5-31.5c0-6.4,2.4-11.6,6.5-16.2
		c5.1-5.8,11.8-9.1,19-11.6c5.6-1.9,11.4-3.4,17.1-5c2.3-0.7,4.7-0.9,7.1-1c5.2-0.3,10.3-1.3,15.5-1.7c-0.2,0.4-0.4,0.7-0.7,1.1
		c-12.2,14.3-17.9,31-18.7,49.5c-0.5,13.2,3.3,25.4,9.4,37c3.1,5.8,7.1,10.6,13,13.6c1.4,0.7,2.6,1.5,3.9,2.3
		c5.1,2.9,10.5,5.1,15.9,7.4C115.4,170.7,116.2,173.4,116.3,176.2z M35.2,337.9c-0.9,0-1.4,0.5-1.3,1.4c0.1,1.4,1.1,1.5,2.1,1.7
		c0.3-0.9-0.4-1.1-0.5-1.5C35.4,339,35.4,338.5,35.2,337.9c0.3-0.1,0.4-0.2,0.2-0.3C35.4,337.7,35.3,337.9,35.2,337.9z"/>
	<path id="XMLID_218_" class="st3" d="M114.8,168c-5.4-2.3-10.8-4.5-15.9-7.4c-1.3-0.7-2.6-1.6-3.9-2.3c-5.9-3-9.9-7.8-13-13.6
		c-6.1-11.6-10-23.8-9.4-37c0.8-18.5,6.5-35.3,18.7-49.5c0.3-0.3,0.5-0.7,0.7-1.1c2.2-2,4.2-4,6.5-5.9c5.3-4.3,11.2-7.3,18-8.6
		c8.6-1.6,16.3,0.4,23.1,5.9c1.3,1,2.2,1.5,4,0.9c4.6-1.6,9.2-0.6,13.6,1.1c1.7,0.6,3.2,1.8,5,2.1c8.9,6.8,14.6,15.8,18.2,26.3
		c0.7,1.9,1,4,1.2,6c0.8,8.3,1.4,16.6-0.8,24.8c-1.6,5.9-2.5,12-4.7,17.9c-2.3,6.3-6.5,11.1-10.6,16.2c-0.8-0.6,0-1.3-0.4-1.8
		c2.5-7.9,4.1-16,4.8-24.2c0.8-8.8,0.3-17.6-2.3-26.1c-1.5-4.9-4.5-8.6-9.3-10.7c-1.9-0.8-3.8-1.7-5.8-2.2c-3.6-0.9-7-2-9.5-4.9
		c-4,5.7-8.9,9.8-15.6,11.4c-1,0.2-2.1,0.7-3,1.1c-5,2.2-9.2,5.3-11.9,10.2c-2.8,5.3-4.5,11-5,17c-0.6,8.6,0.6,16.9,3.2,25
		c3.6,11.5,8,22.5,16.3,31.5c0.2,0.2,0.4,0.5,0,0.8C122.8,170.6,118.9,168.8,114.8,168z"/>
	<path id="XMLID_217_" class="st4" d="M557.5,266.5c9.2,25.4,6.7,50.1-3.8,74.4c-4,9.1-9.2,17.4-15.4,25.2c-0.7,0.8-1.3,1.7-1.9,2.6
		c-0.5,0.5-1.1,1-1.6,1.6c-13.5,15-29.7,25.8-49.2,31.4c-6.9,2-12.9,5.6-18.3,10.2c-4.2,3.2-8,6.8-11.5,10.8
		c-3.3,2.6-5.6,6.3-8.9,8.9c-1,0.8-2,1.7-3,2.4c-1.2,0.8-2.4,1-3.6,0c-1.1-0.9-0.9-2.1-0.5-3.3c0.6-1.7,1.7-3.2,2.7-4.8
		c1-0.6,1.5-1.7,2.1-2.9c-1.3,0.3-2.2,0.7-2.7,1.6c-2.4,1.9-4.8,3.7-7.1,5.6c-1,0.8-2.1,1.2-3.3,1.3c-0.9,0.1-1.8-0.1-2.3-0.9
		c-0.6-0.9-0.5-1.9,0.2-2.7c1.1-1.3,2.3-2.6,3.4-3.9c2.9-2.3,5.5-4.8,8.1-7.4c0.7-0.7,1.6-1.5,0.8-2.5c-0.9-1.2-1.7,0-2.5,0.5
		c-4.3,2.7-8.2,5.9-12.1,9.1c-1.2,0.5-2.3,1.1-3.5,1.5c-1.3,0.4-2.6,0.5-3-1.2c0.3-2.9,2-5,4.3-6.6c4.9-3.7,9.9-7.4,14.8-11.2
		c0.9-0.6,1.9-1.2,2.2-2.3c0.1-0.4,0.1-0.8-0.2-1.2c-0.3-0.4-0.8-0.4-1.2-0.2c-0.7,0.3-1.4,0.7-2,1.1c-4.3,2.6-8.5,5.2-12.8,7.8
		c-0.6,0.4-1.3,0.8-2,1.1c-1.8,0.8-3-0.1-2.9-2c0.1-1.8,1.1-3.3,2.3-4.5c3.2-3.4,6.9-6.3,10.8-8.8c2.8-1.8,5.6-3.7,8.7-5
		c0.5-0.2,1.1-0.4,0.9-1.1c-0.2-0.7-0.8-0.6-1.3-0.6c-2.4,0.4-4.8,0.4-7.1,0.4c-0.7,0-1.3,0-2,0c-1.6-0.1-3.1-0.3-3.5-2.2
		c-0.4-1.5,0.3-3.1,1.9-4.2c1.1-0.7,2.3-1.2,3.6-1.5c8.5-2,17.1-2.3,25.8-0.9c1.8,0.3,3.6,0.7,5.4,1.3c1.1,0.4,2.3,0.7,3.5,0.3
		c1.3,0.3,2.6-0.1,3.9-0.4c11.8-2.4,22-8.1,30.4-16.7c22.5-23.2,30.6-51,25.5-82.7c-0.3-2,0-3,1.6-3.9c3.4-1.9,6.8-3.8,10.2-5.7
		C546.7,271.5,551.9,268.6,557.5,266.5z"/>
	<path id="XMLID_216_" class="st5" d="M511.8,141c-3.5,5.8-6.3,11.9-7.5,18.6c-1,5.3-0.5,10.4,1.4,15.3c0.8,2.2,0.9,4.8,3.3,6.2
		c-0.6,3.3-1.9,6.1-3.9,8.8c-5.8,8.1-17.9,13.4-28.8,6c-2.6-1.8-5.3-3.8-5.7-7.4c2.8-2.4,3.9-5.6,4.5-9.1
		c1.2-7.1-5.4-13.3-10.6-13.1c-1.3,0.1-2.6-0.2-3.9,0c-7.1,0.8-12-4.1-14.3-9.6c-1.9-4.7-2.8-9.8-3.9-14.8c-2-9.4-3.8-18.9-5.4-28.4
		c-0.1-0.9-0.4-1.7-0.6-2.5c0.5-0.9,1-1.7,1.4-2.6c0.4-0.7,0.8-1.3,1.7-1.3c2.8,0,4-1.9,4.9-4.1c0.6-1.4,1-2.3,2.8-2.5
		c2.4-0.3,3.4-2.5,4.3-4.5c0.6-1.2,0.9-1.9,2.5-1.4c2.4,0.8,4.1-0.7,5.5-2.6c0.8-1.2,1.4-1.4,2.9-0.7c2.7,1.2,5.3,0.4,7.6-1.4
		c1.4-1.2,2.6-1.9,4.4-0.4c1.5,1.2,3.3,0.8,4.9-0.2c1.3-0.9,2.3-1.1,3.7,0.1c1.8,1.6,4.2,1.8,6.5,1.2c1.2-0.3,2-0.4,2.7,0.9
		c1,1.8,3.4,1.4,4.7,2.5c1.2,1-0.4,3.7,1,4.8c2.5,1.9,3.3,4.1,2.7,7c-0.1,0.7,0.4,1.6,1.1,1.9c1.9,0.8,1.6,2.1,1.4,3.7
		c-0.3,2.2-0.3,4.4,2,5.7c0.9,0.5,0.6,1.3,0.5,2c-0.5,2.7-0.1,5,2.6,6.4c0.8,0.4,0.5,1,0.3,1.6c-0.5,1.4-0.9,2.9-1,4.4
		c-0.2,2.7,0.3,5,2.6,6.6C511.1,138.8,511.4,139.9,511.8,141z"/>
	<path id="XMLID_215_" class="st6" d="M467.2,411.8c5.4-4.6,11.4-8.2,18.3-10.2c19.5-5.6,35.7-16.4,49.2-31.4
		c0.5-0.6,1.1-1.1,1.6-1.6c1.4,14.4,4,28.5,8.2,42.4c0.6,2.1,1.3,4.1,1,6.3c-1.4,0.9-3.2,0.2-4.6,1.3c0,0,0.1,0,0.1,0
		c-0.4,0.1-0.8,0.2-1.2,0.4c-12,3.5-24.2,5.6-36.5,7.5c-6.6,1-13.3,1.8-19.9,2.8c-3.4,0.5-6.7,0.6-10,0c-2.3-0.4-4.5-0.1-6.8-0.2
		c-2.2-0.1-2.3-0.2-2.1-2.5c0.1-1.3,0.1-2.6,0.1-3.9C465.5,419.1,466.3,415.5,467.2,411.8z"/>
	<path id="XMLID_214_" class="st7" d="M22.3,204.4c1.6,0.3,1.4,1.6,1.2,2.6c-1.1,5.2-0.3,10.4-0.7,15.6c-0.2,3-0.3,5.9-0.3,9
		c0.1,2.9-0.2,6-0.3,9c0,2-1,3.8-0.7,5.8c0.8,5.3,0,10.5-0.1,15.8c-0.2,7.2-0.1,14.5,0.3,21.6c0.5,9.1,2.2,18.2,4.7,27
		c1.5,5.3,3.5,10.5,5.1,15.8c0.4,1.3,0.9,2.5-0.1,3.7c-2.5-5-3.9-10.3-5.6-15.5c-3-9.2-5-18.6-6-28.2c-1-9.6-0.9-19.3-0.8-28.9
		c0.2-9.3,0.4-18.6,0.9-27.9c0.4-7.9,1-15.8,1.9-23.6C21.8,205.3,21.9,204.8,22.3,204.4z"/>
	<path id="XMLID_213_" class="st7" d="M208.6,435.8c-0.4-1.1-0.7-2.2-1.1-3.4c4.7-0.7,9.4-1.2,14-2c7.8-1.4,15.6-3,23.5-4.4
		c10.7-2,21.4-3.9,32.1-5.8c1.6-0.3,3.2-0.2,4.8-0.7c1.3-0.4,2.3,0.2,3.1,1.7c-5.3,0.6-10.4,2.4-15.8,2.2c-0.6,0-1.5-0.2-1.5,0.7
		c0,0.4,0.6,0.8,0.9,1.2c-2.8,1.2-5.9,1.3-8.8,1.8c-14.4,2.7-28.9,5.2-43.4,7.7C213.8,435.2,211.2,435.4,208.6,435.8z"/>
	<path id="XMLID_212_" class="st2" d="M467.2,411.8c-0.9,3.6-1.7,7.3-2.6,10.9c-3,0-5.9-0.1-8.9-0.1
		C459.2,418.7,463,415,467.2,411.8z"/>
	<path id="XMLID_211_" class="st2" d="M427.1,423.7c3.9-3.2,7.9-6.4,12.1-9.1c0.7-0.5,1.6-1.6,2.5-0.5c0.8,1-0.1,1.8-0.8,2.5
		c-2.6,2.6-5.2,5.1-8.1,7.4C430.9,423.9,429,423.8,427.1,423.7z"/>
	<path id="XMLID_210_" class="st7" d="M23.4,196.5c1.4,2.8,1.1,4.5-0.9,5.9C22.3,200.4,22.8,198.5,23.4,196.5z"/>
	<path id="XMLID_209_" class="st8" d="M441.9,424.6c0.5-0.9,1.4-1.3,2.7-1.6c-0.6,1.2-1.1,2.2-2.1,2.9
		C442.4,425.3,442.6,424.8,441.9,424.6z"/>
	<path id="XMLID_208_" class="st7" d="M540.9,418.8c1.3-1.1,3.2-0.4,4.6-1.3c0,0.2,0,0.4,0,0.7C544,419.1,542.4,418.7,540.9,418.8z"
		/>
	<path id="XMLID_207_" class="st7" d="M539.8,419.1c0.4-0.1,0.8-0.2,1.2-0.4C540.6,419.1,540.2,419.3,539.8,419.1z"/>
	<path id="XMLID_206_" class="st9" d="M470.6,188.5c0.4,3.6,3.1,5.6,5.7,7.4c10.9,7.3,23,2.1,28.8-6c1.9-2.7,3.3-5.5,3.9-8.8
		c1.5-0.4,3-0.1,4.5,0.4c6.2,1.9,12.2,4.4,18.2,6.9c3.5,1.5,6.5,3.9,9,6.9c2.8,3.4,5.5,7,8,10.6c5.1,7.6,7.3,16.3,9.3,25.1
		c1.4,6.1,2.9,12.2,3.7,18.4c0.6,4.2,1,8.4,1.5,12.5c0.1,1.1-0.4,1.6-1.3,2c-1.4,0.8-3,1.3-4.2,2.5c-5.6,2.1-10.8,5-16.1,7.8
		c-3.5,1.8-6.8,3.8-10.2,5.7c-1.7,0.9-2,2-1.6,3.9c5.1,31.7-3,59.5-25.5,82.7c-8.3,8.6-18.5,14.3-30.4,16.7
		c-1.3,0.3-2.5,0.6-3.9,0.4c0.5-8.8-0.1-17.5-1-26.2c-0.3-2.9-0.2-5.8-0.2-8.8c0.2-6.4-1.1-12.7-1.5-19.1
		c-0.4-6.2-1.9-12.1-3.2-18.2c-1-4.7-2.8-9.1-5.1-13.2c-0.4-0.8-0.9-1.5-1.2-2.3c-2.7-6.5-6.9-12.2-10.2-18.4
		c-0.8-1.4-1.6-2.1-3.4-1.6c-1.5,0.4-3.2,0.6-4.8,0.9c-1.8-0.3-3.4,0.1-5.1,0.5c-1.3,0.3-2-0.2-2-1.7c0-2.5,0-5-0.1-7.5
		c-0.4-8.1-1.1-16.2-1.1-24.3c0-6.8,0.6-13.6,2.4-20.3c1.5-5.5,4-10.3,8-14.6c7.5-7.9,16-14.3,25-20.2
		C467.7,187.7,469.1,186.8,470.6,188.5z"/>
	<path id="XMLID_205_" class="st10" d="M114.8,168c4.1,0.8,8,2.6,12.2,3c0.4-0.3,0.2-0.6,0-0.8c-8.3-9.1-12.7-20.1-16.3-31.5
		c-2.6-8.2-3.8-16.4-3.2-25c0.4-6.1,2.2-11.7,5-17c2.6-4.9,6.9-8,11.9-10.2c1-0.4,2-0.9,3-1.1c6.7-1.5,11.6-5.6,15.6-11.4
		c2.6,2.9,6,4,9.5,4.9c2,0.5,3.9,1.4,5.8,2.2c4.8,2.1,7.7,5.8,9.3,10.7c2.7,8.5,3.1,17.3,2.3,26.1c-0.7,8.2-2.3,16.3-4.8,24.2
		c-1.1,0.9-1.1,2.3-1.5,3.5c-1,3-2.6,5.7-4.3,8.3c-2.5,3.7-6,5.4-10.4,5.7c-0.9,0.1-1.7,0.1-2.6,0.3c-3,0.6-4.2,1.9-4.2,5.1
		c-0.1,4.4,0.1,8.8,1.5,13.1c-0.7,1.6-1.4,3.1-2.6,4.5c-7.1,8.4-20.1,4.3-23.8-4.1c-0.3-0.7-0.5-1.4-0.8-2.1
		C116.2,173.4,115.4,170.7,114.8,168z"/>
	<path id="XMLID_204_" class="st11" d="M439.3,276.8c1.6-0.3,3.2-0.4,4.8-0.9c1.7-0.5,2.6,0.2,3.4,1.6c3.3,6.2,7.5,11.9,10.2,18.4
		c0.3,0.8,0.8,1.5,1.2,2.3c-3.2,7.6-6.2,15.3-10,22.6c-1.8,3.3-3.6,6.7-5.6,9.9c-3.8,5.9-9.5,8.6-15.5,7.2c-3.4-0.8-6.4-2.6-9.2-4.7
		c-5.8-4.5-10.4-10.2-14.4-16.2c-8.5-12.8-14.6-26.8-19.6-41.3c-1.2-3.6-2.5-7.1-3.6-10.8c-0.9-2.8-2.4-5.1-4.6-6.9
		c-1.7-1.4-3-3.1-4.4-4.7c-0.2-0.2-0.4-0.5-0.6-0.8c-2.2-2.6-1.5-6-2.3-8.9c-0.8-3-1.6-5.9,0-8.8c0.5-0.9,0-1.4-0.4-2
		c-1.8-3.2-1.6-5.3,1.1-7.8c1.1-1,1.3-1.8,0.7-3.1c-0.7-1.4-1-2.8-0.7-4.4c0.4-2.1,1.2-3.7,3.6-3.8c0.9,0,1.2-0.3,1.5-1.2
		c1.5-3.7,3.3-4.5,7.1-3.2c2.1,0.7,4.3,1.6,6.4,2.3c0.6,0.6,1.3,1,2.2,1.2c0.7,0.9,1.6,1.4,2.6,1.9c3.2,1.7,4.5,4.5,5,7.9
		c0.5,3.5,0.3,6.9,0,10.4c-0.3,2.9-0.8,5.8-1.3,8.7c-1,5.1-0.9,10.1,0.8,15.1c3.8,11.6,8.8,22.6,15.7,32.8c2.8,4,5.9,7.7,9.6,11
		c4.4,3.9,7.4,1.5,9.3-2.2c1.3-2.4,2.1-5,2.9-7.6C436.6,286.2,437.9,281.5,439.3,276.8z"/>
	<path id="XMLID_187_" class="st12" d="M264.9,163.5c3-2.6,6.7-2.8,10.3-3.3c7.4-1,13,2.1,17.7,7.6c0.9,1,1.4,2.2,1.7,3.4
		c0.3,1,0.9,1.4,1.9,0.8c1.2-0.6,2.4-1.1,3.6-1.5c4.5-1.6,8.6,0.1,12.5,2c7.6,3.7,13.2,9.1,14.4,18c0.2,1.7,1,2,2.5,2.2
		c3.9,0.4,7.6,4.3,7.9,8.3c0.1,1.7,0.2,3.5-0.2,5.2c-0.6,0-1.3,0.1-1.9,0.1c-34.2,0-68.5,0.1-102.7,0.1c-0.6,0-1.3-0.1-1.9-0.1
		c-5.1-9.1,0.1-19.4,6.5-23.2c2.7-1.6,5.5-2.3,8.6-2.2c3.7,0.1,3.7,0.1,4.9-3.3c0.7-1.9,1.5-3.8,3.2-5.2c0.3,0.6,0.4,1.6,1.4,1.1
		c0.7-0.3,0.4-1.1,0.1-1.6c-0.2-0.3-0.4-0.5-0.6-0.7C257.5,167.6,261.2,165.5,264.9,163.5c0.1,0.8-0.1,1.7,0.7,2.3
		c0.6,0.5,1.3,0.9,2,0.1c0.6-0.7,0.4-1.4-0.2-2C266.7,163.2,265.8,163.5,264.9,163.5z M302,176.7c-0.6,0.1-1,0.4-1,1.1
		c0,1.2,1.1,2.6,2,2.5c0.8-0.1,1.1-0.5,1.2-1.3C304.3,177.8,303,176.6,302,176.7z M292.7,180.9c-1,0.1-1.4,0.7-1.2,1.5
		c0.2,1,0.5,2.2,1.9,2.2c0.9,0,1.3-0.8,1.2-1.6C294.5,182,294,181,292.7,180.9z M321.2,181.6c-0.5,0-0.9,0.3-1.1,0.9
		c-0.2,1,0.6,2.7,1.6,2.9c0.4,0.1,0.9,0,1.1-0.4C323.5,183.9,322.4,181.7,321.2,181.6z M269.7,174.4c0.9-0.1,1.2-0.7,1.1-1.3
		c-0.1-1.1-0.7-1.8-1.9-1.7c-0.7,0-1.1,0.6-1,1.3C268,173.6,268.7,174.2,269.7,174.4z M258.7,189c0-1-1.5-2.3-2.3-2.2
		c-0.5,0.1-0.8,0.5-0.7,0.9c0.2,1.1,0.9,1.9,2,2.2C258.2,190,258.6,189.6,258.7,189z M314.1,188.7c-0.1-0.9-0.3-1.7-1.4-1.8
		c-0.8-0.1-1.2,0.4-1.2,1.1c0,1,0.4,1.7,1.4,1.8C313.7,190,314.1,189.4,314.1,188.7z M274.3,190.6c-0.2-0.9-0.5-1.8-1.7-1.8
		c-0.5,0-0.8,0.5-0.7,0.9c0.2,1,0.6,1.9,1.8,1.9C274.2,191.7,274.3,191.1,274.3,190.6z M284.9,179.1c-0.3-0.6-0.3-1.7-1.5-2
		c-0.6-0.1-1.1,0.4-1,0.9c0.2,0.9,0.5,1.9,1.6,2.1C284.6,180.3,284.8,179.9,284.9,179.1z M243.1,185.3c-0.1-0.5-0.4-1.2-1.4-1.2
		c-0.6,0-1.1,0.4-1.1,1c0,1,0.5,1.7,1.6,1.6C242.8,186.7,243.1,186.2,243.1,185.3z M309.5,175.5c0.6,0,0.8-0.4,0.9-0.8
		c0.2-1-0.3-1.7-1.2-1.9c-0.5-0.1-0.8,0.2-0.8,0.7C308.4,174.4,308.7,175.2,309.5,175.5z M287.7,167.4c-0.4,0-0.6,0.3-0.6,0.6
		c0,0.9,0.2,1.7,0.9,2.3c0.4,0.3,0.9,0.1,1.1-0.3C289.4,169.2,288.5,167.5,287.7,167.4z M299,190.2c0.7-0.2,0.9-0.7,0.7-1.3
		c-0.2-0.7-0.5-1.5-1.4-1.5c-0.5,0-0.8,0.4-0.7,0.9C297.8,189.1,297.8,190.1,299,190.2z M258.7,177c0.1,0.5,0.4,1.1,1.1,1.2
		c0.7,0.1,1.3-0.3,1.2-1.1c0-0.7-0.6-1.1-1.3-1.2C259.1,175.8,258.8,176.3,258.7,177z M271.9,181.8c-0.1-0.6-0.4-1.2-1.2-1.4
		c-0.6-0.2-1.1,0.2-1.2,0.8c-0.2,1,0.3,1.7,1.3,1.8C271.3,183.1,271.7,182.7,271.9,181.8z M276.4,163.2c0-0.7-0.3-1.3-1.1-1.4
		c-0.5-0.1-0.8,0.3-0.9,0.8c-0.1,0.7,0.2,1.3,1,1.3C275.9,164,276.3,163.7,276.4,163.2z"/>
	<path id="XMLID_186_" class="st4" d="M230.9,206.3c0.6,0,1.3,0.1,1.9,0.1c34.2,0,68.5-0.1,102.7-0.1c0.6,0,1.3-0.1,1.9-0.1
		c1.2,0.1,2.4,0.1,3.6,0.1c3.2,0,3.2,0.1,3.1,3.3c-0.2,3-0.7,6-1.7,8.9c-2.4,6.8-6.6,12.1-12,16.7c-8.7,7.2-18.9,11.3-29.9,13.5
		c0.6-1.1,2.2-1.2,2.7-2.2c1.3-2.8,3-5.3,4.6-7.9c1.1-1.8-0.1-3-2.2-3c-1.1,0-2.2,0.1-3.2,0.4c-5.8,1.7-11.9,2.3-17.7,4.3
		c-0.3,0.1-0.6,0.2-0.9,0.2c-0.7,0.1-1.3-0.1-1.5-0.8c-0.2-0.6,0.5-0.9,0.9-1.1c2.8-1.2,5.5-2.5,8.4-3.5c4.4-1.6,8.8-3.1,13.1-4.7
		c0.9-0.3,1.8-0.8,2.6-1.3c0.7-0.4,1-1.2,0.9-2c-0.1-1-0.9-1-1.6-1.3c-0.9-0.4-1.8-0.4-2.8-0.2c-2.7,0.6-5.5,1.1-8.3,1.7
		c-10.7,2-21.1,4.7-31.2,8.6c-1.1,0.4-2.6,1.8-3.4,0.5c-0.8-1.2,0.7-2.5,1.7-3.5c0.4-0.4,0.8-0.8,1.2-1.1c2-1.6,3.1-3.9,4.2-6.1
		c0.7-1.3,0.7-2.7,0.2-4.1c-0.5-1.5-1.4-1.9-2.7-1.2c-1.4,0.7-2.4,1.8-3.4,2.9c-1.8,2-3.7,4-6,5.4c-5,2.9-9,6.7-11.4,12.1
		c-7.2-4.1-13.3-9.3-17.6-16.4c-2.9-4.8-4.5-10-4.6-15.7c0-1.7,0.5-2.3,2.2-2.2C226.5,206.4,228.7,206.3,230.9,206.3z"/>
	<path id="XMLID_185_" class="st13" d="M244.3,240.7c2.4-5.3,6.5-9.1,11.4-12.1c2.3-1.4,4.2-3.4,6-5.4c1-1.1,2.1-2.3,3.4-2.9
		c1.4-0.7,2.2-0.2,2.7,1.2c0.5,1.4,0.5,2.8-0.2,4.1c-1.1,2.2-2.2,4.5-4.2,6.1c-0.4,0.3-0.8,0.7-1.2,1.1c-0.9,1-2.4,2.3-1.7,3.5
		c0.8,1.3,2.3-0.1,3.4-0.5c10.1-3.9,20.6-6.6,31.2-8.6c2.8-0.5,5.5-1,8.3-1.7c1-0.2,1.9-0.1,2.8,0.2c0.7,0.3,1.5,0.3,1.6,1.3
		c0.1,0.8-0.2,1.5-0.9,2c-0.8,0.5-1.7,1-2.6,1.3c-4.4,1.6-8.8,3.1-13.1,4.7c-2.8,1.1-5.6,2.3-8.4,3.5c-0.5,0.2-1.1,0.5-0.9,1.1
		c0.2,0.7,0.8,0.9,1.5,0.8c0.3-0.1,0.6-0.1,0.9-0.2c5.8-2,11.8-2.6,17.7-4.3c1-0.3,2.1-0.4,3.2-0.4c2.1,0,3.3,1.2,2.2,3
		c-1.5,2.6-3.3,5.1-4.6,7.9c-0.5,1-2.1,1.1-2.7,2.2c0.1,3.5,0.1,3.5-3,4.9c-6.9,3.2-14.3,5-21.7,6.9c-4,1-7.5,2.7-10.6,5.4
		c-5.7,4.8-11.4,9.7-16.7,15c-5.6,5.6-11.6,10.8-17.3,16.3c-2.9,2.8-5.5,5.9-8.2,8.8c-1.1,1.2-2,2.6-3.3,3.5c-2.1-3.8-3.1-8-4.5-12
		c-1.3-3.7-3.2-7.2-3.9-11.2c7.5-7,15.1-13.9,22.6-21c3.5-3.3,7.1-6.7,10.2-10.4c0.8-1,1.5-1.9,1.1-3.2
		C243.9,248,244.5,244.3,244.3,240.7z"/>
	<path id="XMLID_182_" class="st13" d="M390.6,212.9c-0.8-0.2-1.6-0.6-2.2-1.2c1.3-5.1,2.6-10.2,4-15.3c0.4-1.3,0.6-2.3-0.6-3.5
		c-1.4-1.3-1.5-3.3-1.5-5.1c-0.1-4.5,1-8.7,3.1-12.7c0.4-0.7,0.9-1.3,1.8-1.1c1,0.2,1,1,0.9,1.8c-1.7,2.4-2.5,5.2-2.6,8.2
		c1.5-2.6,2.7-5.3,3.3-8.2c1.3-2.3,1.5-2.3,3-0.7c-0.1,0.4-0.2,0.9-0.3,1.3c-0.2,0.2-0.4,0.4-0.5,0.7c-0.1,0.3-0.2,0.7,0.2,0.8
		c0.4,0.1,0.3-0.3,0.3-0.6c0-0.3,0-0.6,0-0.9c0.6-0.3,0.6-0.8,0.6-1.3c0.9-0.1,1.8-0.3,2.4,0.7c-0.7,3.1-2,6.1-2.4,9.8
		c1.4-1.4,1.6-2.9,2.1-4.1c0.7-1.8,0.5-3.8,1.4-5.6c1.2-0.1,1.8,0.3,1.9,1.6c0,1.4-0.3,2.8-0.7,4.1c-1.5,4.9-3.4,9.6-8.1,12.4
		c-1.1,0.7-1.1,1.8-1.4,2.8C393.6,202.1,392.1,207.5,390.6,212.9z M398.8,179c-1.9,2.8-2.5,4.8-2.1,7.1
		C397.9,183.8,398.6,181.6,398.8,179z"/>
	<path id="XMLID_181_" class="st7" d="M396.8,175.7c-0.7,2.9-1.8,5.6-3.3,8.2c0.1-3,0.9-5.7,2.6-8.2
		C396.3,175.7,396.6,175.7,396.8,175.7z"/>
	<path id="XMLID_180_" class="st7" d="M403.5,175.8c-0.9,1.8-0.7,3.8-1.4,5.6c-0.5,1.3-0.6,2.7-2.1,4.1c0.4-3.8,1.6-6.7,2.4-9.8
		C402.8,175.7,403.1,175.7,403.5,175.8z"/>
	<path id="XMLID_179_" class="st8" d="M264.9,163.5c0.8,0,1.7-0.3,2.4,0.4c0.6,0.6,0.8,1.3,0.2,2c-0.6,0.8-1.4,0.4-2-0.1
		C264.9,165.2,265,164.3,264.9,163.5C265,163.5,264.9,163.5,264.9,163.5z"/>
	<path id="XMLID_178_" class="st8" d="M254.9,171.2c0.2,0.2,0.5,0.4,0.6,0.7c0.4,0.6,0.6,1.3-0.1,1.6c-1,0.5-1.1-0.5-1.4-1.1
		C254.2,171.8,254.3,171.3,254.9,171.2z"/>
	<path id="XMLID_177_" class="st7" d="M399.5,176.4c0.1-0.4,0.2-0.9,0.3-1.3c0,0,0.3,0,0.3,0C400.1,175.6,400.1,176.1,399.5,176.4
		L399.5,176.4z"/>
	<path id="XMLID_176_" class="st7" d="M78.5,226.6c-0.7-1.2-0.2-1.9,0.1-2.7C78.8,224.8,79,225.6,78.5,226.6z"/>
	<path id="XMLID_175_" class="st7" d="M35.3,338c0.1,0.5,0.1,1,0.3,1.5c0.2,0.4,0.9,0.6,0.5,1.5c-1-0.1-2-0.3-2.1-1.7
		C33.9,338.4,34.4,338,35.3,338L35.3,338z"/>
	<path id="XMLID_174_" class="st7" d="M35.2,337.9c0.1-0.1,0.1-0.3,0.2-0.3C35.6,337.7,35.6,337.8,35.2,337.9
		C35.3,338,35.2,337.9,35.2,337.9z"/>
	<path id="XMLID_173_" class="st8" d="M302,176.7c1-0.1,2.3,1.2,2.2,2.3c0,0.7-0.4,1.2-1.2,1.3c-0.9,0.1-2-1.4-2-2.5
		C301.1,177.1,301.4,176.8,302,176.7z"/>
	<path id="XMLID_172_" class="st8" d="M292.7,180.9c1.3,0.1,1.7,1,1.8,2.2c0.1,0.8-0.3,1.6-1.2,1.6c-1.3,0-1.7-1.2-1.9-2.2
		C291.3,181.6,291.8,181,292.7,180.9z"/>
	<path id="XMLID_171_" class="st8" d="M321.2,181.6c1.2,0.1,2.3,2.4,1.6,3.4c-0.3,0.4-0.7,0.5-1.1,0.4c-1-0.3-1.9-1.9-1.6-2.9
		C320.3,181.9,320.7,181.6,321.2,181.6z"/>
	<path id="XMLID_170_" class="st8" d="M269.7,174.4c-1-0.1-1.6-0.8-1.8-1.8c-0.1-0.7,0.3-1.3,1-1.3c1.1,0,1.7,0.7,1.9,1.7
		C270.8,173.7,270.5,174.2,269.7,174.4z"/>
	<path id="XMLID_169_" class="st8" d="M258.7,189c-0.1,0.6-0.5,1-1.1,0.9c-1.1-0.2-1.8-1-2-2.2c-0.1-0.4,0.2-0.8,0.7-0.9
		C257.2,186.7,258.7,188,258.7,189z"/>
	<path id="XMLID_168_" class="st8" d="M314.1,188.7c-0.1,0.8-0.4,1.3-1.2,1.2c-1-0.2-1.5-0.9-1.4-1.8c0-0.7,0.5-1.2,1.2-1.1
		C313.8,187,314.1,187.8,314.1,188.7z"/>
	<path id="XMLID_167_" class="st8" d="M274.3,190.6c-0.1,0.5-0.1,1-0.7,1c-1.2,0-1.6-1-1.8-1.9c-0.1-0.4,0.2-0.9,0.7-0.9
		C273.8,188.9,274.2,189.7,274.3,190.6z"/>
	<path id="XMLID_166_" class="st8" d="M284.9,179.1c-0.1,0.8-0.3,1.2-0.8,1.1c-1.1-0.2-1.5-1.2-1.6-2.1c-0.1-0.6,0.3-1.1,1-0.9
		C284.6,177.4,284.6,178.5,284.9,179.1z"/>
	<path id="XMLID_165_" class="st8" d="M243.1,185.3c0,0.9-0.2,1.4-0.9,1.4c-1.1,0.1-1.6-0.7-1.6-1.6c0-0.6,0.4-1,1.1-1
		C242.6,184.2,242.9,184.8,243.1,185.3z"/>
	<path id="XMLID_164_" class="st8" d="M309.5,175.5c-0.8-0.3-1.1-1.1-1.1-2c0-0.5,0.3-0.8,0.8-0.7c1,0.2,1.4,0.9,1.2,1.9
		C310.3,175.1,310.1,175.5,309.5,175.5z"/>
	<path id="XMLID_163_" class="st8" d="M287.7,167.4c0.8,0.1,1.7,1.8,1.3,2.5c-0.2,0.4-0.7,0.6-1.1,0.3c-0.7-0.6-0.9-1.4-0.9-2.3
		C287,167.7,287.3,167.5,287.7,167.4z"/>
	<path id="XMLID_162_" class="st8" d="M299,190.2c-1.2-0.1-1.2-1.1-1.4-1.9c-0.1-0.5,0.2-0.9,0.7-0.9c0.9,0,1.2,0.8,1.4,1.5
		C299.8,189.5,299.7,190,299,190.2z"/>
	<path id="XMLID_161_" class="st8" d="M258.7,177c0.1-0.8,0.4-1.2,1.1-1.1c0.7,0.1,1.3,0.5,1.3,1.2c0.1,0.8-0.5,1.2-1.2,1.1
		C259.1,178.1,258.8,177.5,258.7,177z"/>
	<path id="XMLID_160_" class="st8" d="M271.9,181.8c-0.2,0.8-0.5,1.3-1.1,1.2c-1-0.2-1.5-0.9-1.3-1.8c0.1-0.5,0.6-0.9,1.2-0.8
		C271.5,180.6,271.8,181.3,271.9,181.8z"/>
	<path id="XMLID_159_" class="st8" d="M276.4,163.2c-0.1,0.5-0.4,0.8-0.9,0.7c-0.8,0-1.1-0.6-1-1.3c0.1-0.5,0.4-0.8,0.9-0.8
		C276.1,162,276.4,162.5,276.4,163.2z"/>
	<path id="XMLID_158_" class="st7" d="M398.8,179c-0.2,2.6-0.9,4.8-2.1,7.1C396.3,183.8,396.9,181.8,398.8,179z"/>
	<path id="XMLID_157_" class="st7" d="M399.5,176.3c0,0.3,0,0.6,0,0.9c0,0.2,0.1,0.7-0.3,0.6c-0.3-0.1-0.3-0.5-0.2-0.8
		C399.1,176.8,399.3,176.6,399.5,176.3C399.5,176.4,399.5,176.3,399.5,176.3z"/>
</g>
</svg>
