<?xml version="1.0" encoding="utf-8"?>
<!-- Generator: Adobe Illustrator 19.0.0, SVG Export Plug-In . SVG Version: 6.00 Build 0)  -->
<svg version="1.1" id="Layer_1" xmlns="http://www.w3.org/2000/svg" xmlns:xlink="http://www.w3.org/1999/xlink" x="0px" y="0px"
	 viewBox="0 0 100 100" style="enable-background:new 0 0 100 100;" xml:space="preserve">
<style type="text/css">
	.st0{fill:#FA709A;}
	.st1{fill:#FFFFFF;}
</style>
<g>
	<g id="Layer_2-2">
		<path class="st0" d="M75.2,31.3c0-0.1,0.1-0.1,0.1-0.2s0.1-0.2,0.1-0.2l0.1-0.2c0-0.1,0-0.1,0.1-0.2c0.1-0.3,0.1-0.6,0-0.9
			c0-0.1,0-0.1-0.1-0.2l-0.1-0.2c0-0.1-0.1-0.2-0.1-0.2c0-0.1-0.1-0.1-0.1-0.2c-0.2-0.3-0.4-0.5-0.6-0.6c-0.1,0-0.1-0.1-0.2-0.1
			L74.2,28L74,27.8l-0.2-0.1c-0.2,0-0.3,0-0.5,0H24.6c-1.3,0-2.3,1-2.3,2.3s1,2.3,2.3,2.3h22v46.5c0,1.3,1,2.3,2.3,2.3
			s2.3-1,2.3-2.3V32.3h16.4l-5.3,5.3c-1,0.8-1.1,2.3-0.3,3.3s2.3,1.1,3.3,0.3c0.1-0.1,0.2-0.2,0.3-0.3l9.3-9.3
			C75.1,31.6,75.2,31.4,75.2,31.3z"/>
		<path class="st1" d="M22.5,18.7l-0.1,0.2c0,0.1,0,0.1,0,0.2c-0.1,0.3-0.1,0.6,0,0.9c0,0.1,0,0.1,0,0.2l0.1,0.2
			c0,0.1,0.1,0.2,0.1,0.2c0,0.1,0.1,0.1,0.1,0.2c0.2,0.3,0.4,0.5,0.6,0.6c0.1,0,0.1,0.1,0.2,0.1l0.2,0.1l0.2,0.1l0.2,0.1
			c0.1,0,0.3,0,0.5,0h48.7c1.3,0,2.3-1,2.3-2.3s-1-2.3-2.3-2.3H30.2l5.3-5.3c0.9-0.9,0.9-2.4,0-3.3s-2.4-0.9-3.3,0L23,18
			c-0.1,0.1-0.2,0.2-0.3,0.4c0,0.1-0.1,0.1-0.1,0.2C22.5,18.6,22.5,18.6,22.5,18.7z"/>
	</g>
</g>
</svg>
