<?xml version="1.0" encoding="utf-8"?>
<!-- Generator: Adobe Illustrator 21.0.0, SVG Export Plug-In . SVG Version: 6.00 Build 0)  -->
<svg version="1.1" id="Layer_1" xmlns="http://www.w3.org/2000/svg" xmlns:xlink="http://www.w3.org/1999/xlink" x="0px" y="0px"
	 viewBox="0 0 244.1 100" style="enable-background:new 0 0 244.1 100;" xml:space="preserve">
<style type="text/css">
	.st0{fill:#FA709A;}
	.st1{fill:#FFFFFF;}
</style>
<g id="Layer_2">
	<g id="Layer_2-2">
		<path class="st0" d="M70,31.3c0-0.1,0.1-0.1,0.1-0.2s0.1-0.2,0.1-0.2l0.1-0.2c0-0.1,0-0.1,0.1-0.2c0.1-0.3,0.1-0.6,0-0.9
			c0-0.1,0-0.1-0.1-0.2l-0.1-0.2c0-0.1-0.1-0.2-0.1-0.2c0-0.1-0.1-0.1-0.1-0.2c-0.2-0.3-0.4-0.5-0.6-0.6c-0.1,0-0.1-0.1-0.2-0.1
			L69,28l-0.2-0.2l-0.2-0.1c-0.2,0-0.3,0-0.5,0H19.4c-1.3,0-2.3,1-2.3,2.3s1,2.3,2.3,2.3h22v46.5c0,1.3,1,2.3,2.3,2.3s2.3-1,2.3-2.3
			V32.3h16.4l-5.3,5.3c-1,0.8-1.1,2.3-0.3,3.3s2.3,1.1,3.3,0.3c0.1-0.1,0.2-0.2,0.3-0.3l9.3-9.3C69.9,31.6,70,31.4,70,31.3z"/>
		<path class="st1" d="M17.3,18.7l-0.1,0.2c0,0.1,0,0.1,0,0.2c-0.1,0.3-0.1,0.6,0,0.9c0,0.1,0,0.1,0,0.2l0.1,0.2
			c0,0.1,0.1,0.2,0.1,0.2c0,0.1,0.1,0.1,0.1,0.2c0.2,0.3,0.4,0.5,0.6,0.6c0.1,0,0.1,0.1,0.2,0.1l0.2,0.1l0.2,0.1l0.2,0.1
			c0.1,0,0.3,0,0.5,0h48.7c1.3,0,2.3-1,2.3-2.3s-1-2.3-2.3-2.3H25l5.3-5.3c0.9-0.9,0.9-2.4,0-3.3s-2.4-0.9-3.3,0L17.8,18
			c-0.1,0.1-0.2,0.2-0.3,0.4c0,0.1-0.1,0.1-0.1,0.2C17.3,18.6,17.3,18.6,17.3,18.7z"/>
	</g>
</g>
<g>
	<path class="st1" d="M72.9,53.8h15.4v2.9h-12v9h10.2v2.9H76.3v12h-3.4V53.8z"/>
	<path class="st1" d="M102.4,68c0-2.5-0.9-5-4.1-5c-2.3,0-4.4,1.1-5.9,2.1l-1.3-2.3c1.8-1.2,4.6-2.6,7.8-2.6c4.8,0,6.9,3.2,6.9,8.1
		v12.1H103l-0.3-2.4h-0.1c-1.9,1.5-4.1,2.9-6.6,2.9c-3.3,0-5.8-2.1-5.8-5.6C90.2,71.1,94,68.9,102.4,68z M97,78.3
		c1.9,0,3.5-0.9,5.4-2.6v-5.5c-6.6,0.8-8.9,2.4-8.9,5C93.5,77.4,95,78.3,97,78.3z"/>
	<path class="st1" d="M111.4,54.5c0-1.3,1-2.2,2.3-2.2s2.3,0.9,2.3,2.2c0,1.3-1,2.2-2.3,2.2S111.4,55.8,111.4,54.5z M112.1,60.7h3.3
		v19.8h-3.3V60.7z"/>
	<path class="st1" d="M122.1,60.7h2.8l0.3,3.6h0.1c1.3-2.5,3.4-4.1,5.6-4.1c0.9,0,1.5,0.1,2.1,0.4l-0.7,2.9
		c-0.7-0.2-1.1-0.3-1.9-0.3c-1.7,0-3.7,1.2-5,4.6v12.7h-3.3V60.7z"/>
	<path class="st1" d="M136.8,63.5h-2.9v-2.5l3.1-0.2l0.4-5.5h2.8v5.5h5.3v2.7h-5.3v11c0,2.4,0.8,3.8,3.1,3.8c0.7,0,1.6-0.3,2.2-0.5
		l0.7,2.5c-1.1,0.4-2.4,0.7-3.7,0.7c-4.2,0-5.7-2.7-5.7-6.6V63.5z"/>
	<path class="st1" d="M150,60.7h2.8l0.3,3.6h0.1c1.3-2.5,3.4-4.1,5.6-4.1c0.9,0,1.5,0.1,2.1,0.4l-0.7,2.9c-0.7-0.2-1.1-0.3-1.9-0.3
		c-1.7,0-3.7,1.2-5,4.6v12.7H150V60.7z"/>
	<path class="st1" d="M174.3,68c0-2.5-0.9-5-4.1-5c-2.3,0-4.4,1.1-5.9,2.1l-1.3-2.3c1.8-1.2,4.6-2.6,7.8-2.6c4.8,0,6.9,3.2,6.9,8.1
		v12.1h-2.8l-0.3-2.4h-0.1c-1.9,1.5-4.1,2.9-6.6,2.9c-3.3,0-5.8-2.1-5.8-5.6C162.1,71.1,165.9,68.9,174.3,68z M168.9,78.3
		c1.9,0,3.5-0.9,5.4-2.6v-5.5c-6.6,0.8-8.9,2.4-8.9,5C165.4,77.4,166.9,78.3,168.9,78.3z"/>
	<path class="st1" d="M191.1,60.2c2.3,0,3.8,0.9,5.5,2.3l-0.2-3.4v-7.6h3.4v29h-2.8l-0.3-2.3h-0.1c-1.5,1.5-3.7,2.8-6,2.8
		c-5,0-8.2-3.7-8.2-10.3C182.5,64.2,186.6,60.2,191.1,60.2z M191.5,78.2c1.8,0,3.4-0.9,5.1-2.7V65.1c-1.7-1.5-3.2-2.1-4.8-2.1
		c-3.2,0-5.7,3.1-5.7,7.6C186,75.4,188,78.2,191.5,78.2z"/>
	<path class="st1" d="M214,60.2c5.1,0,7.9,3.6,7.9,9.3c0,0.7,0,1.3-0.1,1.8h-13.4c0.2,4.3,2.8,7,6.6,7c1.9,0,3.5-0.6,4.9-1.5
		l1.2,2.2c-1.7,1.1-3.8,2-6.5,2c-5.3,0-9.5-3.9-9.5-10.3S209.5,60.2,214,60.2z M219,69.2c0-4-1.8-6.3-4.9-6.3
		c-2.8,0-5.3,2.3-5.7,6.3H219z"/>
</g>
</svg>
