<?xml version="1.0" encoding="utf-8"?>
<!-- Generator: Adobe Illustrator 19.0.0, SVG Export Plug-In . SVG Version: 6.00 Build 0)  -->
<svg version="1.1" id="Layer_1" xmlns="http://www.w3.org/2000/svg" xmlns:xlink="http://www.w3.org/1999/xlink" x="0px" y="0px"
	 viewBox="72 0 244.1 100" style="enable-background:new 72 0 244.1 100;" xml:space="preserve">
<style type="text/css">
	.st0{fill:#FA709A;}
	.st1{fill:#FFFFFF;}
</style>
<g>
	<g id="Layer_2-2">
		<path class="st0" d="M142,31.3c0-0.1,0.1-0.1,0.1-0.2s0.1-0.2,0.1-0.2l0.1-0.2c0-0.1,0-0.1,0.1-0.2c0.1-0.3,0.1-0.6,0-0.9
			c0-0.1,0-0.1-0.1-0.2l-0.1-0.2c0-0.1-0.1-0.2-0.1-0.2c0-0.1-0.1-0.1-0.1-0.2c-0.2-0.3-0.4-0.5-0.6-0.6c-0.1,0-0.1-0.1-0.2-0.1
			L141,28l-0.2-0.2l-0.2-0.1c-0.2,0-0.3,0-0.5,0H91.4c-1.3,0-2.3,1-2.3,2.3s1,2.3,2.3,2.3h22v46.5c0,1.3,1,2.3,2.3,2.3
			c1.3,0,2.3-1,2.3-2.3V32.3h16.4l-5.3,5.3c-1,0.8-1.1,2.3-0.3,3.3s2.3,1.1,3.3,0.3c0.1-0.1,0.2-0.2,0.3-0.3l9.3-9.3
			C141.9,31.6,142,31.4,142,31.3z"/>
		<path class="st1" d="M89.3,18.7l-0.1,0.2c0,0.1,0,0.1,0,0.2c-0.1,0.3-0.1,0.6,0,0.9c0,0.1,0,0.1,0,0.2l0.1,0.2
			c0,0.1,0.1,0.2,0.1,0.2c0,0.1,0.1,0.1,0.1,0.2c0.2,0.3,0.4,0.5,0.6,0.6c0.1,0,0.1,0.1,0.2,0.1l0.2,0.1l0.2,0.1l0.2,0.1
			c0.1,0,0.3,0,0.5,0h48.7c1.3,0,2.3-1,2.3-2.3s-1-2.3-2.3-2.3H97l5.3-5.3c0.9-0.9,0.9-2.4,0-3.3c-0.9-0.9-2.4-0.9-3.3,0L89.8,18
			c-0.1,0.1-0.2,0.2-0.3,0.4c0,0.1-0.1,0.1-0.1,0.2C89.3,18.6,89.3,18.6,89.3,18.7z"/>
	</g>
</g>
<g>
	<path class="st1" d="M144.9,53.8h15.4v2.9h-12v9h10.2v2.9h-10.2v12h-3.4V53.8z"/>
	<path class="st1" d="M174.4,68c0-2.5-0.9-5-4.1-5c-2.3,0-4.4,1.1-5.9,2.1l-1.3-2.3c1.8-1.2,4.6-2.6,7.8-2.6c4.8,0,6.9,3.2,6.9,8.1
		v12.1H175l-0.3-2.4h-0.1c-1.9,1.5-4.1,2.9-6.6,2.9c-3.3,0-5.8-2.1-5.8-5.6C162.2,71.1,166,68.9,174.4,68z M169,78.3
		c1.9,0,3.5-0.9,5.4-2.6v-5.5c-6.6,0.8-8.9,2.4-8.9,5C165.5,77.4,167,78.3,169,78.3z"/>
	<path class="st1" d="M183.4,54.5c0-1.3,1-2.2,2.3-2.2c1.3,0,2.3,0.9,2.3,2.2s-1,2.2-2.3,2.2C184.4,56.7,183.4,55.8,183.4,54.5z
		 M184.1,60.7h3.3v19.8h-3.3V60.7z"/>
	<path class="st1" d="M194.1,60.7h2.8l0.3,3.6h0.1c1.3-2.5,3.4-4.1,5.6-4.1c0.9,0,1.5,0.1,2.1,0.4l-0.7,2.9
		c-0.7-0.2-1.1-0.3-1.9-0.3c-1.7,0-3.7,1.2-5,4.6v12.7h-3.3L194.1,60.7L194.1,60.7z"/>
	<path class="st1" d="M208.8,63.5h-2.9V61l3.1-0.2l0.4-5.5h2.8v5.5h5.3v2.7h-5.3v11c0,2.4,0.8,3.8,3.1,3.8c0.7,0,1.6-0.3,2.2-0.5
		l0.7,2.5c-1.1,0.4-2.4,0.7-3.7,0.7c-4.2,0-5.7-2.7-5.7-6.6L208.8,63.5L208.8,63.5z"/>
	<path class="st1" d="M222,60.7h2.8l0.3,3.6h0.1c1.3-2.5,3.4-4.1,5.6-4.1c0.9,0,1.5,0.1,2.1,0.4l-0.7,2.9c-0.7-0.2-1.1-0.3-1.9-0.3
		c-1.7,0-3.7,1.2-5,4.6v12.7H222V60.7z"/>
	<path class="st1" d="M246.3,68c0-2.5-0.9-5-4.1-5c-2.3,0-4.4,1.1-5.9,2.1l-1.3-2.3c1.8-1.2,4.6-2.6,7.8-2.6c4.8,0,6.9,3.2,6.9,8.1
		v12.1h-2.8l-0.3-2.4h-0.1c-1.9,1.5-4.1,2.9-6.6,2.9c-3.3,0-5.8-2.1-5.8-5.6C234.1,71.1,237.9,68.9,246.3,68z M240.9,78.3
		c1.9,0,3.5-0.9,5.4-2.6v-5.5c-6.6,0.8-8.9,2.4-8.9,5C237.4,77.4,238.9,78.3,240.9,78.3z"/>
	<path class="st1" d="M263.1,60.2c2.3,0,3.8,0.9,5.5,2.3l-0.2-3.4v-7.6h3.4v29H269l-0.3-2.3h-0.1c-1.5,1.5-3.7,2.8-6,2.8
		c-5,0-8.2-3.7-8.2-10.3C254.5,64.2,258.6,60.2,263.1,60.2z M263.5,78.2c1.8,0,3.4-0.9,5.1-2.7V65.1c-1.7-1.5-3.2-2.1-4.8-2.1
		c-3.2,0-5.7,3.1-5.7,7.6C258,75.4,260,78.2,263.5,78.2z"/>
	<path class="st1" d="M286,60.2c5.1,0,7.9,3.6,7.9,9.3c0,0.7,0,1.3-0.1,1.8h-13.4c0.2,4.3,2.8,7,6.6,7c1.9,0,3.5-0.6,4.9-1.5
		l1.2,2.2c-1.7,1.1-3.8,2-6.5,2c-5.3,0-9.5-3.9-9.5-10.3S281.5,60.2,286,60.2z M291,69.2c0-4-1.8-6.3-4.9-6.3
		c-2.8,0-5.3,2.3-5.7,6.3H291z"/>
</g>
</svg>
