<svg id="a43524ec-b102-4e29-8a7a-b9312c20cb2f" data-name="Layer 1" xmlns="http://www.w3.org/2000/svg" width="128" height="128" viewBox="0 0 128 128">
  <title>Artboard 4</title>
  <circle cx="64" cy="65" r="57" style="fill: #ffdd42"/>
  <path d="M70.56,74.62a11,11,0,0,1-10.13,4c-1.06-.14-2.14-.16-3.19-.4A7.4,7.4,0,0,1,52.5,75a2.33,2.33,0,0,1,.87-.61,2.35,2.35,0,0,0,1.11-2.3,1.89,1.89,0,0,0-1.35-1.82C47.69,68,44.22,63.9,42.05,58.55a23.94,23.94,0,0,1-1.36-4.78,4.05,4.05,0,0,0-.59-1.64,1.74,1.74,0,0,0-1.4-.92c-2,0-3.82-2-4.16-4.31a6.79,6.79,0,0,1,.32-3.06,2.76,2.76,0,0,1,3.38-1.91c.25.09.52.1.79.17,1.49.37,1.78.27,2.36-1.17a39.42,39.42,0,0,1,4.93-9.09,2.14,2.14,0,0,0,.26-.62c.77.21,1.55.45,2.33.62a4.5,4.5,0,0,0,3.14-.42A12.9,12.9,0,0,0,55.56,29a10.76,10.76,0,0,1,2.32-1.83c2.46-1.41,5-2.21,7.79-.83.85.41,1.74.72,2.57,1.17a8.89,8.89,0,0,0,6.53.72c1,1.21,2.16,2.28,3.07,3.58a24.07,24.07,0,0,1,3.44,7.43c.33,1.18.32,1.23,1.55,1.18a2.84,2.84,0,0,1,3,1.89c1.22,2.8.25,5.6-2.51,6.5a2.1,2.1,0,0,0-1.48,1.88,28,28,0,0,1-4.68,11.39,27.69,27.69,0,0,1-5.73,5.86,10.79,10.79,0,0,0-1,.86c-1.82,1.74-1.79,3.87.07,5.62A1.28,1.28,0,0,1,70.56,74.62Z" style="fill: #b67540"/>
  <path d="M74.77,28.2a8.89,8.89,0,0,1-6.53-.72c-.83-.45-1.72-.76-2.57-1.17-2.78-1.38-5.33-.58-7.79.83A10.76,10.76,0,0,0,55.56,29a12.9,12.9,0,0,1-3.51,2.45,4.5,4.5,0,0,1-3.14.42c-.78-.17-1.56-.41-2.33-.62-.51-.68-1.33-1.07-1.68-1.92a6.55,6.55,0,0,1,.58-6.55,16,16,0,0,1,6.7-5.51,27.37,27.37,0,0,1,14.21-2.4,19.28,19.28,0,0,1,7.87,2.6,6.62,6.62,0,0,1,3.39,7.43A3.29,3.29,0,0,1,76,27.33,10.18,10.18,0,0,0,74.77,28.2Z" style="fill: #fff"/>
  <path d="M93.94,97.49A57.08,57.08,0,0,0,90,88.06a20.9,20.9,0,0,0-4.74-5.8A37.51,37.51,0,0,0,74,75.79c-1.12-.42-2.13-1.22-3.41-1.17a11,11,0,0,1-10.13,4c-1.06-.14-2.14-.16-3.19-.4A7.4,7.4,0,0,1,52.5,75a15.28,15.28,0,0,0-4.86,1.94,15.64,15.64,0,0,1-1.69.84,14,14,0,0,0-4.69,3.1c-.42.47-.93.85-1.38,1.28A30.66,30.66,0,0,0,34.1,89.4c-.38.72-.79,1.42-1.2,2.12a26.2,26.2,0,0,0-2.72,6.86,51.28,51.28,0,0,0-1.65,11.22,57.07,57.07,0,0,0,10.32,6.56,1,1,0,0,1,.13-.09c1.41-1.39,2.81-1.46,4.26-.23a4.13,4.13,0,0,1,1.5,2.33c.08.18.14.37.21.56a57.23,57.23,0,0,0,36.09.68,13.5,13.5,0,0,1,.4-2.83,3.58,3.58,0,0,1,.65-1.74,3,3,0,0,1,4.75-.72c.49.09.75.48,1,.81a8.79,8.79,0,0,1,1,1.38A55.79,55.79,0,0,0,95,112.83c.08-1.38.07-2.76.15-4.14s-.06-3,0-4.45A20.53,20.53,0,0,0,93.94,97.49Z" style="fill: #61e4bd"/>
</svg>
