<svg id="b9c63408-7cdc-4e7e-9427-1aac6f1c7d50" data-name="Layer 1" xmlns="http://www.w3.org/2000/svg" width="128" height="128" viewBox="0 0 128 128">
  <title>Artboard 2</title>
  <circle cx="64" cy="65" r="57" style="fill: #ffe35f"/>
  <path d="M90.55,12.87c-.17.35,0,.7,0,1A4.08,4.08,0,0,1,90.39,16a2.74,2.74,0,0,0-.24,1.64A2.13,2.13,0,0,1,88.86,20c-.35.17-.72.3-1.09.44.2,2.26.08,2.44-2.24,3.2.07.42.32.43.68.38,2.13-.33,3.42.65,3.53,2.82,0,.7.2.84.87.92a3,3,0,0,1,2.63,3.39,2.24,2.24,0,0,0,.69,2.07,3.68,3.68,0,0,1-.16,4.87,1.63,1.63,0,0,0-.31,2c.58,1.5.27,2.13-1.21,2.82a.88.88,0,0,0-.6.77,3.82,3.82,0,0,1-2,2.93,1.69,1.69,0,0,0-1,1.43,3.5,3.5,0,0,1-2.49,3.13c-.39.15-.7.24-.77.75a2.76,2.76,0,0,1-2,2.57c-.4.12-.37.42-.36.74,0,2.17-.27,2.59-2.43,3.11a3,3,0,0,1-.3,1.89,1.86,1.86,0,0,1-1.6,1.23,2.26,2.26,0,0,0-1.66.9c-1.13,1.18-1.65,1.25-3,.56a3,3,0,0,0-.75-1.51,2.65,2.65,0,0,1-.61-2.35,6.05,6.05,0,0,1,.65-1.86c.18-.33.32-.62-.07-.92a2.14,2.14,0,0,1-.63-2.52c.1-.35.22-.67-.1-1a2.26,2.26,0,0,1-.38-2.59c.11-.31.35-.68,0-1a1.69,1.69,0,0,1-.54-2.13,1.1,1.1,0,0,0-.45-1.36,1.68,1.68,0,0,1-.63-1.67c.17-.81,0-1.25-.86-1.41s-.77-1.18-1.51-1.35a3,3,0,0,0-.66,0,3.14,3.14,0,0,1-2.4-1,.87.87,0,0,0-1.26-.22,1.72,1.72,0,0,1-2.11-.11,1.24,1.24,0,0,0-1.75-.1,3,3,0,0,1-3.16.17c-.63-.35-.94-.15-1.36.24a1.92,1.92,0,0,1-2,.72,1.05,1.05,0,0,0-1.48.59c-.4.69-.92,1.38-1.83,1.36a1.2,1.2,0,0,0-1.21.79c-.48.87-1.09,1.63-2.27,1.48a.71.71,0,0,0-.66.37l-.8,1a2.3,2.3,0,0,1-2.15.29,1.16,1.16,0,0,0-1.32.29,3,3,0,0,1-1.66.78,1.52,1.52,0,0,1-1.93-1.54.81.81,0,0,0-.45-.71c-1.23-.76-1.47-1.42-.84-2.75.27-.59.27-.87-.26-1.3a1.46,1.46,0,0,1-.42-2.21,1.58,1.58,0,0,0,.2-1.56,1.62,1.62,0,0,1,.74-2.06c.25-.18.6-.19.78-.48-.7-1.89-.18-2.84,2.24-3.95a2.51,2.51,0,0,1,.25-2.69c.74-.88,1.71-.79,2.82-.58a5.44,5.44,0,0,1,.31-2.08,1.87,1.87,0,0,1,2.11-1.42c.68.06.88-.16.9-.76A3.78,3.78,0,0,1,47,22.34c.17-.31.37-.75.69-.77,1.1-.08,1.51-.81,2-1.67a1.57,1.57,0,0,1,1.89-.62c.59.17.82,0,1.08-.57a2.16,2.16,0,0,1,2.67-1.39c.36.1.51-.06.7-.38a2.71,2.71,0,0,1,3.34-1.4c.4.11.51,0,.74-.25,1.11-1.21,2-1.37,3.37-.62.38-.19.38-.66.65-.95a1.76,1.76,0,0,1,1.77-.66,6,6,0,0,1,2.35,1.16c.57.49.66.85.75,2.5a2.05,2.05,0,0,0,.58-1.78,1.33,1.33,0,0,0-.12-.37c-.38-1.49-.17-1.84,1.39-2.17,0-.45-.33-.79-.46-1.19-.37-1.1-.19-1.71.84-2.15.37-.16.61-.3.63-.71a3.11,3.11,0,0,1,.91-1.73l.36-.17A24.9,24.9,0,0,0,75.59,5a2.78,2.78,0,0,1,2.81-.73A1.63,1.63,0,0,0,80,4a2.62,2.62,0,0,1,3.21.25,5.06,5.06,0,0,0,2.49,1.06,2.56,2.56,0,0,1,2.21,2.18A3,3,0,0,0,88.73,9a2.73,2.73,0,0,1,.92,2.64c-.12.46.21.62.47.84.09.21.14.45.45.36Z" style="fill: #5a493d"/>
  <path d="M45.14,46.82l.8-1a.71.71,0,0,1,.66-.37c1.18.15,1.79-.61,2.27-1.48a1.2,1.2,0,0,1,1.21-.79c.91,0,1.43-.67,1.83-1.36a1.05,1.05,0,0,1,1.48-.59,1.92,1.92,0,0,0,2-.72c.42-.39.73-.59,1.36-.24a3,3,0,0,0,3.16-.17,1.24,1.24,0,0,1,1.75.1,1.72,1.72,0,0,0,2.11.11.87.87,0,0,1,1.26.22,3.14,3.14,0,0,0,2.4,1,3,3,0,0,1,.66,0c.74.17.76,1.2,1.51,1.35s1,.6.86,1.41a1.68,1.68,0,0,0,.63,1.67,1.1,1.1,0,0,1,.45,1.36,1.69,1.69,0,0,0,.54,2.13c.4.28.16.65,0,1a2.26,2.26,0,0,0,.38,2.59c.32.31.2.63.1,1a2.14,2.14,0,0,0,.63,2.52c.39.3.25.59.07.92a6.05,6.05,0,0,0-.65,1.86,2.65,2.65,0,0,0,.61,2.35A3,3,0,0,1,74,63c-2.46,3-4.36,6.24-4.56,10.22a11.51,11.51,0,0,0,1.13,5.91,8.8,8.8,0,0,1-7.87,6.13,7.79,7.79,0,0,1-7.38-3.57,2.41,2.41,0,0,1-.49-1.61,8.5,8.5,0,0,0,2.21-3.39,9.38,9.38,0,0,0,.25-4c0-1.06-1.72-2.27-2.8-2.17a22.58,22.58,0,0,1-3.29-.14,4.59,4.59,0,0,1-2.94-1.87,8.48,8.48,0,0,1-1.95-4.69c-.33-3-.49-6.05-.72-9.07C45.41,52.07,45.53,49.43,45.14,46.82Z" style="fill: #e0b179"/>
  <path d="M87.73,101.16a27.46,27.46,0,0,0-6.24-16.27,7.66,7.66,0,0,0-1.79-1.57A69.25,69.25,0,0,0,72,79.21a1.76,1.76,0,0,0-1.4-.09,8.8,8.8,0,0,1-7.87,6.13,7.79,7.79,0,0,1-7.38-3.57,2.41,2.41,0,0,1-.49-1.61,1.06,1.06,0,0,0-1.57-.37c-2.88,1.54-5.91,2.81-8.55,4.77-1.07.79-2,1.74-3.12,2.47a10,10,0,0,0-3.79,5.3,35.48,35.48,0,0,0-1.5,9.67,52.75,52.75,0,0,0,.6,8c.18,1.86.41,3.7.62,5.55A56.48,56.48,0,0,0,49,120c-.07-1.4-.14-2.79-.22-4.18,0-.22,0-.44,0-.66a.7.7,0,0,1,.49-.71c.36-.08.58.15.71.46a4.48,4.48,0,0,1,.3.87,39.59,39.59,0,0,1,.74,4.72,57,57,0,0,0,25.19.2c.2-2.39.4-4.77.63-7.15.06-.53,0-1.29.8-1.28s.74.73.78,1.29a15.71,15.71,0,0,1,0,3.69,19.25,19.25,0,0,0-.06,2.94,56.82,56.82,0,0,0,9.82-3.54c0-.06,0-.11,0-.17.06-2.11.14-4.23.17-6.34A81.51,81.51,0,0,0,87.73,101.16Z" style="fill: #fb719a"/>
</svg>
