<svg id="b093a3de-f098-4353-b5e0-fff69d4259a9" data-name="Layer 1" xmlns="http://www.w3.org/2000/svg" width="128" height="128" viewBox="0 0 128 128">
  <title>Artboard 3</title>
  <circle cx="63" cy="65" r="57" style="fill: #ffe35f"/>
  <path d="M51.43,73.79c-1.23-.53-2.47-1.05-3.69-1.6a56.85,56.85,0,0,1-5.22-2.8,12.14,12.14,0,0,1-4.35-4.48c-7.88-13.14-4-27.71,2.89-36.08a19.73,19.73,0,0,1,8.06-6.14c4.81-1.86,9.26-1.35,13.14,2.24a1.07,1.07,0,0,0,1.3.23,12.24,12.24,0,0,1,10,.31,14.29,14.29,0,0,1,8.32,11.19A26.61,26.61,0,0,1,80.72,49a41.88,41.88,0,0,1-7.94,14.12c-.16.19-.26.85-.79.36L72,63c.59-.26.61-.77.6-1.3v0A3.55,3.55,0,0,0,73,59.77a5.29,5.29,0,0,0,.41-1.69,45.09,45.09,0,0,0,.92-9.76,26,26,0,0,0-.84-5.18,12.64,12.64,0,0,0-2.24-4.85A6.12,6.12,0,0,0,66,35.77a3,3,0,0,1-2.87-1c-3,3.32-3,3.31-7.37,5A10,10,0,0,0,50,44.9a19.75,19.75,0,0,0-1.78,7.68,28,28,0,0,0,1.6,9.64c1.44,4.52,3.26,8.85,6.51,12.41a.25.25,0,0,1,0,.37,14.16,14.16,0,0,1-2.47-.54Z" style="fill: #060605"/>
  <path d="M51.43,73.79l2.46.67a14.16,14.16,0,0,0,2.47.54.25.25,0,0,0,0-.37c-3.25-3.56-5.07-7.89-6.51-12.41a28,28,0,0,1-1.6-9.64A19.75,19.75,0,0,1,50,44.9a10,10,0,0,1,5.79-5.13c4.36-1.69,4.37-1.68,7.37-5a3,3,0,0,0,2.87,1,6.12,6.12,0,0,1,5.24,2.52,12.64,12.64,0,0,1,2.24,4.85,26,26,0,0,1,.84,5.18,45.09,45.09,0,0,1-.92,9.76A5.29,5.29,0,0,1,73,59.77a2.31,2.31,0,0,0-.47,1.91v0c-.46.31-.48.83-.6,1.3l0,.48c-.39.3-.41.78-.55,1.19a13.29,13.29,0,0,1-2.28,3.92c-1,1.26-2.51,1.43-4,1.67-.31,0-.64,0-.94,0a1.88,1.88,0,0,0-1.55,1.44c-.44,1.59,0,3.1.19,4.64.05.48.13,1,.18,1.45a5.36,5.36,0,0,1-7.81,3A6,6,0,0,1,52,77.07C52,75.94,51.39,74.92,51.43,73.79Z" style="fill: #f4bd8a"/>
  <path d="M85.74,106.74c-.13-4.36-.12-8.71-.6-13a35.74,35.74,0,0,0-1.59-8.44,9.33,9.33,0,0,0-4.86-5.31,17.66,17.66,0,0,0-8.24-1.6,35,35,0,0,1-7.37-.48,5.36,5.36,0,0,1-7.81,3A6,6,0,0,1,52,77.07a9.48,9.48,0,0,1-1.84.82c-1.7.58-3.46,1-5.18,1.45-3,.89-5.53,2.44-6.91,5.37a18.94,18.94,0,0,0-1.68,8c0,5,.1,9.88,1.57,14.67a14.34,14.34,0,0,1,.3,1.45c.56,2.72.67,5.53,1.63,8.17a.24.24,0,0,1,0,.12,56.94,56.94,0,0,0,9.61,3.27,27,27,0,0,1-2.07-10.87c0-.4-.19-1,.47-1.06s.66.55.72,1a45.65,45.65,0,0,0,1.87,7.82c.38,1.2.75,2.41,1.12,3.61a57.17,57.17,0,0,0,23.89-.25,2.44,2.44,0,0,1,.21-.43,40.82,40.82,0,0,0-.17-9.94c-.07-.67-.06-1.34-.08-2,0-.27,0-.57.33-.67s.51.13.7.33a2.3,2.3,0,0,1,.61,1,9.66,9.66,0,0,1,.37,1.57,35.44,35.44,0,0,1,.09,9.26,2.41,2.41,0,0,1,0,.38,57.21,57.21,0,0,0,8.4-3,1.38,1.38,0,0,0,0-.2,1.9,1.9,0,0,1,0-.53C85.9,113.2,85.83,110,85.74,106.74Z" style="fill: #61e4bd"/>
</svg>
