<svg id="f7f49d7f-cf0c-42c9-9b22-fead1d895f33" data-name="Layer 1" xmlns="http://www.w3.org/2000/svg" width="128" height="128" viewBox="0 0 128 128">
  <title>Artboard 1</title>
  <circle cx="63" cy="65" r="57" style="fill: #fee040"/>
  <circle cx="63" cy="65" r="57" style="fill: #ffdd42"/>
  <path d="M73.68,69.59a10.78,10.78,0,0,1-8,4,9,9,0,0,1-6.53-2.86,7.31,7.31,0,0,0,.57-1.63,2.71,2.71,0,0,0-2.44-3,4.84,4.84,0,0,0-1.74,0,15.16,15.16,0,0,1-3.86.23,5.3,5.3,0,0,1-5-3,53.8,53.8,0,0,1-3.39-9.15c-1-3.14-1.86-6.33-3.06-9.41-.14-.37-.14-.81-.52-1.06a4.71,4.71,0,0,0,.09-.52c0-1.07.61-1.44,1.63-1.67a13.66,13.66,0,0,0,6.57-3.44,31.23,31.23,0,0,1,5.43-3.92,18.58,18.58,0,0,1,6.21-2.43,5.25,5.25,0,0,1,4,.68A8.88,8.88,0,0,1,67,36a13.77,13.77,0,0,1,1.22,7.84,11,11,0,0,0,.31,4.38A4.41,4.41,0,0,0,71,51.07a10.67,10.67,0,0,0,1.11.44c-.26,2.84-.56,5.67-.56,8.53A19.63,19.63,0,0,0,73.68,69.59Z" style="fill: #d3a17f"/>
  <path d="M72.08,51.51A10.67,10.67,0,0,1,71,51.07a4.41,4.41,0,0,1-2.47-2.83,11,11,0,0,1-.31-4.38A13.77,13.77,0,0,0,67,36a8.88,8.88,0,0,0-3.28-3.64,5.25,5.25,0,0,0-4-.68,18.58,18.58,0,0,0-6.21,2.43,31.23,31.23,0,0,0-5.43,3.92,13.66,13.66,0,0,1-6.57,3.44c-1,.23-1.6.6-1.63,1.67a4.71,4.71,0,0,1-.09.52,16.9,16.9,0,0,1-2.61,3.56,5.18,5.18,0,0,1-6,.86,3,3,0,0,1-1.84-3,5.92,5.92,0,0,1,.76-2.82,11.46,11.46,0,0,1,3.48-4c.38-.25.68-.46.66-1A13.54,13.54,0,0,1,38.51,27a25.9,25.9,0,0,1,11.86-7,20.45,20.45,0,0,1,11-.3,20.81,20.81,0,0,1,3.46,1,1.38,1.38,0,0,0,.9.06,5.88,5.88,0,0,1,7.14,4.76A8.72,8.72,0,0,1,73,29.33c-.14.6.06.85.58,1.13a7.78,7.78,0,0,1,4.22,6.17A18.1,18.1,0,0,1,78,39.84a4.72,4.72,0,0,1-1.58,3.57A1.07,1.07,0,0,0,76,44.67,6.79,6.79,0,0,1,76,48,4.4,4.4,0,0,1,72.08,51.51Z" style="fill: #060605"/>
  <g>
    <polygon points="34.16 112.6 34.15 112.58 34.15 112.58 34.16 112.6" style="fill: #fb719a"/>
    <path d="M96.73,90.2A36.22,36.22,0,0,0,94,80.85a15.44,15.44,0,0,0-3.61-5.28c-.94-.9-2.08-1.54-3.08-2.36-3.68-3-8.07-3.59-12.57-3.89a1.9,1.9,0,0,0-1,.27,10.78,10.78,0,0,1-8,4,9,9,0,0,1-6.53-2.86,2.51,2.51,0,0,0-2.34-.45c-1.37.22-2.69.64-4,.89a22.84,22.84,0,0,0-6.86,2.61A23.22,23.22,0,0,0,36.39,84a24.52,24.52,0,0,0-2.73,11.76,29.74,29.74,0,0,1-.1,4.43,35.08,35.08,0,0,0,.25,8c.14,1.46.23,2.92.34,4.39a.27.27,0,0,1,.21.3l.39,1.61a56.84,56.84,0,0,0,12.11,5.17c0-.45,0-.89,0-1.33a65.79,65.79,0,0,1-.59-9.61c0-.62-.11-1.32.73-1.52.68-.17,1.16.18,1.43,1.25C49,110.74,49.5,113,50,115.35a23,23,0,0,1,.82,3.92c.09.35.2.69.27,1,0,.17.06.3.09.45A57,57,0,0,0,81.31,119a4.53,4.53,0,0,1,.42-2,72.42,72.42,0,0,1,.57-9.76,6.73,6.73,0,0,1,1-3.15c.21-.3.41-.61.84-.52a1,1,0,0,1,.71.73,1.12,1.12,0,0,1,.07.4c-.11,1.87.3,3.72.11,5.61s-.09,3.67-.11,5.5l0,1.85a57.07,57.07,0,0,0,10.14-5.52c.32-1,.62-2,.86-3,.22-2,.58-4,.94-6,.62-3.31.15-6.59,0-9.87C96.86,92.25,96.86,91.22,96.73,90.2Z" style="fill: #fb719a"/>
  </g>
</svg>
