<?xml version="1.0" encoding="utf-8"?>
<!-- Generator: Adobe Illustrator 23.0.3, SVG Export Plug-In . SVG Version: 6.00 Build 0)  -->
<svg version="1.1" id="Layer_1" xmlns="http://www.w3.org/2000/svg" xmlns:xlink="http://www.w3.org/1999/xlink" x="0px" y="0px"
	 viewBox="0 0 60 60" style="enable-background:new 0 0 60 60;" xml:space="preserve">
<style type="text/css">
	.st0{fill:#FFFFFF;}
	.st1{clip-path:url(#SVGID_2_);}
	.st2{fill:#CC4B32;}
	.st3{fill:none;}
	.st4{fill:#F4A9AD;}
	.st5{fill:#33475B;}
	.st6{fill:#F4CD98;}
	.st7{fill:#9C9EA0;}
</style>
<circle class="st0" cx="30" cy="29.8" r="29.8"/>
<g id="Idle_14_">
	<g>
		<g>
			<defs>
				<circle id="SVGID_1_" cx="30" cy="29.8" r="29.8"/>
			</defs>
			<clipPath id="SVGID_2_">
				<use xlink:href="#SVGID_1_"  style="overflow:visible;"/>
			</clipPath>
			<g class="st1">
				<g>
					<path class="st2" d="M28.1,34.6h3.8c8.6,0,15.6,7,15.6,15.6v12H12.5v-12C12.5,41.6,19.5,34.6,28.1,34.6z"/>
					<path d="M47.5,62.7H12.5c-0.3,0-0.5-0.2-0.5-0.5v-12c0-8.9,7.2-16.1,16.1-16.1h3.8c8.9,0,16.1,7.2,16.1,16.1v12
						C48,62.5,47.8,62.7,47.5,62.7z M13,61.7H47V50.2c0-8.3-6.8-15.1-15.1-15.1h-3.8c-8.3,0-15.1,6.8-15.1,15.1V61.7z"/>
				</g>
				<g>
					<g>
						<g>
							<line class="st3" x1="21.2" y1="62.2" x2="21.2" y2="53.9"/>
							<path d="M21.2,62.7c-0.3,0-0.5-0.2-0.5-0.5v-8.3c0-0.3,0.2-0.5,0.5-0.5s0.5,0.2,0.5,0.5v8.3C21.7,62.5,21.5,62.7,21.2,62.7z"
								/>
						</g>
					</g>
					<g>
						<g>
							<line class="st3" x1="38.8" y1="62.2" x2="38.8" y2="53.9"/>
							<path d="M38.8,62.7c-0.3,0-0.5-0.2-0.5-0.5v-8.3c0-0.3,0.2-0.5,0.5-0.5c0.3,0,0.5,0.2,0.5,0.5v8.3
								C39.3,62.5,39,62.7,38.8,62.7z"/>
						</g>
					</g>
				</g>
			</g>
		</g>
	</g>
</g>
<g>
	<path d="M17.1,22.2c0,4.2-0.8,9.7-1.3,12.5c-0.2,1.1,0.4,2.1,1.4,2.5c1.9,0.8,5.3,1.7,8.7,0.6"/>
	<path d="M22.6,38.7c-2.2,0-4.1-0.5-5.6-1.1c-1.2-0.5-1.9-1.8-1.7-3c0.5-2.9,1.3-8.3,1.3-12.4c0-0.3,0.2-0.5,0.5-0.5
		s0.5,0.2,0.5,0.5c0,4.2-0.8,9.7-1.3,12.6c-0.1,0.8,0.3,1.6,1.1,1.9c2.1,0.8,5.2,1.6,8.4,0.6c0.3-0.1,0.5,0.1,0.6,0.3
		c0.1,0.3-0.1,0.5-0.3,0.6C24.9,38.6,23.7,38.7,22.6,38.7z"/>
</g>
<g>
	<path d="M42.9,22.2c0,4.2,0.8,9.7,1.3,12.5c0.2,1.1-0.4,2.1-1.4,2.5c-1.9,0.8-5.3,1.7-8.7,0.6"/>
	<path d="M37.4,38.7c-1.1,0-2.3-0.1-3.4-0.5c-0.3-0.1-0.4-0.4-0.3-0.6c0.1-0.3,0.4-0.4,0.6-0.3c3.2,1,6.3,0.2,8.4-0.6
		c0.8-0.3,1.2-1.1,1.1-1.9c-0.5-2.9-1.3-8.4-1.3-12.6c0-0.3,0.2-0.5,0.5-0.5s0.5,0.2,0.5,0.5c0,4.1,0.8,9.5,1.3,12.4
		c0.2,1.3-0.5,2.6-1.7,3C41.5,38.2,39.6,38.7,37.4,38.7z"/>
</g>
<g>
	<path class="st4" d="M42.4,26.6c-0.3,0.2-0.7,0.3-1.1,0.3c-0.1,0-0.3,0-0.4,0c0.1,0,0.3-0.1,0.4-0.1C41.7,26.7,42,26.6,42.4,26.6z"
		/>
	<path class="st5" d="M41.3,27.4c-0.1,0-0.3,0-0.4,0c-0.2,0-0.4-0.2-0.4-0.5c0-0.2,0.1-0.4,0.4-0.5c0.2,0,0.3-0.1,0.4-0.1
		c0.4-0.1,0.8-0.1,1.2-0.1c0.2,0,0.4,0.2,0.5,0.4c0.1,0.2-0.1,0.5-0.3,0.6C42.2,27.3,41.8,27.4,41.3,27.4z"/>
</g>
<g>
	<circle class="st6" cx="41.3" cy="24.3" r="2.6"/>
	<path d="M41.3,27.4c-1.7,0-3.1-1.4-3.1-3.1s1.4-3.1,3.1-3.1c1.7,0,3.1,1.4,3.1,3.1S43,27.4,41.3,27.4z M41.3,22.2
		c-1.2,0-2.1,0.9-2.1,2.1s0.9,2.1,2.1,2.1c1.2,0,2.1-0.9,2.1-2.1S42.5,22.2,41.3,22.2z"/>
</g>
<g>
	<path class="st6" d="M41.4,21.4v5.8c0,6.3-5.1,11.4-11.4,11.4c-6.3,0-11.4-5.1-11.4-11.4v-5.8C18.6,15.1,23.7,10,30,10
		c3.1,0,6,1.3,8,3.3C40.1,15.4,41.4,18.3,41.4,21.4z"/>
	<path class="st5" d="M30,39c-6.5,0-11.9-5.3-11.9-11.9v-5.8c0-6.5,5.3-11.9,11.9-11.9c3.2,0,6.1,1.2,8.4,3.5
		c2.2,2.2,3.5,5.2,3.5,8.4v5.8C41.9,33.7,36.5,39,30,39z M30,10.5c-6,0-10.9,4.9-10.9,10.9v5.8C19.1,33.2,24,38,30,38
		c6,0,10.9-4.9,10.9-10.9v-5.8c0-2.9-1.1-5.6-3.2-7.7C35.6,11.7,32.9,10.5,30,10.5z"/>
</g>
<path d="M30,39c-6.5,0-11.9-5.3-11.9-11.9v-5.8c0-6.5,5.3-11.9,11.9-11.9c3.2,0,6.1,1.2,8.4,3.5c2.2,2.2,3.5,5.2,3.5,8.4v5.8
	C41.9,33.7,36.5,39,30,39z M30,10.5c-6,0-10.9,4.9-10.9,10.9v5.8C19.1,33.2,24,38,30,38c6,0,10.9-4.9,10.9-10.9v-5.8
	c0-2.9-1.1-5.6-3.2-7.7C35.6,11.7,32.9,10.5,30,10.5z"/>
<g>
	<path class="st6" d="M29.2,24.3l-0.9,2.9c-0.2,0.6,0.3,1.2,0.9,1.2h1.2"/>
	<path d="M30.4,28.9h-1.2c-0.5,0-0.9-0.2-1.1-0.6c-0.3-0.4-0.3-0.8-0.2-1.3l0.9-2.9c0.1-0.3,0.4-0.4,0.6-0.3
		c0.3,0.1,0.4,0.4,0.3,0.6l-0.9,2.9c0,0.1,0,0.3,0.1,0.4c0.1,0.1,0.2,0.2,0.3,0.2h1.2c0.3,0,0.5,0.2,0.5,0.5S30.7,28.9,30.4,28.9z"
		/>
</g>
<g>
	<path class="st6" d="M18.6,21.7v5.2c-1.4,0-2.6-1.2-2.6-2.6C16,22.8,17.2,21.7,18.6,21.7z"/>
	<path d="M18.6,27.4c-1.7,0-3.1-1.4-3.1-3.1c0-1.7,1.4-3.1,3.1-3.1c0.3,0,0.5,0.2,0.5,0.5v5.2C19.1,27.2,18.9,27.4,18.6,27.4z
		 M18.1,22.2c-0.9,0.2-1.6,1.1-1.6,2c0,1,0.7,1.8,1.6,2V22.2z"/>
</g>
<g>
	<path d="M18.6,21.7c2.3-2.3,4.3-3.4,7.6-3.4h0.1c6.4,0,11.6-2.8,11.6-4.9l0,0c0,6.9,3.3,8.3,3.3,8.3l1.6,0.5c0-0.3,0-0.7,0-1
		c0-2-0.5-3.9-1.3-5.6c-0.3-0.7-0.9-1.3-1.5-1.7c-0.6-0.4-1.4-0.6-2.2-0.6l0,0l0,0v-0.1c0-1.5-0.9-2.9-2.2-3.6
		C34,8.8,32.1,8.3,30,8.3c-7.3,0-13.2,6.1-12.9,13.4c0,0.2,0,0.3,0,0.5C17.5,21.9,18.1,21.7,18.6,21.7"/>
	<path d="M42.9,22.7c-0.1,0-0.1,0-0.2,0l-1.6-0.5c0,0,0,0,0,0c-0.1-0.1-3-1.3-3.5-6.9C37,15.9,36,16.5,34.8,17
		c-2.4,1.1-5.4,1.7-8.4,1.7h-0.1c-2.9,0-4.9,0.9-7.3,3.3c-0.1,0.1-0.2,0.1-0.4,0.1c-0.5,0-0.9,0.1-1.2,0.4c-0.1,0.1-0.3,0.1-0.5,0.1
		c-0.2-0.1-0.3-0.2-0.3-0.4c0-0.2,0-0.3,0-0.5c-0.1-3.7,1.2-7.2,3.7-9.8c2.6-2.7,6-4.1,9.7-4.1c2.1,0,4.1,0.5,6,1.4
		c1.4,0.7,2.3,2.1,2.5,3.7c0.7,0.1,1.3,0.3,1.9,0.7c0.7,0.5,1.3,1.1,1.7,1.9c0.9,1.8,1.3,3.8,1.3,5.8c0,0.3,0,0.7,0,1
		c0,0.2-0.1,0.3-0.2,0.4C43.1,22.7,43,22.7,42.9,22.7z M41.5,21.2l0.9,0.3c0-0.1,0-0.2,0-0.3c0-1.9-0.4-3.7-1.2-5.4
		c-0.3-0.6-0.7-1.1-1.3-1.4c-0.4-0.3-0.9-0.4-1.4-0.5C38.7,19.7,41.3,21.1,41.5,21.2z M30,8.8c-3.4,0-6.6,1.4-9,3.8
		c-2.3,2.4-3.5,5.5-3.5,8.8c0.3-0.1,0.6-0.2,0.9-0.2c1.2-1.2,2.3-2,3.4-2.5c1.3-0.6,2.7-0.9,4.4-0.9h0.1c6.2,0,11.2-2.7,11.2-4.4
		v-0.1c0-1.4-0.7-2.6-2-3.2C33.8,9.2,32,8.8,30,8.8z"/>
</g>
<path class="st7" d="M20.5,16.4c-0.1,0-0.2,0-0.2-0.1c-0.2-0.1-0.3-0.4-0.2-0.7c1.8-3.1,4.9-5.3,8.5-5.7c0.3,0,0.5,0.2,0.6,0.4
	c0,0.3-0.2,0.5-0.4,0.6c-3.2,0.4-6.1,2.3-7.8,5.2C20.9,16.3,20.7,16.4,20.5,16.4z"/>
<path d="M22.4,21.1c-0.1,0-0.2-0.1-0.3-0.2c-0.1-0.2,0-0.5,0.2-0.7c1.5-0.7,3.2-0.4,4.4,0.7c0.2,0.2,0.2,0.5,0,0.7
	c-0.2,0.2-0.5,0.2-0.7,0c-0.9-0.8-2.2-1-3.2-0.5C22.6,21.2,22.5,21.2,22.4,21.1z"/>
<path d="M37.6,21.2c-0.1,0.1-0.3,0-0.4,0c-1.1-0.5-2.4-0.4-3.3,0.4c-0.2,0.2-0.5,0.2-0.7,0c-0.2-0.2-0.2-0.5,0-0.7
	c1.2-1.1,2.9-1.3,4.4-0.6c0.2,0.1,0.3,0.4,0.2,0.7C37.8,21.1,37.7,21.2,37.6,21.2z"/>
<path d="M30.3,32.2c-0.9,0-1.8-0.2-2.6-0.7c-0.2-0.1-0.3-0.4-0.2-0.7c0.1-0.2,0.4-0.3,0.7-0.2c0.7,0.4,1.4,0.6,2.1,0.6
	c0.8,0,1.5-0.2,2.1-0.6c0.2-0.1,0.5-0.1,0.7,0.2c0.1,0.2,0.1,0.5-0.2,0.7C32.2,32,31.3,32.2,30.3,32.2z"/>
<circle cx="35.5" cy="24.3" r="0.8"/>
<circle cx="24.5" cy="24.3" r="0.8"/>
</svg>
