<?xml version="1.0" encoding="utf-8"?>
<!-- Generator: Adobe Illustrator 23.0.3, SVG Export Plug-In . SVG Version: 6.00 Build 0)  -->
<svg version="1.1" id="Layer_1" xmlns="http://www.w3.org/2000/svg" xmlns:xlink="http://www.w3.org/1999/xlink" x="0px" y="0px"
	 viewBox="0 0 200 100" style="enable-background:new 0 0 200 100;" xml:space="preserve">
<style type="text/css">
	.st0{fill:#FFFFFF;}
</style>
<g>
	<path class="st0" d="M68.1,20.5c1.1,4.1,2.2,8.2,3.4,12.3c1.2,4.3,2.4,8.6,3.5,12.9c0.1,0.4,0,0.8-0.1,1.2
		c-1.1,1.9-2.2,3.7-3.3,5.5c-0.3,0.5-0.3,0.8,0,1.3c1.1,1.8,2.3,3.7,3.3,5.6c0.2,0.3,0.2,0.7,0.2,1c-2.3,8.3-4.5,16.5-6.8,24.8
		c0,0.2-0.1,0.3-0.2,0.5c-2.6-0.7-5.2-1.3-7.8-2c-6-1.6-12.1-3.2-18.1-4.8c-0.4-0.1-0.8-0.4-1-0.8c-1.1-1.9-2.2-3.7-3.3-5.6
		c-0.2-0.4-0.5-0.6-0.9-0.5c-2.3,0-4.5,0-6.8,0c-0.3,0-0.7-0.1-0.9-0.3c-6.3-6.1-12.6-12.2-18.8-18.3c-0.1-0.1-0.1-0.1-0.4-0.5
		c0.3-0.1,0.6-0.2,0.8-0.4c6.1-5.9,12.3-11.9,18.4-17.8c0.3-0.2,0.7-0.4,1-0.4c2.2,0,4.5,0,6.7,0c0.5,0,0.8-0.2,1-0.6
		c1.1-1.9,2.2-3.8,3.3-5.6c0.2-0.3,0.6-0.6,0.9-0.7c8.3-2.2,16.6-4.3,24.9-6.5c0.3-0.1,0.5-0.2,0.8-0.3C67.9,20.5,68,20.5,68.1,20.5
		z M58.6,75.8c-0.1-0.3-0.2-0.4-0.3-0.5c-3.7-6.2-7.4-12.4-11.1-18.6c-0.2-0.4-0.5-0.5-1-0.5c-7.3,0-14.6,0-22,0c-0.2,0-0.4,0-0.7,0
		c0.2,0.2,0.3,0.4,0.4,0.5c4.6,4.6,9.3,9.2,13.9,13.8c0.2,0.2,0.5,0.4,0.8,0.4c4.9,1.3,9.9,2.5,14.8,3.7
		C55.2,75,56.8,75.4,58.6,75.8z M64.3,33.5c-0.2,0.3-0.3,0.4-0.4,0.6c-3.7,6.2-7.3,12.3-11,18.5c-0.2,0.4-0.2,0.7,0,1.1
		c3.7,6.1,7.3,12.3,11,18.5c0.1,0.2,0.2,0.3,0.4,0.6c0.1-0.2,0.1-0.4,0.2-0.5c1.8-6.2,3.6-12.4,5.3-18.6c0.1-0.3,0-0.7-0.1-1.1
		c-1.7-6-3.5-12.1-5.2-18.1C64.5,34,64.4,33.8,64.3,33.5z M23.6,49.8c0.3,0,0.5,0,0.7,0c7.3,0,14.7,0,22,0c0.5,0,0.7-0.2,1-0.6
		c3.6-6.1,7.3-12.2,10.9-18.3c0.1-0.2,0.2-0.4,0.3-0.6c-0.2,0-0.4,0-0.5,0.1c-6.4,1.6-12.8,3.2-19.2,4.8c-0.4,0.1-0.7,0.3-1,0.6
		c-4.6,4.5-9.1,9-13.7,13.5C23.9,49.3,23.8,49.5,23.6,49.8z"/>
	<path class="st0" d="M190,40.6c-0.8,2.1-1.5,4.2-2.2,6.3c-2.5,7.2-5,14.4-7.5,21.6c-0.3,0.9-0.7,1.7-1.2,2.5
		c-1.2,2.3-3.1,3.6-5.7,3.7c-1.9,0.1-3.7,0-5.7,0c0-1.7,0-3.5,0-5.3c0.7,0,1.4,0,2.1,0c3.3,0,4.6-1.5,4-4.7c-0.4-2.2-1.2-4.3-2-6.3
		c-2.1-5.8-4.3-11.5-6.5-17.3c-0.1-0.2-0.2-0.5-0.3-0.8c2.2,0,4.3,0,6.5,0c0.2,0,0.4,0.3,0.5,0.5c1.9,5.5,4.2,10.8,5.6,16.5
		c0,0.1,0.1,0.3,0.2,0.5c0.1-0.2,0.2-0.2,0.2-0.3c1.5-4.9,3-9.9,4.5-14.8c0.2-0.6,0.3-1.2,0.6-1.8c0.1-0.2,0.4-0.4,0.5-0.4
		c2.1,0,4.3,0,6.4,0C190,40.5,190,40.5,190,40.6z"/>
	<path class="st0" d="M114.4,40.3c2.1,0,4.1,0,6.2,0c0,1.1,0,2.2,0,3.4c0.1,0,0.1,0.1,0.2,0.1c0.2-0.2,0.3-0.4,0.5-0.6
		c2.3-3.1,6-4.3,9.9-3.2c3.4,1,5.9,4,6.2,7.7c0.1,0.8,0.1,1.6,0.1,2.5c0,5.1,0,10.1,0,15.2c0,0.3,0,0.6,0,0.9c-2.1,0-4.2,0-6.4,0
		c0-0.3,0-0.6,0-0.9c0-4.9,0-9.8,0-14.7c0-0.9-0.1-1.8-0.5-2.5c-0.7-1.8-2.3-2.5-4.1-2.6c-2-0.1-3.6,0.6-4.7,2.3
		c-0.8,1.2-1,2.6-1,4.1c0,4.5,0,8.9,0,13.4c0,0.3,0,0.6,0,0.9c-2.1,0-4.2,0-6.3,0C114.4,57.7,114.4,49,114.4,40.3z"/>
	<path class="st0" d="M88.4,40.3c2.1,0,4.1,0,6.3,0c0,0.3,0,0.6,0,0.9c0,5,0,10,0,15c0,0.6,0.1,1.3,0.2,1.9c0.6,2.2,2.7,3.4,5.2,3.1
		c2.5-0.3,4.1-1.9,4.5-4.4c0.1-0.8,0.2-1.5,0.2-2.3c0-4.4,0-8.8,0-13.3c0-0.3,0-0.5,0-0.9c2.1,0,4.2,0,6.3,0c0,8.6,0,17.3,0,26
		c-2,0-4,0-6,0c0-1,0-1.9,0-2.9c-0.1-0.1-0.2-0.1-0.3-0.2c-0.1,0.2-0.1,0.3-0.2,0.5c-2,2.8-4.9,3.7-8.2,3.4
		c-4.9-0.5-7.9-3.6-7.9-8.6c-0.1-5.9,0-11.8,0-17.7C88.3,40.7,88.4,40.6,88.4,40.3z"/>
	<path class="st0" d="M163.2,61.2c0,1.7,0,3.3,0,5c-2.4,0.1-4.8,0.4-7.1-0.6c-2.3-0.9-3.4-2.7-3.4-5.1c-0.1-4.9,0-9.8,0-14.8
		c0-0.3,0-0.6,0-1c-1.2,0-2.3,0-3.5,0c0-1.6,0-3,0-4.6c1.2,0,2.3,0,3.5,0c0-2.7,0-5.3,0-8c2.1,0,4.2,0,6.3,0c0,2.7,0,5.3,0,8.1
		c1.4,0,2.7,0,4.1,0c0,1.6,0,3,0,4.6c-1.3,0-2.6,0-4,0c0,0.3,0,0.5,0,0.7c0,4.3,0,8.5,0,12.8c0,0.2,0,0.5,0,0.7
		c0.2,1.3,0.8,2,2.2,2.1C161.9,61.3,162.5,61.2,163.2,61.2z"/>
	<path class="st0" d="M140.9,40.3c2.1,0,4.1,0,6.2,0c0,8.6,0,17.3,0,25.9c-2.1,0-4.1,0-6.2,0C140.9,57.7,140.9,49,140.9,40.3z"/>
	<path class="st0" d="M147.1,32.3c0,1.7,0,3.4,0,5.1c-2.1,0-4.1,0-6.3,0c0-1.7,0-3.3,0-5.1C142.9,32.3,145,32.3,147.1,32.3z"/>
</g>
</svg>
