<?xml version="1.0" encoding="utf-8"?>
<!-- Generator: Adobe Illustrator 23.0.1, SVG Export Plug-In . SVG Version: 6.00 Build 0)  -->
<svg version="1.1" id="Layer_1" xmlns="http://www.w3.org/2000/svg" xmlns:xlink="http://www.w3.org/1999/xlink" x="0px" y="0px"
	 viewBox="0 0 700 700" style="enable-background:new 0 0 700 700;" xml:space="preserve">
<style type="text/css">
	.st0{fill:#020202;}
	.st1{fill:#FFFDFD;stroke:#B7B7B7;stroke-width:3;stroke-miterlimit:10;}
	.st2{fill:#FFFDFD;stroke:#95A0A0;stroke-width:3;stroke-miterlimit:10;}
	.st3{fill:#95A0A0;}
	.st4{fill:#83FF0B;}
	.st5{fill:#727271;}
	.st6{fill:url(#XMLID_6_);}
	.st7{fill:#636362;}
	.st8{fill:url(#XMLID_9_);}
	.st9{opacity:0.32;fill:url(#XMLID_10_);enable-background:new    ;}
	.st10{fill:#B7B7B7;}
	.st11{fill:#338987;}
	.st12{fill:#10BFBB;}
	.st13{fill:#666B6B;}
	.st14{fill:#FC5810;}
	.st15{fill:none;stroke:#FFFFFF;stroke-width:2.5;stroke-linecap:round;stroke-miterlimit:10;}
	.st16{fill:none;stroke:#338987;stroke-miterlimit:10;}
	.st17{fill:none;stroke:#338987;stroke-width:2;stroke-miterlimit:10;}
	.st18{fill:#098C82;}
	.st19{clip-path:url(#SVGID_2_);}
	.st20{fill:none;stroke:#10BFBB;stroke-width:2;stroke-miterlimit:10;}
	.st21{fill:#5B6B57;}
	.st22{fill:#892B2B;}
	.st23{fill:#E54141;}
	.st24{fill:#3D3F3F;}
	.st25{fill:url(#XMLID_11_);}
	.st26{fill:url(#XMLID_12_);}
	.st27{fill:#90B2AE;}
	.st28{fill:#DDDDDD;}
	.st29{opacity:0.72;fill:#90B2AE;enable-background:new    ;}
	.st30{fill:#0D726D;}
	.st31{fill:none;stroke:#0D726D;stroke-width:3;stroke-miterlimit:10;}
	.st32{fill:#0AA098;}
	.st33{fill:#CE3F0D;}
	.st34{fill:none;stroke:#10BFBB;stroke-width:2.5;stroke-linecap:round;stroke-miterlimit:10;}
	.st35{fill:#0A9187;}
	.st36{opacity:0.59;fill:#892913;enable-background:new    ;}
	.st37{fill:url(#XMLID_13_);}
	.st38{opacity:0.54;fill:url(#XMLID_14_);enable-background:new    ;}
	.st39{opacity:0.54;fill:url(#XMLID_15_);enable-background:new    ;}
	.st40{opacity:0.54;fill:url(#XMLID_16_);enable-background:new    ;}
	.st41{clip-path:url(#SVGID_4_);}
	.st42{fill:none;stroke:#CE3F0D;stroke-width:2;stroke-miterlimit:10;}
	.st43{fill:none;stroke:#10BFBB;stroke-width:2.6;stroke-miterlimit:10;}
	.st44{fill:#FF8A61;}
	.st45{fill:none;stroke:#266A6D;stroke-width:2;stroke-miterlimit:10;}
	.st46{opacity:0.45;fill:url(#XMLID_17_);enable-background:new    ;}
</style>
<g>
	<polygon id="XMLID_250_" class="st0" points="269.7,181.1 273.4,201 308.2,194.7 305.2,172.6 	"/>
	<g id="XMLID_361_">
		<path id="XMLID_363_" class="st0" d="M484.1,159c2.9,0.2,5.9-0.3,8.6-1.4c-0.2-1.9-0.4-3.7-0.8-5.4c-2.7,1-5.7,1.5-8.5,1.5
			C483.6,155.4,483.8,157.2,484.1,159z"/>
		<path id="XMLID_364_" class="st0" d="M482.9,151c2.9,0,5.9-0.5,8.5-1.6c-0.3-2-0.8-3.8-1.3-5.7c-2.6,1.3-5.4,2.2-8.4,2.4
			C482.2,147.7,482.6,149.4,482.9,151z"/>
		<path id="XMLID_365_" class="st0" d="M479.9,139.6c0.4,1.3,0.9,2.6,1.2,3.9c2.9-0.2,5.8-1.1,8.4-2.4c-0.5-1.7-1.1-3.5-1.6-5.2
			C485.4,137.6,482.8,138.9,479.9,139.6z"/>
		<path id="XMLID_366_" class="st0" d="M381.8,78.8c1.9,0.1,3.7,0.2,5.6,0.4c0.9-2.8,0.9-5.9,0.2-8.7c-1.9-0.2-3.7-0.3-5.6-0.4
			c0.3,1.5,0.4,2.9,0.3,4.1C382.3,75.8,382.1,77.4,381.8,78.8z"/>
		<path id="XMLID_367_" class="st0" d="M406.1,73.5c-2.3-0.5-4.5-1-6.6-1.3c0.2,2.9-0.2,5.9-1.3,8.6c2.1,0.3,4.1,0.8,6.3,1.3
			C405.7,79.4,406.4,76.4,406.1,73.5z"/>
		<path id="XMLID_368_" class="st0" d="M396.7,71.7c-2.2-0.3-4.4-0.7-6.5-0.9c0.5,2.8,0.4,5.9-0.3,8.7c1.9,0.2,3.7,0.4,5.6,0.8
			C396.6,77.6,397,74.6,396.7,71.7z"/>
		<path id="XMLID_369_" class="st0" d="M493.3,174.4c0-1.9,0.1-3.8,0-5.7c-2,0.7-4,1.2-6.2,1.2l0,0c-0.9,0-1.6-0.1-2.4-0.2
			c0,2.7-0.1,5.3-0.2,8.1L493.3,174.4z"/>
		<path id="XMLID_370_" class="st0" d="M483.5,125.7c-0.9-1.7-1.9-3.5-2.8-5.1c-0.2,0.3-0.5,0.5-0.8,0.9c-1.9,1.9-3.8,3.5-6,5
			c0.8,1.4,1.5,2.8,2.3,4.4C478.9,129.4,481.4,127.8,483.5,125.7z"/>
		<path id="XMLID_371_" class="st0" d="M479,137.2c2.7-0.5,5.3-2,7.8-3.8c0-0.1-0.1-0.1-0.1-0.2c-0.7-1.6-1.3-3.3-2.1-4.9
			c-2.2,2-4.7,3.7-7.4,4.9c0.4,1.1,0.9,2.1,1.3,3.2C478.8,136.5,478.9,136.8,479,137.2z"/>
		<path id="XMLID_372_" class="st0" d="M453.4,97.9c0.7-1.1,1.5-2.9,1.4-4.6c-1.5-1.1-3.2-2.1-4.9-3.2c-0.5,2.9-1.6,5.8-3.2,8.3
			c1.5,1,2.9,2,4.4,2.9C451.9,100.3,452.7,99.3,453.4,97.9z"/>
		<path id="XMLID_373_" class="st0" d="M440.8,85.3c-2.1-1-4.2-2.1-6.5-2.9c-0.2,2.9-1,5.9-2.4,8.5c1.9,0.9,3.7,1.6,5.6,2.6
			c0.9-1.6,1.7-3.4,2.4-5.1C440.4,87.2,440.7,86.2,440.8,85.3z"/>
		<path id="XMLID_374_" class="st0" d="M426.3,79.3c0,2.1-0.5,4-1,5.6c-0.3,1-0.8,2-1.3,2.9c1.9,0.7,3.7,1.4,5.6,2.1
			c1.4-2.6,2.2-5.6,2.2-8.5C430,80.6,428.2,80,426.3,79.3z"/>
		<path id="XMLID_375_" class="st0" d="M443.3,86.6c-0.2,1-0.5,2-0.9,2.7c-0.8,1.9-1.6,3.6-2.5,5.2c1.6,0.9,3.2,1.7,4.7,2.6
			c1.6-2.5,2.6-5.4,3.1-8.4C446.1,88,444.7,87.3,443.3,86.6z"/>
		<path id="XMLID_376_" class="st0" d="M478.1,119.5c0.4-0.4,0.9-0.9,1.2-1.3c-1.2-1.9-2.4-3.6-3.7-5.3c-1.6,2.5-3.7,4.7-6,6.5
			c1.1,1.5,2.2,3.1,3.2,4.7C474.6,122.7,476.4,121.3,478.1,119.5z"/>
		<path id="XMLID_377_" class="st0" d="M461.7,98.6c-1.4-1.2-2.9-2.4-4.5-3.5c-0.2,1.3-0.8,2.6-1.5,4.1c-0.8,1.3-1.6,2.6-2.5,3.8
			c1.4,1.1,2.7,2.1,4,3.2C459.2,104,460.7,101.4,461.7,98.6z"/>
		<path id="XMLID_378_" class="st0" d="M459.2,108c1.1,1,2.1,2,3.1,2.9c1-0.9,2-1.7,2.8-2.7c0.9-1,2-2.5,2.6-4.1
			c-1.2-1.2-2.5-2.4-3.9-3.6C462.8,103.2,461.2,105.8,459.2,108z"/>
		<path id="XMLID_379_" class="st0" d="M473.8,110.7c-1.3-1.6-2.6-3.2-4.1-4.7c-0.7,1.3-1.5,2.6-2.6,3.9c-1,1.1-2,2-3.1,2.8
			c1.3,1.4,2.6,2.9,3.8,4.5C470.2,115.5,472.2,113.2,473.8,110.7z"/>
		<path id="XMLID_380_" class="st0" d="M487.1,167.3L487.1,167.3c2.1,0,4.1-0.7,6.2-1.3c-0.1-2-0.2-3.9-0.3-5.8
			c-2.5,0.9-5.1,1.4-7.7,1.4c-0.3,0-0.5,0-0.9,0c0.1,1.9,0.2,3.7,0.3,5.4C485.5,167.2,486.2,167.3,487.1,167.3z"/>
		<path id="XMLID_381_" class="st0" d="M343.1,74.7c-1.7,0.5-3.4,1.1-5,1.6c1.9,2.2,3.3,4.8,4,7.6c1.6-0.5,3.2-1.1,4.8-1.5
			C346.2,79.6,344.9,76.9,343.1,74.7z"/>
		<path id="XMLID_382_" class="st0" d="M412.4,84c1.5-2.5,2.5-5.4,2.5-8.3c-2.1-0.5-4.1-1.1-6.2-1.6c0.1,2.9-0.4,5.9-1.6,8.5
			C408.8,83.1,410.5,83.6,412.4,84z"/>
		<path id="XMLID_383_" class="st0" d="M361.7,73.1c-0.2-0.7-0.5-1.4-1-2.2c-2,0.2-3.8,0.5-5.7,0.9c1.5,2.5,2.5,5.3,2.7,8.2
			c1.6-0.3,3.4-0.5,5-0.8C362.8,77.1,362.5,75.1,361.7,73.1z"/>
		<path id="XMLID_384_" class="st0" d="M335.3,77.4c-1.6,0.7-3.2,1.3-4.7,2c1.9,2.2,3.2,4.8,4,7.6c1.6-0.8,3.3-1.4,4.9-2.1
			C338.8,82,337.4,79.4,335.3,77.4z"/>
		<path id="XMLID_385_" class="st0" d="M328.3,80.5c-1.9,0.9-3.6,1.9-5.3,2.8c2.2,2,3.8,4.5,4.9,7.2c1.5-0.9,3.1-1.6,4.6-2.4
			C331.5,85.3,330.1,82.7,328.3,80.5z"/>
		<path id="XMLID_386_" class="st0" d="M484.3,180.7c-3.5,43.9-27.8,85.4-28.1,86l7.5,4.5c0.4-0.8,11.7-19.8,20.3-46.4
			c5.4-16.8,8.5-32.8,9.3-47.6L484.3,180.7z"/>
		<path id="XMLID_387_" class="st0" d="M422.8,83.9c0.7-2,1-3.8,0.9-5.6c-1.6-0.5-3.2-1.1-4.8-1.5c-0.4-0.1-0.9-0.2-1.3-0.3
			c-0.2,2.9-1,5.8-2.5,8.4c0.4,0.1,0.9,0.2,1.3,0.4c1.7,0.5,3.5,1.1,5.2,1.6C422.1,85.9,422.5,84.9,422.8,83.9z"/>
		<path id="XMLID_388_" class="st0" d="M279.5,127.1c-7,11.8-9.9,20.9-10.1,21.5l8.3,2.6c0-0.1,3.4-10.1,11.2-22.8
			C285.8,127.7,282.6,127.1,279.5,127.1z"/>
		<path id="XMLID_389_" class="st0" d="M379.7,74.3c0-1.2-0.1-2.7-0.5-4.2c-2.3-0.1-4.5-0.1-6.6,0c0.9,2.7,1.3,5.7,1.1,8.6
			c1.7,0,3.6,0,5.4,0.1C379.5,77.2,379.7,75.7,379.7,74.3z"/>
		<path id="XMLID_390_" class="st0" d="M352.2,72.3c-2.2,0.4-4.4,1-6.5,1.5c1.7,2.3,3.1,5,3.7,7.8c2-0.5,3.8-1,5.8-1.3
			C355.1,77.6,354,74.6,352.2,72.3z"/>
		<path id="XMLID_391_" class="st0" d="M292.5,123c-2.8-1.2-5.9-2.1-9-2.3c-0.9,1.3-1.7,2.6-2.5,3.9c3.2,0.1,6.3,0.8,9.3,1.7
			C291,125.2,291.7,124.1,292.5,123z"/>
		<path id="XMLID_392_" class="st0" d="M320.5,84.7c-2,1.2-3.8,2.3-5.6,3.6c2.3,1.9,4.2,4,5.7,6.5c1.5-1.1,3.2-2.1,4.8-3.1
			C324.5,89,322.8,86.5,320.5,84.7z"/>
		<path id="XMLID_393_" class="st0" d="M364.2,72.2c0.8,2.2,1.2,4.5,1.3,6.9c1.9-0.1,3.7-0.2,5.6-0.3c0.2-2.9-0.2-5.9-1.2-8.6
			c-2.2,0.1-4.2,0.2-6.3,0.4C363.8,71.1,364,71.7,364.2,72.2z"/>
		<path id="XMLID_394_" class="st0" d="M288.3,113.9c-1.1,1.4-2.2,2.9-3.2,4.4c3.1,0.4,6.1,1.3,8.9,2.6c0.8-1.1,1.6-2.2,2.5-3.3
			C294.1,115.8,291.2,114.6,288.3,113.9z"/>
		<path id="XMLID_395_" class="st0" d="M293.7,107.3c-1.3,1.4-2.5,2.9-3.7,4.4c2.8,0.9,5.7,2.2,8.2,3.8c0.9-1.1,1.9-2.2,2.8-3.4
			C299,110,296.5,108.3,293.7,107.3z"/>
		<path id="XMLID_396_" class="st0" d="M305.9,95.2c-1.3,1.2-2.6,2.3-3.8,3.5c2.6,1.4,4.9,3.3,6.8,5.7c1.2-1.1,2.5-2.3,3.7-3.3
			C310.8,98.6,308.5,96.5,305.9,95.2z"/>
		<path id="XMLID_397_" class="st0" d="M312.7,89.8c-1.6,1.2-3.2,2.4-4.7,3.6c2.5,1.5,4.8,3.5,6.5,5.9c1.3-1.1,2.6-2.1,3.9-3.1
			C317,93.8,315.1,91.5,312.7,89.8z"/>
		<path id="XMLID_398_" class="st0" d="M300,100.6c-1.5,1.5-3.1,3.1-4.5,4.6c2.7,1.2,5.2,2.9,7.3,5c1.3-1.4,2.6-2.7,4-4.1l0,0
			C305.1,103.7,302.7,101.9,300,100.6z"/>
	</g>
	<path id="XMLID_8_" class="st1" d="M309.3,418.6c0,0-16.5,55.2-11.5,107.5c0,0-40.5,29.7-87.6,0.9l0,0c0,0,10.9-72.5,52.3-108.4
		S309.3,418.6,309.3,418.6z"/>
	<path id="XMLID_3_" class="st2" d="M338.7,417.9c0,0,29.7,38.2,29.2,109.1c0,0,47.8,33.6,91.4-7.4c0,0-11.7-72.5-74.3-112.8
		S338.7,417.9,338.7,417.9z"/>
	<polygon id="XMLID_2_" class="st3" points="236.3,178.9 256.8,357.7 394.8,338.5 388.8,373.9 177.5,403.9 158.4,189.2 	"/>
	<path id="XMLID_1_" class="st3" d="M372.5,120.2l55.6-0.1c0,0,29.4-3.3,36.5,20.7c7.1,24,18,231,18,231s2.2,20.2-28.3,30.5
		L383.1,414l13.4-48.3L372.5,120.2z"/>
	<path id="XMLID_21_" class="st4" d="M410.6,120.1c0,0,19.6,3.3,22.3,25.6l6.3,66.5l5.3-25.3l-4.2-41.7c0,0-4.7-22.4-18.5-24.5
		L410.6,120.1z"/>
	<path id="XMLID_27_" class="st4" d="M444.2,320.9l3.7,49c0,0,2.3,20.7-21.9,37l14.3-2.4c0,0,17.4-8.8,17.4-31.7l-4.7-56.9
		L444.2,320.9z"/>
	<path id="XMLID_32_" class="st5" d="M442.2,180.2c0,0-2.6-30.6-3.3-35.4s-4.5-17.4-13.1-21.4c0,0-4.6-1.9-9.9-1.6l-5.3-1.7
		c0,0,14.2-1.6,20,3.1c4.8,3.8,9.4,10,10.8,19.4c1.4,9.5,3.2,36.3,3.2,36.3L442.2,180.2z"/>
	
		<linearGradient id="XMLID_6_" gradientUnits="userSpaceOnUse" x1="421.256" y1="525.027" x2="434.2286" y2="577.0574" gradientTransform="matrix(1 0 0 -1 0 700)">
		<stop  offset="0" style="stop-color:#80ED3F"/>
		<stop  offset="1" style="stop-color:#8DC63F;stop-opacity:0"/>
	</linearGradient>
	<path id="XMLID_31_" class="st6" d="M442.2,180.2c0,0-2.6-30.6-3.3-35.4s-4.5-17.4-13.1-21.4c0,0-4.6-1.9-9.9-1.6l-5.3-1.7
		c0,0,14.2-1.6,20,3.1c4.8,3.8,9.4,10,10.8,19.4c1.4,9.5,3.2,36.3,3.2,36.3L442.2,180.2z"/>
	<path id="XMLID_33_" class="st7" d="M451.7,320.9l3.6,51.2c0,0,0.5,16.3-10.6,26.4c0,0-3.7,3.7-14.5,5.4l-4.1,3.1
		c0,0,12.7-0.2,18.6-3.8c7.1-4.4,15.6-17.3,14.6-32.7c-1.9-23.1-3.9-51.6-3.9-51.6L451.7,320.9z"/>
	
		<linearGradient id="XMLID_9_" gradientUnits="userSpaceOnUse" x1="425.3055" y1="363.9064" x2="459.1817" y2="305.231" gradientTransform="matrix(1 0 0 -1 0 700)">
		<stop  offset="0" style="stop-color:#80ED3F"/>
		<stop  offset="1" style="stop-color:#8DC63F;stop-opacity:0"/>
	</linearGradient>
	<path id="XMLID_34_" class="st8" d="M451.7,320.9l3.6,51.2c0,0,0.5,16.3-10.6,26.4c0,0-3.7,3.7-14.5,5.4l-4.1,3.1
		c0,0,12.7-0.2,18.6-3.8c7.1-4.4,15.6-17.3,14.6-32.7c-1.9-23.1-3.9-51.6-3.9-51.6L451.7,320.9z"/>
	<path id="XMLID_40_" class="st4" d="M366,527.5l-0.9,17.6c0,0,23.8,19.1,60.9,12.5c0,0,26.4-3.7,37.3-20.6l-2.3-17.5l-1.1-3.2
		c0,0-18,18.6-37.9,20.8c-18.2,2-43-3.1-55.3-13.3L366,527.5z"/>
	<path id="XMLID_54_" class="st3" d="M407.6,424.6c0,0-18.1,11.8-56.8,14.9c0,0-4.2-11.9-7.8-18l46.6-7.4l4.4-1L407.6,424.6z"/>
	<path id="XMLID_30_" class="st4" d="M371,417.4c0,0,58,55.7,62.5,118.5l12.9-6.2c0,0-7.4-58.5-65.9-113.7L371,417.4z"/>
	<path id="XMLID_50_" class="st3" d="M379.6,416c0,0,51.2,48.4,60.8,108.5l6.1,3.2c0,0-3.1-33.7-32.1-77.2c0,0-16.1-22.9-29.2-35.4
		L379.6,416z"/>
	
		<linearGradient id="XMLID_10_" gradientUnits="userSpaceOnUse" x1="413.0272" y1="172.3648" x2="413.0272" y2="285.0166" gradientTransform="matrix(1 0 0 -1 0 700)">
		<stop  offset="0" style="stop-color:#49313F"/>
		<stop  offset="1" style="stop-color:#8DC63F;stop-opacity:0"/>
	</linearGradient>
	<path id="XMLID_52_" class="st9" d="M379.6,416c0,0,51.2,48.4,60.8,108.5l6.1,3.2c0,0-3.1-33.7-32.1-77.2c0,0-16.1-22.9-29.2-35.4
		L379.6,416z"/>
	<path id="XMLID_48_" class="st10" d="M242.1,442.1c0,0,28.5,5.3,60.6,5.3l4.4-20.4l-61.1,8.4L242.1,442.1z"/>
	<g id="XMLID_93_">
		<path id="XMLID_209_" class="st11" d="M37.6,291.5c-1.9-3.3-3.7-6.6-5.4-9.9c2.2-4.5,4.4-8.8,6.5-13.2c3.9-1,8-1.6,12-2.3
			c1.9,3.5,3.8,7,5.8,10.5c-2.2,3.9-4.4,8.1-6.5,12.2C45.8,289.6,41.6,290.5,37.6,291.5z"/>
		<path id="XMLID_118_" class="st11" d="M56.4,276.6c-2-3.5-3.8-7-5.8-10.5c2.2-4,4.2-8.1,6.4-12c4-0.3,8.1-0.5,12.1-0.5
			c2,3.7,3.9,7.3,6,11c-2.1,3.6-4.1,7.2-6.3,11C64.7,275.9,60.6,276.2,56.4,276.6z"/>
		<path id="XMLID_117_" class="st11" d="M75.1,286.4c-2.1-3.6-4.1-7.2-6.1-10.8c2.2-3.7,4.2-7.4,6.3-11c4.1,0.1,8.2,0.3,12.3,0.8
			c2.1,3.8,4.1,7.5,6.3,11.3c-2.1,3.3-4,6.5-6.1,10C83.5,286.5,79.2,286.4,75.1,286.4z"/>
		<path id="XMLID_116_" class="st11" d="M55.8,299.1c-2-3.4-3.9-6.9-5.9-10.2c2.2-4.1,4.4-8.2,6.5-12.2c4.1-0.4,8.3-0.8,12.4-1
			c2.1,3.6,4,7.2,6.1,10.8c-2.2,3.6-4.2,7.4-6.4,11.1C64.3,297.9,60,298.4,55.8,299.1z"/>
		<path id="XMLID_115_" class="st11" d="M74.9,308.2c-2.2-3.5-4.2-7.1-6.3-10.6c2.2-3.8,4.4-7.5,6.4-11.1c4.2,0,8.4,0.1,12.6,0.4
			c2.2,3.7,4.2,7.4,6.4,11.2c-2.1,3.3-4.1,6.8-6.3,10.1C83.6,308,79.2,308,74.9,308.2z"/>
		<path id="XMLID_114_" class="st11" d="M17.1,333.4c-1.7-3.1-3.5-6.1-5.2-9c2.3-5,4.6-9.9,6.8-14.7c4-1.7,8.1-3.3,12.1-4.6
			c1.9,3.2,3.7,6.4,5.6,9.7c-2.3,4.5-4.6,9-6.9,13.7C25.4,329.8,21.3,331.5,17.1,333.4z"/>
		<path id="XMLID_113_" class="st11" d="M36.5,314.6c-1.9-3.3-3.8-6.4-5.6-9.7c2.3-4.6,4.5-9,6.8-13.4c4-1.1,8.2-2,12.3-2.7
			c2,3.4,3.9,6.8,5.9,10.2c-2.2,4-4.5,8.2-6.8,12.4C44.9,312.4,40.6,313.3,36.5,314.6z"/>
		<path id="XMLID_112_" class="st11" d="M55.1,321.4c-2.1-3.4-4-6.6-6.1-10c2.3-4.2,4.5-8.4,6.8-12.4c4.2-0.7,8.5-1.1,12.7-1.4
			c2.1,3.5,4.1,7.1,6.3,10.6c-2.2,3.7-4.4,7.5-6.6,11.3C63.9,320,59.5,320.6,55.1,321.4z"/>
		<path id="XMLID_111_" class="st11" d="M35.3,337.7c-2-3.2-3.9-6.3-5.8-9.4c2.3-4.7,4.6-9.3,6.9-13.7c4.1-1.3,8.4-2.3,12.6-3.3
			c2,3.3,4,6.6,6.1,10c-2.3,4.1-4.6,8.3-6.9,12.6C43.9,335.1,39.7,336.3,35.3,337.7z"/>
		<path id="XMLID_110_" class="st11" d="M54.5,343.7c-2.1-3.3-4.1-6.5-6.2-9.8c2.3-4.2,4.6-8.5,6.9-12.6c4.4-0.8,8.7-1.4,13.1-1.9
			c2.2,3.5,4.2,6.9,6.4,10.4c-2.3,3.8-4.5,7.6-6.8,11.5C63.4,342.1,58.9,342.9,54.5,343.7z"/>
		<path id="XMLID_109_" class="st11" d="M94.1,298.1c-2.2-3.7-4.4-7.5-6.4-11.2c2.1-3.4,4.1-6.8,6.1-10c4.1,0.5,8.3,1.3,12.4,2.2
			c2.2,3.9,4.4,7.8,6.5,11.8c-2,2.9-3.9,6-5.9,9C102.6,299.1,98.4,298.5,94.1,298.1z"/>
		<path id="XMLID_108_" class="st11" d="M112.8,290.9c-2.2-3.9-4.4-7.8-6.5-11.8c2-3.1,3.8-6,5.8-8.8c4,1.1,8.1,2.4,12,3.9
			c2.2,4.1,4.4,8.3,6.5,12.4c-1.7,2.6-3.6,5.2-5.4,8C121,293.1,116.9,291.9,112.8,290.9z"/>
		<path id="XMLID_107_" class="st11" d="M131.8,306.7c-2.3-4.1-4.5-8.2-6.8-12.3c1.9-2.7,3.7-5.3,5.4-8c4,1.6,8,3.4,11.8,5.3
			c2.2,4.2,4.5,8.6,6.6,13c-1.6,2.3-3.4,4.6-5,7C140,309.8,136,308.2,131.8,306.7z"/>
		<path id="XMLID_106_" class="st11" d="M113.6,311.5c-2.3-3.9-4.5-7.7-6.8-11.7c2-3.1,3.9-6.1,5.9-9c4.1,1,8.3,2.2,12.3,3.6
			c2.2,4,4.5,8.2,6.8,12.3c-1.9,2.6-3.7,5.3-5.6,8.1C122,313.6,117.9,312.5,113.6,311.5z"/>
		<path id="XMLID_105_" class="st11" d="M133.1,327c-2.3-4-4.6-8.1-6.9-12.1c1.9-2.7,3.8-5.4,5.6-8.1c4.1,1.5,8.2,3.2,12.1,5
			c2.3,4.2,4.6,8.5,6.8,12.9c-1.7,2.3-3.4,4.7-5.2,7.1C141.4,329.9,137.3,328.4,133.1,327z"/>
		<path id="XMLID_104_" class="st11" d="M74.7,330c-2.2-3.5-4.4-7-6.4-10.4c2.3-3.9,4.5-7.6,6.6-11.3c4.4-0.2,8.6-0.2,13,0
			c2.2,3.7,4.4,7.3,6.6,11c-2.2,3.4-4.2,6.9-6.4,10.4C83.6,329.6,79.1,329.7,74.7,330z"/>
		<path id="XMLID_103_" class="st11" d="M94.5,319.2c-2.3-3.7-4.5-7.3-6.6-11c2.2-3.5,4.2-6.9,6.3-10.1c4.2,0.4,8.5,1,12.7,1.9
			c2.2,3.8,4.5,7.7,6.8,11.7c-2,2.9-4,6.1-6.1,9.2C103.2,320,98.8,319.5,94.5,319.2z"/>
		<path id="XMLID_102_" class="st11" d="M114.4,332.2c-2.3-3.8-4.6-7.6-6.9-11.4c2.1-3.2,4-6.2,6.1-9.2c4.2,0.9,8.5,2,12.6,3.3
			c2.3,4,4.6,8.1,6.9,12.1c-1.9,2.6-3.8,5.4-5.8,8.2C123.1,333.9,118.8,332.9,114.4,332.2z"/>
		<path id="XMLID_101_" class="st11" d="M94.8,340.4c-2.3-3.6-4.6-7.2-6.8-10.8c2.2-3.5,4.4-7,6.4-10.4c4.4,0.3,8.7,0.8,13.1,1.4
			c2.3,3.8,4.6,7.6,6.9,11.4c-2.1,3.1-4.1,6.2-6.2,9.4C103.7,341,99.3,340.6,94.8,340.4z"/>
		<path id="XMLID_100_" class="st11" d="M34.2,360.8c-2-3.1-4-6.1-5.9-9.2c2.4-4.7,4.7-9.4,7.1-13.9c4.2-1.4,8.6-2.6,13-3.7
			c2.1,3.3,4.1,6.5,6.2,9.8c-2.3,4.2-4.7,8.5-7.1,12.9C43,357.8,38.6,359.2,34.2,360.8z"/>
		<path id="XMLID_99_" class="st11" d="M14,381.1c-1.9-2.8-0.5-4.8-2.4-7.6c2.4-5.2,1.6-11.2,3.9-16.2c4.1-2.1,8.4-3.9,12.7-5.7
			c2,3.1,3.9,6.1,5.9,9.2c-2.4,4.7-4.8,9.4-7.2,14.2C22.6,376.9,18.3,378.9,14,381.1z"/>
		<path id="XMLID_98_" class="st11" d="M33,383.9c-2.1-2.9-4-6-6.1-8.9c2.4-4.8,4.8-9.6,7.2-14.2c4.4-1.5,8.8-2.9,13.3-4.1
			c2.1,3.2,4.2,6.3,6.4,9.6c-2.4,4.2-4.8,8.6-7.2,13.1C42.1,380.6,37.6,382.2,33,383.9z"/>
		<path id="XMLID_97_" class="st11" d="M53.9,366.2c-2.2-3.2-4.2-6.3-6.4-9.6c2.4-4.4,4.7-8.6,7.1-12.9c4.5-1,8.9-1.6,13.4-2.3
			c2.2,3.4,4.4,6.8,6.6,10.1c-2.3,3.8-4.6,7.7-7,11.8C63,364.2,58.4,365.1,53.9,366.2z"/>
		<path id="XMLID_96_" class="st11" d="M74.5,351.7c-2.3-3.4-4.5-6.8-6.6-10.1c2.3-3.9,4.6-7.8,6.8-11.5c4.5-0.3,8.8-0.4,13.3-0.3
			c2.3,3.6,4.5,7.2,6.8,10.8c-2.2,3.5-4.4,7-6.6,10.6C83.7,351,79.1,351.2,74.5,351.7z"/>
		<path id="XMLID_95_" class="st11" d="M95.1,361.6c-2.4-3.6-4.7-7.1-7-10.7c2.3-3.6,4.5-7.1,6.6-10.6c4.5,0.2,8.9,0.5,13.4,1.1
			c2.3,3.7,4.7,7.5,7.1,11.3c-2.1,3.1-4.2,6.3-6.4,9.5C104.3,361.9,99.7,361.6,95.1,361.6z"/>
		<path id="XMLID_94_" class="st11" d="M74.4,373.5c-2.3-3.4-4.6-6.6-6.8-9.9c2.4-4,4.7-8,7-11.8c4.6-0.4,9-0.7,13.6-0.8
			c2.3,3.5,4.6,7.1,7,10.7c-2.3,3.5-4.5,7.1-6.8,10.7C83.7,372.5,79,372.8,74.4,373.5z"/>
	</g>
	<polygon id="XMLID_220_" class="st11" points="17.1,333.4 15.3,345.4 47.1,351.2 46.4,309.4 	"/>
	<path id="XMLID_184_" class="st12" d="M69.2,253.2l3.7,6.2l-6.3,8.7l6.3,11.4l-6.3,10.7H53.8l-7.6,10.4l7.6,12.1l-6.3,10.6l-15.3,2
		l-6.5,13.1l-11.1,4.5c-11.7,48.5-3.1,92-3.1,92c50.1-39.7,113.9-36.5,113.9-36.5c-9.3-55.8,24.5-65.4,24.5-65.4l10.9-100.2
		C160.8,232.4,130,200.9,69.2,253.2z"/>
	<path id="XMLID_4_" class="st2" d="M360.8,121.9l-207.3,33.3c-14.5,2.3-24.8,17.2-23.2,33l25.1,221.2c1.6,15.8,16.1,36,43.9,31.8
		l187.4-27.8c20.4-2.9,30.9-22.4,30.9-44.3l-14.1-219.2C402.5,133.8,386.1,115.7,360.8,121.9z M374.8,354.7l-182.1,27.9L172,196.4
		L359.9,166L374.8,354.7z"/>
	<path id="XMLID_222_" class="st3" d="M134.1,221.4l-18.4,3.8l-13.9,5.9c0,0,29.1,27.8,31.5,114.8c0,0,6.8-7.3,12.7-9.8L134.1,221.4
		z"/>
	<polygon id="XMLID_228_" class="st13" points="200.7,193.8 217.8,372.8 224.3,370.3 207,192.8 	"/>
	<polygon id="XMLID_231_" class="st13" points="209.4,192.8 227.1,369.1 232.9,366.7 215.5,192.1 	"/>
</g>
<g id="Layer_3">
	<g id="XMLID_7_">
		<g id="XMLID_18_">
			<path id="XMLID_60_" class="st14" d="M523.4,412.6c-4.7-5.4-5-10.7-3.4-15.4c4.2-9.4,16.5-16.8,17.4-17.3l0,0l3.3-6.5
				c-9.8-78.4-68.1-72.5-68.1-72.5s-26.1-8.4-28-54.1s37.3-57,37.3-57s64.3-11.4,123.1,55c6.6,7.5,12.5,14.9,17.6,22.1
				c0,0,0,0.1,0.1,0.1c3.3,4.6,6.2,9.2,8.9,13.5l0,0c8.1,14.1,19.7,39.2,27,76.4c0.7,3.3,1.2,6.5,1.9,9.9c0,0,20.8,2,29.5,15.6
				c8.7,13.6-1.5,18.5-1.5,18.5c2.4,3.1,4,6.4,4.2,10.4c1.1,17.4-26.1,12-30.5,9.3c-4.4-2.7-6.3-4-6.3-4l-1-0.1
				c-8.7,6.6-27.1-2.1-31.9-6c-2.4-2-4.4-4.1-6-6.1c-8.2,1.3-16.5-5-16.5-5c-3.8,1.2-7.5,1.4-9.3,1.6c-3.9,0.5-7.8-0.3-11.2-1.9
				c-1.4,0.4-3.1,0.8-4.7,0.9c-5.8,0.4-12.2-0.9-12.9-1l0,0l0,0c-0.9,1.1-14.2,17.5-26.9,18.6l0,0
				C530.3,417.4,526,414.7,523.4,412.6L523.4,412.6z"/>
			<path id="XMLID_38_" class="st14" d="M658.7,357c-7.3-37.3-19-62.3-27-76.4C651.9,313.8,657.4,341.9,658.7,357z"/>
			<path id="XMLID_37_" class="st14" d="M500.2,188.2c0,0,74,1.3,122.6,78.8c-5.1-7.2-11-14.6-17.6-22.1
				c-58.8-66.5-123.1-55-123.1-55s-39,11.2-37.3,57c1.9,45.8,28,54.1,28,54.1s58.3-6,68.1,72.5c-8.7-59.4-43-67.1-43-67.1
				s-4.2,13.3-19.9,19.5c-18.8,7.5-58.6-8.2-68.9-50.7c-10.1-42.5,6-100.4,45.2-105.9C487.8,164.4,500.2,188.2,500.2,188.2z"/>
			<path id="XMLID_61_" class="st14" d="M562.6,399.3c-10,15.5-19.5,19.2-26.9,18.6C548.4,416.7,561.7,400.3,562.6,399.3z"/>
			<path id="XMLID_58_" class="st14" d="M523.4,412.6c-1.7-1.5-2.7-2.7-2.7-2.7c-2.7-4.2-2.4-8.6-0.5-12.6
				C518.4,401.8,518.8,407,523.4,412.6z"/>
		</g>
		<g id="XMLID_19_">
			<path id="XMLID_49_" class="st15" d="M570.2,375.5c0,0,31.6-22.9,40,3.9c4.1,13.1-2.7,18-9.5,20c-3.8,1.2-7.5,1.4-9.3,1.6
				c-3.9,0.5-7.8-0.3-11.2-1.9c-5.8-2.5-10-6.5-10-6.5"/>
			<path id="XMLID_65_" class="st15" d="M535.6,417.8c7.4,0.7,16.9-3.1,26.9-18.6"/>
			<path id="XMLID_64_" class="st15" d="M520.1,397.2c-1.9,4-2.2,8.4,0.5,12.6c0,0,1,1.2,2.7,2.7"/>
			<path id="XMLID_59_" class="st15" d="M629.6,379.9c0,0,33.8,7.8,29.5,29.4c-0.7,3.4-2.2,5.8-4.1,7.3c-8.7,6.6-27.1-2.1-31.9-6
				c-2.4-2-4.4-4.1-6-6.1c-2.3-2.8-3.6-5-3.6-5"/>
			<path id="XMLID_39_" class="st15" d="M662.3,385.2c0,0,17.8,5.3,26.3,15.9c2.4,3.1,4,6.4,4.2,10.4c1.1,17.4-26.1,12-30.5,9.3
				c-4.4-2.7-6.3-4-6.3-4"/>
			<path id="XMLID_29_" class="st15" d="M600.7,399.5c0,0,8.2,6.3,16.5,5h0.1"/>
			<path id="XMLID_62_" class="st15" d="M579.3,399.5c-1.3,0.3-2.5,0.5-3.7,0.8c-7,1-12.3-0.8-12.9-1l0,0l0,0
				c-0.9,1.1-14.2,17.5-26.9,18.6l0,0c-4.2,0.3-8.5-1-12.2-5.3l0,0c-4.7-5.4-5-10.7-3.4-15.4c3.6-9.8,16.5-16.8,17.4-17.3l0,0
				l3.3-6.5c-8.7-59.4-43-67.1-43-67.1s-4.2,13.3-19.9,19.5c-18.8,7.5-58.6-8.2-68.9-50.7c-10.1-42.5,6-100.4,45.2-105.9
				c33.6-4.7,46,19.1,46,19.1s74,1.3,122.6,78.8c0,0,0,0.1,0.1,0.1c0.5,0.7,4.1,5.1,8.9,13.5l0,0c8.1,14.1,19.7,39.2,27,76.4
				c0.7,3.3,1.2,6.5,1.9,9.9c0,0,20.8,2,29.5,15.6c8.7,13.6-1.5,18.5-1.5,18.5"/>
		</g>
	</g>
	<path id="XMLID_51_" class="st4" d="M299.3,523.2L302,542c0,0-18.3,19.6-64.1,13.9c0,0-8.6,1.4-32.6-11.8l3.7-21
		C209.1,523.2,243.6,550.4,299.3,523.2z"/>
	<polygon id="XMLID_63_" class="st16" points="33.8,785.4 23.5,767.5 33.8,749.8 54.4,749.8 64.6,767.5 54.4,785.4 	"/>
	<polygon id="XMLID_68_" class="st16" points="64.6,767.5 54.4,749.8 64.6,732 85.2,732 95.4,749.8 85.2,767.5 	"/>
	<polygon id="XMLID_69_" class="st16" points="95.4,785.4 85.2,767.5 95.4,749.8 116,749.8 126.3,767.5 116,785.4 	"/>
	<polygon id="XMLID_70_" class="st16" points="64.6,803.2 54.4,785.4 64.6,767.5 85.2,767.5 95.4,785.4 85.2,803.2 	"/>
	<polygon id="XMLID_71_" class="st16" points="95.4,820.9 85.2,803.2 95.4,785.4 116,785.4 126.3,803.2 116,820.9 	"/>
	<polygon id="XMLID_76_" class="st16" points="3.1,838.8 -7.3,820.9 3.1,803.2 23.5,803.2 33.8,820.9 23.5,838.8 	"/>
	<polygon id="XMLID_75_" class="st16" points="33.8,820.9 23.5,803.2 33.8,785.4 54.4,785.4 64.6,803.2 54.4,820.9 	"/>
	<polygon id="XMLID_74_" class="st16" points="64.6,838.8 54.4,820.9 64.6,803.2 85.2,803.2 95.4,820.9 85.2,838.8 	"/>
	<polygon id="XMLID_73_" class="st16" points="33.8,856.5 23.5,838.8 33.8,820.9 54.4,820.9 64.6,838.8 54.4,856.5 	"/>
	<polygon id="XMLID_72_" class="st16" points="64.6,874.3 54.4,856.5 64.6,838.8 85.2,838.8 95.4,856.5 85.2,874.3 	"/>
	<polygon id="XMLID_81_" class="st16" points="126.3,803.2 116,785.4 126.3,767.5 146.9,767.5 157.1,785.4 146.9,803.2 	"/>
	<polygon id="XMLID_80_" class="st16" points="157.1,785.4 146.9,767.5 157.1,749.8 177.7,749.8 187.9,767.5 177.7,785.4 	"/>
	<polygon id="XMLID_79_" class="st16" points="187.9,803.2 177.7,785.4 187.9,767.5 208.5,767.5 218.8,785.4 208.5,803.2 	"/>
	<polygon id="XMLID_78_" class="st16" points="157.1,820.9 146.9,803.2 157.1,785.4 177.7,785.4 187.9,803.2 177.7,820.9 	"/>
	<polygon id="XMLID_77_" class="st16" points="187.9,838.8 177.7,820.9 187.9,803.2 208.5,803.2 218.8,820.9 208.5,838.8 	"/>
	<polygon id="XMLID_86_" class="st16" points="95.4,856.5 85.2,838.8 95.4,820.9 116,820.9 126.3,838.8 116,856.5 	"/>
	<polygon id="XMLID_85_" class="st16" points="126.3,838.8 116,820.9 126.3,803.2 146.9,803.2 157.1,820.9 146.9,838.8 	"/>
	<polygon id="XMLID_84_" class="st16" points="157.1,856.5 146.9,838.8 157.1,820.9 177.7,820.9 187.9,838.8 177.7,856.5 	"/>
	<polygon id="XMLID_83_" class="st16" points="126.3,874.3 116,856.5 126.3,838.8 146.9,838.8 157.1,856.5 146.9,874.3 	"/>
	<polygon id="XMLID_92_" class="st16" points="33.8,892.2 23.5,874.3 33.8,856.5 54.4,856.5 64.6,874.3 54.4,892.2 	"/>
	<polygon id="XMLID_91_" class="st16" points="3.1,909.9 -7.3,892.2 3.1,874.3 23.5,874.3 33.8,892.2 23.5,909.9 	"/>
	<polygon id="XMLID_90_" class="st16" points="33.8,927.7 23.5,909.9 33.8,892.2 54.4,892.2 64.6,909.9 54.4,927.7 	"/>
	<polygon id="XMLID_89_" class="st16" points="64.6,909.9 54.4,892.2 64.6,874.3 85.2,874.3 95.4,892.2 85.2,909.9 	"/>
	<polygon id="XMLID_88_" class="st16" points="95.4,892.2 85.2,874.3 95.4,856.5 116,856.5 126.3,874.3 116,892.2 	"/>
	<polygon id="XMLID_87_" class="st16" points="126.3,909.9 116,892.2 126.3,874.3 146.9,874.3 157.1,892.2 146.9,909.9 	"/>
	<polygon id="XMLID_82_" class="st16" points="95.4,927.7 85.2,909.9 95.4,892.2 116,892.2 126.3,909.9 116,927.7 	"/>
	<g id="XMLID_151_">
		<polygon id="XMLID_182_" class="st17" points="-343.1,482.7 -349.5,471.7 -343.1,460.7 -330.4,460.7 -324.1,471.7 -330.4,482.7 		
			"/>
		<polygon id="XMLID_181_" class="st17" points="-324.1,471.7 -330.4,460.7 -324.1,449.7 -311.4,449.7 -305,460.7 -311.4,471.7 		
			"/>
		<polygon id="XMLID_180_" class="st17" points="-305,482.7 -311.4,471.7 -305,460.7 -292.4,460.7 -286,471.7 -292.4,482.7 		"/>
		<polygon id="XMLID_179_" class="st17" points="-324.1,493.8 -330.4,482.7 -324.1,471.7 -311.4,471.7 -305,482.7 -311.4,493.8 		
			"/>
		<polygon id="XMLID_178_" class="st17" points="-305,504.6 -311.4,493.8 -305,482.7 -292.4,482.7 -286,493.8 -292.4,504.6 		"/>
		<polygon id="XMLID_177_" class="st17" points="-362.1,515.7 -368.5,504.6 -362.1,493.8 -349.5,493.8 -343.1,504.6 -349.5,515.7 		
			"/>
		<polygon id="XMLID_176_" class="st17" points="-343.1,504.6 -349.5,493.8 -343.1,482.7 -330.4,482.7 -324.1,493.8 -330.4,504.6 		
			"/>
		<polygon id="XMLID_175_" class="st17" points="-324.1,515.7 -330.4,504.6 -324.1,493.8 -311.4,493.8 -305,504.6 -311.4,515.7 		
			"/>
		<polygon id="XMLID_174_" class="st17" points="-343.1,526.7 -349.5,515.7 -343.1,504.6 -330.4,504.6 -324.1,515.7 -330.4,526.7 		
			"/>
		<polygon id="XMLID_173_" class="st17" points="-324.1,537.7 -330.4,526.7 -324.1,515.7 -311.4,515.7 -305,526.7 -311.4,537.7 		
			"/>
		<polygon id="XMLID_172_" class="st17" points="-286,493.8 -292.4,482.7 -286,471.7 -273.3,471.7 -267,482.7 -273.3,493.8 		"/>
		<polygon id="XMLID_171_" class="st17" points="-267,482.7 -273.3,471.7 -267,460.7 -254.3,460.7 -248,471.7 -254.3,482.7 		"/>
		<polygon id="XMLID_170_" class="st17" points="-248,493.8 -254.3,482.7 -248,471.7 -235.3,471.7 -228.9,482.7 -235.3,493.8 		"/>
		<polygon id="XMLID_169_" class="st17" points="-267,504.6 -273.3,493.8 -267,482.7 -254.3,482.7 -248,493.8 -254.3,504.6 		"/>
		<polygon id="XMLID_168_" class="st17" points="-248,515.7 -254.3,504.6 -248,493.8 -235.3,493.8 -228.9,504.6 -235.3,515.7 		"/>
		<polygon id="XMLID_167_" class="st17" points="-305,526.7 -311.4,515.7 -305,504.6 -292.4,504.6 -286,515.7 -292.4,526.7 		"/>
		<polygon id="XMLID_166_" class="st17" points="-286,515.7 -292.4,504.6 -286,493.8 -273.3,493.8 -267,504.6 -273.3,515.7 		"/>
		<polygon id="XMLID_165_" class="st17" points="-267,526.7 -273.3,515.7 -267,504.6 -254.3,504.6 -248,515.7 -254.3,526.7 		"/>
		<polygon id="XMLID_164_" class="st17" points="-286,537.7 -292.4,526.7 -286,515.7 -273.3,515.7 -267,526.7 -273.3,537.7 		"/>
		<polygon id="XMLID_159_" class="st17" points="-343.1,548.7 -349.5,537.7 -343.1,526.7 -330.4,526.7 -324.1,537.7 -330.4,548.7 		
			"/>
		<polygon id="XMLID_158_" class="st17" points="-362.1,559.7 -368.5,548.7 -362.1,537.7 -349.5,537.7 -343.1,548.7 -349.5,559.7 		
			"/>
		<polygon id="XMLID_157_" class="st17" points="-343.1,570.6 -349.5,559.7 -343.1,548.7 -330.4,548.7 -324.1,559.7 -330.4,570.6 		
			"/>
		<polygon id="XMLID_155_" class="st17" points="-324.1,559.7 -330.4,548.7 -324.1,537.7 -311.4,537.7 -305,548.7 -311.4,559.7 		
			"/>
		<polygon id="XMLID_154_" class="st17" points="-305,548.7 -311.4,537.7 -305,526.7 -292.4,526.7 -286,537.7 -292.4,548.7 		"/>
		<polygon id="XMLID_153_" class="st17" points="-286,559.7 -292.4,548.7 -286,537.7 -273.3,537.7 -267,548.7 -273.3,559.7 		"/>
		<polygon id="XMLID_152_" class="st17" points="-305,570.6 -311.4,559.7 -305,548.7 -292.4,548.7 -286,559.7 -292.4,570.6 		"/>
	</g>
	<g id="XMLID_344_">
		<polygon id="XMLID_135_" class="st18" points="14.2,433.8 35.2,410.2 91,390.8 123.1,398.6 102.7,424.8 47.1,444.1 		"/>
		<path id="XMLID_132_" class="st12" d="M91.1,392.2l29.6,7.3L102,423.6l-54.9,19l-30.4-9.5L36,411.3L91.1,392.2 M90.9,389.3
			l-56.5,19.6l-22.8,25.6l35.5,11l56.5-19.6l21.9-28.1L90.9,389.3L90.9,389.3z"/>
	</g>
	<g id="XMLID_287_">
		<g>
			<defs>
				<polygon id="SVGID_1_" points="11.6,434.5 48.6,444.8 103.6,426 125.5,397.8 100.5,381.8 37.4,387.9 				"/>
			</defs>
			<clipPath id="SVGID_2_">
				<use xlink:href="#SVGID_1_"  style="overflow:visible;"/>
			</clipPath>
			<g id="XMLID_289_" class="st19">
				<g id="XMLID_463_">
					<polygon id="XMLID_489_" class="st20" points="116.7,377.5 128,371.1 130.4,375.8 121.4,387.3 110.2,393.7 108,388.6 					"/>
					<polygon id="XMLID_488_" class="st20" points="110.2,393.7 121.4,387.3 123.6,392.4 114.2,404.3 103,410.6 101.1,405.2 					
						"/>
					<polygon id="XMLID_487_" class="st20" points="90.2,411.2 101.1,405.2 103,410.6 93.7,422.4 82.8,428.4 81.2,422.6 					"/>
					<polygon id="XMLID_486_" class="st20" points="97,394.7 108,388.6 110.2,393.7 101.1,405.2 90.2,411.2 88.3,405.8 					"/>
					<polygon id="XMLID_485_" class="st20" points="77.6,411.5 88.3,405.8 90.2,411.2 81.2,422.6 70.6,428.3 68.9,422.6 					"/>
					<polygon id="XMLID_484_" class="st20" points="108.8,363.8 120,357.6 122.7,361.9 114.2,372.8 103.2,378.9 100.7,374.2 					
						"/>
					<polygon id="XMLID_483_" class="st20" points="103.2,378.9 114.2,372.8 116.7,377.5 108,388.6 97,394.7 94.8,389.7 					"/>
					<polygon id="XMLID_482_" class="st20" points="84,395.5 94.8,389.7 97,394.7 88.3,405.8 77.6,411.5 75.6,406.2 					"/>
					<polygon id="XMLID_481_" class="st20" points="89.9,380.1 100.7,374.2 103.2,378.9 94.8,389.7 84,395.5 81.7,390.5 					"/>
					<polygon id="XMLID_480_" class="st20" points="71.4,395.9 81.7,390.5 84,395.5 75.6,406.2 65.3,411.6 63.2,406.4 					"/>
					<polygon id="XMLID_479_" class="st20" points="70.6,428.3 81.2,422.6 82.8,428.4 73.5,440.2 63,445.7 61.7,439.7 					"/>
					<polygon id="XMLID_478_" class="st20" points="63,445.7 73.5,440.2 74.9,446.3 65.4,458.3 54.8,463.9 53.7,457.5 					"/>
					<polygon id="XMLID_477_" class="st20" points="43.5,462.7 53.7,457.5 54.8,463.9 45.3,475.9 35.1,481.1 34.3,474.4 					"/>
					<polygon id="XMLID_476_" class="st20" points="51.3,444.9 61.7,439.7 63,445.7 53.7,457.5 43.5,462.7 42.4,456.3 					"/>
					<polygon id="XMLID_475_" class="st20" points="32.4,461.3 42.4,456.3 43.5,462.7 34.3,474.4 24.3,479.3 23.5,472.5 					"/>
					<polygon id="XMLID_474_" class="st20" points="65.3,411.6 75.6,406.2 77.6,411.5 68.9,422.6 58.5,427.9 56.9,422.3 					"/>
					<polygon id="XMLID_473_" class="st20" points="58.5,427.9 68.9,422.6 70.6,428.3 61.7,439.7 51.3,444.9 49.9,439 					"/>
					<polygon id="XMLID_472_" class="st20" points="39.9,444 49.9,439 51.3,444.9 42.4,456.3 32.4,461.3 31.3,454.9 					"/>
					<polygon id="XMLID_471_" class="st20" points="46.7,427.3 56.9,422.3 58.5,427.9 49.9,439 39.9,444 38.4,438 					"/>
					<polygon id="XMLID_470_" class="st20" points="76.8,381 87.4,375.4 89.9,380.1 81.7,390.5 71.4,395.9 69,391 					"/>
					<polygon id="XMLID_469_" class="st20" points="81.8,366.7 92.3,361.2 95.2,365.4 87.4,375.4 76.8,381 74.2,376.4 					"/>
					<polygon id="XMLID_468_" class="st20" points="64,381.6 74.2,376.4 76.8,381 69,391 58.8,396.2 56.4,391.3 					"/>
					<polygon id="XMLID_467_" class="st20" points="58.8,396.2 69,391 71.4,395.9 63.2,406.4 53.1,411.4 51,406.3 					"/>
					<polygon id="XMLID_466_" class="st20" points="53.1,411.4 63.2,406.4 65.3,411.6 56.9,422.3 46.7,427.3 45,421.7 					"/>
					<polygon id="XMLID_465_" class="st20" points="35.2,426.5 45,421.7 46.7,427.3 38.4,438 28.7,442.7 27.1,436.8 					"/>
					<polygon id="XMLID_464_" class="st20" points="41.1,411 51,406.3 53.1,411.4 45,421.7 35.2,426.5 33.3,421 					"/>
				</g>
			</g>
		</g>
	</g>
	<polygon id="XMLID_230_" class="st21" points="378.5,381.2 339.3,387 337.9,370.6 377.1,364.9 	"/>
	<path id="XMLID_236_" class="st22" d="M328.6,381.1c-0.4-4.2-3.9-7.3-7.7-6.9c-0.7,0.1-1.2,0.2-1.7,0.4l-2.6,0.8l0.2,1.1
		c-1.3,1.5-2.1,3.8-1.7,6.1c0.3,2.9,2.2,5.4,4.6,6.4l0.3,1.3l3.5-0.9l0,0c0.5-0.1,1.1-0.3,1.6-0.7l0,0l0,0
		C327.4,387.4,329,384.4,328.6,381.1z"/>
	
		<ellipse id="XMLID_232_" transform="matrix(0.9935 -0.1141 0.1141 0.9935 -41.5737 38.8862)" class="st23" cx="318.9" cy="382.6" rx="6.9" ry="7.7"/>
	<polygon id="XMLID_233_" class="st24" points="340.7,370.2 342.1,384.4 378.3,379.1 378.5,381.2 339.3,387 337.9,370.6 	"/>
	
		<linearGradient id="XMLID_11_" gradientUnits="userSpaceOnUse" x1="365.187" y1="158.8307" x2="413.2778" y2="158.8307" gradientTransform="matrix(1 0 0 -1 0 700)">
		<stop  offset="0" style="stop-color:#61AD55"/>
		<stop  offset="1" style="stop-color:#2484C6;stop-opacity:0"/>
	</linearGradient>
	<path id="XMLID_238_" class="st25" d="M366,523.2c0,0,10.6,9.5,30.6,13s16.5,1.6,16.5,1.6l-1.9,21.4c0,0-24.2,1.6-46-13.9
		C365.1,545.2,365.7,529.2,366,523.2z"/>
	
		<linearGradient id="XMLID_12_" gradientUnits="userSpaceOnUse" x1="301.9551" y1="159.9448" x2="249.1152" y2="159.9448" gradientTransform="matrix(1 0 0 -1 0 700)">
		<stop  offset="0" style="stop-color:#61AD55"/>
		<stop  offset="1" style="stop-color:#2484C6;stop-opacity:0"/>
	</linearGradient>
	<path id="XMLID_239_" class="st26" d="M299.3,523.2L302,542c0,0-10.2,13.4-47.4,14.9l-4.8-0.1l-0.7-21.7
		C249.1,535.3,272.2,537.1,299.3,523.2z"/>
	<g id="XMLID_57_">
		<path id="XMLID_242_" class="st27" d="M369.7,335.6l-9.3,1.1c-11.5-1.9-31.9-1.4-54.8,1.7c-22,3.1-41.1,7.8-51.9,12.6l-10,1.5
			l0.8,6.3c1,6.5,30.1,7.8,64.8,3.1c34.8-4.8,62.1-13.9,61-20.5L369.7,335.6z"/>
		<path id="XMLID_36_" class="st28" d="M369.7,335.6c1,6.5-26.3,15.7-61,20.5s-63.7,3.5-64.8-3.1c-1-6.5,26.3-15.7,61-20.5
			C339.6,327.7,368.6,329,369.7,335.6z"/>
	</g>
	<path id="XMLID_241_" class="st29" d="M315.6,348.6l16.9,3.3l0.9,5.9l39.1-4.6v-11.5l-2.2-0.2l-0.8-5.9c0,0,0.8-3.7-13.9-5.3
		l-4.4,1.5l-25.5,10.8L315.6,348.6z"/>
	<g id="XMLID_240_">
		<path id="XMLID_53_" class="st12" d="M287,244.6c0,0-36.7,10.6-35.1,38.9c0,0,0.2,13.8,11.4,23.6c0,0-8.9,22-4.2,35.4
			s37.3,9.6,47.4,7.7c10.1-1.9,33.7-6.2,41.3-12.9c7.6-6.6,6.6-36.5,4-35.4c-2.5,1.1-5.4,5.1-5.4,5.1s0.8-10.2-1.4-8.2
			s-10,7.8-10,7.8s-7.4-8-9.6-9.8c0,0,9.8-8.1,5.8-19.3c-4-11.2-8.4-17.6-13.1-20.6c0,0,1.9-6.3-0.3-7c-2.2-0.7-5.1-0.3-5.1-0.3
			s1.4-9.6-4-8.3c-5.4,1.3-5.4,1.3-5.4,1.3s2.5-4.7-4-6.5C292.7,234.5,287,244.6,287,244.6z"/>
		<path id="XMLID_28_" class="st14" d="M264.1,289.6c0,0,14.2-1.6,24.8-4.4c0,0,7.4-1.6,5.7,2.2c-1.6,3.8-9.6,8.7-19.6,11.4
			c-10,2.7-19.8-4.1-16.9-7C261.2,289,264.1,289.6,264.1,289.6z"/>
		<path id="XMLID_223_" class="st30" d="M296.6,278.7c0,0-0.4-14.6,6.3-8.6c8,6.9,1.5,11.3,1.5,11.3S297.9,284.1,296.6,278.7z"/>
		<path id="XMLID_221_" class="st31" d="M249.8,276.4c0,0,4.4,2.1,7.7,6.5l0.9,1.1c0,0-5.1,1.2-7.2,2.8"/>
		<path id="XMLID_224_" class="st32" d="M299.3,236.3c0,0,2.4,5.3-0.9,11.9c0,0,3.6-2.9,4.9-5.3
			C304.6,240.3,303.3,237.6,299.3,236.3z"/>
		<path id="XMLID_226_" class="st32" d="M308.8,241.4c0,0,1.3,6-1.1,9.8c-2.4,3.8-0.9,2.6-0.9,2.6s3.7-0.4,5.9-4.1
			C312.8,249.7,314.2,240.1,308.8,241.4z"/>
		<path id="XMLID_225_" class="st32" d="M317.8,250c0,0-1.9,6.4-3.6,9.4c0,0,9.5,12.9,7.4,27.5c0,0-1.3,11.5-8.7,14.9
			c0,0,19.9,30.3,2.7,46.8c0,0,22.1-4.4,30.7-10c8.6-5.7,7.4-25.6,7.5-31.6l-1.9-5c0,0-4.7,3.7-5.4,5.1c0,0,0.8-6.5-0.5-8.3
			c-1.3-1.7-10.9,7.8-10.9,7.8s-3.3-5.4-9.6-9.8c0,0,8.5-8.2,6.5-16.2c-2-8.1-6.9-19.4-13.8-23.6C318.2,257,320.2,250.5,317.8,250z"
			/>
		<path id="XMLID_227_" class="st32" d="M271.7,308.1c0,0,7.8,0.4,18.5-1.5c0,0-4.4,8.5-9.3,8.7
			C276.1,315.5,271.7,308.1,271.7,308.1z"/>
		<path id="XMLID_229_" class="st33" d="M259.5,296c0,0,13.5,3.1,35.1-8.7l0,0c0,0-3.8,9.2-23.5,12c-0.9,0,0,0,0,0
			S263.7,300.3,259.5,296"/>
		<path id="XMLID_235_" class="st34" d="M288.4,245.1c0,0,7.4-6.5,10-16.6c2.6-10-16.6-15.6-18.8-8.2c-2.4,7.4,6.8,6.9,10.7,5.1
			c4-1.9,5.9-11.4,4.6-16c-1.3-4.6-6.1-6.2-6.1-6.2"/>
		<path id="XMLID_234_" class="st35" d="M294.8,222c0,0,0.9-2.2,1.1-3.1c0,0,1.3,1.1,2.1,2.2l-1.1,3.3
			C296.9,224.4,296,222.9,294.8,222z"/>
		<path id="XMLID_237_" class="st35" d="M293.3,217.6l-0.8,2.7c0,0-1.9-1-2.8-1.3c0,0,0.5-2.3,0.5-2.6
			C290.2,216.4,292,216.7,293.3,217.6z"/>
	</g>
</g>
<g id="Layer_4">
	<g id="XMLID_188_">
		<path id="XMLID_219_" class="st17" d="M66.8,256c2.1,3.8,1.2,2.2,3.4,6c-2.1,3.3-4,6.5-6.1,10"/>
		<path id="XMLID_218_" class="st17" d="M64,271.9c2.2,3.7,4.2,7.4,6.4,11.2c-2.1,3.3-4.1,6.8-6.3,10.1c-4.4-0.2-8.6-0.2-13,0"/>
		<path id="XMLID_217_" class="st17" d="M44.6,304.7c2.2,3.5,4.2,6.9,6.4,10.4c-2.3,3.8-4.5,7.6-6.8,11.5c-4.5,0.5-8.9,1.3-13.4,2.3
			"/>
		<path id="XMLID_216_" class="st17" d="M70.5,283.2c-2.2-3.7-4.4-7.5-6.4-11.2c2.1-3.4,4.1-6.8,6.1-10c4.1,0.5,8.3,1.3,12.4,2.2
			c2.2,3.9,4.4,7.8,6.5,11.8c-2,2.9-3.9,6-5.9,9C79,284.2,74.7,283.6,70.5,283.2z"/>
		<path id="XMLID_215_" class="st17" d="M89.1,276c-2.2-3.9-4.4-7.8-6.5-11.8c2-3.1,3.8-6,5.8-8.8c4,1.1,8.1,2.4,12,3.9
			c2.2,4.1,4.4,8.3,6.5,12.4c-1.7,2.6-3.6,5.2-5.4,8C97.4,278.1,93.3,276.9,89.1,276z"/>
		<path id="XMLID_214_" class="st17" d="M108.2,291.9c-2.3-4.1-4.5-8.2-6.8-12.3c1.9-2.7,3.7-5.3,5.4-8c4,1.6,8,3.4,11.8,5.3
			c2.2,4.2,4.5,8.6,6.6,13c-1.6,2.3-3.4,4.6-5,7C116.3,295,112.2,293.3,108.2,291.9z"/>
		<path id="XMLID_213_" class="st17" d="M89.9,296.7c-2.3-3.9-4.5-7.7-6.8-11.7c2-3.1,3.9-6.1,5.9-9c4.1,1,8.3,2.2,12.3,3.6
			c2.2,4,4.5,8.2,6.8,12.3c-1.9,2.6-3.7,5.3-5.6,8.1C98.4,298.6,94.1,297.5,89.9,296.7z"/>
		<path id="XMLID_212_" class="st17" d="M109.4,312c-2.3-4-4.6-8.1-6.9-12.1c1.9-2.7,3.8-5.4,5.6-8.1c4.1,1.5,8.2,3.2,12.1,5
			c2.3,4.2,4.6,8.5,6.8,12.9c-1.7,2.3-3.4,4.7-5.2,7.1C117.8,315,113.6,313.4,109.4,312z"/>
		<path id="XMLID_211_" class="st17" d="M51,315.1c-2.2-3.5-4.4-7-6.4-10.4c2.3-3.9,4.5-7.6,6.6-11.3c4.4-0.2,8.6-0.2,13,0
			c2.2,3.7,4.4,7.3,6.6,11c-2.2,3.4-4.2,6.9-6.4,10.4C59.9,314.6,55.5,314.8,51,315.1z"/>
		<path id="XMLID_210_" class="st17" d="M70.8,304.3c-2.3-3.6-4.5-7.3-6.6-11c2.2-3.5,4.2-6.9,6.3-10.1c4.2,0.4,8.5,1,12.7,1.9
			c2.2,3.8,4.5,7.7,6.8,11.7c-2,2.9-4,6.1-6.1,9.2C79.5,305.2,75.2,304.6,70.8,304.3z"/>
		<path id="XMLID_208_" class="st17" d="M90.8,317.3c-2.3-3.8-4.6-7.6-6.9-11.4c2.1-3.2,4-6.2,6.1-9.2c4.2,0.9,8.5,2,12.6,3.3
			c2.3,4,4.6,8.1,6.9,12.1c-1.9,2.6-3.8,5.4-5.8,8.2C99.4,319.1,95.1,318,90.8,317.3z"/>
		<path id="XMLID_207_" class="st17" d="M71.1,325.5c-2.3-3.6-4.6-7.2-6.8-10.8c2.2-3.5,4.4-7,6.4-10.4c4.4,0.3,8.7,0.8,13.1,1.4
			c2.3,3.8,4.6,7.6,6.9,11.4c-2.1,3.1-4.1,6.2-6.2,9.4C80.1,326.1,75.6,325.6,71.1,325.5z"/>
		<path id="XMLID_206_" class="st17" d="M30.8,328.9c-2.3,4.2-4.7,8.5-7.1,12.9c-4.5,1.2-4.1,1.7-8.5,3.4"/>
		<path id="XMLID_205_" class="st17" d="M23.8,341.8c2.1,3.2,4.2,6.3,6.4,9.6c-2.4,4.2-4.8,8.6-7.2,13.1c-4.6,1.3-6.9,1.9-11.3,3.6"
			/>
		<path id="XMLID_204_" class="st17" d="M30.2,351.2c-2.2-3.2-4.2-6.3-6.4-9.6c2.4-4.4,4.7-8.6,7.1-12.9c4.5-1,8.9-1.6,13.4-2.3
			c2.2,3.4,4.4,6.8,6.6,10.1c-2.3,3.8-4.6,7.7-7,11.8C39.3,349.3,34.8,350.2,30.2,351.2z"/>
		<path id="XMLID_203_" class="st17" d="M50.9,336.8c-2.3-3.4-4.5-6.8-6.6-10.1c2.3-3.9,4.6-7.8,6.8-11.5c4.5-0.3,8.8-0.4,13.3-0.3
			c2.3,3.6,4.5,7.2,6.8,10.8c-2.2,3.5-4.4,7-6.6,10.6C59.9,336.1,55.4,336.3,50.9,336.8z"/>
		<path id="XMLID_200_" class="st17" d="M71.5,346.7c-2.4-3.6-4.7-7.1-7-10.7c2.3-3.6,4.5-7.1,6.6-10.6c4.5,0.2,8.9,0.5,13.4,1.1
			c2.3,3.7,4.7,7.5,7.1,11.3c-2.1,3.1-4.2,6.3-6.4,9.5C80.6,347,76.1,346.8,71.5,346.7z"/>
		<path id="XMLID_199_" class="st17" d="M50.7,358.5c-2.3-3.4-4.6-6.6-6.8-9.9c2.4-4,4.7-8,7-11.8c4.6-0.4,9-0.7,13.6-0.8
			c2.3,3.5,4.6,7.1,7,10.7c-2.3,3.5-4.5,7.1-6.8,10.7C60,357.6,55.4,358,50.7,358.5z"/>
	</g>
	<path id="XMLID_20_" class="st36" d="M523.9,412.9c0.7,0.5,22.1-0.1,34.1-21.5c0,0,6.4,2.1,13.9,1.1l-1.7-1.9c0,0,30,5.4,41.1-2.5
		c0,0-0.1,3.7-2.4,6c0,0,0.2,1.4,6.8,1.4s4.4-0.5,4.4-0.5s15.7,20.7,37.8,17.9l1.4-4.8c0,0,16.9,15.1,30,12.3c0,0-13.2,9.9-34-4.2
		c0,0-9.7,7.8-30.1-4.2c0,0-4.7-3.4-8-7.6c0,0-7.3,1.9-16.6-5c0,0-8.2,3.8-20.2-0.2c0,0-9.7,2.3-18,0c0,0-9.2,15.7-20,18
		C531.6,419.5,523.9,412.9,523.9,412.9z"/>
	
		<linearGradient id="XMLID_13_" gradientUnits="userSpaceOnUse" x1="889.4402" y1="391.5462" x2="934.0779" y2="468.8612" gradientTransform="matrix(1 0 0 -1 0 700)">
		<stop  offset="0" style="stop-color:#FFFFFF;stop-opacity:0"/>
		<stop  offset="5.140262e-02" style="stop-color:#E6E6E6;stop-opacity:3.855197e-02"/>
		<stop  offset="0.1411" style="stop-color:#C0C1C1;stop-opacity:0.1058"/>
		<stop  offset="0.238" style="stop-color:#A0A0A2;stop-opacity:0.1785"/>
		<stop  offset="0.3422" style="stop-color:#868688;stop-opacity:0.2566"/>
		<stop  offset="0.4561" style="stop-color:#717274;stop-opacity:0.3421"/>
		<stop  offset="0.5849" style="stop-color:#636466;stop-opacity:0.4386"/>
		<stop  offset="0.7409" style="stop-color:#5B5C5D;stop-opacity:0.5557"/>
		<stop  offset="1" style="stop-color:#58595B;stop-opacity:0.75"/>
	</linearGradient>
	<path id="XMLID_125_" class="st37" d="M969.6,251.7c0,0,3.7,4.2,2.8,5.3c-0.9,1.1-5.2,4.2-5.2,4.2l2.7,1.9l-38,12l-5.2,8l-26.1,6.4
		l-5.1,5.8l-24.1,1.9l-2.7-0.7l1.7-2.2c0,0-4.9-5.2-4.4-6.9s2.7-4.2,2.7-4.2s3.1-2.2,2.5-4.1c-0.5-2-1.6-4.8-5.4-6.6l5.9-6.2
		c0,0,0.9-2-0.5-2.9c-3.2-2.2-4.6-3.5-4.9-8.2l0.9-2.1c0,0,27,5.3,50.6,5C941.2,257.7,962.5,253.7,969.6,251.7z"/>
	
		<linearGradient id="XMLID_14_" gradientUnits="userSpaceOnUse" x1="606.2336" y1="324.5684" x2="579.2392" y2="308.9831" gradientTransform="matrix(1 0 0 -1 0 700)">
		<stop  offset="0" style="stop-color:#EF4136;stop-opacity:0.75"/>
		<stop  offset="1" style="stop-color:#F15A29;stop-opacity:0"/>
	</linearGradient>
	<path id="XMLID_23_" class="st38" d="M573.9,374.6c0,0,17.1-10.6,27.9-3.5s7.4,23.5,2.7,24.7l-5.4,2.5
		C599.1,398.3,574.2,399.2,573.9,374.6z"/>
	
		<linearGradient id="XMLID_15_" gradientUnits="userSpaceOnUse" x1="657.7687" y1="299.7079" x2="621.444" y2="299.7079" gradientTransform="matrix(1 0 0 -1 0 700)">
		<stop  offset="0" style="stop-color:#EF4136;stop-opacity:0.75"/>
		<stop  offset="1" style="stop-color:#F15A29;stop-opacity:0"/>
	</linearGradient>
	<path id="XMLID_22_" class="st39" d="M638.9,384.3c0,0,18.6,6,19,20.9s-18,11.1-18,11.1s-10.7-2.8-14.9-6.4
		C620.7,406.3,616,380.3,638.9,384.3z"/>
	
		<linearGradient id="XMLID_16_" gradientUnits="userSpaceOnUse" x1="690.923" y1="294.9019" x2="655.7625" y2="294.9019" gradientTransform="matrix(1 0 0 -1 0 700)">
		<stop  offset="0" style="stop-color:#EF4136;stop-opacity:0.75"/>
		<stop  offset="1" style="stop-color:#F15A29;stop-opacity:0"/>
	</linearGradient>
	<path id="XMLID_25_" class="st40" d="M669.5,389.6c0,0,17.3,7.4,20.7,17.5c3.3,10.1-5.6,15.4-13.7,14.7c-8.3-0.7-11.5-1.9-17.3-5.9
		c-5.8-4.1-1.2-0.8-1.2-0.8s7-5.7,1.3-17.8l-3.5-4.1C655.8,393.2,659.8,385.2,669.5,389.6z"/>
	<path id="XMLID_26_" class="st33" d="M446.8,263.7c0,0,2.3,22-24.2,35.7c0,0,12,19.8,34,25.6c22,5.8,34.2-7.7,40.6-19.8
		c0,0-12-5.3-24.5-4.1C472.7,300.9,457.2,299.8,446.8,263.7z"/>
	<g id="XMLID_24_">
		<g>
			<defs>
				<path id="SVGID_3_" d="M527.4,198c0,0-26.8-18.5-58.4-1.7s-9.8,42.6-9.8,42.6l-2.2,57l-39.4,12.7L390.1,201l47.2-35.7l51.4-2.2
					L527.4,198z"/>
			</defs>
			<clipPath id="SVGID_4_">
				<use xlink:href="#SVGID_3_"  style="overflow:visible;"/>
			</clipPath>
			<g id="XMLID_35_" class="st41">
				<path id="XMLID_41_" class="st42" d="M497.2,192.5c0,0-29.7-28.1-58.6,13.8c0,0-24.6,46.6,6.1,90.5"/>
				<path id="XMLID_43_" class="st42" d="M500.2,193.9c0,0-16.3-21.6-40.3-12s-35.6,36.5-36.2,58.6c-0.5,22.1,3.5,48.4,24.2,66.6"/>
				<path id="XMLID_44_" class="st42" d="M500.2,190.9c0,0-34.8-38.9-67.8,7.4s0.3,110,10.2,110.3"/>
				<path id="XMLID_45_" class="st42" d="M501.3,191.6c0,0-26.7-32.9-57.3-12.7s-33.2,61-30.1,82.8c2.7,18.6,15.7,48.9,28.1,52.3"/>
				<path id="XMLID_42_" class="st42" d="M491.5,192c-8.9-5.2-23.5-1.2-30.1,4.2s-11.7,11.9-15.1,19.7c-5.2,11.7-6.3,24.1-5.9,36.8
					c0.4,12.7,5.7,29.4,14.6,38.6"/>
				<path id="XMLID_46_" class="st42" d="M494.3,192.8c0,0-20.9-18.7-45.8,8.5c-24.8,27.2-15.8,106.8,26.7,110.9"/>
			</g>
		</g>
	</g>
	<g id="XMLID_67_">
		<path id="XMLID_66_" class="st43" d="M69.4,253c2.1,3.8,1.2,2.2,3.4,6c-2.1,3.3-4,6.5-6.1,10"/>
		<path id="XMLID_201_" class="st43" d="M66.6,269c2.2,3.7,4.2,7.4,6.4,11.2c-2.1,3.3-4.1,6.8-6.3,10.1c-4.4-0.2-8.6-0.2-13,0"/>
		<path id="XMLID_202_" class="st43" d="M47.1,301.7c2.2,3.5,4.2,6.9,6.4,10.4c-2.3,3.8-4.5,7.6-6.8,11.5c-4.5,0.5-8.9,1.3-13.4,2.3
			"/>
		<path id="XMLID_198_" class="st43" d="M73,280.1c-2.2-3.7-4.4-7.5-6.4-11.2c2.1-3.4,4.1-6.8,6.1-10c4.1,0.5,8.3,1.3,12.4,2.2
			c2.2,3.9,4.4,7.8,6.5,11.8c-2,2.9-3.9,6-5.9,9C81.5,281.2,77.3,280.5,73,280.1z"/>
		<path id="XMLID_197_" class="st43" d="M91.6,272.9c-2.2-3.9-4.4-7.8-6.5-11.8c2-3.1,3.8-6,5.8-8.8c4,1.1,8.1,2.4,12,3.9
			c2.2,4.1,4.4,8.3,6.5,12.4c-1.7,2.6-3.6,5.2-5.4,8C99.9,275.1,95.8,274,91.6,272.9z"/>
		<path id="XMLID_196_" class="st43" d="M110.7,288.8c-2.3-4.1-4.5-8.2-6.8-12.3c1.9-2.7,3.7-5.3,5.4-8c4,1.6,8,3.4,11.8,5.3
			c2.2,4.2,4.5,8.6,6.6,13c-1.6,2.3-3.4,4.6-5,7C118.9,292,114.8,290.2,110.7,288.8z"/>
		<path id="XMLID_195_" class="st43" d="M92.5,293.6c-2.3-3.9-4.5-7.7-6.8-11.7c2-3.1,3.9-6.1,5.9-9c4.1,1,8.3,2.2,12.3,3.6
			c2.2,4,4.5,8.2,6.8,12.3c-1.9,2.6-3.7,5.3-5.6,8.1C100.9,295.6,96.8,294.5,92.5,293.6z"/>
		<path id="XMLID_194_" class="st43" d="M112,309c-2.3-4-4.6-8.1-6.9-12.1c1.9-2.7,3.8-5.4,5.6-8.1c4.1,1.5,8.2,3.2,12.1,5
			c2.3,4.2,4.6,8.5,6.8,12.9c-1.7,2.3-3.4,4.7-5.2,7.1C120.3,311.9,116.1,310.4,112,309z"/>
		<path id="XMLID_193_" class="st43" d="M53.6,312c-2.2-3.5-4.4-7-6.4-10.4c2.3-3.9,4.5-7.6,6.6-11.3c4.4-0.2,8.6-0.2,13,0
			c2.2,3.7,4.4,7.3,6.6,11c-2.2,3.4-4.2,6.9-6.4,10.4C62.4,311.6,58,311.7,53.6,312z"/>
		<path id="XMLID_192_" class="st43" d="M73.3,301.4c-2.3-3.7-4.5-7.3-6.6-11c2.2-3.5,4.2-6.9,6.3-10.1c4.2,0.4,8.5,1,12.7,1.9
			c2.2,3.8,4.5,7.7,6.8,11.7c-2,2.9-4,6.1-6.1,9.2C82,302.1,77.7,301.6,73.3,301.4z"/>
		<path id="XMLID_191_" class="st43" d="M93.3,314.2c-2.3-3.8-4.6-7.6-6.9-11.4c2.1-3.2,4-6.2,6.1-9.2c4.2,0.9,8.5,2,12.6,3.3
			c2.3,4,4.6,8.1,6.9,12.1c-1.9,2.6-3.8,5.4-5.8,8.2C102,316.1,97.6,315.1,93.3,314.2z"/>
		<path id="XMLID_190_" class="st43" d="M73.7,322.5c-2.3-3.6-4.6-7.2-6.8-10.8c2.2-3.5,4.4-7,6.4-10.4c4.4,0.3,8.7,0.8,13.1,1.4
			c2.3,3.8,4.6,7.6,6.9,11.4c-2.1,3.1-4.1,6.2-6.2,9.4C82.6,323,78.1,322.7,73.7,322.5z"/>
		<path id="XMLID_189_" class="st43" d="M33.5,325.9c-2.3,4.2-4.7,8.5-7.1,12.9c-4.5,1.2-6.6,2-11.1,3.6"/>
		<path id="XMLID_187_" class="st43" d="M26.4,338.7c2.1,3.2,4.2,6.3,6.4,9.6c-2.4,4.2-4.8,8.6-7.2,13.1c-4.6,1.3-10.7,3.2-15.1,4.9
			"/>
		<path id="XMLID_186_" class="st43" d="M32.8,348.2c-2.2-3.2-4.2-6.3-6.4-9.6c2.4-4.4,4.7-8.6,7.1-12.9c4.5-1,8.9-1.6,13.4-2.3
			c2.2,3.4,4.4,6.8,6.6,10.1c-2.3,3.8-4.6,7.7-7,11.8C41.8,346.2,37.3,347.1,32.8,348.2z"/>
		<path id="XMLID_185_" class="st43" d="M53.4,333.8c-2.3-3.4-4.5-6.8-6.6-10.1c2.3-3.9,4.6-7.8,6.8-11.5c4.5-0.3,8.8-0.4,13.3-0.3
			c2.3,3.6,4.5,7.2,6.8,10.8c-2.2,3.5-4.4,7-6.6,10.6C62.5,333.1,58,333.3,53.4,333.8z"/>
		<path id="XMLID_183_" class="st43" d="M74,343.6c-2.4-3.6-4.7-7.1-7-10.7c2.3-3.6,4.5-7.1,6.6-10.6c4.5,0.2,8.9,0.5,13.4,1.1
			c2.3,3.7,4.7,7.5,7.1,11.3c-2.1,3.1-4.2,6.3-6.4,9.5C83.1,343.9,78.6,343.7,74,343.6z"/>
		<path id="XMLID_150_" class="st43" d="M53.3,355.5c-2.3-3.4-4.6-6.6-6.8-9.9c2.4-4,4.7-8,7-11.8c4.6-0.4,9-0.7,13.6-0.8
			c2.3,3.5,4.6,7.1,7,10.7c-2.3,3.5-4.5,7.1-6.8,10.7C62.5,354.5,57.9,355,53.3,355.5z"/>
	</g>
	<g id="XMLID_56_">
		<polygon id="XMLID_144_" class="st44" points="572.1,258.8 558.3,243.6 562.6,229.2 580.9,230 594.5,245.2 590.1,259.6 		"/>
	</g>
	<g id="XMLID_244_">
		<polygon id="XMLID_145_" class="st44" points="599.2,297.5 585.4,282.3 589.7,267.9 608,268.7 621.7,283.9 617.2,298.3 		"/>
	</g>
	<g id="XMLID_120_">
		<polygon id="XMLID_146_" class="st44" points="615.1,339.5 602.3,323.1 608.5,309.2 627.7,311.6 640.4,328 634.1,342 		"/>
	</g>
	<polygon id="XMLID_119_" class="st33" points="562.1,231.6 577.2,232.3 589.8,245.9 585.8,259.4 590.1,259.6 594.5,245.1 
		580.9,230 562.8,229.1 	"/>
	<polygon id="XMLID_121_" class="st33" points="589.8,268 589.1,270.6 605.3,271.3 616.9,284.2 612.8,298.1 617.2,298.3 
		621.8,283.8 607.9,268.6 	"/>
	<polygon id="XMLID_123_" class="st33" points="608.4,309.2 607.5,311.5 607,312.5 625.7,314.8 636.3,328.2 630.3,341.4 634.1,342 
		640.5,327.9 627.7,311.6 	"/>
	<g id="XMLID_122_">
		<g id="XMLID_461_">
			<g id="XMLID_493_">
				<path id="XMLID_507_" class="st3" d="M174.9,182.4c0.2,1.1,0.1,2.1-0.3,2.8c-0.2,0.4-0.4,0.8-0.9,1c-0.3,0.2-0.8,0.4-1.3,0.5
					l-1.1,0.2h-0.3l-1.3-7.7l1-0.1l0.5-0.1c0.5-0.1,1-0.1,1.4,0.1c0.4,0.1,0.8,0.3,1.1,0.7C174.3,180.4,174.8,181.3,174.9,182.4z
					 M174,182.6c-0.1-0.8-0.4-1.4-0.8-1.9c-0.4-0.4-1.1-0.7-1.7-0.5l-0.5,0.1l0.9,5.3l0.5-0.1c0.8-0.1,1.2-0.4,1.5-1
					C174,184.1,174.1,183.4,174,182.6z"/>
				<path id="XMLID_505_" class="st3" d="M181.4,185.4l-0.7-4.1l-1.3,3.9l-2.5-3.4l0.7,4.1l-1,0.1l-1.3-8.2l3.8,5l2.1-5.9l1.3,8.2
					L181.4,185.4z"/>
				<path id="XMLID_503_" class="st3" d="M183.9,180.3l2.3-0.3l0.2,1.1l-2.3,0.3l0.3,2.4l2.7-0.4l0.2,1.1l-2.7,0.4l-1,0.1l-1.2-7.8
					l1-0.1l2.7-0.4l0.2,1.1l-2.7,0.4L183.9,180.3z"/>
				<path id="XMLID_499_" class="st3" d="M192.1,181.4c0.1,0.4,0,0.8,0,1.1c-0.1,0.3-0.2,0.5-0.4,0.9c-0.3,0.4-0.9,0.7-1.6,0.8
					l-0.5,0.1l-0.8,0.1l-1.2-7.8l1-0.1l0.4-0.1c0.7-0.1,1.2,0,1.6,0.2c0.2,0.1,0.4,0.3,0.5,0.7c0.1,0.2,0.2,0.5,0.2,0.8
					c0.1,0.4,0,1-0.3,1.5c0.1,0.1,0.2,0.1,0.3,0.2c0.2,0.2,0.4,0.4,0.5,0.7C191.9,180.6,192,181,192.1,181.4z M188.5,177.4l0.3,2.4
					c0.2-0.1,0.4-0.2,0.5-0.3c0.3-0.2,0.5-0.4,0.7-0.7s0.2-0.4,0.1-0.8s-0.2-0.5-0.3-0.5c-0.2-0.2-0.8-0.2-1.1-0.1L188.5,177.4z
					 M191.2,181.5c-0.1-0.4-0.2-0.8-0.4-1c-0.1-0.1-0.3-0.2-0.5-0.3c-0.1,0.1-0.1,0.1-0.2,0.2c-0.3,0.2-0.7,0.4-0.9,0.5l0.3,2.1
					l0.4-0.1c0.5-0.1,1-0.2,1.2-0.5C191.1,182.2,191.2,181.8,191.2,181.5z"/>
				<path id="XMLID_496_" class="st3" d="M195.1,182.9c-0.4-0.1-0.8-0.3-1.1-0.7c-0.3-0.3-0.7-0.7-0.9-1.1c-0.2-0.4-0.4-1-0.4-1.5
					c-0.1-0.5-0.1-1.1,0-1.5c0.1-0.4,0.2-1,0.4-1.3c0.2-0.4,0.5-0.8,0.9-1c0.3-0.2,0.8-0.4,1.2-0.5c0.4-0.1,0.9,0,1.3,0.1
					c0.4,0.1,0.8,0.3,1.1,0.7s0.7,0.7,0.9,1.1c0.2,0.4,0.4,1,0.4,1.5c0.1,0.5,0.1,1.1,0,1.5c-0.1,0.5-0.2,1-0.4,1.3
					c-0.2,0.4-0.5,0.8-0.9,1s-0.8,0.4-1.2,0.5C196,183.1,195.5,183,195.1,182.9z M194,177.5c-0.3,0.5-0.4,1.3-0.3,2
					c0.1,0.8,0.4,1.3,0.9,1.7s1.1,0.7,1.6,0.5c0.5-0.1,1.1-0.4,1.4-1s0.4-1.3,0.3-2c-0.1-0.8-0.4-1.3-0.9-1.7
					c-0.4-0.4-1.1-0.7-1.6-0.5C194.8,176.6,194.4,176.9,194,177.5z"/>
				<path id="XMLID_494_" class="st3" d="M203.1,175.1l-1.7,0.2l0.9,6.8l-1,0.1l-1-6.8l-1.7,0.2l-0.1-1.1l4.4-0.7L203.1,175.1z"/>
			</g>
			<g id="XMLID_462_">
				<path id="XMLID_490_" class="st3" d="M206.1,183.9l-36.8,5.9l-2.1-12.3l37.3-5.9L206.1,183.9z M170.1,188.8l35.2-5.6l-1.4-10.6
					l-35.5,5.6L170.1,188.8z"/>
			</g>
		</g>
	</g>
	<g id="XMLID_129_">
		
			<text id="XMLID_265_" transform="matrix(0.8365 0 0 1 837.9791 173.655)" style="fill:#266A6D; font-family:'ADAM.CGPRO'; font-size:25.7209px;">DMEBOT</text>
	</g>
	<rect id="XMLID_127_" x="835.4" y="150.5" class="st45" width="93.3" height="28.1"/>
	<polygon id="XMLID_254_" class="st13" points="302.9,199.3 302.6,195.8 279.2,200 280.1,203.3 286.6,202.1 287.1,204.6 
		292.1,203.6 291.8,201.2 	"/>
	
		<linearGradient id="XMLID_17_" gradientUnits="userSpaceOnUse" x1="290.7624" y1="502.6775" x2="292.2162" y2="496.3802" gradientTransform="matrix(1 0 0 -1 0 700)">
		<stop  offset="0" style="stop-color:#FFFFFF;stop-opacity:0"/>
		<stop  offset="1" style="stop-color:#FFFFFF;stop-opacity:0.75"/>
	</linearGradient>
	<polygon id="XMLID_251_" class="st46" points="302.9,199.3 302.6,195.8 279.2,200 280.1,203.3 286.6,202.1 287.1,204.6 
		292.1,203.6 291.8,201.2 	"/>
</g>
</svg>
