<?xml version="1.0" encoding="utf-8"?>
<!-- Generator: Adobe Illustrator 23.0.3, SVG Export Plug-In . SVG Version: 6.00 Build 0)  -->
<svg version="1.1" id="Layer_1" xmlns="http://www.w3.org/2000/svg" xmlns:xlink="http://www.w3.org/1999/xlink" x="0px" y="0px"
	 viewBox="0 0 130 150" style="enable-background:new 0 0 130 150;" xml:space="preserve">
<style type="text/css">
	.st0{fill:#33858D;}
	.st1{fill:#5DADB1;}
	.st2{fill:#E26F25;}
	.st3{fill:#E4AD23;}
	.st4{fill:#3E9EA6;}
	.st5{fill:#6E7071;}
	.st6{fill:#C6C8C8;}
	.st7{fill:#E1AD24;}
	.st8{fill:#8F9090;}
	.st9{fill:#A1A1A1;}
	.st10{fill:#8A8B8B;}
	.st11{fill:#575757;}
	.st12{fill:#B4B4B5;}
	.st13{fill:#38504F;}
	.st14{fill:url(#XMLID_2_);}
	.st15{fill:url(#XMLID_4_);}
	.st16{fill:#060606;}
	.st17{fill:none;stroke:#5DADB1;stroke-width:0.51;stroke-linecap:round;stroke-miterlimit:10;}
	.st18{fill:url(#XMLID_5_);}
	.st19{fill:url(#XMLID_6_);}
	.st20{fill:#FFFFFF;}
	.st21{opacity:0.36;fill:url(#XMLID_7_);enable-background:new    ;}
	.st22{fill:url(#XMLID_8_);}
	.st23{opacity:0.36;fill:url(#XMLID_9_);enable-background:new    ;}
	.st24{fill:#545554;}
	.st25{clip-path:url(#SVGID_2_);fill:none;stroke:#545554;stroke-width:0.6375;stroke-miterlimit:10;}
	.st26{clip-path:url(#SVGID_4_);fill:none;stroke:#545554;stroke-width:0.6375;stroke-miterlimit:10;}
	.st27{clip-path:url(#SVGID_6_);fill:none;stroke:#545554;stroke-width:0.6375;stroke-miterlimit:10;}
	.st28{clip-path:url(#SVGID_8_);fill:none;stroke:#545554;stroke-width:0.6375;stroke-miterlimit:10;}
	.st29{clip-path:url(#SVGID_10_);fill:none;stroke:#545554;stroke-width:0.6375;stroke-miterlimit:10;}
	.st30{clip-path:url(#SVGID_12_);fill:none;stroke:#545554;stroke-width:0.6375;stroke-miterlimit:10;}
	.st31{clip-path:url(#SVGID_14_);fill:none;stroke:#545554;stroke-width:0.6375;stroke-miterlimit:10;}
	.st32{clip-path:url(#SVGID_16_);fill:none;stroke:#545554;stroke-width:0.6375;stroke-miterlimit:10;}
	.st33{fill:#276A6D;}
	.st34{fill:none;stroke:#D16127;stroke-linecap:round;stroke-linejoin:round;stroke-miterlimit:10;}
	.st35{clip-path:url(#SVGID_18_);fill:none;stroke:#6E7071;stroke-width:0.6375;stroke-miterlimit:10;}
	.st36{clip-path:url(#SVGID_20_);fill:none;stroke:#6E7071;stroke-width:0.6375;stroke-miterlimit:10;}
	.st37{clip-path:url(#SVGID_22_);fill:none;stroke:#6E7071;stroke-width:0.6375;stroke-miterlimit:10;}
	.st38{clip-path:url(#SVGID_24_);fill:none;stroke:#6E7071;stroke-width:0.6375;stroke-miterlimit:10;}
	.st39{clip-path:url(#SVGID_26_);fill:none;stroke:#6E7071;stroke-width:0.6375;stroke-miterlimit:10;}
	.st40{clip-path:url(#SVGID_28_);fill:none;stroke:#6E7071;stroke-width:0.6375;stroke-miterlimit:10;}
	.st41{clip-path:url(#SVGID_30_);fill:none;stroke:#6E7071;stroke-width:0.6375;stroke-miterlimit:10;}
	.st42{clip-path:url(#SVGID_32_);fill:none;stroke:#6E7071;stroke-width:0.6375;stroke-miterlimit:10;}
	.st43{clip-path:url(#SVGID_34_);fill:#545554;}
	.st44{clip-path:url(#SVGID_36_);fill:none;stroke:#545554;stroke-width:0.6375;stroke-miterlimit:10;}
	.st45{clip-path:url(#SVGID_38_);fill:none;stroke:#545554;stroke-width:0.6375;stroke-miterlimit:10;}
	.st46{clip-path:url(#SVGID_40_);fill:none;stroke:#545554;stroke-width:0.6375;stroke-miterlimit:10;}
	.st47{clip-path:url(#SVGID_42_);fill:none;stroke:#545554;stroke-width:0.6375;stroke-miterlimit:10;}
	.st48{clip-path:url(#SVGID_44_);fill:none;stroke:#545554;stroke-width:0.6375;stroke-miterlimit:10;}
	.st49{clip-path:url(#SVGID_46_);fill:none;stroke:#545554;stroke-width:0.6375;stroke-miterlimit:10;}
	.st50{clip-path:url(#SVGID_48_);fill:none;stroke:#545554;stroke-width:0.6375;stroke-miterlimit:10;}
	.st51{clip-path:url(#SVGID_50_);fill:none;stroke:#545554;stroke-width:0.6375;stroke-miterlimit:10;}
	.st52{clip-path:url(#SVGID_52_);fill:none;stroke:#545554;stroke-width:0.6375;stroke-miterlimit:10;}
	.st53{clip-path:url(#SVGID_54_);fill:none;stroke:#545554;stroke-width:0.6375;stroke-miterlimit:10;}
	.st54{clip-path:url(#SVGID_56_);fill:none;stroke:#6E7071;stroke-width:0.6375;stroke-miterlimit:10;}
	.st55{clip-path:url(#SVGID_58_);fill:none;stroke:#6E7071;stroke-width:0.6375;stroke-miterlimit:10;}
	.st56{clip-path:url(#SVGID_60_);fill:none;stroke:#6E7071;stroke-width:0.6375;stroke-miterlimit:10;}
	.st57{clip-path:url(#SVGID_62_);fill:none;stroke:#6E7071;stroke-width:0.6375;stroke-miterlimit:10;}
	.st58{clip-path:url(#SVGID_64_);fill:none;stroke:#6E7071;stroke-width:0.6375;stroke-miterlimit:10;}
	.st59{clip-path:url(#SVGID_66_);fill:none;stroke:#6E7071;stroke-width:0.6375;stroke-miterlimit:10;}
	.st60{clip-path:url(#SVGID_68_);fill:none;stroke:#6E7071;stroke-width:0.6375;stroke-miterlimit:10;}
	.st61{clip-path:url(#SVGID_70_);fill:none;stroke:#6E7071;stroke-width:0.6375;stroke-miterlimit:10;}
	.st62{clip-path:url(#SVGID_72_);fill:none;stroke:#6E7071;stroke-width:0.6375;stroke-miterlimit:10;}
</style>
<path id="XMLID_130_" class="st0" d="M88.8,106.9v6.1c0,0.7,1.7,1.8,3.7,1.8s3.7-1.1,3.7-1.8v-6.1H88.8z"/>
<ellipse id="XMLID_122_" class="st1" cx="92.5" cy="107.2" rx="3.7" ry="1.4"/>
<path id="XMLID_119_" class="st2" d="M90.8,104.2v2.7c0,0.3,0.7,0.7,1.6,0.7s1.6-0.4,1.6-0.7v-2.7H90.8z"/>
<ellipse id="XMLID_118_" class="st3" cx="92.4" cy="104.3" rx="1.6" ry="0.6"/>
<path id="XMLID_117_" class="st0" d="M41.4,108.2v6.1c0,0.7,1.7,1.8,3.7,1.8s3.7-1.1,3.7-1.8v-6.1H41.4z"/>
<ellipse id="XMLID_113_" class="st1" cx="45.1" cy="108.5" rx="3.7" ry="1.4"/>
<path id="XMLID_104_" class="st2" d="M43.4,105.5v2.7c0,0.3,0.7,0.7,1.6,0.7c0.9,0,1.6-0.4,1.6-0.7v-2.7H43.4z"/>
<ellipse id="XMLID_103_" class="st3" cx="45" cy="105.6" rx="1.6" ry="0.6"/>
<path id="XMLID_102_" class="st4" d="M47.8,110c0,0-4.8,0.5-2.8,5.5l13.6,6l2.8-5.5L47.8,110z"/>
<path id="XMLID_101_" class="st4" d="M89.5,108.9c0,0,4.8-0.5,3.9,4.8l-12,8.8l-3.9-4.8L89.5,108.9z"/>
<path id="XMLID_98_" class="st0" d="M52.2,113.7v11.9c0,3.4,8,6.2,17.9,6.2c9.2,0,16.8-2.4,17.8-5.6H88v-12.6L52.2,113.7L52.2,113.7
	z"/>
<ellipse id="XMLID_97_" class="st1" cx="70" cy="113.7" rx="17.9" ry="6.2"/>
<g id="XMLID_60_">
	<g id="XMLID_69_">
		<path id="XMLID_121_" class="st5" d="M107.6,51.6c1,2.6,1.7,5.4,1.6,8.2c-0.2,6-3.4,12.1-8.6,15.1c-4.6,2.7-10.7,3.2-16.2,3
			c-0.2-2.1,0-4.2,0.4-6.2c0.4,0.1,0.8,0.2,1.2,0.3c3.4,0.7,7-0.2,10.1-1.8c3.7-2,5.5-4.1,6.7-7.4c0.6-1.5,0.8-3.7,0.6-5.3
			c-0.1-1.1-0.5-2.2-1.1-3.2c1.1,0.1,2.1-0.1,3.1-0.6C106.2,53.3,107.2,52.5,107.6,51.6z"/>
		<path id="XMLID_76_" class="st6" d="M107.1,48.1c-0.1,0.2-0.3,0.4-0.5,0.5c0,0-0.1,0-0.1,0.1c-0.4,0.1-0.8,0-1.2-0.1
			c-2.3-0.7-3.9-2.8-5.2-4.8c-2.3-3.8-3.7-7.9-4.3-12.3c1.4,1.3,2.2,2.2,3.7,3.4c0.6,1.8,1.3,3.5,2.1,5.2c0.4,0.8,1,1.7,1.8,2.1
			c0.3-0.2,0.2-0.7,0-1.1c-0.9-2-2.4-4.7-3.6-6.2v-0.1l-2-5.5c1.8,0.9,3,2.6,4.1,4.3c1.4,2.2,2.7,4.5,3.7,6.9
			c0.8,1.9,1.6,3.8,1.7,5.8C107.4,46.9,107.4,47.6,107.1,48.1z M105.6,46.5c0.3-0.1,0.3-0.8,0-1.6c-0.3-0.7-0.8-1.2-1.1-1.1
			c-0.3,0.1-0.3,0.8,0,1.6S105.3,46.6,105.6,46.5z"/>
		<path id="XMLID_74_" class="st7" d="M106.5,48.6L106.5,48.6c0.2-0.1,0.4-0.3,0.5-0.5c0.4,0.9,0.8,1.9,0.8,2.6
			c0,0.3-0.1,0.6-0.3,0.9c-0.4,0.9-1.4,1.7-2.1,2.1c-0.9,0.5-2,0.7-3.1,0.6c-0.4,0-0.7-0.1-1.1-0.2c-0.7-0.8-1.4-1.6-2.1-2.4
			C101.6,50.7,104.1,49.6,106.5,48.6z"/>
		
			<ellipse id="XMLID_73_" transform="matrix(0.9162 -0.4007 0.4007 0.9162 -9.3196 45.8657)" class="st8" cx="105" cy="45.2" rx="0.6" ry="1.5"/>
		<path id="XMLID_72_" class="st8" d="M106.5,48.6c-2.5,1-4.9,2.1-7.4,3.1c-0.1,0.1-0.3,0.1-0.4,0.2c-3.9-2.2-6.8-6-7.9-10.2
			l0.6-7.7c1.4-0.8,2.8-1.7,4.2-2.5l0,0c0.6,4.4,2,8.5,4.3,12.3c1.3,2.1,2.9,4.1,5.2,4.8c0.4,0.1,0.8,0.2,1.2,0.1
			C106.5,48.6,106.5,48.6,106.5,48.6L106.5,48.6z"/>
		<path id="XMLID_71_" class="st5" d="M99.8,34.8c1.2,1.5,2.7,4.3,3.6,6.2c0.2,0.4,0.3,0.8,0,1.1c-0.8-0.4-1.4-1.3-1.8-2.1
			c-0.9-1.7-1.6-3.4-2.1-5.2H99.8L99.8,34.8z"/>
		<path id="XMLID_70_" class="st5" d="M95.7,31.4c-1.4,0.8-2.8,1.7-4.2,2.5v-1.3l1.3-0.5l5-2.9l2,5.5l-0.3,0.1
			C98,33.6,97.1,32.7,95.7,31.4L95.7,31.4z"/>
	</g>
	<g id="XMLID_68_">
	</g>
</g>
<g id="XMLID_37_">
	<g id="XMLID_46_">
		<path id="XMLID_111_" class="st5" d="M80.9,112.7c-0.2,0.3-0.2,0.4-0.4,0.6c-3.4,0.9-6.8,1.6-10.3,1.6s-7.6-0.6-10.8-2.2
			c0.2-0.2,0.4-0.3,0.6-0.5c-0.2-0.2-0.4-0.3-0.6-0.5c3.3,1.5,6.9,2,10.6,2c3.5,0,7-0.6,10.3-1.4C80.5,112.4,80.7,112.5,80.9,112.7z
			"/>
		<path id="XMLID_93_" class="st9" d="M80.4,113.4c0.3,0.2,0.2,0.5,0.4,0.8c-0.3,0.3-1,0.4-1.5,0.6c-5.9,1.9-12.1,2-18.1-0.1
			c-0.9-0.3-1.5-0.3-2.2-1.6c0.2-0.1,0.3-0.2,0.5-0.4c3.2,1.6,7.2,2.2,10.8,2.2C73.7,114.8,77.1,114.2,80.4,113.4
			C80.5,113.3,80.4,113.3,80.4,113.4z"/>
		<path id="XMLID_80_" class="st9" d="M80.4,109.1c0.2,0.2,0.2,0.4,0.2,0.7c-6.7,1.7-13.9,1.7-20.7,0c0.1-0.1,0.2-0.2,0.3-0.3
			c-0.1-0.4-0.5-0.7-0.7-1.1c6.6,1.9,13.5,1.8,20.2,0.1C79.7,108.8,80.2,108.9,80.4,109.1z"/>
		<path id="XMLID_79_" class="st5" d="M80.5,109.7c0,0.1-0.1,0.3-0.2,0.4c-0.2,0.3-0.5,0.6-0.6,1c0,0.1,0,0.1,0,0.2h-0.1
			c-6.8,1.8-14.2,1.6-20.9-0.8c0.3-0.3,0.7-0.6,1-0.8C66.6,111.5,73.8,111.4,80.5,109.7z"/>
		<path id="XMLID_55_" class="st5" d="M80.3,106.9c0.1,0.4,0,0.9-0.3,1.2c-0.1,0.1-0.2,0.2-0.3,0.3v0.1c-6.6,1.7-13.6,1.7-20.2-0.1
			c-0.1-0.1-0.1-0.3-0.1-0.4c0-0.3,0.2-0.5,0.4-0.6C66.5,109,73.6,108.9,80.3,106.9z"/>
		<path id="XMLID_54_" class="st9" d="M80.3,104.2c-6.7,1.8-13.8,2-20.6,0.6c0.2-0.2,0.5-0.5,0.7-0.7c0.1-0.1,0.2-0.2,0.2-0.4
			c0-0.2-0.1-0.3-0.2-0.4c6.1,1.7,12.8,1.6,18.8-0.3c0.3,0.2,0.6,0.4,0.8,0.7C80.2,103.8,80.2,104,80.3,104.2z"/>
		<path id="XMLID_53_" class="st5" d="M80.2,104.7c-0.2,0.3-0.6,0.6-0.8,0.9c-6.1,1.9-12.7,2-19,0.7c-0.1-0.5-0.6-0.9-1.1-1.2
			c0.1-0.1,0.2-0.2,0.3-0.3c6.8,1.4,13.9,1.2,20.6-0.6C80.3,104.4,80.3,104.6,80.2,104.7z"/>
		<path id="XMLID_52_" class="st5" d="M80,101.7c0.1,0.1,0.1,0.2,0.1,0.3c0,0.1-0.1,0.1-0.2,0.2c-0.3,0.2-0.6,0.4-0.8,0.6
			c0,0,0.1,0,0.1,0.1c-6.1,1.9-12.7,2.1-18.8,0.3c-0.1-0.1-0.3-0.2-0.5-0.3c-0.3-0.2-0.5-0.6-0.5-1c6.7,1.7,13.9,1.6,20.5-0.3
			C80,101.6,80,101.7,80,101.7z"/>
		<path id="XMLID_50_" class="st9" d="M79.2,100.4c0.3,0.4,0.5,0.8,0.8,1.2c-6.7,1.9-13.8,2-20.5,0.3c0-0.4,0.1-0.9,0.5-1.2
			c1.8,0.5,3.7,0.7,5.5,0.7C70,101.6,74.6,101.2,79.2,100.4z"/>
		<path id="XMLID_49_" class="st9" d="M79.8,111.3c0,0.4,0.2,0.7,0.5,0.9c-3.3,0.8-6.9,1.4-10.3,1.4c-3.6,0.1-7.3-0.5-10.6-2
			c-0.3-0.3-0.5-0.6-0.7-1l0.1-0.1C65.5,112.9,72.9,113.2,79.8,111.3C79.7,111.3,79.8,111.3,79.8,111.3z"/>
		<path id="XMLID_47_" class="st9" d="M79.4,105.6c0,0.1-0.1,0.2-0.1,0.3c0.4,0.1,0.7,0.4,0.9,0.8c0,0.1,0,0.1,0,0.2
			c-6.6,2-13.8,2.1-20.5,0.4c0.2-0.2,0.5-0.4,0.6-0.7c0-0.1,0.1-0.2,0-0.4C66.7,107.7,73.3,107.5,79.4,105.6z"/>
	</g>
	<g id="XMLID_44_">
	</g>
</g>
<path id="XMLID_24_" class="st0" d="M52.2,70.3v26.4c0,3.1,7.6,5.5,17,5.5s17-2.5,17-5.5V70.3H52.2z"/>
<ellipse id="XMLID_21_" class="st1" cx="69.2" cy="70.3" rx="17" ry="5.5"/>
<g id="XMLID_12_">
	<g id="XMLID_18_">
		<path id="XMLID_78_" class="st5" d="M55.8,77.8c0,1.3-0.8,2.9-1.8,3.7c-4.8-1.5-9.6-1.6-13.8,0.9c-4.1,2.4-7.2,6.3-9.3,10.5l0,0
			c-0.2,0.3-0.4,0.7-0.5,1c-1.6-1.8-3.9-2.9-6.3-3c2.4-5.8,6.4-10.9,11.8-14.1s12-3.7,18.1-2.3C55.8,75,55.7,76.5,55.8,77.8z"/>
		<path id="XMLID_28_" class="st10" d="M18.2,103.6c-0.1,0.4-0.1,0.9-0.1,1.3c0.4,2.4,2.3,4.7,2.3,4.7l-0.6,0.6l-0.1,0.1l-4.6,4.3
			c-0.1,0-0.1,0-0.2,0l-1-1.3c-1.2-1.6-2.8-5.3-3.1-7s-0.7-6.8,3.8-11.1c0.3-0.2,0.5-0.4,0.8-0.6c1.6-1.1,3.4-1.4,5.1-1.3
			c3.5,0.1,6.7,1.7,6.7,1.7c1.2,0.6,2.3,1.6,3.2,2.6c1.4,1.6,2.4,3.5,2.8,4.6c0.9,3,0.7,7.8-1.7,11.1c-2.3,3.2-6.6,3.8-6.6,3.8
			l-1.1-6.4l0.8-0.1c2.2-0.4,3.1-3.4,2.8-5.2c-0.3-1.8-2.7-4.3-5-4.6C20.7,100.5,18.7,101.8,18.2,103.6z M26.8,98.5
			c0-0.6-0.5-1.2-1.2-1.2s-1.2,0.5-1.2,1.2c0,0.6,0.5,1.2,1.2,1.2S26.8,99.2,26.8,98.5z"/>
		<path id="XMLID_25_" class="st7" d="M24.1,90.9c2.4,0.1,4.8,1.2,6.3,3c0.2,0.2,0.4,0.5,0.6,0.8c-0.2,0.8-0.4,1.9-0.4,2.8
			c-0.9-1-2-2-3.2-2.6c0,0-3.2-1.6-6.7-1.7c0.6-0.9,1.1-1.5,1.8-2.3C23,90.9,23.6,90.9,24.1,90.9z"/>
		<path id="XMLID_20_" class="st11" d="M27.6,105.4c0.3,1.8-0.6,4.8-2.8,5.2l-0.8,0.1c-1.3,0-2.6,0-3.9,0.1c0.8-0.1,1.7-0.5,2.5-0.9
			c0.7-0.4,1.4-1,1.6-1.8c0.2-0.5,0.2-1.1,0.1-1.6c-0.3-1.9-2.1-3.4-4-3.5c-0.8-0.1-1.6,0.1-2.2,0.7c0.5-1.8,2.5-3.1,4.4-2.8
			C25,101.1,27.3,103.6,27.6,105.4z"/>
		<ellipse id="XMLID_19_" class="st12" cx="25.6" cy="98.5" rx="1.2" ry="1.2"/>
		<path id="XMLID_16_" class="st12" d="M24,110.7l1.1,6.4c-1.3-0.4-2.5-0.3-3.9-0.5c-0.4-1.9-0.6-4-1.1-5.8
			C21.4,110.6,22.7,110.7,24,110.7z"/>
		<path id="XMLID_15_" class="st11" d="M14.8,95.3c-4.6,4.3-4.1,9.4-3.8,11.1s1.9,5.4,3.1,7l1,1.3c-1.1,0.1-2.2,0.4-3.3,0.6
			c-1.9-2-3.2-4.6-3.7-7.4c-0.4-2.8,0-5.6,1.2-8.2c0.5-1,0.9-1.4,1.8-2.1c1.2-1.1,3.1-2.1,4.5-2.9C15.3,94.8,15,95,14.8,95.3z"/>
	</g>
	<g id="XMLID_17_">
	</g>
</g>
<path id="XMLID_82_" class="st4" d="M83.7,124.7c0,0-4.7,1.5-2.8,5.9l13.6,6.5l2.8-5.9L83.7,124.7z"/>
<path id="XMLID_91_" class="st0" d="M93.9,130.6v6.4c0,0.7,1.8,1.9,3.9,1.9c2.2,0,3.9-1.2,3.9-1.9v-6.4H93.9z"/>
<ellipse id="XMLID_90_" class="st1" cx="97.8" cy="130.9" rx="3.9" ry="1.5"/>
<path id="XMLID_89_" class="st2" d="M96,127.8v2.8c0,0.3,0.8,0.7,1.7,0.7c0.9,0,1.7-0.4,1.7-0.7v-2.8H96z"/>
<ellipse id="XMLID_87_" class="st3" cx="97.7" cy="128" rx="1.7" ry="0.7"/>
<path id="XMLID_105_" class="st13" d="M58.2,70.8c0,0,7-2.9,21.5,0l-4.5,1.4l-7.5,0.6l-4.6-0.6L58.2,70.8z"/>
<linearGradient id="XMLID_2_" gradientUnits="userSpaceOnUse" x1="62.3162" y1="81.3955" x2="76.4775" y2="105.9236" gradientTransform="matrix(1 0 0 -1 0 152)">
	<stop  offset="0" style="stop-color:#FFFFFF;stop-opacity:0"/>
	<stop  offset="7.367390e-02" style="stop-color:#E0E0E1;stop-opacity:6.630651e-02"/>
	<stop  offset="0.1631" style="stop-color:#C3C3C5;stop-opacity:0.1468"/>
	<stop  offset="0.2625" style="stop-color:#AAABAD;stop-opacity:0.2363"/>
	<stop  offset="0.374" style="stop-color:#97989B;stop-opacity:0.3366"/>
	<stop  offset="0.5043" style="stop-color:#8A8B8E;stop-opacity:0.4539"/>
	<stop  offset="0.6711" style="stop-color:#828386;stop-opacity:0.604"/>
	<stop  offset="1" style="stop-color:#808184;stop-opacity:0.9"/>
</linearGradient>
<path id="XMLID_106_" class="st14" d="M73.7,71.4c0,0-1.4-15.1-1.6-15.7c-0.1-0.7-1.6-0.9-1.6-0.9s-0.1,0-0.3,0v-9.7h0.3
	c0.6,0,1.1-0.5,1.1-1.1s-0.5-1.1-1.1-1.1h-3.4c-0.6,0-1.1,0.5-1.1,1.1s0.5,1.1,1.1,1.1h0.3v9.7c-0.2,0-0.3,0-0.4,0
	c-1.4,0-1.6,0.9-1.6,0.9l-1.2,16.1"/>
<linearGradient id="XMLID_4_" gradientUnits="userSpaceOnUse" x1="64.2255" y1="83.601" x2="69.8989" y2="93.4277" gradientTransform="matrix(1 0 0 -1 0 152)">
	<stop  offset="0" style="stop-color:#FFFFFF;stop-opacity:0"/>
	<stop  offset="1" style="stop-color:#FFFFFF"/>
</linearGradient>
<path id="XMLID_107_" class="st15" d="M66.9,57.8c-0.2,2-0.4,4-0.5,6.1c-0.2,1.8-0.3,3.6-0.1,5.4c0,0.1,0,0.2,0.2,0.3
	c0.1,0,0.2,0,0.3-0.1c0.7-0.4,0.8-1.1,0.9-1.8c0.4-3.3,0.7-6.6,0.3-9.9c0-0.3-0.3-0.8-0.7-0.7c-0.2,0.3-0.3,0.7-0.3,1"/>
<path id="XMLID_23_" class="st16" d="M40,126.6"/>
<path id="XMLID_120_" class="st16" d="M89.9,103.1c2.2,1,4.2,2.5,6.4,3.2c2,0.6,4.1,0.7,6.2,0.6c0.1,0,0.3,0,0.3-0.2
	c0-0.1,0-0.1-0.1-0.2c-1.4-1.3-3.3-1.7-5.2-2.1c-1.9-0.4-3.7-0.9-5.6-1.4c-1.4-0.4-2.5-0.9-3.8-1.4c-1.2-0.5-2-0.5-3.3-0.5
	c1.5,1.1,2.4,1.4,4.1,1.9c1.4,0.4,2.9,0.7,4.2,1.5"/>
<path id="XMLID_116_" class="st16" d="M99.3,121.7c0,0-0.5,0.7-1,2.2c-0.8,2.6-3.4,5.6-3.4,5.6s-1.6,2.2-0.4,4.6
	c0,0,2.1,3.6,2.1,1.4s1.2-7.3,2.2-8.3s2-1.8,2-2.8s-0.4-0.5-0.4-1.2C100.3,122.5,100.1,121.6,99.3,121.7z"/>
<path id="XMLID_86_" class="st5" d="M97.7,126c-0.3,0-0.6,0.7-0.6,0.7v0.9c0,0.2,0.3,0.3,0.6,0.3c0.3,0,0.6-0.1,0.6-0.3v-0.9
	C98.3,126.7,98.1,126,97.7,126z"/>
<path id="XMLID_22_" class="st16" d="M97.1,127c0,0,0.4,0.4,1.2,0s0.2,0.4,0.2,0.4l-0.4,0.8l-1.2,0.3l-0.3-0.6L97.1,127z"/>
<path id="XMLID_94_" class="st5" d="M92.4,102.5c-0.3,0-0.6,0.6-0.6,0.6v0.9c0,0.2,0.3,0.3,0.6,0.3c0.3,0,0.6-0.1,0.6-0.3v-0.9
	C92.9,103.2,92.7,102.5,92.4,102.5z"/>
<path id="XMLID_115_" class="st16" d="M91.8,103.4c0,0,0.5,0.4,1.1,0l0.3,0.4l0.1,1l-1-0.4l-0.9-0.5L91.8,103.4z"/>
<path id="XMLID_31_" class="st16" d="M37.5,107.2c0,0,4.1-0.2,8.1-1.9c0,0,0.5-0.9,2.8-1.1c2.2-0.2,5.3-1.9,5.3-1.9s-2.6,0-5.3,0.7
	s-3.8,1.5-6.4,2c-2.2,0.4-6.3,1.5-6.7,1.9C34.9,107.2,37.3,107.2,37.5,107.2z"/>
<path id="XMLID_100_" class="st5" d="M45,103.8c-0.3,0-0.6,0.6-0.6,0.6v0.9c0,0.2,0.3,0.3,0.6,0.3s0.6-0.1,0.6-0.3v-0.9
	C45.6,104.5,45.3,103.8,45,103.8z"/>
<path id="XMLID_48_" class="st16" d="M44.5,104.6c0,0,0.5,0.4,1.1,0c0.7-0.4,0,0.6,0,0.6l-1.2,0.5l-0.8-0.2L44.5,104.6z"/>
<path id="XMLID_45_" class="st16" d="M63.1,95.9c0,0,12.2,2.6,20.3-1.9v-9.8c0,0-7.5,2.6-20.3,1.6C63.1,85.8,63.1,95.9,63.1,95.9z"
	/>
<path id="XMLID_77_" class="st7" d="M64.7,93.2l4.3,2.1c0,0,1.2-3.1,5.2-3.3c3.7-0.2,4.8,2.4,4.8,2.4l3.4-2.5c0,0-2.9-5.1-8.6-4.6
	C67.1,87.7,64.7,93.2,64.7,93.2z"/>
<line id="XMLID_99_" class="st17" x1="57.1" y1="74.1" x2="57.1" y2="100.3"/>
<line id="XMLID_124_" class="st17" x1="56" y1="117.4" x2="56" y2="126.6"/>
<path id="XMLID_51_" class="st4" d="M57.5,125.6l-12.4,8.6l3.7,5.4l12.4-8.6C62.4,126.3,57.5,125.6,57.5,125.6z"/>
<path id="XMLID_83_" class="st0" d="M41.2,133.7v6.4c0,0.7,1.8,1.9,3.9,1.9s3.9-1.2,3.9-1.9v-6.4H41.2z"/>
<ellipse id="XMLID_81_" class="st1" cx="45.1" cy="134" rx="3.9" ry="1.5"/>
<path id="XMLID_85_" class="st2" d="M43.3,130.8v2.8c0,0.3,0.8,0.7,1.7,0.7s1.7-0.4,1.7-0.7v-2.8H43.3z"/>
<ellipse id="XMLID_84_" class="st3" cx="45" cy="131" rx="1.7" ry="0.7"/>
<path id="XMLID_114_" class="st16" d="M42.1,129.1c2.5,1.5,4.7,3.4,7.3,4.5c2.3,1,4.9,1.3,7.4,1.4c0.1,0,0.3,0,0.3-0.2
	c0-0.1,0-0.1-0.1-0.2c-1.5-1.7-3.8-2.3-5.9-3c-2.2-0.7-4.4-1.5-6.5-2.3c-1.6-0.6-3-1.7-4.5-2.4c-1.4-0.7-3-1.1-4.6-1.2
	c1.6,1.4,3.5,2.6,5.5,3.4c1.7,0.7,3.4,1.2,4.9,2.2"/>
<path id="XMLID_88_" class="st5" d="M45,129.1c-0.3,0-0.6,0.7-0.6,0.7v0.9c0,0.2,0.3,0.3,0.6,0.3s0.6-0.1,0.6-0.3v-0.9
	C45.6,129.7,45.4,129.1,45,129.1z"/>
<path id="XMLID_112_" class="st16" d="M45.5,131.4c0,0-1.6-1.2-2.2-1.4l1.1,0.2c0,0,0.5,0.4,1.2,0.1c0.3-0.2,1.1,1,1.1,1L45.5,131.4
	z"/>
<linearGradient id="XMLID_5_" gradientUnits="userSpaceOnUse" x1="67.7002" y1="144.0386" x2="67.7002" y2="78.782" gradientTransform="matrix(1 0 0 -1 0 152)">
	<stop  offset="0" style="stop-color:#FFFFFF;stop-opacity:0"/>
	<stop  offset="1" style="stop-color:#A4DCEE;stop-opacity:0.75"/>
</linearGradient>
<path id="XMLID_3_" class="st18" d="M55.3,69.9c0,0,5.1,3.4,13.8,3.4s13.6-3.4,13.6-3.4s1.3-2.6,1.7-5.1c0.4-2.6,1.5-12.3,4.7-17.4
	s5.5-20.6,1.7-26.6S81.7,9.3,73.2,8.2s-18.5,1.7-23.6,6.4s-7.7,11.5-6.8,17s3,11.1,5.7,16.2s3.8,9.8,4.3,12
	C53.2,61.9,54.2,67.8,55.3,69.9z"/>
<g id="XMLID_92_">
	<path id="XMLID_1683_" class="st9" d="M69.2,9c1.3,0,2.6,0.1,3.8,0.3c8.6,1.2,15,7.1,17.5,12.4c2.9,6.2,0.7,20.4-2.3,25.1
		c-2.9,4.6-4.1,12.7-4.6,16.5c-0.1,0.5-0.1,1-0.2,1.3c-0.3,1.9-1.2,3.9-1.5,4.5c-1,0.6-5.5,3.1-12.8,3.1s-12-2.5-13-3.1
		c-0.8-1.8-1.6-6-2.1-8.4c-0.1-0.5-0.2-0.9-0.2-1.2c-0.9-4.4-2.4-8.6-4.4-12.3c-3-5.5-4.8-10.8-5.6-15.8c-0.8-5.3,1.8-11.8,6.5-16.1
		C54.5,11.6,62.1,9,69.2,9 M69.2,8c-7.5,0-15.3,2.7-19.6,6.6c-5.1,4.7-7.7,11.5-6.8,17s3,11.1,5.7,16.2c2.8,5.1,3.8,9.8,4.3,12
		c0.4,2.1,1.4,8.1,2.6,10.1c0,0,5.1,3.4,13.8,3.4s13.6-3.4,13.6-3.4s1.3-2.6,1.7-5.1c0.4-2.6,1.5-12.3,4.7-17.4s5.4-19.7,2.4-26.1
		c-2.6-5.4-9.2-11.7-18.3-13C71.9,8.1,70.6,8,69.2,8L69.2,8z"/>
</g>
<linearGradient id="XMLID_6_" gradientUnits="userSpaceOnUse" x1="53.7656" y1="128.0763" x2="53.7656" y2="87.289" gradientTransform="matrix(1 0 0 -1 0 152)">
	<stop  offset="0" style="stop-color:#FFFFFF;stop-opacity:0"/>
	<stop  offset="1" style="stop-color:#FFFFFF;stop-opacity:0.75"/>
</linearGradient>
<path id="XMLID_109_" class="st19" d="M48.4,26.1c-0.8,4.7,0.3,8,1.8,12.4c1.3,3.8,3.4,7.3,4.6,11.2c1.4,4.5,1.6,9.4,3.1,13.9
	c0.2,0.7,1.1,1.5,1.5,0.9c-0.8-7.5-2.5-14.9-5.1-22c-1.1-2.9-2.3-5.7-2.9-8.7c-0.6-2.5-0.3-5-0.2-7.5c0-0.6,0-1.5-0.4-1.9
	C50.4,24,49.5,23,48.4,26.1"/>
<path id="XMLID_110_" class="st20" d="M58.6,66.3c0.6,0,1,0.5,1.3,1c0.2,0.3,0.3,0.6,0.3,0.9s-0.3,0.7-0.6,0.7
	c-0.2,0-0.3-0.1-0.5-0.2c-0.4-0.2-0.7-0.5-0.9-0.9c-0.2-0.3-0.3-0.6-0.3-0.9s0.2-0.6,0.5-0.7s0.7,0.1,0.7,0.4"/>
<linearGradient id="XMLID_7_" gradientUnits="userSpaceOnUse" x1="61.9011" y1="30.9894" x2="69.2804" y2="43.7707" gradientTransform="matrix(1 0 0 -1 0 152)">
	<stop  offset="0" style="stop-color:#FFFFFF;stop-opacity:0"/>
	<stop  offset="5.098760e-03" style="stop-color:#F9FCFD;stop-opacity:3.824070e-03"/>
	<stop  offset="4.550385e-02" style="stop-color:#CBE3EE;stop-opacity:3.412789e-02"/>
	<stop  offset="9.084392e-02" style="stop-color:#A0CBE0;stop-opacity:6.813294e-02"/>
	<stop  offset="0.1398" style="stop-color:#7AB7D4;stop-opacity:0.1049"/>
	<stop  offset="0.1931" style="stop-color:#5AA5C9;stop-opacity:0.1448"/>
	<stop  offset="0.2519" style="stop-color:#3E96C0;stop-opacity:0.1889"/>
	<stop  offset="0.3184" style="stop-color:#288AB9;stop-opacity:0.2388"/>
	<stop  offset="0.396" style="stop-color:#1781B4;stop-opacity:0.297"/>
	<stop  offset="0.4919" style="stop-color:#0C7BB0;stop-opacity:0.3689"/>
	<stop  offset="0.6265" style="stop-color:#0577AE;stop-opacity:0.4699"/>
	<stop  offset="1" style="stop-color:#0376AD;stop-opacity:0.75"/>
</linearGradient>
<path id="XMLID_126_" class="st21" d="M80,114.5c1.2-0.5-9.7,4.7-16.6,5c0,0-10.2-1.5-11.2-5.3s7.7-5.6,7.7-5.6l0.3,0.9l-1.5,1.2
	l1.3,1.5l-1,0.8c0,0,0.2,0.7,0.8,1s6.2,2.4,10.3,2.1C70.1,116.2,76.3,115.9,80,114.5z"/>
<linearGradient id="XMLID_8_" gradientUnits="userSpaceOnUse" x1="63.9109" y1="39.9327" x2="72.6193" y2="55.0162" gradientTransform="matrix(1 0 0 -1 0 152)">
	<stop  offset="0" style="stop-color:#FFFFFF;stop-opacity:0"/>
	<stop  offset="4.955715e-02" style="stop-color:#E7E7E7;stop-opacity:3.716786e-02"/>
	<stop  offset="0.1394" style="stop-color:#C1C1C2;stop-opacity:0.1046"/>
	<stop  offset="0.2366" style="stop-color:#A1A1A3;stop-opacity:0.1774"/>
	<stop  offset="0.3409" style="stop-color:#878789;stop-opacity:0.2557"/>
	<stop  offset="0.455" style="stop-color:#727275;stop-opacity:0.3413"/>
	<stop  offset="0.5841" style="stop-color:#646467;stop-opacity:0.438"/>
	<stop  offset="0.7404" style="stop-color:#5C5C5E;stop-opacity:0.5553"/>
	<stop  offset="1" style="stop-color:#59595C;stop-opacity:0.75"/>
</linearGradient>
<path id="XMLID_125_" class="st22" d="M79.6,101c0,0,0.7,0.8,0.5,1s-1,0.8-1,0.8l0.5,0.4l-7.4,2.3l-1,1.6l-5.1,1.3l-1,1.1l-4.7,0.4
	l-0.5-0.1l0.3-0.4c0,0-0.9-1-0.9-1.3c0.1-0.3,0.5-0.8,0.5-0.8s0.6-0.4,0.5-0.8s-0.3-0.9-1.1-1.3l1.1-1.2c0,0,0.2-0.4-0.1-0.6
	c-0.6-0.4-0.9-0.7-0.9-1.6l0.2-0.4c0,0,5.3,1,9.9,1C74,102.2,78.2,101.4,79.6,101z"/>
<path id="XMLID_127_" class="st0" d="M59.3,132.3c0,0-3.7-3.6-6.8-3.3l5-3.5c0,0,5.4,0.5,3.7,5.4L59.3,132.3z"/>
<path id="XMLID_128_" class="st0" d="M52.7,112.2c0,0-0.7,1-0.5,2c0.2,1.1,0,4.4,0,4.4l-4.2-1.9c0,0-1.2-3.8,2.6-5.6L52.7,112.2z"/>
<linearGradient id="XMLID_9_" gradientUnits="userSpaceOnUse" x1="54" y1="60.3437" x2="54" y2="73.9053" gradientTransform="matrix(1 0 0 -1 0 152)">
	<stop  offset="0" style="stop-color:#FFFFFF;stop-opacity:0"/>
	<stop  offset="5.098760e-03" style="stop-color:#F9FCFD;stop-opacity:3.824070e-03"/>
	<stop  offset="4.550385e-02" style="stop-color:#CBE3EE;stop-opacity:3.412789e-02"/>
	<stop  offset="9.084392e-02" style="stop-color:#A0CBE0;stop-opacity:6.813294e-02"/>
	<stop  offset="0.1398" style="stop-color:#7AB7D4;stop-opacity:0.1049"/>
	<stop  offset="0.1931" style="stop-color:#5AA5C9;stop-opacity:0.1448"/>
	<stop  offset="0.2519" style="stop-color:#3E96C0;stop-opacity:0.1889"/>
	<stop  offset="0.3184" style="stop-color:#288AB9;stop-opacity:0.2388"/>
	<stop  offset="0.396" style="stop-color:#1781B4;stop-opacity:0.297"/>
	<stop  offset="0.4919" style="stop-color:#0C7BB0;stop-opacity:0.3689"/>
	<stop  offset="0.6265" style="stop-color:#0577AE;stop-opacity:0.4699"/>
	<stop  offset="1" style="stop-color:#0376AD;stop-opacity:0.75"/>
</linearGradient>
<path id="XMLID_129_" class="st23" d="M55.8,78.1c0,0-0.4,6.8-3.6,13.6v-6.8l0.6-3.7l1.3,0.4C54,81.5,55.8,80.1,55.8,78.1z"/>
<path id="XMLID_132_" class="st24" d="M30.4,94c0,0,3.2-7.5,8.8-10.9s9.6-2.7,10.7-2.5s4.2,0.9,4.2,0.9s1-0.9,1.3-1.8
	c0,0-8.6-2.6-14.3-0.1c-5.6,2.5-8.7,6.7-10.4,9.1c-1.6,2.4-2.1,3.6-2.1,3.6L30.4,94z"/>
<g id="XMLID_141_">
	<g>
		<defs>
			<path id="SVGID_1_" d="M30.7,93.3c2.2-4.4,5.3-8.4,9.5-10.9s9-2.4,13.8-0.9c1-0.8,1.8-2.4,1.8-3.7s0-2.8-1.8-3.2
				c-6.1-1.4-12.8-0.9-18.1,2.3c-5.4,3.2-9.5,8.4-11.8,14.2"/>
		</defs>
		<clipPath id="SVGID_2_">
			<use xlink:href="#SVGID_1_"  style="overflow:visible;"/>
		</clipPath>
		<path id="XMLID_131_" class="st25" d="M24.3,89.2c0.5-0.4,1.1-0.3,1.7-0.2c1.5,0.3,3.4,1,4.4,2.2"/>
	</g>
	<g>
		<defs>
			<path id="SVGID_3_" d="M30.7,93.3c2.2-4.4,5.3-8.4,9.5-10.9s9-2.4,13.8-0.9c1-0.8,1.8-2.4,1.8-3.7s0-2.8-1.8-3.2
				c-6.1-1.4-12.8-0.9-18.1,2.3c-5.4,3.2-9.5,8.4-11.8,14.2"/>
		</defs>
		<clipPath id="SVGID_4_">
			<use xlink:href="#SVGID_3_"  style="overflow:visible;"/>
		</clipPath>
		<path id="XMLID_133_" class="st26" d="M26,85.8c2.2-0.2,4.5,0.7,6.1,2.2"/>
	</g>
	<g>
		<defs>
			<path id="SVGID_5_" d="M30.7,93.3c2.2-4.4,5.3-8.4,9.5-10.9s9-2.4,13.8-0.9c1-0.8,1.8-2.4,1.8-3.7s0-2.8-1.8-3.2
				c-6.1-1.4-12.8-0.9-18.1,2.3c-5.4,3.2-9.5,8.4-11.8,14.2"/>
		</defs>
		<clipPath id="SVGID_6_">
			<use xlink:href="#SVGID_5_"  style="overflow:visible;"/>
		</clipPath>
		<path id="XMLID_134_" class="st27" d="M28.6,82.4c0.6-0.3,1.3,0,2,0.2c1.5,0.6,3.1,1.3,4,2.7"/>
	</g>
	<g>
		<defs>
			<path id="SVGID_7_" d="M30.7,93.3c2.2-4.4,5.3-8.4,9.5-10.9s9-2.4,13.8-0.9c1-0.8,1.8-2.4,1.8-3.7s0-2.8-1.8-3.2
				c-6.1-1.4-12.8-0.9-18.1,2.3c-5.4,3.2-9.5,8.4-11.8,14.2"/>
		</defs>
		<clipPath id="SVGID_8_">
			<use xlink:href="#SVGID_7_"  style="overflow:visible;"/>
		</clipPath>
		<path id="XMLID_135_" class="st28" d="M31.4,79.1c2.5,0.3,4.8,1.7,6.1,3.9c-0.1-0.1-0.1-0.1-0.2-0.2"/>
	</g>
	<g>
		<defs>
			<path id="SVGID_9_" d="M30.7,93.3c2.2-4.4,5.3-8.4,9.5-10.9s9-2.4,13.8-0.9c1-0.8,1.8-2.4,1.8-3.7s0-2.8-1.8-3.2
				c-6.1-1.4-12.8-0.9-18.1,2.3c-5.4,3.2-9.5,8.4-11.8,14.2"/>
		</defs>
		<clipPath id="SVGID_10_">
			<use xlink:href="#SVGID_9_"  style="overflow:visible;"/>
		</clipPath>
		<path id="XMLID_136_" class="st29" d="M35.2,76.3c2.2,0.6,4.1,2.1,5.3,4.1c0,0,0.1,0.1,0,0.1c0,0-0.1-0.1,0-0.1"/>
	</g>
	<g>
		<defs>
			<path id="SVGID_11_" d="M30.7,93.3c2.2-4.4,5.3-8.4,9.5-10.9s9-2.4,13.8-0.9c1-0.8,1.8-2.4,1.8-3.7s0-2.8-1.8-3.2
				c-6.1-1.4-12.8-0.9-18.1,2.3c-5.4,3.2-9.5,8.4-11.8,14.2"/>
		</defs>
		<clipPath id="SVGID_12_">
			<use xlink:href="#SVGID_11_"  style="overflow:visible;"/>
		</clipPath>
		<path id="XMLID_137_" class="st30" d="M39.6,74.1c0.3,0,0.6,0.1,0.9,0.2c1.9,0.9,3.1,2.8,3.8,4.7"/>
	</g>
	<g>
		<defs>
			<path id="SVGID_13_" d="M30.7,93.3c2.2-4.4,5.3-8.4,9.5-10.9s9-2.4,13.8-0.9c1-0.8,1.8-2.4,1.8-3.7s0-2.8-1.8-3.2
				c-6.1-1.4-12.8-0.9-18.1,2.3c-5.4,3.2-9.5,8.4-11.8,14.2"/>
		</defs>
		<clipPath id="SVGID_14_">
			<use xlink:href="#SVGID_13_"  style="overflow:visible;"/>
		</clipPath>
		<path id="XMLID_138_" class="st31" d="M44.7,73.1c2.3,1.1,3.7,3.6,3.6,6.1c0,0.2-0.2,0.3-0.3,0.2c-0.1-0.1-0.2-0.3,0-0.4
			c0.1-0.1,0.3,0,0.4,0.1"/>
	</g>
	<g>
		<defs>
			<path id="SVGID_15_" d="M30.7,93.3c2.2-4.4,5.3-8.4,9.5-10.9s9-2.4,13.8-0.9c1-0.8,1.8-2.4,1.8-3.7s0-2.8-1.8-3.2
				c-6.1-1.4-12.8-0.9-18.1,2.3c-5.4,3.2-9.5,8.4-11.8,14.2"/>
		</defs>
		<clipPath id="SVGID_16_">
			<use xlink:href="#SVGID_15_"  style="overflow:visible;"/>
		</clipPath>
		<path id="XMLID_139_" class="st32" d="M49.5,73c1.3,0.4,2.3,1.6,2.8,2.9s0.4,2.8,0.2,4.2"/>
	</g>
</g>
<g id="XMLID_153_">
	<g id="XMLID_2667_">
		<path id="XMLID_2687_" class="st33" d="M55.9,98.1l-0.6-0.3l0.5,0.6h-0.5l0.6,0.3v0.2l-1.2-0.6h0.8l-0.8-0.9l1.2,0.6V98.1z"/>
		<path id="XMLID_2684_" class="st33" d="M55.6,97v0.3l0.3,0.2v0.2l-1.2-1.1l1.2,0.2V97L55.6,97z M55.5,97l-0.4-0.1l0.4,0.3V97z"/>
		<path id="XMLID_2681_" class="st33" d="M55.3,95.7c0.2,0.1,0.3,0.2,0.4,0.3c0.1,0.1,0.1,0.1,0.1,0.2s0,0.2,0,0.2v0.2v0.1l-1.2-0.6
			V96v-0.1c0-0.1,0-0.1,0-0.2l0.1-0.1C55,95.6,55.1,95.7,55.3,95.7z M55.3,95.9c-0.1-0.1-0.2-0.1-0.3-0.1s-0.1,0.1-0.1,0.2v0.1
			l0.8,0.4v-0.1c0-0.1,0-0.2-0.1-0.3C55.5,96,55.4,96,55.3,95.9z"/>
		<path id="XMLID_2679_" class="st33" d="M55.2,95.4V95l0.2,0.1v0.4l0.4,0.2v-0.4l0.2,0.1v0.4V96l-1.2-0.6v-0.2v-0.4l0.2,0.1v0.4
			L55.2,95.4z"/>
		<path id="XMLID_2677_" class="st33" d="M55.9,94.7l-1.2-0.6v-0.2l1.2,0.6V94.7z"/>
		<path id="XMLID_2675_" class="st33" d="M55.1,93.8l0.8,0.4v0.2l-1.2-0.6l0.8-0.2l-0.8-0.4V93l1.2,0.6L55.1,93.8z"/>
		<path id="XMLID_2672_" class="st33" d="M55.3,91.9c0.2,0.1,0.3,0.2,0.4,0.3c0.1,0.1,0.1,0.1,0.1,0.2s0,0.2,0,0.2v0.2V93l-1.2-0.6
			v-0.2v-0.1c0-0.1,0-0.1,0-0.2l0.1-0.1C55,91.8,55.1,91.9,55.3,91.9z M55.3,92.1C55.2,92,55.1,92,55,92s-0.1,0.1-0.1,0.2v0.1
			l0.8,0.4v-0.1c0-0.1,0-0.2-0.1-0.3C55.5,92.2,55.4,92.2,55.3,92.1z"/>
		<path id="XMLID_2670_" class="st33" d="M55.9,91.3L55.3,91l0.5,0.6h-0.5l0.6,0.3v0.2l-1.2-0.6h0.8l-0.8-0.9l1.2,0.6
			C55.9,91.2,55.9,91.3,55.9,91.3z"/>
		<path id="XMLID_2668_" class="st33" d="M55.2,90.4V90l0.2,0.1v0.4l0.4,0.2v-0.4l0.2,0.1v0.4V91l-1.2-0.6v-0.2v-0.4l0.2,0.1v0.4
			L55.2,90.4z"/>
	</g>
</g>
<path id="XMLID_157_" class="st2" d="M68.9,95.3c0,0,1.3-2.9,4.9-3.3s4.9,2,5.1,2.4l3.4-2.5L82,91.3l-3.3,2.5c0,0-1.6-2.7-5.1-2.3
	c-3.5,0.4-4.6,2.4-5.4,3.5L68.9,95.3z"/>
<rect id="XMLID_158_" x="73.2" y="88.2" transform="matrix(0.9976 -6.967047e-02 6.967047e-02 0.9976 -6.0917 5.3433)" class="st2" width="0.7" height="3.6"/>
<rect id="XMLID_162_" x="72" y="90.5" transform="matrix(0.971 -0.2392 0.2392 0.971 -19.6992 19.9509)" class="st2" width="0.7" height="1.3"/>
<rect id="XMLID_166_" x="74.2" y="90.5" transform="matrix(6.911612e-02 -0.9976 0.9976 6.911612e-02 -20.9551 159.2476)" class="st2" width="1.3" height="0.7"/>
<rect id="XMLID_167_" x="75.5" y="90.8" transform="matrix(0.2488 -0.9686 0.9686 0.2488 -31.0869 142.2438)" class="st2" width="1.3" height="0.7"/>
<rect id="XMLID_168_" x="76.8" y="91.4" transform="matrix(0.5758 -0.8176 0.8176 0.5758 -42.2158 102.1619)" class="st2" width="1.1" height="0.7"/>
<rect id="XMLID_163_" x="70.8" y="90.9" transform="matrix(0.8956 -0.4449 0.4449 0.8956 -33.2947 41.1988)" class="st2" width="0.7" height="1.3"/>
<rect id="XMLID_164_" x="69.6" y="91.6" transform="matrix(0.7851 -0.6194 0.6194 0.7851 -42.1122 63.1297)" class="st2" width="0.7" height="1.3"/>
<rect id="XMLID_165_" x="68.5" y="92.5" transform="matrix(0.6221 -0.7829 0.7829 0.6221 -46.8926 89.1306)" class="st2" width="0.7" height="1.3"/>
<rect id="XMLID_159_" x="77.6" y="91.5" transform="matrix(0.7343 -0.6788 0.6788 0.7343 -41.3697 78.096)" class="st2" width="3" height="0.7"/>
<rect id="XMLID_161_" x="67.1" y="92.3" transform="matrix(0.4669 -0.8843 0.8843 0.4669 -47.0114 109.6183)" class="st2" width="0.7" height="3"/>
<path id="XMLID_108_" class="st34" d="M63,66.7c-0.1-8.7-1.7-17.4-4.7-25.5c-1.9-5.2-4.3-10.9-2-16c3,1.4,4.9,4.9,4.3,8.2
	c-1.3-1.4-1.9-3.3-1.7-5.2c0.1-0.5,0.2-1,0.5-1.4c0.6-0.7,1.8-0.7,2.6-0.3c0.8,0.4,1.4,1.2,2,1.9c0.7,0.8,1.3,2.1,0.6,2.9
	c-1.2-0.3-1.8-1.9-1.2-3s2.2-1.4,3.2-0.8c1,0.7,1.4,2.1,1,3.3c-0.6-0.7-1.3-1.5-1.5-2.5s0.4-2.1,1.4-2.2c0.4,0,0.8,0.1,1.1,0.3
	c1.3,0.6,2.3,1.7,2.8,3.1c0.3,0.8-0.1,2-0.8,1.7c-0.2-0.1-0.3-0.2-0.4-0.4C69.6,30,69.5,29,70,28.1c0.7-1.5,3-1.9,4.2-0.8
	c1.3,1.1,1.4,3.2,0.3,4.4c-1.3-1-1.4-3.3-0.2-4.4c0.4-0.3,0.8-0.5,1.3-0.5c1,0,2,1.9,2,2.9s0,1.5-1.3,2c0-3.4,1.6-6.8,4.1-9
	c0.3-0.3,0.7-0.6,1.1-0.7c1-0.2,2,0.7,2.2,1.8c0.2,1-0.1,2.1-0.5,3.1c-4.3,13.1-6.6,26.9-6.8,40.8"/>
<g id="XMLID_179_">
	<g>
		<defs>
			<path id="SVGID_17_" d="M30.4,94c0,0,3.2-7.5,8.8-10.9s9.6-2.7,10.7-2.5s4.2,0.9,4.2,0.9s1-0.9,1.3-1.8c0,0-5.5-4-14.6-0.9
				c-5.8,2-9.1,7.1-10.8,9.5s-1.4,4-1.4,4L30.4,94z"/>
		</defs>
		<clipPath id="SVGID_18_">
			<use xlink:href="#SVGID_17_"  style="overflow:visible;"/>
		</clipPath>
		<path id="XMLID_170_" class="st35" d="M29.2,89.4c1.3,0.8,2.4,1.7,3.4,2.8"/>
	</g>
	<g>
		<defs>
			<path id="SVGID_19_" d="M30.4,94c0,0,3.2-7.5,8.8-10.9s9.6-2.7,10.7-2.5s4.2,0.9,4.2,0.9s1-0.9,1.3-1.8c0,0-5.5-4-14.6-0.9
				c-5.8,2-9.1,7.1-10.8,9.5s-1.4,4-1.4,4L30.4,94z"/>
		</defs>
		<clipPath id="SVGID_20_">
			<use xlink:href="#SVGID_19_"  style="overflow:visible;"/>
		</clipPath>
		<path id="XMLID_171_" class="st36" d="M30.9,86.3c1.4,0.9,2.7,2.1,3.6,3.5"/>
	</g>
	<g>
		<defs>
			<path id="SVGID_21_" d="M30.4,94c0,0,3.2-7.5,8.8-10.9s9.6-2.7,10.7-2.5s4.2,0.9,4.2,0.9s1-0.9,1.3-1.8c0,0-5.5-4-14.6-0.9
				c-5.8,2-9.1,7.1-10.8,9.5s-1.4,4-1.4,4L30.4,94z"/>
		</defs>
		<clipPath id="SVGID_22_">
			<use xlink:href="#SVGID_21_"  style="overflow:visible;"/>
		</clipPath>
		<path id="XMLID_172_" class="st37" d="M33.5,83.3c1.5,1.1,2.7,2.7,3.5,4.4"/>
	</g>
	<g>
		<defs>
			<path id="SVGID_23_" d="M30.4,94c0,0,3.2-7.5,8.8-10.9s9.6-2.7,10.7-2.5s4.2,0.9,4.2,0.9s1-0.9,1.3-1.8c0,0-5.5-4-14.6-0.9
				c-5.8,2-9.1,7.1-10.8,9.5s-1.4,4-1.4,4L30.4,94z"/>
		</defs>
		<clipPath id="SVGID_24_">
			<use xlink:href="#SVGID_23_"  style="overflow:visible;"/>
		</clipPath>
		<path id="XMLID_173_" class="st38" d="M36.7,80.8c1.2,1.4,2.1,3.1,2.4,5"/>
	</g>
	<g>
		<defs>
			<path id="SVGID_25_" d="M30.4,94c0,0,3.2-7.5,8.8-10.9s9.6-2.7,10.7-2.5s4.2,0.9,4.2,0.9s1-0.9,1.3-1.8c0,0-5.5-4-14.6-0.9
				c-5.8,2-9.1,7.1-10.8,9.5s-1.4,4-1.4,4L30.4,94z"/>
		</defs>
		<clipPath id="SVGID_26_">
			<use xlink:href="#SVGID_25_"  style="overflow:visible;"/>
		</clipPath>
		<path id="XMLID_174_" class="st39" d="M40.2,78.8c0.8,1.2,1.3,2.6,1.3,4c0,0.3,0,0.6,0.1,0.8"/>
	</g>
	<g>
		<defs>
			<path id="SVGID_27_" d="M30.4,94c0,0,3.2-7.5,8.8-10.9s9.6-2.7,10.7-2.5s4.2,0.9,4.2,0.9s1-0.9,1.3-1.8c0,0-5.5-4-14.6-0.9
				c-5.8,2-9.1,7.1-10.8,9.5s-1.4,4-1.4,4L30.4,94z"/>
		</defs>
		<clipPath id="SVGID_28_">
			<use xlink:href="#SVGID_27_"  style="overflow:visible;"/>
		</clipPath>
		<path id="XMLID_175_" class="st40" d="M44.2,77.3c0.7,1.5,1,3.3,0.6,5"/>
	</g>
	<g>
		<defs>
			<path id="SVGID_29_" d="M30.4,94c0,0,3.2-7.5,8.8-10.9s9.6-2.7,10.7-2.5s4.2,0.9,4.2,0.9s1-0.9,1.3-1.8c0,0-5.5-4-14.6-0.9
				c-5.8,2-9.1,7.1-10.8,9.5s-1.4,4-1.4,4L30.4,94z"/>
		</defs>
		<clipPath id="SVGID_30_">
			<use xlink:href="#SVGID_29_"  style="overflow:visible;"/>
		</clipPath>
		<path id="XMLID_176_" class="st41" d="M48.7,77.2c0.4,1.2,0.3,2.5-0.1,3.7c-0.1,0.4-0.3,0.8-0.5,1.2v0.1h0.1"/>
	</g>
	<g>
		<defs>
			<path id="SVGID_31_" d="M30.4,94c0,0,3.2-7.5,8.8-10.9s9.6-2.7,10.7-2.5s4.2,0.9,4.2,0.9s1-0.9,1.3-1.8c0,0-5.5-4-14.6-0.9
				c-5.8,2-9.1,7.1-10.8,9.5s-1.4,4-1.4,4L30.4,94z"/>
		</defs>
		<clipPath id="SVGID_32_">
			<use xlink:href="#SVGID_31_"  style="overflow:visible;"/>
		</clipPath>
		<path id="XMLID_177_" class="st42" d="M53.4,78c0,1-0.2,1.9-0.6,2.8s-0.9,1.7-1.4,2.5"/>
	</g>
</g>
<g id="XMLID_142_">
	<g>
		<defs>
			<path id="SVGID_33_" d="M101,51.9c1,1.7,2.3,3.6,2.5,5.6c0.1,1.6-0.1,3.8-0.6,5.3c-1.2,3.3-3,5.4-6.7,7.4
				C93,71.9,89.4,72.7,86,72c-0.9-0.2-1.8-0.4-2.6-0.8l-1.1,6.6c6,0.4,13.1,0.1,18.3-2.9c5.2-3,8.4-9.1,8.6-15.1
				c0.1-3.4-0.9-6.7-2.3-9.8"/>
		</defs>
		<clipPath id="SVGID_34_">
			<use xlink:href="#SVGID_33_"  style="overflow:visible;"/>
		</clipPath>
		<path id="XMLID_143_" class="st43" d="M86.2,72v2.4c0,0,8.6,1,14.1-3.8s5.5-9.4,5.6-11.2s-1.2-5-1.4-5.3c0,0-0.3,0.1-0.4,0.1
			c-1.4,0.4-3.8-0.4-3.8-0.4l-9,13.4L86.2,72z"/>
	</g>
	<g>
		<defs>
			<path id="SVGID_35_" d="M101,51.9c1,1.7,2.3,3.6,2.5,5.6c0.1,1.6-0.1,3.8-0.6,5.3c-1.2,3.3-3,5.4-6.7,7.4
				C93,71.9,89.4,72.7,86,72c-0.9-0.2-1.8-0.4-2.6-0.8l-1.1,6.6c6,0.4,13.1,0.1,18.3-2.9c5.2-3,8.4-9.1,8.6-15.1
				c0.1-3.4-0.9-6.7-2.3-9.8"/>
		</defs>
		<clipPath id="SVGID_36_">
			<use xlink:href="#SVGID_35_"  style="overflow:visible;"/>
		</clipPath>
		<path id="XMLID_144_" class="st44" d="M109.2,54.6C109.2,54.6,109.2,54.5,109.2,54.6c-0.2-0.1-0.2-0.1-0.3,0
			c-1.3,1.2-2.9,2-4.7,2.2"/>
	</g>
	<g>
		<defs>
			<path id="SVGID_37_" d="M101,51.9c1,1.7,2.3,3.6,2.5,5.6c0.1,1.6-0.1,3.8-0.6,5.3c-1.2,3.3-3,5.4-6.7,7.4
				C93,71.9,89.4,72.7,86,72c-0.9-0.2-1.8-0.4-2.6-0.8l-1.1,6.6c6,0.4,13.1,0.1,18.3-2.9c5.2-3,8.4-9.1,8.6-15.1
				c0.1-3.4-0.9-6.7-2.3-9.8"/>
		</defs>
		<clipPath id="SVGID_38_">
			<use xlink:href="#SVGID_37_"  style="overflow:visible;"/>
		</clipPath>
		<path id="XMLID_145_" class="st45" d="M109.8,58.4c-1.7,0.8-3.7,1.3-5.6,1.4c-0.1,0-0.1,0-0.2,0.1s0,0.1,0.1,0.1"/>
	</g>
	<g>
		<defs>
			<path id="SVGID_39_" d="M101,51.9c1,1.7,2.3,3.6,2.5,5.6c0.1,1.6-0.1,3.8-0.6,5.3c-1.2,3.3-3,5.4-6.7,7.4
				C93,71.9,89.4,72.7,86,72c-0.9-0.2-1.8-0.4-2.6-0.8l-1.1,6.6c6,0.4,13.1,0.1,18.3-2.9c5.2-3,8.4-9.1,8.6-15.1
				c0.1-3.4-0.9-6.7-2.3-9.8"/>
		</defs>
		<clipPath id="SVGID_40_">
			<use xlink:href="#SVGID_39_"  style="overflow:visible;"/>
		</clipPath>
		<path id="XMLID_146_" class="st46" d="M103.8,62.3c0.4,0.4,0.9,0.5,1.4,0.5c1.5,0.1,3-0.2,4.4-0.9"/>
	</g>
	<g>
		<defs>
			<path id="SVGID_41_" d="M101,51.9c1,1.7,2.3,3.6,2.5,5.6c0.1,1.6-0.1,3.8-0.6,5.3c-1.2,3.3-3,5.4-6.7,7.4
				C93,71.9,89.4,72.7,86,72c-0.9-0.2-1.8-0.4-2.6-0.8l-1.1,6.6c6,0.4,13.1,0.1,18.3-2.9c5.2-3,8.4-9.1,8.6-15.1
				c0.1-3.4-0.9-6.7-2.3-9.8"/>
		</defs>
		<clipPath id="SVGID_42_">
			<use xlink:href="#SVGID_41_"  style="overflow:visible;"/>
		</clipPath>
		<path id="XMLID_147_" class="st47" d="M102.8,64.9c0.4,0.4,1,0.6,1.5,0.7c1.7,0.5,3.5,0.6,5.2,0.2c-0.1,0-0.1,0-0.2,0.1"/>
	</g>
	<g>
		<defs>
			<path id="SVGID_43_" d="M101,51.9c1,1.7,2.3,3.6,2.5,5.6c0.1,1.6-0.1,3.8-0.6,5.3c-1.2,3.3-3,5.4-6.7,7.4
				C93,71.9,89.4,72.7,86,72c-0.9-0.2-1.8-0.4-2.6-0.8l-1.1,6.6c6,0.4,13.1,0.1,18.3-2.9c5.2-3,8.4-9.1,8.6-15.1
				c0.1-3.4-0.9-6.7-2.3-9.8"/>
		</defs>
		<clipPath id="SVGID_44_">
			<use xlink:href="#SVGID_43_"  style="overflow:visible;"/>
		</clipPath>
		<path id="XMLID_148_" class="st48" d="M101.3,67.4c0.8,0.8,2,1.1,3.1,1.4s2.2,0.6,3.3,0.3h0.1c0,0-0.1,0.1,0,0"/>
	</g>
	<g>
		<defs>
			<path id="SVGID_45_" d="M101,51.9c1,1.7,2.3,3.6,2.5,5.6c0.1,1.6-0.1,3.8-0.6,5.3c-1.2,3.3-3,5.4-6.7,7.4
				C93,71.9,89.4,72.7,86,72c-0.9-0.2-1.8-0.4-2.6-0.8l-1.1,6.6c6,0.4,13.1,0.1,18.3-2.9c5.2-3,8.4-9.1,8.6-15.1
				c0.1-3.4-0.9-6.7-2.3-9.8"/>
		</defs>
		<clipPath id="SVGID_46_">
			<use xlink:href="#SVGID_45_"  style="overflow:visible;"/>
		</clipPath>
		<path id="XMLID_149_" class="st49" d="M99,68.9c0.7,1.1,1.7,1.8,2.9,2.4c1.1,0.6,2.3,0.9,3.6,1.2c-0.1,0-0.2,0.1-0.4,0.1"/>
	</g>
	<g>
		<defs>
			<path id="SVGID_47_" d="M101,51.9c1,1.7,2.3,3.6,2.5,5.6c0.1,1.6-0.1,3.8-0.6,5.3c-1.2,3.3-3,5.4-6.7,7.4
				C93,71.9,89.4,72.7,86,72c-0.9-0.2-1.8-0.4-2.6-0.8l-1.1,6.6c6,0.4,13.1,0.1,18.3-2.9c5.2-3,8.4-9.1,8.6-15.1
				c0.1-3.4-0.9-6.7-2.3-9.8"/>
		</defs>
		<clipPath id="SVGID_48_">
			<use xlink:href="#SVGID_47_"  style="overflow:visible;"/>
		</clipPath>
		<path id="XMLID_150_" class="st50" d="M96.8,71.4c1.4,1.9,3.5,3.2,5.8,3.6c-0.1,0-0.1,0-0.2-0.1"/>
	</g>
	<g>
		<defs>
			<path id="SVGID_49_" d="M101,51.9c1,1.7,2.3,3.6,2.5,5.6c0.1,1.6-0.1,3.8-0.6,5.3c-1.2,3.3-3,5.4-6.7,7.4
				C93,71.9,89.4,72.7,86,72c-0.9-0.2-1.8-0.4-2.6-0.8l-1.1,6.6c6,0.4,13.1,0.1,18.3-2.9c5.2-3,8.4-9.1,8.6-15.1
				c0.1-3.4-0.9-6.7-2.3-9.8"/>
		</defs>
		<clipPath id="SVGID_50_">
			<use xlink:href="#SVGID_49_"  style="overflow:visible;"/>
		</clipPath>
		<path id="XMLID_151_" class="st51" d="M93.8,72c0.8,2.1,2.5,3.8,4.6,4.7"/>
	</g>
	<g>
		<defs>
			<path id="SVGID_51_" d="M101,51.9c1,1.7,2.3,3.6,2.5,5.6c0.1,1.6-0.1,3.8-0.6,5.3c-1.2,3.3-3,5.4-6.7,7.4
				C93,71.9,89.4,72.7,86,72c-0.9-0.2-1.8-0.4-2.6-0.8l-1.1,6.6c6,0.4,13.1,0.1,18.3-2.9c5.2-3,8.4-9.1,8.6-15.1
				c0.1-3.4-0.9-6.7-2.3-9.8"/>
		</defs>
		<clipPath id="SVGID_52_">
			<use xlink:href="#SVGID_51_"  style="overflow:visible;"/>
		</clipPath>
		<path id="XMLID_152_" class="st52" d="M90.7,72.3c0.3,2.3,1.5,4.4,3.3,5.9l0.1,0.1c0,0.1-0.1,0.1-0.1,0"/>
	</g>
	<g>
		<defs>
			<path id="SVGID_53_" d="M101,51.9c1,1.7,2.3,3.6,2.5,5.6c0.1,1.6-0.1,3.8-0.6,5.3c-1.2,3.3-3,5.4-6.7,7.4
				C93,71.9,89.4,72.7,86,72c-0.9-0.2-1.8-0.4-2.6-0.8l-1.1,6.6c6,0.4,13.1,0.1,18.3-2.9c5.2-3,8.4-9.1,8.6-15.1
				c0.1-3.4-0.9-6.7-2.3-9.8"/>
		</defs>
		<clipPath id="SVGID_54_">
			<use xlink:href="#SVGID_53_"  style="overflow:visible;"/>
		</clipPath>
		<path id="XMLID_154_" class="st53" d="M87.2,72.3c0.2,2.5,1.1,4.9,2.6,6.9"/>
	</g>
	<g>
		<defs>
			<path id="SVGID_55_" d="M101,51.9c1,1.7,2.3,3.6,2.5,5.6c0.1,1.6-0.1,3.8-0.6,5.3c-1.2,3.3-3,5.4-6.7,7.4
				C93,71.9,89.4,72.7,86,72c-0.9-0.2-1.8-0.4-2.6-0.8l-1.1,6.6c6,0.4,13.1,0.1,18.3-2.9c5.2-3,8.4-9.1,8.6-15.1
				c0.1-3.4-0.9-6.7-2.3-9.8"/>
		</defs>
		<clipPath id="SVGID_56_">
			<use xlink:href="#SVGID_55_"  style="overflow:visible;"/>
		</clipPath>
		<path id="XMLID_180_" class="st54" d="M102.9,56.4c0.6,0.4,1.3,0.7,2,0.7s1.4-0.2,2-0.6"/>
	</g>
	<g>
		<defs>
			<path id="SVGID_57_" d="M101,51.9c1,1.7,2.3,3.6,2.5,5.6c0.1,1.6-0.1,3.8-0.6,5.3c-1.2,3.3-3,5.4-6.7,7.4
				C93,71.9,89.4,72.7,86,72c-0.9-0.2-1.8-0.4-2.6-0.8l-1.1,6.6c6,0.4,13.1,0.1,18.3-2.9c5.2-3,8.4-9.1,8.6-15.1
				c0.1-3.4-0.9-6.7-2.3-9.8"/>
		</defs>
		<clipPath id="SVGID_58_">
			<use xlink:href="#SVGID_57_"  style="overflow:visible;"/>
		</clipPath>
		<path id="XMLID_181_" class="st55" d="M103,59.1c0.3,0.4,0.7,0.8,1.2,1c0.3,0.1,0.6,0.2,1,0.2c0.6,0,1.2,0,1.8-0.1v0.1"/>
	</g>
	<g>
		<defs>
			<path id="SVGID_59_" d="M101,51.9c1,1.7,2.3,3.6,2.5,5.6c0.1,1.6-0.1,3.8-0.6,5.3c-1.2,3.3-3,5.4-6.7,7.4
				C93,71.9,89.4,72.7,86,72c-0.9-0.2-1.8-0.4-2.6-0.8l-1.1,6.6c6,0.4,13.1,0.1,18.3-2.9c5.2-3,8.4-9.1,8.6-15.1
				c0.1-3.4-0.9-6.7-2.3-9.8"/>
		</defs>
		<clipPath id="SVGID_60_">
			<use xlink:href="#SVGID_59_"  style="overflow:visible;"/>
		</clipPath>
		<path id="XMLID_182_" class="st56" d="M106.2,63.6c-0.7-0.1-1.4-0.2-2.1-0.5s-1.3-0.7-1.7-1.3c0,0,0,0-0.1,0c0,0-0.1,0,0,0
			c0,0,0.1,0,0,0"/>
	</g>
	<g>
		<defs>
			<path id="SVGID_61_" d="M101,51.9c1,1.7,2.3,3.6,2.5,5.6c0.1,1.6-0.1,3.8-0.6,5.3c-1.2,3.3-3,5.4-6.7,7.4
				C93,71.9,89.4,72.7,86,72c-0.9-0.2-1.8-0.4-2.6-0.8l-1.1,6.6c6,0.4,13.1,0.1,18.3-2.9c5.2-3,8.4-9.1,8.6-15.1
				c0.1-3.4-0.9-6.7-2.3-9.8"/>
		</defs>
		<clipPath id="SVGID_62_">
			<use xlink:href="#SVGID_61_"  style="overflow:visible;"/>
		</clipPath>
		<path id="XMLID_183_" class="st57" d="M104.4,66.4c-1.1-0.3-2.1-1-2.7-2"/>
	</g>
	<g>
		<defs>
			<path id="SVGID_63_" d="M101,51.9c1,1.7,2.3,3.6,2.5,5.6c0.1,1.6-0.1,3.8-0.6,5.3c-1.2,3.3-3,5.4-6.7,7.4
				C93,71.9,89.4,72.7,86,72c-0.9-0.2-1.8-0.4-2.6-0.8l-1.1,6.6c6,0.4,13.1,0.1,18.3-2.9c5.2-3,8.4-9.1,8.6-15.1
				c0.1-3.4-0.9-6.7-2.3-9.8"/>
		</defs>
		<clipPath id="SVGID_64_">
			<use xlink:href="#SVGID_63_"  style="overflow:visible;"/>
		</clipPath>
		<path id="XMLID_184_" class="st58" d="M102.6,68.9c-1.2-0.3-2.3-1.2-2.8-2.4"/>
	</g>
	<g>
		<defs>
			<path id="SVGID_65_" d="M101,51.9c1,1.7,2.3,3.6,2.5,5.6c0.1,1.6-0.1,3.8-0.6,5.3c-1.2,3.3-3,5.4-6.7,7.4
				C93,71.9,89.4,72.7,86,72c-0.9-0.2-1.8-0.4-2.6-0.8l-1.1,6.6c6,0.4,13.1,0.1,18.3-2.9c5.2-3,8.4-9.1,8.6-15.1
				c0.1-3.4-0.9-6.7-2.3-9.8"/>
		</defs>
		<clipPath id="SVGID_66_">
			<use xlink:href="#SVGID_65_"  style="overflow:visible;"/>
		</clipPath>
		<path id="XMLID_185_" class="st59" d="M100.4,71.2c-1.1-0.8-2-1.9-2.5-3.1"/>
	</g>
	<g>
		<defs>
			<path id="SVGID_67_" d="M101,51.9c1,1.7,2.3,3.6,2.5,5.6c0.1,1.6-0.1,3.8-0.6,5.3c-1.2,3.3-3,5.4-6.7,7.4
				C93,71.9,89.4,72.7,86,72c-0.9-0.2-1.8-0.4-2.6-0.8l-1.1,6.6c6,0.4,13.1,0.1,18.3-2.9c5.2-3,8.4-9.1,8.6-15.1
				c0.1-3.4-0.9-6.7-2.3-9.8"/>
		</defs>
		<clipPath id="SVGID_68_">
			<use xlink:href="#SVGID_67_"  style="overflow:visible;"/>
		</clipPath>
		<path id="XMLID_186_" class="st60" d="M97.4,73.2c-0.8-1-1.2-2.3-1.5-3.6"/>
	</g>
	<g>
		<defs>
			<path id="SVGID_69_" d="M101,51.9c1,1.7,2.3,3.6,2.5,5.6c0.1,1.6-0.1,3.8-0.6,5.3c-1.2,3.3-3,5.4-6.7,7.4
				C93,71.9,89.4,72.7,86,72c-0.9-0.2-1.8-0.4-2.6-0.8l-1.1,6.6c6,0.4,13.1,0.1,18.3-2.9c5.2-3,8.4-9.1,8.6-15.1
				c0.1-3.4-0.9-6.7-2.3-9.8"/>
		</defs>
		<clipPath id="SVGID_70_">
			<use xlink:href="#SVGID_69_"  style="overflow:visible;"/>
		</clipPath>
		<path id="XMLID_187_" class="st61" d="M94.3,74.4c-0.7-1.1-0.7-2.5-0.8-3.8c0-0.1,0-0.1,0-0.2"/>
	</g>
	<g>
		<defs>
			<path id="SVGID_71_" d="M101,51.9c1,1.7,2.3,3.6,2.5,5.6c0.1,1.6-0.1,3.8-0.6,5.3c-1.2,3.3-3,5.4-6.7,7.4
				C93,71.9,89.4,72.7,86,72c-0.9-0.2-1.8-0.4-2.6-0.8l-1.1,6.6c6,0.4,13.1,0.1,18.3-2.9c5.2-3,8.4-9.1,8.6-15.1
				c0.1-3.4-0.9-6.7-2.3-9.8"/>
		</defs>
		<clipPath id="SVGID_72_">
			<use xlink:href="#SVGID_71_"  style="overflow:visible;"/>
		</clipPath>
		<path id="XMLID_188_" class="st62" d="M90.8,75.1c-0.5-1.5-0.7-3.2-0.5-4.8"/>
	</g>
</g>
</svg>
