<?xml version="1.0" encoding="utf-8"?>
<!-- Generator: Adobe Illustrator 23.0.3, SVG Export Plug-In . SVG Version: 6.00 Build 0)  -->
<svg version="1.1" id="Layer_1" xmlns="http://www.w3.org/2000/svg" xmlns:xlink="http://www.w3.org/1999/xlink" x="0px" y="0px"
	 viewBox="0 0 130 150" style="enable-background:new 0 0 130 150;" xml:space="preserve">
<style type="text/css">
	.st0{fill:#A4A4A4;}
	.st1{fill:#D2B92A;}
	.st2{fill:#8064AA;}
	.st3{fill:#D0A02A;}
	.st4{fill:#5EB546;}
	.st5{fill:#BBBBBB;}
	.st6{fill:#8A6EAE;}
	.st7{fill:#5593A9;}
	.st8{fill:#55A7A5;}
	.st9{fill:#6393CD;}
	.st10{fill:#2D7773;}
	.st11{fill:#CDD529;}
	.st12{fill:#A55D9D;}
	.st13{fill:#508D57;}
	.st14{fill:#4DA0D4;}
	.st15{fill:#A7B438;}
	.st16{fill:#020202;}
	.st17{fill:#D36187;}
	.st18{fill:#C36EAB;}
	.st19{fill:#FFFFFF;}
	.st20{fill:#1B1C1C;}
	.st21{fill:#1E6AB3;}
	.st22{fill:#4EA86A;}
	.st23{fill:#030303;}
	.st24{fill:url(#XMLID_2_);}
	.st25{fill:url(#XMLID_3_);}
	.st26{fill:url(#XMLID_4_);}
	.st27{fill:url(#XMLID_5_);}
	.st28{fill:#52C3C6;}
	.st29{fill:url(#XMLID_6_);}
	.st30{fill:#979696;}
	.st31{opacity:0.28;fill:#5C6970;enable-background:new    ;}
	.st32{opacity:0.73;fill:url(#XMLID_7_);enable-background:new    ;}
	.st33{opacity:0.69;fill:none;stroke:#C0C0C0;stroke-width:0.608;stroke-miterlimit:10;enable-background:new    ;}
	.st34{fill:#F2C6BE;}
	.st35{opacity:0.68;fill:none;stroke:#C0C0C0;stroke-width:0.608;stroke-miterlimit:10;enable-background:new    ;}
	.st36{fill:none;stroke:#4DA0D4;stroke-width:0.8106;stroke-miterlimit:10;}
	.st37{fill:none;stroke:#000000;stroke-width:0.4053;stroke-linecap:round;stroke-linejoin:round;}
	.st38{fill:url(#XMLID_8_);}
	.st39{fill:#ECA997;}
	.st40{fill:url(#XMLID_9_);}
	.st41{fill:url(#XMLID_10_);}
	.st42{fill:url(#XMLID_11_);}
	.st43{fill:url(#XMLID_12_);}
	.st44{fill:url(#XMLID_13_);}
	.st45{fill:url(#XMLID_14_);}
	.st46{fill:#AAB6B9;}
	.st47{fill:none;stroke:#BBBBBB;stroke-width:0.4053;stroke-miterlimit:10;}
	.st48{fill:#4F504F;}
	.st49{fill:#FCFDFF;}
	.st50{fill:#959595;}
	.st51{fill:#D8D1C4;}
	.st52{fill:#D8A461;}
	.st53{fill:#191819;}
</style>
<g id="XMLID_948_">
	<g id="XMLID_979_">
		<path id="XMLID_508_" class="st0" d="M25,37.4c-4,7.3,6.2,19.6,14.3,24c8.2,4.5,16.8,5.2,16.8,5.2l-22.7-32
			C33.4,34.6,29,30,25,37.4z"/>
		<polygon id="XMLID_507_" class="st1" points="29.3,122.1 43.2,136.7 39.8,126.3 		"/>
		<path id="XMLID_506_" class="st2" d="M33.4,34.6l22.7,32l6.4-9.8c-1.4-1-2.6-2-3.4-2.8L33.4,34.6z"/>
		<polygon id="XMLID_505_" class="st3" points="39.8,126.3 43.2,136.7 44.6,131.8 		"/>
		<polygon id="XMLID_504_" class="st4" points="44.6,131.8 43.2,136.7 56.1,135 51.7,132.4 		"/>
		<path id="XMLID_503_" class="st5" d="M43.5,12.5c0,0-5.4,22.2,11.9,30.8h0.2c0.2-3.2,1.2-6.5,3.6-9.7L43.5,12.5z"/>
		<polygon id="XMLID_502_" class="st2" points="43.5,12.5 59.2,33.6 66.9,26.8 		"/>
		<polygon id="XMLID_501_" class="st1" points="57.9,123.3 51.7,132.4 56.1,135 		"/>
		<polygon id="XMLID_500_" class="st6" points="56.1,66.6 55.4,82.3 64.5,72.8 74.7,61.4 		"/>
		<polygon id="XMLID_499_" class="st7" points="64.5,72.8 55.4,82.3 62,88.5 63.4,79.8 		"/>
		<polygon id="XMLID_498_" class="st8" points="55.4,82.3 60.4,111.9 68.6,94.7 62,88.5 		"/>
		<path id="XMLID_494_" class="st0" d="M74.8,55.8c0.8,0,1.5-0.2,1.9-0.5c0.8-0.5,1.8-0.2,1.8-0.2c0.5,0.3,0.9,0.5,1.2,0.6
			c0,0-0.5,4.4-3.2,4.2S74.8,56,74.8,56L74.8,55.8z M55.6,43.3c-0.2,4,1,7.6,3,10c0.2,0.2,0.3,0.4,0.5,0.6c0.8,0.9,2,1.8,3.4,2.8
			c3,2,7.3,4,12.2,4.5c3.4,0.4,7.1,0,10.8-1.5c1.5-0.6,3-1.4,4.5-2.5c6.2-4.3,7.4-9.9,6.9-14.7c-0.7-5.6-3.7-10.1-3.7-10.1L86,41
			l-6.2,11.2l-1.5,1.5l-1.1-1.3L72.3,49c-1,0.7-2.8,1-2.8,1c-4.5-0.3-4.6-5.4-4.6-5.4l-5.7-11C56.8,36.8,55.8,40.2,55.6,43.3z
			 M88.1,49.4c-1.7,0.2-3.4-1.2-3.4-1.2c1.7-7.1,6.8-4,6.8-4C91.5,48.7,89.6,49.3,88.1,49.4z"/>
		<path id="XMLID_493_" class="st9" d="M62.5,56.8l-6.4,9.8l18.6-5.2v-0.1C69.9,60.8,65.6,58.8,62.5,56.8z"/>
		<polygon id="XMLID_492_" class="st10" points="57.9,123.3 56.1,135 63,122 		"/>
		<polygon id="XMLID_491_" class="st11" points="61.5,115.9 57.9,123.3 63,122 		"/>
		<path id="XMLID_490_" class="st12" d="M59.2,33.6l5.7,11c0.2-0.1,0.4-0.3,0.6-0.4l9.2-5.8l-7.8-11.6L59.2,33.6z"/>
		<polygon id="XMLID_417_" class="st13" points="68.6,94.7 60.4,111.9 77.2,119.6 		"/>
		<polygon id="XMLID_416_" class="st4" points="64.3,126.9 64.5,127.8 71.3,130.5 71.8,129.6 77.2,119.6 60.4,111.9 61.5,115.9 
			63,122 		"/>
		<path id="XMLID_415_" class="st0" d="M64.3,126.9c-2.1,1.4-3.1,4.4-2.3,7.6c0.9,3.8,4,6.3,7,5.6s4.6-4.4,3.7-8.2
			c-0.2-0.8-0.5-1.6-0.9-2.3l-0.5,0.9l-3.7,1.9l-3-4.5L64.3,126.9z"/>
		<path id="XMLID_414_" class="st0" d="M63.4,79.8L62,88.5l6.6,6.2l8.6,24.9c0,0,2.1-9.2,8.8-13.3c5.2-3.1,7.5-2.3,8.3-1.7
			c0.2-0.4,0.5-0.8,0.9-1.2c2-2.3,4.4-3.6,6.5-4c0.9-2.6,0.9-3.8,0.9-3.8c1.2-9.7-8.3-8.7-12.5-10.7s-6.5-9-6.5-9l-13.5-2.2
			L63.4,79.8z"/>
		<polygon id="XMLID_413_" class="st11" points="64.5,72.8 63.4,79.8 70.1,73.7 		"/>
		<polygon id="XMLID_412_" class="st14" points="70.1,73.7 83.6,75.9 74.7,61.4 64.5,72.8 		"/>
		<polygon id="XMLID_411_" class="st15" points="64.5,127.8 67.5,132.4 71.3,130.5 		"/>
		<path id="XMLID_410_" class="st16" d="M65.5,44.2l-0.6,0.4c0,0,0.1,5.1,4.6,5.4c0,0,1.7-0.3,2.8-1C72.3,49,71.8,40.5,65.5,44.2z"
			/>
		<path id="XMLID_409_" class="st2" d="M74.7,38.4l-9.2,5.8c6.3-3.7,6.8,4.7,6.8,4.7L74.7,38.4z"/>
		<polygon id="XMLID_408_" class="st17" points="66.9,26.8 74.7,38.4 84.1,26.8 		"/>
		<polygon id="XMLID_407_" class="st12" points="74.7,38.4 72.3,49 86,41 		"/>
		<polygon id="XMLID_406_" class="st17" points="72.3,49 77.2,52.5 79.8,52.3 86,41 		"/>
		<polygon id="XMLID_405_" class="st18" points="84.1,26.8 74.7,38.4 86,41 		"/>
		<path id="XMLID_403_" class="st7" d="M74.7,61.3L74.7,61.3l8.9,14.6l1-6.6l0.2-1l0.7-8.5C81.8,61.3,78.1,61.6,74.7,61.3z"/>
		<path id="XMLID_402_" class="st19" d="M74.8,56c0,0-1,3.8,1.7,3.9c2.7,0.2,3.2-4.2,3.2-4.2c-0.4-0.1-0.8-0.3-1.2-0.6
			c0,0-1-0.3-1.8,0.2c-0.3,0.2-1.1,0.5-1.9,0.5L74.8,56z"/>
		<polygon id="XMLID_401_" class="st20" points="77.2,52.5 78.3,53.7 79.8,52.3 		"/>
		<polygon id="XMLID_400_" class="st18" points="100.8,6.9 84.1,26.8 93.2,32.5 		"/>
		<polygon id="XMLID_399_" class="st12" points="84.1,26.8 86,41 93.2,32.5 		"/>
		<polygon id="XMLID_398_" class="st8" points="89.6,66.6 103.4,59.1 85.5,59.8 84.8,68.2 84.6,69.3 		"/>
		<path id="XMLID_397_" class="st21" d="M84.8,48.2c0,0,1.7,1.4,3.4,1.2c1.5-0.1,3.4-0.7,3.4-5.2C91.5,44.2,86.5,41.1,84.8,48.2z"/>
		<polygon id="XMLID_396_" class="st7" points="89.6,66.6 97,68.6 103.4,59.1 		"/>
		<path id="XMLID_395_" class="st5" d="M100.8,6.9l-7.6,25.6c0,0,3.1,4.5,3.7,10.1H97C114,25.4,100.8,6.9,100.8,6.9z"/>
		<path id="XMLID_394_" class="st0" d="M94.3,104.6c-2.7,4.3,1.5,6.1,3.9,5.2c2.7-0.9,6.4-2.6,8-4.4c1.6-1.9,1.4-4.1,0.8-5
			c-0.7-1.1-2.9-1.6-5.4-1c-2.1,0.5-4.5,1.7-6.5,4C94.9,103.8,94.6,104.2,94.3,104.6z"/>
		<polygon id="XMLID_393_" class="st22" points="103.4,59.1 97,68.6 113.8,64 		"/>
		<polygon id="XMLID_392_" class="st10" points="97,68.6 100.8,79.1 113.8,64 		"/>
		<polygon id="XMLID_391_" class="st4" points="113.8,64 100.8,79.1 116.9,73.6 		"/>
		<polygon id="XMLID_390_" class="st11" points="100.8,79.1 109.2,80.1 116.9,73.6 		"/>
	</g>
	<g id="XMLID_980_">
	</g>
</g>
<circle id="XMLID_947_" class="st19" cx="68.6" cy="46.5" r="1.3"/>
<circle id="XMLID_946_" class="st19" cx="88.1" cy="46.6" r="1.2"/>
<path id="XMLID_945_" class="st16" d="M31.7,39c-0.3-0.5-0.8-1-1.4-1.2c-0.1,0-0.2-0.1-0.3-0.1c-0.2,0-0.3,0.3-0.3,0.5
	c-0.2,0.9-0.1,1.8,0.2,2.6c0.2,0.5,0.8,0.9,1.2,0.6c0.2-0.1,0.3-0.3,0.3-0.5C31.7,40,31.9,39.9,31.7,39"/>
<path id="XMLID_944_" class="st16" d="M104.8,79c-0.1,0.3-0.2,0.6-0.2,0.9c0,0.1,0.1,0.3,0.2,0.4s0.1,0.1,0.3,0.1
	c0.3,0,0.6-0.1,0.7-0.4c0.2-0.2,0.2-0.5,0.3-0.8"/>
<path id="XMLID_943_" class="st16" d="M107.3,79.7c0,0.4,0.2,0.8,0.4,1.2c0,0.1,0.1,0.1,0.2,0.2s0.3,0.1,0.4,0s0.3-0.2,0.3-0.3
	c0.2-0.3,0.2-0.6,0.2-0.9"/>
<path id="XMLID_942_" class="st16" d="M110.4,78.9c0.1,0.3,0.3,0.5,0.5,0.7s0.6,0.4,0.8,0.2c0.2-0.1,0.3-0.3,0.3-0.5s0-0.4-0.1-0.5
	c-0.1-0.3-0.3-0.7-0.7-0.8"/>
<path id="XMLID_941_" class="st16" d="M112.6,76.9c0.2,0.4,0.7,0.7,1.1,0.7c0.1,0,0.2,0,0.3,0c0.2-0.1,0.2-0.4,0.2-0.6
	c-0.1-0.4-0.4-0.9-0.7-1.1"/>
<path id="XMLID_940_" class="st23" d="M64.8,138.3c-0.2,0.7-0.2,1.4,0,2.1c0,0.1,0,0.2,0.1,0.2c0.1,0.1,0.3,0,0.5-0.2
	c0.3-0.3,0.4-0.7,0.4-1.1"/>
<path id="XMLID_939_" class="st23" d="M66.7,139.6c-0.1,0.4,0,0.8,0.1,1.2c0.1,0.3,0.2,0.6,0.4,0.8c0,0,0.1,0.1,0.2,0.1
	s0.2-0.1,0.2-0.2c0.3-0.5,0.4-1.1,0.2-1.6"/>
<path id="XMLID_938_" class="st23" d="M69,139.7c0,0.4,0.2,0.9,0.5,1.2c0.1,0.1,0.3,0.2,0.4,0.2s0.2-0.1,0.2-0.2
	c0.1-0.2,0.1-0.5,0.1-0.8c-0.1-0.3-0.2-0.7-0.3-1"/>
<path id="XMLID_937_" class="st23" d="M70.8,138.8c0,0.3,0.2,0.5,0.4,0.7c0.1,0.1,0.3,0.2,0.5,0.1c0.2-0.1,0.2-0.3,0.2-0.5
	c0-0.5-0.2-0.9-0.4-1.4"/>
<path id="XMLID_936_" class="st9" d="M64.9,44.6l-0.6,11.7l8-7.3c0,0-2.9,1.9-5.1,0.3C64.7,47.5,64.9,44.6,64.9,44.6z"/>
<polygon id="XMLID_935_" class="st5" points="43.2,14.7 41.8,14.7 42.8,17.3 41.4,17.8 43,20.5 43.2,16.5 "/>
<polygon id="XMLID_934_" class="st5" points="101.7,9.2 102.7,7.7 103.1,11.1 104.1,10.6 104.1,14.1 "/>
<g id="XMLID_892_">
	<g id="XMLID_921_">
		
			<linearGradient id="XMLID_2_" gradientUnits="userSpaceOnUse" x1="55.5784" y1="105.1272" x2="97.0016" y2="105.1272" gradientTransform="matrix(1 0 0 -1 0 152)">
			<stop  offset="0" style="stop-color:#FFFFFF;stop-opacity:0.3"/>
			<stop  offset="8.776546e-03" style="stop-color:#FBFBFB;stop-opacity:0.2974"/>
			<stop  offset="0.1029" style="stop-color:#D5D6D7;stop-opacity:0.2691"/>
			<stop  offset="0.2045" style="stop-color:#B5B5B7;stop-opacity:0.2386"/>
			<stop  offset="0.3136" style="stop-color:#9B9B9D;stop-opacity:0.2059"/>
			<stop  offset="0.4329" style="stop-color:#86878A;stop-opacity:0.1701"/>
			<stop  offset="0.5676" style="stop-color:#78797C;stop-opacity:0.1297"/>
			<stop  offset="0.7306" style="stop-color:#707173;stop-opacity:8.082663e-02"/>
			<stop  offset="1" style="stop-color:#6D6E71;stop-opacity:0"/>
		</linearGradient>
		<path id="XMLID_2153_" class="st24" d="M59.2,33.6c-2.3,3.2-3.4,6.5-3.6,9.7c-0.2,4,1,7.6,3,10c0.2,0.2,0.3,0.4,0.5,0.6
			c0.8,0.9,2,1.8,3.4,2.8c3,2,7.3,4,12.2,4.5c3.4,0.4,7.1,0,10.8-1.5c1.5-0.6,3-1.4,4.5-2.5c6.2-4.3,7.4-9.9,6.9-14.7
			c-0.7-5.6-3.7-10.1-3.7-10.1L86,41l-6.2,11.2l-1.5,1.5l-1.1-1.3L72.3,49c-1,0.7-2.8,1-2.8,1c-4.5-0.3-4.6-5.4-4.6-5.4L59.2,33.6z
			 M88.1,49.4c-1.6,0.4-3.4-1.2-3.4-1.2c1.7-7.1,6.8-4,6.8-4C91.5,47.7,89.4,49.1,88.1,49.4z"/>
		
			<linearGradient id="XMLID_3_" gradientUnits="userSpaceOnUse" x1="42.6695" y1="124.1" x2="59.1672" y2="124.1" gradientTransform="matrix(1 0 0 -1 0 152)">
			<stop  offset="0" style="stop-color:#6D6E71;stop-opacity:0.5"/>
			<stop  offset="0.137" style="stop-color:#6D6E71;stop-opacity:0.4315"/>
			<stop  offset="1" style="stop-color:#6D6E71;stop-opacity:0"/>
		</linearGradient>
		<path id="XMLID_2151_" class="st25" d="M43.5,12.5c0,0-5.4,22.2,11.9,30.8h0.2c0.2-3.2,1.2-6.5,3.6-9.7L43.5,12.5z"/>
		
			<linearGradient id="XMLID_4_" gradientUnits="userSpaceOnUse" x1="24.1555" y1="102.1065" x2="56.1527" y2="102.1065" gradientTransform="matrix(1 0 0 -1 0 152)">
			<stop  offset="0" style="stop-color:#6D6E71;stop-opacity:0.5"/>
			<stop  offset="0.137" style="stop-color:#6D6E71;stop-opacity:0.4315"/>
			<stop  offset="1" style="stop-color:#6D6E71;stop-opacity:0"/>
		</linearGradient>
		<path id="XMLID_388_" class="st26" d="M25,37.4c-4,7.3,6.2,19.6,14.3,24c8.2,4.5,16.8,5.2,16.8,5.2l-22.7-32
			C33.4,34.6,29,30,25,37.4z"/>
		
			<linearGradient id="XMLID_5_" gradientUnits="userSpaceOnUse" x1="43.4762" y1="128.95" x2="66.9158" y2="128.95" gradientTransform="matrix(1 0 0 -1 0 152)">
			<stop  offset="0" style="stop-color:#6D6E71"/>
			<stop  offset="0.137" style="stop-color:#6D6E71;stop-opacity:0.863"/>
			<stop  offset="1" style="stop-color:#6D6E71;stop-opacity:0"/>
		</linearGradient>
		<polygon id="XMLID_386_" class="st27" points="43.5,12.5 59.2,33.6 66.9,26.8 		"/>
		<polygon id="XMLID_380_" class="st28" points="64.5,72.8 63.4,79.8 70.1,73.7 		"/>
		
			<linearGradient id="XMLID_6_" gradientUnits="userSpaceOnUse" x1="93.152" y1="127.25" x2="105.6738" y2="127.25" gradientTransform="matrix(1 0 0 -1 0 152)">
			<stop  offset="0" style="stop-color:#6D6E71"/>
			<stop  offset="0.137" style="stop-color:#6D6E71;stop-opacity:0.863"/>
			<stop  offset="1" style="stop-color:#6D6E71;stop-opacity:0"/>
		</linearGradient>
		<path id="XMLID_379_" class="st29" d="M100.8,6.9l-7.6,25.6c0,0,3.1,4.5,3.7,10.1H97C114,25.4,100.8,6.9,100.8,6.9z"/>
	</g>
	<g id="XMLID_922_">
	</g>
</g>
<path id="XMLID_890_" class="st16" d="M107.2,100.6c0.4-0.3,0.9-0.5,1.4-0.6c0.2,0,0.4,0,0.5,0.1s0,0.4-0.1,0.5
	c-0.2,0.3-0.6,0.5-1,0.6c-0.2,0-0.5,0.1-0.7,0C107.2,101.1,107.1,100.8,107.2,100.6"/>
<path id="XMLID_889_" class="st16" d="M107.5,102.6c0.5-0.3,1.2-0.4,1.6-0.1c0.1,0,0.1,0.1,0.2,0.2c0,0.1,0,0.3-0.1,0.4
	c-0.3,0.5-1,0.5-1.6,0.5c-0.2,0-0.4-0.1-0.4-0.3c0-0.1,0-0.1,0.1-0.2c0.2-0.2,0.1-0.4,0.4-0.5"/>
<path id="XMLID_888_" class="st16" d="M102.3,104.4c0.4,0,0.8,0.2,1,0.5c0.1,0.1,0.1,0.2,0.1,0.3c0,0.1-0.1,0.1-0.2,0.2
	c-0.4,0.2-0.9,0.1-1.3-0.1c-0.1,0-0.2-0.1-0.2-0.2s0.1-0.1,0.1-0.1C101.8,104.6,102.1,104.4,102.3,104.4"/>
<polygon id="XMLID_886_" class="st30" points="43.2,14.7 41.8,14.7 42.8,17.3 41.4,17.8 43,20.5 43.2,16.5 "/>
<path id="XMLID_885_" class="st16" d="M63.4,57.3l7,5.3l2.8,0.5l2.7,0.3l7-2v-0.8c0,0-5.3,1.3-9.2,0.5C69.5,60.4,65.7,59,63.4,57.3z
	"/>
<path id="XMLID_884_" class="st31" d="M79.7,70.9c0,0,1,0,0.9,0.4s-2.2,1-4.7,1s-1.5-1-1.5-1L74,70.6l0.1-0.8l-0.3-0.5l0.1-0.7
	l-0.3-0.7l0.2-0.6l2.1-1.2l3,0.8L79.7,70.9z"/>
<linearGradient id="XMLID_7_" gradientUnits="userSpaceOnUse" x1="61.6101" y1="20.4" x2="67.5372" y2="20.4" gradientTransform="matrix(1 0 0 -1 0 152)">
	<stop  offset="0" style="stop-color:#FFFFFF;stop-opacity:0"/>
	<stop  offset="1.330614e-03" style="stop-color:#FEFEFE;stop-opacity:9.979606e-04"/>
	<stop  offset="0.1207" style="stop-color:#D3D3D3;stop-opacity:9.053488e-02"/>
	<stop  offset="0.2437" style="stop-color:#AEAEAF;stop-opacity:0.1828"/>
	<stop  offset="0.3727" style="stop-color:#8F8F91;stop-opacity:0.2796"/>
	<stop  offset="0.5073" style="stop-color:#77777A;stop-opacity:0.3805"/>
	<stop  offset="0.6498" style="stop-color:#666669;stop-opacity:0.4873"/>
	<stop  offset="0.8056" style="stop-color:#5C5C5F;stop-opacity:0.6042"/>
	<stop  offset="1" style="stop-color:#59595C;stop-opacity:0.75"/>
</linearGradient>
<path id="XMLID_883_" class="st32" d="M67.5,132.4c0,0-2.9,2.1-5,3.8c0,0-2.9-6,1.7-9.2l0.3,0.9L67.5,132.4z"/>
<path id="XMLID_882_" class="st33" d="M72.1,76.4c0,1,0,2,0,3"/>
<path id="XMLID_881_" class="st33" d="M74.8,75c-0.2,0.6-0.2,1.2-0.2,1.9"/>
<path id="XMLID_880_" class="st33" d="M78,75.3c-0.1,0.7-0.1,1.4,0,2.1"/>
<path id="XMLID_879_" class="st33" d="M75.9,77.8c-0.1,1.1,0,2.2,0.2,3.3"/>
<path id="XMLID_878_" class="st33" d="M73.7,82.2c0.1,0.9,0.3,1.8,0.7,2.7"/>
<path id="XMLID_877_" class="st33" d="M78.8,80.8c0.1,0.8,0.3,1.7,0.7,2.4"/>
<path id="XMLID_876_" class="st33" d="M77.1,83.7c0.3,1.2,0.8,2.3,1.3,3.4c0-0.1,0-0.2,0-0.3"/>
<path id="XMLID_875_" class="st33" d="M81.1,78.5c0.2,1,0.5,1.9,1,2.7c0-0.1-0.1-0.2-0.1-0.3"/>
<path id="XMLID_874_" class="st33" d="M82.6,76.2c0,0.8,0.2,1.6,0.7,2.3"/>
<path id="XMLID_873_" class="st33" d="M81.5,84c0.2,0.7,0.6,1.4,1.1,1.9"/>
<path id="XMLID_872_" class="st33" d="M84.2,83.2c0.2,0.9,0.7,1.6,1.4,2.2"/>
<path id="XMLID_871_" class="st33" d="M81,87.8c0.4,0.8,0.8,1.5,1.4,2.1l0.1,0.1v-0.1"/>
<path id="XMLID_870_" class="st33" d="M84.6,87.3c0.5,0.8,1.2,1.4,2.1,1.8"/>
<path id="XMLID_869_" class="st33" d="M88.2,87.5c0.9,0.5,1.8,0.9,2.7,1.2c-0.2,0-0.4-0.1-0.6-0.1"/>
<path id="XMLID_868_" class="st33" d="M70.1,74.3C70.1,74.4,70.2,74.2,70.1,74.3c-0.1-0.1-0.1,0-0.2,0.1c-0.3,0.8-0.5,1.7-0.6,2.6"
	/>
<path id="XMLID_867_" class="st33" d="M69.4,79.8c0,1.2,0.1,2.3,0.1,3.5c0,0.1,0,0.1,0.1,0.1s0.1-0.1,0-0.1"/>
<path id="XMLID_866_" class="st33" d="M66.3,77.5c-0.3,1-0.5,2-0.6,3"/>
<path id="XMLID_865_" class="st33" d="M66.4,83c0,1,0,2-0.1,3.1"/>
<path id="XMLID_864_" class="st33" d="M63.8,82c-0.1,0.9-0.2,1.8-0.5,2.7"/>
<path id="XMLID_863_" class="st33" d="M69,86.6c0.1,1,0.2,1.9,0.3,2.9"/>
<path id="XMLID_862_" class="st33" d="M72.4,85.8c0.1,1,0.3,2.1,0.6,3.1"/>
<path id="XMLID_861_" class="st33" d="M75.4,87.9c0.4,1,0.8,1.9,1.1,2.9"/>
<path id="XMLID_860_" class="st33" d="M73.8,91.1c0.2,1,0.5,2,0.9,2.9"/>
<path id="XMLID_859_" class="st33" d="M71.1,91.3c0.1,0.8,0.3,1.6,0.4,2.4"/>
<path id="XMLID_858_" class="st33" d="M66.1,88.1C66,89,65.9,89.9,66,90.7c0-0.1,0-0.2,0-0.3"/>
<path id="XMLID_857_" class="st33" d="M62.9,86.9c0,0.5,0,1.1,0,1.6"/>
<path id="XMLID_856_" class="st33" d="M68.6,92c0.1,0.7,0.1,1.5,0.1,2.2"/>
<path id="XMLID_855_" class="st33" d="M72.3,96.5c0.2,0.9,0.5,1.8,0.7,2.7"/>
<path id="XMLID_854_" class="st33" d="M72,101.8c0.2,0.8,0.5,1.5,0.9,2.2"/>
<path id="XMLID_853_" class="st33" d="M75.6,96.7c0.4,0.8,0.9,1.5,1.3,2.3"/>
<path id="XMLID_852_" class="st33" d="M75.4,101.4c0.5,0.7,1,1.5,1.3,2.3"/>
<path id="XMLID_851_" class="st33" d="M75.2,106.4c0.3,0.6,0.7,1.2,1,1.8c0.1,0.2,0.7,1.5,0.4,0.9"/>
<path id="XMLID_850_" class="st33" d="M78.5,105.6c0.4,0.6,0.8,1.2,1.1,1.9"/>
<path id="XMLID_849_" class="st33" d="M78.3,109.6c0.5,0.9,0.8,1.8,1.1,2.7"/>
<path id="XMLID_848_" class="st33" d="M76.2,112.3c0.2,0.9,0.5,1.8,0.7,2.8c0,0.1,0.1,0.1,0.1,0.1v-0.1"/>
<path id="XMLID_847_" class="st33" d="M82,106.3c0.4,0.7,0.6,1.5,0.7,2.3c0.1-0.1,0-0.2-0.1-0.3"/>
<path id="XMLID_846_" class="st33" d="M81,109.1c0.1,0.3,0.2,0.6,0.3,0.9"/>
<path id="XMLID_845_" class="st33" d="M78.6,101.5c0.6,0.8,1.1,1.7,1.4,2.7"/>
<path id="XMLID_844_" class="st33" d="M79.1,97.8c0.5,0.8,1,1.5,1.6,2.3c-0.1,0-0.2-0.1-0.3-0.2"/>
<path id="XMLID_843_" class="st33" d="M76.7,92.8c0.5,0.6,0.8,1.2,1.1,1.9"/>
<path id="XMLID_842_" class="st33" d="M79.3,90.7c0.7,1,1.4,2,2,3.1"/>
<path id="XMLID_841_" class="st33" d="M80.5,95.2c0.4,0.7,0.8,1.3,1.3,2"/>
<path id="XMLID_840_" class="st33" d="M83.4,99.8c0.4,0.8,0.9,1.7,1.3,2.5"/>
<path id="XMLID_839_" class="st33" d="M82.3,102.3c0.4,0.9,0.7,1.8,1.1,2.7c0,0.1,0.1,0.1,0.1,0.1c0.1,0,0-0.1,0-0.1"/>
<path id="XMLID_838_" class="st33" d="M85.7,106.5c0.2-0.7,0.1-1.5-0.3-2.2"/>
<path id="XMLID_837_" class="st33" d="M88.5,105.2c-0.2-1-0.3-2-0.5-2.9"/>
<path id="XMLID_836_" class="st33" d="M85.2,97.8c0.3,0.4,0.6,0.9,0.8,1.4c0,0.1,0.5,1.1,0.3,0.6"/>
<path id="XMLID_835_" class="st33" d="M84,93.1c0.4,0.6,0.9,1.1,1.3,1.7"/>
<path id="XMLID_834_" class="st33" d="M86,91.3c1,0.7,2,1.5,2.9,2.4"/>
<path id="XMLID_833_" class="st33" d="M87.9,96c0.6,0.9,1.2,1.9,1.8,2.8l0.1,0.1v-0.1"/>
<path id="XMLID_832_" class="st33" d="M90.5,101c0.3,0.9,0.5,1.9,0.5,2.8c0,0.1,0.2,0,0.1-0.1"/>
<path id="XMLID_831_" class="st33" d="M91.9,97.1c0.5,0.5,0.9,1.2,1,2"/>
<path id="XMLID_830_" class="st33" d="M92.4,100.9c0.3,0.6,0.6,1.3,0.8,2"/>
<path id="XMLID_829_" class="st33" d="M95.9,97.9c0.3,0.7,0.6,1.4,0.7,2.2"/>
<path id="XMLID_828_" class="st33" d="M91.2,93.2c0.9,0.7,1.8,1.4,2.7,2.1"/>
<path id="XMLID_827_" class="st33" d="M91.7,90.4c1,0.3,2,0.8,2.8,1.3"/>
<path id="XMLID_826_" class="st33" d="M94.9,88.8c1.1,0.1,2.2,0.5,3.1,1.2"/>
<path id="XMLID_825_" class="st33" d="M96.7,91.8c0.8,0.5,1.5,1.2,2,1.9"/>
<path id="XMLID_824_" class="st33" d="M97.1,95.3c0.8,0.5,1.3,1.3,1.5,2.2"/>
<path id="XMLID_823_" class="st33" d="M101,96.1c0.1,1,0,2-0.3,3"/>
<path id="XMLID_822_" class="st33" d="M100.4,90.5c0.6,0.7,1.1,1.6,1.3,2.5"/>
<path id="XMLID_821_" class="st33" d="M95.3,101.7c0.1,0.4,0.4,0.8,0.7,1.1"/>
<path id="XMLID_820_" class="st33" d="M44.8,62.7c0.9,0.2,1.9,0.5,2.8,0.6c-0.1,0-0.3-0.1-0.4-0.1"/>
<path id="XMLID_819_" class="st33" d="M43,59.1c0.9,0.4,1.7,0.9,2.5,1.5"/>
<path id="XMLID_818_" class="st33" d="M44.6,56.4c1,0.7,2,1.3,3.1,1.8"/>
<path id="XMLID_817_" class="st33" d="M48.3,60.9c1.1,0.5,2.1,1,3.2,1.5"/>
<path id="XMLID_816_" class="st33" d="M51.1,64.6c1,0.4,2.1,0.8,3.2,1.2"/>
<path id="XMLID_815_" class="st33" d="M38.2,59.2c1,0.7,2,1.2,3.2,1.6"/>
<path id="XMLID_814_" class="st33" d="M38,54.7c0.7,0.7,1.4,1.2,2.3,1.6"/>
<path id="XMLID_813_" class="st33" d="M41.1,51.2c0.7,0.9,1.5,1.8,2.3,2.6c-0.1-0.1-0.3-0.1-0.4-0.2"/>
<path id="XMLID_812_" class="st33" d="M37.5,50.1c0.5,0.9,1.2,1.7,2,2.3"/>
<path id="XMLID_811_" class="st33" d="M33.2,50.3c0.7,0.8,1.5,1.6,2.2,2.4"/>
<path id="XMLID_810_" class="st33" d="M32.3,54.3c0.9,0.8,1.8,1.5,2.7,2.3"/>
<path id="XMLID_809_" class="st33" d="M28.6,48.2c0.6,0.9,1.2,1.9,1.9,2.7c0,0.1,0.1,0.1,0.2,0.1s0-0.2-0.1-0.1"/>
<path id="XMLID_808_" class="st33" d="M32.4,44.8c0.5,0.7,1.1,1.3,1.6,2"/>
<path id="XMLID_807_" class="st33" d="M35.1,42.7c0.7,0.7,1.3,1.4,2,2.2"/>
<path id="XMLID_806_" class="st33" d="M38.2,47c0.6,0.7,1.2,1.4,1.9,2.1c0.1,0.2-0.1,0.5-0.3,0.3s0-0.5,0.2-0.4"/>
<path id="XMLID_805_" class="st33" d="M38.9,44.3c0.7,0.4,1.4,1,1.9,1.7"/>
<path id="XMLID_804_" class="st33" d="M28.6,44.1c0.7,0.7,1.3,1.4,1.8,2.1"/>
<path id="XMLID_803_" class="st33" d="M25.2,42.3c0.4,1.1,0.9,2.2,1.4,3.2"/>
<path id="XMLID_802_" class="st33" d="M29.5,40.7c0.5,0.7,0.9,1.3,1.4,2"/>
<path id="XMLID_801_" class="st33" d="M32.4,39.1c0.5,0.3,0.9,0.6,1.2,1.1"/>
<path id="XMLID_800_" class="st33" d="M31,35.1c0.8,0.4,1.5,0.8,2.2,1.4c0.1,0.1,0.1,0.4,0,0.3"/>
<path id="XMLID_799_" class="st33" d="M27.6,35.6c0.4,0.1,0.8,0.3,1.1,0.5"/>
<path id="XMLID_798_" class="st33" d="M26,37.3c0.2,0.3,0.4,0.5,0.7,0.8"/>
<path id="XMLID_797_" class="st33" d="M61.5,40.4c-0.4,0.8-0.8,1.7-1,2.6"/>
<path id="XMLID_796_" class="st33" d="M59.5,37.1c-0.5,0.6-0.9,1.3-1.2,2.1"/>
<path id="XMLID_795_" class="st33" d="M58.4,41.8c-0.3,1-0.6,2-0.9,3"/>
<path id="XMLID_794_" class="st33" d="M59.6,45.6c0,1,0,2-0.1,3"/>
<path id="XMLID_793_" class="st33" d="M57.6,48.5c0,1.1,0.2,2.2,0.6,3.2"/>
<path id="XMLID_792_" class="st33" d="M61,51c0.1,0.9,0.2,1.7,0.5,2.5"/>
<path id="XMLID_791_" class="st33" d="M62.7,45.9c-0.2,1-0.3,1.9-0.5,2.9c0,0.1,0,0.2,0.1,0.2s0.1-0.1,0-0.1"/>
<path id="XMLID_790_" class="st33" d="M63.5,51.2c0.2,0.9,0.4,1.9,0.6,2.8"/>
<path id="XMLID_789_" class="st33" d="M62.3,55.6c0.3,0.6,0.7,1.1,1.2,1.5"/>
<path id="XMLID_444_" class="st33" d="M66.4,56.5c0.4,0.7,0.8,1.5,1.2,2.2"/>
<path id="XMLID_377_" class="st33" d="M67.8,53.3c-0.1,0.8,0.4,1.7,0.8,2.5"/>
<path id="XMLID_376_" class="st33" d="M70.4,51c0.2,0.6,0.6,1.9,0.7,2.6"/>
<path id="XMLID_375_" class="st33" d="M70.6,55.4c0.3,0.7,0.5,1.5,0.8,2.2"/>
<path id="XMLID_374_" class="st33" d="M69.9,58.4c0.4,0.6,0.7,1.2,1.1,1.8"/>
<path id="XMLID_373_" class="st33" d="M74,50.5c0.3,0.8,0.4,1.6,0.5,2.4"/>
<path id="XMLID_372_" class="st33" d="M73.7,57.5c0.2,1,0.3,2,0.3,3"/>
<path id="XMLID_371_" class="st33" d="M80,59c0,0.7-0.2,1.4-0.6,2.1"/>
<path id="XMLID_370_" class="st33" d="M82.9,56.3c-0.1,0.9-0.3,1.7-0.6,2.5"/>
<path id="XMLID_369_" class="st33" d="M84.7,59.8c0.5-1,1.2-2,2-2.8"/>
<path id="XMLID_368_" class="st33" d="M85.6,53.5c0.1,0.9-0.1,1.9-0.4,2.7"/>
<path id="XMLID_367_" class="st33" d="M82.4,53"/>
<path id="XMLID_366_" class="st33" d="M81.7,50.7c0.2,0.8,0.5,1.6,0.7,2.4"/>
<path id="XMLID_365_" class="st33" d="M83.5,47.6c0.6,1,1.1,2.1,1.3,3.2"/>
<path id="XMLID_363_" class="st33" d="M88.4,50.5c0.4,0.8,0.5,1.7,0.4,2.6"/>
<path id="XMLID_362_" class="st33" d="M89.4,55c-0.2,0.9-0.5,1.8-0.7,2.8"/>
<path id="XMLID_361_" class="st33" d="M91.6,52.8c0.2,1-0.3,2-0.8,2.9c0,0.1-0.1,0.1-0.2,0.1s0-0.2,0-0.1"/>
<path id="XMLID_360_" class="st33" d="M91.3,48.8c0.2,0.6,0.3,1.2,0.3,1.8"/>
<path id="XMLID_359_" class="st33" d="M92.9,45c0.4,1,0.7,2,0.9,3"/>
<path id="XMLID_358_" class="st33" d="M94,49.9c0,0.9,0,1.9,0,2.8"/>
<path id="XMLID_357_" class="st33" d="M84.7,43.8c0.3,0.5,0.5,1,0.7,1.5"/>
<path id="XMLID_348_" class="st33" d="M86.3,41.2c0.4,0.7,0.8,1.4,1,2.2"/>
<path id="XMLID_314_" class="st33" d="M87.9,39.1c0.4,0.6,0.8,1.2,1.1,1.9"/>
<path id="XMLID_313_" class="st33" d="M90.1,40.2c0.6,0.7,1.1,1.6,1.2,2.5c0,0.1,0,0.2,0.1,0.2s0.1-0.1,0-0.1"/>
<path id="XMLID_308_" class="st33" d="M92.5,39.1c0.7,0.9,1.2,2,1.4,3.2"/>
<path id="XMLID_309_" class="st33" d="M90.1,36.5c0.4,0.6,0.7,1.3,1.1,1.9"/>
<path id="XMLID_310_" class="st33" d="M91.9,34.7c-0.1,0,0-0.2,0.1-0.2s0.1,0.1,0.2,0.1c0.6,0.8,1.2,1.6,1.7,2.5"/>
<path id="XMLID_311_" class="st33" d="M95.2,41.9c0.4,0.9,0.7,1.9,0.7,3"/>
<path id="XMLID_312_" class="st33" d="M95.9,46.8c0,1.1-0.1,2.2-0.1,3.3"/>
<path id="XMLID_307_" class="st33" d="M54.5,31.4c0.9,0.8,1.8,1.6,2.6,2.4"/>
<path id="XMLID_315_" class="st33" d="M51.2,27.3c1,0.6,1.9,1.3,2.7,2.2"/>
<path id="XMLID_316_" class="st33" d="M48.1,23c0.8,0.7,1.6,1.3,2.4,2"/>
<path id="XMLID_317_" class="st33" d="M45.1,18.7c0.8,0.5,1.6,1.1,2.2,1.8"/>
<path id="XMLID_318_" class="st33" d="M43.2,21.6c0.9,0.4,1.8,1,2.5,1.7"/>
<path id="XMLID_319_" class="st33" d="M44.8,26.4c1,0.5,1.9,1.1,2.8,1.8"/>
<path id="XMLID_320_" class="st33" d="M46.7,25.1c0.6,0.5,1.1,1,1.7,1.5"/>
<path id="XMLID_321_" class="st33" d="M43,15.2c0.6,0.4,1.2,0.9,1.7,1.3"/>
<path id="XMLID_322_" class="st33" d="M49.2,28.9c1,0.5,1.9,1.2,2.7,1.9C52,30.9,52,30.9,52,31s-0.2,0-0.1,0"/>
<path id="XMLID_323_" class="st33" d="M45.6,30.3c1,0.4,1.9,0.7,2.9,1.1"/>
<path id="XMLID_324_" class="st33" d="M46.7,33.7c1.1,0,2.3,0.3,3.3,0.8"/>
<path id="XMLID_325_" class="st33" d="M51.1,33.1c1.2,0.4,2.4,1,3.4,1.7"/>
<path id="XMLID_326_" class="st33" d="M52.4,36.3c1.1,0.1,2.2,0.3,3.2,0.6c-0.2,0-0.3,0-0.5-0.1"/>
<path id="XMLID_327_" class="st33" d="M47.9,37.1c0.8-0.2,1.6-0.3,2.4-0.2"/>
<path id="XMLID_328_" class="st33" d="M51.2,39.4c1.1-0.4,2.3-0.6,3.4-0.6"/>
<path id="XMLID_329_" class="st33" d="M52.9,41.2c0.8-0.2,1.5-0.5,2.3-0.8"/>
<path id="XMLID_330_" class="st33" d="M94.7,32.8c0.8-0.7,1.7-1.3,2.7-1.7c0.1,0,0.1-0.1,0.2,0l-0.1,0.1"/>
<path id="XMLID_331_" class="st33" d="M94.6,29.3c0.7-1,1.6-1.9,2.7-2.5"/>
<path id="XMLID_332_" class="st33" d="M96.5,24c0.7-1.3,1.8-2.4,3-3.3"/>
<path id="XMLID_306_" class="st33" d="M99,24.7c0.9-0.5,1.8-0.9,2.7-1.4"/>
<path id="XMLID_334_" class="st33" d="M98.5,28c1-0.5,2-0.9,3.1-1.2"/>
<path id="XMLID_335_" class="st33" d="M99.7,30.8c0.9-0.2,1.7-0.4,2.6-0.6c0.1,0,0.2,0,0.2,0c0,0.1,0,0.2-0.1,0.1"/>
<path id="XMLID_336_" class="st33" d="M98.3,33.3c1.1-0.3,2.3-0.2,3.3,0.2c-0.1,0-0.2,0-0.3-0.1"/>
<path id="XMLID_305_" class="st33" d="M95.4,35.4c1-0.1,2.1,0,3.1,0.4"/>
<path id="XMLID_338_" class="st33" d="M97.3,37.9c0.8,0.2,1.5,0.6,2.2,1"/>
<path id="XMLID_339_" class="st33" d="M100.4,35.8c0.6,0.1,1.2,0.3,1.7,0.7"/>
<path id="XMLID_340_" class="st33" d="M96.7,40.2c0.5,0.3,1,0.6,1.6,0.9"/>
<path id="XMLID_304_" class="st33" d="M98,18.6c0.6-1.1,1.4-2,2.5-2.6"/>
<path id="XMLID_303_" class="st33" d="M101.3,19.1c0.9-0.5,1.8-1,2.8-1.3"/>
<path id="XMLID_302_" class="st33" d="M103.1,22c0.8-0.3,1.6-0.5,2.4-0.6"/>
<path id="XMLID_344_" class="st33" d="M99.3,25.7c0.5-0.2,1.1-0.4,1.7-0.4c0.1,0,0.1,0,0.2-0.1c0-0.1-0.1-0.1-0.1,0"/>
<path id="XMLID_345_" class="st33" d="M99.8,14.3c0.3-1.1,0.9-2.1,1.8-2.8"/>
<path id="XMLID_346_" class="st33" d="M102.3,14.7c0.3-0.5,0.8-0.9,1.3-1.3"/>
<path id="XMLID_347_" class="st33" d="M100,10.3c0.2-0.6,0.7-1.4,1.3-1.7"/>
<path id="XMLID_351_" class="st34" d="M75.2,58c0,0,0,0.9,0.5,1.1c0.5,0.2,1.5,0.4,1.9-0.2s0.8-1.5-0.6-2
	C75.7,56.5,75.3,57.3,75.2,58z"/>
<path id="XMLID_301_" class="st35" d="M87.1,83.7c0.6,0.4,1.7,1.4,2.3,1.7"/>
<path id="XMLID_300_" class="st35" d="M91.7,86.2c0.9,0.3,1.9,0.6,2.8,0.8"/>
<path id="XMLID_299_" class="st35" d="M97.3,87.7c0.8,0.2,1.5,0.5,2.3,0.9"/>
<path id="XMLID_298_" class="st35" d="M84.3,80c0.3,0.8,0.8,1.6,1.4,2.2"/>
<path id="XMLID_297_" class="st36" d="M74.7,63.6c0,0,0.3-1.5,2.3-1.6s2.2,2,2.2,2"/>
<path id="XMLID_296_" class="st37" d="M82.2,54.3c0,0-0.9,2.7-3.8,0.8c0,0-0.8-0.5-1.6,0.1c-0.8,0.5-4.1,1.2-4.1-1.2v-0.6"/>
<linearGradient id="XMLID_8_" gradientUnits="userSpaceOnUse" x1="98.1091" y1="49.081" x2="92.609" y2="55.6358" gradientTransform="matrix(1 0 0 -1 0 152)">
	<stop  offset="0.1845" style="stop-color:#FFFFFF;stop-opacity:0.3"/>
	<stop  offset="0.3793" style="stop-color:#D9DADA;stop-opacity:0.2283"/>
	<stop  offset="0.8043" style="stop-color:#8C8C8F;stop-opacity:7.198863e-02"/>
	<stop  offset="1" style="stop-color:#6D6E71;stop-opacity:0"/>
</linearGradient>
<path id="XMLID_356_" class="st38" d="M94.3,104.6c0,0-1.2-0.9-3.8-0.3l-2.3,0.8c0,0-0.3-7.8,6.8-9.6s7.7-1.1,7.7-1.1
	s-0.3,3.9-1.1,5.4S94.3,104.6,94.3,104.6z"/>
<path id="XMLID_355_" class="st39" d="M30.1,37.7c0,0-0.6,0.1-0.4,1.9c0,0,0.1,0.6,0.1,0.7c0.1,0.1-2.9,2.2-2.8-0.2s1.9-3.9,2.6-3.3
	C30.3,37.3,30.1,37.7,30.1,37.7z"/>
<linearGradient id="XMLID_9_" gradientUnits="userSpaceOnUse" x1="98.025" y1="99.7622" x2="88.6412" y2="99.7622" gradientTransform="matrix(1 0 0 -1 0 152)">
	<stop  offset="0" style="stop-color:#FFFFFF;stop-opacity:0.3"/>
	<stop  offset="0.4168" style="stop-color:#FDFDFD;stop-opacity:0.175"/>
	<stop  offset="0.567" style="stop-color:#F6F6F7;stop-opacity:0.1299"/>
	<stop  offset="0.674" style="stop-color:#EBEBEB;stop-opacity:9.780130e-02"/>
	<stop  offset="0.7606" style="stop-color:#DADADB;stop-opacity:7.182814e-02"/>
	<stop  offset="0.8347" style="stop-color:#C4C4C5;stop-opacity:4.958713e-02"/>
	<stop  offset="0.9003" style="stop-color:#A8A9AB;stop-opacity:2.990490e-02"/>
	<stop  offset="0.9582" style="stop-color:#898A8C;stop-opacity:1.253310e-02"/>
	<stop  offset="1" style="stop-color:#6D6E71;stop-opacity:0"/>
</linearGradient>
<path id="XMLID_354_" class="st40" d="M88.6,52.3c0,0,6.5-1.1,9.4-0.9c0,0-7.1,0.8-9.2,1.7"/>
<linearGradient id="XMLID_10_" gradientUnits="userSpaceOnUse" x1="97.5" y1="97.748" x2="88.8348" y2="97.748" gradientTransform="matrix(1 0 0 -1 0 152)">
	<stop  offset="0" style="stop-color:#FFFFFF;stop-opacity:0.3"/>
	<stop  offset="0.4168" style="stop-color:#FDFDFD;stop-opacity:0.175"/>
	<stop  offset="0.567" style="stop-color:#F6F6F7;stop-opacity:0.1299"/>
	<stop  offset="0.674" style="stop-color:#EBEBEB;stop-opacity:9.780130e-02"/>
	<stop  offset="0.7606" style="stop-color:#DADADB;stop-opacity:7.182814e-02"/>
	<stop  offset="0.8347" style="stop-color:#C4C4C5;stop-opacity:4.958713e-02"/>
	<stop  offset="0.9003" style="stop-color:#A8A9AB;stop-opacity:2.990490e-02"/>
	<stop  offset="0.9582" style="stop-color:#898A8C;stop-opacity:1.253310e-02"/>
	<stop  offset="1" style="stop-color:#6D6E71;stop-opacity:0"/>
</linearGradient>
<path id="XMLID_353_" class="st41" d="M89.1,53.9c0,0,5-0.6,8.4,0.3c0,0-6.2-0.1-8.7,0.6"/>
<linearGradient id="XMLID_11_" gradientUnits="userSpaceOnUse" x1="94.6686" y1="95.852" x2="88.4159" y2="95.852" gradientTransform="matrix(1 0 0 -1 0 152)">
	<stop  offset="0" style="stop-color:#FFFFFF;stop-opacity:0.3"/>
	<stop  offset="0.4168" style="stop-color:#FDFDFD;stop-opacity:0.175"/>
	<stop  offset="0.567" style="stop-color:#F6F6F7;stop-opacity:0.1299"/>
	<stop  offset="0.674" style="stop-color:#EBEBEB;stop-opacity:9.780130e-02"/>
	<stop  offset="0.7606" style="stop-color:#DADADB;stop-opacity:7.182814e-02"/>
	<stop  offset="0.8347" style="stop-color:#C4C4C5;stop-opacity:4.958713e-02"/>
	<stop  offset="0.9003" style="stop-color:#A8A9AB;stop-opacity:2.990490e-02"/>
	<stop  offset="0.9582" style="stop-color:#898A8C;stop-opacity:1.253310e-02"/>
	<stop  offset="1" style="stop-color:#6D6E71;stop-opacity:0"/>
</linearGradient>
<path id="XMLID_352_" class="st42" d="M88.7,55.8c0,0,3.9-0.1,6,0.7c0,0-4-0.4-6.3-0.1"/>
<linearGradient id="XMLID_12_" gradientUnits="userSpaceOnUse" x1="-1045.4304" y1="28.3651" x2="-1054.8142" y2="28.3651" gradientTransform="matrix(-0.9917 0.1285 -0.1285 -0.9917 -978.9067 215.1408)">
	<stop  offset="0" style="stop-color:#FFFFFF;stop-opacity:0.3"/>
	<stop  offset="0.4168" style="stop-color:#FDFDFD;stop-opacity:0.175"/>
	<stop  offset="0.567" style="stop-color:#F6F6F7;stop-opacity:0.1299"/>
	<stop  offset="0.674" style="stop-color:#EBEBEB;stop-opacity:9.780130e-02"/>
	<stop  offset="0.7606" style="stop-color:#DADADB;stop-opacity:7.182814e-02"/>
	<stop  offset="0.8347" style="stop-color:#C4C4C5;stop-opacity:4.958713e-02"/>
	<stop  offset="0.9003" style="stop-color:#A8A9AB;stop-opacity:2.990490e-02"/>
	<stop  offset="0.9582" style="stop-color:#898A8C;stop-opacity:1.253310e-02"/>
	<stop  offset="1" style="stop-color:#6D6E71;stop-opacity:0"/>
</linearGradient>
<path id="XMLID_350_" class="st43" d="M63.5,51.5c0,0-6.6-0.3-9.4,0.3c0,0,7.2-0.2,9.3,0.6"/>
<linearGradient id="XMLID_13_" gradientUnits="userSpaceOnUse" x1="-1045.9537" y1="26.3877" x2="-1054.6189" y2="26.3877" gradientTransform="matrix(-0.9917 0.1285 -0.1285 -0.9917 -978.9067 215.1408)">
	<stop  offset="0" style="stop-color:#FFFFFF;stop-opacity:0.3"/>
	<stop  offset="0.4168" style="stop-color:#FDFDFD;stop-opacity:0.175"/>
	<stop  offset="0.567" style="stop-color:#F6F6F7;stop-opacity:0.1299"/>
	<stop  offset="0.674" style="stop-color:#EBEBEB;stop-opacity:9.780130e-02"/>
	<stop  offset="0.7606" style="stop-color:#DADADB;stop-opacity:7.182814e-02"/>
	<stop  offset="0.8347" style="stop-color:#C4C4C5;stop-opacity:4.958713e-02"/>
	<stop  offset="0.9003" style="stop-color:#A8A9AB;stop-opacity:2.990490e-02"/>
	<stop  offset="0.9582" style="stop-color:#898A8C;stop-opacity:1.253310e-02"/>
	<stop  offset="1" style="stop-color:#6D6E71;stop-opacity:0"/>
</linearGradient>
<path id="XMLID_349_" class="st44" d="M63.3,53.1c0,0-5.1,0.1-8.3,1.4c0,0,6.2-0.9,8.7-0.5"/>
<linearGradient id="XMLID_14_" gradientUnits="userSpaceOnUse" x1="-1048.7869" y1="24.4917" x2="-1055.0394" y2="24.4917" gradientTransform="matrix(-0.9917 0.1285 -0.1285 -0.9917 -978.9067 215.1408)">
	<stop  offset="0" style="stop-color:#FFFFFF;stop-opacity:0.3"/>
	<stop  offset="0.4168" style="stop-color:#FDFDFD;stop-opacity:0.175"/>
	<stop  offset="0.567" style="stop-color:#F6F6F7;stop-opacity:0.1299"/>
	<stop  offset="0.674" style="stop-color:#EBEBEB;stop-opacity:9.780130e-02"/>
	<stop  offset="0.7606" style="stop-color:#DADADB;stop-opacity:7.182814e-02"/>
	<stop  offset="0.8347" style="stop-color:#C4C4C5;stop-opacity:4.958713e-02"/>
	<stop  offset="0.9003" style="stop-color:#A8A9AB;stop-opacity:2.990490e-02"/>
	<stop  offset="0.9582" style="stop-color:#898A8C;stop-opacity:1.253310e-02"/>
	<stop  offset="1" style="stop-color:#6D6E71;stop-opacity:0"/>
</linearGradient>
<path id="XMLID_295_" class="st45" d="M63.9,55c0,0-3.8,0.4-5.8,1.4c0,0,3.9-0.9,6.2-0.9"/>
<path id="XMLID_294_" class="st11" d="M26.1,75.8c-0.3-0.3-0.3-1-0.3-1.4c-0.1-1.7-0.2-3.2,0.3-4.8c0.2-0.6,0.8-1.5,1.3-1.9
	s1.4-0.3,1.9,0c0.7,0.5,0.7,1.5,0.3,2.3c-0.5,1.1-1.5,1.9-2.3,2.9s-1.5,2.1-1.2,3.3"/>
<path id="XMLID_292_" class="st17" d="M22.6,66.6c0.2-1.7,0.7-3.6,1-5.1c0.2-1.1,0.3-2.2-0.2-3.1c-0.5-0.9-1.5-1.4-2.5-1.3
	c-1,0.1-1.9,1-2,2c-0.1,1.2,0.8,2.3,1.5,3.3C21.5,63.8,22.1,64.8,22.6,66.6"/>
<path id="XMLID_291_" class="st2" d="M20.7,70.9c-0.1-1-0.3-2-0.7-2.8s-1.1-1.7-2-2c-0.5-0.2-1.1-0.3-1.4,0.1
	c-0.2,0.2-0.2,0.4-0.2,0.6c0,0.5,0.2,1.1,0.5,1.4c0.6,0.6,1.5,0.8,2.3,1.1C19.9,69.8,20.2,70.1,20.7,70.9"/>
<g id="XMLID_281_">
	<path id="XMLID_290_" class="st19" d="M81.1,70.1c0,0-0.2-0.6-0.3-0.7c-0.1-0.1,0-0.7,0-0.7l-0.4-0.8l0.1-0.6l-0.3-0.7l0.1-0.6
		L80,65.3l0.1-0.6c0,0-2.5-1.1-5.9,1.2l0.4,0.8l-0.1,0.6l0.4,0.8l-0.1,0.6l0.4,0.6L75,70l0.4,0.4l-0.1,1L81.1,70.1z"/>
	
		<ellipse id="XMLID_289_" transform="matrix(0.9796 -0.201 0.201 0.9796 -12.6032 17.1458)" class="st46" cx="78.1" cy="70.6" rx="3" ry="0.8"/>
	<ellipse id="XMLID_288_" class="st46" cx="75.1" cy="66.1" rx="0.5" ry="0.5"/>
	<path id="XMLID_287_" class="st16" d="M74.7,63.1c0.3-0.6,1-1,1.9-1.2c0.8-0.2,1.4,0,1.9,0.3c0.9,0.7,1,2.2,1,2.2h-0.4
		c0,0-0.1-1.3-0.9-1.9c-0.4-0.3-0.9-0.4-1.6-0.3c-0.8,0.2-1.3,0.5-1.6,1c-0.4,0.7-0.2,1.7,0.1,2.4l0.1,0.3c0,0,0.1,0.1,0,0.2
		C75,66.2,74.9,66,74.9,66l-0.1-0.3l0,0C74.4,65.1,74.2,64,74.7,63.1z"/>
	<path id="XMLID_286_" class="st47" d="M80.4,69c-0.7,0-1.5,0-2.2,0.2"/>
	<path id="XMLID_285_" class="st47" d="M78.5,67.9c-1,0.1-1.9,0.4-2.8,0.9v-0.1"/>
	<path id="XMLID_284_" class="st47" d="M80.3,67.1c-1.2-0.3-2.4-0.2-3.5,0.2"/>
	<path id="XMLID_283_" class="st47" d="M78.1,66.2c-1.1,0.1-2,0.6-2.9,1.1"/>
	<path id="XMLID_282_" class="st47" d="M79.6,65.3c-1.1-0.1-2.1,0-3.1,0.3"/>
</g>
<path id="XMLID_280_" class="st16" d="M30.9,33.9c-0.1-0.9-0.7-1.5-1.6-1.8c-0.2-0.1-0.4-0.1-0.5,0s-0.1,0.3-0.1,0.4
	c0,0.4,0.1,0.8,0.3,1.2c0.1,0.2,0.2,0.3,0.4,0.4c0.1,0,0.3,0,0.4,0C30.3,34,30.5,33.9,30.9,33.9"/>
<path id="XMLID_279_" class="st16" d="M27.7,34.6c-0.4-0.5-1-0.9-1.6-1.2c-0.1-0.1-0.3-0.1-0.4-0.1c-0.2,0.1-0.2,0.4-0.2,0.6
	c0.1,0.8,0.7,1.5,1.5,1.8C27.3,35.4,27.5,35.1,27.7,34.6"/>
<path id="XMLID_278_" class="st16" d="M25.7,37.3c-0.5-0.2-1-0.3-1.5-0.5c-0.1,0-0.2-0.1-0.3,0c-0.2,0.1-0.2,0.3-0.2,0.4
	c0.1,0.9,1,1.7,1.9,1.6c0.2-0.5,0.2-1.1-0.1-1.7"/>
<path id="XMLID_277_" class="st16" d="M24.1,40.1c-0.3-0.1-0.3-0.1-0.6,0c-0.3,0.1-0.6,0.3-0.5,0.6c0,0.2,0.2,0.4,0.4,0.5
	c0.2,0.2,0.5,0.3,0.7,0.4s0.6,0,0.7-0.3c0.1-0.2,0.1-0.5,0-0.7c0-0.2-0.1-0.2-0.2-0.3S24.2,39.9,24.1,40.1"/>
<g id="XMLID_269_">
	<g id="XMLID_274_">
		<path id="XMLID_276_" class="st14" d="M72.6,106.9l9.8,2.7c0,0-3.7,5.6-5.2,10L72.6,106.9z"/>
	</g>
	<g id="XMLID_275_">
	</g>
</g>
<g id="XMLID_246_">
	<g id="XMLID_255_">
		<polygon id="XMLID_268_" class="st48" points="32.4,89.1 42.3,99.8 35.1,109.1 		"/>
		<polygon id="XMLID_267_" class="st49" points="42.3,99.8 39.8,111.9 35.1,109.1 		"/>
		<polygon id="XMLID_266_" class="st3" points="36.4,113.8 39.8,126.3 29.3,122.1 35.1,109.1 		"/>
		<polygon id="XMLID_265_" class="st50" points="39.8,111.9 36.4,113.8 35.1,109.1 		"/>
		<polygon id="XMLID_264_" class="st0" points="32.4,89.1 35.1,109.1 12.4,108.1 22.9,98.1 22.9,98.1 22.9,98.1 		"/>
		<polygon id="XMLID_263_" class="st51" points="35.1,109.1 29.3,122.1 26,117.7 		"/>
		<polygon id="XMLID_262_" class="st52" points="35.1,109.1 26,117.7 18.9,116.9 		"/>
		<polygon id="XMLID_261_" class="st49" points="35.1,109.1 18.9,116.9 12.4,108.1 		"/>
		<polygon id="XMLID_260_" class="st53" points="22.2,75.6 32.4,89.1 19.9,87 		"/>
		<polygon id="XMLID_259_" class="st48" points="32.4,89.1 22.9,98.1 19.9,87 		"/>
		<polygon id="XMLID_258_" class="st53" points="19.9,87 22.9,98.1 22.9,98.1 12.4,97.6 		"/>
		<polygon id="XMLID_257_" class="st51" points="22.9,98.1 12.4,108.1 12.4,97.6 		"/>
	</g>
	<g id="XMLID_256_">
	</g>
</g>
<polygon id="XMLID_245_" class="st17" points="20,86 22.3,81.6 23.7,86.6 24.2,81.2 28.1,87.1 26.4,81.2 22.2,75.6 "/>
<path id="XMLID_902_" class="st0" d="M107,100.4c-1.2-2-7.5-2.1-11.9,3s0.3,7.3,3,6.4s6.4-2.6,8-4.4
	C107.8,103.5,107.6,101.3,107,100.4z"/>
<path id="XMLID_887_" class="st19" d="M99.8,104c-1,0.5-1.7,1-2.8,2.5c-0.2,0.3-0.4,0.7-0.2,1.1c0.2,0.3,0.6,0.4,1,0.4
	c1.1,0,2.1-0.4,3.1-0.9c0.7-0.4,1.4-0.8,1.7-1.5c0.3-0.7,0.1-1.7-0.6-2C101.3,103.2,100.5,103.5,99.8,104"/>
<path id="XMLID_891_" class="st16" d="M105.2,99.6c0.5-0.6,1.2-1.1,2-1.2c0.1,0,0.3,0,0.4,0.1s0,0.4-0.1,0.6c-0.3,0.4-0.6,0.7-1,0.9
	s-1,0.2-1.3-0.1"/>
</svg>
