<?xml version="1.0" encoding="utf-8"?>
<!-- Generator: Adobe Illustrator 23.0.3, SVG Export Plug-In . SVG Version: 6.00 Build 0)  -->
<svg version="1.1" id="Layer_1" xmlns="http://www.w3.org/2000/svg" xmlns:xlink="http://www.w3.org/1999/xlink" x="0px" y="0px"
	 viewBox="0 0 120 150" style="enable-background:new 0 0 120 150;" xml:space="preserve">
<style type="text/css">
	.st0{fill:#CBDADA;}
	.st1{fill:#EE4963;}
	.st2{fill:#F2BD47;}
	.st3{fill:url(#XMLID_2_);}
	.st4{fill:#F9AE18;}
	.st5{fill:#AD1F24;}
	.st6{fill:#0C808B;}
	.st7{fill:#B27B2B;}
	.st8{fill:#FFFFFF;}
	.st9{fill:#AE4A25;}
	.st10{fill:#B52F26;}
	.st11{opacity:0.4;}
	.st12{fill:#020202;}
	.st13{fill:none;stroke:#AD1F24;stroke-width:0.1953;stroke-miterlimit:10;}
	.st14{fill:none;}
	.st15{opacity:0.56;fill:#EB8723;enable-background:new    ;}
	.st16{opacity:0.53;fill:#EB8723;enable-background:new    ;}
	.st17{fill:none;stroke:#AD1F24;stroke-linecap:round;stroke-miterlimit:10;}
	.st18{fill:url(#XMLID_3_);}
	.st19{fill:url(#XMLID_4_);}
	.st20{fill:url(#XMLID_5_);}
	.st21{fill:url(#XMLID_6_);}
	.st22{fill:url(#XMLID_7_);}
	.st23{fill:#7F4D32;}
	.st24{fill:url(#XMLID_8_);}
	.st25{fill:url(#XMLID_9_);}
	.st26{fill:url(#XMLID_10_);}
	.st27{fill:url(#XMLID_11_);}
</style>
<g id="XMLID_1206_">
	<g id="XMLID_1294_">
		<path id="XMLID_478_" d="M69.3,85.3c0.3-0.1,0.6-0.1,1,0c0.1,0,0.2,0,0.3,0.1c0.1,0.1,0,0.3,0,0.4c-0.1,0.2-0.2,0.3-0.3,0.5
			c-0.2,0.3-0.4,0.6-0.6,0.9c-1.1,1.4-2.5,2.4-4.1,3.3c-1.2,0.7-2.5,1.2-3.9,1.7c-5,1.7-12.2,3.5-15.5,0.4l0,0l0,0
			c-0.1-1.1-0.3-2.3-0.3-3.4c0-8.5,1-17,2.9-25.2c2,0.1,3.9,0,5.9-0.3v0.1c2.9,1,6.1,1,8.9-0.1v0.1c1.7,0.1,3.5-0.2,5-1
			c2.8-0.7,5.8-0.2,8.4,1.2s4.7,3.7,5.9,6.4c1,2.1,1.5,4.5,0.6,6.6c0.1,0.1,0.1,0,0.2,0.2s0.3,0.3,0.3,0.6c0,0.2,0,0.5-0.2,0.5
			c-0.1,0-0.2,0-0.3,0l0,0l0,0c-0.1,0-0.2-0.1-0.3-0.1c-1.3-0.8-2.7-1.4-4.2-1.8c-0.1,0-0.2,0-0.2-0.1c-0.1,0-0.2-0.1-0.2-0.1
			c-0.1-0.1-0.2-0.3-0.2-0.4c0-0.2,0.3-0.3,0.5-0.3s0.3,0.1,0.5,0.2c0.7-2.6-0.7-5.5-3-7c-2.3-1.4-5.2-1.6-7.8-0.7c0,1,0,2,0,2.9
			c0.1,0,0.1,0,0.2,0c1.3,0.6,2.4,1.4,3.4,2.3C73,74,73.8,75,74,76.1c0.3,1.1-0.1,2.5-1.1,3.1c-0.8,0.6-2,0.5-3,0.2
			c-0.5-0.2-1-0.5-1.5-0.8l0,0c-0.1,0.7,0,1.3,0.1,2v0.1c3.1,0.2,6.2,1.6,8.2,3.9c1.2,1.4,1.9,3.1,2.2,4.9c0.1,0.5,0.1,1,0.1,1.4
			c0,1.5-0.3,2.9-1,4.2c0.3,0.1,0.6,0.3,0.5,0.6c0,0.2-0.2,0.3-0.4,0.4c-0.1,0-0.2,0.1-0.4,0.1c-0.1,0-0.1,0-0.2,0
			c-1.6-0.1-3.2-0.6-4.5-1.4c-0.2-0.1-0.4-0.3-0.5-0.4c-0.1-0.2-0.2-0.3-0.1-0.5s0.3-0.3,0.5-0.3H73c0.1,0,0.2,0,0.4,0.1
			c1-1.2,1.3-2.8,1-4.3c-0.1-0.5-0.3-1-0.5-1.5c0-0.1-0.1-0.1-0.1-0.2c-0.7-1.2-1.8-2.2-3.2-2.8c-0.6-0.2-1.2-0.4-1.8-0.4v0.1
			C69.1,84.7,69.1,84.7,69.3,85.3L69.3,85.3z M63.7,76.2C63.8,76.2,63.8,76.2,63.7,76.2C63.8,76.2,63.8,76.1,63.7,76.2
			c0-0.1,0-0.1,0-0.2c-0.2-1.2-0.5-2.4-1.1-3.5c0-0.1-0.1-0.2-0.1-0.3l0,0h0.1l-0.1-0.1c-1.5-0.2-3.1,0.7-3.7,2.1
			C60.5,74.6,62.2,75.2,63.7,76.2C63.7,76.1,63.7,76.2,63.7,76.2z"/>
		<path id="XMLID_489_" class="st0" d="M87,98.8c1.6,3.9,2.9,7.6,2.7,12.2h-0.1c-1.4-3-2.8-5.5-4.3-7.6c0.2-0.2,0.4-0.4,0.5-0.7
			c0.2-0.1,0.4-0.2,0.7-0.2c-0.1-0.2-0.3-0.4-0.4-0.6c0.2,0.1,0.3-0.3,0.3-0.5s0-0.3-0.1-0.5c-0.1-0.9-0.4-2-1.3-2.2
			c0.2,0,0.3-0.2,0.3-0.4c-0.1-0.2-0.2-0.3-0.4-0.4c0.2-0.5-0.2-1.1-0.7-1.1c0.1-0.1,0.3-0.1,0.4-0.2c0-0.4-0.3-0.7-0.7-0.7
			c0.1-0.5-0.2-1-0.7-1.1c-0.1,0-0.3,0-0.4-0.1c-0.2-0.1-0.2-0.3-0.3-0.4c-0.2-0.5-0.7-0.8-1.2-0.9c0.1-0.8-0.5-1.6-1.3-1.6
			c-0.1-0.5-0.5-0.8-0.9-1c0-0.5,0-1-0.1-1.4C82.7,91.2,85.4,94.9,87,98.8z"/>
		<path id="XMLID_488_" class="st1" d="M85.9,102.7c-0.1,0.3-0.3,0.5-0.5,0.7c-2-2.9-4.3-5.2-7.2-7.5c0.2-0.1,0.4-0.2,0.4-0.4
			c0-0.3-0.2-0.5-0.5-0.6c0.7-1.3,1.1-2.7,1-4.2c0.4,0.1,0.8,0.5,0.9,1c0.8,0.1,1.4,0.8,1.3,1.6c0.5,0.1,0.9,0.4,1.2,0.9
			c0.1,0.2,0.1,0.3,0.3,0.4c0.1,0.1,0.3,0.1,0.4,0.1c0.5,0.1,0.8,0.6,0.7,1.1c0.4,0,0.7,0.3,0.7,0.7c-0.1,0.1-0.2,0.1-0.4,0.2
			c0.5,0.1,0.9,0.6,0.7,1.1c0.2,0.1,0.3,0.3,0.4,0.4c0.1,0.2-0.1,0.4-0.3,0.4c0.9,0.2,1.2,1.3,1.3,2.2c0,0.2,0,0.3,0.1,0.5
			c0,0.2-0.1,0.6-0.3,0.5c0.1,0.2,0.3,0.4,0.4,0.6C86.3,102.5,86.1,102.6,85.9,102.7z"/>
		<path id="XMLID_487_" class="st2" d="M83.4,78c0.2,0.9-0.2,1.6-0.7,2.2c-0.6,0.7-1.9,0.5-2.8,0c-0.2,0.2-0.6,0.1-0.9-0.1
			c-0.2-0.2-0.3-0.5-0.4-0.8s-0.2-0.6-0.4-0.8c-0.1-0.1-0.2-0.1-0.3-0.2c-0.1-0.2-0.2-0.4-0.2-0.6c0-0.6,0.4-1.2,0.9-1.5l0.1-0.1
			c0.1,0,0.2,0,0.2,0.1c1.5,0.4,2.9,1,4.2,1.8C83.2,77.9,83.3,78,83.4,78L83.4,78L83.4,78z"/>
		
			<linearGradient id="XMLID_2_" gradientUnits="userSpaceOnUse" x1="81.6607" y1="44.3" x2="89.7448" y2="44.3" gradientTransform="matrix(1 0 0 -1 0 152)">
			<stop  offset="0" style="stop-color:#1E75BB"/>
			<stop  offset="3.421955e-02" style="stop-color:#2076BB;stop-opacity:0"/>
			<stop  offset="1" style="stop-color:#338CC2;stop-opacity:0.6"/>
		</linearGradient>
		<path id="XMLID_486_" class="st3" d="M88.7,112.1c-2.4-0.2-4.8-0.9-6.9-2.1c0,0-0.1-0.1-0.2,0l0,0c0.2-0.1,0.5-0.2,0.6-0.4
			c0.2-0.3,0.2-0.9-0.2-1c0.7-0.1,1.3-0.6,1.4-1.3c-0.1-0.1-0.2-0.2-0.4-0.2c0.7-0.1,1.4-0.6,1.7-1.3c-0.2-0.3-0.6-0.5-1-0.6
			c0.7,0,1.4-0.3,1.8-0.9c-0.2-0.1-0.4-0.3-0.6-0.4c0.1-0.1,0.3-0.2,0.4-0.4v-0.1l0.1-0.1c1.5,2.1,2.9,4.6,4.3,7.6h0.1
			c0,0.3,0,0.5-0.1,0.8c0-0.1,0-0.1,0-0.2l0,0l0,0c0,0.2-0.2,0.4-0.3,0.4C89.1,112.1,88.9,112.1,88.7,112.1z"/>
		<path id="XMLID_485_" class="st4" d="M79.5,133.8c1.4,1.1,2.2,2.3,3.7,4.1c-2.9,1.5-3.9,1.2-7.2,0.7c-1.3-0.2-2.9-0.5-4-1.3
			c0-1.1,0.5-2.2,1.2-3c0,0.1,0,0.2,0,0.3c0-0.1,0-0.2,0-0.3c0.3-0.4,0.7-0.7,1.1-1c1-0.7,2.6-1,4-0.2
			C78.7,133.3,79.1,133.6,79.5,133.8z"/>
		<path id="XMLID_484_" class="st2" d="M79.5,133.8c-0.4-0.3-0.8-0.5-1.2-0.8c-1.4-0.8-3-0.5-4,0.2c-0.4,0.3-0.8,0.7-1.1,1
			c-0.3-5.8-0.1-9.8-4.1-16.6c-0.3-0.6-0.7-1.2-1.1-1.8c0.1,0,0.1,0.1,0.2,0.1c0.2,0.1,0.5,0,0.7-0.2c0.1-0.1,0.1-0.3,0.1-0.5
			c0-0.3,0-0.6-0.1-0.9c0.3,0.4,0.7,0.7,1.2,0.8c0.2,0,0.3,0.1,0.5,0c0.5-0.1,0.5-0.8,0.5-1.4c0.3,0.4,0.8,0.8,1.3,0.7
			c0.2-0.1,0.4-0.3,0.5-0.5l0,0c0.7,0.7,1.3,1.5,1.8,2.2C78,121.2,78.9,127.3,79.5,133.8z"/>
		<path id="XMLID_483_" class="st4" d="M77.9,96c0.2,0.8,0,1.7-0.5,2.4c-0.5,0.7-1.5,1.2-2.4,0.9c0,0.2-0.2,0.2-0.4,0.1
			c-0.8-0.2-1.6-0.6-2.2-1.3c-0.2,0-0.4,0-0.5,0c-0.2-0.1-0.3-0.2-0.3-0.4c0-0.1,0.1-0.2,0.1-0.4c0-0.1,0-0.3,0-0.4
			c-0.2-1,0.3-2.1,1-2.8c0.1,0.2,0.3,0.3,0.5,0.4c1.4,0.8,2.9,1.3,4.5,1.4C77.7,96,77.8,96,77.9,96z"/>
		<path id="XMLID_482_" class="st1" d="M74.5,89c0.3,1.5,0,3.2-1,4.3c-0.1,0-0.2-0.1-0.4-0.1H73c-2.3-1.3-4.9-2.3-7.6-2.9
			c1.6-0.9,3-1.9,4.1-3.3c0.2-0.1,0.4-0.1,0.6-0.1c0.3,0,0.6,0.1,0.7,0.4c0.1,0.1,0.1,0.2,0.2,0.3c0.2,0.2,0.5,0,0.8,0
			c0.4-0.1,0.9,0.3,0.9,0.8c0.3-0.1,0.6-0.1,0.9-0.1c0.3,0.1,0.6,0.3,0.5,0.6C74.2,88.9,74.4,88.9,74.5,89z"/>
		<path id="XMLID_481_" class="st4" d="M73.1,134.3c0,0.1,0,0.2,0,0.3C73.1,134.5,73.1,134.4,73.1,134.3L73.1,134.3z"/>
		<path id="XMLID_480_" class="st0" d="M74,89c0-0.3-0.3-0.6-0.5-0.6c-0.3-0.1-0.6,0-0.9,0.1c0-0.4-0.4-0.8-0.9-0.8
			c-0.3,0-0.6,0.2-0.8,0c-0.1-0.1-0.1-0.2-0.2-0.3C70.6,87.2,70.3,87,70,87c-0.2,0-0.4,0.1-0.6,0.1c0.2-0.3,0.4-0.6,0.6-0.9
			c0.5,0,0.9,0.1,1.4,0.2c0.9,0.2,1.7,0.6,2.5,0.9c0.2,0.5,0.4,1,0.5,1.5C74.4,88.9,74.2,88.9,74,89z"/>
		<path id="XMLID_475_" class="st5" d="M68,115.9c0.4,0.6,0.8,1.2,1.1,1.8l-0.2,0.1c-0.5,0.4-1.4,0.2-1.7-0.4l0.1-0.5
			c0.1,0,0.2,0,0.3-0.1c0.2-0.1,0.3-0.4,0.3-0.6s-0.1-0.5-0.2-0.7C67.7,115.7,67.8,115.8,68,115.9z"/>
		<path id="XMLID_474_" class="st6" d="M68.2,55.7c-0.2,0.9-0.4,1.7-0.8,2.5c-1.8,3.5-6.3,5.4-10.2,4.7C61.4,61.5,65.3,59,68.2,55.7
			z"/>
		<path id="XMLID_471_" class="st2" d="M53.1,51.9c0.5,0,1,0.2,1.4,0.5c0.5,0.4,0.8,0.9,0.8,1.5c0.2-0.2,0.3-0.4,0.4-0.7
			c0.2-0.7-0.2-1.5-0.9-1.8C54.2,51.1,53.4,51.3,53.1,51.9z M48.7,63.8c-1.2-0.1-2.3-0.2-3.5-0.5c-0.5-0.1-1.1-0.2-1.6-0.4l0,0
			c-1.6-0.4-3.1-1.1-4.5-1.8c-2.4-1.3-4.6-3-5.9-5.4h-0.1c0-0.7,0.1-1.3,0.3-2c0.8-0.9,1.8-1.6,2.8-2.3c3.5-2.3,7.3-4.1,11.3-5.3
			c-2.4,1.3-4.4,3.3-6.3,5.3c1.8-1.3,3.9-2.3,6-3.1c2.4-1,4.8-1.9,7.2-2.9c0.1,0,0.1,0,0.1,0.1c0.4,1.3,1.4,2.3,2.7,2.6
			s2.8-0.5,3.1-1.8c0.3-0.9-0.1-1.9-0.5-2.8c0,0,0-0.1-0.1-0.1c1.3-0.5,2.6-0.9,4-1.1h0.1l0,0c1.7,2.3,3.2,4.8,4,7.5
			c0.5,1.9,0.7,3.9,0.3,5.8c-2.9,3.3-6.8,5.8-11,7.1c-0.8,0.2-1.6,0.4-2.4,0.6c-0.1,0-0.2,0-0.2,0C52.6,63.8,50.7,63.9,48.7,63.8z"
			/>
		<path id="XMLID_469_" class="st2" d="M63.7,76L63.7,76c-1.5-0.8-3.2-1.4-5-1.8c0.7-1.4,2.2-2.4,3.7-2.1c0,0,0,0,0,0.1
			s0.1,0.2,0.1,0.3C63.2,73.6,63.6,74.8,63.7,76z"/>
		<path id="XMLID_468_" d="M62.5,72.2L62.5,72.2L62.5,72.2C62.5,72.1,62.6,72.2,62.5,72.2C62.6,72.2,62.5,72.2,62.5,72.2z"/>
		<path id="XMLID_467_" d="M33.4,53.7c-0.1,0.7-0.2,1.3-0.3,2c-0.1,1.2,0.1,2.5,0.5,3.6c0.9,2.5,5.6,4.9,10,3.6l0,0
			c0.5,0.2,1.1,0.3,1.6,0.4l0,0c-0.3,0.2-0.7,0.4-1.2,0.6c-1.5,0.5-3.3,0.6-5,0.4c-1-0.1-2-0.4-2.8-0.8c-2.8-1.3-4.7-4.1-5.5-7
			c-0.8-3-0.6-6.1-0.2-9.2c1-7.5,3.7-15.4,8.9-21c-2.4-2.2-4.5-4.7-6.2-7.5l0,0c-0.2-0.4-0.3-0.8-0.5-1.2c-1.6-0.3-2.7-1.2-3.1-1.8
			c-0.5-0.9-0.6-1.9-0.3-2.6c0.4-0.9,0.9-2.1,2.1-2.8s2.7-0.8,3.9-0.2s2,2,1.8,3.4c-0.1,0.6-0.4,1.1-0.6,1.5c-0.4,0.7-1,1.4-1.6,1.9
			c1,1.9,2.5,3.8,3.9,5.4c0.7,0.9,1.5,1.8,2.5,2.4c0,0-0.1,0-0.1,0.1c0.1,0,0.2,0,0.3,0.1c-0.1,0-0.2-0.1-0.2-0.1
			c0.5-0.4,1-0.7,1.6-1l0,0c5-2.6,11.3-2.7,16.4-0.3c0.1,0,0.2,0.1,0.2,0.2l0,0l0,0c1.6-3.2,2.7-6.6,3.2-10.2v-0.1
			c-0.9-0.3-1.8-0.6-2.5-1.2c-1.1-0.9-1.6-2.4-1.3-3.8s1.3-2.5,2.6-3.1s2.8-0.4,4.1,0.2c1.1,0.6,1.9,1.5,2.3,2.6
			c0.3,1.1,0.3,2.7-0.5,3.6C66.7,12.6,66,13,65.2,13c0-0.1,0,1.1-0.1,0.9c-0.6,3.5-1.5,6.9-2.8,10.2l0.2,0.1
			c0.2,0.2,0.3,0.4,0.3,0.6l0,0c4.2,3.8,7.3,8.6,9.6,13.7c1.4,3.5,2.6,7,2.8,10.5s-0.5,7.2-2.6,10.1c-1.1,1.5-2.5,2.7-4.1,3.5
			s-3.3,1.2-5,1v-0.1c-2.8,1.1-6,1.1-8.9,0.1v-0.1c0.1,0,0.2,0,0.2,0c0.8-0.2,1.6-0.4,2.4-0.6c3.9,0.7,8.4-1.2,10.2-4.7
			c0.4-0.8,0.7-1.6,0.8-2.5c0.4-1.9,0.2-3.9-0.3-5.8c-0.8-2.7-2.3-5.2-4-7.5l0,0c-2.4-3.2-4.5-4.1-6-4.9c-2-1.1-6.7-2.2-9.3-1.9
			c-2.1,0.2-6.1,1.8-8.2,4c-2,2.1-4,5.3-6.3,12C33.8,52.2,33.6,52.9,33.4,53.7z"/>
		<path id="XMLID_464_" class="st7" d="M58.2,44.1L58.2,44.1L58,44c-0.6,0.2-1.2,0.4-1.8,0.6c-0.1,0.7,0.5,1.5,1.2,1.7
			c0.2,0,0.4,0.1,0.6,0c0.4-0.1,0.6-0.5,0.6-0.9s-0.1-0.8-0.3-1.1C58.3,44.2,58.3,44.2,58.2,44.1z M63.8,42.4L63.8,42.4
			c-1.4,0.2-2.8,0.6-4,1.1c0,0,0,0-0.1,0s-0.1,0-0.1,0.1c0.1,0,0.1,0,0.2-0.1l0.1,0.1c0.5,0.8,0.8,1.8,0.5,2.8
			c-0.4,1.3-1.8,2-3.1,1.8c-1.3-0.3-2.3-1.3-2.7-2.6c0-0.1,0-0.1-0.1-0.1c-2.4,0.9-4.8,1.9-7.2,2.9c-2.1,0.9-4.2,1.8-6,3.1
			c1.9-2,3.9-4,6.3-5.3c-4,1.2-7.8,3-11.3,5.3c-1,0.7-2,1.4-2.8,2.3c0.1-0.7,0.4-1.4,0.6-2.1c2.3-6.7,4.3-9.9,6.3-12
			c2.1-2.2,6.1-3.8,8.2-4c2.7-0.2,7.3,0.8,9.3,1.9C59.3,38.3,61.5,39.1,63.8,42.4z"/>
		<path id="XMLID_463_" class="st8" d="M58,44l0.1,0.2h0.1c0.1,0,0.1,0.1,0.1,0.2c0.2,0.4,0.3,0.7,0.3,1.1c0,0.4-0.2,0.8-0.6,0.9
			c-0.2,0.1-0.4,0-0.6,0c-0.7-0.2-1.3-0.9-1.2-1.7C56.9,44.3,57.4,44.2,58,44z"/>
		<path id="XMLID_448_" class="st9" d="M54.8,51.3c0.7,0.3,1.1,1.1,0.9,1.8c-0.1,0.3-0.2,0.5-0.4,0.7c-0.1-0.6-0.4-1.2-0.8-1.5
			c-0.4-0.3-0.9-0.5-1.4-0.5C53.4,51.3,54.2,51.1,54.8,51.3z"/>
		<path id="XMLID_447_" class="st2" d="M51.6,135.2c-0.1,0.1-0.1,0.1-0.2,0.2c-2.4-1.4-4.7-2-7.4-1.6c-2.1-6.2-1.7-12.5,0.8-17.7
			c0.3,0.1,0.7,0,1-0.2c-0.2,0.3,0,0.8,0.4,0.9s0.8-0.1,0.9-0.5c0.3,0.6,0.6,1.2,1.2,1.5c0.6,0.3,1.4,0,1.5-0.6
			c0.2,0.4,0.5,0.8,0.9,0.9c0.2,0,0.3,0,0.5-0.1c-1.1,5.1-2.8,10.4-0.2,15.7c0,0,0,0,0,0.1l0.2,0.3
			C51.4,134.6,51.4,134.6,51.6,135.2z"/>
		<path id="XMLID_446_" class="st5" d="M44.1,133.8c2.6-0.4,4.9,0.3,7.4,1.6c-0.9,0.9-2.1,1.7-3.2,2.3c-3.1,1.6-6.6,2.1-10.1,2
			c-1.9,0,0.9-0.7-0.8-1.5c-0.2-0.1-0.4-0.2-0.4-0.5c0-0.1,0-0.3,0.1-0.4c3.4-2.2,2.7-2.4,5.7-3.2C43.2,134,43.6,133.9,44.1,133.8z"
			/>
		<path id="XMLID_442_" class="st5" d="M72.7,113.4C72.7,113.3,72.6,113.3,72.7,113.4C72.6,113.3,72.7,113.4,72.7,113.4z M51.1,118
			c-0.1,0.1-0.3,0.1-0.5,0.1c-0.4-0.1-0.8-0.5-0.9-0.9c-0.1,0.6-0.9,0.9-1.5,0.6s-0.9-0.9-1.2-1.5c-0.1,0.4-0.5,0.6-0.9,0.5
			s-0.6-0.6-0.4-0.9c-0.3,0.2-0.6,0.3-1,0.2c-0.6-0.1-1.1-0.5-1.2-1.1c-0.2,0.3-0.7,0.5-1.1,0.3c-0.4-0.2-0.5-0.7-0.3-1.1
			c-0.7,0.4-1.8-0.1-1.8-1c-0.4,0.3-1,0.3-1.4-0.1c-0.4-0.3-0.4-0.9-0.2-1.3c-0.7,0.3-1.4-0.8-0.9-1.3c-0.3,0-0.5,0.1-0.8,0.1
			c-0.4-0.5-0.3-1.3,0-1.8c-0.8,0.3-1.6-0.9-1.1-1.5c-0.5,0.1-1.1-0.2-1.3-0.7s0.1-1.1,0.5-1.4c-0.4,0.1-0.8-0.2-0.9-0.6
			s0.1-0.8,0.5-0.9c-0.5,0-0.9-0.4-1-0.9c0-0.5,0.3-1,0.8-1.1c-0.4,0.1-0.7-0.5-0.5-0.9s0.5-0.6,0.9-0.8c-0.4,0.2-0.9-0.1-1-0.5
			s0.3-0.9,0.8-0.8c-0.4,0-0.8-0.3-0.9-0.7c0.5-0.3,0.9-0.6,1.4-0.9c-0.4,0-0.8-0.3-0.8-0.7c0-0.4,0.4-0.8,0.8-0.7
			c-0.4-0.1-0.7-0.6-0.7-1c0.1-0.4,0.5-0.8,0.9-0.8c-0.2-0.2-0.5-0.3-0.7-0.5c0.3-0.4,0.8-0.5,1.2-0.3c-0.4-0.4-0.7-1-0.8-1.6
			c0.3-0.1,0.6-0.1,0.9,0.1l0.1-0.1c1,0.7,2.2,1.2,3.4,1.5c1.5,0.4,3,0.5,4.5,0.7c0.6,0.1,0.8-0.2,1.2-0.5c0.3-0.3,0.4-0.3,0.4-0.8
			h0.1l0,0l0,0c3.3,3.1,10.5,1.3,15.5-0.4c1.3-0.4,2.6-1,3.9-1.7c2.7,0.5,5.2,1.5,7.6,2.9c-0.2,0-0.4,0.1-0.5,0.3
			c-0.1,0.2,0,0.4,0.1,0.5c-0.8,0.7-1.2,1.8-1,2.8c0,0.1,0.1,0.3,0,0.4c0,0.1-0.1,0.2-0.1,0.4c0,0.2,0.1,0.3,0.3,0.4
			c0.2,0.1,0.4,0,0.5,0c0.6,0.7,1.3,1.1,2.2,1.3c0.2,0,0.4,0,0.4-0.1c0.9,0.3,1.9-0.2,2.4-0.9c0.5-0.7,0.6-1.6,0.5-2.4
			c0.1,0,0.3,0,0.4-0.1c2.9,2.3,5.1,4.6,7.2,7.5l-0.1,0.1v0.1c-0.1,0.1-0.3,0.2-0.4,0.4c0.2,0.1,0.4,0.3,0.6,0.4
			c-0.4,0.6-1.1,0.9-1.8,0.9c0.4,0.1,0.7,0.3,1,0.6c-0.3,0.7-1,1.1-1.7,1.3c-0.1,0-0.1,0-0.2,0c0.1,0,0.1,0,0.2,0
			c0.2,0,0.3,0.1,0.4,0.2c-0.1,0.7-0.7,1.2-1.4,1.3c0.4,0.1,0.4,0.6,0.2,1c-0.1,0.2-0.4,0.3-0.6,0.4c-0.1,0-0.1,0-0.2,0.1
			c-0.1,0-0.2,0-0.2,0.1c0.1,0,0.2,0,0.2-0.1c0,0,0.1,0,0.1,0.1s0,0.3-0.1,0.4c-0.4,0.6-1,1-1.7,1.2c-0.1,0-0.2,0-0.3,0.1
			c0.1,0,0.2,0,0.3-0.1c0.2,0,0.4,0.1,0.6,0.2c-0.2,0.7-0.9,1.3-1.7,1.2c0.2,0.1,0.4,0.2,0.6,0.2c-0.5,0.5-1.2,0.7-1.9,0.6h-0.1H77
			c0.2,0,0.4,0.1,0.5,0.1c-0.3,0.5-0.7,0.8-1.3,1c-0.4-0.1-0.8-0.1-1.2,0.1c0.4,0.1,0.8,0.1,1.2-0.1c0.1,0,0.2,0.1,0.3,0.1
			c-0.6,0.7-1.4,1.1-2.3,1.1l-0.1,0.1c-0.5-0.8-1.1-1.5-1.8-2.2l0,0c-0.1,0.2-0.3,0.4-0.5,0.5c-0.5,0.1-1-0.3-1.3-0.7
			c0.1,0.5,0,1.2-0.5,1.4c-0.2,0-0.3,0-0.5,0c-0.5-0.1-0.9-0.4-1.2-0.8c0.1,0.3,0.1,0.6,0.1,0.9c0,0.2,0,0.3-0.1,0.5
			s-0.4,0.2-0.7,0.2c-0.1,0-0.1,0-0.2-0.1c-0.2-0.1-0.3-0.2-0.4-0.3c0.1,0.2,0.2,0.4,0.2,0.7c0,0.2-0.1,0.5-0.3,0.6
			c-0.1,0.1-0.2,0.1-0.3,0.1l-0.1,0.5c0.3,0.5-0.3,1.1-0.9,1.1s-1.1-0.3-1.5-0.7c-0.2,0.9-1.6,1.1-2.1,0.4c-0.3,1-2,1.1-2.4,0.1
			c0,0.6-0.7,1-1.2,0.8c-0.6-0.1-1-0.6-1.3-1c0,0.4-0.5,0.7-0.9,0.7s-0.8-0.3-1.1-0.6c0.2,0.5-0.6,1-1.1,0.8s-0.8-0.8-1-1.4
			c0,0.5-0.6,0.8-1.1,0.6c-0.5-0.2-0.8-0.6-1-1C51.6,117.5,51.4,117.8,51.1,118z"/>
		<path id="XMLID_439_" class="st6" d="M33.7,59.3c-0.4-1.2-0.6-2.4-0.5-3.6h0.1c1.2,2.4,3.5,4.2,5.9,5.4c1.4,0.8,3,1.4,4.5,1.8
			C39.3,64.2,34.6,61.8,33.7,59.3z"/>
		<path id="XMLID_438_" class="st2" d="M33.4,86.8c-1.1,0.9-2.1,2-2.9,3.2l0,0c-0.4,0.1-0.9-0.1-1.2-0.4c-0.1-0.1-0.1-0.1-0.2-0.2
			c-0.1,0-0.2,0-0.3,0c-0.4,0.1-0.7-0.4-0.8-0.8c-0.1-0.5-0.2-1-0.1-1.5l0,0c1.2-1.3,3-2.1,4.8-2.2l0,0c0.5,0.4,0.8,1,0.8,1.6
			C33.5,86.7,33.5,86.8,33.4,86.8L33.4,86.8z"/>
		<path id="XMLID_437_" class="st2" d="M31.7,77c-0.3,0.1-0.7,0.3-1,0.5c-0.2,0-0.4,0.1-0.6,0.1c-0.8,0.1-1.6-0.2-2.2-0.7
			c-0.5-0.6-0.8-1.4-0.6-2.1c0.1,0,0.2,0,0.3-0.1c1.6-0.6,3.3-1.2,5.1-1.3l0,0c0.4,0.3,0.7,0.8,0.6,1.3c0,0.2-0.1,0.5-0.2,0.7
			c-0.1,0.4-0.3,0.8-0.5,1.1c-0.1,0.1-0.1,0.1-0.2,0.2C32.2,76.8,32,76.9,31.7,77z"/>
		<path id="XMLID_436_" class="st2" d="M32.3,102.5c0.4,0.6,0.5,1.3,0.1,1.9c-0.2,0.3-0.5,0.6-0.9,0.6c0,0.6-0.2,1.2-0.7,1.6
			s-1.1,0.4-1.7,0.2c-0.2-0.1-0.4-0.3-0.6-0.3c-0.4-0.1-0.8-0.1-1.1-0.3c-0.3-0.2-0.4-0.7-0.7-1c-0.1-0.1-0.3-0.2-0.4-0.4
			c-0.1-0.2-0.1-0.4-0.2-0.6c-0.1-0.6-0.1-1.3-0.2-1.9c0-0.3,0-0.7,0.2-0.8c0.2,0.1,0.4,0.2,0.6,0.3c1.7,0.5,3.4,0.8,5.2,0.8
			C32.2,102.5,32.2,102.5,32.3,102.5L32.3,102.5z"/>
		<path id="XMLID_435_" d="M31.9,84.3c0.4,0,0.8-0.1,1.1,0.2c0.1,0.1,0.2,0.1,0.2,0.2c0,0.2-0.2,0.3-0.4,0.3
			c-0.1-0.1-0.2-0.2-0.3-0.2c-0.1-0.1-0.2-0.1-0.3,0L31.9,84.3C31.9,84.4,31.9,84.3,31.9,84.3z"/>
		<path id="XMLID_432_" d="M40,76.9C40,77,40,77,40,76.9C40,77,40,77,40,76.9z M27.8,86c-0.9-1.8-0.8-4,0.2-5.7
			c0.6-1.1,1.6-2,2.7-2.7c0.3-0.2,0.7-0.4,1-0.5c0.3,0,0.5-0.1,0.7-0.3c0.1,0,0.2-0.1,0.3-0.1c1.9-0.6,4-0.5,6,0
			c0.1,0,1,0.4,1.2,0.3c-0.1,0-0.2-0.1-0.2,0c0.8-2.4,1.6-4.7,2.3-7.1c-2.1-1.1-4.6-1.6-7-1.1c-1.1,0.2-2.2,0.7-2.8,1.6
			c-0.2,0.6-0.3,1.6,0,2.3c0.3,0,0.6,0.2,0.8,0.3l0.1,0.1c0,0.2-0.2,0.2-0.3,0.3l0,0c-1.8,0.1-3.4,0.7-5.1,1.3
			c-0.1,0-0.2,0.1-0.3,0.1c-0.1,0-0.2,0-0.3-0.1c-0.2-0.2-0.1-0.5,0.1-0.7c0.1-0.2,0.3-0.3,0.4-0.4c-0.1-0.3-0.1-0.6-0.1-0.8
			c0-0.6,0-1.2,0.1-1.7c0.2-1.2,0.6-2.4,1.2-3.4c0.4-0.8,0.9-1.5,1.6-2c0.9-0.7,2.1-1.1,3.3-1.2c1.8-0.2,3.6-0.1,5.3,0.1
			c1.4,0.2,2.8,0.5,4.2,0.9c0.3-0.5,0.6-1,0.9-1.5c0.4-0.2,0.8-0.4,1.2-0.6l0,0c1.1,0.2,2.3,0.4,3.5,0.5c-1.9,8.3-2.9,16.8-2.9,25.2
			c0,1.1,0.2,2.3,0.3,3.4h-0.1c0,0.5-0.1,0.5-0.4,0.8c-0.4,0.3-0.6,0.6-1.2,0.5c-1.5-0.2-3.1-0.3-4.5-0.7c-1.2-0.3-2.4-0.8-3.4-1.5
			c-0.2-0.2-0.5-0.3-0.7-0.5c0.3-0.3,0.7-0.5,1.2-0.5c0-0.2,0-0.4,0-0.6c-1.2,0.4-2.2,1.3-3,2.3c-0.9,1.2-1.4,2.6-1.8,4
			c-0.4,1.7-0.6,3.5-0.4,5.3c0.3,0.1,0.5,0,0.7,0.3c0.2,0.2,0.2,0.6-0.1,0.7h-0.1c-0.1,0-0.1,0-0.2,0c-1.8,0-3.5-0.2-5.2-0.8
			c-0.2-0.1-0.4-0.1-0.6-0.3c0,0,0,0-0.1-0.1c-0.2-0.2-0.3-0.5-0.1-0.7c0.2-0.3,0.6-0.2,1-0.2l0,0c0-3.7,1.2-7.4,3.4-10.4
			c0.8-1.2,1.8-2.3,2.9-3.2c0.2-0.2,0.4-0.3,0.5-0.4c1.1-0.9,2.4-1.7,3.8-1.7c0.2-1.4,0.5-2.7,0.9-4c-2-1-4.5-0.9-6.3,0.4
			c-0.3,0.2-0.5,0.4-0.7,0.7c-0.1,0.3-0.1,0.6-0.1,1c0,0.5,0.1,1,0.1,1.5c0,0,0,0.1,0.1,0.1l0,0l0.3,0.4c0.1,0,0.2,0,0.3,0
			c0.1,0.1,0.2,0.1,0.3,0.2l0,0c-1.8,0.1-3.5,0.9-4.8,2.2l0,0c-0.1,0.1-0.2,0.2-0.4,0.2c-0.1,0-0.2-0.2-0.2-0.3
			C27.2,86.7,27.4,86.2,27.8,86z"/>
	</g>
	<g id="XMLID_1293_">
	</g>
</g>
<g id="XMLID_1203_">
	<path id="XMLID_551_" class="st10" d="M45.1,54.6c0,0,0.1-0.1,0.3-0.2c0.2-0.1,0.6-0.3,1-0.4c0.4-0.1,0.9-0.1,1.5-0.1
		c0.5,0,1.1,0.2,1.6,0.3s1.1,0.2,1.5,0.1c0.5-0.1,0.9-0.2,1.3-0.4c0.3-0.2,0.6-0.4,0.8-0.6c0.2-0.2,0.3-0.3,0.3-0.3s0,0.1-0.2,0.4
		c-0.1,0.2-0.3,0.5-0.7,0.8c-0.3,0.3-0.8,0.6-1.4,0.7c-0.6,0.1-1.2,0.1-1.7,0c-1.1-0.3-2.1-0.5-3-0.5c-0.4,0-0.7,0.1-1,0.2
		C45.2,54.6,45.1,54.6,45.1,54.6z"/>
</g>
<g id="XMLID_1167_" class="st11">
	<path id="XMLID_1199_" class="st12" d="M48.2,103.5c-0.4-1.1-0.9-2.6-1.8-3.4c-0.8-0.6-2.3-0.5-3.1,0c-0.7,0.4-0.9,1.2-0.9,1.9
		c0,0.1-0.1,0.2-0.1,0.3c0.1,1.5,0.4,2.9,0.9,4.3c0.4,1,0.9,2.7,1.9,3.3c0.8,0.5,2.3,0.4,3.2,0.1c1-0.3,1.3-1.2,1.1-2.2
		C49.2,106.4,48.8,104.9,48.2,103.5z M45.5,108.4c-0.3-0.3-0.5-0.8-0.6-1.2c-0.6-1.3-1-2.8-1.2-4.2c0-0.1,0.1-0.2,0-0.4
		c-0.1-0.5-0.2-1.2,0.3-1.5c0.2-0.1,0.8-0.2,1.1-0.2c0.2,0,0.4,0.1,0.6,0.2c-0.1,2.5-0.1,5,0.1,7.5
		C45.6,108.6,45.6,108.6,45.5,108.4z M47.8,108.9c-0.3,0.1-1,0.1-1.3,0c-0.1,0-0.2,0-0.2,0c-0.1-2.4-0.2-4.7-0.1-7.1
		c0.2,0.4,0.4,0.8,0.5,1.2c0.6,1.5,1.4,3.3,1.5,4.9C48.2,108.3,48.2,108.7,47.8,108.9z"/>
	<path id="XMLID_1198_" class="st12" d="M51.5,99.2c0.9-0.2,2.1-0.4,2.5-1.4s0.4-2.3,0.3-3.3c-0.1-0.8-1.3-0.8-1.3,0
		c0.1,0.6,0.1,1.3,0,1.9c-0.1,0.4-0.1,0.9-0.4,1.1c-0.2,0.2-0.7,0.3-1,0.3c-0.1,0-0.2,0-0.3,0.1c0.3-1.3,0.7-2.5,1.2-3.8
		c0.1-0.3-0.4-0.4-0.5-0.1c-0.5,1.3-0.9,2.6-1.2,3.9c-0.1,0-0.2-0.1-0.3-0.3c-0.2-0.3-0.2-0.7-0.3-1C50,96,50,95.2,50,94.4
		c0-0.8-1.3-0.8-1.3,0c0,1.3,0.2,2.5,0.6,3.7C49.8,99.2,50.4,99.4,51.5,99.2z"/>
	<path id="XMLID_1194_" class="st12" d="M63.5,108.1c-0.4-2.2-1.7-5.3-3.8-6.4c-0.9-0.5-2-0.6-2.9,0c-0.7,0.5-0.8,1.3-0.7,2.1
		c-0.1,0.1-0.1,0.3-0.1,0.5c0.3,1.4,0.7,2.7,1.3,3.9c0.5,1,1.2,2.6,2.2,3.1c0.8,0.4,2.3,0.2,3-0.3C63.7,110.3,63.7,109.1,63.5,108.1
		z M59,108.4c-0.7-1.2-1.1-2.4-1.5-3.7c0.1-0.1,0.1-0.3,0-0.4c-0.1-0.4-0.3-1.1,0-1.5s0.8-0.4,1.2-0.3c0.2,0,0.3,0.1,0.5,0.2
		c-0.1,2.1,0,4.2,0.1,6.2C59.2,108.9,59.1,108.6,59,108.4z M60.8,110.2c-0.4,0-0.6-0.2-0.9-0.4c-0.1-2.2-0.2-4.4-0.1-6.6
		c0.3,0.3,0.5,0.6,0.7,0.9c0.9,1.3,1.6,2.8,1.8,4.3C62.5,109.5,61.9,110.2,60.8,110.2z"/>
	<path id="XMLID_1193_" class="st12" d="M56.7,114.5c-0.8-1.1-1.7-1.6-3.1-1.6c-1.1,0-1.9,0.2-2.1,1.4c-0.2,1.5,0.5,2.9,1.2,4.1
		c0.4,0.7,1.5,0.1,1.1-0.6c-0.5-0.9-1.1-1.9-1-3c0-0.7,0.2-0.6,0.7-0.6c0.4,0,0.9,0,1.3,0.1c-0.1,1.5-0.1,3,0,4.6
		c0,0.3,0.5,0.3,0.5,0c-0.1-1.4-0.1-2.8,0-4.3c0.6,0.5,1,1.3,1.4,1.9c0.5,0.8,0.9,1.6,1.4,2.4c0.4,0.7,1.5,0.1,1.1-0.6
		C58.4,117,57.6,115.7,56.7,114.5z"/>
	<path id="XMLID_1192_" class="st12" d="M61.1,96c0.5,0.5,0.9,1,1.7,1c0.6,0,1.3-0.2,1.8-0.5c2-1.1,0.4-3.8-0.5-5.1
		c-0.4-0.7-1.5,0-1.1,0.6c0.5,0.8,1.4,1.9,1.1,2.9c-0.1,0.6-0.7,0.7-1.2,0.7c-0.2-1.2-0.4-2.4-0.5-3.7c0-0.3-0.5-0.3-0.5,0
		c0.1,1.2,0.2,2.4,0.4,3.5c-0.3-0.2-0.5-0.5-0.8-0.8c-0.5-0.6-0.9-1.2-1.2-1.9c-0.3-0.8-1.5-0.4-1.2,0.3
		C59.6,94.3,60.2,95.2,61.1,96z"/>
	<path id="XMLID_1191_" class="st12" d="M40.6,93.5c0,0.5-0.1,1.1-0.3,1.7c-0.3,0.7-1.1,0.9-1.8,0.7c-0.1,0-0.1,0-0.1-0.1
		c0.4-1,0.8-1.9,1.4-2.8c0.2-0.3-0.3-0.5-0.4-0.2c-0.5,0.9-1,1.8-1.4,2.7c-0.6-0.8-0.5-2.7-0.4-3.4c0.1-0.8-1.2-0.8-1.3,0
		c-0.1,1.2,0,2.4,0.3,3.6c0.3,1,0.9,1.4,2,1.5c0.9,0.1,2-0.1,2.5-0.8c0.5-0.8,0.6-1.9,0.7-2.8C41.9,92.7,40.7,92.7,40.6,93.5z"/>
	<path id="XMLID_1187_" class="st12" d="M73,108.1c2,0.7,3.4-1.2,2.5-3c-0.9-1.9-2.9-3.8-4.8-4.7c-0.8-0.4-1.6-0.5-2.3,0.2
		c-0.5,0.6-0.6,1.4-0.4,2.1c-0.1,0.2-0.1,0.4,0,0.6C69.3,105.1,70.9,107.4,73,108.1z M74.3,105.4c0.5,0.9,0.1,1.7-0.9,1.5
		c-0.8-1.7-1.7-3.4-2.6-5.1c0.3,0.2,0.7,0.5,0.9,0.7C72.8,103.4,73.8,104.4,74.3,105.4z M70.2,101.5c0.9,1.7,1.8,3.3,2.6,5
		c-0.4-0.3-0.8-0.6-1.1-0.9c-0.8-0.7-1.5-1.6-2.1-2.5V103c-0.1-0.3-0.3-0.7-0.3-1C69.3,101.4,69.7,101.4,70.2,101.5z"/>
	<path id="XMLID_1186_" class="st12" d="M72.2,111.3c-0.9,0-1.9,0.1-2.4,1s0,1.8,0.5,2.6c0.4,0.7,1.5,0,1.1-0.6s-0.7-1.3,0.1-1.6
		c0.4-0.2,0.9-0.1,1.4,0.1c0.1,0.7,0.2,1.3,0.3,2c0,0.3,0.5,0.2,0.5-0.1c-0.1-0.5-0.2-1-0.2-1.5c0.8,0.7,1.5,1.6,1.9,2.6
		c0.3,0.8,1.5,0.4,1.2-0.3C75.9,113.7,74.3,111.4,72.2,111.3z"/>
	<path id="XMLID_1182_" class="st12" d="M84.9,103.7c-0.5-1.5-2.2-3.2-3.6-3.9c-1-0.5-2.4,0.2-2.4,1.2c-0.1,0.2-0.1,0.4,0,0.6
		c0.7,1.5,1.9,3.2,3.3,4.1C83.6,106.4,85.4,105.2,84.9,103.7z M80.4,101.6c0.1-0.1,0-0.3-0.1-0.5c0.2-0.2,0.3-0.2,0.5-0.1
		c0.5,1,0.9,2,1.4,3c-0.3-0.3-0.6-0.7-0.7-0.8C81.1,102.6,80.7,102.1,80.4,101.6z M83.2,104.6c-0.1,0-0.1,0-0.2,0
		c-0.4-1-0.9-1.9-1.3-2.9c0.3,0.3,0.6,0.6,0.9,0.9S84.4,104.5,83.2,104.6z"/>
	<path id="XMLID_1181_" class="st12" d="M70.2,92.5c0.5,0.8,1,1.5,1.7,2.1c0.6,0.6,1.5-0.3,0.9-0.9c-0.4-0.3-0.7-0.7-1-1.1
		c-0.2-0.2-0.3-0.5-0.5-0.7c0-0.1-0.2-0.5-0.3-0.4c0.1-0.3,0.7-0.2,1,0c0.3,0.5,0.6,1,0.9,1.6c0.1,0.3,0.6,0,0.4-0.2
		c-0.1-0.3-0.3-0.6-0.5-0.9c0.2,0.1,0.3,0.2,0.5,0.3c0.6,0.5,1.5-0.4,0.9-0.9c-1.1-0.8-2.8-1.9-4-0.8C69.5,91.2,69.8,91.8,70.2,92.5
		z"/>
	<path id="XMLID_1180_" class="st12" d="M34.6,103.6c-0.8,0.3-0.4,1.5,0.3,1.2c0.2-0.1,0.5,0.1,0.7,0.3c-0.1,0.8-0.2,1.6-0.1,2.4
		c0,0.3,0.5,0.3,0.5,0c-0.1-0.6-0.1-1.3,0-1.9c0,0.1,0.1,0.2,0.1,0.3c0.2,0.5,0.5,1.1,0.6,1.6c0.3,1,0.5,2,0.5,3
		c0,0.8,1.3,0.8,1.3,0c-0.1-1.7-0.4-3.3-1.1-4.8C37,104.6,36.2,103.1,34.6,103.6z"/>
	<path id="XMLID_1179_" class="st12" d="M63.4,99.3c-0.3-0.7-1.4-0.1-1.1,0.6c0.9,2.1,2,4,3.3,5.9c0.4,0.7,1.5,0,1.1-0.6
		C65.5,103.4,64.4,101.4,63.4,99.3z"/>
	<path id="XMLID_1178_" class="st12" d="M75.5,98.6c-0.5-0.6-1.4,0.3-0.9,0.9c0.7,0.9,1.4,1.7,2,2.6c0.5,0.7,1.6,0,1.1-0.6
		C77,100.5,76.3,99.5,75.5,98.6z"/>
	<path id="XMLID_1177_" class="st12" d="M80.8,96.6c0.5,0.7,1.6,0,1.1-0.6c-0.7-1-1.5-2-2.5-2.8c-0.6-0.5-1.5,0.4-0.9,0.9
		C79.4,94.8,80.2,95.6,80.8,96.6z"/>
	<path id="XMLID_1176_" class="st12" d="M69,93.2c-0.9-1.4-1.8-2.8-2.8-4.1c-0.5-0.6-1.4,0.3-0.9,0.9c1,1.2,1.8,2.5,2.6,3.8
		C68.3,94.6,69.4,93.9,69,93.2z"/>
	<path id="XMLID_1175_" class="st12" d="M51.5,105.6c0.3,1,0.9,1.9,1.2,2.8c0.3,0.8,1.5,0.4,1.2-0.3c-0.3-1-0.9-1.9-1.2-2.8
		c-0.3-1-0.5-2.1-0.7-3.1c-0.1-0.7-1-0.5-1.2,0c-0.1,0.2-0.2,0.4-0.3,0.6c-0.2,0.4,0.1,0.7,0.5,0.7
		C51.2,104.2,51.3,104.9,51.5,105.6z"/>
	<path id="XMLID_1174_" class="st12" d="M46.6,112.9c-0.2-0.6-1-0.6-1.2,0c-0.1,0.3-0.2,0.5-0.3,0.8c-0.2,0.5,0.2,0.8,0.6,0.8
		c0.2,0.8,0.4,1.5,0.6,2.3c0.2,0.8,1.4,0.5,1.2-0.3C47.3,115.2,47,114.1,46.6,112.9z"/>
	<path id="XMLID_1173_" class="st12" d="M39.3,99.7c0-0.8-1-0.8-1.2-0.2c-0.1,0.3-0.3,0.7-0.4,1c-0.2,0.4,0.1,0.7,0.4,0.7
		c0.1,1.8,0.4,3.5,1,5.2c0.2,0.8,1.5,0.4,1.2-0.3C39.6,104,39.3,101.9,39.3,99.7z"/>
	<path id="XMLID_1172_" class="st12" d="M45.5,96.7c0-0.9-0.1-1.9,0-2.8c0.1-0.8-1.2-0.8-1.3,0c-0.1,0.9-0.1,1.9,0,2.8
		C44.3,97.5,45.6,97.5,45.5,96.7z"/>
	<path id="XMLID_1171_" class="st12" d="M57.3,97.2c0.3,0.7,1.4,0.1,1.1-0.6c-0.4-0.9-0.7-1.7-1-2.6c-0.3-0.7-1.5-0.4-1.2,0.3
		C56.5,95.2,56.9,96.2,57.3,97.2z"/>
	<path id="XMLID_1170_" class="st12" d="M69.1,88.2c0.4,0.2,0.8,0.5,1.2,0.8c0.3,0.2,0.6,0.3,0.9,0c0.2-0.2,0.3-0.7,0-0.9
		c-0.5-0.4-0.9-0.7-1.4-1C69,86.7,68.4,87.8,69.1,88.2z"/>
	<path id="XMLID_1169_" class="st12" d="M63.1,113.3c-0.4-0.7-1.3-0.2-1.2,0.5c0,0.2,0,0.3-0.1,0.5c-0.2,0.5,0.3,0.8,0.7,0.7
		c0.6,1.1,1.2,2.3,1.8,3.4c0.4,0.7,1.5,0.1,1.1-0.6C64.7,116.3,63.9,114.8,63.1,113.3z"/>
	<path id="XMLID_1168_" class="st12" d="M79.3,108.5c-0.3-0.6-1.2-0.3-1.2,0.3c0,0.4,0,0.8,0,1.2c0,0.5,0.5,0.7,0.8,0.6
		c0.3,0.5,0.5,1,0.8,1.5c0.4,0.7,1.5,0.1,1.1-0.6C80.3,110.4,79.8,109.4,79.3,108.5z"/>
</g>
<path id="XMLID_1166_" class="st12" d="M41.6,131.1c0,0,2.2,0,2.9,0.9s0.1,1.2,0.1,1.2l0.9-0.5c0,0,0.6,0,2.7,1.2
	c2.1,1.2,1.7-1.9,2.8-1.9c0.6,0,1.6,2.4,1.9,3.8s0.4,1.8,0.4,2.3s-0.4,1.4-2.8,2.2c-2.4,0.8-11.2,2.1-14.2,1.3s-4.2-1.2-4.3-2.1
	c-0.1-1,0.3-1.6,0.3-1.6l0.6-0.1c0,0,0.6-1.4,1.3-1.5s1.9-0.3,3.7-1.6c0.9-0.6,2.7-1.8,2.7-1.8L41.6,131.1z"/>
<path id="XMLID_1165_" class="st12" d="M73.4,132.8c0,0,3.2-2.3,6-0.5c0,0,0.5,0.5,0.2,1.3c0,0,0.2-0.5,0.8-0.3s1.7,2.5,3.3,3.9
	c1.6,1.4,1.3,2.1,1.3,2.1l0.5,0.4c0,0,0.5,1.3,0.2,2.2c-0.3,0.8-3.3,2.8-7.7,1.7c-4.4-1.2-5.6-2.7-6.9-3.4s-0.2-1.6,0-3.4
	c0.2-1.8,0.8-3.1,0.8-3.1S72,131.4,73.4,132.8z"/>
<path id="XMLID_1164_" class="st5" d="M52.1,133.7c0,0-0.3,3.4-2,2.8c-1.7-0.6-3.5-1.4-3.5-1.4l-1,1.6l2.4,2c0,0,2.4-0.2,5-1.6
	l0.2-0.4C53.1,136.7,52.9,135,52.1,133.7z"/>
<path id="XMLID_1163_" class="st5" d="M71.6,133.9c0,0-0.1,2.5,1.3,2.1s1.3-0.3,1.3-0.3s-1.1,4-1.1,4.1s-2.7-1.3-2.4-1.9
	C70.7,137.8,71.1,135,71.6,133.9z"/>
<g id="XMLID_1162_">
	<g id="XMLID_1338_">
		<path id="XMLID_1342_" class="st5" d="M42,138.1c0.5-0.1,1.4-0.5,1.8-0.2c0.4,0.2,0.9,0.9,1.2,1.3c0-0.1,0-0.3,0-0.4
			c-0.3,0.2-0.6,0.4-0.9,0.6c-0.1,0.1-0.2,0.1-0.2,0.2c-0.3,0.2-0.2,0.3-0.4,0.1c-0.6-0.5-1.1-1.3-1.5-1.9c0,0.1-0.1,0.2-0.1,0.4
			c0.1,0,0.3-0.1,0.4-0.1c0.3-0.1,0.2-0.5-0.1-0.5c-0.1,0-0.3,0.1-0.4,0.1c-0.1,0-0.2,0.2-0.1,0.4c0.3,0.4,0.6,0.8,0.9,1.2
			c0.2,0.3,0.6,0.9,0.9,1c0.2,0.1,0.3,0.1,0.5,0c0.5-0.3,1-0.8,1.5-1.1c0.1-0.1,0.2-0.3,0-0.4c-0.3-0.3-0.6-0.6-0.9-1
			c-0.2-0.2-0.3-0.5-0.6-0.5c-0.5-0.2-1.5,0.2-2,0.3C41.6,137.7,41.7,138.2,42,138.1L42,138.1z"/>
	</g>
</g>
<g id="XMLID_1161_">
	<g id="XMLID_1332_">
		<path id="XMLID_1336_" class="st5" d="M44.5,137.4c0.4,0.4,0.8,0.9,1.2,1.3c0.2,0.2,0.6-0.1,0.3-0.3c-0.4-0.5-0.8-0.9-1.2-1.3
			C44.6,136.8,44.3,137.2,44.5,137.4L44.5,137.4z"/>
	</g>
</g>
<g id="XMLID_1160_">
	<g id="XMLID_552_">
		<path id="XMLID_1330_" class="st5" d="M45.8,138.9c0.2-0.1,0.4-0.1,0.6-0.2c0.3-0.1,0.2-0.6-0.1-0.5c-0.2,0.1-0.4,0.1-0.6,0.2
			C45.4,138.5,45.5,139,45.8,138.9L45.8,138.9z"/>
	</g>
</g>
<g id="XMLID_1159_">
	<g id="XMLID_546_">
		<path id="XMLID_550_" class="st5" d="M44.7,137.5c0.2,0,0.3,0,0.5,0c0.3,0,0.3-0.5,0-0.5c-0.2,0-0.3,0-0.5,0
			C44.4,137,44.4,137.5,44.7,137.5L44.7,137.5z"/>
	</g>
</g>
<path id="XMLID_1158_" class="st13" d="M43.8,137.5L43.8,137.5C43.7,137.5,43.7,137.5,43.8,137.5c-0.1,0.9-0.2,1.7-0.2,2.6"/>
<path id="XMLID_1157_" class="st8" d="M32.9,137.7c0,0,0.4,2,7.2,2h1.4l-0.7-1.2c0,0-6.2,0.7-7.5-1L32.9,137.7z"/>
<path id="XMLID_1156_" class="st8" d="M85,139.7c0,0,0.2,1.8-3.1,2.2c-3.3,0.3-5.8-1-5.8-1l0.6-2.1c0,0,2.4,2.5,5.5,1.9
	s2.7-1.9,2.7-1.9L85,139.7z"/>
<path id="XMLID_1155_" class="st5" d="M44.3,99.2c0.3,0.5,0.9,0.6,1.4,0.4c-0.1,0.2,0,0.4,0.2,0.5s0.4,0.1,0.7,0
	c-0.2,0.1-0.1,0.4,0.1,0.6c0.2,0.1,0.4,0.1,0.6,0.2c-0.2,0.1-0.2,0.4-0.1,0.6c0.1,0.2,0.3,0.3,0.5,0.2c-0.1,0.2-0.2,0.3-0.2,0.5
	s0.2,0.4,0.3,0.4c-0.3,0.3,0,0.9,0.4,0.8c-0.3,0.3-0.1,0.9,0.3,0.9c-0.2,0.2-0.1,0.7,0.2,0.8c-0.2,0.3,0.1,0.8,0.4,0.8
	c-0.3,0.4-0.2,1,0.1,1.3c-0.3,0.4-0.1,1,0.4,1.1c-0.4,0.2-0.4,0.8-0.1,1.1c-0.3,0-0.5,0.2-0.5,0.5c-0.1,0-0.3-0.1-0.4,0
	c-0.1,0-0.2,0.2-0.2,0.3c0.1,0.1,0.2,0.1,0.4,0.1c0.4,0,0.8-0.1,1.2-0.1c0.1,0,0.2,0,0.3-0.1c0.2-0.1,0.2-0.4,0.2-0.7
	c-0.3-2.6-1-5.2-2.2-7.6c-0.3-0.7-0.7-1.4-1.3-2s-1.3-1-2.1-1c-0.3,0-0.6,0.1-0.8,0.3c0.1,0,0.2,0.1,0.3,0.1"/>
<path id="XMLID_1154_" class="st5" d="M44.3,101.2c-0.3-0.2-0.7,0.1-0.8,0.4c-0.1,0.2-0.1,0.6,0.2,0.6c-0.2,0.1-0.2,0.5,0,0.6
	c-0.2,0.2-0.2,0.6,0.1,0.7c-0.3,0.2-0.2,0.8,0.2,0.9c-0.2,0.2-0.1,0.6,0.2,0.7c-0.2,0.1-0.2,0.4-0.1,0.6c0.1,0.2,0.3,0.3,0.5,0.3
	c-0.3,0.3-0.2,0.8,0.2,1c-0.2,0.2,0,0.6,0.3,0.6c-0.1,0.2,0.1,0.6,0.4,0.6c-0.1,0.2,0.1,0.5,0.4,0.5c-0.3-1.9-0.7-3.8-1.3-5.6
	c-0.2-0.7-0.4-1.5-0.1-2.2c0,0.1,0,0.3,0,0.4"/>
<path id="XMLID_1153_" class="st5" d="M54.8,93.9c-0.2-0.1-0.5,0-0.7,0.1c0.1,0.2,0.2,0.3,0.4,0.4c-0.1-0.1-0.3,0.1-0.4,0.2
	c0,0.2,0.2,0.3,0.3,0.2c-0.2,0-0.4,0.1-0.4,0.3c0,0.2,0.1,0.4,0.2,0.4c-0.1,0-0.3,0.2-0.3,0.3c0,0.1,0.1,0.3,0.2,0.3
	c-0.2,0-0.3,0.1-0.3,0.3s0.1,0.3,0.2,0.4c-0.1-0.1-0.3,0.1-0.2,0.3c0,0.1,0.2,0.2,0.3,0.3c-0.1,0-0.3,0-0.4,0.1
	c-0.1,0.1,0,0.3,0.1,0.4c-0.1-0.1-0.2,0-0.3,0.1c0,0.1,0,0.2,0,0.3c-0.1-0.1-0.3-0.1-0.4,0s-0.2,0.3-0.1,0.4c-0.1-0.1-0.2-0.1-0.3,0
	s0,0.2,0.1,0.3c-0.1-0.1-0.2-0.2-0.4-0.1c-0.1,0.1-0.2,0.2-0.2,0.3c-0.2-0.2-0.7-0.1-0.7,0.2c-0.2-0.1-0.3-0.1-0.5,0
	s-0.2,0.3-0.2,0.4s0.1,0.1,0.2,0.1c0.6,0.2,1.2,0.1,1.7-0.2c0.5-0.3,0.9-0.8,1.2-1.3c0.3-0.6,0.5-1.2,0.6-1.9c0.1-0.9,0-1.8-0.2-2.7
	C54.6,93.9,54.7,93.9,54.8,93.9"/>
<path id="XMLID_1152_" class="st5" d="M50.9,97.7c0.1,0.1,0.1,0.3,0,0.4s-0.3-0.2-0.2-0.3c-0.1,0.1-0.2,0-0.3-0.1s0-0.2,0.1-0.3
	c-0.1,0-0.3-0.1-0.3-0.3c0-0.1,0-0.3,0.1-0.4c-0.2,0-0.4,0-0.4-0.2c0-0.1,0-0.1,0.1-0.1c0.1-0.1,0.1-0.2,0.2-0.3
	c-0.1,0.1-0.4,0-0.4-0.1c0-0.2,0.1-0.3,0.2-0.4c-0.2,0-0.3-0.1-0.4-0.3s0.1-0.4,0.2-0.4c-0.2-0.1-0.2-0.4-0.1-0.6l-0.1-0.1
	c0.3-0.1,0.6-0.1,0.8,0.1c0.1,0.1,0.2,0.2,0.3,0.3c0.1,0.2,0,0.5,0,0.8c-0.1,0.6,0,1.2,0.1,1.9c0,0.2,0.1,0.4,0.1,0.6"/>
<path id="XMLID_1151_" class="st5" d="M42.4,93.4c-0.1-0.1-0.2-0.2-0.4-0.2s-0.3,0.1-0.3,0.3c0.1,0.1,0.3,0.2,0.3,0.3
	c-0.1,0-0.2,0-0.4,0c0,0.2,0.1,0.4,0.3,0.5c-0.2,0-0.3,0.2-0.4,0.4c0,0.2,0.1,0.4,0.2,0.5c-0.2,0-0.4,0.1-0.4,0.3
	c-0.1,0.2,0,0.4,0.1,0.5c-0.1-0.1-0.3,0-0.4,0.1c-0.1,0.1,0,0.3,0.1,0.4c-0.2-0.1-0.4-0.1-0.6,0s-0.2,0.4,0,0.5
	c-0.2-0.1-0.4-0.2-0.6-0.1c0,0.1,0.1,0.1,0.1,0.2C39.8,97,39.4,97,39.1,97c0,0.1,0.1,0.2,0.2,0.2c-0.2-0.1-0.4-0.2-0.6-0.2
	c-0.1,0-0.1,0-0.2,0c-0.1,0.1-0.1,0.3,0,0.4s0.2,0.2,0.4,0.2c0.4,0.1,0.9,0.1,1.4,0.1c0.3,0,0.6-0.1,0.8-0.3
	c0.2-0.1,0.3-0.3,0.4-0.5c0.6-1.1,0.9-2.3,0.9-3.6"/>
<path id="XMLID_1150_" class="st5" d="M38,95c0,0.1,0.1,0.2,0,0.3c0,0.1-0.2,0.2-0.2,0.1l-0.1-0.1c-0.1-0.1-0.1-0.3-0.1-0.4
	s0-0.3-0.1-0.3c0.1-0.1,0.2-0.2,0.4-0.3c-0.3,0-0.6-0.1-0.8-0.3c0.1-0.2,0.3-0.3,0.5-0.2c-0.1-0.1-0.3-0.2-0.3-0.3
	c0-0.1,0-0.3,0.2-0.3c-0.1-0.1-0.2-0.3-0.2-0.5s0.3-0.3,0.4-0.1c-0.1,0-0.3-0.2-0.3-0.3c0-0.1,0.2-0.1,0.3-0.1
	c0.5,0.2,0.8,0.7,0.8,1.2c0,0.2,0,0.4-0.1,0.6c-0.1,0.4-0.2,0.9-0.3,1.3"/>
<path id="XMLID_1149_" class="st5" d="M39.8,99.4c-0.1-0.1-0.3-0.1-0.4-0.1s-0.3,0.1-0.3,0.2s0.1,0.3,0.3,0.2
	c-0.1-0.1-0.3,0.1-0.4,0.2c0,0.2,0.2,0.3,0.3,0.3c-0.2,0.1-0.2,0.4-0.1,0.6c-0.2,0.1-0.3,0.2-0.2,0.4c0,0.2,0.2,0.3,0.3,0.3
	c-0.3,0.2-0.2,0.7,0.1,0.9c-0.2,0.2-0.1,0.6,0.1,0.7c-0.1,0.2-0.1,0.6,0.2,0.7c-0.2,0.1-0.3,0.3-0.3,0.6c0.1,0.2,0.3,0.3,0.5,0.3
	c-0.2,0-0.3,0.2-0.2,0.4s0.2,0.3,0.3,0.3c-0.2,0-0.3,0.2-0.3,0.3s0.2,0.3,0.3,0.3c-0.2,0.2-0.2,0.5-0.1,0.7c0.1,0.2,0.4,0.3,0.7,0.3
	c0.1,0,0.2-0.1,0.2-0.1c0.1-0.1,0.1-0.2,0-0.4c-0.4-2.6-0.8-5.3-1.4-7.8c0,0.2-0.1,0.4-0.1,0.7"/>
<path id="XMLID_1148_" class="st5" d="M35.8,103.4c-0.3-0.1-0.5,0-0.7,0.2c0.3,0.2,0.7,0.3,1,0.2c-0.2,0.3,0.3,0.8,0.6,0.6
	c-0.2,0-0.2,0.3-0.1,0.5c0.1,0.1,0.4,0.1,0.6,0.1c-0.2,0.1-0.2,0.3,0,0.4c0.1,0.1,0.3,0.2,0.5,0.2c-0.3,0.3-0.1,0.9,0.4,1
	c-0.1-0.1-0.3,0.1-0.3,0.2c0,0.2,0.2,0.2,0.4,0.2c-0.2-0.1-0.3,0.1-0.4,0.2c0,0.2,0.1,0.3,0.3,0.3c-0.2,0-0.3,0.2-0.3,0.3
	c0,0.2,0.2,0.3,0.3,0.3c-0.1,0.3,0,0.7,0.3,0.9c-0.2,0.2-0.1,0.6,0.2,0.7c-0.2,0-0.3,0.2-0.2,0.4c0,0.2,0.2,0.3,0.3,0.4
	c-0.1,0-0.3,0-0.4-0.1c0,0.2,0.1,0.3,0.2,0.4c-0.2,0-0.3,0-0.4,0.1c0.2,0.3,0.5,0.4,0.9,0.4c0.1,0,0.3-0.1,0.4-0.2
	c0.1-0.1,0-0.3,0-0.4c-0.2-1.4-0.3-2.8-0.6-4.1c-0.2-0.8-0.4-1.6-0.9-2.2c-0.7-0.8-1.8-1.2-2.8-1.5"/>
<path id="XMLID_1147_" class="st5" d="M52.3,101.8c-0.1-0.1-0.4-0.1-0.4,0c-0.1,0.2,0.1,0.4,0.2,0.4c-0.1-0.1-0.3,0.1-0.2,0.2
	s0.2,0.2,0.3,0.2c-0.1,0.1-0.2,0.2-0.2,0.4s0.2,0.3,0.4,0.3c-0.3,0.2-0.1,0.8,0.3,0.8c-0.1,0-0.3,0.1-0.3,0.2s0.1,0.3,0.2,0.2
	c-0.1,0.1-0.2,0.4-0.1,0.5c0.1,0.2,0.3,0.3,0.5,0.2c-0.2,0.1-0.1,0.5,0.2,0.5c-0.1,0.1-0.2,0.3-0.1,0.4c0.1,0.1,0.3,0.2,0.4,0.1
	c-0.2,0.1,0,0.5,0.2,0.5c-0.1,0.1-0.2,0.3-0.1,0.5c0.1,0.2,0.3,0.3,0.4,0.3c-0.1,0-0.2,0.2-0.2,0.3c0.1,0.1,0.2,0.2,0.4,0.1
	c-0.2,0-0.2,0.3-0.1,0.5s0.4,0.1,0.6,0c0.1-0.1,0.2-0.4,0.2-0.6s-0.1-0.4-0.1-0.6c-0.2-0.7-0.4-1.4-0.4-2.2"/>
<path id="XMLID_1146_" class="st5" d="M46.8,112.5c-0.2-0.1-0.6,0-0.6,0.3c0,0.2,0.1,0.3,0.3,0.3c0.1,0.1,0.3,0.1,0.4,0.1
	c-0.2,0-0.3,0.2-0.3,0.4c0,0.2,0.3,0.3,0.4,0.2c-0.2,0-0.3,0.2-0.2,0.4s0.2,0.3,0.4,0.3c-0.1,0-0.2,0.1-0.3,0.1
	c0,0.2,0.2,0.4,0.4,0.4c-0.2,0-0.3,0.2-0.3,0.4c0,0.2,0.2,0.3,0.4,0.3c-0.2,0.1-0.2,0.3-0.2,0.4c0.1,0.2,0.2,0.3,0.4,0.3
	c-0.2,0-0.3,0.2-0.2,0.4c0.1,0.2,0.3,0.2,0.5,0.2c-0.1-0.1-0.2,0-0.3,0.1c0,0.1,0.1,0.2,0.2,0.3c0.1,0,0.2,0,0.3,0
	c0-0.1-0.1,0,0,0.1c0.2,0.2,0.5,0.1,0.6-0.1s0.1-0.5,0.1-0.7c-0.2-1-0.5-2-0.8-3c-0.1-0.3-0.2-0.6-0.4-0.8
	C47.4,112.7,47.1,112.5,46.8,112.5C46.8,112.4,46.6,112.5,46.8,112.5"/>
<path id="XMLID_1145_" class="st5" d="M52.7,112.6c-0.2-0.1-0.4,0-0.4,0.2s0.2,0.4,0.4,0.4s0.4-0.1,0.5-0.3c-0.2,0-0.2,0.5,0.1,0.5
	c0.2,0,0.5-0.2,0.6-0.4c0.1,0.2,0.3,0.4,0.5,0.3c0.2,0,0.4-0.2,0.4-0.4c-0.1,0.2,0,0.4,0.1,0.5s0.4,0.1,0.5-0.1
	c0,0.4,0.6,0.6,0.8,0.3c-0.1,0.1-0.2,0.3-0.1,0.5s0.3,0.2,0.5,0.2c-0.1,0.1-0.1,0.4,0,0.5c0.2,0.1,0.4,0.1,0.5-0.1
	c-0.1,0.1-0.1,0.3,0,0.5c0.1,0.1,0.3,0.2,0.4,0.1c-0.1,0.1-0.2,0.3-0.2,0.5s0.3,0.3,0.4,0.2c-0.1,0.1-0.1,0.3,0,0.4s0.3,0.1,0.4,0
	c-0.1,0.2-0.2,0.4-0.1,0.5c0.1,0.2,0.4,0.2,0.4,0.1c-0.1,0.1-0.1,0.2-0.1,0.4c0,0.1,0.2,0.2,0.3,0.1c-0.2,0.1-0.2,0.4-0.1,0.6
	c0.1,0.2,0.4,0.3,0.6,0.1c-0.2,0.1-0.1,0.5,0.1,0.6c0.3,0,0.5-0.2,0.5-0.4c0-0.3,0-0.5-0.1-0.7c-0.3-0.8-0.7-1.6-1.3-2.3
	c-0.5-0.6-1-1.1-1.6-1.5c-0.5-0.4-0.9-0.8-1.4-1c-1-0.5-2.2-0.6-3.2-0.2"/>
<path id="XMLID_1144_" class="st14" d="M53.1,114.3c-0.2-0.1-0.4-0.1-0.5,0c-0.2,0.1-0.3,0.2-0.3,0.4c0,0.2,0.3,0.3,0.4,0.2
	c-0.1,0-0.3,0.1-0.4,0.2c-0.1,0.1-0.2,0.3-0.1,0.4c0,0.1,0.1,0.1,0.1,0.1c0.2,0.1,0.3,0.1,0.5,0.1c-0.2-0.1-0.4,0.1-0.4,0.3
	c0,0.2,0.2,0.3,0.4,0.3c-0.2,0.1-0.3,0.3-0.2,0.4c0.1,0.2,0.3,0.2,0.5,0.1c-0.1,0.1-0.2,0.1-0.3,0.2c0.1,0.2,0.4,0.3,0.7,0.4
	c-0.2,0-0.3,0.2-0.2,0.4c0.1,0.2,0.3,0.2,0.4,0.1c-0.2,0-0.3,0.3-0.3,0.4c0.1,0.2,0.3,0.3,0.5,0.2c-0.1,0-0.1,0-0.1,0.1
	c0.1,0.2,0.3,0.2,0.4,0.1c0.1-0.1,0.2-0.2,0.2-0.4c0-0.2,0-0.3-0.1-0.5c-0.1-0.4-0.2-0.7-0.3-1.1c-0.1-0.3-0.3-0.7-0.4-1
	c-0.1-0.3-0.1-0.7-0.1-1c0-0.2-0.1-0.3-0.3-0.4s-0.4,0.1-0.3,0.3"/>
<path id="XMLID_1143_" class="st5" d="M58.2,100.9c-0.3,0-0.6,0.1-0.8,0.3c-0.1,0.1-0.1,0.1-0.1,0.2s0.2,0.2,0.3,0.2
	c0.3,0,0.6-0.1,0.8-0.4c-0.2,0.1-0.1,0.5,0.2,0.6s0.5-0.1,0.7-0.3c-0.1,0.4,0.4,0.7,0.7,0.5c-0.1,0.2,0,0.4,0.1,0.5
	c0.2,0.1,0.4,0.1,0.5-0.1c0,0.2,0.4,0.3,0.5,0.2c-0.2,0-0.2,0.3-0.1,0.4c0.1,0.1,0.3,0.1,0.4,0.1c-0.1,0.1-0.2,0.3-0.1,0.5
	c0.1,0.2,0.3,0.3,0.5,0.2c-0.2,0.3,0.2,0.8,0.5,0.8c-0.2,0.4,0.2,0.9,0.6,0.9c-0.2,0.1-0.2,0.4-0.1,0.6c0.1,0.2,0.3,0.3,0.5,0.2
	c-0.1,0.1-0.2,0.2-0.2,0.3c0,0.1,0.2,0.3,0.3,0.2c-0.2,0.2-0.3,0.5-0.2,0.7c0.1,0,0.3,0,0.4,0c-0.1-0.1-0.3,0-0.4,0.2
	s0.1,0.3,0.3,0.3c-0.2,0.1-0.2,0.3-0.1,0.5s0.3,0.2,0.5,0.2c-0.2,0.2-0.3,0.4-0.3,0.6c0,0.1,0,0.1,0,0.2s0.2,0,0.2,0
	c-0.3,0-0.5,0.3-0.5,0.6c-0.3,0.1-0.6,0.4-0.6,0.7c0.1,0,0.2-0.1,0.2-0.2c-0.3,0-0.6,0.2-0.7,0.4c0,0-0.1,0.1,0,0.2
	c0,0.1,0.1,0,0.1,0c-0.3,0-0.7,0.2-0.8,0.5c0.9,0.1,1.8-0.4,2.3-1.2c0.5-0.8,0.6-1.7,0.6-2.7c-0.1-1.8-0.6-3.6-1.8-5
	c-0.4-0.4-0.8-0.8-1.4-1.1c-0.4-0.2-0.8-0.3-1.2-0.3c-0.7-0.1-1.4-0.3-2.1-0.4c-0.1,0-0.4,0.1-0.2,0.2"/>
<path id="XMLID_1142_" class="st5" d="M58.2,102.6c-0.3-0.1-0.6,0-0.9,0.1c0,0-0.1,0-0.1,0.1c-0.1,0.1,0,0.2,0.1,0.3
	c0.1,0,0.2,0,0.3,0c-0.2,0-0.4,0.2-0.4,0.4c0,0.2,0.3,0.4,0.5,0.2c-0.2,0.1-0.4,0.2-0.4,0.4c-0.1,0.2,0.1,0.5,0.3,0.4
	c-0.3,0.1-0.3,0.7,0,0.8c-0.2,0.1-0.2,0.3-0.2,0.5c0.1,0.2,0.3,0.3,0.5,0.1c-0.1,0.1-0.2,0.3-0.1,0.4s0.3,0.2,0.4,0.1
	c-0.2,0.2-0.2,0.6,0.1,0.7c-0.1,0.2-0.1,0.5-0.1,0.8c0.2,0,0.3,0.1,0.5,0c-0.1,0.1-0.2,0.3-0.1,0.5c0.1,0.1,0.3,0.2,0.5,0.1
	c0,0.2,0,0.4,0,0.6c0,0.1,0,0.1,0.1,0.2s0.2,0,0.2-0.1s0-0.2,0-0.3c-0.1-1.5-0.2-3.1-0.4-4.6c-0.1-0.6-0.2-1.2-0.6-1.7
	c-0.1-0.1-0.4-0.2-0.4,0"/>
<path id="XMLID_1141_" class="st5" d="M59,96.8c0,0.1-0.1,0.2-0.2,0.3c-0.1,0.1-0.4,0.1-0.5-0.1c-0.1-0.1,0-0.4,0.2-0.4
	c-0.2,0-0.4,0-0.5-0.1c0.2-0.2,0.3-0.3,0.5-0.5c-0.2,0-0.5,0-0.7-0.1c0.1-0.1,0.3-0.3,0.5-0.3c-0.3,0.1-0.6,0-0.8-0.2
	c0.1-0.1,0.2-0.3,0.4-0.3c-0.2,0-0.4,0-0.5-0.1S57,94.7,57,94.6c0.2-0.1,0.3-0.3,0.5-0.4c-0.2,0-0.5-0.1-0.7-0.1
	c0.1-0.1,0.2-0.1,0.3-0.2c-0.3,0-0.5-0.1-0.7-0.3c0.2,0,0.5-0.1,0.7-0.1c0.2-0.1,0.5-0.1,0.7,0.1c0.2,0.1,0.3,0.3,0.3,0.5
	c0.3,0.6,0.5,1.3,0.7,2c0.1,0.4,0.2,0.7,0.3,1.1"/>
<path id="XMLID_1140_" class="st5" d="M64.4,90.9c-0.2,0-0.4,0-0.6,0.1c-0.1,0-0.1,0.1-0.1,0.1c-0.1,0.1,0,0.3,0.2,0.4
	c0.1,0.1,0.3,0,0.5,0c-0.2,0-0.4,0.2-0.4,0.4c0.2,0.1,0.4,0.2,0.6,0.2c-0.2,0.2-0.1,0.6,0.1,0.6c-0.1,0-0.1,0.2-0.1,0.3
	c0.1,0.1,0.2,0.1,0.3,0.1c-0.1,0.2,0.1,0.5,0.3,0.5c-0.1,0-0.2,0.2-0.2,0.3c0,0.1,0.2,0.2,0.3,0.2c-0.1,0.1-0.1,0.3-0.1,0.4
	s0.2,0.3,0.3,0.3c-0.3,0.1-0.3,0.5-0.1,0.6c-0.3-0.1-0.5,0.3-0.4,0.5c-0.2,0.1-0.3,0.4-0.4,0.6c0.8-0.1,1.4-0.8,1.8-1.6
	c0.3-0.8,0.4-1.8,0-2.6c-0.4-0.7-1.1-1.1-1.8-1.5c-0.1,0-0.2-0.1-0.3-0.1c-0.1,0-0.2,0.1-0.2,0.2c0.1,0.1,0.2,0.2,0.2,0.3"/>
<path id="XMLID_1139_" class="st5" d="M60.9,92.4c-0.2-0.1-0.4-0.1-0.6,0c0,0-0.1,0-0.1,0.1c-0.1,0.1,0,0.2,0.1,0.3
	c0.1,0,0.2,0,0.3,0c-0.2,0-0.3,0.1-0.3,0.3c0,0.2,0.3,0.2,0.4,0.1c0,0.2,0,0.5,0,0.7s0.2,0.3,0.3,0.2c-0.1,0.1,0,0.2,0,0.3
	c0.1,0.1,0.2,0.1,0.3,0.1c0,0.1,0,0.2,0,0.3c0.1,0.1,0.2,0.2,0.3,0.1c0,0.2,0.1,0.4,0.3,0.5c0.1,0,0.1-0.1,0.2-0.1
	c0,0.2,0.1,0.4,0.3,0.5c0-0.4-0.2-0.7-0.3-1c-0.2-0.5-0.5-1.1-0.8-1.5c-0.1-0.2-0.3-0.3-0.4-0.5c-0.3-0.4-0.4-0.9-0.8-1.1"/>
<path id="XMLID_1138_" class="st5" d="M63.6,98.9c-0.1-0.1-0.4-0.1-0.4,0.1s0.2,0.3,0.3,0.3c-0.1,0.1-0.2,0.2-0.2,0.4
	s0.2,0.2,0.3,0.2c-0.2,0.1-0.1,0.5,0.1,0.5c-0.2,0.2,0.1,0.6,0.3,0.5c-0.2,0.3,0.2,0.7,0.5,0.6c-0.2,0.2,0,0.7,0.3,0.7
	c-0.3,0.2,0,0.7,0.3,0.6c-0.1,0.1-0.1,0.3,0,0.4s0.3,0.1,0.4,0.1c-0.1,0.3,0.1,0.6,0.4,0.6c-0.2,0.2,0.1,0.4,0.2,0.6
	s0.1,0.3,0.2,0.5s0.2,0.3,0.4,0.3c-0.2,0.2,0,0.5,0.2,0.5c-0.1,0.1,0.1,0.3,0.2,0.3s0.3-0.1,0.4-0.3c0.1-0.2,0-0.3,0-0.5
	c-0.2-1.5-0.5-3.1-1.6-4.2C65.3,100.3,64.2,99.8,63.6,98.9c-0.2-0.1-0.2-0.3-0.3-0.4"/>
<path id="XMLID_1137_" class="st5" d="M70,99.7c-0.2,0-0.4,0-0.6,0.1l-0.1,0.1c-0.1,0.1,0.1,0.3,0.2,0.3c0.2,0,0.3-0.1,0.4-0.2
	c-0.1,0.1-0.2,0.3-0.2,0.4c0.2,0.1,0.5,0,0.7-0.1c0.1,0.4,0.6,0.5,0.8,0.2c0,0.4,0.6,0.6,0.8,0.2c0,0.3,0.3,0.6,0.6,0.5
	c0,0.3,0.3,0.7,0.6,0.7c-0.2,0.3,0.1,0.7,0.4,0.6c-0.1,0.3,0.3,0.6,0.5,0.4c-0.1,0.2,0.2,0.5,0.4,0.4c-0.1,0.3,0.2,0.7,0.5,0.6
	c-0.1,0.3,0.1,0.6,0.4,0.7c-0.2,0.3-0.1,0.7,0.2,0.9c-0.1,0.5-0.1,1,0.1,1.4c0.6-0.8,0.7-1.8,0.5-2.7c-0.2-0.9-0.8-1.7-1.5-2.4
	c-0.6-0.5-1.2-1-1.9-1.4c-1.1-0.6-2.3-0.9-3.5-1"/>
<path id="XMLID_1136_" class="st5" d="M69.8,101.6c-0.2,0-0.4,0-0.6,0c-0.2,0.1-0.3,0.2-0.3,0.4c0,0.2,0.3,0.2,0.3,0.1
	c-0.1,0.1-0.2,0.3-0.2,0.5c0.1,0.1,0.3,0.1,0.5,0c-0.1,0.2-0.2,0.4-0.2,0.6c0.2,0.1,0.3,0,0.5-0.1c-0.1,0.1-0.2,0.4-0.1,0.5
	c0.1,0.2,0.4,0.2,0.5,0c0,0.2-0.1,0.4,0,0.5c0.1,0.2,0.3,0.2,0.4,0.1c-0.1,0.2-0.1,0.5,0,0.7c0.2,0,0.3-0.1,0.4-0.3
	c-0.1,0.1,0,0.3,0,0.4c0.1,0,0.2,0,0.2-0.1c0,0.2,0.1,0.3,0.2,0.5c0.1,0.1,0.3,0.2,0.5,0.1c0,0.2,0,0.4,0.1,0.5s0.4,0,0.4-0.2
	c0,0.3,0.1,0.5,0.2,0.8l0.1-0.1c0.1,0.1,0.1,0.1,0.2,0.2c-0.2-0.7-0.6-1.4-1-2C71.2,103.6,70.5,102.6,69.8,101.6L69.8,101.6
	L69.8,101.6"/>
<path id="XMLID_1135_" class="st5" d="M63.2,112.9c-0.2,0-0.4,0.2-0.3,0.3c0.1,0.2,0.3,0.3,0.4,0.1c-0.2,0.1-0.2,0.4-0.1,0.6
	c0.1,0.1,0.3,0.1,0.3,0c-0.1,0.1-0.2,0.3-0.1,0.5c0.1,0,0.2,0,0.3,0c-0.1,0.2-0.1,0.4,0,0.6c0.1,0,0.2,0,0.3-0.1
	c-0.1,0.2,0.1,0.5,0.3,0.5c-0.1,0.2-0.1,0.4,0,0.6s0.3,0.3,0.5,0.2c-0.2,0.1-0.1,0.5,0.2,0.5c-0.1,0.1-0.2,0.3-0.2,0.5
	s0.3,0.3,0.4,0.2c0,0.3,0.1,0.6,0.3,0.7c-0.1,0.1-0.1,0.3,0,0.4s0.2,0.1,0.4,0.1c0.4-0.1,0.4-0.6,0.4-1c-0.2-1.3-0.7-2.5-1.3-3.7
	c-0.2-0.3-0.3-0.6-0.7-0.7c-0.5-0.2-1.2,0.2-1.5-0.2"/>
<path id="XMLID_1134_" class="st5" d="M70.7,111.1c-0.3,0.3-0.6,0.6-0.7,1c0.4,0.1,0.8-0.2,0.9-0.6c-0.1,0.1-0.1,0.3,0,0.4
	c0.2-0.2,0.4-0.5,0.5-0.8c0,0.2,0.2,0.4,0.4,0.4c0.2,0,0.4-0.2,0.3-0.4c0,0.1,0,0.1,0,0.2c0.2,0.1,0.5,0.1,0.7,0.1
	c0,0.2,0.1,0.3,0.2,0.4s0.3,0,0.4-0.1c-0.1,0.2,0,0.3,0.2,0.4c0.1,0.1,0.3,0,0.4-0.1c-0.1,0.2,0,0.4,0.2,0.4c0.1,0.1,0.3,0.1,0.5,0
	c-0.1,0.1-0.1,0.3,0,0.4s0.3,0.2,0.4,0.1c-0.1,0.2,0,0.4,0.1,0.5s0.4,0.1,0.5,0c-0.1,0.1-0.1,0.3-0.1,0.4s0.2,0.3,0.3,0.3
	c-0.1,0.2-0.1,0.4,0,0.5s0.4,0.2,0.4,0c0,0.2,0,0.4,0,0.7c0.2,0,0.4-0.3,0.4-0.5c0.1-1-0.3-2.1-1.1-2.8c-0.7-0.7-1.8-1.1-2.8-1
	c-0.4,0-0.8,0.1-1.1,0.1c-0.2,0-0.5-0.1-0.7,0c-0.2,0-0.5,0.2-0.6,0.4c0.1,0,0.2,0,0.4,0.1"/>
<path id="XMLID_1133_" class="st14" d="M71.4,112.8c-0.2,0-0.4,0.1-0.6,0.3c0,0,0,0.1-0.1,0.1c0,0.1,0.1,0.2,0.2,0.2s0.2,0,0.3-0.1
	c-0.1,0-0.2,0.1-0.2,0.2s0,0.2,0.1,0.3s0.2,0,0.3-0.1c-0.1,0.1-0.2,0.2-0.2,0.3c0,0.1,0,0.3,0.2,0.3c0.1,0,0.1,0,0.2,0
	c0.3-0.1,0.5-0.4,0.4-0.6c0-0.2-0.1-0.3-0.2-0.4c-0.1-0.2-0.4-0.5-0.7-0.5c0,0,0,0.1,0,0"/>
<path id="XMLID_1132_" class="st5" d="M79,107.9c-0.2,0.1-0.3,0.2-0.4,0.3c0,0.1-0.1,0.1-0.1,0.2s0.1,0.1,0.2,0.1
	c0.2,0,0.5,0,0.5-0.2c-0.1,0-0.2,0.2-0.1,0.3c0.1,0.1,0.2,0.1,0.3,0.1c0.1,0,0.2-0.1,0.3-0.1c-0.1,0.1-0.3,0.2-0.3,0.4
	s-0.1,0.3,0,0.5c0.1,0.1,0.3,0.1,0.4,0c-0.1,0.1-0.2,0.3-0.1,0.4s0.3,0.1,0.4,0c-0.2,0.2-0.2,0.5,0,0.6c0.1,0,0.2,0,0.3,0
	c-0.2,0.2-0.1,0.5,0.2,0.6c0,0.2,0,0.4,0,0.6c0.2,0,0.5-0.2,0.6-0.4s0.1-0.5,0-0.7c-0.1-0.6-0.4-1.2-0.8-1.6
	c-0.3-0.2-0.6-0.4-0.9-0.6C79.4,108.2,79.2,108,79,107.9c-0.3,0-0.5,0-0.7-0.2"/>
<path id="XMLID_1131_" class="st5" d="M76.5,99.1c-0.2,0-0.3,0-0.5,0s-0.3,0.1-0.3,0.3c0,0.1,0.1,0.1,0.2,0.2c0.2,0.1,0.4,0.1,0.6,0
	c-0.2,0.1-0.4,0.2-0.4,0.4c0.2,0.1,0.4,0.1,0.6,0.1c-0.2,0-0.2,0.3-0.1,0.4s0.3,0.1,0.4,0c-0.1,0.1-0.1,0.2-0.1,0.4s0.2,0.2,0.3,0.2
	c-0.1,0.1-0.1,0.3-0.1,0.4c0.1,0.1,0.2,0.2,0.3,0.2c0,0.2,0,0.4,0.2,0.4c0.1,0,0.2-0.2,0.2-0.3c0-0.3-0.1-0.6-0.2-0.9
	c-0.3-0.6-0.6-1.4-1.3-1.6"/>
<path id="XMLID_1130_" class="st5" d="M80.8,99.2c-0.3,0.1-0.5,0.4-0.5,0.7c0.3,0,0.7-0.1,1-0.2c-0.2,0.1-0.2,0.5,0.1,0.6
	c0.2,0.1,0.5,0,0.6-0.2c-0.1,0.2,0,0.3,0.2,0.4c0.1,0.1,0.3,0.1,0.5,0c0,0.2,0,0.4,0.1,0.6s0.5,0.1,0.5-0.1c0,0.2,0,0.4,0.1,0.5
	s0.4,0,0.3-0.2c0,0.3,0.1,0.6,0.2,0.8c0-0.1,0.1-0.2,0.1-0.3c0,0.2,0,0.5,0.1,0.7c0,0.1,0.1,0.1,0.1,0.1c0.1,0,0.1-0.1,0.1-0.1
	c0.1,0.1,0,0.2,0.1,0.4c0,0.1,0.2,0.2,0.3,0.1c0,0.2,0.1,0.4,0.1,0.6c0.2-0.1,0.2-0.5,0-0.7c-1-1.9-2.7-3.3-4.6-4"/>
<path id="XMLID_1129_" class="st1" d="M71.2,91.5c-0.2-0.1-0.4,0.1-0.4,0.3c0.1,0.1,0.3,0.1,0.5,0.1c-0.2,0.1-0.3,0.3-0.2,0.5
	s0.4,0.2,0.5,0c-0.1,0.1-0.2,0.3-0.1,0.4s0.3,0.2,0.4,0.1c-0.1,0.1-0.1,0.4,0.1,0.4s0.3-0.1,0.4-0.3c-0.1,0.1-0.1,0.2-0.1,0.4
	c0,0.1,0.1,0.2,0.3,0.2c0.1,0,0.1-0.1,0.1-0.1c0.1-0.3,0-0.6-0.1-0.8c-0.2-0.4-0.4-0.7-0.8-0.9c-0.3-0.1-0.6-0.2-0.8-0.4h-0.1
	c0,0,0,0.1,0,0"/>
<path id="XMLID_1128_" class="st1" d="M69.6,87c0-0.1-0.1-0.2-0.2-0.1c-0.1,0-0.1,0.1-0.1,0.2l0.1,0.1c0.1,0,0.2,0.1,0.4,0.1
	c-0.1,0-0.2,0.3-0.1,0.4s0.3,0,0.4-0.1c-0.1,0.2-0.1,0.3,0,0.5c0.1,0.1,0.4,0.1,0.4-0.1c0,0.1,0,0.3,0.1,0.4s0.3,0,0.3-0.1
	c0,0.1-0.1,0.2,0,0.3c0,0.1,0.1,0.2,0.2,0.2s0.1-0.1,0.1-0.1c0.1-0.2,0.1-0.4,0-0.6s-0.3-0.3-0.4-0.4c-0.2-0.1-0.4-0.3-0.6-0.4
	c-0.1-0.1-0.3-0.2-0.4-0.2c-0.2,0-0.3,0.1-0.3,0.3"/>
<path id="XMLID_1127_" class="st1" d="M71.4,89.7c-0.3,0-0.6,0.1-0.7,0.4c0,0.1,0,0.1,0,0.2s0.2,0.2,0.3,0.2c0.1,0,0.3-0.1,0.4-0.2
	c-0.1,0.1-0.1,0.3,0,0.4c0.3,0.1,0.7-0.1,0.9-0.4c-0.1,0.2,0,0.4,0.2,0.5s0.4-0.1,0.5-0.2c-0.2,0.2-0.2,0.4,0,0.6s0.5,0.1,0.5-0.2
	c0,0.2,0,0.4,0.2,0.6c0.1,0.2,0.5,0.1,0.5-0.1c0,0.1,0,0.2,0.1,0.3c0.1,0.1,0.4,0,0.4-0.1c0.1-0.2,0-0.3,0-0.5
	c-0.2-0.6-0.6-1.3-1.2-1.5c-0.3-0.1-0.6-0.1-0.9-0.1c-0.5,0-1,0-1.3,0.4h0.1"/>
<path id="XMLID_1126_" class="st1" d="M79.3,92.6c-0.2,0.1-0.3,0.3-0.4,0.5c0,0.1,0,0.1,0,0.2s0.1,0.2,0.3,0.2s0.2,0,0.3-0.1
	c-0.1,0.1-0.1,0.4,0.1,0.5s0.4,0,0.5-0.1c-0.1,0.1-0.1,0.3,0.1,0.5c0.1,0.1,0.3,0.1,0.5,0.1c0,0.2-0.1,0.3,0,0.5s0.3,0.2,0.4,0.1
	c-0.1,0.2,0,0.3,0.1,0.5c0.1,0.1,0.3,0.2,0.5,0.1c0,0.1,0,0.2,0,0.4c0,0.1,0.1,0.2,0.2,0.2c0,0.1,0,0.3,0.1,0.4s0.3,0,0.3-0.1
	c0.1-0.1,0.1-0.2,0.1-0.4c0.1-1.3-0.7-2.6-1.9-3c-0.3-0.1-0.6-0.2-0.9-0.4v0.1"/>
<path id="XMLID_1125_" class="st1" d="M66.8,89.6c-0.1,0-0.2,0-0.3,0.1c-0.1,0.1-0.1,0.2-0.1,0.3l0.1,0.1c0.1,0.1,0.3,0.1,0.5,0
	c-0.1,0.1-0.2,0.3-0.2,0.4v0.1c0,0.1,0.1,0.2,0.3,0.2c0.2,0,0.4-0.1,0.5-0.2c-0.1,0.1-0.2,0.3-0.1,0.4s0.3,0,0.4-0.2
	s0.2-0.4,0.2-0.6s-0.1-0.5-0.3-0.6c-0.1-0.1-0.3-0.1-0.4-0.1s-0.2,0-0.3,0C66.9,89.5,66.8,89.6,66.8,89.6"/>
<path id="XMLID_1124_" class="st5" d="M68.1,91.3c-0.1-0.1-0.3-0.2-0.4-0.1s-0.3,0.2-0.2,0.3c0,0.1,0.1,0.1,0.1,0.1
	c0.1,0,0.2,0.1,0.4,0c-0.2,0.2-0.3,0.4-0.2,0.7c0.2,0.1,0.4,0,0.5-0.1c-0.1,0.1-0.1,0.2-0.1,0.4s0.1,0.3,0.2,0.3s0.3-0.1,0.3-0.2
	c-0.1,0.2-0.2,0.5,0,0.6c0.1,0.1,0.3,0.1,0.4,0.1c0.2,0,0.4-0.1,0.4-0.3c0.1-0.2,0-0.4-0.1-0.5c-0.1-0.2-0.3-0.3-0.4-0.4
	c-0.3-0.3-0.5-0.7-0.9-0.7"/>
<path id="XMLID_1123_" class="st15" d="M35.8,92.8c0,0,5.4,4,17.6,2.9C65.5,94.6,70.3,87,70.3,87l1,0.8c0,0,1-0.5,1.3,0.6
	c0,0,1.2-0.3,1.4,0.6l0.5,0.2l1.2,1.4c0,0,0.3,10.4-21.4,13.1c0,0-13,1.1-20.1-4.1c0,0-0.2-0.9,0.6-0.8c0,0-1.8-1,0.2-1.3
	c0,0-1.2-1.7,0.2-1.7c0,0-1.4-1-0.2-1.6C35.1,94.1,34.7,92.7,35.8,92.8z"/>
<path id="XMLID_1122_" class="st16" d="M35.1,106.9c0,0,11.4,7.4,27.6,2.4s20.1-14.8,20.1-14.8s1.2,0.1,1.1,1.2
	c-0.2,1.1-0.1,0.1-0.1,0.1s0.8-0.1,0.8,0.6l-0.4,0.2c0,0,0.9,0.2,0.7,1.1c0,0,0.8,0.5,0.1,0.8c0,0,0.9,0.2,1.2,1.8l0.2,1
	c0,0-3.2,7.4-15.2,12.7l-0.3-0.2l0.1,0.6l-1.5,0.6c0,0-0.4-0.2-0.8-0.8c0,0,0.1,0.4,0.2,0.9l-1.3,0.7c0,0-10.2,2.5-16.1,1.6
	c0,0-3.7-0.3-5.7-1.4c0,0-0.6,0.4-1.4,0.1s-0.7-1.1-0.7-1.1s-0.2,0.7-0.9,0.5s-0.4-1.2-0.4-1.2s-0.5,0.4-1.4-0.1
	c0,0-0.6-0.5-0.5-0.9c0,0-0.2,0.5-1,0.3s-0.8-1.2-0.5-1.6c0,0-0.7,0.1-0.9-0.3c-0.2-0.5,0-1,0-1l-0.7,0.1c0,0-0.8-0.7-0.1-1.6
	c0,0-1-0.3-1-0.7c-0.1-0.4-0.2-0.7-0.2-0.7S35.3,107.3,35.1,106.9z"/>
<path id="XMLID_1121_" class="st12" d="M43.5,65.2c-2.5,4.4-3.1,9.9-3.1,9.9c-0.7,0.2-1.2,0.8-1.2,1.5c0,0.8,0.7,1.5,1.5,1.5
	s1.5-0.7,1.5-1.5c0-0.6-0.4-1.1-0.9-1.4c0,0,1.2-7,3.2-9.9"/>
<g id="XMLID_1118_">
	<path id="XMLID_1120_" class="st17" d="M52.2,76.2"/>
	<path id="XMLID_1119_" class="st17" d="M54.5,65.6c-0.9,3.6-1,10.6-1,10.6c0.6,0.2,1,0.8,1,1.4c0,0.8-0.7,1.5-1.5,1.5
		s-1.5-0.7-1.5-1.5c0-0.6,0.4-1.1,0.9-1.4c0,0,0-6.4,1-10.6"/>
</g>
<path id="XMLID_1117_" class="st17" d="M43.4,64.7c-2.5,4.4-3,10.5-3,10.5c-0.7,0.2-1.2,0.8-1.2,1.5c0,0.8,0.7,1.5,1.5,1.5
	s1.5-0.7,1.5-1.5c0-0.6-0.4-1.1-0.9-1.4c0,0,1.1-7,3.1-9.9"/>
<g id="XMLID_1082_">
	<g id="XMLID_1107_">
		
			<linearGradient id="XMLID_3_" gradientUnits="userSpaceOnUse" x1="79" y1="51.8" x2="89.7659" y2="51.8" gradientTransform="matrix(1 0 0 -1 0 152)">
			<stop  offset="0" style="stop-color:#2E368E;stop-opacity:0"/>
			<stop  offset="0.3662" style="stop-color:#7378B2;stop-opacity:0.1831"/>
			<stop  offset="1" style="stop-color:#F1F3F3;stop-opacity:0.5"/>
		</linearGradient>
		<path id="XMLID_431_" class="st18" d="M87,98.8c1.6,3.9,2.9,7.6,2.7,12.2h-0.1c-1.4-3-2.8-5.5-4.3-7.6c0.2-0.2,0.4-0.4,0.5-0.7
			c0.2-0.1,0.4-0.2,0.7-0.2c-0.1-0.2-0.3-0.4-0.4-0.6c0.2,0.1,0.3-0.3,0.3-0.5s0-0.3-0.1-0.5c-0.1-0.9-0.4-2-1.3-2.2
			c0.2,0,0.3-0.2,0.3-0.4c-0.1-0.2-0.2-0.3-0.4-0.4c0.2-0.5-0.2-1.1-0.7-1.1c0.1-0.1,0.3-0.1,0.4-0.2c0-0.4-0.3-0.7-0.7-0.7
			c0.1-0.5-0.2-1-0.7-1.1c-0.1,0-0.3,0-0.4-0.1c-0.2-0.1-0.2-0.3-0.3-0.4c-0.2-0.5-0.7-0.8-1.2-0.9c0.1-0.8-0.5-1.6-1.3-1.6
			c-0.1-0.5-0.5-0.8-0.9-1c0-0.5,0-1-0.1-1.4C82.7,91.2,85.4,94.9,87,98.8z"/>
		
			<linearGradient id="XMLID_4_" gradientUnits="userSpaceOnUse" x1="78.0834" y1="54.95" x2="86.5346" y2="54.95" gradientTransform="matrix(1 0 0 -1 0 152)">
			<stop  offset="0" style="stop-color:#2E368E;stop-opacity:0"/>
			<stop  offset="0.3662" style="stop-color:#7378B2;stop-opacity:0.1831"/>
			<stop  offset="1" style="stop-color:#F1F3F3;stop-opacity:0.5"/>
		</linearGradient>
		<path id="XMLID_343_" class="st19" d="M85.4,103.4c-2-2.9-4.3-5.2-7.2-7.5c0.2-0.1,0.4-0.2,0.4-0.4c0-0.3-0.2-0.5-0.5-0.6
			c0.7-1.3,1.1-2.7,1-4.2c0.4,0.1,0.8,0.5,0.9,1c0.8,0.1,1.4,0.8,1.3,1.6c0.5,0.1,0.9,0.4,1.2,0.9c0.1,0.2,0.1,0.3,0.3,0.4
			c0.1,0.1,0.3,0.1,0.4,0.1c0.5,0.1,0.8,0.6,0.7,1.1c0.4,0,0.7,0.3,0.7,0.7c-0.1,0.1-0.2,0.1-0.4,0.2c0.5,0.1,0.9,0.6,0.7,1.1
			c0.2,0.1,0.3,0.3,0.4,0.4c0.1,0.2-0.1,0.4-0.3,0.4c0.9,0.2,1.2,1.3,1.3,2.2c0,0.2,0,0.3,0.1,0.5c0,0.2-0.1,0.6-0.3,0.5
			c0.1,0.2,0.3,0.4,0.4,0.6c-0.2,0.1-0.5,0.1-0.7,0.2C85.8,103,85.6,103.2,85.4,103.4z"/>
		
			<linearGradient id="XMLID_5_" gradientUnits="userSpaceOnUse" x1="34.1108" y1="47.224" x2="85.5817" y2="47.224" gradientTransform="matrix(1 0 0 -1 0 152)">
			<stop  offset="0" style="stop-color:#F7EC33"/>
			<stop  offset="8.749533e-02" style="stop-color:#F6D732;stop-opacity:0.9125"/>
			<stop  offset="0.2971" style="stop-color:#F4AB2F;stop-opacity:0.7029"/>
			<stop  offset="0.499" style="stop-color:#F2882D;stop-opacity:0.501"/>
			<stop  offset="0.6885" style="stop-color:#F16E2B;stop-opacity:0.3115"/>
			<stop  offset="0.8606" style="stop-color:#F05F2A;stop-opacity:0.1394"/>
			<stop  offset="1" style="stop-color:#F05A2A;stop-opacity:0"/>
		</linearGradient>
		<path id="XMLID_337_" class="st20" d="M72.7,113.4C72.7,113.3,72.6,113.3,72.7,113.4C72.6,113.3,72.7,113.4,72.7,113.4z
			 M67.1,117.4c0.3,0.5-0.3,1.1-0.9,1.1s-1.1-0.3-1.5-0.7c-0.2,0.9-1.6,1.1-2.1,0.4c-0.3,1-2,1.1-2.4,0.1c0,0.6-0.7,1-1.2,0.8
			c-0.6-0.1-1-0.6-1.3-1c0,0.4-0.5,0.7-0.9,0.7s-0.8-0.3-1.1-0.6c0.2,0.5-0.6,1-1.1,0.8s-0.8-0.8-1-1.4c0,0.5-0.6,0.8-1.1,0.6
			c-0.5-0.2-0.8-0.6-1-1c0.2,0.4-0.4,0.9-0.8,0.8c-0.4-0.1-0.8-0.5-0.9-0.9c-0.1,0.6-0.9,0.9-1.5,0.6s-0.9-0.9-1.2-1.5
			c-0.1,0.4-0.5,0.6-0.9,0.5s-0.6-0.6-0.4-0.9c-0.7,0.6-2,0-2.1-0.9c-0.2,0.3-0.7,0.5-1.1,0.3c-0.4-0.2-0.5-0.7-0.3-1.1
			c-0.7,0.4-1.8-0.1-1.8-1c-0.4,0.3-1,0.3-1.4-0.1c-0.4-0.3-0.4-0.9-0.2-1.3c-0.7,0.3-1.4-0.8-0.9-1.3c-0.3,0-0.5,0.1-0.8,0.1
			c-0.4-0.5-0.3-1.3,0-1.8c-0.8,0.3-1.6-0.9-1.1-1.5c-0.5,0.1-1.1-0.2-1.3-0.7s0.1-1.1,0.5-1.4c-0.4,0.1-0.8-0.2-0.9-0.6
			s0.1-0.8,0.5-0.9c-0.5,0-0.9-0.4-1-0.9c0-0.5,0.3-1,0.8-1.1c-0.4,0.1-0.7-0.5-0.5-0.9s0.5-0.6,0.9-0.8c-0.4,0.2-0.9-0.1-1-0.5
			s0.3-0.9,0.8-0.8c-0.4,0-0.8-0.3-0.9-0.7c0.5-0.3,0.9-0.6,1.4-0.9c-0.4,0-0.8-0.3-0.8-0.7c0-0.4,0.4-0.8,0.8-0.7
			c-0.4-0.1-0.7-0.6-0.7-1c0.1-0.4,0.5-0.8,0.9-0.8c-0.2-0.2-0.5-0.3-0.7-0.5c0.3-0.4,0.8-0.5,1.2-0.3c-0.4-0.4-0.7-1-0.8-1.6
			c0.3-0.1,0.6-0.1,0.9,0.1l0.1-0.1c1,0.7,2.2,1.2,3.4,1.5c1.5,0.4,3,0.5,4.5,0.7c0.6,0.1,1.1,0.1,1.7,0.1v0.1
			c5.2,0.7,10.6,0,15.5-1.6c1.4-0.5,2.8-1,4.1-1.8c2.6,0.5,5.1,1.5,7.4,2.8c-0.2,0-0.4,0.1-0.5,0.3c-0.1,0.4,0.2,0.7,0.6,0.9
			c1.4,0.8,2.9,1.3,4.5,1.4c0.2,0,0.4,0,0.5-0.1c2.9,2.3,5.1,4.6,7.2,7.5l-0.1,0.1v0.1c-0.1,0.1-0.3,0.2-0.4,0.4
			c0.2,0.1,0.4,0.3,0.6,0.4c-0.4,0.6-1.1,0.9-1.8,0.9c0.4,0.1,0.7,0.3,1,0.6c-0.3,0.7-1,1.1-1.7,1.3c-0.1,0-0.1,0-0.2,0
			c0.1,0,0.1,0,0.2,0c0.2,0,0.3,0.1,0.4,0.2c-0.1,0.7-0.7,1.2-1.4,1.3c0.4,0.1,0.4,0.6,0.2,1c-0.2,0.2-0.5,0.4-0.8,0.4
			c-0.1,0-0.2,0-0.2,0.1c0.1,0,0.2,0,0.2-0.1c0,0,0.1,0,0.1,0.1s0,0.3-0.1,0.4c-0.4,0.6-1,1-1.7,1.2c-0.1,0-0.2,0-0.3,0.1
			c0.1,0,0.2,0,0.3-0.1c0.2,0,0.4,0.1,0.6,0.2c-0.2,0.7-0.9,1.3-1.7,1.2c0.2,0.1,0.4,0.2,0.6,0.2c-0.5,0.5-1.2,0.7-1.9,0.6H77h0.1
			c0.2,0,0.4,0.1,0.5,0.1c-0.3,0.5-0.7,0.8-1.3,1c-0.4-0.1-0.8-0.1-1.2,0.1c0.4,0.1,0.8,0.1,1.2-0.1c0.1,0,0.2,0.1,0.3,0.1
			c-0.6,0.7-1.4,1.1-2.3,1.1l-0.1,0.1c-0.6-0.8-1.2-1.5-1.8-2.2l0,0c-0.1,0.2-0.3,0.4-0.5,0.5c-0.5,0.1-1-0.3-1.3-0.7
			c0.1,0.5,0,1.2-0.5,1.4c-0.2,0-0.3,0-0.5,0c-0.5-0.1-0.9-0.4-1.2-0.8c0.1,0.3,0.1,0.6,0.1,0.9c0,0.2,0,0.3-0.1,0.5
			S68,116,67.7,116c-0.2-0.1-0.4-0.2-0.6-0.4c0.1,0.2,0.2,0.4,0.2,0.7c0,0.2-0.1,0.5-0.3,0.6c-0.1,0.1-0.2,0.1-0.3,0.1L67.1,117.4z"
			/>
		
			<linearGradient id="XMLID_6_" gradientUnits="userSpaceOnUse" x1="65.6741" y1="61.9" x2="74.6506" y2="61.9" gradientTransform="matrix(1 0 0 -1 0 152)">
			<stop  offset="0" style="stop-color:#2E368E;stop-opacity:0"/>
			<stop  offset="0.3662" style="stop-color:#7378B2;stop-opacity:0.1831"/>
			<stop  offset="1" style="stop-color:#F1F3F3;stop-opacity:0.5"/>
		</linearGradient>
		<path id="XMLID_293_" class="st21" d="M74.5,89c0.3,1.5,0,3.2-1,4.3c-0.1,0-0.2-0.1-0.4-0.1H73c-2.3-1.3-4.8-2.3-7.4-2.8
			c1.6-0.9,3-2,4-3.4c0.1,0,0.2-0.1,0.4-0.1c0.3,0,0.6,0.1,0.7,0.4c0.1,0.1,0.1,0.2,0.2,0.3c0.2,0.2,0.5,0,0.8,0
			c0.4-0.1,0.9,0.3,0.9,0.8c0.3-0.1,0.6-0.1,0.9-0.1c0.3,0.1,0.6,0.3,0.5,0.6C74.2,88.9,74.4,88.9,74.5,89z"/>
		
			<linearGradient id="XMLID_7_" gradientUnits="userSpaceOnUse" x1="69.7044" y1="64.35" x2="74.5471" y2="64.35" gradientTransform="matrix(1 0 0 -1 0 152)">
			<stop  offset="0" style="stop-color:#2E368E;stop-opacity:0"/>
			<stop  offset="0.3662" style="stop-color:#7378B2;stop-opacity:0.1831"/>
			<stop  offset="1" style="stop-color:#F1F3F3;stop-opacity:0.5"/>
		</linearGradient>
		<path id="XMLID_244_" class="st22" d="M74.5,89c-0.2,0-0.3,0-0.5,0c0-0.3-0.3-0.6-0.5-0.6c-0.3-0.1-0.6,0-0.9,0.1
			c0-0.4-0.4-0.8-0.9-0.8c-0.3,0-0.6,0.2-0.8,0c-0.1-0.1-0.1-0.2-0.2-0.3C70.6,87.2,70.3,87,70,87c-0.1,0-0.3,0-0.4,0.1
			c0.2-0.3,0.4-0.5,0.5-0.8c0.4,0,0.9,0.1,1.3,0.2c0.9,0.2,1.7,0.6,2.5,0.9C74.3,87.9,74.4,88.4,74.5,89z"/>
	</g>
	<g id="XMLID_1106_">
	</g>
</g>
<path id="XMLID_1081_" class="st4" d="M77.8,95.7c0.2,0.9,0.1,1.9-0.4,2.6s-1.5,1.2-2.4,0.9c0,0.2-0.2,0.2-0.4,0.1
	c-0.8-0.2-1.6-0.6-2.2-1.3c-0.2,0-0.4,0-0.5,0c-0.2-0.1-0.3-0.2-0.3-0.4c0-0.1,0.1-0.2,0.1-0.4c0-0.1,0-0.3,0-0.4
	c-0.2-1,0.3-2.1,1-2.8C72.7,94.1,74.9,95.7,77.8,95.7z"/>
<g id="XMLID_1013_">
	<g id="XMLID_1080_">
	</g>
	<g id="XMLID_1046_">
		<path id="XMLID_2474_" class="st17" d="M39.4,26.3c-5.2,5.6-7.9,13.4-8.9,21c-0.4,3-0.6,6.2,0.2,9.2c0.8,3,2.6,5.8,5.5,7
			c0.9,0.4,1.9,0.7,3,0.9c1.6,0.3,3.3,0.2,4.7-0.3c0.4-0.1,0.8-0.3,1.1-0.6"/>
		<path id="XMLID_2466_" class="st17" d="M42.8,23.8c0.3-0.1,0.6-0.3,0.9-0.4c4.9-2.2,10.7-2.2,15.6,0.2c0.1,0,0.2,0.1,0.2,0.2
			s-0.2,0.1-0.2,0.1"/>
		<path id="XMLID_2465_" class="st17" d="M33.1,18.6c1.7,2.9,3.8,5.5,6.3,7.7"/>
		<path id="XMLID_2464_" class="st17" d="M41.2,24.9c0.7-0.6,1.5-1.2,2.4-1.5"/>
		<path id="XMLID_2463_" class="st17" d="M41.3,24.9l-0.1-0.1"/>
		<path id="XMLID_2462_" class="st17" d="M41.3,24.9c0,0,0.1,0,0.1,0.1C41.4,25,41.4,25,41.3,24.9z"/>
		<line id="XMLID_2461_" class="st17" x1="41.3" y1="24.9" x2="41.3" y2="24.9"/>
		<path id="XMLID_2460_" class="st17" d="M34.9,17c1,1.9,2.5,3.8,3.9,5.4c0.7,0.9,1.5,1.8,2.5,2.4l0,0c0,0,0.1,0,0.1,0.1"/>
		<path id="XMLID_2452_" class="st17" d="M34.9,17c0.6-0.6,1.1-1.2,1.6-1.9c0.3-0.5,0.5-1,0.6-1.5c0.2-1.3-0.6-2.8-1.8-3.4
			c-1.2-0.6-2.7-0.5-3.9,0.2c-1.2,0.7-1.7,1.9-2.1,2.8c-0.2,0.6-0.2,1.6,0.3,2.6c0.4,0.7,1.5,1.6,3.1,1.8c0.2,0.4,0.3,0.8,0.5,1.2"
			/>
		<path id="XMLID_2451_" class="st17" d="M59.4,23.8c1.6-3.2,2.7-6.6,3.2-10.2"/>
		<path id="XMLID_2450_" class="st17" d="M65.1,13.2c0-0.1,0,1.1-0.1,0.9c-0.6,3.8-1.5,8.2-3.6,11.7"/>
		<path id="XMLID_2449_" class="st17" d="M62.6,13.5c-0.9-0.3-1.8-0.6-2.5-1.2c-1.1-0.9-1.6-2.4-1.3-3.8s1.3-2.5,2.6-3.1
			s2.8-0.4,4.1,0.2c1.1,0.6,1.9,1.5,2.3,2.6c0.3,1.1,0.3,2.7-0.5,3.6c-0.7,0.8-1.4,1.2-2.2,1.2"/>
		<path id="XMLID_2382_" class="st17" d="M62.4,24.4c0.6,0.6,0.4,2.9-1.8,2.8"/>
		<path id="XMLID_2381_" class="st17" d="M62.7,25c4.2,3.8,7.3,8.6,9.6,13.7c1.4,3.2,2.6,6.7,2.8,10.2c0.2,3.5-0.5,7.2-2.6,10.1
			c-2.1,2.9-5.3,4.6-8.8,4.6"/>
		<path id="XMLID_2374_" class="st17" d="M54.7,63.6c3,1,6.2,1.2,9,0l0,0c0.4-0.2,0.9-0.4,1.3-0.7c0.6-0.4,1.2-0.7,1.7-1.2
			c5.3-4.9,2.8-11.1,3-11.3"/>
		<path id="XMLID_2372_" class="st17" d="M64.6,84.8c1.1-0.5,2.2-0.8,3.4-0.8c0.9,0,1.8,0.1,2.7,0.5c1.3,0.5,2.5,1.5,3.2,2.8
			c1,1.9,1,4.4-0.4,6l0,0"/>
		<path id="XMLID_2371_" class="st17" d="M66.6,80.3c4.5-0.7,7.7,1.1,10.1,3.9c2.4,2.9,3.1,7.2,1.3,10.5c0.3,0.1,0.6,0.3,0.5,0.6
			c0,0.4-0.5,0.5-0.9,0.5c-1.6-0.1-3.2-0.6-4.5-1.4c-0.3-0.2-0.7-0.6-0.6-0.9c0.1-0.2,0.3-0.3,0.6-0.3c0.1,0,0.2,0,0.4,0.1
			c0.1,0,0.2,0.1,0.3,0.1"/>
		<path id="XMLID_2370_" class="st17" d="M37.6,84.7c-1.5,0-2.6,0.7-3.7,1.6c-4.2,3.4-6.8,8.7-6.8,14c0-0.4,0.1-0.7,0.1-1.1"/>
		<path id="XMLID_2318_" class="st17" d="M27.3,100.3c-0.4,0.2-1-0.1-1.2,0.3c-0.2,0.2-0.1,0.5,0.1,0.7s0.4,0.3,0.7,0.3
			c1.7,0.5,3.4,0.8,5.2,0.8c0.1,0,0.2,0,0.3,0c0.2-0.1,0.2-0.5,0.1-0.7c-0.2-0.2-0.4-0.2-0.7-0.3c-0.1-1.8,0-3.6,0.4-5.3
			c0.3-1.4,0.9-2.8,1.8-4s2.1-2.1,3.5-2.5"/>
		<path id="XMLID_2317_" class="st17" d="M37.6,86c0.1-1.8,0.5-3.6,1-5.4c0.2-0.6,0.4-1.1,0.6-1.7"/>
		<path id="XMLID_2315_" class="st17" d="M41.5,69.5c-2-1-4.1-1.3-6.4-0.8c-1.1,0.2-2.2,0.7-2.8,1.6c-0.4,0.7-0.5,1.6-0.2,2.4l0,0"
			/>
		<path id="XMLID_2311_" class="st17" d="M27.7,86c0,0,0-0.1-0.1-0.1c-0.9-1.8-0.8-4,0.2-5.7c1-1.8,2.8-3,4.7-3.6
			c1.9-0.6,4.1-0.6,6.5,0.1"/>
		<path id="XMLID_2286_" class="st17" d="M38.7,80.6C38.7,80.6,38.6,80.6,38.7,80.6c-2-1.1-4.6-0.9-6.4,0.4
			c-0.3,0.2-0.5,0.4-0.7,0.7c-0.1,0.3-0.1,0.6-0.1,1c0,0.5,0.1,1,0.1,1.5c0,0,0,0.1,0.1,0.1c0,0,0.1-0.1,0-0.1
			c0.4,0,0.8-0.1,1.1,0.2c0.1,0.1,0.2,0.1,0.2,0.2c0,0.2-0.3,0.3-0.5,0.3c-1.8,0.1-3.5,0.9-4.8,2.2c-0.1,0.1-0.2,0.2-0.4,0.2
			c-0.1,0-0.2-0.2-0.2-0.3c-0.1-0.4,0.2-0.9,0.5-1.2l0.1-0.1"/>
		<path id="XMLID_2285_" class="st17" d="M43.9,64L43.9,64c-0.4,0.6-0.5,0.8-0.8,1.3c-1.3-0.3-2.6-0.6-4-0.8
			c-1.8-0.3-3.7-0.4-5.5-0.2c-1.2,0.2-2.3,0.5-3.3,1.2c-0.7,0.5-1.2,1.3-1.6,2c-0.6,1.1-1,2.2-1.2,3.4c-0.1,0.6-0.2,1.2-0.1,1.7
			c0,0.3,0.1,0.6,0.1,0.8c-0.2,0.1-0.3,0.2-0.4,0.4c-0.2,0.2-0.3,0.6-0.1,0.7c0.2,0.1,0.4,0.1,0.6,0c1.6-0.6,3.3-1.2,5.1-1.3
			c0.2,0,0.4-0.1,0.4-0.3c0-0.1-0.1-0.1-0.1-0.1c-0.2-0.2-0.5-0.3-0.8-0.3c-0.1,0-0.2,0-0.3,0"/>
		<path id="XMLID_2284_" class="st17" d="M70.3,75.2C70.2,75.3,70.3,75.4,70.3,75.2C70.4,75.2,70.3,75.1,70.3,75.2
			c-0.9-0.8-1.8-1.6-2.8-2.1c-1.2-0.6-2.5-1-3.8-1.1c-0.2-0.3-0.6-0.8-1-0.9c-0.1,0-0.1,0-0.2,0c-0.1,0-0.2,0.1-0.2,0.2
			c-0.1,0.4,0.1,0.8,0.3,1.2c0.5,1.1,0.9,2.3,1.1,3.5c0,0.2,0,0.4,0.2,0.5c0.2,0.2,0.5,0.1,0.6-0.1c0.1-0.2,0.2-0.5,0.2-0.7"/>
		<path id="XMLID_2283_" class="st17" d="M64.5,76.1c1,0.2,1.9,0.8,2.7,1.4s1.7,1.3,2.6,1.6c1,0.4,2.1,0.4,3-0.2
			c1-0.7,1.3-2,1.1-3.1c-0.3-1.1-1-2.1-1.8-2.9c-1-1-2.2-1.8-3.4-2.3c-0.1,0-0.1,0-0.2,0c0,0-0.1,0-0.1,0.1c-0.1,0.1,0.2,0.1,0.1,0"
			/>
		<path id="XMLID_2282_" class="st17" d="M68.3,78.3c-0.1,0.7-0.1,1.1,0.1,1.8"/>
		<path id="XMLID_2281_" class="st17" d="M68.4,70.6L68.4,70.6c0-1.1,0-2.1,0-3c2.6-0.8,5.5-0.7,7.8,0.7c2.3,1.4,3.7,4.4,3,7l0,0"/>
		<path id="XMLID_2280_" class="st17" d="M79.3,75.3C79.2,75.3,79.2,75.3,79.3,75.3c-0.2-0.1-0.4-0.2-0.6-0.2s-0.4,0.1-0.5,0.3
			c0,0.2,0.1,0.3,0.2,0.4s0.3,0.1,0.5,0.2c1.5,0.4,2.9,1,4.2,1.8c0.2,0.1,0.4,0.2,0.6,0.2c0.2-0.1,0.3-0.3,0.2-0.5
			c0-0.2-0.2-0.4-0.3-0.6c-0.1-0.1-0.1,0-0.2-0.2c0.9-2.1,0.4-4.6-0.6-6.6c-1.3-2.7-3.3-5-5.9-6.4s-5.5-1.8-8.3-1.1"/>
		<path id="XMLID_2279_" class="st17" d="M48.5,64.1c-1.9,8.3-2.8,16.4-2.8,24.9c0,1.2,0.2,2.6,0.4,3.9"/>
		<path id="XMLID_2278_" class="st17" d="M46,92.3c0,0.5-0.3,0.8-0.5,1c-0.3,0.2-0.9,0.3-1.5,0.3c-1.5-0.2-2.8-0.3-4.3-0.7
			c-1.5-0.4-2.9-1-4.1-2.1c0.3-0.3,0.7-0.5,1.2-0.5c0-0.2,0-0.2,0-0.5"/>
		<path id="XMLID_2277_" class="st17" d="M46,92.8L46,92.8c3.8,2.8,10.6,1.1,15.5-0.6c3.5-1.2,6.9-2.8,8.7-6.1
			c0.1-0.1,0.2-0.5,0.2-0.7c0-0.1-0.3-0.3-0.4-0.4c-0.3,0-0.5,0-0.8,0.1"/>
		<path id="XMLID_2276_" class="st17" d="M68.9,84.1c0.1,0.5,0.3,1,0.4,1.6"/>
	</g>
</g>
<g id="XMLID_1005_">
	<g id="XMLID_1011_">
		<path id="XMLID_210_" class="st23" d="M63.8,42.4L63.8,42.4c-1.4,0.2-2.8,0.6-4,1.1c0,0,0,0-0.1,0s-0.1,0-0.1,0.1
			c0.1,0,0.1,0,0.2-0.1l0.1,0.1c0.5,0.8,0.8,1.8,0.5,2.8c-0.4,1.3-1.8,2-3.1,1.8c-1.3-0.3-2.3-1.3-2.7-2.6c0-0.1,0-0.1-0.1-0.1
			c-2.4,0.9-4.8,1.9-7.2,2.9c-2.1,0.9-4.2,1.8-6,3.1c1.9-2,3.9-4,6.3-5.3c-4,1.2-7.8,3-11.3,5.3c-1,0.7-2,1.4-2.8,2.3
			c0.2-0.7,0.4-1.5,0.6-2.2c2.7-7.4,5.1-12.4,10.5-14.8c1.1-0.5,3.3-1.2,4.4-1.3c2.3-0.1,5.5,0.6,7.6,1.4
			C58.9,37.8,61.5,39.1,63.8,42.4z"/>
	</g>
	<g id="XMLID_1010_">
	</g>
</g>
<path id="XMLID_1004_" class="st8" d="M58.1,44.2c0-0.1,0.1-0.1,0.2-0.1c0.1,0,0.1,0.1,0.1,0.2c0.2,0.4,0.3,0.7,0.3,1.1
	c0,0.4-0.2,0.8-0.6,0.9c-0.2,0.1-0.4,0-0.6,0c-0.7-0.2-1.3-0.9-1.2-1.7c0.6-0.3,1.2-0.4,1.9-0.7"/>
<linearGradient id="XMLID_8_" gradientUnits="userSpaceOnUse" x1="45.7538" y1="30.0755" x2="48.9006" y2="35.5259" gradientTransform="matrix(1 0 0 -1 0 152)">
	<stop  offset="0" style="stop-color:#FFFFFF;stop-opacity:0"/>
	<stop  offset="0.2078" style="stop-color:#DCD4CC;stop-opacity:0.1559"/>
	<stop  offset="0.4821" style="stop-color:#B2A08F;stop-opacity:0.3616"/>
	<stop  offset="0.7153" style="stop-color:#937A62;stop-opacity:0.5365"/>
	<stop  offset="0.8952" style="stop-color:#806346;stop-opacity:0.6714"/>
	<stop  offset="1" style="stop-color:#795A3C;stop-opacity:0.75"/>
</linearGradient>
<path id="XMLID_1003_" class="st24" d="M44.7,116c0.4,0.2,0.8,0.1,1.1-0.2c-0.3,0.3,0,0.8,0.4,0.9s0.8-0.3,0.9-0.7
	c0.1,0.6,0.4,1.3,1,1.6c0.6,0.3,1.5-0.1,1.5-0.7c0.2,0.3,0.4,0.6,0.7,0.9s0.7,0.3,1,0c-0.4,1.3-0.7,2.7-1,4c-2.4,0-5-0.1-7.1-1.4
	C43.6,118.9,44.1,117.4,44.7,116"/>
<linearGradient id="XMLID_9_" gradientUnits="userSpaceOnUse" x1="73.499" y1="31.8454" x2="69.5753" y2="38.6414" gradientTransform="matrix(1 0 0 -1 0 152)">
	<stop  offset="0" style="stop-color:#FFFFFF;stop-opacity:0"/>
	<stop  offset="0.2078" style="stop-color:#DCD4CC;stop-opacity:0.1559"/>
	<stop  offset="0.4821" style="stop-color:#B2A08F;stop-opacity:0.3616"/>
	<stop  offset="0.7153" style="stop-color:#937A62;stop-opacity:0.5365"/>
	<stop  offset="0.8952" style="stop-color:#806346;stop-opacity:0.6714"/>
	<stop  offset="1" style="stop-color:#795A3C;stop-opacity:0.75"/>
</linearGradient>
<path id="XMLID_1002_" class="st25" d="M67.5,115.5c0.2,0.1,0.4,0.3,0.6,0.3s0.5,0,0.6-0.2c0.1-0.1,0.1-0.3,0.1-0.5
	c0-0.4-0.1-0.8-0.3-1.2c0.4,0.6,1.1,1,1.7,1.1c0.1,0,0.2,0,0.2,0c0.1,0,0.1-0.1,0.1-0.2c0.1-0.4,0-0.8-0.2-1.1
	c0.3,0.1,0.5,0.3,0.8,0.5s0.5,0.3,0.8,0.3s0.6-0.3,0.5-0.6c1.4,1.5,2.6,3.1,3.6,4.8c-2,0.2-3.9,0.7-5.7,1.7
	C69.5,118.7,68.6,117.1,67.5,115.5c0.1,0,0.2,0.1,0.2,0.1"/>
<linearGradient id="XMLID_10_" gradientUnits="userSpaceOnUse" x1="74.1089" y1="54.3765" x2="75.6852" y2="57.1066" gradientTransform="matrix(1 0 0 -1 0 152)">
	<stop  offset="0" style="stop-color:#FFFFFF;stop-opacity:0"/>
	<stop  offset="0.1842" style="stop-color:#FDFCFC;stop-opacity:0.1381"/>
	<stop  offset="0.3301" style="stop-color:#F6F4F2;stop-opacity:0.2476"/>
	<stop  offset="0.463" style="stop-color:#EAE6E1;stop-opacity:0.3473"/>
	<stop  offset="0.5881" style="stop-color:#DAD2CA;stop-opacity:0.441"/>
	<stop  offset="0.7077" style="stop-color:#C5B8AB;stop-opacity:0.5308"/>
	<stop  offset="0.8233" style="stop-color:#AC9886;stop-opacity:0.6175"/>
	<stop  offset="0.9335" style="stop-color:#8E735A;stop-opacity:0.7001"/>
	<stop  offset="1" style="stop-color:#795A3C;stop-opacity:0.75"/>
</linearGradient>
<path id="XMLID_1001_" class="st26" d="M72.4,94.2c1.7,1,3.5,1.6,5.4,1.9c0.2,0.5,0.3,1,0.1,1.4c-0.1,0.3-0.5,0.5-0.8,0.6
	c-0.4,0.1-0.8,0-1.2,0c-1.5-0.2-3-1-4.1-2.1c-0.1-0.1-0.1-0.1-0.1-0.2s0-0.2,0-0.2C71.8,95.1,72.1,94.6,72.4,94.2"/>
<linearGradient id="XMLID_11_" gradientUnits="userSpaceOnUse" x1="28.92" y1="47.1831" x2="29.6499" y2="50.1106" gradientTransform="matrix(1 0 0 -1 0 152)">
	<stop  offset="0" style="stop-color:#FFFFFF;stop-opacity:0"/>
	<stop  offset="0.1034" style="stop-color:#F9F8F7;stop-opacity:7.757702e-02"/>
	<stop  offset="0.2655" style="stop-color:#EAE5E0;stop-opacity:0.1991"/>
	<stop  offset="0.466" style="stop-color:#D1C6BC;stop-opacity:0.3495"/>
	<stop  offset="0.6971" style="stop-color:#AE9B89;stop-opacity:0.5228"/>
	<stop  offset="0.951" style="stop-color:#826549;stop-opacity:0.7133"/>
	<stop  offset="1" style="stop-color:#795A3C;stop-opacity:0.75"/>
</linearGradient>
<path id="XMLID_404_" class="st27" d="M26.2,101.6c1.9,0.6,3.8,1,5.8,1c0.1,0,0.2,0,0.3,0.1c0.1,0,0.1,0.1,0.2,0.2
	c0.1,0.2,0.2,0.4,0.3,0.7c0,0.1,0.1,0.3,0,0.4c-0.1,0.2-0.4,0.3-0.6,0.3c-1.9,0.4-3.8,0.6-5.6,0c-0.1,0-0.2-0.1-0.3-0.2
	c0,0,0-0.1-0.1-0.2c-0.1-0.7-0.2-1.5-0.2-2.2"/>
</svg>
