<?xml version="1.0" encoding="utf-8"?>
<!-- Generator: Adobe Illustrator 23.0.3, SVG Export Plug-In . SVG Version: 6.00 Build 0)  -->
<svg version="1.1" id="Layer_1" xmlns="http://www.w3.org/2000/svg" xmlns:xlink="http://www.w3.org/1999/xlink" x="0px" y="0px"
	 viewBox="0 0 150 150" style="enable-background:new 0 0 150 150;" xml:space="preserve">
<style type="text/css">
	.st0{fill:#020202;}
	.st1{fill:#FFFDFD;stroke:#B6B6B7;stroke-miterlimit:10;}
	.st2{fill:#FFFDFD;stroke:#949F9F;stroke-miterlimit:10;}
	.st3{fill:#949F9F;}
	.st4{fill:#94C83D;}
	.st5{fill:#727372;}
	.st6{fill:url(#XMLID_2_);}
	.st7{fill:#636463;}
	.st8{fill:url(#XMLID_3_);}
	.st9{opacity:0.32;fill:url(#XMLID_4_);enable-background:new    ;}
	.st10{fill:#B6B6B7;}
	.st11{fill:#338886;}
	.st12{fill:#23BBB8;}
	.st13{fill:#666B6B;}
	.st14{fill:#F05A22;}
	.st15{fill:none;stroke:#FFFFFF;stroke-linecap:round;stroke-miterlimit:10;}
	.st16{fill:none;stroke:#FFFFFF;stroke-width:0.5627;stroke-linecap:round;stroke-miterlimit:10;}
	.st17{fill:none;stroke:#000000;stroke-width:0.1125;stroke-linecap:round;stroke-linejoin:round;}
	.st18{fill:#078B81;}
	.st19{clip-path:url(#SVGID_2_);}
	.st20{fill:none;stroke:#23BBB8;stroke-width:0.4502;stroke-miterlimit:10;}
	.st21{fill:#5C6B58;}
	.st22{fill:#892B2C;}
	.st23{fill:#E44141;}
	.st24{fill:#3D403F;}
	.st25{fill:url(#XMLID_5_);}
	.st26{fill:url(#XMLID_6_);}
	.st27{fill:#90B1AE;}
	.st28{fill:#DDDDDC;}
	.st29{opacity:0.72;fill:#90B1AE;enable-background:new    ;}
	.st30{fill:#0E726D;}
	.st31{fill:none;stroke:#0E726D;stroke-width:0.6752;stroke-miterlimit:10;}
	.st32{fill:#039F97;}
	.st33{fill:#CC4327;}
	.st34{fill:none;stroke:#23BBB8;stroke-width:0.5627;stroke-linecap:round;stroke-miterlimit:10;}
	.st35{fill:#0B9086;}
	.st36{fill:none;stroke:#338886;stroke-miterlimit:10;}
	.st37{opacity:0.59;fill:#892B1C;enable-background:new    ;}
	.st38{opacity:0.54;fill:url(#XMLID_7_);enable-background:new    ;}
	.st39{opacity:0.54;fill:url(#XMLID_8_);enable-background:new    ;}
	.st40{opacity:0.54;fill:url(#XMLID_9_);enable-background:new    ;}
	.st41{clip-path:url(#SVGID_4_);}
	.st42{fill:none;stroke:#CC4327;stroke-width:0.4502;stroke-miterlimit:10;}
	.st43{fill:none;stroke:#23BBB8;stroke-width:0.5852;stroke-miterlimit:10;}
	.st44{fill:#F48863;}
	.st45{opacity:0.45;fill:url(#XMLID_10_);enable-background:new    ;}
</style>
<polygon id="XMLID_2448_" class="st0" points="58.4,57 59.2,61.1 66.4,59.8 65.7,55.3 "/>
<g id="XMLID_2411_">
	<path id="XMLID_2447_" class="st0" d="M102.7,52.5c0.6,0,1.2-0.1,1.8-0.3c0-0.4-0.1-0.8-0.2-1.1c-0.6,0.2-1.2,0.3-1.8,0.3
		C102.6,51.7,102.7,52.1,102.7,52.5z"/>
	<path id="XMLID_2446_" class="st0" d="M102.5,50.8c0.6,0,1.2-0.1,1.8-0.3c-0.1-0.4-0.2-0.8-0.3-1.2c-0.5,0.3-1.1,0.4-1.7,0.5
		C102.3,50.1,102.4,50.5,102.5,50.8z"/>
	<path id="XMLID_2445_" class="st0" d="M101.8,48.4c0.1,0.3,0.2,0.5,0.3,0.8c0.6-0.1,1.2-0.2,1.7-0.5c-0.1-0.4-0.2-0.7-0.3-1.1
		C103,48,102.4,48.3,101.8,48.4z"/>
	<path id="XMLID_2444_" class="st0" d="M81.6,35.9c0.4,0,0.8,0.1,1.1,0.1c0.2-0.6,0.2-1.2,0-1.8c-0.4,0-0.8-0.1-1.1-0.1
		c0.1,0.3,0.1,0.6,0.1,0.9C81.7,35.3,81.6,35.6,81.6,35.9z"/>
	<path id="XMLID_2443_" class="st0" d="M86.6,34.8c-0.5-0.1-0.9-0.2-1.4-0.3c0,0.6-0.1,1.2-0.3,1.8c0.4,0.1,0.9,0.2,1.3,0.3
		C86.5,36,86.6,35.4,86.6,34.8z"/>
	<path id="XMLID_2442_" class="st0" d="M84.6,34.4c-0.5-0.1-0.9-0.1-1.3-0.2c0.1,0.6,0.1,1.2-0.1,1.8c0.4,0,0.8,0.1,1.1,0.2
		C84.6,35.6,84.7,35,84.6,34.4z"/>
	<path id="XMLID_2441_" class="st0" d="M104.6,55.6c0-0.4,0-0.8,0-1.2c-0.4,0.1-0.8,0.3-1.3,0.3l0,0c-0.2,0-0.3,0-0.5,0
		c0,0.6,0,1.1,0,1.7L104.6,55.6z"/>
	<path id="XMLID_2440_" class="st0" d="M102.6,45.6c-0.2-0.4-0.4-0.7-0.6-1.1c-0.1,0.1-0.1,0.1-0.2,0.2c-0.4,0.4-0.8,0.7-1.2,1
		c0.2,0.3,0.3,0.6,0.5,0.9C101.6,46.4,102.1,46,102.6,45.6z"/>
	<path id="XMLID_2439_" class="st0" d="M101.7,47.9c0.6-0.1,1.1-0.4,1.6-0.8l0,0c-0.1-0.3-0.3-0.7-0.4-1c-0.4,0.4-1,0.8-1.5,1
		C101.5,47.3,101.6,47.5,101.7,47.9C101.6,47.8,101.6,47.9,101.7,47.9z"/>
	<path id="XMLID_2438_" class="st0" d="M96.4,39.8c0.1-0.2,0.3-0.6,0.3-0.9c-0.3-0.2-0.7-0.4-1-0.6c-0.1,0.6-0.3,1.2-0.7,1.7
		c0.3,0.2,0.6,0.4,0.9,0.6C96,40.3,96.2,40.1,96.4,39.8z"/>
	<path id="XMLID_2437_" class="st0" d="M93.8,37.2c-0.4-0.2-0.9-0.4-1.3-0.6c0,0.6-0.2,1.2-0.5,1.8c0.4,0.2,0.8,0.3,1.1,0.5
		c0.2-0.3,0.4-0.7,0.5-1C93.7,37.6,93.7,37.4,93.8,37.2z"/>
	<path id="XMLID_2436_" class="st0" d="M90.8,36c0,0.4-0.1,0.8-0.2,1.1c-0.1,0.2-0.2,0.4-0.3,0.6c0.4,0.1,0.8,0.3,1.1,0.4
		c0.3-0.5,0.4-1.2,0.5-1.8C91.5,36.3,91.1,36.1,90.8,36z"/>
	<path id="XMLID_2435_" class="st0" d="M94.3,37.5c0,0.2-0.1,0.4-0.2,0.6c-0.2,0.4-0.3,0.7-0.5,1.1c0.3,0.2,0.6,0.4,1,0.5
		c0.3-0.5,0.5-1.1,0.6-1.7C94.8,37.8,94.6,37.6,94.3,37.5z"/>
	<path id="XMLID_2434_" class="st0" d="M101.5,44.3c0.1-0.1,0.2-0.2,0.2-0.3c-0.2-0.4-0.5-0.7-0.8-1.1c-0.3,0.5-0.8,1-1.2,1.4
		c0.2,0.3,0.4,0.6,0.6,1C100.7,45,101.1,44.6,101.5,44.3z"/>
	<path id="XMLID_2433_" class="st0" d="M98.1,40c-0.3-0.2-0.6-0.5-0.9-0.7c0,0.3-0.2,0.5-0.3,0.8c-0.2,0.3-0.3,0.5-0.5,0.8
		c0.3,0.2,0.6,0.4,0.8,0.7C97.6,41.1,97.9,40.6,98.1,40z"/>
	<path id="XMLID_2432_" class="st0" d="M97.5,41.9c0.2,0.2,0.4,0.4,0.6,0.6c0.2-0.2,0.4-0.4,0.6-0.6c0.2-0.2,0.4-0.5,0.5-0.9
		c-0.3-0.3-0.5-0.5-0.8-0.7C98.3,40.9,98,41.5,97.5,41.9z"/>
	<path id="XMLID_2431_" class="st0" d="M100.6,42.5c-0.3-0.3-0.6-0.7-0.8-1c-0.1,0.3-0.3,0.5-0.5,0.8c-0.2,0.2-0.4,0.4-0.6,0.6
		c0.3,0.3,0.5,0.6,0.8,0.9C99.8,43.5,100.2,43,100.6,42.5z"/>
	<path id="XMLID_2430_" class="st0" d="M103.3,54.2L103.3,54.2c0.4,0,0.9-0.1,1.3-0.3c0-0.4,0-0.8-0.1-1.2c-0.5,0.2-1.1,0.3-1.6,0.3
		c-0.1,0-0.1,0-0.2,0c0,0.4,0,0.8,0.1,1.1C103,54.2,103.1,54.2,103.3,54.2z"/>
	<path id="XMLID_2429_" class="st0" d="M73.6,35c-0.4,0.1-0.7,0.2-1,0.3c0.4,0.5,0.7,1,0.8,1.6c0.3-0.1,0.7-0.2,1-0.3
		C74.2,36.1,74,35.5,73.6,35z"/>
	<path id="XMLID_2428_" class="st0" d="M87.9,37c0.3-0.5,0.5-1.1,0.5-1.7c-0.4-0.1-0.9-0.2-1.3-0.3c0,0.6-0.1,1.2-0.3,1.8
		C87.1,36.8,87.5,36.9,87.9,37z"/>
	<path id="XMLID_2427_" class="st0" d="M77.4,34.7c0-0.1-0.1-0.3-0.2-0.4c-0.4,0.1-0.8,0.1-1.2,0.2c0.3,0.5,0.5,1.1,0.6,1.7
		c0.3-0.1,0.7-0.1,1-0.1C77.6,35.5,77.6,35.1,77.4,34.7z"/>
	<path id="XMLID_2426_" class="st0" d="M72,35.6c-0.3,0.1-0.6,0.3-1,0.4c0.4,0.5,0.7,1,0.8,1.6c0.3-0.1,0.7-0.3,1-0.4
		C72.7,36.6,72.4,36,72,35.6z"/>
	<path id="XMLID_2425_" class="st0" d="M70.5,36.2c-0.4,0.2-0.7,0.4-1.1,0.6c0.4,0.4,0.8,0.9,1,1.5c0.3-0.2,0.6-0.3,0.9-0.5
		C71.2,37.2,70.9,36.7,70.5,36.2z"/>
	<path id="XMLID_2424_" class="st0" d="M102.7,56.9C102,66,97,74.6,96.9,74.7l1.5,0.9c0.1-0.2,2.4-4.1,4.2-9.6
		c1.1-3.5,1.8-6.8,1.9-9.8L102.7,56.9z"/>
	<path id="XMLID_2423_" class="st0" d="M90,36.9c0.1-0.4,0.2-0.8,0.2-1.1c-0.3-0.1-0.7-0.2-1-0.3c-0.1,0-0.2-0.1-0.3-0.1
		c0,0.6-0.2,1.2-0.5,1.7c0.1,0,0.2,0.1,0.3,0.1c0.4,0.1,0.7,0.2,1.1,0.3C89.9,37.3,90,37.1,90,36.9z"/>
	<path id="XMLID_2422_" class="st0" d="M60.4,45.9c-1.4,2.4-2.1,4.3-2.1,4.4l1.7,0.6c0,0,0.7-2.1,2.3-4.7
		C61.7,46,61.1,45.9,60.4,45.9z"/>
	<path id="XMLID_2421_" class="st0" d="M81.1,34.9c0-0.2,0-0.6-0.1-0.9c-0.5,0-0.9,0-1.4,0c0.2,0.6,0.3,1.2,0.2,1.8
		c0.4,0,0.7,0,1.1,0C81.1,35.6,81.1,35.2,81.1,34.9z"/>
	<path id="XMLID_2420_" class="st0" d="M75.5,34.5c-0.5,0.1-0.9,0.2-1.3,0.3c0.4,0.5,0.6,1,0.8,1.6c0.4-0.1,0.8-0.2,1.2-0.3
		C76,35.6,75.8,35,75.5,34.5z"/>
	<path id="XMLID_2419_" class="st0" d="M63.1,45c-0.6-0.3-1.2-0.4-1.9-0.5c-0.2,0.3-0.4,0.5-0.5,0.8c0.6,0,1.3,0.2,1.9,0.4
		C62.8,45.5,63,45.2,63.1,45z"/>
	<path id="XMLID_2418_" class="st0" d="M68.9,37.1c-0.4,0.2-0.8,0.5-1.1,0.7c0.5,0.4,0.9,0.8,1.2,1.4c0.3-0.2,0.7-0.4,1-0.6
		C69.7,38,69.4,37.5,68.9,37.1z"/>
	<path id="XMLID_2417_" class="st0" d="M77.9,34.5c0.2,0.5,0.3,0.9,0.3,1.4c0.4,0,0.8-0.1,1.2-0.1c0-0.6,0-1.2-0.3-1.8
		c-0.4,0-0.9,0.1-1.3,0.1C77.8,34.3,77.9,34.4,77.9,34.5z"/>
	<path id="XMLID_2416_" class="st0" d="M62.3,43.1c-0.2,0.3-0.4,0.6-0.7,0.9c0.6,0.1,1.3,0.3,1.8,0.5c0.2-0.2,0.3-0.5,0.5-0.7
		C63.4,43.5,62.9,43.3,62.3,43.1z"/>
	<path id="XMLID_2415_" class="st0" d="M63.4,41.8c-0.3,0.3-0.5,0.6-0.8,0.9c0.6,0.2,1.2,0.4,1.7,0.8c0.2-0.2,0.4-0.5,0.6-0.7
		C64.5,42.3,63.9,42,63.4,41.8z"/>
	<path id="XMLID_2414_" class="st0" d="M65.9,39.3c-0.3,0.2-0.5,0.5-0.8,0.7c0.5,0.3,1,0.7,1.4,1.2c0.3-0.2,0.5-0.5,0.8-0.7
		C66.9,40,66.4,39.6,65.9,39.3z"/>
	<path id="XMLID_2413_" class="st0" d="M67.3,38.2c-0.3,0.2-0.7,0.5-1,0.7c0.5,0.3,1,0.7,1.3,1.2c0.3-0.2,0.5-0.4,0.8-0.6
		C68.2,39,67.8,38.5,67.3,38.2z"/>
	<path id="XMLID_2412_" class="st0" d="M64.7,40.4c-0.3,0.3-0.6,0.6-0.9,1c0.6,0.2,1.1,0.6,1.5,1c0.3-0.3,0.5-0.6,0.8-0.8l0,0
		C65.7,41,65.2,40.6,64.7,40.4z"/>
</g>
<path id="XMLID_2410_" class="st1" d="M66.6,106.1c0,0-3.4,11.4-2.4,22.2c0,0-8.4,6.1-18.1,0.2l0,0c0,0,2.3-15,10.8-22.4
	S66.6,106.1,66.6,106.1z"/>
<path id="XMLID_2409_" class="st2" d="M72.7,105.9c0,0,6.1,7.9,6,22.5c0,0,9.9,6.9,18.9-1.5c0,0-2.4-15-15.3-23.3
	S72.7,105.9,72.7,105.9z"/>
<polygon id="XMLID_2408_" class="st3" points="51.5,56.6 55.7,93.5 84.3,89.5 83,96.9 39.4,103 35.4,58.7 "/>
<path id="XMLID_2407_" class="st3" d="M79.6,44.4h11.5c0,0,6.1-0.7,7.5,4.3s3.7,47.7,3.7,47.7s0.5,4.2-5.9,6.3l-14.7,2.4l2.8-10
	L79.6,44.4z"/>
<path id="XMLID_2406_" class="st4" d="M87.5,44.4c0,0,4.1,0.7,4.6,5.3l1.3,13.7l1.1-5.2l-0.9-8.6c0,0-1-4.6-3.8-5.1L87.5,44.4z"/>
<path id="XMLID_2405_" class="st4" d="M94.5,85.9L95.2,96c0,0,0.5,4.3-4.5,7.6l2.9-0.5c0,0,3.6-1.8,3.6-6.6l-1-11.8L94.5,85.9z"/>
<path id="XMLID_2404_" class="st5" d="M94,56.8c0,0-0.5-6.3-0.7-7.3s-0.9-3.6-2.7-4.4c0,0-1-0.4-2-0.3l-1.1-0.4c0,0,2.9-0.3,4.1,0.6
	c1,0.8,1.9,2.1,2.2,4s0.7,7.5,0.7,7.5L94,56.8z"/>
<linearGradient id="XMLID_2_" gradientUnits="userSpaceOnUse" x1="89.6819" y1="96.2635" x2="92.3593" y2="107.0021" gradientTransform="matrix(1 0 0 -1 0 152)">
	<stop  offset="0" style="stop-color:#8FC63E"/>
	<stop  offset="1" style="stop-color:#8CC540;stop-opacity:0"/>
</linearGradient>
<path id="XMLID_2403_" class="st6" d="M94,56.8c0,0-0.5-6.3-0.7-7.3s-0.9-3.6-2.7-4.4c0,0-1-0.4-2-0.3l-1.1-0.4c0,0,2.9-0.3,4.1,0.6
	c1,0.8,1.9,2.1,2.2,4s0.7,7.5,0.7,7.5L94,56.8z"/>
<path id="XMLID_2402_" class="st7" d="M96,85.9l0.7,10.6c0,0,0.1,3.4-2.2,5.4c0,0-0.8,0.8-3,1.1l-0.9,0.6c0,0,2.6,0,3.9-0.8
	c1.5-0.9,3.2-3.6,3-6.8c-0.4-4.8-0.8-10.7-0.8-10.7L96,85.9z"/>
<linearGradient id="XMLID_3_" gradientUnits="userSpaceOnUse" x1="90.5307" y1="62.9527" x2="97.525" y2="50.8382" gradientTransform="matrix(1 0 0 -1 0 152)">
	<stop  offset="0" style="stop-color:#8FC63E"/>
	<stop  offset="1" style="stop-color:#8CC540;stop-opacity:0"/>
</linearGradient>
<path id="XMLID_2401_" class="st8" d="M96,85.9l0.7,10.6c0,0,0.1,3.4-2.2,5.4c0,0-0.8,0.8-3,1.1l-0.9,0.6c0,0,2.6,0,3.9-0.8
	c1.5-0.9,3.2-3.6,3-6.8c-0.4-4.8-0.8-10.7-0.8-10.7L96,85.9z"/>
<path id="XMLID_2400_" class="st4" d="M78.3,128.6l-0.2,3.7c0,0,4.9,3.9,12.6,2.6c0,0,5.4-0.8,7.7-4.3l-0.5-3.6l-0.2-0.6
	c0,0-3.7,3.9-7.8,4.3c-3.8,0.4-8.9-0.6-11.4-2.8L78.3,128.6z"/>
<path id="XMLID_2399_" class="st3" d="M86.9,107.3c0,0-3.7,2.4-11.7,3.1c0,0-0.9-2.4-1.6-3.7l9.6-1.5l0.9-0.2L86.9,107.3z"/>
<path id="XMLID_2398_" class="st4" d="M79.3,105.8c0,0,12,11.5,12.9,24.5l2.7-1.3c0,0-1.5-12.1-13.6-23.5L79.3,105.8z"/>
<path id="XMLID_2397_" class="st3" d="M81.1,105.5c0,0,10.6,10,12.5,22.4l1.3,0.6c0,0-0.6-7-6.6-16c0,0-3.3-4.7-6-7.3L81.1,105.5z"
	/>
<linearGradient id="XMLID_4_" gradientUnits="userSpaceOnUse" x1="88" y1="23.3824" x2="88" y2="46.652" gradientTransform="matrix(1 0 0 -1 0 152)">
	<stop  offset="0" style="stop-color:#49313F"/>
	<stop  offset="1" style="stop-color:#8CC540;stop-opacity:0"/>
</linearGradient>
<path id="XMLID_2396_" class="st9" d="M81.1,105.5c0,0,10.6,10,12.5,22.4l1.3,0.6c0,0-0.6-7-6.6-16c0,0-3.3-4.7-6-7.3L81.1,105.5z"
	/>
<path id="XMLID_2395_" class="st10" d="M52.7,110.9c0,0,5.9,1.1,12.5,1.1l0.9-4.2l-12.6,1.7L52.7,110.9z"/>
<g id="XMLID_2312_">
	<path id="XMLID_2394_" class="st11" d="M10.5,79.8c-0.4-0.7-0.8-1.4-1.1-2c0.5-0.9,0.9-1.8,1.4-2.7c0.8-0.2,1.6-0.3,2.5-0.5
		c0.4,0.7,0.8,1.4,1.2,2.2c-0.4,0.8-0.9,1.7-1.4,2.5C12.1,79.4,11.3,79.6,10.5,79.8z"/>
	<path id="XMLID_2393_" class="st11" d="M14.4,76.8c-0.4-0.7-0.8-1.4-1.2-2.2c0.4-0.8,0.9-1.7,1.3-2.5C15.3,72,16.2,72,17,72
		c0.4,0.8,0.8,1.5,1.2,2.3c-0.4,0.7-0.9,1.5-1.3,2.3C16.1,76.6,15.2,76.7,14.4,76.8z"/>
	<path id="XMLID_2392_" class="st11" d="M18.2,78.8c-0.4-0.7-0.9-1.5-1.3-2.2c0.4-0.8,0.9-1.5,1.3-2.3c0.8,0,1.7,0.1,2.5,0.2
		c0.4,0.8,0.9,1.6,1.3,2.3c-0.4,0.7-0.8,1.4-1.3,2.1C19.9,78.8,19.1,78.8,18.2,78.8z"/>
	<path id="XMLID_2391_" class="st11" d="M14.2,81.4c-0.4-0.7-0.8-1.4-1.2-2.1c0.5-0.9,0.9-1.7,1.4-2.5c0.9-0.1,1.7-0.2,2.6-0.2
		c0.4,0.7,0.8,1.5,1.3,2.2c-0.4,0.8-0.9,1.5-1.3,2.3C16,81.2,15.1,81.2,14.2,81.4z"/>
	<path id="XMLID_2390_" class="st11" d="M18.2,83.3c-0.4-0.7-0.9-1.5-1.3-2.2c0.5-0.8,0.9-1.6,1.3-2.3c0.9,0,1.7,0,2.6,0.1
		c0.4,0.8,0.9,1.5,1.3,2.3c-0.4,0.7-0.9,1.4-1.3,2.1C19.9,83.2,19,83.2,18.2,83.3z"/>
	<path id="XMLID_2389_" class="st11" d="M6.2,88.5c-0.4-0.6-0.7-1.3-1.1-1.9c0.5-1,0.9-2,1.4-3c0.8-0.4,1.7-0.7,2.5-0.9
		c0.4,0.7,0.8,1.3,1.2,2c-0.5,0.9-0.9,1.9-1.4,2.8C7.9,87.7,7.1,88.1,6.2,88.5z"/>
	<path id="XMLID_2388_" class="st11" d="M10.2,84.6c-0.4-0.7-0.8-1.3-1.2-2c0.5-0.9,0.9-1.9,1.4-2.8c0.8-0.2,1.7-0.4,2.5-0.6
		c0.4,0.7,0.8,1.4,1.2,2.1c-0.5,0.8-0.9,1.7-1.4,2.6C12,84.1,11.1,84.3,10.2,84.6z"/>
	<path id="XMLID_2387_" class="st11" d="M14.1,86c-0.4-0.7-0.8-1.4-1.3-2.1c0.5-0.9,0.9-1.7,1.4-2.6c0.9-0.1,1.7-0.2,2.6-0.3
		c0.4,0.7,0.9,1.5,1.3,2.2c-0.5,0.8-0.9,1.5-1.4,2.3C15.9,85.7,15,85.8,14.1,86z"/>
	<path id="XMLID_2386_" class="st11" d="M10,89.4c-0.4-0.6-0.8-1.3-1.2-1.9c0.5-1,1-1.9,1.4-2.8c0.9-0.3,1.7-0.5,2.6-0.7
		c0.4,0.7,0.8,1.4,1.3,2.1c-0.5,0.9-0.9,1.7-1.4,2.6C11.8,88.8,10.9,89.1,10,89.4z"/>
	<path id="XMLID_2385_" class="st11" d="M14,90.6c-0.4-0.7-0.9-1.3-1.3-2c0.5-0.9,1-1.8,1.4-2.6c0.9-0.2,1.8-0.3,2.7-0.4
		c0.4,0.7,0.9,1.4,1.3,2.1c-0.5,0.8-0.9,1.6-1.4,2.4C15.8,90.3,14.9,90.4,14,90.6z"/>
	<path id="XMLID_2384_" class="st11" d="M22.1,81.2c-0.5-0.8-0.9-1.5-1.3-2.3c0.4-0.7,0.9-1.4,1.3-2.1c0.9,0.1,1.7,0.3,2.6,0.4
		c0.4,0.8,0.9,1.6,1.4,2.4c-0.4,0.6-0.8,1.2-1.2,1.9C23.9,81.4,23,81.3,22.1,81.2z"/>
	<path id="XMLID_2383_" class="st11" d="M26,79.7c-0.5-0.8-0.9-1.6-1.4-2.4c0.4-0.6,0.8-1.2,1.2-1.8c0.8,0.2,1.7,0.5,2.5,0.8
		c0.4,0.9,0.9,1.7,1.4,2.6c-0.4,0.5-0.7,1.1-1.1,1.6C27.7,80.2,26.8,79.9,26,79.7z"/>
	<path id="XMLID_2330_" class="st11" d="M29.9,83c-0.5-0.8-0.9-1.7-1.4-2.5c0.4-0.6,0.8-1.1,1.1-1.6c0.8,0.3,1.6,0.7,2.4,1.1
		c0.5,0.9,0.9,1.8,1.4,2.7c-0.3,0.5-0.7,0.9-1,1.4C31.6,83.6,30.8,83.3,29.9,83z"/>
	<path id="XMLID_2329_" class="st11" d="M26.2,84c-0.5-0.8-0.9-1.6-1.4-2.4c0.4-0.6,0.8-1.3,1.2-1.9c0.9,0.2,1.7,0.5,2.5,0.7
		c0.5,0.8,0.9,1.7,1.4,2.5c-0.4,0.5-0.8,1.1-1.2,1.7C27.9,84.4,27,84.1,26.2,84z"/>
	<path id="XMLID_2328_" class="st11" d="M30.2,87.1c-0.5-0.8-1-1.7-1.4-2.5c0.4-0.6,0.8-1.1,1.2-1.7c0.8,0.3,1.7,0.7,2.5,1
		c0.5,0.9,0.9,1.8,1.4,2.6c-0.4,0.5-0.7,1-1.1,1.5C31.9,87.8,31.1,87.4,30.2,87.1z"/>
	<path id="XMLID_2327_" class="st11" d="M18.1,87.8c-0.5-0.7-0.9-1.4-1.3-2.1c0.5-0.8,0.9-1.6,1.4-2.3c0.9,0,1.8,0,2.7,0
		c0.5,0.8,0.9,1.5,1.4,2.3c-0.4,0.7-0.9,1.4-1.3,2.1C20,87.7,19,87.7,18.1,87.8z"/>
	<path id="XMLID_2326_" class="st11" d="M22.2,85.6c-0.5-0.8-0.9-1.5-1.4-2.3c0.4-0.7,0.9-1.4,1.3-2.1c0.9,0.1,1.8,0.2,2.6,0.4
		c0.5,0.8,0.9,1.6,1.4,2.4c-0.4,0.6-0.8,1.2-1.3,1.9C24,85.7,23.1,85.6,22.2,85.6z"/>
	<path id="XMLID_2325_" class="st11" d="M26.3,88.2c-0.5-0.8-1-1.6-1.4-2.4c0.4-0.6,0.8-1.3,1.3-1.9c0.9,0.2,1.8,0.4,2.6,0.7
		c0.5,0.8,0.9,1.7,1.4,2.5c-0.4,0.6-0.8,1.1-1.2,1.7C28.1,88.6,27.2,88.4,26.3,88.2z"/>
	<path id="XMLID_2324_" class="st11" d="M22.3,89.9c-0.5-0.7-0.9-1.5-1.4-2.2c0.5-0.7,0.9-1.4,1.3-2.1c0.9,0.1,1.8,0.2,2.7,0.3
		c0.5,0.8,0.9,1.6,1.4,2.4c-0.4,0.6-0.9,1.3-1.3,1.9C24.1,90,23.2,90,22.3,89.9z"/>
	<path id="XMLID_2323_" class="st11" d="M9.8,94.1c-0.4-0.6-0.8-1.3-1.2-1.9c0.5-1,1-1.9,1.5-2.9c0.9-0.3,1.8-0.5,2.7-0.8
		c0.4,0.7,0.9,1.3,1.3,2c-0.5,0.9-1,1.8-1.5,2.7C11.6,93.5,10.7,93.8,9.8,94.1z"/>
	<path id="XMLID_2322_" class="st11" d="M5.6,98.3c-0.4-0.6-0.1-1-0.5-1.6c0.5-1.1,0.3-2.3,0.8-3.3c0.9-0.4,1.7-0.8,2.6-1.2
		c0.4,0.6,0.8,1.3,1.2,1.9c-0.5,1-1,1.9-1.5,2.9C7.4,97.5,6.5,97.9,5.6,98.3z"/>
	<path id="XMLID_2321_" class="st11" d="M9.5,98.9c-0.4-0.6-0.8-1.2-1.3-1.8c0.5-1,1-2,1.5-2.9c0.9-0.3,1.8-0.6,2.7-0.9
		c0.4,0.7,0.9,1.3,1.3,2c-0.5,0.9-1,1.8-1.5,2.7C11.4,98.2,10.4,98.6,9.5,98.9z"/>
	<path id="XMLID_2320_" class="st11" d="M13.8,95.3c-0.4-0.7-0.9-1.3-1.3-2c0.5-0.9,1-1.8,1.5-2.7c0.9-0.2,1.8-0.3,2.8-0.5
		c0.5,0.7,0.9,1.4,1.4,2.1c-0.5,0.8-1,1.6-1.4,2.4C15.7,94.8,14.8,95,13.8,95.3z"/>
	<path id="XMLID_2319_" class="st11" d="M18.1,92.3c-0.5-0.7-0.9-1.4-1.4-2.1c0.5-0.8,0.9-1.6,1.4-2.4c0.9-0.1,1.8-0.1,2.7-0.1
		c0.5,0.7,0.9,1.5,1.4,2.2c-0.5,0.7-0.9,1.4-1.4,2.2C20,92.1,19,92.2,18.1,92.3z"/>
	<path id="XMLID_2314_" class="st11" d="M22.3,94.3c-0.5-0.7-1-1.5-1.4-2.2c0.5-0.7,0.9-1.5,1.4-2.2c0.9,0,1.8,0.1,2.8,0.2
		c0.5,0.8,1,1.6,1.5,2.3c-0.4,0.6-0.9,1.3-1.3,2C24.2,94.4,23.3,94.3,22.3,94.3z"/>
	<path id="XMLID_2313_" class="st11" d="M18.1,96.8c-0.5-0.7-0.9-1.4-1.4-2.1c0.5-0.8,1-1.6,1.4-2.4c0.9-0.1,1.9-0.1,2.8-0.2
		c0.5,0.7,1,1.5,1.4,2.2c-0.5,0.7-0.9,1.5-1.4,2.2C20,96.6,19,96.6,18.1,96.8z"/>
</g>
<polygon id="XMLID_2310_" class="st11" points="6.2,88.5 5.8,90.9 12.4,92.2 12.3,83.5 "/>
<path id="XMLID_2309_" class="st12" d="M17,71.9l0.8,1.3L16.4,75l1.3,2.4l-1.3,2.2h-2.6l-1.6,2.1l1.6,2.5l-1.3,2.2l-3.1,0.4L8,89.5
	l-2.3,0.9c-2.4,10-0.6,19-0.6,19c10.4-8.2,23.5-7.5,23.5-7.5c-1.9-11.5,5.1-13.5,5.1-13.5L36,67.7C35.9,67.6,29.5,61.1,17,71.9z"/>
<path id="XMLID_2306_" class="st2" d="M77.2,44.8l-42.8,6.9c-3,0.5-5.1,3.5-4.8,6.8l5.2,45.7c0.3,3.3,3.3,7.4,9.1,6.6l38.7-5.7
	c4.2-0.6,6.4-4.6,6.4-9.2l-2.9-45.3C85.8,47.2,82.5,43.5,77.2,44.8z M80.1,92.9l-37.6,5.8l-4.3-38.5L77,53.9L80.1,92.9z"/>
<path id="XMLID_2305_" class="st3" d="M30.4,65.3l-3.8,0.8l-2.9,1.2c0,0,6,5.7,6.5,23.7c0,0,1.4-1.5,2.6-2L30.4,65.3z"/>
<polygon id="XMLID_2304_" class="st13" points="44.1,59.6 47.7,96.6 49,96.1 45.5,59.4 "/>
<polygon id="XMLID_2303_" class="st13" points="45.9,59.4 49.6,95.9 50.8,95.4 47.2,59.3 "/>
<g id="XMLID_2359_">
	<g id="XMLID_2377_">
		<path id="XMLID_189_" class="st14" d="M130.2,103.2c-1.7,0.3-3.4-1-3.4-1c-0.8,0.2-1.6,0.3-1.9,0.3c-0.8,0.1-1.6-0.1-2.3-0.4
			c-0.3,0.1-0.6,0.2-1,0.2c-1.2,0.1-2.5-0.2-2.7-0.2l0,0l0,0c-0.2,0.2-2.9,3.6-5.6,3.8l0,0c-1.1-0.1-2-0.7-2.5-1.1l0,0
			c-1-1.1-1-2.2-0.7-3.2c0.9-1.9,3.4-3.5,3.6-3.6l0,0l0.7-1.4c-2-16.2-14.1-15-14.1-15s-5.4-1.7-5.8-11.2s7.7-11.8,7.7-11.8
			s13.3-2.4,25.4,11.4c1.4,1.6,2.6,3.1,3.6,4.6c7.2,10.2,7.6,18.6,7.5,20.7h0.3c0,0,4.3,0.4,6.1,3.2c1.8,2.8-0.3,3.8-0.3,3.8
			c0.5,0.6,0.8,1.3,0.9,2.1c0.2,3.6-5.4,2.5-6.3,1.9c-0.9-0.6-1.3-0.8-1.3-0.8h-0.2c-1.8,1.4-5.6-0.4-6.6-1.2
			C130.9,104,130.5,103.6,130.2,103.2z"/>
		<path id="XMLID_169_" class="st14" d="M118.9,102.1c-2.1,3.2-4,4-5.6,3.8C116,105.7,118.7,102.3,118.9,102.1z"/>
		<path id="XMLID_160_" class="st14" d="M110.8,104.8c-0.4-0.3-0.6-0.6-0.6-0.6c-0.6-0.9-0.5-1.8-0.1-2.6
			C109.8,102.6,109.9,103.7,110.8,104.8z"/>
		<path id="XMLID_123_" class="st14" d="M106,58.5c0,0,15.3,0.3,25.3,16.3c-1.1-1.5-2.3-3-3.6-4.6c-12.2-13.7-25.4-11.4-25.4-11.4
			s-8.1,2.3-7.7,11.8s5.8,11.2,5.8,11.2s12-1.2,14.1,15c-1.8-12.3-8.9-13.9-8.9-13.9s-0.9,2.7-4.1,4c-3.9,1.5-12.1-1.7-14.2-10.5
			s1.2-20.8,9.3-21.9C103.5,53.6,106,58.5,106,58.5z"/>
	</g>
	<g id="XMLID_2369_">
		<path id="XMLID_2265_" class="st15" d="M120.5,97.2c0,0,6.5-4.7,8.3,0.8c0.8,2.7-0.6,3.7-2,4.1c-0.8,0.2-1.6,0.3-1.9,0.3
			c-0.8,0.1-1.6-0.1-2.3-0.4c-1.2-0.5-2.1-1.4-2.1-1.4"/>
		<path id="XMLID_204_" class="st16" d="M113.3,105.9c1.5,0.1,3.5-0.6,5.6-3.8"/>
		<path id="XMLID_203_" class="st16" d="M110.1,101.7c-0.4,0.8-0.4,1.7,0.1,2.6c0,0,0.2,0.2,0.6,0.6"/>
		<path id="XMLID_2264_" class="st15" d="M132.8,98.1c0,0,7,1.6,6.1,6.1c-0.1,0.7-0.4,1.2-0.9,1.5c-1.8,1.4-5.6-0.4-6.6-1.2
			c-0.5-0.4-0.9-0.9-1.2-1.3c-0.5-0.6-0.8-1-0.8-1"/>
		<path id="XMLID_2263_" class="st15" d="M139.5,99.2c0,0,3.7,1.1,5.4,3.3c0.5,0.6,0.8,1.3,0.9,2.1c0.2,3.6-5.4,2.5-6.3,1.9
			c-0.9-0.6-1.3-0.8-1.3-0.8"/>
		<path id="XMLID_200_" class="st16" d="M126.8,102.1c0,0,1.7,1.3,3.4,1l0,0"/>
		<path id="XMLID_199_" class="st16" d="M113.7,98.1L113.7,98.1l0.7-1.4"/>
		<path id="XMLID_195_" class="st17" d="M110.1,101.7c0.7-2,3.4-3.5,3.6-3.6"/>
		<line id="XMLID_194_" class="st16" x1="110.8" y1="104.8" x2="110.8" y2="104.8"/>
		<path id="XMLID_193_" class="st17" d="M113.3,105.9c-0.9,0.1-1.8-0.2-2.5-1.1"/>
		<path id="XMLID_191_" class="st16" d="M118.9,102.1L118.9,102.1L118.9,102.1"/>
		<path id="XMLID_190_" class="st17" d="M121.6,102.3c-1.4,0.2-2.5-0.2-2.7-0.2"/>
	</g>
</g>
<path id="XMLID_2358_" class="st4" d="M64.5,127.7l0.6,3.9c0,0-3.8,4.1-13.2,2.9c0,0-1.8,0.3-6.7-2.4l0.8-4.3
	C45.9,127.7,53,133.3,64.5,127.7z"/>
<g id="XMLID_2357_">
	<polygon id="XMLID_731_" class="st18" points="5.6,109.2 10,104.3 21.5,100.3 28.1,102 23.9,107.4 12.4,111.4 	"/>
	<path id="XMLID_728_" class="st12" d="M21.5,100.6l6.1,1.5l-3.9,5L12.4,111l-6.3-2l4-4.5L21.5,100.6 M21.5,100l-11.7,4.1l-4.7,5.3
		l7.3,2.3l11.7-4.1l4.5-5.8L21.5,100L21.5,100z"/>
</g>
<g id="XMLID_2300_">
	<g>
		<defs>
			<polygon id="SVGID_1_" points="5.1,109.4 12.7,111.5 24.1,107.6 28.6,101.8 23.4,98.5 10.4,99.7 			"/>
		</defs>
		<clipPath id="SVGID_2_">
			<use xlink:href="#SVGID_1_"  style="overflow:visible;"/>
		</clipPath>
		<g id="XMLID_2302_" class="st19">
			<g id="XMLID_2170_">
				<polygon id="XMLID_2241_" class="st20" points="26.8,97.6 29.1,96.3 29.6,97.2 27.8,99.6 25.4,100.9 25,99.9 				"/>
				<polygon id="XMLID_2240_" class="st20" points="25.4,100.9 27.8,99.6 28.2,100.7 26.3,103.1 24,104.4 23.6,103.3 				"/>
				<polygon id="XMLID_2239_" class="st20" points="21.3,104.6 23.6,103.3 24,104.4 22,106.9 19.8,108.1 19.5,106.9 				"/>
				<polygon id="XMLID_2238_" class="st20" points="22.7,101.1 25,99.9 25.4,100.9 23.6,103.3 21.3,104.6 20.9,103.4 				"/>
				<polygon id="XMLID_2237_" class="st20" points="18.7,104.6 20.9,103.4 21.3,104.6 19.5,106.9 17.3,108.1 16.9,106.9 				"/>
				<polygon id="XMLID_2236_" class="st20" points="25.2,94.8 27.5,93.5 28,94.4 26.3,96.6 24,97.9 23.5,96.9 				"/>
				<polygon id="XMLID_2235_" class="st20" points="24,97.9 26.3,96.6 26.8,97.6 25,99.9 22.7,101.1 22.3,100.1 				"/>
				<polygon id="XMLID_2234_" class="st20" points="20.1,101.3 22.3,100.1 22.7,101.1 20.9,103.4 18.7,104.6 18.3,103.5 				"/>
				<polygon id="XMLID_2233_" class="st20" points="21.3,98.1 23.5,96.9 24,97.9 22.3,100.1 20.1,101.3 19.6,100.3 				"/>
				<polygon id="XMLID_2232_" class="st20" points="17.4,101.4 19.6,100.3 20.1,101.3 18.3,103.5 16.2,104.6 15.7,103.6 				"/>
				<polygon id="XMLID_2231_" class="st20" points="17.3,108.1 19.5,106.9 19.8,108.1 17.9,110.5 15.7,111.7 15.4,110.4 				"/>
				<polygon id="XMLID_2230_" class="st20" points="15.7,111.7 17.9,110.5 18.2,111.8 16.2,114.3 14,115.4 13.8,114.1 				"/>
				<polygon id="XMLID_2229_" class="st20" points="11.7,115.2 13.8,114.1 14,115.4 12.1,117.9 9.9,119 9.8,117.6 				"/>
				<polygon id="XMLID_2189_" class="st20" points="13.3,111.5 15.4,110.4 15.7,111.7 13.8,114.1 11.7,115.2 11.4,113.9 				"/>
				<polygon id="XMLID_2188_" class="st20" points="9.4,114.9 11.4,113.9 11.7,115.2 9.8,117.6 7.7,118.6 7.5,117.2 				"/>
				<polygon id="XMLID_2186_" class="st20" points="16.2,104.6 18.3,103.5 18.7,104.6 16.9,106.9 14.8,108 14.4,106.8 				"/>
				<polygon id="XMLID_2185_" class="st20" points="14.8,108 16.9,106.9 17.3,108.1 15.4,110.4 13.3,111.5 13,110.3 				"/>
				<polygon id="XMLID_2183_" class="st20" points="10.9,111.3 13,110.3 13.3,111.5 11.4,113.9 9.4,114.9 9.1,113.6 				"/>
				<polygon id="XMLID_2182_" class="st20" points="12.3,107.9 14.4,106.8 14.8,108 13,110.3 10.9,111.3 10.6,110.1 				"/>
				<polygon id="XMLID_2177_" class="st20" points="18.6,98.3 20.7,97.2 21.3,98.1 19.6,100.3 17.4,101.4 16.9,100.4 				"/>
				<polygon id="XMLID_2176_" class="st20" points="19.6,95.4 21.8,94.2 22.4,95.1 20.7,97.2 18.6,98.3 18,97.4 				"/>
				<polygon id="XMLID_2175_" class="st20" points="15.9,98.5 18,97.4 18.6,98.3 16.9,100.4 14.8,101.5 14.3,100.5 				"/>
				<polygon id="XMLID_2174_" class="st20" points="14.8,101.5 16.9,100.4 17.4,101.4 15.7,103.6 13.7,104.6 13.2,103.5 				"/>
				<polygon id="XMLID_2173_" class="st20" points="13.7,104.6 15.7,103.6 16.2,104.6 14.4,106.8 12.3,107.9 12,106.7 				"/>
				<polygon id="XMLID_2172_" class="st20" points="10,107.7 12,106.7 12.3,107.9 10.6,110.1 8.6,111.1 8.3,109.8 				"/>
				<polygon id="XMLID_2171_" class="st20" points="11.2,104.5 13.2,103.5 13.7,104.6 12,106.7 10,107.7 9.6,106.6 				"/>
			</g>
		</g>
	</g>
</g>
<polygon id="XMLID_1969_" class="st21" points="80.9,98.4 72.8,99.6 72.5,96.2 80.6,95 "/>
<path id="XMLID_1968_" class="st22" d="M70.6,98.3c-0.1-0.9-0.8-1.5-1.6-1.4c-0.1,0-0.3,0.1-0.4,0.1l-0.5,0.2v0.2
	c-0.3,0.3-0.4,0.8-0.4,1.3c0.1,0.6,0.5,1.1,0.9,1.3l0.1,0.3l0.7-0.2l0,0c0.1,0,0.2-0.1,0.3-0.1l0,0l0,0C70.3,99.6,70.7,99,70.6,98.3
	z"/>
<ellipse id="XMLID_1966_" transform="matrix(0.9935 -0.1141 0.1141 0.9935 -10.8129 8.4727)" class="st23" cx="68.6" cy="98.7" rx="1.4" ry="1.6"/>
<polygon id="XMLID_1962_" class="st24" points="73.1,96.1 73.4,99 80.8,97.9 80.9,98.4 72.8,99.6 72.5,96.2 "/>
<linearGradient id="XMLID_5_" gradientUnits="userSpaceOnUse" x1="78.1244" y1="20.5963" x2="88.0589" y2="20.5963" gradientTransform="matrix(1 0 0 -1 0 152)">
	<stop  offset="0" style="stop-color:#60AC54"/>
	<stop  offset="1" style="stop-color:#2583C5;stop-opacity:0"/>
</linearGradient>
<path id="XMLID_1961_" class="st25" d="M78.3,127.7c0,0,2.2,2,6.3,2.7c4.1,0.7,3.4,0.3,3.4,0.3l-0.4,4.4c0,0-5,0.3-9.5-2.9
	C78.1,132.2,78.3,128.9,78.3,127.7z"/>
<linearGradient id="XMLID_6_" gradientUnits="userSpaceOnUse" x1="65.07" y1="20.8" x2="54.1514" y2="20.8" gradientTransform="matrix(1 0 0 -1 0 152)">
	<stop  offset="0" style="stop-color:#60AC54"/>
	<stop  offset="1" style="stop-color:#2583C5;stop-opacity:0"/>
</linearGradient>
<path id="XMLID_1960_" class="st26" d="M64.5,127.7l0.6,3.9c0,0-2.1,2.8-9.8,3.1h-1l-0.1-4.5C54.2,130.2,58.9,130.6,64.5,127.7z"/>
<g id="XMLID_1957_">
	<path id="XMLID_1959_" class="st27" d="M79,88.9l-1.9,0.2c-2.4-0.4-6.6-0.3-11.3,0.4c-4.6,0.6-8.5,1.6-10.7,2.6L53,92.4l0.2,1.3
		c0.2,1.3,6.2,1.6,13.4,0.6s12.8-2.9,12.6-4.2L79,88.9z"/>
	<path id="XMLID_1958_" class="st28" d="M79,88.9c0.2,1.3-5.4,3.2-12.6,4.2S53.2,93.8,53,92.5s5.4-3.2,12.6-4.2
		C72.8,87.3,78.8,87.6,79,88.9z"/>
</g>
<path id="XMLID_1956_" class="st29" d="M67.9,91.6l3.5,0.7l0.2,1.2l8.1-0.9v-2.4h-0.4L79,88.9c0,0,0.2-0.8-2.9-1.1l-0.9,0.3L70,90.4
	L67.9,91.6z"/>
<g id="XMLID_198_">
	<path id="XMLID_1955_" class="st12" d="M62,70.1c0,0-7.6,2.2-7.2,8c0,0,0,2.9,2.4,4.9c0,0-1.8,4.5-0.9,7.3c1,2.8,7.7,2,9.8,1.6
		s6.9-1.3,8.5-2.7c1.6-1.4,1.4-7.5,0.8-7.3c-0.5,0.2-1.1,1.1-1.1,1.1s0.2-2.1-0.3-1.7s-2.1,1.6-2.1,1.6s-1.5-1.6-2-2
		c0,0,2-1.7,1.2-4s-1.7-3.6-2.7-4.3c0,0,0.4-1.3-0.1-1.4c-0.5-0.2-1.1-0.1-1.1-0.1s0.3-2-0.8-1.7c-1.1,0.3-1.1,0.3-1.1,0.3
		s0.5-1-0.8-1.4C63.2,68,62,70.1,62,70.1z"/>
	<path id="XMLID_1954_" class="st14" d="M57.2,79.4c0,0,2.9-0.3,5.1-0.9c0,0,1.5-0.3,1.2,0.4c-0.3,0.8-2,1.8-4.1,2.4
		s-4.1-0.9-3.5-1.4C56.6,79.3,57.2,79.4,57.2,79.4z"/>
	<path id="XMLID_1696_" class="st30" d="M63.9,77.2c0,0-0.1-3,1.3-1.8c1.6,1.4,0.3,2.3,0.3,2.3S64.2,78.3,63.9,77.2z"/>
	<path id="XMLID_1695_" class="st31" d="M54.3,76.7c0,0,0.9,0.4,1.6,1.4l0.2,0.2c0,0-1.1,0.2-1.5,0.6"/>
	<path id="XMLID_1694_" class="st32" d="M64.5,68.4c0,0,0.5,1.1-0.2,2.5c0,0,0.8-0.6,1-1.1C65.6,69.3,65.4,68.7,64.5,68.4z"/>
	<path id="XMLID_1693_" class="st32" d="M66.5,69.5c0,0,0.3,1.2-0.2,2S66.1,72,66.1,72s0.8-0.1,1.2-0.9
		C67.3,71.2,67.6,69.2,66.5,69.5z"/>
	<path id="XMLID_1692_" class="st32" d="M68.4,71.3c0,0-0.4,1.3-0.8,1.9c0,0,2,2.7,1.5,5.7c0,0-0.3,2.4-1.8,3.1c0,0,4.1,6.2,0.6,9.7
		c0,0,4.6-0.9,6.3-2.1c1.8-1.2,1.5-5.3,1.6-6.5l-0.4-1c0,0-1,0.8-1.1,1.1c0,0,0.1-1.3-0.1-1.7C73.9,81,71.9,83,71.9,83s-0.7-1.1-2-2
		c0,0,1.8-1.7,1.4-3.4c-0.4-1.7-1.4-4-2.9-4.9C68.4,72.7,68.8,71.4,68.4,71.3z"/>
	<path id="XMLID_1688_" class="st32" d="M58.8,83.3c0,0,1.6,0.1,3.8-0.3c0,0-0.9,1.7-1.9,1.8C59.7,84.8,58.8,83.3,58.8,83.3z"/>
	<path id="XMLID_1687_" class="st33" d="M56.3,80.8c0,0,2.8,0.6,7.2-1.8l0,0c0,0-0.8,1.9-4.9,2.5c-0.2,0,0,0,0,0
		S57.2,81.6,56.3,80.8"/>
	<path id="XMLID_1686_" class="st34" d="M62.3,70.2c0,0,1.5-1.4,2.1-3.4c0.5-2.1-3.4-3.2-3.9-1.7c-0.5,1.5,1.4,1.4,2.2,1.1
		c0.8-0.4,1.2-2.4,0.9-3.3c-0.3-0.9-1.2-1.3-1.2-1.3"/>
	<path id="XMLID_1685_" class="st35" d="M63.6,65.5c0,0,0.2-0.5,0.2-0.6c0,0,0.3,0.2,0.4,0.4L64,66C64,66,63.8,65.7,63.6,65.5z"/>
	<path id="XMLID_333_" class="st35" d="M63.3,64.5l-0.2,0.6c0,0-0.4-0.2-0.6-0.3l0.1-0.5C62.7,64.3,63,64.4,63.3,64.5z"/>
</g>
<g id="XMLID_2223_">
	<path id="XMLID_2299_" class="st36" d="M16.5,72.5c0.4,0.8,0.2,0.4,0.7,1.2c-0.4,0.7-0.8,1.4-1.3,2.1"/>
	<path id="XMLID_2298_" class="st36" d="M15.9,75.8c0.4,0.8,0.9,1.5,1.3,2.3c-0.4,0.7-0.9,1.4-1.3,2.1c-0.9,0-1.8,0-2.7,0"/>
	<path id="XMLID_2297_" class="st36" d="M11.9,82.6c0.4,0.7,0.9,1.4,1.3,2.1c-0.5,0.8-0.9,1.6-1.4,2.4c-0.9,0.1-1.8,0.3-2.8,0.5"/>
	<path id="XMLID_2296_" class="st36" d="M17.2,78.1c-0.5-0.8-0.9-1.5-1.3-2.3c0.4-0.7,0.9-1.4,1.3-2.1c0.9,0.1,1.7,0.3,2.6,0.4
		c0.4,0.8,0.9,1.6,1.4,2.4c-0.4,0.6-0.8,1.2-1.2,1.9C19,78.3,18.1,78.2,17.2,78.1z"/>
	<path id="XMLID_2295_" class="st36" d="M21.1,76.6c-0.5-0.8-0.9-1.6-1.4-2.4c0.4-0.6,0.8-1.2,1.2-1.8c0.8,0.2,1.7,0.5,2.5,0.8
		c0.4,0.9,0.9,1.7,1.4,2.6c-0.4,0.5-0.7,1.1-1.1,1.6C22.8,77.1,22,76.8,21.1,76.6z"/>
	<path id="XMLID_2294_" class="st36" d="M25,79.9c-0.5-0.8-0.9-1.7-1.4-2.5c0.4-0.6,0.8-1.1,1.1-1.6c0.8,0.3,1.6,0.7,2.4,1.1
		c0.5,0.9,0.9,1.8,1.4,2.7c-0.3,0.5-0.7,0.9-1,1.4C26.7,80.5,25.9,80.2,25,79.9z"/>
	<path id="XMLID_2293_" class="st36" d="M21.3,80.9c-0.5-0.8-0.9-1.6-1.4-2.4c0.4-0.6,0.8-1.3,1.2-1.9c0.9,0.2,1.7,0.5,2.5,0.7
		c0.5,0.8,0.9,1.7,1.4,2.5c-0.4,0.5-0.8,1.1-1.2,1.7C23,81.3,22.1,81.1,21.3,80.9z"/>
	<path id="XMLID_2292_" class="st36" d="M25.3,84.1c-0.5-0.8-1-1.7-1.4-2.5c0.4-0.6,0.8-1.1,1.2-1.7c0.8,0.3,1.7,0.7,2.5,1
		c0.5,0.9,0.9,1.8,1.4,2.6c-0.4,0.5-0.7,1-1.1,1.5C27,84.7,26.2,84.4,25.3,84.1z"/>
	<path id="XMLID_2291_" class="st36" d="M13.2,84.7c-0.5-0.7-0.9-1.4-1.3-2.1c0.5-0.8,0.9-1.6,1.4-2.3c0.9,0,1.8,0,2.7,0
		c0.5,0.8,0.9,1.5,1.4,2.3c-0.4,0.7-0.9,1.4-1.3,2.1C15.1,84.6,14.1,84.6,13.2,84.7z"/>
	<path id="XMLID_2290_" class="st36" d="M17.3,82.5c-0.5-0.8-0.9-1.5-1.4-2.3c0.4-0.7,0.9-1.4,1.3-2.1c0.9,0.1,1.8,0.2,2.6,0.4
		c0.5,0.8,0.9,1.6,1.4,2.4c-0.4,0.6-0.8,1.2-1.3,1.9C19.1,82.6,18.2,82.5,17.3,82.5z"/>
	<path id="XMLID_2289_" class="st36" d="M21.4,85.2c-0.5-0.8-1-1.6-1.4-2.4c0.4-0.6,0.8-1.3,1.3-1.9c0.9,0.2,1.8,0.4,2.6,0.7
		c0.5,0.8,0.9,1.7,1.4,2.5c-0.4,0.6-0.8,1.1-1.2,1.7C23.2,85.5,22.3,85.3,21.4,85.2z"/>
	<path id="XMLID_2288_" class="st36" d="M17.4,86.9c-0.5-0.7-0.9-1.5-1.4-2.2c0.5-0.7,0.9-1.4,1.3-2.1c0.9,0.1,1.8,0.2,2.7,0.3
		c0.5,0.8,0.9,1.6,1.4,2.4c-0.4,0.6-0.9,1.3-1.3,1.9C19.2,87,18.3,86.9,17.4,86.9z"/>
	<path id="XMLID_2287_" class="st36" d="M9.1,87.6c-0.5,0.9-1,1.8-1.5,2.7c-0.9,0.2-0.8,0.4-1.8,0.7"/>
	<path id="XMLID_2228_" class="st36" d="M7.6,90.2c0.4,0.7,0.9,1.3,1.3,2c-0.5,0.9-1,1.8-1.5,2.7C6.5,95.2,6,95.3,5,95.6"/>
	<path id="XMLID_2227_" class="st36" d="M8.9,92.2c-0.4-0.7-0.9-1.3-1.3-2c0.5-0.9,1-1.8,1.5-2.7c0.9-0.2,1.8-0.3,2.8-0.5
		c0.5,0.7,0.9,1.4,1.4,2.1c-0.5,0.8-1,1.6-1.4,2.4C10.8,91.8,9.9,92,8.9,92.2z"/>
	<path id="XMLID_2226_" class="st36" d="M13.2,89.2c-0.5-0.7-0.9-1.4-1.4-2.1c0.5-0.8,0.9-1.6,1.4-2.4c0.9-0.1,1.8-0.1,2.7-0.1
		c0.5,0.7,0.9,1.5,1.4,2.2c-0.5,0.7-0.9,1.4-1.4,2.2C15.1,89,14.1,89.1,13.2,89.2z"/>
	<path id="XMLID_2225_" class="st36" d="M17.4,91.2c-0.5-0.7-1-1.5-1.4-2.2c0.5-0.7,0.9-1.5,1.4-2.2c0.9,0,1.8,0.1,2.8,0.2
		c0.5,0.8,1,1.6,1.5,2.3c-0.4,0.6-0.9,1.3-1.3,2C19.3,91.3,18.4,91.2,17.4,91.2z"/>
	<path id="XMLID_2224_" class="st36" d="M13.2,93.7c-0.5-0.7-0.9-1.4-1.4-2.1c0.5-0.8,1-1.6,1.4-2.4c0.9-0.1,1.9-0.1,2.8-0.2
		c0.5,0.7,1,1.5,1.4,2.2c-0.5,0.7-0.9,1.5-1.4,2.2C15.1,93.5,14.1,93.6,13.2,93.7z"/>
</g>
<path id="XMLID_2222_" class="st37" d="M110.9,104.9c0.1,0.1,4.6,0,7-4.4c0,0,1.3,0.4,2.9,0.2l-0.4-0.4c0,0,6.2,1.1,8.5-0.5
	c0,0,0,0.8-0.5,1.2c0,0,0,0.3,1.4,0.3s0.9-0.1,0.9-0.1s3.2,4.3,7.8,3.7l0.3-1c0,0,3.5,3.1,6.2,2.5c0,0-2.7,2-7-0.9
	c0,0-2,1.6-6.2-0.9c0,0-1-0.7-1.6-1.6c0,0-1.5,0.4-3.4-1c0,0-1.7,0.8-4.2-0.1c0,0-2,0.5-3.7,0c0,0-1.9,3.2-4.2,3.7
	C112.5,106.2,110.9,104.9,110.9,104.9z"/>
<linearGradient id="XMLID_7_" gradientUnits="userSpaceOnUse" x1="127.9589" y1="54.7864" x2="122.3842" y2="51.5679" gradientTransform="matrix(1 0 0 -1 0 152)">
	<stop  offset="0" style="stop-color:#EE4137;stop-opacity:0.75"/>
	<stop  offset="1" style="stop-color:#F05A2A;stop-opacity:0"/>
</linearGradient>
<path id="XMLID_2221_" class="st38" d="M121.3,97c0,0,3.5-2.2,5.8-0.7c2.2,1.5,1.5,4.9,0.6,5.1l-1.1,0.5
	C126.5,101.9,121.3,102.1,121.3,97z"/>
<linearGradient id="XMLID_8_" gradientUnits="userSpaceOnUse" x1="138.578" y1="49.694" x2="131.0737" y2="49.694" gradientTransform="matrix(1 0 0 -1 0 152)">
	<stop  offset="0" style="stop-color:#EE4137;stop-opacity:0.75"/>
	<stop  offset="1" style="stop-color:#F05A2A;stop-opacity:0"/>
</linearGradient>
<path id="XMLID_2220_" class="st39" d="M134.7,99c0,0,3.9,1.2,3.9,4.3s-3.7,2.3-3.7,2.3s-2.2-0.6-3.1-1.3S130,98.2,134.7,99z"/>
<linearGradient id="XMLID_9_" gradientUnits="userSpaceOnUse" x1="145.4275" y1="48.7263" x2="138.1636" y2="48.7263" gradientTransform="matrix(1 0 0 -1 0 152)">
	<stop  offset="0" style="stop-color:#EE4137;stop-opacity:0.75"/>
	<stop  offset="1" style="stop-color:#F05A2A;stop-opacity:0"/>
</linearGradient>
<path id="XMLID_2219_" class="st40" d="M141,100.1c0,0,3.6,1.5,4.3,3.6s-1.1,3.2-2.8,3c-1.7-0.1-2.4-0.4-3.6-1.2
	c-1.2-0.8-0.2-0.2-0.2-0.2s1.4-1.2,0.3-3.7l-0.7-0.9C138.2,100.8,139,99.2,141,100.1z"/>
<path id="XMLID_2218_" class="st33" d="M95,74.1c0,0,0.5,4.6-5,7.4c0,0,2.5,4.1,7,5.3c4.5,1.2,7.1-1.6,8.4-4.1c0,0-2.5-1.1-5.1-0.8
	C100.4,81.8,97.1,81.5,95,74.1z"/>
<g id="XMLID_2209_">
	<g>
		<defs>
			<path id="SVGID_3_" d="M111.6,60.5c0,0-5.5-3.8-12.1-0.4c-6.5,3.5-2,8.8-2,8.8L97,80.7l-8,2.6l-5.7-22.2l9.8-7.4l10.6-0.5
				L111.6,60.5z"/>
		</defs>
		<clipPath id="SVGID_4_">
			<use xlink:href="#SVGID_3_"  style="overflow:visible;"/>
		</clipPath>
		<g id="XMLID_2211_" class="st41">
			<path id="XMLID_2217_" class="st42" d="M105.4,59.4c0,0-6.1-5.8-12.1,2.9c0,0-5.1,9.6,1.3,18.7"/>
			<path id="XMLID_2216_" class="st42" d="M106,59.7c0,0-3.4-4.4-8.3-2.5s-7.4,7.5-7.5,12.1c-0.1,4.6,0.7,10,5,13.8"/>
			<path id="XMLID_2215_" class="st42" d="M106,59c0,0-7.2-8-14,1.5s0.1,22.7,2.1,22.8"/>
			<path id="XMLID_2214_" class="st42" d="M106.2,59.2c0,0-5.5-6.8-11.8-2.6s-6.9,12.6-6.2,17.1c0.6,3.9,3.2,10.1,5.8,10.8"/>
			<path id="XMLID_2213_" class="st42" d="M104.2,59.3c-1.8-1.1-4.9-0.2-6.2,0.9c-1.3,1.1-2.4,2.5-3.1,4.1c-1.1,2.4-1.3,5-1.2,7.6
				c0.1,2.6,1.2,6.1,3,8"/>
			<path id="XMLID_2212_" class="st42" d="M104.8,59.4c0,0-4.3-3.9-9.5,1.7c-5.1,5.6-3.3,22.1,5.5,22.9"/>
		</g>
	</g>
</g>
<g id="XMLID_2190_">
	<path id="XMLID_2208_" class="st43" d="M17,71.9c0.4,0.8,0.2,0.4,0.7,1.2c-0.4,0.7-0.8,1.4-1.3,2.1"/>
	<path id="XMLID_2207_" class="st43" d="M16.4,75.2c0.4,0.8,0.9,1.5,1.3,2.3c-0.4,0.7-0.9,1.4-1.3,2.1c-0.9,0-1.8,0-2.7,0"/>
	<path id="XMLID_2206_" class="st43" d="M12.4,81.9c0.4,0.7,0.9,1.4,1.3,2.1c-0.5,0.8-0.9,1.6-1.4,2.4c-0.9,0.1-1.8,0.3-2.8,0.5"/>
	<path id="XMLID_2205_" class="st43" d="M17.8,77.5c-0.5-0.8-0.9-1.5-1.3-2.3c0.4-0.7,0.9-1.4,1.3-2.1c0.9,0.1,1.7,0.3,2.6,0.4
		c0.4,0.8,0.9,1.6,1.4,2.4c-0.4,0.6-0.8,1.2-1.2,1.9C19.5,77.7,18.7,77.6,17.8,77.5z"/>
	<path id="XMLID_2204_" class="st43" d="M21.6,76c-0.5-0.8-0.9-1.6-1.4-2.4c0.4-0.6,0.8-1.2,1.2-1.8c0.8,0.2,1.7,0.5,2.5,0.8
		c0.4,0.9,0.9,1.7,1.4,2.6c-0.4,0.5-0.7,1.1-1.1,1.6C23.3,76.4,22.5,76.2,21.6,76z"/>
	<path id="XMLID_2203_" class="st43" d="M25.6,79.3c-0.5-0.8-0.9-1.7-1.4-2.5c0.4-0.6,0.8-1.1,1.1-1.6c0.8,0.3,1.6,0.7,2.4,1.1
		c0.5,0.9,0.9,1.8,1.4,2.7c-0.3,0.5-0.7,0.9-1,1.4C27.2,79.9,26.4,79.6,25.6,79.3z"/>
	<path id="XMLID_2202_" class="st43" d="M21.8,80.3c-0.5-0.8-0.9-1.6-1.4-2.4c0.4-0.6,0.8-1.3,1.2-1.9c0.9,0.2,1.7,0.5,2.5,0.7
		c0.5,0.8,0.9,1.7,1.4,2.5c-0.4,0.5-0.8,1.1-1.2,1.7C23.5,80.7,22.7,80.4,21.8,80.3z"/>
	<path id="XMLID_2201_" class="st43" d="M25.8,83.4c-0.5-0.8-1-1.7-1.4-2.5c0.4-0.6,0.8-1.1,1.2-1.7c0.8,0.3,1.7,0.7,2.5,1
		c0.5,0.9,0.9,1.8,1.4,2.6c-0.4,0.5-0.7,1-1.1,1.5C27.5,84.1,26.7,83.7,25.8,83.4z"/>
	<path id="XMLID_2200_" class="st43" d="M13.8,84.1c-0.5-0.7-0.9-1.4-1.3-2.1c0.5-0.8,0.9-1.6,1.4-2.3c0.9,0,1.8,0,2.7,0
		c0.5,0.8,0.9,1.5,1.4,2.3c-0.4,0.7-0.9,1.4-1.3,2.1C15.6,84,14.7,84,13.8,84.1z"/>
	<path id="XMLID_2199_" class="st43" d="M17.8,81.9c-0.5-0.8-0.9-1.5-1.4-2.3c0.4-0.7,0.9-1.4,1.3-2.1c0.9,0.1,1.8,0.2,2.6,0.4
		c0.5,0.8,0.9,1.6,1.4,2.4c-0.4,0.6-0.8,1.2-1.3,1.9C19.6,82,18.7,81.9,17.8,81.9z"/>
	<path id="XMLID_2198_" class="st43" d="M22,84.5c-0.5-0.8-1-1.6-1.4-2.4c0.4-0.6,0.8-1.3,1.3-1.9c0.9,0.2,1.8,0.4,2.6,0.7
		c0.5,0.8,0.9,1.7,1.4,2.5c-0.4,0.6-0.8,1.1-1.2,1.7C23.8,84.9,22.9,84.7,22,84.5z"/>
	<path id="XMLID_2197_" class="st43" d="M17.9,86.2c-0.5-0.7-0.9-1.5-1.4-2.2c0.5-0.7,0.9-1.4,1.3-2.1c0.9,0.1,1.8,0.2,2.7,0.3
		c0.5,0.8,0.9,1.6,1.4,2.4c-0.4,0.6-0.9,1.3-1.3,1.9C19.8,86.3,18.8,86.3,17.9,86.2z"/>
	<path id="XMLID_2196_" class="st43" d="M9.6,86.9c-0.5,0.9-1,1.8-1.5,2.7c-0.9,0.2-1.4,0.4-2.3,0.7"/>
	<path id="XMLID_2195_" class="st43" d="M8.1,89.6c0.4,0.7,0.9,1.3,1.3,2c-0.5,0.9-1,1.8-1.5,2.7c-0.9,0.3-2.2,0.7-3.1,1"/>
	<path id="XMLID_2194_" class="st43" d="M9.5,91.5c-0.4-0.7-0.9-1.3-1.3-2c0.5-0.9,1-1.8,1.5-2.7c0.9-0.2,1.8-0.3,2.8-0.5
		c0.5,0.7,0.9,1.4,1.4,2.1c-0.5,0.8-1,1.6-1.4,2.4C11.3,91.1,10.4,91.3,9.5,91.5z"/>
	<path id="XMLID_2193_" class="st43" d="M13.7,88.6c-0.5-0.7-0.9-1.4-1.4-2.1c0.5-0.8,0.9-1.6,1.4-2.4c0.9-0.1,1.8-0.1,2.7-0.1
		c0.5,0.7,0.9,1.5,1.4,2.2c-0.5,0.7-0.9,1.4-1.4,2.2C15.6,88.4,14.7,88.5,13.7,88.6z"/>
	<path id="XMLID_2192_" class="st43" d="M18,90.6c-0.5-0.7-1-1.5-1.4-2.2c0.5-0.7,0.9-1.5,1.4-2.2c0.9,0,1.8,0.1,2.8,0.2
		c0.5,0.8,1,1.6,1.5,2.3c-0.4,0.6-0.9,1.3-1.3,2C19.9,90.7,18.9,90.6,18,90.6z"/>
	<path id="XMLID_2191_" class="st43" d="M13.7,93.1c-0.5-0.7-0.9-1.4-1.4-2.1c0.5-0.8,1-1.6,1.4-2.4c0.9-0.1,1.9-0.1,2.8-0.2
		c0.5,0.7,1,1.5,1.4,2.2c-0.5,0.7-0.9,1.5-1.4,2.2C15.6,92.9,14.6,92.9,13.7,93.1z"/>
</g>
<g id="XMLID_2187_">
	<polygon id="XMLID_725_" class="st44" points="120.9,73.1 118,69.9 118.9,67 122.7,67.1 125.5,70.3 124.6,73.2 	"/>
</g>
<g id="XMLID_2184_">
	<polygon id="XMLID_727_" class="st44" points="126.5,81.1 123.6,77.9 124.5,75 128.3,75.1 131.1,78.3 130.2,81.2 	"/>
</g>
<g id="XMLID_2181_">
	<polygon id="XMLID_726_" class="st44" points="129.8,89.7 127.1,86.4 128.4,83.5 132.4,84 135,87.4 133.7,90.2 	"/>
</g>
<polygon id="XMLID_2180_" class="st33" points="118.8,67.5 121.9,67.6 124.5,70.4 123.7,73.2 124.6,73.2 125.5,70.2 122.7,67.1 
	119,66.9 "/>
<polygon id="XMLID_2179_" class="st33" points="124.5,75 124.4,75.5 127.7,75.6 130.1,78.3 129.3,81.2 130.2,81.2 131.1,78.2 
	128.3,75.1 "/>
<polygon id="XMLID_2178_" class="st33" points="128.4,83.5 128.2,83.9 128.1,84.2 132,84.6 134.1,87.4 132.9,90.1 133.7,90.2 
	135,87.4 132.4,84 "/>
<g id="XMLID_197_">
	<g id="XMLID_2095_">
		<g id="XMLID_2100_">
			<path id="XMLID_2126_" class="st3" d="M38.8,57.3c0,0.2,0,0.4-0.1,0.6c0,0.1-0.1,0.2-0.2,0.2c-0.1,0.1-0.2,0.1-0.3,0.1H38h-0.1
				l-0.3-1.6h0.2h0.1c0.1,0,0.2,0,0.3,0s0.2,0.1,0.2,0.1C38.7,56.9,38.8,57.1,38.8,57.3z M38.6,57.3c0-0.2-0.1-0.3-0.2-0.4
				c-0.1-0.1-0.2-0.1-0.4-0.1h-0.1l0.2,1.1h0.1c0.1,0,0.3-0.1,0.3-0.2C38.6,57.6,38.7,57.5,38.6,57.3z"/>
			<path id="XMLID_2124_" class="st3" d="M40.2,57.9L40,57.1l-0.3,0.8l-0.5-0.7l0.1,0.9h-0.2l-0.3-1.7l0.8,1l0.4-1.2L40.2,57.9
				L40.2,57.9z"/>
			<path id="XMLID_2122_" class="st3" d="M40.7,56.8l0.5-0.1v0.2L40.7,57l0.1,0.5l0.6-0.1v0.2l-0.6,0.1h-0.2l-0.2-1.6h0.2l0.6-0.1
				v0.2l-0.6,0.1L40.7,56.8z"/>
			<path id="XMLID_2118_" class="st3" d="M42.4,57.1c0,0.1,0,0.2,0,0.2c0,0.1-0.1,0.1-0.1,0.2c-0.1,0.1-0.2,0.1-0.3,0.2h-0.1h-0.2
				l-0.2-1.6h0.2h0.1c0.1,0,0.3,0,0.3,0l0.1,0.1c0,0,0,0.1,0.1,0.2c0,0.1,0,0.2-0.1,0.3c0,0,0,0,0.1,0l0.1,0.1
				C42.3,56.9,42.4,57,42.4,57.1z M41.6,56.3l0.1,0.5c0,0,0.1,0,0.1-0.1c0.1,0,0.1-0.1,0.1-0.1v-0.1c0-0.1,0-0.1-0.1-0.1
				C41.9,56.2,41.8,56.2,41.6,56.3L41.6,56.3z M42.2,57.1c0-0.1,0-0.1-0.1-0.2c0,0-0.1,0-0.1-0.1l0,0c-0.1,0-0.1,0.1-0.2,0.1
				l0.1,0.4H42c0.1,0,0.2-0.1,0.2-0.1S42.2,57.2,42.2,57.1z"/>
			<path id="XMLID_2103_" class="st3" d="M43,57.4c-0.1,0-0.2-0.1-0.2-0.1c-0.1-0.1-0.1-0.1-0.2-0.2c0-0.1-0.1-0.2-0.1-0.3
				s0-0.2,0-0.3s0.1-0.2,0.1-0.3s0.1-0.2,0.2-0.2c0.1-0.1,0.2-0.1,0.2-0.1c0.1,0,0.2,0,0.3,0s0.2,0.1,0.2,0.1
				c0.1,0.1,0.1,0.1,0.2,0.2c0,0.1,0.1,0.2,0.1,0.3s0,0.2,0,0.3s-0.1,0.2-0.1,0.3s-0.1,0.2-0.2,0.2c-0.1,0.1-0.2,0.1-0.2,0.1
				C43.2,57.4,43.1,57.4,43,57.4z M42.8,56.3c-0.1,0.1-0.1,0.3-0.1,0.4c0,0.1,0.1,0.3,0.2,0.4c0.1,0.1,0.2,0.1,0.3,0.1
				s0.2-0.1,0.3-0.2c0.1-0.1,0.1-0.3,0.1-0.4c0-0.1-0.1-0.3-0.2-0.4c-0.1-0.1-0.2-0.1-0.3-0.1C42.9,56.1,42.8,56.2,42.8,56.3z"/>
			<path id="XMLID_2101_" class="st3" d="M44.6,55.8l-0.4,0.1l0.2,1.4h-0.2L44,55.9L43.6,56v-0.2l0.9-0.1L44.6,55.8z"/>
		</g>
		<g id="XMLID_2096_">
			<path id="XMLID_2097_" class="st3" d="M45.3,57.6l-7.6,1.2l-0.4-2.5l7.7-1.2L45.3,57.6z M37.8,58.6l7.3-1.1l-0.3-2.2l-7.3,1.2
				L37.8,58.6z"/>
		</g>
	</g>
</g>
<polygon id="XMLID_196_" class="st13" points="65.3,60.8 65.2,60.1 60.4,60.9 60.5,61.6 61.9,61.4 62,61.9 63,61.7 63,61.2 "/>
<linearGradient id="XMLID_10_" gradientUnits="userSpaceOnUse" x1="62.7401" y1="91.6261" x2="63.0404" y2="90.3251" gradientTransform="matrix(1 0 0 -1 0 152)">
	<stop  offset="0" style="stop-color:#FFFFFF;stop-opacity:0"/>
	<stop  offset="1" style="stop-color:#FFFFFF;stop-opacity:0.75"/>
</linearGradient>
<polygon id="XMLID_192_" class="st45" points="65.3,60.8 65.2,60.1 60.4,60.9 60.5,61.6 61.9,61.4 62,61.9 63,61.7 63,61.2 "/>
</svg>
