<?xml version="1.0" encoding="utf-8"?>
<!-- Generator: Adobe Illustrator 19.0.0, SVG Export Plug-In . SVG Version: 6.00 Build 0)  -->
<svg version="1.1" id="Layer_1" xmlns="http://www.w3.org/2000/svg" xmlns:xlink="http://www.w3.org/1999/xlink" x="0px" y="0px"
	 viewBox="200 -10 500 120" style="enable-background:new 200 -10 500 120;" xml:space="preserve">
<style type="text/css">
	.st0{enable-background:new    ;}
	.st1{fill:#F37626;}
	.st2{fill:#FFFFFF;}
</style>
<g id="XMLID_1_" class="st0">
	<path class="st1" d="M263.9,73.7c0,4.2-1.7,7.8-5,10.8c-3.3,3-7.4,4.5-12.1,4.5h-17.1V24.9h17.1c4.8,0,8.8,1.5,12.1,4.5
		c3.3,3,5,6.6,5,10.8V73.7z M240.6,79.4h6.6c1.7,0,3.2-0.6,4.4-1.7c1.2-1.1,1.8-2.4,1.8-3.9V40.3c0-1.5-0.6-2.8-1.8-3.9
		c-1.2-1.1-2.7-1.6-4.3-1.6h-6.6V79.4z"/>
	<path class="st1" d="M284.3,89h-10.9V24.9h15.6l10.1,46.1l9.7-46.1h15V89H313V48.7L303.6,89h-8.7l-10.5-40.2V89z"/>
	<path class="st1" d="M333.6,89V24.9h31v9.7h-20.1v17.5h14.7v9.7h-14.7v17.5h20.1V89H333.6z"/>
</g>
<g id="XMLID_2_" class="st0">
	<path class="st2" d="M399.4,50.9c-0.2-0.6-0.4-1-0.4-3v-3.8c0-2.3-0.8-3.1-2.5-3.1h-1.3v10h-3.8V26.4h5.8c4,0,5.7,1.9,5.7,5.6V34
		c0,2.5-0.8,4.2-2.5,5c1.9,0.8,2.6,2.7,2.6,5.2V48c0,1.2,0,2.1,0.4,3H399.4z M395.2,29.9v7.5h1.5c1.4,0,2.3-0.6,2.3-2.6v-2.4
		c0-1.7-0.6-2.5-2-2.5H395.2z"/>
	<path class="st2" d="M408.7,42.8l-4.9-16.4h4l2.9,11.2l2.9-11.2h3.7l-4.9,16.4v8.1h-3.8V42.8z"/>
	<path class="st2" d="M422.8,36.8h5.3v3.5h-5.3v7.2h6.6v3.5H419V26.4h10.5v3.5h-6.6V36.8z"/>
	<path class="st2" d="M439.9,50.9c-0.2-0.6-0.4-1-0.4-3v-3.8c0-2.3-0.8-3.1-2.5-3.1h-1.3v10h-3.8V26.4h5.8c4,0,5.7,1.9,5.7,5.6V34
		c0,2.5-0.8,4.2-2.5,5c1.9,0.8,2.6,2.7,2.6,5.2V48c0,1.2,0,2.1,0.4,3H439.9z M435.7,29.9v7.5h1.5c1.4,0,2.3-0.6,2.3-2.6v-2.4
		c0-1.7-0.6-2.5-2-2.5H435.7z"/>
	<path class="st2" d="M451.1,26.2c3.7,0,5.7,2.2,5.7,6.2v0.8h-3.6v-1c0-1.7-0.7-2.4-1.9-2.4c-1.2,0-1.9,0.7-1.9,2.4
		c0,5,7.5,6,7.5,13c0,3.9-2,6.2-5.7,6.2s-5.7-2.2-5.7-6.2v-1.5h3.6v1.7c0,1.7,0.8,2.4,2,2.4c1.2,0,2-0.6,2-2.4c0-5-7.5-6-7.5-13
		C445.4,28.4,447.3,26.2,451.1,26.2z"/>
	<path class="st2" d="M458.6,32.3c0-3.9,2.1-6.2,5.8-6.2s5.8,2.2,5.8,6.2V45c0,3.9-2.1,6.2-5.8,6.2s-5.8-2.2-5.8-6.2V32.3z
		 M462.5,45.3c0,1.7,0.8,2.4,2,2.4c1.2,0,2-0.7,2-2.4V32.1c0-1.7-0.8-2.4-2-2.4c-1.2,0-2,0.7-2,2.4V45.3z"/>
	<path class="st2" d="M476.2,33.2v17.7h-3.5V26.4h4.8l4,14.7V26.4h3.4v24.5h-4L476.2,33.2z"/>
	<path class="st2" d="M493.2,26.4h3.8v21h6.3v3.5h-10.2V26.4z"/>
	<path class="st2" d="M505,26.4h3.8v24.5H505V26.4z"/>
	<path class="st2" d="M523.2,32.1v0.9c0,2.5-0.8,4.1-2.5,4.9c2.1,0.8,2.9,2.7,2.9,5.2v2c0,3.8-2,5.8-5.8,5.8h-6V26.4h5.8
		C521.4,26.4,523.2,28.3,523.2,32.1z M515.5,29.9v6.5h1.5c1.4,0,2.3-0.6,2.3-2.6v-1.4c0-1.7-0.6-2.5-2-2.5H515.5z M515.5,39.9v7.5
		h2.2c1.3,0,2-0.6,2-2.4v-2.1c0-2.3-0.7-3-2.5-3H515.5z"/>
	<path class="st2" d="M533.9,50.9c-0.2-0.6-0.3-1-0.3-3v-3.8c0-2.3-0.8-3.1-2.5-3.1h-1.3v10h-3.8V26.4h5.8c4,0,5.7,1.9,5.7,5.6V34
		c0,2.5-0.8,4.2-2.5,5c1.9,0.8,2.6,2.7,2.6,5.2V48c0,1.2,0,2.1,0.4,3H533.9z M529.7,29.9v7.5h1.5c1.4,0,2.3-0.6,2.3-2.6v-2.4
		c0-1.7-0.6-2.5-2-2.5H529.7z"/>
	<path class="st2" d="M552.4,50.9h-3.9l-0.7-4.4h-4.7l-0.7,4.4h-3.5l3.9-24.5h5.6L552.4,50.9z M543.6,43.2h3.7l-1.9-12.4L543.6,43.2
		z"/>
	<path class="st2" d="M562.2,50.9c-0.2-0.6-0.3-1-0.3-3v-3.8c0-2.3-0.8-3.1-2.5-3.1H558v10h-3.8V26.4h5.8c4,0,5.7,1.9,5.7,5.6V34
		c0,2.5-0.8,4.2-2.5,5c1.9,0.8,2.6,2.7,2.6,5.2V48c0,1.2,0,2.1,0.4,3H562.2z M558,29.9v7.5h1.5c1.4,0,2.3-0.6,2.3-2.6v-2.4
		c0-1.7-0.6-2.5-2-2.5H558z"/>
	<path class="st2" d="M571.5,42.8l-4.9-16.4h4l2.9,11.2l2.9-11.2h3.7l-4.9,16.4v8.1h-3.8V42.8z"/>
</g>
<g id="XMLID_4_" class="st0">
	<path class="st2" d="M390.5,64h6.3c4,0,5.9,2.2,5.9,6.3v12.8c0,4.1-2,6.3-5.9,6.3h-6.3V64z M394.4,67.7v18.1h2.2c1.3,0,2-0.7,2-2.5
		V70.1c0-1.8-0.8-2.5-2-2.5H394.4z"/>
	<path class="st2" d="M405.2,64h4v25.4h-4V64z"/>
	<path class="st2" d="M418.1,75.3h5.6v8.1c0,4.1-2,6.4-5.9,6.4c-3.9,0-5.9-2.3-5.9-6.4V70.1c0-4.1,2-6.4,5.9-6.4
		c3.9,0,5.9,2.3,5.9,6.4v2.5h-3.8v-2.7c0-1.8-0.8-2.5-2.1-2.5s-2.1,0.7-2.1,2.5v13.7c0,1.8,0.8,2.5,2.1,2.5s2.1-0.7,2.1-2.5v-4.7
		h-1.8V75.3z"/>
	<path class="st2" d="M426.3,64h4v25.4h-4V64z"/>
	<path class="st2" d="M432,64h12.3v3.6h-4.2v21.8h-4V67.7H432V64z"/>
	<path class="st2" d="M457.6,89.4h-4l-0.7-4.6H448l-0.7,4.6h-3.7l4.1-25.4h5.8L457.6,89.4z M448.5,81.4h3.8l-1.9-12.8L448.5,81.4z"
		/>
	<path class="st2" d="M459.5,64h4v21.8h6.6v3.6h-10.6V64z"/>
	<path class="st2" d="M485.8,82.1l2.7-18h5.5v25.4h-3.8V71.2l-2.8,18.2h-3.8l-3-18v18h-3.5V64h5.5L485.8,82.1z"/>
	<path class="st2" d="M501,74.7h5.5v3.6H501v7.4h6.9v3.6H497V64h10.9v3.6H501V74.7z"/>
	<path class="st2" d="M510.3,64h6.3c4,0,5.9,2.2,5.9,6.3v12.8c0,4.1-2,6.3-5.9,6.3h-6.3V64z M514.3,67.7v18.1h2.2c1.3,0,2-0.7,2-2.5
		V70.1c0-1.8-0.8-2.5-2-2.5H514.3z"/>
	<path class="st2" d="M525.1,64h4v25.4h-4V64z"/>
	<path class="st2" d="M544.9,89.4h-4l-0.7-4.6h-4.9l-0.7,4.6H531L535,64h5.8L544.9,89.4z M535.8,81.4h3.8l-1.9-12.8L535.8,81.4z"/>
	<path class="st2" d="M556.4,74.7h5.5v3.6h-5.5v7.4h6.9v3.6h-10.9V64h10.9v3.6h-6.9V74.7z"/>
	<path class="st2" d="M579.1,64l-4.2,12.3l4.5,13.1h-4.2l-3.3-10l-3.3,10h-3.7l4.5-13.1L565.1,64h4.1l3,9.4l3.1-9.4H579.1z"/>
	<path class="st2" d="M593.2,70.3v3.3c0,4.1-2,6.3-5.9,6.3h-1.9v9.5h-4V64h5.9C591.2,64,593.2,66.2,593.2,70.3z M585.3,67.7v8.6h1.9
		c1.3,0,2-0.6,2-2.4v-3.8c0-1.8-0.7-2.4-2-2.4H585.3z"/>
	<path class="st2" d="M599,74.7h5.5v3.6H599v7.4h6.9v3.6H595V64h10.9v3.6H599V74.7z"/>
	<path class="st2" d="M616.7,89.4c-0.2-0.7-0.4-1.1-0.4-3.1v-4c0-2.4-0.8-3.2-2.6-3.2h-1.4v10.3h-4V64h6c4.1,0,5.9,1.9,5.9,5.8v2
		c0,2.6-0.8,4.3-2.6,5.2c2,0.8,2.6,2.8,2.6,5.4v3.9c0,1.2,0,2.1,0.4,3.1H616.7z M612.3,67.7v7.8h1.6c1.5,0,2.4-0.7,2.4-2.7v-2.5
		c0-1.8-0.6-2.6-2-2.6H612.3z"/>
	<path class="st2" d="M622.9,64h4v25.4h-4V64z"/>
	<path class="st2" d="M633.8,74.7h5.5v3.6h-5.5v7.4h6.9v3.6h-10.9V64h10.9v3.6h-6.9V74.7z"/>
	<path class="st2" d="M646.7,71v18.4h-3.6V64h5l4.1,15.2V64h3.6v25.4h-4.1L646.7,71z"/>
	<path class="st2" d="M670.2,80v3.4c0,4.1-2,6.4-5.9,6.4c-3.9,0-5.9-2.3-5.9-6.4V70.1c0-4.1,2-6.4,5.9-6.4c3.9,0,5.9,2.3,5.9,6.4
		v2.5h-3.8v-2.7c0-1.8-0.8-2.5-2.1-2.5s-2.1,0.7-2.1,2.5v13.7c0,1.8,0.8,2.5,2.1,2.5s2.1-0.7,2.1-2.5V80H670.2z"/>
	<path class="st2" d="M676.6,74.7h5.5v3.6h-5.5v7.4h6.9v3.6h-10.9V64h10.9v3.6h-6.9V74.7z"/>
</g>
</svg>
