<?xml version="1.0" encoding="utf-8"?>
<!-- Generator: Adobe Illustrator 23.0.2, SVG Export Plug-In . SVG Version: 6.00 Build 0)  -->
<svg version="1.1" id="Layer_1" xmlns="http://www.w3.org/2000/svg" xmlns:xlink="http://www.w3.org/1999/xlink" x="0px" y="0px"
	 viewBox="0 0 478.9 478.9" style="enable-background:new 0 0 478.9 478.9;" xml:space="preserve">
<style type="text/css">
	.st0{clip-path:url(#SVGID_2_);}
	.st1{fill:#F17633;}
	.st2{fill:none;}
	.st3{fill:#EABD88;}
	.st4{fill:#010202;}
	.st5{fill:#F0DCD5;}
	.st6{fill:#33475B;}
	.st7{fill:#FFFFFF;}
	.st8{fill:#E0BAAB;}
	.st9{fill:#686868;}
</style>
<g id="Idle_10_">
	<g>
		<g>
			<defs>
				<circle id="SVGID_1_" cx="240.3" cy="251.7" r="226.4"/>
			</defs>
			<clipPath id="SVGID_2_">
				<use xlink:href="#SVGID_1_"  style="overflow:visible;"/>
			</clipPath>
			<g class="st0">
				<g>
					<path class="st1" d="M225.8,288.2h29c65.6,0,118.7,53.2,118.7,118.7v91H107.1v-91C107.1,341.4,160.2,288.2,225.8,288.2z"/>
					<path d="M373.5,501.8H107.1c-2.1,0-3.8-1.7-3.8-3.8v-91c0-67.6,55-122.5,122.5-122.5h29c67.6,0,122.5,55,122.5,122.5v91
						C377.3,500.1,375.6,501.8,373.5,501.8z M110.8,494.2h258.9V407c0-63.4-51.6-115-115-115h-29c-63.4,0-115,51.6-115,115V494.2z"
						/>
				</g>
				<g>
					<g>
						<g>
							<line class="st2" x1="173.8" y1="498" x2="173.8" y2="434.8"/>
							<path d="M173.8,501.8c-2.1,0-3.8-1.7-3.8-3.8v-63.2c0-2.1,1.7-3.8,3.8-3.8c2.1,0,3.8,1.7,3.8,3.8V498
								C177.6,500.1,175.9,501.8,173.8,501.8z"/>
						</g>
					</g>
					<g>
						<g>
							<line class="st2" x1="306.8" y1="498" x2="306.8" y2="434.8"/>
							<path d="M306.8,501.8c-2.1,0-3.8-1.7-3.8-3.8v-63.2c0-2.1,1.7-3.8,3.8-3.8c2.1,0,3.8,1.7,3.8,3.8V498
								C310.6,500.1,308.9,501.8,306.8,501.8z"/>
						</g>
					</g>
				</g>
			</g>
		</g>
	</g>
</g>
<g id="Avatar_10">
	<g>
		<g>
			<path class="st3" d="M239.4,318.4L239.4,318.4c-47.7,0-86.3-38.7-86.3-86.3v-43.9c0-47.7,38.7-86.3,86.3-86.3h0
				c47.7,0,86.3,38.7,86.3,86.3v43.9C325.8,279.7,287.1,318.4,239.4,318.4z"/>
			<path class="st4" d="M239.4,322.2c-49.7,0-90.1-40.4-90.1-90.1v-43.9c0-49.7,40.4-90.1,90.1-90.1c49.7,0,90.1,40.4,90.1,90.1
				v43.9C329.5,281.8,289.1,322.2,239.4,322.2z M239.4,105.6c-45.5,0-82.6,37-82.6,82.6v43.9c0,45.5,37,82.6,82.6,82.6
				c45.5,0,82.6-37,82.6-82.6v-43.9C322,142.6,284.9,105.6,239.4,105.6z"/>
		</g>
		<g>
			<path class="st5" d="M233.4,210.1l-6.8,22.3c-1.4,4.5,2,9,6.6,9h9.4"/>
			<path class="st6" d="M242.6,245.1h-9.4c-3.4,0-6.6-1.6-8.6-4.3c-2-2.8-2.6-6.2-1.6-9.5l6.8-22.3c0.6-2,2.7-3.1,4.7-2.5
				c2,0.6,3.1,2.7,2.5,4.7l-6.8,22.3c-0.3,1-0.1,2,0.5,2.8c0.6,0.8,1.5,1.3,2.5,1.3h9.4c2.1,0,3.8,1.7,3.8,3.8
				C246.4,243.4,244.7,245.1,242.6,245.1z"/>
		</g>
		<g>
			<path d="M325.7,221.8v-33.6c0-10.2-1.8-20-5-29.1c-11.9,1.3-24.4,2.1-37.2,2.1c-45.6,0-86.5-9-114.3-23.1
				C159,152.1,153,169.4,153,188.1v14.6c-16.1-7.5-27.3-23.8-27.3-42.7c0-8.3,2.1-16.1,5.9-22.8c4.7-8.4,5.2-18.6,0.6-27.1
				c-3.2-6-5-12.9-4.9-20.2c0.4-21,17.1-38.6,38-39.9c0.5,0,1-0.1,1.5-0.1c11.5-0.3,22,4.1,29.6,11.5c12.3,11.9,29.3,17.3,46.2,14.4
				c6.3-1.1,12.8-1.5,19.4-1.2c44.1,2,80.3,36.7,84.6,80.3c0.2,1.4,0.2,2.8,0.3,4.2C348.2,183.1,340,205.1,325.7,221.8z"/>
			<path d="M325.7,225.6c-0.4,0-0.9-0.1-1.3-0.2c-1.5-0.5-2.5-2-2.5-3.5v-33.6c0-8.6-1.3-17-3.9-25.1c-11.3,1.2-22.9,1.8-34.6,1.8
				c-42.9,0-83.8-8-113.1-22.1c-8.9,13.4-13.6,29.1-13.6,45.4v14.6c0,1.3-0.7,2.5-1.7,3.2c-1.1,0.7-2.5,0.8-3.6,0.2
				c-17.9-8.3-29.5-26.4-29.5-46.1c0-8.6,2.2-17.2,6.4-24.6c4.2-7.6,4.4-16.4,0.6-23.5c-3.6-6.7-5.5-14.3-5.3-22
				c0.4-23,18.7-42.1,41.5-43.6c0.5,0,1-0.1,1.6-0.1c12.3-0.4,23.8,4.1,32.4,12.5c11.6,11.2,27.2,16.1,42.9,13.4
				c6.6-1.1,13.4-1.6,20.2-1.2c45.8,2.1,83.7,38.1,88.2,83.7c0.2,1.6,0.3,3.1,0.3,4.3c1.2,24-6.7,47.2-22.2,65.3
				C327.8,225.1,326.8,225.6,325.7,225.6z M320.7,155.2c1.6,0,3,1,3.6,2.5c3.5,9.7,5.3,20,5.3,30.4v22.3c9.8-15,14.7-32.8,13.7-51.2
				c-0.1-1.1-0.1-2.5-0.3-4c-4.1-41.9-39-75-81-77c-6.3-0.3-12.5,0.1-18.6,1.1c-18.1,3.1-36.1-2.5-49.4-15.4
				c-7.2-7-16.8-10.7-26.9-10.4c-0.5,0-0.9,0-1.3,0.1c-19,1.3-34.2,17.2-34.5,36.2c-0.1,6.4,1.4,12.7,4.4,18.3
				c5.1,9.4,4.9,20.9-0.6,30.7c-3.5,6.4-5.4,13.6-5.4,21c0,14.7,7.6,28.4,19.7,36.3v-8.2c0-19,5.8-37.1,16.8-52.4
				c1.1-1.5,3.1-2,4.8-1.2c28.4,14.4,69.4,22.7,112.6,22.7c12.4,0,24.8-0.7,36.8-2C320.4,155.2,320.5,155.2,320.7,155.2z"/>
		</g>
		<path class="st7" d="M143.2,94.8c-2.1,0-3.8-1.7-3.8-3.8c0-15.7,12.8-28.5,28.5-28.5c2.1,0,3.8,1.7,3.8,3.8s-1.7,3.8-3.8,3.8
			c-11.5,0-20.9,9.4-20.9,20.9C147,93.1,145.3,94.8,143.2,94.8z"/>
		<g>
			<path class="st8" d="M153.1,190.3v39.6c-10.9,0-19.8-8.9-19.8-19.8C133.3,199.2,142.2,190.3,153.1,190.3z"/>
			<path d="M153.1,233.7c-13,0-23.6-10.6-23.6-23.6s10.6-23.6,23.6-23.6c2.1,0,3.8,1.7,3.8,3.8v39.6
				C156.9,232,155.2,233.7,153.1,233.7z M149.3,194.5c-7,1.7-12.2,8-12.2,15.5c0,7.5,5.2,13.8,12.2,15.5V194.5z"/>
		</g>
		<g>
			<path class="st8" d="M325.8,229.9v-39.6c10.9,0,19.8,8.9,19.8,19.8C345.5,221,336.7,229.9,325.8,229.9z"/>
			<path d="M325.8,233.7c-2.1,0-3.8-1.7-3.8-3.8v-39.6c0-2.1,1.7-3.8,3.8-3.8c13,0,23.6,10.6,23.6,23.6S338.8,233.7,325.8,233.7z
				 M329.5,194.5v31.1c7-1.7,12.2-8,12.2-15.5C341.8,202.6,336.6,196.3,329.5,194.5z"/>
		</g>
		<path class="st9" d="M285.6,145.8c-12.1,0-24.2-0.8-36.3-2.3c-2.1-0.3-3.5-2.2-3.3-4.2c0.3-2.1,2.1-3.5,4.2-3.3
			c21.3,2.7,42.7,2.9,63.5,0.8c2.1-0.2,3.9,1.3,4.2,3.4c0.2,2.1-1.3,3.9-3.4,4.2C305,145.3,295.3,145.8,285.6,145.8z"/>
		<path class="st9" d="M224.2,139.2c-0.3,0-0.5,0-0.8-0.1c-25.7-5.6-41.2-12.6-41.9-12.9c-1.9-0.9-2.7-3.1-1.9-5
			c0.9-1.9,3.1-2.7,5-1.9c0.2,0.1,15.5,7,40.4,12.4c2,0.4,3.3,2.5,2.9,4.5C227.6,137.9,226,139.2,224.2,139.2z"/>
		<path class="st9" d="M271.7,127.8c-32.6,0-56.4-9-57.4-9.4c-1.9-0.8-2.9-2.9-2.2-4.9c0.7-1.9,2.9-2.9,4.9-2.2
			c0.3,0.1,23.6,8.9,54.7,8.9c2.1,0,3.8,1.7,3.8,3.8S273.8,127.8,271.7,127.8z"/>
		<path class="st9" d="M308.7,116.9c-1.2,0-2.3-0.5-3.1-1.5c-0.1-0.2-15.5-20.5-42.8-20.5c-2.1,0-3.8-1.7-3.8-3.8s1.7-3.8,3.8-3.8
			c31.3,0,48.2,22.6,48.9,23.6c1.2,1.7,0.9,4.1-0.8,5.3C310.3,116.6,309.5,116.9,308.7,116.9z"/>
		<path d="M208.3,210.1c0,5.8-4.8,10.6-10.6,10.6c-5.8,0-10.6-4.8-10.6-10.6c0-5.8,4.7-10.6,10.6-10.6c1,0,2,0.1,2.9,0.4
			c-1.2,0.9-1.9,2.3-1.9,4c0,2.9,2.3,5.2,5.2,5.2c1.7,0,3.1-0.7,4.1-1.9C208.2,208.1,208.3,209,208.3,210.1z"/>
		<path d="M292,210.1c0,5.8-4.8,10.6-10.6,10.6c-5.8,0-10.6-4.8-10.6-10.6c0-5.8,4.7-10.6,10.6-10.6c1,0,2,0.1,2.9,0.4
			c-1.2,0.9-1.9,2.3-1.9,4c0,2.9,2.3,5.2,5.2,5.2c1.7,0,3.1-0.7,4.1-1.9C291.8,208.1,292,209,292,210.1z"/>
		<g>
			<path class="st3" d="M233.5,210.1l-6.8,22.3c-1.4,4.5,2,9,6.6,9h9.4"/>
			<path d="M242.7,245.1h-9.4c-3.4,0-6.6-1.6-8.6-4.3c-2-2.8-2.6-6.2-1.6-9.5l6.8-22.3c0.6-2,2.7-3.1,4.7-2.5c2,0.6,3.1,2.7,2.5,4.7
				l-6.8,22.3c-0.3,1-0.1,2,0.5,2.8s1.5,1.3,2.5,1.3h9.4c2.1,0,3.8,1.7,3.8,3.8C246.5,243.4,244.8,245.1,242.7,245.1z"/>
		</g>
	</g>
	<path class="st9" d="M183.1,190c-1.2,0-2.3-0.5-3-1.5c-1.2-1.7-0.9-4,0.8-5.3c9.8-7.3,23.3-7.7,33.6-1c1.7,1.1,2.2,3.5,1.1,5.2
		c-1.1,1.7-3.5,2.2-5.2,1.1c-7.6-5-17.6-4.7-24.9,0.8C184.7,189.7,183.9,190,183.1,190z"/>
	<path class="st9" d="M296,190c-0.8,0-1.6-0.2-2.3-0.7c-7.3-5.4-17.3-5.7-24.9-0.8c-1.7,1.1-4.1,0.6-5.2-1.1
		c-1.1-1.7-0.6-4.1,1.1-5.2c10.2-6.7,23.7-6.3,33.6,1c1.7,1.2,2,3.6,0.8,5.3C298.3,189.4,297.2,190,296,190z"/>
	<path d="M239.5,276.1c-7,0-13.9-1.8-19.9-5.2c-1.8-1-2.5-3.3-1.5-5.1c1-1.8,3.3-2.5,5.1-1.5c5,2.8,10.6,4.2,16.3,4.2
		c5.8,0,11.4-1.5,16.2-4.2c1.8-1,4.1-0.4,5.2,1.4c1,1.8,0.4,4.1-1.4,5.2C253.5,274.3,246.6,276.1,239.5,276.1z"/>
</g>
<g>
	<path d="M239.5,9c31.2,0,61.6,6.1,90.1,18.2c27.6,11.7,52.3,28.3,73.6,49.6c21.3,21.3,37.9,46,49.6,73.6
		c12.1,28.5,18.2,58.8,18.2,90.1s-6.1,61.6-18.2,90.1c-11.7,27.6-28.3,52.3-49.6,73.6c-21.3,21.3-46,37.9-73.6,49.6
		c-28.5,12.1-58.8,18.2-90.1,18.2s-61.6-6.1-90.1-18.2c-27.6-11.7-52.3-28.3-73.6-49.6c-21.3-21.3-37.9-46-49.6-73.6
		C14.1,302,8,271.7,8,240.5s6.1-61.6,18.2-90.1C37.8,122.8,54.5,98,75.8,76.8c21.3-21.3,46-37.9,73.6-49.6
		C177.9,15.1,208.2,9,239.5,9 M239.5,1C107.2,1,0,108.2,0,240.5S107.2,480,239.5,480S479,372.8,479,240.5S371.7,1,239.5,1L239.5,1z"
		/>
</g>
</svg>
