<?xml version="1.0" encoding="utf-8"?>
<!-- Generator: Adobe Illustrator 23.0.2, SVG Export Plug-In . SVG Version: 6.00 Build 0)  -->
<svg version="1.1" id="Layer_1" xmlns="http://www.w3.org/2000/svg" xmlns:xlink="http://www.w3.org/1999/xlink" x="0px" y="0px"
	 viewBox="0 0 478.9 515.4" style="enable-background:new 0 0 478.9 515.4;" xml:space="preserve">
<style type="text/css">
	.st0{clip-path:url(#SVGID_2_);}
	.st1{fill:#135197;}
	.st2{fill:none;}
	.st3{fill:#8B6556;}
	.st4{fill:#D19781;}
	.st5{fill:#E0BAAB;}
</style>
<g id="Idle_4_">
	<g>
		<g>
			<defs>
				<circle id="SVGID_1_" cx="239.1" cy="294.2" r="219.1"/>
			</defs>
			<clipPath id="SVGID_2_">
				<use xlink:href="#SVGID_1_"  style="overflow:visible;"/>
			</clipPath>
			<g class="st0">
				<g>
					<path class="st1" d="M225.1,329.6h28.1c63.5,0,114.9,51.5,114.9,114.9v88.1H110.2v-88.1C110.2,381,161.6,329.6,225.1,329.6z"/>
					<path d="M368.1,536.2H110.2c-2,0-3.7-1.6-3.7-3.7v-88.1c0-65.4,53.2-118.6,118.6-118.6h28.1c65.4,0,118.6,53.2,118.6,118.6
						v88.1C371.8,534.6,370.1,536.2,368.1,536.2z M113.8,528.9h250.6v-84.4c0-61.4-49.9-111.3-111.3-111.3h-28.1
						c-61.4,0-111.3,49.9-111.3,111.3V528.9z"/>
				</g>
				<g>
					<g>
						<g>
							<line class="st2" x1="174.8" y1="532.6" x2="174.8" y2="471.4"/>
							<path d="M174.8,536.2c-2,0-3.7-1.6-3.7-3.7v-61.2c0-2,1.6-3.7,3.7-3.7s3.7,1.6,3.7,3.7v61.2
								C178.4,534.6,176.8,536.2,174.8,536.2z"/>
						</g>
					</g>
					<g>
						<g>
							<line class="st2" x1="303.5" y1="532.6" x2="303.5" y2="471.4"/>
							<path d="M303.5,536.2c-2,0-3.7-1.6-3.7-3.7v-61.2c0-2,1.6-3.7,3.7-3.7s3.7,1.6,3.7,3.7v61.2
								C307.2,534.6,305.5,536.2,303.5,536.2z"/>
						</g>
					</g>
				</g>
			</g>
		</g>
	</g>
</g>
<g>
	<path d="M238.9,46c31.1,0,61.4,6.1,89.8,18.1c27.5,11.7,52.1,28.2,73.3,49.4c21.2,21.2,37.8,45.8,49.4,73.3
		c12.1,28.4,18.1,58.6,18.1,89.8s-6.1,61.4-18.1,89.8c-11.7,27.5-28.2,52.1-49.4,73.3c-21.2,21.2-45.8,37.8-73.3,49.4
		c-28.4,12.1-58.6,18.1-89.8,18.1s-61.4-6.1-89.8-18.1c-27.5-11.7-52.1-28.2-73.3-49.4s-37.8-45.8-49.4-73.3
		C14.4,338,8.3,307.8,8.3,276.7s6.1-61.4,18.1-89.8c11.6-27.5,28.2-52.2,49.4-73.3c21.2-21.2,45.8-37.8,73.3-49.4
		C177.6,52.1,207.8,46,238.9,46 M238.9,38.1C107.1,38.1,0.3,144.9,0.3,276.7s106.8,238.6,238.6,238.6s238.6-106.8,238.6-238.6
		S370.6,38.1,238.9,38.1L238.9,38.1z"/>
</g>
<g id="Avatar_4">
	<g>
		<path class="st3" d="M263.6,67.4c-0.9-7.8-6.9-13.7-14.3-14.8c2-3.1,3-7,2.5-11c-1.1-9.3-9.5-16-18.8-14.9c-1.8,0.2-3.4,0.7-5,1.4
			c0-0.6,0-1.1-0.1-1.7c-1.1-9.3-9.5-16-18.8-14.9c-4.6,0.5-8.6,2.9-11.3,6.2c-3.2-6-9.8-9.8-16.9-9s-12.7,6-14.4,12.6
			c-3.4-2.7-7.8-4.1-12.4-3.5c-9.3,1.1-16,9.5-14.9,18.8c0.1,0.6,0.2,1.1,0.3,1.7c-1.7-0.3-3.4-0.4-5.2-0.2
			c-9.3,1.1-16,9.5-14.9,18.8c0.5,4,2.3,7.5,4.9,10.1c-6.9,2.8-11.4,9.9-10.5,17.6s6.9,13.7,14.3,14.8c-2,3.1-3,7-2.5,11
			c1.1,9.3,9.5,16,18.8,14.9c1.8-0.2,3.4-0.7,5-1.4c0,0.6,0,1.1,0.1,1.7c1.1,9.3,9.5,16,18.8,14.9c4.6-0.5,8.6-2.9,11.3-6.2
			c3.2,6,9.8,9.8,16.9,9c7.2-0.8,12.7-6,14.4-12.6c3.4,2.7,7.8,4.1,12.4,3.5c9.3-1.1,16-9.5,14.9-18.8c-0.1-0.6-0.2-1.1-0.3-1.7
			c1.7,0.3,3.4,0.4,5.2,0.2c9.3-1.1,16-9.5,14.9-18.8c-0.5-4-2.3-7.5-4.9-10.1C259.9,82.3,264.5,75.2,263.6,67.4z"/>
		<path d="M252.3,88.6c2.5,2.8,4.1,6.4,4.3,10.4c0.5,9.3-6.7,17.3-16,17.8c-1.8,0.1-3.5-0.1-5.1-0.5c0.1,0.6,0.2,1.1,0.2,1.7
			c0.5,9.3-6.7,17.3-16,17.8c-4.7,0.3-9-1.4-12.2-4.3c-2.1,6.5-8,11.3-15.2,11.7c-7.2,0.4-13.6-3.8-16.3-10c-2.9,3.2-7,5.3-11.6,5.6
			c-9.3,0.5-17.3-6.7-17.8-16c0-0.6,0-1.2,0-1.7c-1.6,0.6-3.3,1-5.1,1.1c-8.9,0.5-16.5-6-17.7-14.6c3.2-3.5,7.9-5.5,13-5.2
			c1.5,0.1,2.8,0.4,4.2,0.8c-0.3-1.4-0.4-2.8-0.3-4.2c0.5-9,8.3-15.9,17.3-15.3c3.1,0.2,6,1.3,8.4,3c0-0.4,0-0.9,0-1.3
			c0.5-9,8.3-15.9,17.3-15.3c4.1,0.2,7.8,2,10.6,4.8c1.8-7.6,8.8-13,16.9-12.5c5.7,0.3,10.6,3.6,13.2,8.2c2.8-5.8,8.9-9.7,15.7-9.3
			c6.8,0.4,12.4,5,14.5,11.1c2-2.7,4.9-4.8,8.2-5.8c0.7,1.7,1.1,3.4,1.1,5.3C264.3,79.5,259.4,86.3,252.3,88.6z"/>
		<path d="M194.5,147c-6,0-11.7-2.6-15.6-7.1c-3,2.3-6.5,3.8-10.3,4.2c-10.4,1.2-19.9-5.6-22.3-15.5c-0.5,0.1-1,0.2-1.5,0.2
			c-11.3,1.3-21.5-6.8-22.8-18.1c-0.3-3,0-6.1,1-9c-6.9-2.8-11.9-9.1-12.7-16.7c-0.9-7.6,2.6-14.9,8.6-19.2c-1.6-2.6-2.7-5.5-3-8.6
			c-0.6-5.5,0.9-10.8,4.3-15.2c3.4-4.3,8.3-7,13.8-7.7c0.5-0.1,1-0.1,1.5-0.1c0.2-10.2,7.9-18.9,18.2-20.1c3.8-0.4,7.6,0.2,11,1.8
			c3.1-5.9,9-10,15.9-10.8c6.8-0.8,13.5,1.9,17.9,7c3-2.3,6.5-3.8,10.3-4.2c5.5-0.6,10.8,0.9,15.2,4.3c3.6,2.9,6.1,6.8,7.2,11.2
			c0.5-0.1,1-0.2,1.5-0.2c11.3-1.3,21.5,6.8,22.8,18.1c0.4,3,0,6.1-1,9c6.9,2.8,11.9,9.1,12.7,16.7c0.9,7.6-2.6,14.9-8.6,19.2
			c1.6,2.6,2.7,5.5,3,8.6c1.3,11.3-6.8,21.5-18.1,22.8c-0.5,0.1-1,0.1-1.5,0.1c-0.2,10.2-7.9,18.9-18.2,20.1
			c-3.8,0.4-7.6-0.2-11-1.8c-3.1,5.9-9.1,10.1-15.8,10.8C196.1,146.9,195.3,147,194.5,147z M179.5,130.6c0.1,0,0.2,0,0.4,0
			c1.2,0.1,2.3,0.9,2.9,1.9c2.6,4.9,7.8,7.7,13.3,7c5.5-0.6,9.9-4.5,11.3-9.9c0.3-1.2,1.2-2.2,2.4-2.6c1.2-0.4,2.5-0.2,3.4,0.6
			c2.8,2.2,6.2,3.2,9.7,2.8c7.3-0.8,12.5-7.4,11.7-14.7c-0.1-0.4-0.1-0.9-0.2-1.3c-0.3-1.2,0.1-2.5,1-3.3c0.9-0.9,2.1-1.3,3.3-1
			c1.3,0.3,2.7,0.3,4.1,0.2c7.3-0.8,12.5-7.4,11.7-14.7c-0.3-3-1.7-5.8-3.9-7.9c-0.9-0.9-1.3-2.1-1-3.3c0.2-1.2,1.1-2.2,2.2-2.7
			c5.5-2.2,8.9-7.9,8.3-13.8c0,0,0,0,0,0c-0.7-5.9-5.3-10.7-11.2-11.6c-1.2-0.2-2.3-1-2.8-2.1c-0.5-1.1-0.4-2.4,0.2-3.5
			c1.6-2.6,2.3-5.6,2-8.6c-0.8-7.3-7.4-12.5-14.7-11.7c-1.4,0.2-2.7,0.5-3.9,1.1c-1.1,0.5-2.4,0.4-3.5-0.3c-1-0.7-1.7-1.8-1.7-3
			c0-0.5,0-0.9-0.1-1.4c-0.4-3.5-2.2-6.7-4.9-8.9c-2.8-2.2-6.2-3.2-9.8-2.8c-3.5,0.4-6.6,2.1-8.8,4.9c-0.8,1-2,1.5-3.2,1.4
			c-1.2-0.1-2.3-0.9-2.9-1.9c-2.6-4.9-7.8-7.7-13.3-7c-5.5,0.6-9.9,4.5-11.3,9.9c-0.3,1.2-1.2,2.2-2.4,2.6c-1.2,0.4-2.5,0.2-3.4-0.6
			c-2.8-2.2-6.2-3.2-9.7-2.8c-7.3,0.8-12.5,7.4-11.7,14.7c0.1,0.5,0.1,0.9,0.2,1.3c0.3,1.2-0.1,2.5-1,3.3c-0.9,0.9-2.1,1.3-3.3,1
			c-1.3-0.3-2.7-0.3-4.1-0.2c-3.5,0.4-6.7,2.2-8.9,4.9c-2.2,2.8-3.2,6.2-2.8,9.8c0.3,3,1.7,5.8,3.9,7.9c0.9,0.9,1.3,2.1,1,3.3
			c-0.2,1.2-1.1,2.2-2.2,2.7c-5.5,2.2-8.9,7.9-8.3,13.8c0.7,5.9,5.3,10.7,11.2,11.6c1.2,0.2,2.3,1,2.8,2.1c0.5,1.1,0.4,2.4-0.2,3.5
			c-1.6,2.6-2.3,5.6-2,8.6c0.8,7.3,7.4,12.5,14.7,11.7c1.4-0.2,2.7-0.5,3.9-1.1c1.1-0.5,2.4-0.4,3.5,0.3c1,0.7,1.7,1.8,1.7,3
			c0,0.4,0,0.9,0.1,1.4c0.8,7.3,7.4,12.5,14.7,11.7c3.5-0.4,6.6-2.1,8.8-4.9C177.3,131.1,178.4,130.6,179.5,130.6z"/>
		<g>
			<path class="st3" d="M373.1,195c0-7.1-4.6-13.2-11-15.4c3.6-3,5.9-7.5,5.9-12.6c0-8.5-6.5-15.5-14.7-16.3
				c1.8-2.6,2.8-5.7,2.8-9.1c0-9-7.3-16.4-16.4-16.4c-1.5,0-2.9,0.2-4.2,0.6c0.4-1.3,0.6-2.7,0.6-4.2c0-9-7.3-16.4-16.4-16.4
				c-3.2,0-6.1,0.9-8.6,2.4c0-0.4,0.1-0.9,0.1-1.3c0-9-7.3-16.4-16.4-16.4c-4.2,0-7.9,1.6-10.8,4.1c-1.4-7.7-8-13.5-16.1-13.5
				c-5.7,0-10.8,3-13.7,7.4c-2.4-6-8.3-10.2-15.2-10.2c-6.9,0-12.7,4.2-15.2,10.2c-2.9-4.5-8-7.4-13.7-7.4
				c-8.1,0-14.7,5.8-16.1,13.5c-2.9-2.6-6.7-4.1-10.8-4.1c-9,0-16.4,7.3-16.4,16.4c0,0.4,0,0.9,0.1,1.3c-2.5-1.5-5.4-2.4-8.6-2.4
				c-9,0-16.4,7.3-16.4,16.4c0,1.5,0.2,2.9,0.6,4.2c-1.3-0.4-2.7-0.6-4.2-0.6c-9,0-16.4,7.3-16.4,16.4c0,3.4,1,6.5,2.8,9.1
				c-8.3,0.8-14.7,7.8-14.7,16.3c0,5.1,2.3,9.6,5.9,12.6c-6.4,2.2-11,8.3-11,15.4c0,7.1,4.6,13.2,11,15.4c-3.6,3-5.9,7.5-5.9,12.6
				c0,8.5,6.5,15.5,14.7,16.3c-1.8,2.6-2.8,5.7-2.8,9.1c0,9,7.3,16.4,16.4,16.4c1.5,0,2.9-0.2,4.2-0.6c-0.4,1.3-0.6,2.7-0.6,4.2
				c0,9,7.3,16.4,16.4,16.4c3.2,0,6.1-0.9,8.6-2.4c0,0.4-0.1,0.9-0.1,1.3c0,9,7.3,16.4,16.4,16.4c4.2,0,7.9-1.6,10.8-4.1
				c1.4,7.7,8,13.5,16.1,13.5c5.7,0,10.8-3,13.7-7.4c2.4,6,8.3,10.2,15.2,10.2c6.9,0,12.7-4.2,15.2-10.2c2.9,4.5,8,7.4,13.7,7.4
				c8.1,0,14.7-5.8,16.1-13.5c2.9,2.6,6.7,4.1,10.8,4.1c9,0,16.4-7.3,16.4-16.4c0-0.4,0-0.9-0.1-1.3c2.5,1.5,5.4,2.4,8.6,2.4
				c9,0,16.4-7.3,16.4-16.4c0-1.5-0.2-2.9-0.6-4.2c1.3,0.4,2.7,0.6,4.2,0.6c9,0,16.4-7.3,16.4-16.4c0-3.4-1-6.5-2.8-9.1
				c8.3-0.8,14.7-7.8,14.7-16.3c0-5.1-2.3-9.6-5.9-12.6C368.6,208.2,373.1,202.2,373.1,195z"/>
			<path d="M239.1,315.9c-6.3,0-12-2.9-15.8-7.7c-3.6,3.1-8.2,4.9-13.1,4.9c-7.9,0-14.8-4.6-18.1-11.4c-2.7,1.3-5.7,2.1-8.8,2.1
				c-9.6,0-17.7-6.9-19.6-15.9c-1.7,0.5-3.5,0.7-5.3,0.7c-11,0-20-9-20-20c-11,0-20-9-20-20c0-2.3,0.4-4.5,1.1-6.6
				c-7.7-2.8-13.1-10.2-13.1-18.8c0-4.2,1.3-8.2,3.7-11.5c-5.3-3.7-8.7-9.8-8.7-16.5s3.3-12.8,8.7-16.5c-2.4-3.3-3.7-7.4-3.7-11.5
				c0-8.6,5.4-16,13.1-18.8c-0.7-2.1-1.1-4.3-1.1-6.6c0-11,9-20,20-20c0-11,9-20,20-20c1.8,0,3.6,0.2,5.3,0.7
				c1.9-9.1,10-15.9,19.6-15.9c3.1,0,6.1,0.7,8.8,2.1c3.2-6.9,10.2-11.4,18.1-11.4c4.9,0,9.5,1.8,13.1,4.9c3.7-4.8,9.5-7.7,15.8-7.7
				s12,2.9,15.8,7.7c3.6-3.1,8.2-4.9,13.1-4.9c7.9,0,14.8,4.6,18.1,11.4c2.7-1.3,5.7-2.1,8.8-2.1c9.6,0,17.7,6.9,19.6,15.9
				c1.7-0.5,3.5-0.7,5.3-0.7c11,0,20,9,20,20c11,0,20,9,20,20c0,2.3-0.4,4.5-1.1,6.6c7.7,2.8,13.1,10.2,13.1,18.8
				c0,4.2-1.3,8.2-3.7,11.5c5.3,3.7,8.7,9.8,8.7,16.5s-3.3,12.8-8.7,16.5c2.4,3.3,3.7,7.4,3.7,11.5c0,8.6-5.4,16-13.1,18.8
				c0.7,2.1,1.1,4.3,1.1,6.6c0,11-9,20-20,20c0,11-9,20-20,20c-1.8,0-3.6-0.2-5.3-0.7c-1.9,9.1-10,15.9-19.6,15.9
				c-3.1,0-6.1-0.7-8.8-2.1c-3.2,6.9-10.2,11.4-18.1,11.4c-4.9,0-9.5-1.8-13.1-4.9C251.2,313,245.4,315.9,239.1,315.9z M224,298.4
				c0.1,0,0.2,0,0.4,0c1.4,0.1,2.5,1,3,2.3c2,4.8,6.6,7.9,11.8,7.9c5.2,0,9.8-3.1,11.8-7.9c0.5-1.3,1.7-2.1,3-2.3
				c1.4-0.1,2.7,0.5,3.4,1.6c2.4,3.6,6.3,5.8,10.6,5.8c6.2,0,11.4-4.4,12.5-10.5c0.2-1.3,1.2-2.4,2.4-2.8c1.3-0.4,2.6-0.2,3.6,0.7
				c2.3,2.1,5.3,3.2,8.4,3.2c7,0,12.7-5.7,12.7-12.7c0-0.3,0-0.7-0.1-1c-0.1-1.4,0.6-2.7,1.7-3.4c1.2-0.7,2.7-0.7,3.8,0
				c2,1.2,4.3,1.9,6.7,1.9c7,0,12.7-5.7,12.7-12.7c0-1.1-0.1-2.2-0.4-3.3c-0.3-1.3,0-2.6,1-3.5c0.9-0.9,2.3-1.3,3.5-0.9
				c1.1,0.3,2.2,0.4,3.3,0.4c7,0,12.7-5.7,12.7-12.7c0-2.5-0.7-5-2.2-7.1c-0.7-1.1-0.8-2.4-0.3-3.6c0.5-1.2,1.7-2,2.9-2.1
				c6.5-0.7,11.4-6.1,11.4-12.6c0-3.8-1.7-7.4-4.6-9.8c-1-0.8-1.5-2.2-1.3-3.5c0.2-1.3,1.1-2.4,2.4-2.8c5.1-1.8,8.5-6.6,8.5-12
				c0-5.4-3.4-10.2-8.5-12c-1.2-0.4-2.2-1.5-2.4-2.8c-0.2-1.3,0.3-2.6,1.3-3.5c2.9-2.4,4.6-6,4.6-9.8c0-6.6-4.9-12-11.4-12.6
				c-1.3-0.1-2.4-0.9-2.9-2.1c-0.5-1.2-0.4-2.5,0.3-3.6c1.4-2.1,2.2-4.5,2.2-7.1c0-7-5.7-12.7-12.7-12.7c-1.1,0-2.2,0.1-3.3,0.4
				c-1.3,0.3-2.6,0-3.5-0.9c-0.9-0.9-1.3-2.3-1-3.5c0.3-1.1,0.4-2.2,0.4-3.3c0-7-5.7-12.7-12.7-12.7c-2.3,0-4.6,0.7-6.7,1.9
				c-1.2,0.7-2.7,0.7-3.8,0c-1.2-0.7-1.9-2-1.7-3.4c0-0.3,0.1-0.7,0.1-1c0-7-5.7-12.7-12.7-12.7c-3.1,0-6.1,1.1-8.4,3.2
				c-1,0.9-2.4,1.1-3.6,0.7c-1.3-0.4-2.2-1.5-2.4-2.8c-1.1-6.1-6.3-10.5-12.5-10.5c-4.3,0-8.3,2.2-10.6,5.8
				c-0.7,1.1-2.1,1.8-3.4,1.6c-1.4-0.1-2.5-1-3-2.3c-2-4.8-6.6-7.9-11.8-7.9c-5.2,0-9.8,3.1-11.8,7.9c-0.5,1.3-1.7,2.1-3,2.3
				c-1.4,0.1-2.7-0.5-3.4-1.6c-2.4-3.6-6.3-5.8-10.6-5.8c-6.2,0-11.4,4.4-12.5,10.5c-0.2,1.3-1.1,2.4-2.4,2.8
				c-1.2,0.4-2.6,0.2-3.6-0.7c-2.3-2.1-5.3-3.2-8.4-3.2c-7,0-12.7,5.7-12.7,12.7c0,0.3,0,0.7,0.1,1c0.1,1.4-0.6,2.7-1.7,3.4
				c-1.2,0.7-2.7,0.7-3.8,0c-2-1.2-4.3-1.9-6.7-1.9c-7,0-12.7,5.7-12.7,12.7c0,1.1,0.1,2.2,0.4,3.3c0.3,1.3,0,2.6-1,3.5
				c-0.9,0.9-2.3,1.3-3.5,0.9c-1.1-0.3-2.2-0.4-3.3-0.4c-7,0-12.7,5.7-12.7,12.7c0,2.5,0.7,5,2.2,7.1c0.7,1.1,0.8,2.4,0.3,3.6
				c-0.5,1.2-1.7,2-2.9,2.1c-6.5,0.7-11.4,6.1-11.4,12.6c0,3.8,1.7,7.4,4.6,9.8c1,0.8,1.5,2.2,1.3,3.5c-0.2,1.3-1.1,2.4-2.4,2.8
				c-5.1,1.8-8.5,6.6-8.5,12c0,5.4,3.4,10.2,8.5,12c1.2,0.4,2.2,1.5,2.4,2.8c0.2,1.3-0.3,2.6-1.3,3.5c-2.9,2.4-4.6,6-4.6,9.8
				c0,6.6,4.9,12,11.4,12.6c1.3,0.1,2.4,0.9,2.9,2.1c0.5,1.2,0.4,2.5-0.3,3.6c-1.4,2.1-2.2,4.5-2.2,7.1c0,7,5.7,12.7,12.7,12.7
				c1.1,0,2.2-0.1,3.3-0.4c1.3-0.3,2.6,0,3.5,0.9c0.9,0.9,1.3,2.3,1,3.5c-0.3,1.1-0.4,2.2-0.4,3.3c0,7,5.7,12.7,12.7,12.7
				c2.3,0,4.6-0.7,6.7-1.9c1.2-0.7,2.7-0.7,3.8,0c1.2,0.7,1.9,2,1.7,3.4c0,0.3-0.1,0.7-0.1,1c0,7,5.7,12.7,12.7,12.7
				c3.1,0,6.1-1.1,8.4-3.2c1-0.9,2.4-1.1,3.6-0.7c1.2,0.4,2.2,1.5,2.4,2.8c1.1,6.1,6.3,10.5,12.5,10.5c4.3,0,8.3-2.2,10.6-5.8
				C221.6,299,222.8,298.4,224,298.4z"/>
		</g>
		<g>
			<g>
				<circle class="st4" cx="322.6" cy="271.5" r="19.1"/>
				<path d="M322.6,294.3c-12.6,0-22.8-10.2-22.8-22.8c0-12.6,10.2-22.8,22.8-22.8c12.6,0,22.8,10.2,22.8,22.8
					C345.4,284.1,335.2,294.3,322.6,294.3z M322.6,256c-8.5,0-15.5,6.9-15.5,15.5c0,8.5,6.9,15.5,15.5,15.5
					c8.5,0,15.5-6.9,15.5-15.5C338.1,263,331.1,256,322.6,256z"/>
			</g>
			<g>
				<circle class="st4" cx="155.7" cy="271.5" r="19.1"/>
				<path d="M155.7,294.3c-12.6,0-22.8-10.2-22.8-22.8c0-12.6,10.2-22.8,22.8-22.8s22.8,10.2,22.8,22.8
					C178.5,284.1,168.3,294.3,155.7,294.3z M155.7,256c-8.5,0-15.5,6.9-15.5,15.5c0,8.5,6.9,15.5,15.5,15.5s15.5-6.9,15.5-15.5
					C171.2,263,164.2,256,155.7,256z"/>
			</g>
			<g>
				<path class="st4" d="M239.2,358L239.2,358c-46.2,0-83.6-37.4-83.6-83.6v-42.5c0-46.2,37.4-83.6,83.6-83.6h0
					c46.2,0,83.6,37.4,83.6,83.6v42.5C322.8,320.5,285.4,358,239.2,358z"/>
				<path d="M239.2,361.6c-48.1,0-87.2-39.1-87.2-87.2v-42.5c0-48.1,39.1-87.2,87.2-87.2s87.2,39.1,87.2,87.2v42.5
					C326.5,322.5,287.3,361.6,239.2,361.6z M239.2,152c-44.1,0-79.9,35.8-79.9,79.9v42.5c0,44.1,35.8,79.9,79.9,79.9
					s79.9-35.8,79.9-79.9v-42.5C319.1,187.8,283.3,152,239.2,152z"/>
			</g>
			<g>
				<path class="st4" d="M233.4,253.1l-6.6,21.6c-1.3,4.3,1.9,8.7,6.4,8.7h9.1"/>
				<path d="M242.3,287h-9.1c-3.3,0-6.4-1.5-8.3-4.2c-2-2.7-2.6-6-1.6-9.2l6.6-21.6c0.6-1.9,2.6-3,4.6-2.4c1.9,0.6,3,2.6,2.4,4.6
					l-6.6,21.6c-0.3,0.9-0.1,1.9,0.5,2.7c0.6,0.8,1.5,1.2,2.4,1.2h9.1c2,0,3.7,1.6,3.7,3.7C246,285.4,244.4,287,242.3,287z"/>
			</g>
		</g>
		<g>
			<path class="st3" d="M336.9,148.2c0,9-7.3,16.4-16.4,16.4c-1.5,0-2.9-0.2-4.2-0.6c0.4,1.3,0.6,2.7,0.6,4.2
				c0,9-7.3,16.4-16.4,16.4c-3.2,0-6.1-0.9-8.6-2.4c0,0.4,0.1,0.9,0.1,1.3c0,9-7.3,16.4-16.4,16.4c-4.2,0-7.9-1.6-10.8-4.1
				c-1.4,7.7-8,13.5-16.1,13.5c-5.7,0-10.8-3-13.7-7.4c-2.4,6-8.3,10.2-15.2,10.2c-6.9,0-12.7-4.2-15.2-10.2
				c-2.9,4.5-8,7.4-13.7,7.4c-8.1,0-14.7-5.8-16.1-13.5c-2.9,2.6-6.7,4.1-10.8,4.1c-9,0-16.4-7.3-16.4-16.4c0-0.4,0-0.9,0.1-1.3
				l-0.1-40.1l51.8-36l95.4,4.7L336.9,148.2z"/>
			<path d="M219.9,215.7c-6.3,0-12-2.9-15.8-7.7c-3.6,3.1-8.2,4.9-13.1,4.9c-7.9,0-14.8-4.6-18.1-11.4c-2.7,1.3-5.7,2.1-8.8,2.1
				c-11,0-20-9-20-20c0-0.6,0-1.1,0.1-1.6c0.2-2,1.9-3.5,3.9-3.4c2,0.2,3.5,1.9,3.4,3.9c0,0.3-0.1,0.7-0.1,1c0,7,5.7,12.7,12.7,12.7
				c3.1,0,6.1-1.1,8.4-3.2c1-0.9,2.4-1.1,3.6-0.7c1.2,0.4,2.2,1.5,2.4,2.8c1.1,6.1,6.3,10.5,12.5,10.5c4.3,0,8.3-2.2,10.6-5.8
				c0.7-1.1,2.1-1.8,3.4-1.6c1.4,0.1,2.5,1,3,2.3c2,4.8,6.6,7.9,11.8,7.9c5.2,0,9.8-3.1,11.8-7.9c0.5-1.3,1.7-2.1,3-2.3
				c1.4-0.1,2.7,0.5,3.4,1.6c2.4,3.6,6.3,5.8,10.6,5.8c6.2,0,11.4-4.4,12.5-10.5c0.2-1.3,1.2-2.4,2.4-2.8c1.2-0.4,2.6-0.2,3.6,0.7
				c2.3,2.1,5.3,3.2,8.4,3.2c7,0,12.7-5.7,12.7-12.7c0-0.3,0-0.7-0.1-1c-0.1-1.4,0.6-2.7,1.7-3.4c1.2-0.7,2.7-0.7,3.8,0
				c2,1.2,4.3,1.9,6.7,1.9c7,0,12.7-5.7,12.7-12.7c0-1.1-0.1-2.2-0.4-3.3c-0.3-1.3,0-2.6,1-3.5c0.9-0.9,2.3-1.3,3.5-0.9
				c1.1,0.3,2.2,0.4,3.3,0.4c7,0,12.7-5.7,12.7-12.7c0-2,1.6-3.7,3.7-3.7c2,0,3.7,1.6,3.7,3.7c0,11-9,20-20,20c0,11-9,20-20,20
				c-1.8,0-3.6-0.2-5.3-0.7c-1.9,9.1-10,15.9-19.6,15.9c-3.1,0-6.1-0.7-8.8-2.1c-3.2,6.9-10.2,11.4-18.1,11.4
				c-4.9,0-9.5-1.8-13.1-4.9C231.9,212.8,226.2,215.7,219.9,215.7z"/>
		</g>
		<path class="st4" d="M151.1,158.2c-1.4,0-2.7-0.8-3.3-2.1c-1.6-3.3-2.1-7-1.6-10.6c1.4-9.9,10.6-16.9,20.5-15.6
			c0.8-4.7,3.3-8.9,7.2-11.8c3.9-2.9,8.8-4.2,13.7-3.5c1.5,0.2,3,0.6,4.4,1.2c3-7.8,11.2-12.8,19.8-11.6c4.4,0.6,8.5,2.9,11.4,6.3
			c1.3,1.5,1.1,3.9-0.4,5.2c-1.5,1.3-3.9,1.1-5.2-0.4c-1.8-2.1-4.2-3.4-6.9-3.8c-6.1-0.9-11.7,3.3-12.6,9.4c0,0.3-0.1,0.6-0.1,0.9
			c-0.1,1.4-0.9,2.6-2.2,3.1c-1.3,0.5-2.7,0.3-3.8-0.6c-1.6-1.3-3.5-2.2-5.5-2.5c-2.9-0.4-5.9,0.3-8.2,2.1c-2.4,1.8-3.9,4.4-4.4,7.3
			c-0.1,0.9-0.1,1.9,0,2.9c0.1,1.3-0.4,2.6-1.4,3.4c-1,0.8-2.4,0.9-3.6,0.4c-0.9-0.4-1.9-0.7-2.8-0.8c-2.9-0.4-5.9,0.3-8.2,2.1
			c-2.4,1.8-3.9,4.4-4.4,7.3c-0.3,2.2,0,4.4,1,6.4c0.9,1.8,0.1,4-1.7,4.9C152.2,158.1,151.7,158.2,151.1,158.2z"/>
		<path class="st4" d="M156.2,53.3c-0.2,0-0.4,0-0.6-0.1c-2-0.3-3.3-2.2-3-4.2c0.3-1.6,0.8-3.1,1.4-4.6c4.3-9.2,15.2-13.3,24.5-9
			c1.4,0.6,2.7,1.4,3.8,2.4c2.1-2.7,4.9-4.8,8.2-6c4.6-1.7,9.6-1.5,14.1,0.6c4.1,1.9,7.3,5.2,9.1,9.3c0.8,1.9,0,4-1.9,4.8
			c-1.9,0.8-4,0-4.8-1.9c-1.1-2.5-3-4.5-5.5-5.6c-5.6-2.6-12.2-0.1-14.8,5.4c-0.1,0.3-0.2,0.6-0.3,0.8c-0.5,1.3-1.6,2.2-3,2.4
			c-1.4,0.2-2.7-0.5-3.5-1.6c-1.1-1.7-2.7-3.1-4.6-4c-5.6-2.6-12.2-0.1-14.8,5.4c-0.4,0.8-0.7,1.8-0.8,2.8
			C159.5,52.1,158,53.3,156.2,53.3z"/>
		<path d="M251.8,185.1c-0.9,0-1.8-0.1-2.7-0.2c-4.4-0.6-8.5-2.9-11.4-6.3c-1.3-1.5-1.1-3.9,0.4-5.2c1.5-1.3,3.9-1.1,5.2,0.4
			c1.8,2.1,4.2,3.4,6.9,3.8c6.1,0.9,11.7-3.3,12.6-9.4c0-0.3,0.1-0.6,0.1-0.9c0.1-1.4,0.9-2.6,2.2-3.1c1.3-0.5,2.7-0.3,3.8,0.6
			c1.6,1.3,3.5,2.2,5.5,2.5c2.9,0.4,5.9-0.3,8.2-2.1c2.4-1.8,3.9-4.4,4.4-7.3c0.1-0.9,0.1-1.9,0-2.9c-0.2-2,1.2-3.8,3.2-4.1
			c2-0.2,3.8,1.2,4.1,3.2c0.2,1.6,0.2,3.2-0.1,4.8c-0.7,4.9-3.3,9.2-7.2,12.1c-3.9,2.9-8.8,4.2-13.7,3.5c-1.5-0.2-3-0.6-4.4-1.2
			C266.2,180.4,259.4,185.1,251.8,185.1z"/>
		<g>
			<g>
				<g>
					<g>
						<path class="st5" d="M287.7,271.7H271c-7,0-12.8-5.7-12.8-12.8v-17.7h42.3v17.7C300.5,266,294.8,271.7,287.7,271.7z"/>
						<path d="M287.7,275.3H271c-9.1,0-16.4-7.4-16.4-16.4v-17.7c0-2,1.6-3.7,3.7-3.7h42.3c2,0,3.7,1.6,3.7,3.7v17.7
							C304.1,268,296.8,275.3,287.7,275.3z M261.9,244.9v14.1c0,5,4.1,9.1,9.1,9.1h16.8c5,0,9.1-4.1,9.1-9.1v-14.1H261.9z"/>
					</g>
					<circle cx="279.3" cy="256.4" r="5.9"/>
					<g>
						<line class="st2" x1="300.5" y1="241.2" x2="322.6" y2="250.5"/>
						<path d="M322.6,254.2c-0.5,0-1-0.1-1.4-0.3l-22.1-9.3c-1.9-0.8-2.7-2.9-2-4.8c0.8-1.9,2.9-2.7,4.8-2l22.1,9.3
							c1.9,0.8,2.7,2.9,2,4.8C325.4,253.3,324,254.2,322.6,254.2z"/>
					</g>
				</g>
				<g>
					<g>
						<path class="st5" d="M206.2,271.7h-16.8c-7,0-12.8-5.7-12.8-12.8v-17.7h42.3v17.7C218.9,266,213.2,271.7,206.2,271.7z"/>
						<path d="M206.2,275.3h-16.8c-9.1,0-16.4-7.4-16.4-16.4v-17.7c0-2,1.6-3.7,3.7-3.7h42.3c2,0,3.7,1.6,3.7,3.7v17.7
							C222.6,268,215.2,275.3,206.2,275.3z M180.3,244.9v14.1c0,5,4.1,9.1,9.1,9.1h16.8c5,0,9.1-4.1,9.1-9.1v-14.1H180.3z"/>
					</g>
					<circle cx="197.8" cy="256.4" r="5.9"/>
					<g>
						<line class="st2" x1="155.7" y1="250.5" x2="176.6" y2="241.2"/>
						<path d="M155.7,254.2c-1.4,0-2.7-0.8-3.3-2.2c-0.8-1.8,0-4,1.9-4.8l21-9.3c1.9-0.8,4,0,4.8,1.9c0.8,1.8,0,4-1.9,4.8l-21,9.3
							C156.7,254.1,156.2,254.2,155.7,254.2z"/>
					</g>
				</g>
				<g>
					<line class="st2" x1="218.9" y1="241.2" x2="258.2" y2="241.2"/>
					<path d="M258.2,244.9h-39.3c-2,0-3.7-1.6-3.7-3.7c0-2,1.6-3.7,3.7-3.7h39.3c2,0,3.7,1.6,3.7,3.7
						C261.9,243.2,260.2,244.9,258.2,244.9z"/>
				</g>
			</g>
		</g>
	</g>
	<path d="M183.7,231.5c-1.1,0-2.2-0.5-2.9-1.4c-1.2-1.6-0.9-3.9,0.7-5.1c9.4-7.2,22.4-7.8,32.5-1.5c1.7,1.1,2.2,3.3,1.1,5
		c-1.1,1.7-3.3,2.2-5,1.1c-7.4-4.7-17.1-4.2-24.1,1.1C185.2,231.3,184.4,231.5,183.7,231.5z"/>
	<path d="M293.5,231.5c-0.8,0-1.6-0.2-2.2-0.8c-7-5.4-16.6-5.8-24.1-1.1c-1.7,1.1-4,0.6-5-1.1c-1.1-1.7-0.6-4,1.1-5
		c10-6.3,23.1-5.7,32.5,1.5c1.6,1.2,1.9,3.5,0.7,5.1C295.6,231.1,294.6,231.5,293.5,231.5z"/>
	<g>
		<path class="st4" d="M256.8,304.2c-5.2,2.9-11.2,4.6-17.5,4.6c-6.4,0-12.3-1.7-17.5-4.6"/>
		<path d="M239.3,312.4c-6.7,0-13.4-1.7-19.3-5c-1.8-1-2.4-3.2-1.4-5c1-1.8,3.2-2.4,5-1.4c4.8,2.7,10.2,4.1,15.7,4.1
			c5.6,0,11-1.4,15.7-4.1c1.8-1,4-0.4,5,1.4c1,1.8,0.4,4-1.4,5C252.8,310.7,246.1,312.4,239.3,312.4z"/>
	</g>
</g>
</svg>
