<?xml version="1.0" encoding="utf-8"?>
<!-- Generator: Adobe Illustrator 21.0.0, SVG Export Plug-In . SVG Version: 6.00 Build 0)  -->
<svg version="1.1" id="Layer_1" xmlns="http://www.w3.org/2000/svg" xmlns:xlink="http://www.w3.org/1999/xlink" x="0px" y="0px"
	 viewBox="0 0 873 680" style="enable-background:new 0 0 873 680;" xml:space="preserve">
<style type="text/css">
	.st0{fill:#E0E0E0;}
</style>
<path class="st0" d="M847.5,0.1H25.5c-14,0-25.4,11.4-25.4,25.4v533.8c0,14,11.4,25.4,25.4,25.4h314.6l-7.1,66.8
	c0,0.3-1.3,11.5-5.6,14.7c-4.4,3.3-33.7,5.8-33.7,5.8c-2.2,0-3.9,1.8-3.9,3.9c0,2.2,1.8,3.9,3.9,3.9H589c2.2,0,3.9-1.8,3.9-3.9
	c0-2.2-1.8-3.9-3.9-3.9c0,0-29.3-2.5-33.7-5.8c-2.9-2.2-4.4-8-5.1-11.6l-8.2-69.9h305.5c14,0,25.4-11.4,25.4-25.4V25.5
	C872.8,11.5,861.5,0.1,847.5,0.1z M848.3,520.6H24.7v-496h823.7V520.6z"/>
<g>
</g>
<g>
</g>
<g>
</g>
<g>
</g>
<g>
</g>
<g>
</g>
</svg>
