<?xml version="1.0" encoding="utf-8"?>
<!-- Generator: Adobe Illustrator 24.0.3, SVG Export Plug-In . SVG Version: 6.00 Build 0)  -->
<svg version="1.1" id="Layer_1" xmlns="http://www.w3.org/2000/svg" xmlns:xlink="http://www.w3.org/1999/xlink" x="0px" y="0px"
	 viewBox="0 0 873 680" style="enable-background:new 0 0 873 680;" xml:space="preserve">
<style type="text/css">
	.st0{fill:url(#SVGID_1_);}
	.st1{fill:url(#SVGID_2_);}
	.st2{fill:#FFFFFF;}
</style>
<linearGradient id="SVGID_1_" gradientUnits="userSpaceOnUse" x1="699.5504" y1="597.7495" x2="699.5504" y2="472.4983" gradientTransform="matrix(1 0 0 1 -263.0504 72.574)">
	<stop  offset="0" style="stop-color:#F5F5F5;stop-opacity:0"/>
	<stop  offset="1" style="stop-color:#F5F5F5"/>
</linearGradient>
<path class="st0" d="M859.7,669.8H13.3c-6.1,0-11.2-5-11.2-11.2V556.1c0-6.1,5-11.2,11.2-11.2h846.5c6.1,0,11.2,5,11.2,11.2v102.6
	C870.9,664.8,865.9,669.8,859.7,669.8z"/>
<linearGradient id="SVGID_2_" gradientUnits="userSpaceOnUse" x1="441.6" y1="10.2222" x2="441.6" y2="26.0223" gradientTransform="matrix(1 0 0 -1 0 680)">
	<stop  offset="0" style="stop-color:#F5F5F5;stop-opacity:0"/>
	<stop  offset="1" style="stop-color:#F5F5F5"/>
</linearGradient>
<path class="st1" d="M585.8,669.8H297.4c-4.4,0-7.9-3.5-7.9-7.9l0,0c0-4.4,3.5-7.9,7.9-7.9h288.4c4.4,0,7.9,3.5,7.9,7.9l0,0
	C593.7,666.2,590.2,669.8,585.8,669.8z"/>
<g>
	
		<image style="overflow:visible;opacity:8.000000e-02;enable-background:new    ;" width="870" height="560" xlink:href="E1B5EAF5B14130B7.png"  transform="matrix(1 0 0 1 1 -2)">
	</image>
	<g>
		<path class="st2" d="M542,546h305.5c14,0,11.3-11.4,11.3-25.4V25.5c-0.1-14-5.9-14.5-19.9-14.5H25.5c-14,0-11.3,0.5-11.3,14.5
			v495.1c0,14,6.8,25.4,20.8,25.4h305.1H542z M848.3,520.6H24.7v-496h823.7v496H848.3z"/>
	</g>
</g>
<g>
	<path class="st2" d="M293.7,653c-1.6,0-2.9-1.3-2.9-2.9c0-1.6,1.3-2.9,2.9-2.9c3.1-0.3,29.8-2.6,34.3-6c4.6-3.4,5.9-14.5,6-15.4
		v0.1l7.3-42.2H25.5c-13.5,0-24.4-10.9-24.4-24.4V25.5C1.1,12,12,1.1,25.5,1.1h822c13.4,0,24.3,10.9,24.4,24.4v533.8
		c0,13.5-10.9,24.4-24.4,24.4H540.8l8.4,45.3c1.2,6.3,3.1,10.4,5.5,12.2c4.5,3.4,31.2,5.7,34.2,6c1.7,0,3,1.3,3,2.9
		c0,1.6-1.3,2.9-2.9,2.9L293.7,653L293.7,653z M23.7,521.6h825.7v-498H23.7V521.6z"/>
	<path class="st2" d="M847.5,2.1c12.8,0,23.3,10.5,23.4,23.4v533.8c0,12.9-10.5,23.4-23.4,23.4H542h-2.4l0.4,2.4l8.2,44.1
		c1.3,6.5,3.2,10.8,5.9,12.8c4.6,3.5,29.7,5.8,34.7,6.2h0.1h0.1c1,0,1.9,0.9,1.9,1.9S590,652,589,652H293.7c-1,0-1.9-0.9-1.9-1.9
		s0.9-1.9,1.9-1.9h0.1h0.1c5-0.4,30.1-2.7,34.7-6.2c4.7-3.5,6.1-13.9,6.4-16l0,0l7.1-41l0.4-2.3h-2.4H25.5
		c-12.9,0-23.4-10.5-23.4-23.4V25.5c0-12.9,10.5-23.4,23.4-23.4L847.5,2.1 M22.7,522.6h2h823.6h0.1h2v-2v-496v-2h-2H24.7h-2v2v496
		V522.6 M847.5,0.1h-822c-14,0-25.4,11.4-25.4,25.4v533.8c0,14,11.4,25.4,25.4,25.4h314.6l-7.1,41c0,0.3-1.3,11.5-5.6,14.7
		c-4.4,3.3-33.7,5.8-33.7,5.8c-2.2,0-3.9,1.8-3.9,3.9c0,2.2,1.8,3.9,3.9,3.9H589c2.2,0,3.9-1.8,3.9-3.9c0-2.2-1.8-3.9-3.9-3.9
		c0,0-29.3-2.5-33.7-5.8c-2.9-2.2-4.4-8-5.1-11.6l-8.2-44.1h305.5c14,0,25.4-11.4,25.4-25.4V25.5C872.8,11.5,861.5,0.1,847.5,0.1
		L847.5,0.1z M24.7,520.6v-496h823.7v496h-0.1H24.7L24.7,520.6z"/>
</g>
<g>
	<path class="st2" d="M542,546h305.5c14,0,11.3-11.4,11.3-25.4V25.5c-0.1-14-5.9-14.5-19.9-14.5H25.5c-14,0-11.3,0.5-11.3,14.5
		v495.1c0,14,6.8,25.4,20.8,25.4h305.1H542z M848.3,520.6H24.7v-496h823.7v496H848.3z"/>
</g>
</svg>
