<?xml version="1.0" encoding="utf-8"?>
<!-- Generator: Adobe Illustrator 23.0.2, SVG Export Plug-In . SVG Version: 6.00 Build 0)  -->
<svg version="1.1" id="Layer_1" xmlns="http://www.w3.org/2000/svg" xmlns:xlink="http://www.w3.org/1999/xlink" x="0px" y="0px"
	 viewBox="0 0 495 355" style="enable-background:new 0 0 495 355;" xml:space="preserve">
<style type="text/css">
	.st0{fill:#E0E0E0;}
</style>
<g id="az1yvo.tif">
	<g>
		<path class="st0" d="M247.7,0.2c75,0,150,0,225,0c10.9,0,19.6,6.6,21.5,16.2c0.3,1.4,0.3,2.9,0.3,4.4c0,82.3,0,164.6,0,246.9
			c0,21.8,0,43.5,0,65.3c0,11.4-7.7,19.8-19,20.8c-1.9,0.2-3.8,0.1-5.7,0.1c-87.9,0-175.7,0-263.6,0c-6.5,0-13.1-0.4-19.6-0.3
			c-17.1,0.1-34.3,0.3-51.4,0.3c-37.4,0.1-74.8,0-112.2,0c-8.6,0-15.7-3-19.8-10.8c-1.7-3.2-2.4-7.1-2.4-10.7
			c-0.1-61.8-0.1-123.5-0.1-185.3c0-7.3,0.4-14.5,0.3-21.8c0-14.8-0.3-29.5-0.3-44.3C0.6,61.3,0.9,41.5,0.5,21.8
			C0.2,9,10.5,0.1,22.2,0.1c34.8,0.1,69.7,0,104.5,0C167.1,0.2,207.4,0.2,247.7,0.2z M247.6,15.5c-74.7,0-149.5,0-224.2,0
			c-5.4,0-7.4,2-7.4,7.4c0,46.6,0,93.2,0,139.7c0,55.8,0,111.7,0,167.5c0,6.5,1.7,8.3,8.2,8.3c54.9,0,109.8,0,164.7,0
			c93.6,0,187.2,0,280.9,0c1.2,0,2.4,0.1,3.6,0c3.7-0.3,5.7-2.6,5.8-6.3c0-1,0-2,0-3c0-93.3,0-186.7,0-280c0-9,0-18.1,0-27.1
			c0-3.5-1.7-5.7-4.8-6.3c-1.2-0.2-2.5-0.2-3.8-0.2C396.2,15.5,321.9,15.5,247.6,15.5z"/>
	</g>
</g>
</svg>
