<?xml version="1.0" encoding="utf-8"?>
<!-- Generator: Adobe Illustrator 24.0.3, SVG Export Plug-In . SVG Version: 6.00 Build 0)  -->
<svg version="1.1" id="Layer_1" xmlns="http://www.w3.org/2000/svg" xmlns:xlink="http://www.w3.org/1999/xlink" x="0px" y="0px"
	 viewBox="0 0 495 355" style="enable-background:new 0 0 495 355;" xml:space="preserve">
<style type="text/css">
	.st0{fill:#FFFFFF;}
</style>
<g id="az1yvo.tif_1_">
	
		<image style="overflow:visible;opacity:8.000000e-02;enable-background:new    ;" width="510" height="368" xlink:href="368141F7A2CC1589.png"  transform="matrix(1 0 0 1 -7 -8)">
	</image>
	<g>
		<g>
			<g>
				<path class="st0" d="M247.7,6.6c75,0,150,0,225,0c10.9,0,15.5-0.6,17.4,9c0.3,1.4,0.3,2.9,0.3,4.4c0,82.3,0,164.6,0,246.9
					c0,21.8,0,43.5,0,65.3c0,11.4-3.6,14.4-14.9,15.4c-1.9,0.2-3.8,0.1-5.7,0.1c-87.9,0-175.7,0-263.6,0c-6.5,0-13.1-0.4-19.6-0.3
					c-17.1,0.1-34.3,0.3-51.4,0.3c-37.4,0.1-74.8,0-112.2,0c-8.6,0-8.3-3.7-11.5-4.9c-1.7-3.2-5.4-6.8-5.4-10.4
					C6,270.6,6,208.9,6,147.1c0-7.3,0.4-14.5,0.3-21.8C6.3,110.5,6,95.8,6,81C5.9,61.3,8.5,46,8.1,26.3C7.8,13.5,18.1,4.6,29.8,4.6
					c34.8,0.1,62.1,1.9,96.9,1.9C167.1,6.6,207.4,6.6,247.7,6.6z M247.6,15.5c-74.7,0-149.5,0-224.2,0c-5.4,0-7.4,2-7.4,7.4
					c0,46.6,0,93.2,0,139.7c0,55.8,0,111.7,0,167.5c0,6.5,1.7,8.3,8.2,8.3c54.9,0,109.8,0,164.7,0c93.6,0,187.2,0,280.9,0
					c1.2,0,2.4,0.1,3.6,0c3.7-0.3,5.7-2.6,5.8-6.3c0-1,0-2,0-3c0-93.3,0-186.7,0-280c0-9,0-18.1,0-27.1c0-3.5-1.7-5.7-4.8-6.3
					c-1.2-0.2-2.5-0.2-3.8-0.2C396.2,15.5,321.9,15.5,247.6,15.5z"/>
			</g>
		</g>
	</g>
</g>
<g id="az1yvo.tif">
	<g>
		<g>
			<path class="st0" d="M97.8,353.2c-12.5,0-24.9,0-37.4,0s-24.9,0-37.4,0c-9.2,0-15.5-3.4-19.1-10.4c-1.5-2.8-2.3-6.5-2.3-10.4
				c-0.1-61.8-0.1-124.6-0.1-185.3c0-3.2,0.1-6.5,0.2-9.7c0.1-4,0.2-8.1,0.1-12.1c0-7.4-0.1-14.9-0.1-22.1C1.5,95.9,1.5,88.4,1.5,81
				c0-7.2,0-14.5,0-21.5c0-12.4,0.1-25.2-0.2-37.7C1.1,16.2,3.1,11,6.9,7.2c3.9-4,9.5-6.3,15.3-6.3c11.6,0,23.2,0,34.8,0
				s23.2,0,34.9,0c11.6,0,23.2,0,34.8,0C167.1,1,208.1,1,247.7,1h225c10.6,0,18.9,6.3,20.8,15.6c0.3,1.3,0.3,2.8,0.3,4.3V333
				c0,11-7.4,19.1-18.3,20.1c-0.8,0.1-1.7,0.1-2.8,0.1c-0.5,0-0.9,0-1.4,0s-1,0-1.4,0H206.2c-2.9,0-5.8-0.1-8.7-0.2
				s-5.8-0.2-8.8-0.2c-0.7,0-1.4,0-2.2,0c-5.7,0-11.3,0.1-17,0.1c-11.3,0.1-22.9,0.2-34.4,0.2C122.7,353.2,110.3,353.2,97.8,353.2z
				 M23.4,14.8c-5.8,0-8.1,2.4-8.1,8.1v307.2c0,6.9,2.1,9.1,9,9.1h445.6c0.4,0,0.8,0,1.2,0c0.4,0,0.8,0,1.2,0c0.4,0,0.8,0,1.3,0
				c4-0.3,6.4-2.9,6.5-7V22c0-3.9-1.9-6.4-5.4-7c-1.3-0.2-2.6-0.2-3.9-0.2H23.4z"/>
			<path class="st0" d="M22.2,1.6c10.4,0,21.8,0,34.8,0c11.6,0,23.2,0,34.9,0c11.6,0,23.2,0,34.8,0c40.4,0.1,81.4,0.1,121,0.1h225
				c10.2,0,18.3,6,20,15c0.3,1.2,0.3,2.6,0.3,4.1v246.9V333c0,10.6-7.1,18.4-17.7,19.3c-0.8,0.1-1.6,0.1-2.7,0.1c-0.5,0-0.9,0-1.4,0
				s-1,0-1.4,0H206.2c-2.9,0-5.8-0.1-8.7-0.2s-5.8-0.2-8.8-0.2c-0.7,0-1.5,0-2.2,0c-5.7,0-11.4,0.1-17.1,0.1
				c-11.3,0.1-22.9,0.2-34.3,0.2c-11.2,0-23.4,0-37.4,0c-12.5,0-24.9,0-37.4,0s-24.9,0-37.4,0c-8.9,0-14.9-3.3-18.5-10
				c-1.4-2.7-2.2-6.3-2.2-10C2.1,270.5,2.1,207.7,2.1,147c0-3.2,0.1-6.5,0.2-9.7c0.1-4,0.2-8.1,0.1-12.1c0-7.4-0.1-14.9-0.2-22.2
				c0.1-7.1,0-14.6,0-22c0-7.2,0-14.5,0-21.5c0-12.4,0.1-25.2-0.2-37.7C1.9,16.4,3.8,11.4,7.4,7.7C11.2,3.8,16.6,1.6,22.2,1.6
				 M24.2,339.9h164.7h280.9c0.4,0,0.8,0,1.2,0c0.4,0,0.8,0,1.2,0c0.5,0,0.9,0,1.3,0c4.4-0.4,7.1-3.3,7.2-7.8v-3v-280V22
				c0-4.2-2.2-7-6.1-7.8c-1.3-0.2-2.7-0.2-4-0.2h-223H23.4c-6.2,0-8.9,2.7-8.9,8.9v139.7v167.5C14.5,337.4,16.9,339.9,24.2,339.9
				 M126.7,0.1c-23.2,0-46.4,0-69.7,0c-11.6,0-23.2,0-34.8,0C10.5,0.1,0.2,9,0.5,21.8C0.9,41.5,0.6,61.3,0.7,81
				c0,14.8,0.3,29.5,0.3,44.3c0.1,7.3-0.3,14.5-0.3,21.8c0,61.8,0,123.5,0.1,185.3c0,3.6,0.7,7.5,2.4,10.7
				c4.1,7.8,11.2,10.8,19.8,10.8c24.9,0,49.9,0,74.8,0c12.5,0,24.9,0,37.4,0c17.1,0,34.3-0.2,51.4-0.3c0.7,0,1.4,0,2.2,0
				c5.8,0,11.7,0.3,17.4,0.3c87.9,0,175.7,0,263.6,0c0.9,0,1.9,0,2.8,0c1,0,1.9,0,2.9-0.1c11.3-1,19-9.4,19-20.8
				c0-21.8,0-43.5,0-65.3c0-82.3,0-164.6,0-246.9c0-1.5,0-3-0.3-4.4c-1.9-9.6-10.6-16.2-21.5-16.2c-75,0-150,0-225,0
				C207.4,0.2,167.1,0.2,126.7,0.1L126.7,0.1z M24.2,338.4c-6.5,0-8.2-1.8-8.2-8.3c0-55.8,0-111.7,0-167.5c0-46.5,0-93.1,0-139.7
				c0-5.4,2-7.4,7.4-7.4c74.7,0,149.5,0,224.2,0c74.3,0,148.6,0,223,0c1.3,0,2.6,0,3.8,0.2c3.1,0.6,4.8,2.8,4.8,6.3
				c0,9,0,18.1,0,27.1c0,93.3,0,186.7,0,280c0,1,0,2,0,3c-0.1,3.7-2.1,6-5.8,6.3c-0.4,0-0.8,0-1.2,0c-0.8,0-1.6,0-2.4,0
				c-93.7,0-187.3,0-280.9,0C134,338.4,79.1,338.4,24.2,338.4L24.2,338.4z"/>
		</g>
	</g>
</g>
<g id="az1yvo.tif_2_">
	<g>
		<g>
			<path class="st0" d="M247.7,6.6c75,0,150,0,225,0c10.9,0,15.5-0.6,17.4,9c0.3,1.4,0.3,2.9,0.3,4.4c0,82.3,0,164.6,0,246.9
				c0,21.8,0,43.5,0,65.3c0,11.4-3.6,14.4-14.9,15.4c-1.9,0.2-3.8,0.1-5.7,0.1c-87.9,0-175.7,0-263.6,0c-6.5,0-13.1-0.4-19.6-0.3
				c-17.1,0.1-34.3,0.3-51.4,0.3c-37.4,0.1-74.8,0-112.2,0c-8.6,0-8.3-3.7-11.5-4.9c-1.7-3.2-5.4-6.8-5.4-10.4
				C6,270.6,6,208.9,6,147.1c0-7.3,0.4-14.5,0.3-21.8C6.3,110.5,6,95.8,6,81C5.9,61.3,8.5,46,8.1,26.3C7.8,13.5,18.1,4.6,29.8,4.6
				c34.8,0.1,62.1,1.9,96.9,1.9C167.1,6.6,207.4,6.6,247.7,6.6z M247.6,15.5c-74.7,0-149.5,0-224.2,0c-5.4,0-7.4,2-7.4,7.4
				c0,46.6,0,93.2,0,139.7c0,55.8,0,111.7,0,167.5c0,6.5,1.7,8.3,8.2,8.3c54.9,0,109.8,0,164.7,0c93.6,0,187.2,0,280.9,0
				c1.2,0,2.4,0.1,3.6,0c3.7-0.3,5.7-2.6,5.8-6.3c0-1,0-2,0-3c0-93.3,0-186.7,0-280c0-9,0-18.1,0-27.1c0-3.5-1.7-5.7-4.8-6.3
				c-1.2-0.2-2.5-0.2-3.8-0.2C396.2,15.5,321.9,15.5,247.6,15.5z"/>
		</g>
	</g>
</g>
</svg>
