<?xml version="1.0" encoding="utf-8"?>
<!-- Generator: Adobe Illustrator 23.1.1, SVG Export Plug-In . SVG Version: 6.00 Build 0)  -->
<svg version="1.1" id="Layer_1" xmlns="http://www.w3.org/2000/svg" xmlns:xlink="http://www.w3.org/1999/xlink" x="0px" y="0px"
	 viewBox="0 0 128 128" style="enable-background:new 0 0 128 128;" xml:space="preserve">
<style type="text/css">
	.st0{fill:#FFFFFF;}
	.st1{fill:#010101;}
</style>
<path class="st0" d="M118.8,127.2H8.7c-4.7,0-8.5-3.8-8.5-8.5V8.5C0.2,3.8,4,0,8.7,0h110.1c4.7,0,8.5,3.8,8.5,8.5v110.1
	C127.3,123.4,123.5,127.2,118.8,127.2z"/>
<g id="XMLID_38_">
	<polygon id="XMLID_40_" class="st1" points="33.1,29.1 33.1,47.3 49.9,64.9 50.1,29.1 	"/>
	<polygon id="XMLID_39_" class="st1" points="33.1,100.9 50.1,100.9 49.9,64.9 33.1,82.9 	"/>
	<polygon id="XMLID_63_" class="st1" points="69.1,64.9 69.1,64.9 93.2,29.3 93.3,29.2 93.2,29.2 93.2,29.2 67.8,37.5 49.9,64.9 
		50.1,64.9 74,100.7 91.8,100.7 93.3,100.7 92.5,99.4 	"/>
</g>
</svg>
