<?xml version="1.0" encoding="utf-8"?>
<!-- Generator: Adobe Illustrator 19.0.0, SVG Export Plug-In . SVG Version: 6.00 Build 0)  -->
<svg version="1.1" id="Layer_1" xmlns="http://www.w3.org/2000/svg" xmlns:xlink="http://www.w3.org/1999/xlink" x="0px" y="0px"
	 viewBox="0 0 128 128" style="enable-background:new 0 0 128 128;" xml:space="preserve">
<style type="text/css">
	.st0{fill:#9D9D9D;}
	.st1{fill:#010101;}
</style>
<g id="XMLID_1088_">
	<path id="XMLID_19_" class="st0" d="M126.5,1.4v125H1.6V1.4H126.5 M127.9,0H0.1v127.8h127.8V0L127.9,0z"/>
</g>
<g id="XMLID_1_">
	<path id="XMLID_11_" class="st1" d="M105.3,83.1L90.1,60.7l14.3-21.2l-15,5.1l-5.2,7.6l-8.6-12.7H64.1l0,0l-15.6,5.1L37.7,61.3h0.1
		l14.6,21.8h10.8h0.9h10.8l9.3-13.8l9.3,13.8H105.3z M63.7,82.4L49.4,61.3h0.1l14.7-21.8l14.3,21.2L63.7,82.4z"/>
	<polygon id="XMLID_12_" class="st1" points="27.5,39.4 27.5,50.5 37.7,61.3 37.8,39.4 	"/>
	<polygon id="XMLID_16_" class="st1" points="27.5,83.2 37.8,83.2 37.7,61.3 27.5,72.3 	"/>
</g>
</svg>
