<?xml version="1.0" encoding="utf-8"?>
<!-- Generator: Adobe Illustrator 23.0.3, SVG Export Plug-In . SVG Version: 6.00 Build 0)  -->
<svg version="1.1" id="Layer_1" xmlns="http://www.w3.org/2000/svg" xmlns:xlink="http://www.w3.org/1999/xlink" x="0px" y="0px"
	 viewBox="0 0 683.5 403.3" style="enable-background:new 0 0 683.5 403.3;" xml:space="preserve">
<style type="text/css">
	.st0{fill:#FFFFFF;}
	.st1{fill:url(#SVGID_1_);}
	.st2{fill:#E0E0E0;}
	.st3{fill:#F5F5F5;}
</style>
<g>
	
		<image style="overflow:visible;opacity:8.000000e-02;enable-background:new    ;" width="588" height="386" xlink:href="6DD9B517CFCBFBDA.png"  transform="matrix(1 0 0 1 49 -5.7)">
	</image>
	<g>
		<g>
			<path class="st0" d="M618.9,368.1v-13v-6.8l5.3-332.7c0-8.1-4.8-9-12.9-9h-534c-8.1,0-16,4.8-16,12.9l1.1,325.1l-1.1,11.7v11.8
				h542.1H618.9z M73.2,19.5h536.5v335.6H73.2V19.5z"/>
		</g>
	</g>
</g>
<linearGradient id="SVGID_1_" gradientUnits="userSpaceOnUse" x1="341.1" y1="3.1518" x2="341.1" y2="14.687" gradientTransform="matrix(1 0 0 -1 0 406)">
	<stop  offset="0" style="stop-color:#F5F5F5;stop-opacity:0"/>
	<stop  offset="1" style="stop-color:#F5F5F5"/>
</linearGradient>
<path class="st1" d="M670.8,402.8H11.3c-2.6,0-4.7-2.1-4.7-4.7V396c0-2.6,2.1-4.7,4.7-4.7h659.6c2.6,0,4.7,2.1,4.7,4.7v2.1
	C675.5,400.7,673.4,402.8,670.8,402.8z"/>
<g>
	<g>
		<path class="st0" d="M55.9,373V14.9c0-7.7,6.3-14,13.9-14h544.5c7.7,0,14,6.3,14,14V373H55.9z M66.7,365.5H614L619.7,12h-553
			V365.5z"/>
		<path class="st2" d="M614.3,1.7c7.3,0,13.2,5.9,13.2,13.2v344.4v2v10.9H56.6v-10.9v-2V14.9c0-7.3,5.9-13.2,13.2-13.2L614.3,1.7
			 M66,366.3h1.5h545.7h1.5v-1.5l5.7-352v-1.5h-1.5H67.5H66v1.5v352V366.3 M614.3,0.2H69.8c-8.1,0-14.7,6.6-14.7,14.7v344.4v2v12.4
			H629v-12.4v-2V14.9C629,6.8,622.4,0.2,614.3,0.2L614.3,0.2z M67.5,364.8v-352h551.4l-5.7,352H67.5L67.5,364.8z"/>
	</g>
</g>
<g>
	<path class="st0" d="M13.5,390.6c-6.8,0-12.4-5.5-12.4-12.3V373h681.2l0.1,4.3v0.9c0,6.8-5.5,12.3-12.4,12.3H13.5V390.6z"/>
	<path class="st2" d="M681.6,373.7l0.1,3.6v0.9c0,6.4-5.2,11.6-11.6,11.6H13.5c-6.4,0-11.6-5.2-11.6-11.6v-0.9v-3.6h11.5h392.3H670
		H681.6 M683.1,372.2H670H405.7H13.4h-13v5.1c0,0.3,0,0.6,0,0.9c0,7.2,5.8,13.1,13.1,13.1h656.6c7.2,0,13.1-5.8,13.1-13.1
		c0-0.3,0-0.6,0-0.9L683.1,372.2L683.1,372.2z"/>
</g>
<path class="st3" d="M403.6,373.8c0,4.9-4,9-9,9H284.7c-4.9,0-9-4-9-9H403.6z"/>
<g>
	<path class="st0" d="M618.9,368.1v-13v-6.8l5.3-332.7c0-8.1-4.8-9-12.9-9h-534c-8.1,0-16,4.8-16,12.9l1.1,325.1l-1.1,11.7v11.8
		h542.1H618.9z M73.2,19.5h536.5v335.6H73.2V19.5z"/>
</g>
<circle class="st2" cx="342" cy="9.7" r="3.1"/>
</svg>
