<?xml version="1.0" encoding="utf-8"?>
<!-- Generator: Adobe Illustrator 21.0.0, SVG Export Plug-In . SVG Version: 6.00 Build 0)  -->
<svg version="1.1" xmlns="http://www.w3.org/2000/svg" xmlns:xlink="http://www.w3.org/1999/xlink" x="0px" y="0px"
	 viewBox="0 0 683.5 403.3" style="enable-background:new 0 0 683.5 403.3;" xml:space="preserve">
<style type="text/css">
	.st0{fill:#E0E0E0;}
</style>
<g id="Layer_1">
	<g>
		<g>
			<path class="st0" d="M683.1,377.2h-13.1H13.4H0.4v12.1h0c0,0.3,0,0.6,0,0.9v0c0,7.2,5.8,13.1,13.1,13.1h656.6
				c7.2,0,13.1-5.8,13.1-13.1v0c0-0.3,0-0.6,0-0.9h0V377.2z"/>
		</g>
		<g>
			<path class="st0" d="M629,373.7v-12.4v-2V14.9c0-8.1-6.6-14.7-14.7-14.7H69.8c-8.1,0-14.7,6.6-14.7,14.7v344.4v2v12.4H629z
				 M342,6.6c1.7,0,3.1,1.4,3.1,3.1c0,1.7-1.4,3.1-3.1,3.1s-3.1-1.4-3.1-3.1C338.9,8,340.3,6.6,342,6.6z M73.2,19.5h536.5v335.6
				H73.2V19.5z"/>
		</g>
	</g>
</g>
<g id="Layer_2">
	<g>
	</g>
	<g>
	</g>
	<g>
	</g>
	<g>
	</g>
	<g>
	</g>
	<g>
	</g>
</g>
</svg>
