<?xml version="1.0" encoding="utf-8"?>
<!-- Generator: Adobe Illustrator 19.0.0, SVG Export Plug-In . SVG Version: 6.00 Build 0)  -->
<svg version="1.1" id="Layer_1" xmlns="http://www.w3.org/2000/svg" xmlns:xlink="http://www.w3.org/1999/xlink" x="0px" y="0px"
	 viewBox="22 39.7 683.5 403.3" style="enable-background:new 22 39.7 683.5 403.3;" xml:space="preserve">
<style type="text/css">
	.st0{fill:#E0E0E0;}
</style>
<g>
	<path class="st0" d="M651,413.4V401v-2V54.6c0-8.1-6.6-14.7-14.7-14.7H91.8c-8.1,0-14.7,6.6-14.7,14.7V399v2v12.4L651,413.4
		L651,413.4z M364,46.3c1.7,0,3.1,1.4,3.1,3.1s-1.4,3.1-3.1,3.1s-3.1-1.4-3.1-3.1C360.9,47.7,362.3,46.3,364,46.3z M95.2,59.2h536.5
		v335.6H95.2V59.2z"/>
</g>
<g id="Layer_2">
</g>
<path class="st0" d="M705.1,416.9H692H427.7c0,4.9-4,9-9,9H308.8c-4.9,0-9-4-9-9H35.4h-13V429c0,0.3,0,0.6,0,0.9
	c0,7.2,5.8,13.1,13.1,13.1h656.6c7.2,0,13.1-5.8,13.1-13.1c0-0.3,0-0.6,0-0.9L705.1,416.9L705.1,416.9z"/>
</svg>
