<?xml version="1.0" encoding="utf-8"?>
<!-- Generator: Adobe Illustrator 24.0.3, SVG Export Plug-In . SVG Version: 6.00 Build 0)  -->
<svg version="1.1" id="Layer_1" xmlns="http://www.w3.org/2000/svg" xmlns:xlink="http://www.w3.org/1999/xlink" x="0px" y="0px"
	 viewBox="0 0 248.3 531" style="enable-background:new 0 0 248.3 531;" xml:space="preserve">
<style type="text/css">
	.st0{fill:#FFFFFF;}
</style>
<g>
	
		<image style="overflow:visible;opacity:8.000000e-02;enable-background:new    ;" width="261" height="513" xlink:href="542A894FC5DF1519.png"  transform="matrix(1 0 0 1 -5 8)">
	</image>
	<g>
		<path class="st0" d="M197.7,20.4H20.6L9.3,42.8L7,475.4l4,21.7l60,11.4h164.1l6.5-15.7l1.7-436.6l-5.3-25L197.7,20.4z M238,484.3
			c0,7.1-5.7,12.8-12.8,12.8H23.8c-7.1,0-12.8-5.7-12.8-12.8V52.9c0-7.1,5.7-12.8,12.8-12.8h201.4c7.1,0,12.8,5.7,12.8,12.8V484.3z"
			/>
	</g>
</g>
<g>
	<g>
		<path class="st0" d="M30.7,530.2c-16.5,0-29.9-13.4-29.9-29.9V30.6c0-16.5,13.4-29.9,29.9-29.9h187c16.5,0,29.8,13.4,29.8,29.9
			v469.7c0,16.5-13.4,29.9-29.8,29.9H30.7z M23.8,39.4c-7.5,0-13.5,6.1-13.5,13.6v431.4c0,7.5,6.1,13.5,13.5,13.5h201.4
			c7.5,0,13.5-6.1,13.5-13.5V52.9c0-7.5-6.1-13.6-13.5-13.6L23.8,39.4L23.8,39.4z"/>
	</g>
	<g>
		<path class="st0" d="M217.7,1.5c16,0,29.1,13.1,29.1,29.1v469.7c0,16-13.1,29.1-29.1,29.1h-187c-16,0-29.1-13.1-29.1-29.1V30.6
			c0-16,13.1-29.1,29.1-29.1H217.7 M23.8,498.6h201.4c7.9,0,14.3-6.4,14.3-14.3V52.9c0-7.9-6.4-14.3-14.3-14.3H23.8
			c-7.9,0-14.3,6.4-14.3,14.3v431.4C9.5,492.2,15.9,498.6,23.8,498.6 M217.7,0h-187C13.8,0,0.1,13.7,0.1,30.6v469.7
			c0,16.9,13.7,30.6,30.6,30.6h187c16.9,0,30.6-13.7,30.6-30.6V30.6C248.3,13.7,234.6,0,217.7,0L217.7,0z M23.8,497.1
			c-7.1,0-12.8-5.7-12.8-12.8V52.9c0-7.1,5.7-12.8,12.8-12.8h201.4c7.1,0,12.8,5.7,12.8,12.8v431.4c0,7.1-5.7,12.8-12.8,12.8
			L23.8,497.1L23.8,497.1z"/>
	</g>
</g>
<g>
	<path class="st0" d="M212.6,12.7H35.3c-16.9,0-30.6,13.7-30.6,30.6v447.8c0,16.9,9.5,30.6,26.4,30.6h187
		c16.9,0,27.4-10.5,27.4-27.4l-2.3-450.9C243.2,26.4,229.5,12.7,212.6,12.7z M238,484.3c0,7.1-5.7,12.8-12.8,12.8H23.8
		c-7.1,0-12.8-5.7-12.8-12.8V52.9c0-7.1,5.7-12.8,12.8-12.8h201.4c7.1,0,12.8,5.7,12.8,12.8V484.3z"/>
</g>
</svg>
