<?xml version="1.0" encoding="utf-8"?>
<!-- Generator: Adobe Illustrator 19.0.0, SVG Export Plug-In . SVG Version: 6.00 Build 0)  -->
<svg version="1.1" id="Layer_1" xmlns="http://www.w3.org/2000/svg" xmlns:xlink="http://www.w3.org/1999/xlink" x="0px" y="0px"
	 viewBox="24 -192 248.3 512" style="enable-background:new 24 -192 248.3 512;" xml:space="preserve">
<style type="text/css">
	.st0{fill:#FFFFFF;}
	.st1{fill:#E0E0E0;}
	.st2{fill:none;stroke:#62B762;stroke-width:1.1503;stroke-miterlimit:10;}
</style>
<circle class="st0" cx="149.8" cy="291.8" r="19.1"/>
<path class="st1" d="M271.6,260V158.9c0.2-44.3,0.5-88.6,0-133v-164h-0.2c0-7.7-0.1-15.5-0.2-23.2c-0.1-8.9-2.9-16.9-9.8-23
	c-6.8-6-14-7.8-22.7-7.7c-30.4,0.2-60.7,0.5-91.1,0.8c-31,0.3-62,0.5-93.1,0.8c-8.6,0.1-16.3,2.7-22.3,9c-5.7,6-7.4,13.5-7.4,21.4
	c0,7.3-0.1,14.6-0.1,21.8h0V91.7c-0.2,5.7-0.3,11.5-0.4,17.2c0,13.9,0.2,27.7,0.4,41.6v87.6c-0.1,17.2-0.2,34.5-0.2,51.7
	c0,16.4,9.7,27.4,25.4,29.7c4.3,0.6,8.6,0.4,13,0.3c61.2-0.4,114.4-0.8,175.6-1.2c2.2,0,4.5-0.1,6.7-0.4
	c13.5-1.6,23.4-10.3,25.6-23.6c1.1-6.5,1-13.3,0.9-19.9C271.7,269.8,271.6,264.9,271.6,260z M150-170.4c2.5-0.1,4.7,2,4.7,4.5
	c0.1,2.5-2,4.6-4.5,4.7c-2.4,0-4.5-2-4.6-4.4C145.5-168.1,147.5-170.3,150-170.4z M149.4,310.9c-10.5-0.1-18.8-8.8-18.7-19.4
	s8.8-19,19.5-18.8c10.5,0.2,18.8,8.8,18.7,19.4C168.7,302.8,160.1,311,149.4,310.9z M259.9,264.2c-76.2,0.4-146,0.7-222.2,1.1
	c-4.4,0-4.9-0.5-4.9-5.1c0.1-36.3-0.1-72.6-0.3-108.8v-289.5c0.4-1.5,1.5-1.9,4.3-1.9c54.5-0.3,109.1-0.6,163.6-0.8
	c19.8-0.1,39.5-0.2,59.3-0.3c3.3,0,4,0.5,4.1,3.4v396c0,0.6,0,1.2,0,1.8C263.9,263.7,263.4,264.2,259.9,264.2z"/>
<rect x="32.5" y="-140.6" class="st2" width="231.3" height="405.3"/>
</svg>
