<?xml version="1.0" encoding="utf-8"?>
<!-- Generator: Adobe Illustrator 23.0.1, SVG Export Plug-In . SVG Version: 6.00 Build 0)  -->
<svg version="1.1" id="Layer_1" xmlns="http://www.w3.org/2000/svg" xmlns:xlink="http://www.w3.org/1999/xlink" x="0px" y="0px"
	 viewBox="0 0 248.3 512" style="enable-background:new 0 0 248.3 512;" xml:space="preserve">
<style type="text/css">
	.st0{fill:#FFFFFF;}
	.st1{opacity:0.6;fill:#E0E0E0;}
</style>
<circle class="st0" cx="125.8" cy="483.8" r="19.1"/>
<path class="st1" d="M247.6,452V350.9c0.2-44.3,0.5-88.6,0-133v-164h-0.2c0-7.7-0.1-15.5-0.2-23.2c-0.1-8.9-2.9-16.9-9.8-23
	c-6.8-6-14-7.8-22.7-7.7c-30.4,0.2-60.7,0.5-91.1,0.8c-31,0.3-62,0.5-93.1,0.8c-8.6,0.1-16.3,2.7-22.3,9c-5.7,6-7.4,13.5-7.4,21.4
	c0,7.3-0.1,14.6-0.1,21.8l0,0v229.9c-0.2,5.7-0.3,11.5-0.4,17.2c0,13.9,0.2,27.7,0.4,41.6v87.6c-0.1,17.2-0.2,34.5-0.2,51.7
	c0,16.4,9.7,27.4,25.4,29.7c4.3,0.6,8.6,0.4,13,0.3c61.2-0.4,114.4-0.8,175.6-1.2c2.2,0,4.5-0.1,6.7-0.4
	c13.5-1.6,23.4-10.3,25.6-23.6c1.1-6.5,1-13.3,0.9-19.9C247.7,461.8,247.6,456.9,247.6,452z M126,21.6c2.5-0.1,4.7,2,4.7,4.5
	c0.1,2.5-2,4.6-4.5,4.7c-2.4,0-4.5-2-4.6-4.4C121.5,23.9,123.5,21.7,126,21.6z M125.4,502.9c-10.5-0.1-18.8-8.8-18.7-19.4
	s8.8-19,19.5-18.8c10.5,0.2,18.8,8.8,18.7,19.4C144.7,494.8,136.1,503,125.4,502.9z M235.9,456.2c-76.2,0.4-146,0.7-222.2,1.1
	c-4.4,0-4.9-0.5-4.9-5.1c0.1-36.3-0.1-72.6-0.3-108.8V53.9C8.9,52.4,10,52,12.8,52c54.5-0.3,109.1-0.6,163.6-0.8
	c19.8-0.1,39.5-0.2,59.3-0.3c3.3,0,4,0.5,4.1,3.4v396c0,0.6,0,1.2,0,1.8C239.9,455.7,239.4,456.2,235.9,456.2z"/>
</svg>
