<?xml version="1.0" encoding="utf-8"?>
<!-- Generator: Adobe Illustrator 19.0.0, SVG Export Plug-In . SVG Version: 6.00 Build 0)  -->
<svg version="1.1" id="Layer_1" xmlns="http://www.w3.org/2000/svg" xmlns:xlink="http://www.w3.org/1999/xlink" x="0px" y="0px"
	 viewBox="-195 -25.5 248.3 531" style="enable-background:new -195 -25.5 248.3 531;" xml:space="preserve">
<style type="text/css">
	.st0{fill:#E0E0E0;}
</style>
<path class="st0" d="M22.7-25.5h-187c-16.9,0-30.6,13.7-30.6,30.6v469.7c0,16.9,13.7,30.6,30.6,30.6h187c16.9,0,30.6-13.7,30.6-30.6
	V5.1C53.3-11.8,39.6-25.5,22.7-25.5z M42.6,458.7c0,7.1-5.7,12.8-12.8,12.8h-201.4c-7.1,0-12.8-5.7-12.8-12.8V27.3
	c0-7.1,5.7-12.8,12.8-12.8H29.8c7.1,0,12.8,5.7,12.8,12.8V458.7z"/>
</svg>
