<?xml version="1.0" encoding="utf-8"?>
<!-- Generator: Adobe Illustrator 23.0.3, SVG Export Plug-In . SVG Version: 6.00 Build 0)  -->
<svg version="1.1" id="Layer_1" xmlns="http://www.w3.org/2000/svg" xmlns:xlink="http://www.w3.org/1999/xlink" x="0px" y="0px"
	 viewBox="0 0 800 800" style="enable-background:new 0 0 800 800;" xml:space="preserve">
<style type="text/css">
	.st0{fill:#FFFFFF;}
	.st1{fill:#FEDF3D;}
	.st2{fill:#5362D5;}
	.st3{fill:#F9E9D9;}
	.st4{fill:#616161;stroke:#5362D5;stroke-width:3;stroke-linecap:round;stroke-linejoin:round;stroke-miterlimit:10;}
	.st5{fill:none;stroke:#5362D5;stroke-width:3;stroke-linecap:round;stroke-linejoin:round;stroke-miterlimit:10;}
	.st6{fill:none;stroke:#5362D5;stroke-width:3;stroke-miterlimit:10;}
	.st7{fill:#212121;}
	.st8{opacity:0.5;fill:#FFFFFF;enable-background:new    ;}
</style>
<g>
	<rect class="st0" width="800" height="800"/>
</g>
<g id="Layer_3">
	<path class="st1" d="M651.8,422.2h-53.3h-69.9l-64.1,36.6h-93.4L314,470.5h-82.3v169.4h182.5c0,0,39.8,80.4,130.7,109
		c44.7,14.1,81.2,16.7,106.8,15.7V422.2H651.8z"/>
	<path class="st2" d="M316.3,272L289,374.6v119.9l7.5,133h104c0,0-12.4-53.9-17.8-109.8c-5.5-56-5.5-56-5.5-56S347.5,444,337.3,392
		s-3.7-95.3-3.7-95.3L316.3,272z"/>
	<path class="st3" d="M558.6,359.1l-5.4-14.2l0,0c4.5-77.7-39.3-143.8-99.3-148.7c-61.2-5-123.2,22.6-123.2,111.6
		c0,121.4,38.5,171.7,99.6,176.7c5.7,0.5,11.4,0.4,17-0.3c0.2,0.8,0.5,1.7,0.8,2.5c8,23.7,35.4,35.8,61.1,27.1s40-35,31.9-58.7
		c-3.1-9.2-9.2-16.6-16.9-21.8c8.3-12.2,15.2-26.1,20.2-41.3l0,0c0,0,4.4,6.9,8.9,5.5s8.3-4.4,8.3-4.4L558.6,359.1z"/>
	<path class="st3" d="M229.8,588.4h-58.1c0,0-24.3,2.4-42.8-14.9c-18.5-17.3-19.2-44.6-18-63.3s18-187.2,18-187.2s5.2-44.6-1.8-66.4
		s-13.7-36.6-21.3-48S80,176,80,176s-4.8-8.7-2.8-12.7s2-4,2-4l-8.9-8.8c0,0-7.2-10.3-2.8-15.1s7.6-4.4,7.6-4.4s-2.8-6-0.6-10.2
		c2.2-4.1,9.6-5.4,9.6-5.4s3.1-0.1,8,2.5s9.4,6.1,9.4,6.1s0.4-6,2.9-8.6s9.2-2.8,13.5,0s20.1,12.3,37.9,40.6s30.6,55.1,30.6,55.1
		s6.3,29.4,19.5,32c13.1,2.6,25.5-8,37.7-17s24.5-15.6,31.4-8.8s-4.2,15.5-4.2,15.5s-19.7,13.9-24.9,18.9
		c-5.2,5-18.5,18.7-25.2,25.1s-25.8,22.6-25.8,22.6l-5.3,3.7l-7.5,78.8L172.9,501c0,0,1,22.2,16.7,22.7c15.7,0.6,41,0.6,41,0.6
		l1,58.4l-0.2,6L229.8,588.4z"/>
</g>
<g>
	<path class="st4" d="M453,202c0,0-164,52-164,252v40.5c0,0-34.5-175,34.5-280s138-51,138-51s44-22,84,15s78,143,75,299l-3.6,150
		h-62c0,0,28.6-218-10.4-313S453,202,453,202z"/>
	<path class="st5" d="M396.7,474.6c0,0,10.1,72.5,35.1,107.2"/>
	<path class="st5" d="M283.6,455.6c0,0-1.3,114.8-27.4,142.3"/>
	<path class="st5" d="M280.4,388.6c0,0-3,158-57.7,172.4"/>
	<path class="st5" d="M651.8,764.3c0,0-85.1,8.5-162.2-43c-64.5-43-75.4-81.5-75.4-81.5H231.8v-66.3"/>
	<polyline class="st5" points="231.8,539.8 231.8,470.5 265.5,470.5 	"/>
	<path class="st5" d="M231.8,589.6h-51.1c0,0-74.3,7.6-70.3-71.9c3.9-79.5,19.1-200.9,19.1-200.9s7.7-49.2-12.5-88.1S80,176,80,176
		s-7.8-11,0-15.6c7.8-4.5,18.9,6.6,26.6,15.7c8,9.3,24.8,34.4,24.8,34.4"/>
	<path class="st5" d="M80,160.4c0,0-0.9-2-7.1-7.4c-8.6-7.4-9.1-17.1-1-21.1c8-3.9,21,6.5,34.7,19c18.4,16.9,36.5,48.2,36.5,48.2"/>
	<path class="st5" d="M75.2,130.4c0,0-4.4-8.8,3.3-13.7c6.2-4,20.6,1.8,41.7,22.5c23.8,23.2,37.7,50.5,37.7,50.5"/>
	<path class="st5" d="M102.2,123.8c0,0-2.6-6.3,4.8-9.6c8.3-3.7,22.2,8.7,30,16.7c7.8,8.1,35.1,46.1,45.9,71.2
		c9.8,22.8,14.3,42.2,28.4,41.9c14-0.3,28.4-15.8,38.4-22.1c0,0,22.8-16.1,27.8-0.4c3.1,9.8-19.2,17.4-36.6,35.4s-38,38.1-51.1,46.3
		c0,0-16.7,170.1-16.7,197.9s28.5,23.3,28.5,23.3h30.2"/>
	<line class="st5" x1="619.5" y1="422.2" x2="651.8" y2="422.2"/>
	<line class="st5" x1="530.4" y1="422.2" x2="562.5" y2="422.2"/>
	<path class="st5" d="M619.3,412.4c0,0,10.6,138.9,11.5,177.3s0.9,38.4,0.9,38.4"/>
	<path class="st5" d="M400,369.2c0,0-2.9,12.8,11.8,14.3c14.7,1.4,20-3.3,20-3.3s10.9,8.1,21.8-0.5"/>
	<path class="st5" d="M399.8,410.1c0,0,5.4,30.3,32.1,32.2c26.6,1.9,34.9-22.7,35.2-33.7"/>
	<path class="st5" d="M366.3,290.1c0,0,7.1-21.4,27.5-17.7c13.8,2.5,17.4,21.4,17.4,21.4"/>
	<path class="st5" d="M506.4,294.4c0,0-5.9-21.8-26.5-19.2c-13.9,1.8-18.5,20.5-18.5,20.5"/>
	<path class="st6" d="M431.8,630c-37.8-39.6-54.7-168.3-54.7-168.3s10.3,124.8,23.3,165.8h-104l-7.5-133"/>
	<path class="st6" d="M522.7,434.2c32.2,16.9,22.1,68.3-16.9,80.9c-43.1,13.9-58.4-31-58.4-31"/>
	<path class="st6" d="M545,392c0,0,6,11.6,16.6,1.1"/>
	<path class="st6" d="M331.8,299.3c0,0-9.3,97.2,27.7,144.2s97,56,142,15c39.9-36.4,56.7-99,52.8-112.5"/>
	<g id="OXbZes.tif">
		<g>
			<path class="st7" d="M312.5,331.7c-1.3-0.1-2.7-0.3-4.1-0.3c-2.5,0-5.3-1.7-6.2-4.4c-1.1-3.6,1.9-7.7,5.7-7.6
				c1.9,0.1,3.8,0.3,5.7,0.4c2.8-13.4,9.8-24,20.9-31.7c9.7-6.8,20.6-9.7,32.4-8.8c21.1,1.5,40.2,16.1,45.8,39.6
				c4.6-4,10-5.7,16-5.2s11,3,15,7.6c9.8-23.8,32.2-34,52.2-32c8.1,0.8,15.7,3.4,22.5,7.9c6.8,4.5,12.3,10.3,16.4,17.4
				c4,7.1,6.3,14.7,6.6,23c1.8,0.1,3.4,0.3,5.1,0.4c3.9,0.3,6.3,3.6,5.5,7.4c-0.6,2.8-3.3,4.7-6.6,4.6c-1.6-0.1-3.2-0.2-4.9-0.4
				c-0.5,1.8-0.9,3.5-1.4,5.2c-1.3,4.3-3.2,8.3-5.6,12c-3.6,5.6-8.1,10.3-13.6,14.2c-3.4,2.4-7,4.3-10.8,5.8
				c-4.6,1.8-9.3,2.9-14.1,3.2c-5.8,0.5-11.6,0-17.3-1.6c-3.6-1-7.1-2.3-10.4-4.1c-3.9-2.1-7.5-4.6-10.7-7.6
				c-3.2-2.9-5.9-6.2-8.2-9.8c-3.4-5.3-5.8-11.1-7-17.4c-1-4.7-1.1-9.4-0.9-14.1c0.2-4.5-1.8-8-5.2-10.7c-3.3-2.6-7.1-3.5-11.2-2.5
				c-4,0.9-7,3.3-9.1,6.9c-1.5,2.5-1.3,5.3-1.7,8c-0.8,4.6-1.9,9.1-3.9,13.3c-3.1,6.8-7.5,12.8-13.3,17.7c-4.2,3.5-8.7,6.4-13.8,8.4
				c-8,3.3-16.4,4.3-25,3.3c-4.9-0.6-9.7-1.8-14.2-3.8c-5.3-2.3-10-5.4-14.3-9.4c-4.9-4.5-8.7-9.8-11.5-15.8
				c-1.6-3.4-2.9-6.9-3.5-10.6C313.5,337.5,313,334.7,312.5,331.7z M487.4,381.3c23.4,1.9,43.3-15.4,45.3-38.1
				c2-23.4-15.3-43.5-38.2-45.4c-23.4-2-43.6,15.5-45.4,38.5C447.3,359.4,464.5,379.4,487.4,381.3z M360,371.4
				c23.2,1.8,43.2-15.5,45.1-38.4c1.9-23.1-15.5-43.4-38.7-45.1s-43.2,15.5-45,38.6S336.9,369.6,360,371.4z"/>
			<path class="st8" d="M487.4,381.3c-22.9-1.9-40.2-21.9-38.4-45c1.8-23,22-40.5,45.4-38.5c22.9,1.9,40.3,22,38.2,45.4
				C530.7,366,510.8,383.2,487.4,381.3z"/>
			<path class="st8" d="M360,371.4c-23.1-1.8-40.3-21.9-38.6-45c1.7-23.1,21.8-40.3,45-38.6c23.2,1.7,40.5,22,38.7,45.1
				C403.2,355.9,383.1,373.2,360,371.4z"/>
		</g>
	</g>
	<ellipse class="st2" cx="388.7" cy="330.2" rx="11.3" ry="8.7"/>
	<ellipse class="st2" cx="478.4" cy="337.7" rx="11.3" ry="8.7"/>
	<line class="st5" x1="651.8" y1="24.8" x2="651.8" y2="792.8"/>
</g>
</svg>
