<?xml version="1.0" encoding="utf-8"?>
<!-- Generator: Adobe Illustrator 23.0.3, SVG Export Plug-In . SVG Version: 6.00 Build 0)  -->
<svg version="1.1" xmlns="http://www.w3.org/2000/svg" xmlns:xlink="http://www.w3.org/1999/xlink" x="0px" y="0px"
	 viewBox="0 0 800 800" style="enable-background:new 0 0 800 800;" xml:space="preserve">
<style type="text/css">
	.st0{fill:#FEDF3D;}
	.st1{clip-path:url(#SVGID_2_);}
	.st2{fill:#FFFFFF;}
	.st3{fill:#5362D5;}
	.st4{fill:#F9E9D9;}
	.st5{fill:#E0E0E0;}
	.st6{clip-path:url(#SVGID_4_);}
	.st7{fill:#9A76F0;}
	.st8{fill:#616161;stroke:#5362D5;stroke-width:3;stroke-linecap:round;stroke-linejoin:round;stroke-miterlimit:10;}
	.st9{fill:none;stroke:#5362D5;stroke-width:3;stroke-linecap:round;stroke-linejoin:round;stroke-miterlimit:10;}
	.st10{fill:none;stroke:#5362D5;stroke-width:3;stroke-miterlimit:10;}
	.st11{fill:#212121;}
	.st12{opacity:0.5;fill:#FFFFFF;}
	.st13{clip-path:url(#SVGID_6_);}
	.st14{clip-path:url(#SVGID_8_);}
	.st15{fill:#FEDF3D;stroke:#5362D5;stroke-width:3;stroke-linecap:round;stroke-linejoin:round;stroke-miterlimit:10;}
	.st16{fill:none;stroke:#FFFFFF;stroke-width:3;stroke-linecap:round;stroke-linejoin:round;stroke-miterlimit:10;}
	.st17{fill:#FFFFFF;stroke:#5362D5;stroke-width:3;stroke-miterlimit:10;}
	.st18{clip-path:url(#SVGID_10_);}
</style>
<g id="Layer_1">
	<path class="st0" d="M1472.1,92.3c0,0,156.1-69,106.3,85c-49.8,154-51.5,180.6-18.8,253.2c32.8,72.6,140.8,150.5-73.5,266.5
		l-9.4-273h-1.4L1472.1,92.3"/>
	<g>
		<g>
			<defs>
				<path id="SVGID_1_" d="M1472.1,92.3c-13.5,5.3-28.6,11.5-45.4,18.8c-157.5,68.1-170.4-79.1-385.5-46.9
					C826,96.5,810.4,368.9,905.1,410.1c94.6,41.2,94.2,177.1,94.6,283.8s175.2,101.9,327.8,68.7c55.3-12,104.4-33.4,144.6-55.7V92.3
					z"/>
			</defs>
			<clipPath id="SVGID_2_">
				<use xlink:href="#SVGID_1_"  style="overflow:visible;"/>
			</clipPath>
			<g class="st1">
			</g>
		</g>
	</g>
	<rect class="st2" width="800" height="800"/>
</g>
<g id="Layer_3">
	<path class="st0" d="M1472.1,422.2h-53.3h-69.9l-64.1,36.6h-93.4l-57.1,11.7h-82.3v169.4h182.5c0,0,39.8,80.4,130.7,109
		c44.7,14.1,81.2,16.7,106.8,15.7V422.2z"/>
	<path class="st0" d="M651.8,422.2h-53.3h-69.9l-64.1,36.6h-93.4l-57.1,11.7h-82.3v169.4h182.5c0,0,39.8,80.4,130.7,109
		c44.7,14.1,81.2,16.7,106.8,15.7V422.2z"/>
	<path class="st3" d="M316.3,272L289,374.6v119.9l7.5,133h104c0,0-12.4-53.9-17.8-109.8c-5.5-56-5.5-56-5.5-56S347.5,444,337.3,392
		s-3.7-95.3-3.7-95.3L316.3,272z"/>
	<path class="st4" d="M558.6,359.1l-5.4-14.2l0,0c4.5-77.7-39.3-143.8-99.3-148.7c-61.2-5-123.2,22.6-123.2,111.6
		c0,121.4,38.5,171.7,99.6,176.7c5.7,0.5,11.4,0.4,17-0.3c0.2,0.8,0.5,1.7,0.8,2.5c8,23.7,35.4,35.8,61.1,27.1
		c25.7-8.7,40-35,31.9-58.7c-3.1-9.2-9.2-16.6-16.9-21.8c8.3-12.2,15.2-26.1,20.2-41.3l0,0c0,0,4.4,6.9,8.9,5.5
		c4.5-1.4,8.3-4.4,8.3-4.4L558.6,359.1z"/>
	<path class="st4" d="M229.8,588.4h-58.1c0,0-24.3,2.4-42.8-14.9c-18.5-17.3-19.2-44.6-18-63.3c1.2-18.7,18-187.2,18-187.2
		s5.2-44.6-1.8-66.4c-7-21.8-13.7-36.6-21.3-48S80,176,80,176s-4.8-8.7-2.8-12.7c2-4,2-4,2-4l-8.9-8.8c0,0-7.2-10.3-2.8-15.1
		c4.4-4.8,7.6-4.4,7.6-4.4s-2.8-6-0.6-10.2c2.2-4.1,9.6-5.4,9.6-5.4s3.1-0.1,8,2.5c4.9,2.6,9.4,6.1,9.4,6.1s0.4-6,2.9-8.6
		s9.2-2.8,13.5,0c4.3,2.8,20.1,12.3,37.9,40.6s30.6,55.1,30.6,55.1s6.3,29.4,19.5,32c13.1,2.6,25.5-8,37.7-17
		c12.2-9,24.5-15.6,31.4-8.8s-4.2,15.5-4.2,15.5s-19.7,13.9-24.9,18.9s-18.5,18.7-25.2,25.1c-6.7,6.4-25.8,22.6-25.8,22.6l-5.3,3.7
		l-7.5,78.8l-9.2,119.1c0,0,1,22.2,16.7,22.7c15.7,0.6,41,0.6,41,0.6l1,58.4l-0.2,6L229.8,588.4z"/>
	<path class="st5" d="M1136.6,272l-27.3,102.6v119.9l7.5,133h104c0,0-12.4-53.9-17.8-109.8c-5.5-56-5.5-56-5.5-56
		s-29.6-17.7-39.9-69.8s-3.7-95.3-3.7-95.3L1136.6,272z"/>
	<path class="st4" d="M1378.9,359.1l-5.4-14.2l0,0c4.5-77.7-39.3-143.8-99.3-148.7c-61.2-5-123.2,22.6-123.2,111.6
		c0,121.4,38.5,171.7,99.6,176.7c5.7,0.5,11.4,0.4,17-0.3c0.2,0.8,0.5,1.7,0.8,2.5c8,23.7,35.4,35.8,61.1,27.1s40-35,31.9-58.7
		c-3.1-9.2-9.2-16.6-16.9-21.8c8.3-12.2,15.2-26.1,20.2-41.3l0,0c0,0,4.4,6.9,8.9,5.5s8.3-4.4,8.3-4.4L1378.9,359.1z"/>
	<path class="st4" d="M1050,588.4h-58.1c0,0-24.3,2.4-42.8-14.9c-18.5-17.3-19.2-44.6-18-63.3c1.2-18.7,18-187.2,18-187.2
		s5.2-44.6-1.8-66.4c-7-21.8-13.7-36.6-21.3-48S900.3,176,900.3,176s-4.8-8.7-2.8-12.7c2-4,2-4,2-4l-8.9-8.8c0,0-7.2-10.3-2.8-15.1
		c4.4-4.8,7.6-4.4,7.6-4.4s-2.8-6-0.6-10.2s9.6-5.4,9.6-5.4s3.1-0.1,8,2.5c4.9,2.6,9.4,6.1,9.4,6.1s0.4-6,2.9-8.6
		c2.5-2.5,9.2-2.8,13.5,0s20.1,12.3,37.9,40.6c17.8,28.3,30.6,55.1,30.6,55.1s6.3,29.4,19.5,32c13.1,2.6,25.5-8,37.7-17
		c12.2-9,24.5-15.6,31.4-8.8c6.9,6.9-4.2,15.5-4.2,15.5s-19.7,13.9-24.9,18.9s-18.5,18.7-25.2,25.1c-6.7,6.4-25.8,22.6-25.8,22.6
		l-5.3,3.7l-7.5,78.8l-9.2,119.1c0,0,1,22.2,16.7,22.7c15.7,0.6,41,0.6,41,0.6l1,58.4l-0.2,6L1050,588.4z"/>
	<circle class="st0" cx="978.9" cy="684.4" r="42.7"/>
	<circle class="st0" cx="1217" cy="74.6" r="39.4"/>
	<g>
		<g>
			<defs>
				<circle id="SVGID_3_" cx="1338.1" cy="61.9" r="28.2"/>
			</defs>
			<clipPath id="SVGID_4_">
				<use xlink:href="#SVGID_3_"  style="overflow:visible;"/>
			</clipPath>
			<g class="st6">
			</g>
		</g>
	</g>
	<circle class="st2" cx="1103.4" cy="713.2" r="28.2"/>
	<circle class="st7" cx="896.9" cy="597.9" r="22"/>
</g>
<g id="Layer_2">
	<path class="st8" d="M453,202c0,0-164,52-164,252v40.5c0,0-34.5-175,34.5-280s138-51,138-51s44-22,84,15s78,143,75,299l-3.6,150
		h-62c0,0,28.6-218-10.4-313S453,202,453,202z"/>
	<path class="st9" d="M396.7,474.6c0,0,10.1,72.5,35.1,107.2"/>
	<path class="st9" d="M283.6,455.6c0,0-1.3,114.8-27.4,142.3"/>
	<path class="st9" d="M280.4,388.6c0,0-3,158-57.7,172.4"/>
	<path class="st9" d="M651.8,764.3c0,0-85.1,8.5-162.2-43c-64.5-43-75.4-81.5-75.4-81.5H231.8v-66.3"/>
	<polyline class="st9" points="231.8,539.8 231.8,470.5 265.5,470.5 	"/>
	<path class="st9" d="M231.8,589.6h-51.1c0,0-74.3,7.6-70.3-71.9c3.9-79.5,19.1-200.9,19.1-200.9s7.7-49.2-12.5-88.1S80,176,80,176
		s-7.8-11,0-15.6c7.8-4.5,18.9,6.6,26.6,15.7c8,9.3,24.8,34.4,24.8,34.4"/>
	<path class="st9" d="M80,160.4c0,0-0.9-2-7.1-7.4c-8.6-7.4-9.1-17.1-1-21.1c8-3.9,21,6.5,34.7,19c18.4,16.9,36.5,48.2,36.5,48.2"/>
	<path class="st9" d="M75.2,130.4c0,0-4.4-8.8,3.3-13.7c6.2-4,20.6,1.8,41.7,22.5c23.8,23.2,37.7,50.5,37.7,50.5"/>
	<path class="st9" d="M102.2,123.8c0,0-2.6-6.3,4.8-9.6c8.3-3.7,22.2,8.7,30,16.7c7.8,8.1,35.1,46.1,45.9,71.2
		c9.8,22.8,14.3,42.2,28.4,41.9c14-0.3,28.4-15.8,38.4-22.1c0,0,22.8-16.1,27.8-0.4c3.1,9.8-19.2,17.4-36.6,35.4s-38,38.1-51.1,46.3
		c0,0-16.7,170.1-16.7,197.9s28.5,23.3,28.5,23.3h30.2"/>
	<line class="st9" x1="619.5" y1="422.2" x2="651.8" y2="422.2"/>
	<line class="st9" x1="530.4" y1="422.2" x2="562.5" y2="422.2"/>
	<path class="st9" d="M619.3,412.4c0,0,10.6,138.9,11.5,177.3c0.9,38.4,0.9,38.4,0.9,38.4"/>
	<path class="st9" d="M400,369.2c0,0-2.9,12.8,11.8,14.3c14.7,1.4,20-3.3,20-3.3s10.9,8.1,21.8-0.5"/>
	<path class="st9" d="M399.8,410.1c0,0,5.4,30.3,32.1,32.2c26.6,1.9,34.9-22.7,35.2-33.7"/>
	<path class="st9" d="M366.3,290.1c0,0,7.1-21.4,27.5-17.7c13.8,2.5,17.4,21.4,17.4,21.4"/>
	<path class="st9" d="M506.4,294.4c0,0-5.9-21.8-26.5-19.2c-13.9,1.8-18.5,20.5-18.5,20.5"/>
	<path class="st10" d="M431.8,630c-37.8-39.6-54.7-168.3-54.7-168.3s10.3,124.8,23.3,165.8h-104l-7.5-133"/>
	<path class="st10" d="M522.7,434.2c32.2,16.9,22.1,68.3-16.9,80.9c-43.1,13.9-58.4-31-58.4-31"/>
	<path class="st10" d="M545,392c0,0,6,11.6,16.6,1.1"/>
	<path class="st10" d="M331.8,299.3c0,0-9.3,97.2,27.7,144.2s97,56,142,15c39.9-36.4,56.7-99,52.8-112.5"/>
	<g id="OXbZes.tif">
		<g>
			<path class="st11" d="M312.5,331.7c-1.3-0.1-2.7-0.3-4.1-0.3c-2.5,0-5.3-1.7-6.2-4.4c-1.1-3.6,1.9-7.7,5.7-7.6
				c1.9,0.1,3.8,0.3,5.7,0.4c2.8-13.4,9.8-24,20.9-31.7c9.7-6.8,20.6-9.7,32.4-8.8c21.1,1.5,40.2,16.1,45.8,39.6
				c4.6-4,10-5.7,16-5.2c6,0.5,11,3,15,7.6c9.8-23.8,32.2-34,52.2-32c8.1,0.8,15.7,3.4,22.5,7.9c6.8,4.5,12.3,10.3,16.4,17.4
				c4,7.1,6.3,14.7,6.6,23c1.8,0.1,3.4,0.3,5.1,0.4c3.9,0.3,6.3,3.6,5.5,7.4c-0.6,2.8-3.3,4.7-6.6,4.6c-1.6-0.1-3.2-0.2-4.9-0.4
				c-0.5,1.8-0.9,3.5-1.4,5.2c-1.3,4.3-3.2,8.3-5.6,12c-3.6,5.6-8.1,10.3-13.6,14.2c-3.4,2.4-7,4.3-10.8,5.8
				c-4.6,1.8-9.3,2.9-14.1,3.2c-5.8,0.5-11.6,0-17.3-1.6c-3.6-1-7.1-2.3-10.4-4.1c-3.9-2.1-7.5-4.6-10.7-7.6
				c-3.2-2.9-5.9-6.2-8.2-9.8c-3.4-5.3-5.8-11.1-7-17.4c-1-4.7-1.1-9.4-0.9-14.1c0.2-4.5-1.8-8-5.2-10.7c-3.3-2.6-7.1-3.5-11.2-2.5
				c-4,0.9-7,3.3-9.1,6.9c-1.5,2.5-1.3,5.3-1.7,8c-0.8,4.6-1.9,9.1-3.9,13.3c-3.1,6.8-7.5,12.8-13.3,17.7c-4.2,3.5-8.7,6.4-13.8,8.4
				c-8,3.3-16.4,4.3-25,3.3c-4.9-0.6-9.7-1.8-14.2-3.8c-5.3-2.3-10-5.4-14.3-9.4c-4.9-4.5-8.7-9.8-11.5-15.8
				c-1.6-3.4-2.9-6.9-3.5-10.6C313.5,337.5,313,334.7,312.5,331.7z M487.4,381.3c23.4,1.9,43.3-15.4,45.3-38.1
				c2-23.4-15.3-43.5-38.2-45.4c-23.4-2-43.6,15.5-45.4,38.5C447.3,359.4,464.5,379.4,487.4,381.3z M360,371.4
				c23.2,1.8,43.2-15.5,45.1-38.4c1.9-23.1-15.5-43.4-38.7-45.1c-23.2-1.7-43.2,15.5-45,38.6C319.6,349.6,336.9,369.6,360,371.4z"/>
			<path class="st12" d="M487.4,381.3c-22.9-1.9-40.2-21.9-38.4-45c1.8-23,22-40.5,45.4-38.5c22.9,1.9,40.3,22,38.2,45.4
				C530.7,366,510.8,383.2,487.4,381.3z"/>
			<path class="st12" d="M360,371.4c-23.1-1.8-40.3-21.9-38.6-45c1.7-23.1,21.8-40.3,45-38.6c23.2,1.7,40.5,22,38.7,45.1
				C403.2,355.9,383.1,373.2,360,371.4z"/>
		</g>
	</g>
	<ellipse class="st3" cx="388.7" cy="330.2" rx="11.3" ry="8.7"/>
	<ellipse class="st3" cx="478.4" cy="337.7" rx="11.3" ry="8.7"/>
	<path class="st9" d="M1217,474.6c0,0,10.1,72.5,35.1,107.2"/>
	<path class="st9" d="M1103.9,455.6c0,0-1.3,114.8-27.4,142.3"/>
	<path class="st9" d="M1100.7,388.6c0,0-3,158-57.7,172.4"/>
	<path class="st9" d="M1472.1,764.3c0,0-85.1,8.5-162.2-43c-64.5-43-75.4-81.5-75.4-81.5h-182.5v-66.3"/>
	<polyline class="st9" points="1052.1,539.8 1052.1,470.5 1085.8,470.5 	"/>
	<path class="st9" d="M1052.1,589.6H1001c0,0-74.3,7.6-70.3-71.9s19.1-200.9,19.1-200.9s7.7-49.2-12.5-88.1
		c-20.1-39-37-52.6-37-52.6s-7.8-11,0-15.6c7.8-4.5,18.9,6.6,26.6,15.7c8,9.3,24.8,34.4,24.8,34.4"/>
	<path class="st9" d="M900.3,160.4c0,0-0.9-2-7.1-7.4c-8.6-7.4-9.1-17.1-1-21.1c8-3.9,21,6.5,34.7,19c18.4,16.9,36.5,48.2,36.5,48.2
		"/>
	<path class="st9" d="M895.4,130.4c0,0-4.4-8.8,3.3-13.7c6.2-4,20.6,1.8,41.7,22.5c23.8,23.2,37.7,50.5,37.7,50.5"/>
	<path class="st9" d="M922.5,123.8c0,0-2.6-6.3,4.8-9.6c8.3-3.7,22.2,8.7,30,16.7s35.1,46.1,45.9,71.2c9.8,22.8,14.3,42.2,28.4,41.9
		c14-0.3,28.4-15.8,38.4-22.1c0,0,22.8-16.1,27.8-0.4c3.1,9.8-19.2,17.4-36.6,35.4s-38,38.1-51.1,46.3c0,0-16.7,170.1-16.7,197.9
		s28.5,23.3,28.5,23.3h30.2"/>
	<line class="st9" x1="1439.8" y1="422.2" x2="1472.1" y2="422.2"/>
	<line class="st9" x1="1350.7" y1="422.2" x2="1382.8" y2="422.2"/>
	<path class="st9" d="M1439.6,412.4c0,0,10.6,138.9,11.5,177.3c0.9,38.4,0.9,38.4,0.9,38.4"/>
	<path class="st9" d="M1220.3,369.2c0,0-2.9,12.8,11.8,14.3c14.7,1.4,20-3.3,20-3.3s10.9,8.1,21.8-0.5"/>
	<path class="st9" d="M1220,410.1c0,0,5.4,30.3,32.1,32.2c26.6,1.9,34.9-22.7,35.2-33.7"/>
	<path class="st9" d="M1186.5,290.1c0,0,7.1-21.4,27.5-17.7c13.8,2.5,17.4,21.4,17.4,21.4"/>
	<path class="st9" d="M1326.7,294.4c0,0-5.9-21.8-26.5-19.2c-13.9,1.8-18.5,20.5-18.5,20.5"/>
	<path class="st10" d="M1252.1,630c-37.8-39.6-54.7-168.3-54.7-168.3s10.3,124.8,23.3,165.8h-104l-7.5-133"/>
	<path class="st10" d="M1343,434.2c32.2,16.9,22.1,68.3-16.9,80.9c-43.1,13.9-58.4-31-58.4-31"/>
	<path class="st10" d="M1365.3,392c0,0,6,11.6,16.6,1.1"/>
	<path class="st10" d="M1152.1,299.3c0,0-9.3,97.2,27.7,144.2s97,56,142,15c39.9-36.4,56.7-99,52.8-112.5"/>
	<ellipse class="st3" cx="1209" cy="330.2" rx="11.3" ry="8.7"/>
	<ellipse class="st3" cx="1298.7" cy="337.7" rx="11.3" ry="8.7"/>
	<g id="NyDXuf.tif">
		<g>
			<path class="st11" d="M1348.2,341.8c-0.6,1.9-1.1,3.9-1.8,5.8c-4.1,11.1-12,18.8-22.5,23.9c-12,5.8-24.4,6.6-37,2.3
				c-7.7-2.7-13.4-7.9-17.7-14.7c-2.3-3.7-4.2-7.7-6.3-11.6c-1.2-2.2-2.2-4.6-3.5-6.8c-3.5-5.7-9-6.2-13.5-1.2
				c-1.6,1.8-3,3.9-4.5,5.9c-2.3,3-4.5,6.2-7,9.1c-7.7,9-17.4,13.3-29.4,13.4c-18.7,0-38.1-13-44.2-30.6
				c-3.7-10.7-3.1-21.3,2.4-31.3c2.8-5.2,7.7-8.3,12.8-10.9c12.7-6.3,26.1-9.5,40.2-10.2c22.2-1.2,44.1,0.7,66,4.1
				c12,1.8,23.9,4.5,35.1,9.4c8.2,3.6,15.8,8.1,22.5,14c6,5.3,8.9,12.1,8.9,20.1c0,0.4,0.1,0.8,0.2,1.3
				C1348.7,336.4,1348.5,339.1,1348.2,341.8z M1211.2,303c-15.3-1.4-29.3,10.2-30.7,25.6c-1.4,15.4,10.3,29.4,25.7,30.8
				c15.2,1.4,29.3-10.4,30.7-25.6C1238.2,318.3,1226.6,304.4,1211.2,303z M1325.8,341.6c1.3-15.5-10.3-29.3-25.8-30.7
				c-15.4-1.3-29.3,10.4-30.6,25.8c-1.3,15.3,10.5,29.2,25.8,30.5C1310.5,368.6,1324.5,356.8,1325.8,341.6z"/>
			<g>
				<g>
					<defs>
						<path id="SVGID_5_" d="M1211.2,303c15.4,1.4,27,15.3,25.7,30.7c-1.3,15.2-15.5,27-30.7,25.6c-15.4-1.4-27.1-15.4-25.7-30.8
							C1181.9,313.3,1195.8,301.7,1211.2,303z"/>
					</defs>
					<clipPath id="SVGID_6_">
						<use xlink:href="#SVGID_5_"  style="overflow:visible;"/>
					</clipPath>
					<g class="st13">
					</g>
				</g>
			</g>
			<g>
				<g>
					<defs>
						<path id="SVGID_7_" d="M1325.8,341.6c-1.3,15.2-15.3,27-30.6,25.7c-15.3-1.3-27.1-15.3-25.8-30.5
							c1.3-15.5,15.2-27.2,30.6-25.8C1315.5,312.2,1327.2,326.1,1325.8,341.6z"/>
					</defs>
					<clipPath id="SVGID_8_">
						<use xlink:href="#SVGID_7_"  style="overflow:visible;"/>
					</clipPath>
					<g class="st14">
					</g>
				</g>
			</g>
		</g>
	</g>
	<path class="st11" d="M1173.9,349.5l-21.5-4.3c0,0-7.8-8.1-6.7-19.2c1.1-11.3,7.2-17,7.2-17l22.4-2.2L1173.9,349.5z"/>
	<path class="st11" d="M1329.3,363.3l41.4,5.9c0,0,7.5-6,8-17c0.5-10.9-4.7-16.9-4.7-16.9l-37.1-15.9L1329.3,363.3z"/>
	<g id="okDpIR.tif">
		<g>
			<path class="st15" d="M996.6,216.4c3.1-8.1,6.2-16.1,9.3-24.2c5.9-15.2,11.7-30.4,17.6-45.7c1.4-3.6,1-4.2-2.9-4.2
				c-10.7,0-21.5-0.1-32.2-0.1c-1.1,0-2.1-0.2-3.2-0.3c-0.2-0.3-0.4-0.5-0.5-0.8c27.3-31.9,54.6-63.8,82-95.7
				c0.1,0.1,0.3,0.2,0.4,0.3c-0.3,0.7-0.6,1.5-1,2.2c-10.2,21.1-20.3,42.1-30.5,63.2c-1.6,3.3-1.2,4.1,2.5,4.1c8.9,0,17.7,0,26.6,0
				c0.9,0,1.7,0.4,2.6,0.6c-0.3,0.8-0.4,1.8-0.9,2.5c-22.9,32.5-45.8,64.9-68.7,97.4c-0.2,0.3-0.4,0.5-0.6,0.8
				C996.9,216.5,996.7,216.4,996.6,216.4z"/>
		</g>
	</g>
	<line class="st16" x1="1036.7" y1="191.4" x2="1086" y2="155"/>
	<line class="st16" x1="1044.5" y1="207.6" x2="1089.6" y2="194.1"/>
	<line class="st16" x1="986.5" y1="113.5" x2="1012.3" y2="64"/>
	<line class="st16" x1="969.9" y1="110.5" x2="977.1" y2="70.5"/>
	<path class="st2" d="M1417.3,139.8c-9.3,12.5-6.5,14,0.9,24.2c-2.3-1.6-4.2-3-6.2-4.3c-4.1-2.7-8.1-2.7-12.1,0.1
		c-1.9,1.3-3.7,2.7-6.1,4.4c1.3-2,2.4-3.5,3.3-4.9c3.9-5.8,3.9-8.7-0.1-14.6c-1.1-1.6-2.3-3.1-3.9-5.2c2.2,1.5,4,2.8,5.7,3.9
		c5.5,3.5,8.6,3.4,14-0.4C1414.3,142,1415.8,140.9,1417.3,139.8z"/>
	<path class="st2" d="M1442,196.5c-8.2,6.1-6.7,7.6-4,15.4c-1.2-1.4-2.1-2.7-3.1-3.9c-2-2.5-4.6-3.3-7.6-2.2c-1.4,0.5-2.8,1-4.7,1.6
		c1.2-1,2.1-1.7,3-2.5c3.5-2.9,4.1-4.8,2.7-9.2c-0.4-1.2-0.9-2.4-1.5-4c1.1,1.4,2,2.5,2.9,3.6c2.8,3.2,4.8,3.8,8.8,2.4
		C1439.7,197.3,1440.9,196.9,1442,196.5z"/>
	<path class="st17" d="M1397.5,224.3l18.4-45.7l-42.5,7.8c-2.5-2.9-5.1-5.6-7.7-8c-40-37-84-15-84-15s-41.5-32.4-92.2,1.9
		l-40.6-15.7l9,45.5c-4.7,5.8-9.4,12.2-14.2,19.4c-69,105-34.5,280-34.5,280V454c0-200,164-252,164-252s52.5,17.5,91.5,112.5
		s10.4,313,10.4,313h62l3.6-150C1443,364.4,1423.6,277.6,1397.5,224.3z"/>
	<path class="st2" d="M1043.1,341.6c-2.1-7.1-15.3-8.1-26-7.7c-14.6,0.6-33.2,4-52.3,9.7c-35.6,10.6-70.3,29-66.6,41.2
		c1.6,5.4,10,7.7,22,7.7c6.7,0,14.5-0.7,22.8-2l0.3-2.5c-24.5,4-40.8,2.1-42.6-3.8c-2.5-8.3,23-25.5,64.9-38
		c18.9-5.7,37.3-9.1,51.7-9.6c1.3,0,2.5-0.1,3.7-0.1c11.3,0,18.6,2.1,19.7,5.9c1.2,4.2-4.9,10.8-16.4,17.8
		c-6.3,3.8-13.8,7.5-22.1,11l-0.3,2.9c9-3.7,17-7.6,23.7-11.6C1034.7,356.8,1045.2,348.7,1043.1,341.6z"/>
	<path class="st2" d="M974.5,424.4c-17.6-9.5-35.1-16.7-49.2-20.2c-10.4-2.6-23.5-4.3-27,2.2c-4.9,9.1,14,27.3,38.9,43.3l0.2-2.8
		c-26.4-17-40.2-33-36.9-39.3c1.1-2.1,4.3-3.1,9.1-3.1c4,0,9.1,0.7,15,2.2c14,3.5,31.3,10.5,48.6,19.9
		c38.5,20.8,59.9,42.9,55.8,50.5c-2.1,3.8-11.1,4.2-24.2,0.9c-3.7-0.9-7.6-2.1-11.7-3.5l-0.2,2.7c3.9,1.3,7.7,2.4,11.3,3.3
		c5.1,1.3,10.8,2.3,15.7,2.3c5.2,0,9.5-1.2,11.3-4.5C1037.5,467.1,1007.3,442.1,974.5,424.4z"/>
	<g>
		<g>
			<defs>
				<circle id="SVGID_9_" cx="1268.4" cy="687.8" r="28.2"/>
			</defs>
			<clipPath id="SVGID_10_">
				<use xlink:href="#SVGID_9_"  style="overflow:visible;"/>
			</clipPath>
			<g class="st18">
			</g>
		</g>
	</g>
	<path class="st3" d="M1476.8,424h12.1c0,0,42.8,0.1,42.8,42.8s-37.9,54.7-6.9,97.7c31,43,67,87.2,48.7,129.6
		c-18.3,42.3-63.8,68.6-94.7,68.6c-7.6,0-1.9,0-1.9,0V424z"/>
	<line class="st9" x1="651.8" y1="24.8" x2="651.8" y2="792.8"/>
	<line class="st9" x1="1472.1" y1="24.8" x2="1472.1" y2="792.8"/>
	<g>
	</g>
	<g>
	</g>
	<g>
	</g>
	<g>
	</g>
	<g>
	</g>
	<g>
	</g>
	<g>
	</g>
	<g>
	</g>
	<g>
	</g>
	<g>
	</g>
	<g>
	</g>
</g>
</svg>
