<?xml version="1.0" encoding="utf-8"?>
<!-- Generator: Adobe Illustrator 21.0.0, SVG Export Plug-In . SVG Version: 6.00 Build 0)  -->
<svg version="1.1" id="Layer_1" xmlns="http://www.w3.org/2000/svg" xmlns:xlink="http://www.w3.org/1999/xlink" x="0px" y="0px"
	 viewBox="0 0 478.9 478.9" style="enable-background:new 0 0 478.9 478.9;" xml:space="preserve">
<style type="text/css">
	.st0{clip-path:url(#SVGID_2_);}
	.st1{fill:#F5C26B;}
	.st2{fill:#33475B;}
	.st3{fill:#D19781;}
	.st4{fill:#E0BAAB;}
	.st5{fill:#AE7E6B;}
	.st6{fill:#D9A896;}
	.st7{fill:none;}
</style>
<g id="Idle_3_">
	<g>
		<g>
			<defs>
				<circle id="SVGID_1_" cx="239.5" cy="239.5" r="239.5"/>
			</defs>
			<clipPath id="SVGID_2_">
				<use xlink:href="#SVGID_1_"  style="overflow:visible;"/>
			</clipPath>
			<g class="st0">
				<g>
					<g>
						<g id="XMLID_2_">
							<g>
								<path d="M384.4,403.7v96.2c0,2.2-1.8,4-4,4h-70.6c2.2,0,4-1.8,4-4h66.6v-96.2c0-69.4-56.2-125.6-125.6-125.6h-30.7
									c-69.4,0-125.6,56.2-125.6,125.6v96.2h66.6c0,2.2,1.8,4,4,4H98.5c-2.2,0-4-1.8-4-4v-96.2c0-71.5,58.1-129.6,129.6-129.6
									h30.7C326.2,274.1,384.4,332.2,384.4,403.7z"/>
								<path d="M380.4,403.7v96.2h-66.6v-4h62.6v-92.2c0-67-54.5-121.6-121.6-121.6h-30.7c-67,0-121.6,54.5-121.6,121.6v92.2h62.6
									v4H98.5v-96.2c0-69.4,56.2-125.6,125.6-125.6h30.7C324.1,278.1,380.4,334.3,380.4,403.7z"/>
								<path class="st1" d="M376.4,403.7v92.2h-62.6v-62.9c0-2.2-1.8-4-4-4c-2.2,0-4,1.8-4,4v62.9H173.1v-62.9c0-2.2-1.8-4-4-4
									s-4,1.8-4,4v62.9h-62.6v-92.2c0-67,54.5-121.6,121.6-121.6h30.7C321.8,282.1,376.4,336.7,376.4,403.7z"/>
								<rect x="309.8" y="495.9" class="st2" width="4" height="4"/>
								<path d="M309.8,495.9h-4v-62.9c0-2.2,1.8-4,4-4c2.2,0,4,1.8,4,4v62.9H309.8z"/>
								<path class="st2" d="M309.8,499.9h4c0,2.2-1.8,4-4,4c-2.2,0-4-1.8-4-4H309.8z"/>
								<rect x="305.8" y="495.9" class="st2" width="4" height="4"/>
								<path class="st2" d="M309.8,503.9H169.1c2.2,0,4-1.8,4-4h132.7C305.8,502.1,307.6,503.9,309.8,503.9z"/>
								<rect x="173.1" y="495.9" class="st2" width="132.7" height="4"/>
								<rect x="169.1" y="495.9" class="st2" width="4" height="4"/>
								<path d="M169.1,495.9h-4v-62.9c0-2.2,1.8-4,4-4s4,1.8,4,4v62.9H169.1z"/>
								<path class="st2" d="M169.1,499.9h4c0,2.2-1.8,4-4,4s-4-1.8-4-4H169.1z"/>
								<rect x="165.1" y="495.9" class="st2" width="4" height="4"/>
							</g>
							<g>
							</g>
						</g>
					</g>
				</g>
			</g>
		</g>
	</g>
</g>
<g>
	<g id="XMLID_1_">
		<g>
			<path d="M334.5,170.1c11.7,2,20.7,12.2,20.7,24.6c0,12.3-9,22.6-20.7,24.5c0-0.4,0-0.9,0-1.3v-2.7c9.5-2,16.7-10.4,16.7-20.5
				c0-10.1-7.2-18.5-16.7-20.5v-2.7V170.1z"/>
			<path d="M334.5,174.1c9.5,2,16.7,10.4,16.7,20.5c0,10.1-7.2,18.5-16.7,20.5V211c7.3-1.9,12.7-8.5,12.7-16.4
				c0-7.9-5.4-14.5-12.7-16.4V174.1z"/>
			<path class="st3" d="M334.5,178.2c7.3,1.9,12.7,8.5,12.7,16.4c0,7.9-5.4,14.5-12.7,16.4v-16.4V178.2z"/>
			<path d="M334.5,215.1v2.7c0,0.4,0,0.9,0,1.3c-1.3,0.2-2.6,0.4-4,0.4c0-0.6,0-1.1,0-1.7v-2.3C331.8,215.5,333.2,215.4,334.5,215.1
				z"/>
			<path d="M334.5,211v4.1c-1.3,0.3-2.6,0.4-4,0.4v-4C331.8,211.5,333.2,211.3,334.5,211z"/>
			<path d="M334.5,194.6V211c-1.3,0.3-2.6,0.5-4,0.5v-12.9c0.1,0,0.3,0,0.4,0C332.9,198.4,334.5,196.7,334.5,194.6z"/>
			<path d="M334.5,174.1v4.1c-1.3-0.3-2.6-0.5-4-0.5v-4C331.8,173.7,333.2,173.8,334.5,174.1z"/>
			<path d="M334.5,171.4v2.7c-1.3-0.3-2.6-0.4-4-0.4v-2.3v-1.7c1.4,0,2.7,0.1,4,0.4C334.5,170.5,334.5,170.9,334.5,171.4z"/>
			<path class="st2" d="M334.5,170.1v1.3C334.5,170.9,334.5,170.5,334.5,170.1C334.4,170,334.4,170,334.5,170.1z"/>
			<path d="M334.5,145v25c0,0,0,0,0,0c-0.1-9-1.5-17.8-4-26.1c-0.3-22.8-9.6-43.3-24.6-58.3c-15.2-15.2-36.1-24.6-59.3-24.6H174
				c-14.7,0-28.8-5.8-39.2-16.2l-2.7-2.7c-6-6-16.4-1.8-16.4,6.8v12.1v24c0,23.7,13.8,44.2,33.7,53.9c-0.5,1.3-0.9,2.5-1.3,3.8
				c-21.5-10.3-36.4-32.3-36.4-57.7V49c0-5.6,3.2-10.4,8.4-12.6c5.2-2.1,10.9-1,14.8,2.9l2.7,2.7c9.7,9.7,22.6,15,36.3,15h72.5
				C295,57.1,334.5,96.6,334.5,145z"/>
			<path d="M330.5,198.6v-4v-16.9c1.4,0,2.7,0.2,4,0.5v16.4c0,2.1-1.6,3.8-3.6,4C330.7,198.6,330.6,198.6,330.5,198.6z"/>
			<path d="M334.4,170.1c-1.3-0.2-2.6-0.4-4-0.4V145c0-0.3,0-0.7,0-1C332.9,152.3,334.3,161,334.4,170.1z"/>
			<path d="M330.5,215.5v2.3c0,0.6,0,1.1,0,1.7c-0.1,0-0.1,0-0.2,0c-1.3,0-2.5-0.1-3.8-0.3c0-0.5,0-0.9,0-1.4v-2.7
				c1.2,0.2,2.5,0.3,3.8,0.3C330.3,215.5,330.4,215.5,330.5,215.5z"/>
			<path d="M330.5,211.5v4c-0.1,0-0.2,0-0.2,0c-1.3,0-2.5-0.1-3.8-0.3v-4.1c1.2,0.3,2.5,0.4,3.8,0.4
				C330.3,211.5,330.4,211.5,330.5,211.5z"/>
			<path d="M330.5,194.6v4h0c-1.9,0-3.5-1.3-3.9-3.2l-0.1-0.4v-16.9c0.2-0.1,0.4-0.1,0.6-0.1L330.5,194.6z"/>
			<path d="M330.5,177.7v16.9l-3.4-16.6c1-0.2,2.1-0.3,3.1-0.3C330.3,177.7,330.4,177.7,330.5,177.7z"/>
			<path d="M330.5,173.7v4c-0.1,0-0.2,0-0.2,0c-1.1,0-2.1,0.1-3.1,0.3l-0.6-2.7c0-0.1,0-0.2-0.1-0.3V174c1.2-0.2,2.5-0.3,3.8-0.3
				C330.3,173.7,330.4,173.7,330.5,173.7z"/>
			<path d="M330.5,171.4v2.3c-0.1,0-0.2,0-0.2,0c-1.3,0-2.5,0.1-3.8,0.3v-2.6c0-0.5,0-0.9,0-1.4c1.2-0.2,2.5-0.3,3.8-0.3
				c0.1,0,0.1,0,0.2,0C330.4,170.2,330.5,170.8,330.5,171.4z"/>
			<path class="st2" d="M330.5,169.7v1.7C330.5,170.8,330.4,170.2,330.5,169.7C330.4,169.7,330.4,169.7,330.5,169.7z"/>
			<path d="M330.5,145v24.7c0,0,0,0,0,0c-0.1-8.7-1.5-17.2-4-25.1c0-4.9-0.5-9.8-1.4-14.4c2.1,4.5,4,9.1,5.4,13.9
				C330.5,144.4,330.5,144.7,330.5,145z"/>
			<path d="M330.5,198.6v12.9c-0.1,0-0.2,0-0.2,0c-1.3,0-2.6-0.2-3.8-0.4V195l0.1,0.4C326.9,197.3,328.6,198.6,330.5,198.6
				L330.5,198.6z"/>
			<path d="M330.4,169.7c-0.1,0-0.1,0-0.2,0c-1.3,0-2.5,0.1-3.8,0.3c0-2.5-0.2-5-0.4-7.5c0.2,0.3,0.3,0.5,0.5,0.8V145
				c0-0.2,0-0.3,0-0.5C328.9,152.5,330.3,160.9,330.4,169.7z"/>
			<path d="M330.4,219.5c-0.9,49.7-41.4,89.6-91.3,89.6s-90.4-40-91.3-89.6c1.4,0,2.7-0.1,4-0.3c0.7,47.5,39.6,86,87.3,86
				c24.1,0,45.9-9.8,61.7-25.6c15.5-15.5,25.2-36.8,25.6-60.3c1.2,0.2,2.5,0.3,3.8,0.3C330.3,219.5,330.4,219.5,330.4,219.5z"/>
			<path d="M326.5,175.3l0.6,2.7c-0.2,0-0.4,0.1-0.6,0.1v-3.2C326.5,175.1,326.5,175.2,326.5,175.3z"/>
			<path class="st4" d="M326.5,215.2v2.7c0,0.5,0,0.9,0,1.4c-11.9-1.8-21.1-12.2-21.1-24.6c0-10.6,6.6-19.7,16-23.2
				c0.5,1.2,0.8,2.5,1.1,3.8c-7.7,3.1-13.1,10.6-13.1,19.4C309.3,204.9,316.7,213.4,326.5,215.2z"/>
			<path class="st4" d="M326.5,211.1v4.1c-9.8-1.8-17.2-10.3-17.2-20.6c0-8.8,5.4-16.3,13.1-19.4c0.1,0.3,0.1,0.6,0.2,0.9l0.6,3.1
				c-5.9,2.7-9.9,8.6-9.9,15.4C313.3,202.6,318.9,209.4,326.5,211.1z"/>
			<path class="st4" d="M326.5,195v16.1c-7.5-1.7-13.2-8.5-13.2-16.5c0-6.8,4.1-12.8,9.9-15.4L326.5,195z"/>
			<path d="M326.5,178.1V195l-3.2-15.8C324.3,178.7,325.3,178.4,326.5,178.1z"/>
			<path d="M326.5,174.9v3.2c-1.1,0.2-2.2,0.6-3.2,1.1l-0.6-3.1c-0.1-0.3-0.1-0.6-0.2-0.9c1.2-0.5,2.5-0.9,3.8-1.1
				C326.3,174.4,326.4,174.6,326.5,174.9z"/>
			<path class="st2" d="M326.5,174v0.9c-0.1-0.3-0.1-0.6-0.2-0.9C326.3,174,326.4,174,326.5,174z"/>
			<path class="st2" d="M326.5,171.4v2.6c-0.1,0-0.1,0-0.2,0c-0.3-1.3-0.7-2.6-1.1-3.8c0.4-0.1,0.9-0.2,1.3-0.2
				C326.5,170.4,326.5,170.9,326.5,171.4z"/>
			<path d="M326,162.5c0.2,2.5,0.4,5,0.4,7.5c-0.4,0.1-0.9,0.1-1.3,0.2c-2.3-6.6-6.4-12.4-11.7-16.7c-6.5-5.4-14.9-8.5-23.9-8.5
				H175.7c-6.6,0-12.9-1-18.8-3c0.4-1.3,0.9-2.5,1.4-3.8c5.5,1.8,11.3,2.8,17.3,2.8h113.9C305,141,318.8,149.6,326,162.5z"/>
			<path d="M330.4,144c-1.4-4.8-3.2-9.4-5.4-13.9c-7-36.9-39.6-64.9-78.5-64.9H174c-15.9,0-30.8-6.2-42-17.4l-2.7-2.7
				c-1.3-1.3-2.7-1.7-3.9-1.7c-1,0-1.9,0.3-2.2,0.5c-0.8,0.3-3.5,1.7-3.5,5.2v36.1c0,22,12.7,41,31.2,50.1c-0.5,1.2-1,2.5-1.4,3.8
				c-20-9.7-33.7-30.2-33.7-53.9v-24V49c0-8.5,10.3-12.8,16.4-6.8l2.7,2.7c10.4,10.4,24.5,16.2,39.2,16.2h72.5
				c23.2,0,44.1,9.4,59.3,24.6C320.8,100.7,330.2,121.2,330.4,144z"/>
			<path d="M325.1,170.2c0.5,1.2,0.8,2.5,1.1,3.8c-1.3,0.2-2.6,0.6-3.8,1.1c-0.3-1.3-0.7-2.6-1.1-3.8
				C322.5,170.9,323.8,170.5,325.1,170.2z"/>
			<path class="st5" d="M325,130.1c0.9,4.7,1.4,9.5,1.4,14.4c-4.3-14.1-11.9-26.7-22-36.9c-5.3-7.9-12.1-14.7-19.8-19.9
				C302.2,97.2,316.4,112.1,325,130.1z"/>
			<path d="M325.1,170.2c-1.3,0.3-2.6,0.6-3.8,1.1c-4.7-13.2-17.4-22.3-31.7-22.3H175.7c-7,0-13.7-1.1-20-3.2
				c0.4-1.3,0.8-2.5,1.3-3.8c5.9,2,12.2,3,18.8,3h113.9c9,0,17.3,3.2,23.9,8.5C318.7,157.9,322.8,163.6,325.1,170.2z"/>
			<path class="st4" d="M321.3,171.4c-9.3,3.6-16,12.7-16,23.2c0,12.4,9.2,22.8,21.1,24.6c-0.4,23.5-10.1,44.8-25.6,60.3
				c-15.8,15.8-37.6,25.6-61.7,25.6c-47.7,0-86.6-38.4-87.3-86c11.8-1.9,20.9-12.2,20.9-24.6c0-12.4-9.1-22.7-20.9-24.6
				c0.1-8.4,1.4-16.5,3.8-24.2c6.3,2.1,13,3.2,20,3.2h113.9C303.9,149,316.5,158.2,321.3,171.4z M305.5,233.8c0-2.2-1.8-4.1-4.1-4.1
				s-4.1,1.8-4.1,4.1s1.8,4.1,4.1,4.1S305.5,236,305.5,233.8z M301.4,221.5c0-2.2-1.8-4.1-4.1-4.1s-4.1,1.8-4.1,4.1s1.8,4.1,4.1,4.1
				S301.4,223.8,301.4,221.5z M291.8,231.5c0-2.2-1.8-4.1-4.1-4.1s-4.1,1.8-4.1,4.1s1.8,4.1,4.1,4.1S291.8,233.7,291.8,231.5z
				 M246.5,227.6c0-2.2-1.8-4-4-4h-1.2l-6.5-22.1l1.8-5.8c0.7-2.1-0.5-4.4-2.7-5c-2.1-0.6-4.4,0.5-5,2.6l-7.2,23.6
				c-1.1,3.5-0.4,7.1,1.7,10.1c2.1,2.9,5.5,4.6,9.1,4.6h9.9C244.7,231.6,246.5,229.9,246.5,227.6z M185,228.4c0-2.3-1.8-4.1-4.1-4.1
				s-4.1,1.8-4.1,4.1c0,2.2,1.8,4.1,4.1,4.1S185,230.6,185,228.4z M176.9,218.8c0-2.2-1.8-4.1-4.1-4.1s-4.1,1.8-4.1,4.1
				s1.8,4.1,4.1,4.1S176.9,221,176.9,218.8z"/>
			<path class="st5" d="M326,162.5c-7.2-12.9-21-21.5-36.4-21.5H175.7c-6,0-11.9-1-17.3-2.8c1.3-3.3,2.9-6.4,4.6-9.5
				c5.5,2,11.4,3,17.5,3h25.7c2.2,0,4-1.8,4-4c0-2.2-1.8-4-4-4h-25.7c-4.6,0-9-0.7-13.2-2c15.8-22.8,42.1-37.8,71.8-37.8
				c14.9,0,29,3.8,41.3,10.4c8.9,6.1,16.4,14.5,21.5,24.6c0.7,1.4,2.1,2.2,3.6,2.2c0.6,0,1.2-0.1,1.8-0.4c0.7-0.4,1.3-1,1.7-1.7
				C318.3,131.5,324.4,146.3,326,162.5z"/>
			<path class="st5" d="M304.5,107.6c10,10.3,17.6,22.9,22,36.9c0,0.2,0,0.3,0,0.5v18.2c-0.1-0.3-0.3-0.5-0.5-0.8
				c-1.6-16.2-7.7-31-17-43.4c0.6-1.1,0.7-2.5,0-3.7C307.7,112.7,306.1,110.1,304.5,107.6z"/>
			<path class="st5" d="M325,130.1c-8.7-18-22.9-32.9-40.4-42.4c-12.2-8.3-26.8-13-42.2-13c-1.2,0-2.3,0.5-3,1.4c-0.1,0-0.2,0-0.3,0
				c-3.6,0-7.1,0.2-10.5,0.6c-0.7-1.2-2-2-3.4-2h-24.5c-2.2,0-4,1.8-4,4s1.8,4,4,4h3.6c-18.2,7.2-33.7,19.9-44.5,36
				c-8.8-4.7-15.8-12.5-19.7-22.2c-0.8-2-3.1-3-5.2-2.2s-3.1,3.1-2.2,5.2c4.5,11.4,12.8,20.5,23,26.1c-1.7,3.1-3.3,6.4-4.7,9.8
				c-18.5-9.1-31.2-28.2-31.2-50.1V49c0-3.5,2.7-4.8,3.5-5.2c0.4-0.2,1.2-0.5,2.2-0.5c1.2,0,2.6,0.4,3.9,1.7l2.7,2.7
				c11.2,11.2,26.1,17.4,42,17.4h72.5C285.5,65.1,318,93.2,325,130.1z"/>
			<path class="st6" d="M309,119.1c-0.4,0.7-0.9,1.3-1.7,1.7c-0.6,0.3-1.2,0.4-1.8,0.4c-1.5,0-2.9-0.8-3.6-2.2
				c-5.2-10.1-12.6-18.4-21.5-24.6C291.7,100.5,301.4,109,309,119.1z"/>
			<circle class="st3" cx="301.4" cy="233.8" r="4.1"/>
			<path class="st6" d="M304.5,107.6c-0.2-0.3-0.5-0.5-0.8-0.8c-16.5-16.5-39.4-26.7-64.6-26.7c-0.1,0-0.3,0-0.4,0
				c-0.2-0.4-0.2-0.9-0.2-1.4c0-1,0.4-1.9,1-2.6c16.4,0.1,31.8,4.2,45.3,11.6C292.4,92.9,299.1,99.7,304.5,107.6z"/>
			<circle class="st3" cx="297.4" cy="221.5" r="4.1"/>
			<circle class="st3" cx="287.7" cy="231.5" r="4.1"/>
			<path class="st6" d="M242.4,74.7c15.4,0,30,4.7,42.2,13c-13.5-7.3-28.9-11.5-45.3-11.6C240.1,75.2,241.2,74.7,242.4,74.7z"/>
			<path class="st6" d="M280.4,94.5c-10.9-7.5-24.1-11.8-38-11.8c-1.7,0-3.2-1.1-3.8-2.6c0.2,0,0.3,0,0.4,0
				c25.2,0,48,10.2,64.6,26.7c0.3,0.3,0.5,0.5,0.8,0.8c1.7,2.5,3.2,5.1,4.6,7.8c0.6,1.2,0.6,2.6,0,3.7
				C301.4,109,291.7,100.5,280.4,94.5z"/>
			<path d="M242.5,223.6c2.2,0,4,1.8,4,4c0,2.2-1.8,4-4,4h-9.9c-3.6,0-6.9-1.7-9.1-4.6c-2.2-2.9-2.8-6.6-1.7-10.1l7.2-23.6
				c0.6-2.1,2.9-3.3,5-2.6c2.1,0.6,3.3,2.9,2.7,5l-1.8,5.8l-2.1-7l-7.2,23.6c-1.4,4.7,2.1,9.5,7,9.5h9.9l-1.2-4H242.5z"/>
			<path d="M241.3,223.6l1.2,4h-9.9c-4.9,0-8.4-4.8-7-9.5l7.2-23.6l2.1,7l-5.4,17.8c-0.3,1-0.1,2.1,0.5,2.9c0.6,0.9,1.6,1.3,2.7,1.3
				H241.3z"/>
			<path class="st4" d="M234.8,201.6l6.5,22.1h-8.7c-1.1,0-2-0.5-2.7-1.3c-0.6-0.9-0.8-1.9-0.5-2.9L234.8,201.6z"/>
			<path class="st5" d="M239.1,76.1c0.1,0,0.2,0,0.3,0c-0.6,0.7-1,1.6-1,2.6c0,0.5,0.1,1,0.2,1.4c-3.4,0-6.7,0.2-10,0.6
				c0.3-0.6,0.5-1.3,0.5-2c0-0.7-0.2-1.4-0.6-2C232.1,76.3,235.6,76.1,239.1,76.1z"/>
			<path class="st6" d="M228.6,76.7c0.4,0.6,0.6,1.3,0.6,2c0,0.7-0.2,1.4-0.5,2c-3.8,0.4-7.6,1.1-11.3,2h-13.1
				C211.9,79.7,220.1,77.6,228.6,76.7z"/>
			<path class="st6" d="M228.7,80.7c-0.7,1.2-2,2-3.5,2h-7.8C221.1,81.8,224.8,81.1,228.7,80.7z"/>
			<path class="st5" d="M239.1,84.1c-29.8,0-56.1,15-71.8,37.8c-1.3-0.4-2.6-0.9-3.9-1.5c12.5-18.5,31.7-32.2,54-37.7h7.8
				c1.5,0,2.8-0.8,3.5-2c3.3-0.4,6.6-0.6,10-0.6c0.6,1.5,2,2.6,3.8,2.6c13.9,0,27,4.2,38,11.8C268.1,87.8,254.1,84.1,239.1,84.1z"/>
			<path class="st6" d="M225.2,74.7c1.5,0,2.8,0.8,3.4,2c-8.5,0.9-16.7,3-24.4,6h-3.6c-2.2,0-4-1.8-4-4s1.8-4,4-4H225.2z"/>
			<path class="st5" d="M204.2,82.7h13.1c-22.4,5.5-41.5,19.2-54,37.7c-1.2-0.5-2.4-1.1-3.6-1.7C170.5,102.6,186,89.9,204.2,82.7z"
				/>
			<path d="M206.1,123.8c2.2,0,4,1.8,4,4c0,2.2-1.8,4-4,4h-25.7c-6.1,0-12-1.1-17.5-3c1.3-2.4,2.8-4.7,4.4-7c4.2,1.3,8.6,2,13.2,2
				H206.1z"/>
			<path class="st3" d="M181,224.3c2.2,0,4.1,1.8,4.1,4.1c0,2.2-1.8,4.1-4.1,4.1s-4.1-1.8-4.1-4.1
				C176.9,226.1,178.7,224.3,181,224.3z"/>
			<ellipse class="st3" cx="172.8" cy="218.8" rx="4.1" ry="4.1"/>
			<path class="st4" d="M151.9,170c11.8,1.9,20.9,12.2,20.9,24.6c0,12.4-9.1,22.7-20.9,24.6c0-0.4,0-0.9,0-1.4v-2.7
				c9.6-1.9,16.9-10.4,16.9-20.5c0-10.2-7.3-18.7-16.9-20.5v-2.7C151.8,170.9,151.8,170.5,151.9,170z"/>
			<path d="M163.4,120.4c1.3,0.6,2.6,1,3.9,1.5c-1.6,2.2-3,4.6-4.4,7c-1.3-0.4-2.5-1-3.8-1.5C160.5,124.9,161.9,122.6,163.4,120.4z"
				/>
			<path class="st4" d="M151.8,174.1c9.6,1.9,16.9,10.4,16.9,20.5c0,10.2-7.3,18.7-16.9,20.5V211c7.4-1.8,12.9-8.5,12.9-16.4
				c0-8-5.5-14.6-12.9-16.4V174.1z"/>
			<path class="st4" d="M151.8,178.2c7.4,1.8,12.9,8.5,12.9,16.4c0,7.9-5.5,14.6-12.9,16.4V178.2z"/>
			<path d="M159.8,118.7c1.2,0.6,2.4,1.2,3.6,1.7c-1.5,2.2-2.9,4.5-4.2,6.9c-1.2-0.5-2.4-1.1-3.6-1.8
				C156.9,123.2,158.3,120.9,159.8,118.7z"/>
			<path class="st5" d="M159.2,127.3c1.2,0.6,2.5,1.1,3.8,1.5c-1.7,3.1-3.2,6.2-4.6,9.5c-1.3-0.4-2.5-0.9-3.8-1.4
				C155.9,133.6,157.4,130.4,159.2,127.3z"/>
			<path d="M140.1,96.5c3.9,9.7,10.9,17.5,19.7,22.2c-1.5,2.2-2.9,4.5-4.2,6.8c-10.2-5.6-18.4-14.7-23-26.1c-0.8-2,0.2-4.4,2.2-5.2
				S139.2,94.4,140.1,96.5z"/>
			<path d="M158.4,138.3c-0.5,1.2-1,2.5-1.4,3.8c-1.3-0.4-2.5-0.9-3.8-1.4c0.4-1.3,0.9-2.5,1.4-3.8
				C155.8,137.4,157.1,137.9,158.4,138.3z"/>
			<path class="st5" d="M155.6,125.5c1.2,0.6,2.3,1.2,3.6,1.8c-1.7,3.1-3.3,6.3-4.6,9.6c-1.2-0.5-2.4-1-3.6-1.6
				C152.3,131.9,153.9,128.6,155.6,125.5z"/>
			<path d="M156.9,142c-0.5,1.2-0.9,2.5-1.3,3.8c-1.3-0.4-2.5-0.9-3.8-1.4c0.4-1.3,0.8-2.5,1.3-3.8
				C154.4,141.2,155.6,141.6,156.9,142z"/>
			<path d="M154.6,136.9c-0.5,1.2-1,2.5-1.4,3.8c-1.2-0.5-2.5-1-3.6-1.6c0.4-1.3,0.9-2.5,1.4-3.8
				C152.1,135.9,153.3,136.4,154.6,136.9z"/>
			<path d="M151.9,144.4c1.2,0.5,2.5,1,3.8,1.4c-2.4,7.7-3.7,15.8-3.8,24.2c-1.3-0.2-2.6-0.3-4-0.3
				C148,160.9,149.4,152.4,151.9,144.4z"/>
			<path d="M153.1,140.6c-0.5,1.2-0.9,2.5-1.3,3.8c-1.2-0.5-2.5-1-3.7-1.6c0.4-1.3,0.8-2.6,1.3-3.8
				C150.7,139.6,151.9,140.2,153.1,140.6z"/>
			<path d="M151.9,170c0,0.5,0,0.9,0,1.4v2.7c-1.3-0.2-2.6-0.4-4-0.4v-2.3c0-0.6,0-1.1,0-1.7C149.2,169.7,150.6,169.8,151.9,170z"/>
			<path d="M151.8,217.8c0,0.4,0,0.9,0,1.4c-1.3,0.2-2.6,0.3-4,0.3c0-0.6,0-1.1,0-1.7v-2.3c1.4,0,2.7-0.1,4-0.4V217.8z"/>
			<path d="M151.8,211v4.1c-1.3,0.2-2.6,0.4-4,0.4v-4C149.2,211.5,150.6,211.4,151.8,211z"/>
			<path d="M151.8,178.2V211c-1.3,0.3-2.6,0.5-4,0.5v-33.8C149.2,177.7,150.6,177.9,151.8,178.2z"/>
			<path d="M151.8,174.1v4.1c-1.3-0.3-2.6-0.5-4-0.5v-4C149.2,173.7,150.5,173.8,151.8,174.1z"/>
			<path d="M148.2,142.8c1.2,0.6,2.4,1.1,3.7,1.6c-2.5,8-3.9,16.5-4,25.2c0,0,0,0,0,0c-1.4,0-2.7,0.1-4,0.3
				C144,160.6,145.5,151.4,148.2,142.8z"/>
			<path d="M147.9,169.7c0,0.6,0,1.1,0,1.7v2.3c-1.4,0-2.7,0.1-4,0.4v-2.7c0-0.5,0-0.9,0-1.4C145.1,169.8,146.5,169.7,147.9,169.7
				C147.8,169.7,147.8,169.7,147.9,169.7z"/>
			<path d="M147.9,219.5c0.9,49.7,41.4,89.6,91.3,89.6s90.4-40,91.3-89.6c1.4,0,2.7-0.1,4-0.4c-0.7,51.9-43.2,94-95.3,94
				c-52.1,0-94.6-42-95.3-93.9C145.1,219.4,146.5,219.5,147.9,219.5C147.8,219.5,147.8,219.5,147.9,219.5z"/>
			<path d="M147.8,219.5c-1.4,0-2.7-0.1-4-0.3c0-0.5,0-0.9,0-1.4v-2.7c1.3,0.2,2.6,0.4,4,0.4v2.3C147.8,218.4,147.8,219,147.8,219.5
				C147.8,219.5,147.8,219.5,147.8,219.5z"/>
			<path d="M147.8,211.5v4c-1.4,0-2.7-0.1-4-0.4V211C145.1,211.4,146.4,211.5,147.8,211.5z"/>
			<path d="M147.8,177.7v33.8c-1.4,0-2.7-0.2-4-0.5v-32.9C145.1,177.9,146.4,177.7,147.8,177.7z"/>
			<path d="M147.8,173.7v4c-1.4,0-2.7,0.2-4,0.5v-4.1C145.1,173.8,146.5,173.7,147.8,173.7z"/>
			<path d="M143.9,170c0,0.5,0,0.9,0,1.4v2.7c-9.6,1.9-16.9,10.4-16.9,20.5c0,10.2,7.3,18.7,16.9,20.5v2.7c0,0.5,0,0.9,0,1.4
				c-11.9-1.9-20.9-12.2-20.9-24.6S132,171.9,143.9,170z"/>
			<path d="M143.8,211v4.1c-9.6-1.9-16.9-10.4-16.9-20.5c0-10.2,7.3-18.7,16.9-20.5v4.1c-7.4,1.8-12.9,8.5-12.9,16.4
				C130.9,202.6,136.4,209.2,143.8,211z"/>
			<path class="st3" d="M143.8,178.2V211c-7.4-1.8-12.9-8.5-12.9-16.4C130.9,186.6,136.4,180,143.8,178.2z"/>
		</g>
		<g>
		</g>
	</g>
</g>
<path d="M206.1,194.6c0,6.2-5.1,11.2-11.2,11.2c-6.2,0-11.2-5.1-11.2-11.2c0-6.2,5-11.2,11.2-11.2c1,0,2.1,0.1,3.1,0.5
	c-1.3,0.9-2,2.5-2,4.2c0,3.1,2.5,5.5,5.5,5.5c1.8,0,3.3-0.8,4.3-2C206,192.5,206.1,193.5,206.1,194.6z"/>
<path d="M294.6,194.6c0,6.2-5.1,11.2-11.2,11.2s-11.2-5.1-11.2-11.2c0-6.2,5-11.2,11.2-11.2c1,0,2.1,0.1,3.1,0.5
	c-1.3,0.9-2,2.5-2,4.2c0,3.1,2.5,5.5,5.5,5.5c1.8,0,3.3-0.8,4.3-2C294.4,192.5,294.6,193.5,294.6,194.6z"/>
<path d="M179.9,181.3c-0.9,0-1.9-0.3-2.6-1c-1.7-1.5-1.8-4-0.4-5.6c8.5-9.8,22.3-13.2,34.4-8.6c2.1,0.8,3.1,3.1,2.3,5.2
	s-3.1,3.1-5.2,2.3c-9-3.4-19.3-0.8-25.6,6.4C182.1,180.9,181,181.3,179.9,181.3z"/>
<path d="M298.4,181.3c-1.1,0-2.2-0.5-3-1.4c-6.3-7.2-16.6-9.8-25.6-6.4c-2.1,0.8-4.4-0.3-5.2-2.3c-0.8-2.1,0.3-4.4,2.3-5.2
	c12.1-4.6,25.9-1.1,34.4,8.6c1.5,1.7,1.3,4.2-0.4,5.6C300.2,181,299.3,181.3,298.4,181.3z"/>
<path d="M239.2,259.4c-7.4,0-14.7-1.9-21.1-5.5c-1.9-1.1-2.6-3.5-1.5-5.4s3.5-2.6,5.4-1.5c5.2,2.9,11.2,4.5,17.2,4.5
	c6.1,0,12-1.5,17.2-4.5c1.9-1.1,4.4-0.4,5.5,1.5c1.1,1.9,0.4,4.4-1.5,5.5C253.9,257.5,246.6,259.4,239.2,259.4z"/>
<circle class="st7" cx="-318.5" cy="219.5" r="239.5"/>
<g>
	<path d="M238.5,7c31.2,0,61.6,6.1,90.1,18.2c27.6,11.7,52.3,28.3,73.6,49.6c21.3,21.3,37.9,46,49.6,73.6
		c12.1,28.5,18.2,58.8,18.2,90.1s-6.1,61.6-18.2,90.1c-11.7,27.6-28.3,52.3-49.6,73.6c-21.3,21.3-46,37.9-73.6,49.6
		c-28.5,12.1-58.8,18.2-90.1,18.2s-61.6-6.1-90.1-18.2c-27.6-11.7-52.3-28.3-73.6-49.6c-21.3-21.3-37.9-46-49.6-73.6
		C13.1,300,7,269.7,7,238.5s6.1-61.6,18.2-90.1C36.8,120.8,53.5,96,74.8,74.8c21.3-21.3,46-37.9,73.6-49.6
		C176.9,13.1,207.2,7,238.5,7 M238.5-1C106.2-1-1,106.2-1,238.5s107.2,239.5,239.5,239.5s239.5-107.2,239.5-239.5S370.7-1,238.5-1
		L238.5-1z"/>
</g>
</svg>
