<?xml version="1.0" encoding="utf-8"?>
<!-- Generator: Adobe Illustrator 21.0.0, SVG Export Plug-In . SVG Version: 6.00 Build 0)  -->
<svg version="1.1" id="Layer_1" xmlns="http://www.w3.org/2000/svg" xmlns:xlink="http://www.w3.org/1999/xlink" x="0px" y="0px"
	 viewBox="0 0 478.9 478.9" style="enable-background:new 0 0 478.9 478.9;" xml:space="preserve">
<style type="text/css">
	.st0{clip-path:url(#SVGID_2_);}
	.st1{fill:#7FD1DE;stroke:#000000;stroke-width:8;stroke-linecap:round;stroke-linejoin:round;stroke-miterlimit:10;}
	.st2{fill:none;stroke:#000000;stroke-width:8;stroke-linecap:round;stroke-linejoin:round;stroke-miterlimit:10;}
	.st3{fill:#C69967;stroke:#010202;stroke-width:8;stroke-linecap:round;stroke-linejoin:round;stroke-miterlimit:10;}
	.st4{stroke:#000000;stroke-width:8;stroke-linecap:round;stroke-linejoin:round;stroke-miterlimit:10;}
	.st5{fill:#DBAE60;stroke:#010202;stroke-width:8;stroke-linecap:round;stroke-linejoin:round;stroke-miterlimit:10;}
	.st6{fill:#DBAE60;stroke:#000000;stroke-width:8;stroke-linecap:round;stroke-linejoin:round;stroke-miterlimit:10;}
	.st7{fill:#E5BC89;stroke:#000000;stroke-width:8;stroke-linecap:round;stroke-linejoin:round;stroke-miterlimit:10;}
</style>
<g id="Idle_1_">
	<g>
		<g>
			<defs>
				<circle id="SVGID_1_" cx="239.5" cy="239.5" r="239.5"/>
			</defs>
			<clipPath id="SVGID_2_">
				<use xlink:href="#SVGID_1_"  style="overflow:visible;"/>
			</clipPath>
			<g class="st0">
				<path class="st1" d="M224.1,278.1h30.7c69.4,0,125.6,56.2,125.6,125.6v96.2H98.5v-96.2C98.5,334.3,154.8,278.1,224.1,278.1z"/>
				<g>
					<g>
						<line class="st2" x1="169.1" y1="499.9" x2="169.1" y2="433.1"/>
					</g>
					<g>
						<line class="st2" x1="309.8" y1="499.9" x2="309.8" y2="433.1"/>
					</g>
				</g>
			</g>
		</g>
	</g>
</g>
<circle class="st3" cx="330.3" cy="194.4" r="20.9"/>
<path class="st4" d="M284.1,374.7c-2.7,2-4.3,5-4.3,8.6c0,6,4.8,10.8,10.8,10.8c1.3,0,2.7-0.3,3.8-0.7c-0.8,1.5-1.2,3.2-1.2,5
	c0,5.9,4.8,10.7,10.8,10.7c6,0,10.7-4.8,10.7-10.7c0-1.8-0.4-3.5-1.2-5c1.2,0.5,2.5,0.7,3.8,0.7c6,0,10.8-4.8,10.8-10.8
	c0-3.5-1.7-6.6-4.3-8.6c5-1,8.7-5.3,8.7-10.6c0-5.5-4.1-10-9.4-10.7c1.5-1.8,2.4-4.2,2.4-6.7c0-6-4.8-10.8-10.8-10.8
	c-5.9,0-10.7,4.8-10.7,10.8c0-6-4.8-10.8-10.8-10.8c-5.9,0-10.7,4.8-10.7,10.8c0,2.6,0.9,4.9,2.4,6.7c-5.3,0.7-9.4,5.2-9.4,10.7
	C275.4,369.4,279.1,373.8,284.1,374.7z"/>
<path class="st4" d="M278,286.4c0-4.1,2.4-7.7,5.8-9.5c-3-15.7-4.7-32.4-4.7-49.9c0-40.8,8.9-78,23.7-106
	c12.4,23.6,20.7,53.7,23,86.9c0.2,0,0.5-0.1,0.7-0.1c5.9,0,10.8,4.8,10.8,10.8c0,4.6-3,8.6-7.1,10.1c4.1,1.5,7.1,5.4,7.1,10.1
	c0,5.6-4.3,10.2-9.8,10.7c4.7,1.2,8.1,5.4,8.1,10.4c0,5.9-4.8,10.8-10.8,10.8c-0.6,0-1.2-0.1-1.8-0.2c0,0.1,0,0.2-0.1,0.4
	c5.1,0.9,9,5.3,9,10.6c0,5.9-4.8,10.8-10.8,10.8c-0.3,0-0.6-0.1-1-0.1c2.8,1.9,4.7,5.2,4.7,8.9c0,5.9-4.8,10.8-10.8,10.8
	c-0.6,0-1.2-0.1-1.8-0.2c-0.3,0.8-0.6,1.5-0.9,2.3c1.7,1.9,2.7,4.3,2.7,7.1c0,5.9-4.7,10.7-10.6,10.7c-0.2,0.5-0.5,1-0.7,1.4
	c-0.3-0.5-0.5-1.1-0.7-1.6c-5.3-0.6-9.5-5.1-9.5-10.6c0-2.1,0.6-4.1,1.7-5.8c0,0,0,0,0,0c-5.9,0-10.8-4.8-10.8-10.8
	c0-2.9,1.1-5.5,3-7.4C281.6,295.8,278,291.6,278,286.4z"/>
<rect x="289.7" y="314.6" class="st5" width="28.3" height="21.4"/>
<path class="st4" d="M194.4,374.7c2.7,2,4.3,5,4.3,8.6c0,6-4.8,10.8-10.8,10.8c-1.3,0-2.7-0.3-3.8-0.7c0.8,1.5,1.2,3.2,1.2,5
	c0,5.9-4.8,10.7-10.8,10.7c-6,0-10.7-4.8-10.7-10.7c0-1.8,0.4-3.5,1.2-5c-1.2,0.5-2.5,0.7-3.8,0.7c-6,0-10.8-4.8-10.8-10.8
	c0-3.5,1.7-6.6,4.3-8.6c-5-1-8.7-5.3-8.7-10.6c0-5.5,4.1-10,9.4-10.7c-1.5-1.8-2.4-4.2-2.4-6.7c0-6,4.8-10.8,10.8-10.8
	c5.9,0,10.7,4.8,10.7,10.8c0-6,4.8-10.8,10.8-10.8c5.9,0,10.7,4.8,10.7,10.8c0,2.6-0.9,4.9-2.4,6.7c5.3,0.7,9.4,5.2,9.4,10.7
	C203.1,369.4,199.3,373.8,194.4,374.7z"/>
<path class="st4" d="M200.5,286.4c0-4.1-2.4-7.7-5.8-9.5c3-15.7,4.7-32.4,4.7-49.9c0-40.8-8.9-78-23.7-106
	c-12.4,23.6-20.7,53.7-23,86.9c-0.2,0-0.5-0.1-0.7-0.1c-5.9,0-10.8,4.8-10.8,10.8c0,4.6,3,8.6,7.1,10.1c-4.1,1.5-7.1,5.4-7.1,10.1
	c0,5.6,4.3,10.2,9.8,10.7c-4.7,1.2-8.1,5.4-8.1,10.4c0,5.9,4.8,10.8,10.8,10.8c0.6,0,1.2-0.1,1.8-0.2c0,0.1,0,0.2,0.1,0.4
	c-5.1,0.9-9,5.3-9,10.6c0,5.9,4.8,10.8,10.8,10.8c0.3,0,0.6-0.1,1-0.1c-2.8,1.9-4.7,5.2-4.7,8.9c0,5.9,4.8,10.8,10.8,10.8
	c0.6,0,1.2-0.1,1.8-0.2c0.3,0.8,0.6,1.5,0.9,2.3c-1.7,1.9-2.7,4.3-2.7,7.1c0,5.9,4.7,10.7,10.6,10.7c0.2,0.5,0.5,1,0.7,1.4
	c0.3-0.5,0.5-1.1,0.7-1.6c5.3-0.6,9.5-5.1,9.5-10.6c0-2.1-0.6-4.1-1.7-5.8c0,0,0,0,0,0c5.9,0,10.8-4.8,10.8-10.8
	c0-2.9-1.1-5.5-3-7.4C196.9,295.8,200.5,291.6,200.5,286.4z"/>
<rect x="160.4" y="314.6" class="st6" width="28.3" height="21.4"/>
<circle class="st3" cx="147.9" cy="194.4" r="20.9"/>
<path class="st7" d="M239.2,308.9L239.2,308.9c-50.4,0-91.3-40.9-91.3-91.3v-46.5c0-50.4,40.9-91.3,91.3-91.3h0
	c50.4,0,91.3,40.9,91.3,91.3v46.5C330.6,268,289.7,308.9,239.2,308.9z"/>
<path d="M206.2,194.3c0,6.2-5.1,11.2-11.2,11.2c-6.2,0-11.2-5.1-11.2-11.2c0-6.2,5-11.2,11.2-11.2c1,0,2.1,0.1,3.1,0.5
	c-1.3,0.9-2,2.5-2,4.2c0,3.1,2.5,5.5,5.5,5.5c1.8,0,3.3-0.8,4.3-2C206.1,192.2,206.2,193.3,206.2,194.3z"/>
<path d="M294.7,194.3c0,6.2-5.1,11.2-11.2,11.2s-11.2-5.1-11.2-11.2c0-6.2,5-11.2,11.2-11.2c1,0,2.1,0.1,3.1,0.5
	c-1.3,0.9-2,2.5-2,4.2c0,3.1,2.5,5.5,5.5,5.5c1.8,0,3.3-0.8,4.3-2C294.6,192.2,294.7,193.3,294.7,194.3z"/>
<path class="st2" d="M232.9,194.4l-7.2,23.6c-1.4,4.7,2.1,9.5,7,9.5h9.9"/>
<g>
	<g>
		<path class="st4" d="M348.1,157.9c0.1,5-3.1,9.3-7.7,10.8c-0.8,0.3-1.5,0.4-2.4,0.5c-0.3,0-0.5,0-0.8,0c-0.7,0-1.4,0-2.1-0.2
			c-0.2,0-0.3-0.1-0.4-0.1c-53.2-3-95.4-47.1-95.5-101V68c-0.1-0.6-0.1-1.2,0-1.8c0.5-6.1,5.8-10.7,11.9-10.2
			c6.1,0.5,10.7,5.8,10.2,11.9c-0.1,0.9-0.3,1.8-0.5,2.6c0.3,0.1,0.6,0.1,0.9,0.2c0.1-0.9,0.2-1.7,0.5-2.5c1.9-5.8,8.2-9,14-7
			c5.8,1.9,9,8.2,7,14c-0.3,0.9-0.7,1.8-1.3,2.6c0.3,0.1,0.6,0.3,0.9,0.4c0.3-0.9,0.7-1.7,1.2-2.5c3.3-5.2,10.1-6.7,15.3-3.5
			c5.2,3.3,6.7,10.1,3.5,15.3c-0.5,0.8-1,1.4-1.7,2c0.3,0.2,0.5,0.3,0.7,0.6c0.5-0.7,1-1.4,1.6-2c4.4-4.2,11.5-4.1,15.7,0.4
			c4.2,4.5,4.1,11.4-0.4,15.7c-0.5,0.4-0.9,0.8-1.4,1.1c0.2,0.2,0.4,0.4,0.5,0.6c0.4-0.4,0.9-0.7,1.4-1c5.3-3.1,12.1-1.2,15.2,4.1
			c3,5.3,1.2,12.1-4.2,15.1c-0.2,0.1-0.3,0.2-0.5,0.3c0.2,0.3,0.3,0.5,0.4,0.8c0.1-0.1,0.3-0.1,0.4-0.2c5.9-1.7,12,1.8,13.7,7.7
			c1.6,5.6-1.4,11.3-6.6,13.3c0.2,0.4,0.3,0.9,0.3,1.3C343.4,147.6,347.9,152.2,348.1,157.9z"/>
	</g>
	<g>
		<path class="st4" d="M130.4,157.9c-0.1,5,3.1,9.3,7.7,10.8c0.8,0.3,1.5,0.4,2.4,0.5c0.3,0,0.5,0,0.8,0c0.7,0,1.4,0,2.1-0.2
			c0.2,0,0.3-0.1,0.4-0.1c53.2-3,95.4-47.1,95.5-101V68c0.1-0.6,0.1-1.2,0-1.8c-0.5-6.1-5.8-10.7-11.9-10.2
			c-6.1,0.5-10.7,5.8-10.2,11.9c0.1,0.9,0.3,1.8,0.5,2.6c-0.3,0.1-0.6,0.1-0.9,0.2c-0.1-0.9-0.2-1.7-0.5-2.5c-1.9-5.8-8.2-9-14-7
			c-5.8,1.9-9,8.2-7,14c0.3,0.9,0.7,1.8,1.3,2.6c-0.3,0.1-0.6,0.3-0.9,0.4c-0.3-0.9-0.7-1.7-1.2-2.5c-3.3-5.2-10.1-6.7-15.3-3.5
			c-5.2,3.3-6.7,10.1-3.5,15.3c0.5,0.8,1,1.4,1.7,2c-0.3,0.2-0.5,0.3-0.7,0.6c-0.5-0.7-1-1.4-1.6-2c-4.4-4.2-11.5-4.1-15.7,0.4
			c-4.2,4.5-4.1,11.4,0.4,15.7c0.5,0.4,0.9,0.8,1.4,1.1c-0.2,0.2-0.4,0.4-0.5,0.6c-0.4-0.4-0.9-0.7-1.4-1
			c-5.3-3.1-12.1-1.2-15.2,4.1c-3,5.3-1.2,12.1,4.2,15.1c0.2,0.1,0.3,0.2,0.5,0.3c-0.2,0.3-0.3,0.5-0.4,0.8
			c-0.1-0.1-0.3-0.1-0.4-0.2c-5.9-1.7-12,1.8-13.7,7.7c-1.6,5.6,1.4,11.3,6.6,13.3c-0.2,0.4-0.3,0.9-0.3,1.3
			C135.1,147.6,130.6,152.2,130.4,157.9z"/>
	</g>
</g>
<path class="st2" d="M270,245.5c-4.7,4.5-10.6,7.9-17.3,9.6c-6.8,1.7-13.5,1.6-19.8-0.1"/>
<path class="st2" d="M268,172.9c9.7-6.4,22.1-5.6,30.9,0.9"/>
<path class="st2" d="M210.5,172.9c-9.7-6.4-22.1-5.6-30.9,0.9"/>
<g>
	<path d="M239.5,8c31.2,0,61.6,6.1,90.1,18.2c27.6,11.7,52.3,28.3,73.6,49.6c21.3,21.3,37.9,46,49.6,73.6
		c12.1,28.5,18.2,58.8,18.2,90.1s-6.1,61.6-18.2,90.1c-11.7,27.6-28.3,52.3-49.6,73.6c-21.3,21.3-46,37.9-73.6,49.6
		c-28.5,12.1-58.8,18.2-90.1,18.2s-61.6-6.1-90.1-18.2c-27.6-11.7-52.3-28.3-73.6-49.6c-21.3-21.3-37.9-46-49.6-73.6
		C14.1,301,8,270.7,8,239.5s6.1-61.6,18.2-90.1C37.8,121.8,54.5,97,75.8,75.8c21.3-21.3,46-37.9,73.6-49.6
		C177.9,14.1,208.2,8,239.5,8 M239.5,0C107.2,0,0,107.2,0,239.5s107.2,239.5,239.5,239.5s239.5-107.2,239.5-239.5S371.7,0,239.5,0
		L239.5,0z"/>
</g>
</svg>
