<?xml version="1.0" encoding="utf-8"?>
<!-- Generator: Adobe Illustrator 21.0.0, SVG Export Plug-In . SVG Version: 6.00 Build 0)  -->
<svg version="1.1" id="Layer_1" xmlns="http://www.w3.org/2000/svg" xmlns:xlink="http://www.w3.org/1999/xlink" x="0px" y="0px"
	 viewBox="0 0 32 32" style="enable-background:new 0 0 32 32;" xml:space="preserve">
<title>spotlight</title>
<path d="M24.9,22.7c2.1-2.2,3.7-5,2.6-6.3h0l-7.7-7.7l0,0l0,0c-0.3-0.3-0.7-0.4-1.1-0.4c0,0-0.1,0-0.1,0c-0.7,0-1.3,0.2-2,0.6
	c-1.3,0.7-2.5,1.6-3.6,2.7c-1.1,1-2,2.3-2.8,3.7c-0.9,1.7-0.5,2.6-0.1,3c0.1,0.1,0.2,0.1,0.3,0.2l1.7,1.7v7.4c0,0.4,0.3,0.6,0.6,0.6
	h9.3c0.4,0,0.6-0.3,0.6-0.6v-9c0-0.4-0.3-0.6-0.6-0.6s-0.6,0.3-0.6,0.6V24c-1.4,1-2.3,1.1-2.6,1l-6.5-6.5c1.4-0.4,3.1-1.7,4.6-3.1
	s2.7-3.2,3.2-4.6l6.4,6.4c0,0,0.1,0.1,0.1,0.1c0.3,0.3-0.2,2.2-2.6,4.6c-0.1,0.1-0.2,0.3-0.2,0.4c0,0.4,0.3,0.6,0.6,0.6
	C24.6,22.9,24.8,22.8,24.9,22.7L24.9,22.7z M13.4,21.4l4.4,4.4l0,0c0.7,0.7,2,0.5,3.6-0.4V27h-8L13.4,21.4z"/>
<path d="M6.7,5.1C6.7,5.1,6.7,5.1,6.7,5.1c0.2,0,0.3,0.1,0.5,0.2L11,9.2c0.1,0.1,0.2,0.3,0.2,0.5c0,0.4-0.3,0.6-0.6,0.6
	c-0.2,0-0.3-0.1-0.5-0.2L6.2,6.2C6.1,6,6,5.9,6,5.7C6,5.3,6.3,5.1,6.7,5.1L6.7,5.1z"/>
<path d="M4.3,9.8c0.1,0,0.2,0,0.3,0.1L8.2,12c0.2,0.1,0.4,0.3,0.4,0.6c0,0.4-0.3,0.6-0.6,0.6c-0.1,0-0.3,0-0.4-0.1L4,11
	c-0.2-0.1-0.3-0.3-0.3-0.5C3.7,10.1,4,9.8,4.3,9.8L4.3,9.8z"/>
<path d="M11.5,2.9c0.2,0,0.4,0.1,0.6,0.3L14.3,7c0,0.1,0.1,0.2,0.1,0.3c0,0.4-0.3,0.6-0.6,0.6c-0.2,0-0.4-0.1-0.5-0.3l-2.2-3.8
	c-0.1-0.1-0.1-0.2-0.1-0.3C10.8,3.2,11.1,2.9,11.5,2.9L11.5,2.9z"/>
</svg>
