<?xml version="1.0" encoding="utf-8"?>
<!-- Generator: Adobe Illustrator 19.0.0, SVG Export Plug-In . SVG Version: 6.00 Build 0)  -->
<svg version="1.1" id="Layer_1" xmlns="http://www.w3.org/2000/svg" xmlns:xlink="http://www.w3.org/1999/xlink" x="0px" y="0px"
	 viewBox="86 15 300 100" style="enable-background:new 86 15 300 100;" xml:space="preserve">
<style type="text/css">
	.st0{fill:#F3C900;}
	.st1{fill:#FFFFFF;}
</style>
<g id="XMLID_17_">
	<path id="XMLID_23_" class="st0" d="M258.6,44.9c-5.2,0-9.6,1.8-13.6,5.4v-2.4c0-0.8-0.1-1.5-0.7-2.1c-0.6-0.6-1.2-0.9-2-0.9
		s-1.7,0.3-2.2,0.9c-0.6,0.6-1,1.3-1,2.1v35.9c0,0.8,0.5,1.5,1.1,2.1s1.4,0.9,2.2,0.9s1.4-0.3,2-0.9s0.8-1.3,0.8-2.1V64.3
		c0-3.7,1.5-6.9,4.1-9.5s5.9-3.9,9.6-3.9s7.3,1.3,9.9,3.9c2.6,2.6,4.4,5.8,4.4,9.5v19.4c0,0.8-0.1,1.5,0.5,2.1s1.1,0.9,1.9,0.9
		c0.8,0,1.8-0.3,2.4-0.9c0.6-0.6,1.2-1.3,1.2-2.1V64.3c0-5.4-2.4-9.9-6.2-13.7C269,46.8,264,44.9,258.6,44.9z"/>
	<path id="XMLID_26_" class="st0" d="M307,44.9c-5.8,0-10.7,2-14.8,6.1c-4.1,4.1-6.1,9-6.1,14.8c0,5.8,2,10.7,6.1,14.8
		c4.1,4.1,9,6.1,14.8,6.1s11-2.1,15-6.3v3.3c0,0.8,0.3,1.5,0.9,2.1s1.3,0.9,2.1,0.9s1.5-0.3,2.1-0.9s0.9-1.3,0.9-2.1V65.8
		c0-5.8-2.1-10.7-6.1-14.8C317.8,46.9,312.8,44.9,307,44.9z M317.6,76.4c-2.9,2.9-6.4,4.4-10.6,4.4c-4.1,0-7.7-1.5-10.6-4.4
		S292,70,292,65.8c0-4.1,1.5-7.7,4.4-10.6c2.9-2.9,6.4-4.4,10.6-4.4c4.1,0,7.7,1.5,10.6,4.4s4.4,6.4,4.4,10.6
		C322,69.9,320.5,73.5,317.6,76.4z"/>
	<path id="XMLID_27_" class="st0" d="M371.8,45.7c-0.6-0.6-1.3-0.9-2.1-0.9c-0.8,0-1.5,0.3-2.1,0.9c-0.2,0.2-0.4,0.5-0.6,0.8
		l-13.8,30.1l-13.8-30.1c-0.2-0.3-0.4-0.6-0.6-0.8c-0.6-0.6-1.3-0.9-2.1-0.9c-0.8,0-1.5,0.3-2.1,0.9c-0.6,0.6-0.9,1.3-0.9,2.1
		c0,0.4,0.1,0.8,0.2,1.2l16.6,36.1c0.1,0.3,0.3,0.6,0.5,0.7c0.5,0.6,1.3,0.9,2.1,0.9c0.9,0,1.6-0.3,2.1-0.8c0.2-0.2,0.3-0.4,0.5-0.7
		L372.4,49c0.1-0.3,0.2-0.7,0.2-1.2C372.7,47,372.4,46.3,371.8,45.7z"/>
	<path id="XMLID_28_" class="st1" d="M208.4,51.2c6.2,0,11.8,4,13.8,9.9c0.5,1.6,2.3,2.4,3.9,1.9c1.6-0.5,2.4-2.3,1.9-3.9
		c-2.9-8.4-10.7-14-19.6-14c-11.4,0-20.7,9.3-20.7,20.7c0,11.4,9.3,20.7,20.7,20.7c8.5,0,16.3-5.3,19.3-13.3
		c0.6-1.6-0.2-3.3-1.8-3.9c-1.6-0.6-3.3,0.2-3.9,1.8c-2.1,5.6-7.6,9.4-13.6,9.4c-8,0-14.6-6.5-14.6-14.6
		C193.8,57.8,200.4,51.2,208.4,51.2z"/>
	<path id="XMLID_29_" class="st1" d="M119.5,51.2c6.2,0,11.8,4,13.8,9.9c0.5,1.6,2.3,2.4,3.9,1.9c1.6-0.5,2.4-2.3,1.9-3.9
		c-2.9-8.4-10.7-14-19.6-14c-11.4,0-20.7,9.3-20.7,20.7c0,11.4,9.3,20.7,20.7,20.7c8.5,0,16.3-5.3,19.3-13.3
		c0.6-1.6-0.2-3.3-1.8-3.9c-1.6-0.6-3.3,0.2-3.9,1.8c-2.1,5.6-7.6,9.4-13.6,9.4c-8,0-14.6-6.5-14.6-14.6S111.4,51.2,119.5,51.2z"/>
	<path id="XMLID_30_" class="st1" d="M189,31.7L189,31.7c0-0.1,0-0.2,0-0.4l0,0l0,0c0-0.5,0.1-1.1-0.1-1.5c-0.5-1-1.3-1.8-2.5-1.8
		h-14c-1.7,0-3.1,1.3-3.1,3c0,1.7,1.4,3,3.1,3h9.5l-17,41l-11.1-27h2.6c1.7,0,3.1-0.8,3.1-2.5s-1.4-2.5-3.1-2.5h-13.5
		c-1.7,0-3.1,0.8-3.1,2.5s1.4,2.5,3.1,2.5h4.3l14.3,35l-6.8,17c-0.2,0.4-0.3,1.1-0.3,1.6c0,0.8,0.3,1.6,0.9,2.2
		c0.6,0.6,1.3,0.9,2.1,0.9c0.8,0,1.5-0.3,2.1-0.9c0.3-0.3,0.6-0.7,0.7-1.1l28.6-69.8C189,32.5,189,32.1,189,31.7z"/>
</g>
</svg>
