<?xml version="1.0" encoding="utf-8"?>
<!-- Generator: Adobe Illustrator 19.0.0, SVG Export Plug-In . SVG Version: 6.00 Build 0)  -->
<svg version="1.1" id="Layer_1" xmlns="http://www.w3.org/2000/svg" xmlns:xlink="http://www.w3.org/1999/xlink" x="0px" y="0px"
	 viewBox="0 26 300 100" style="enable-background:new 0 26 300 100;" xml:space="preserve">
<style type="text/css">
	.st0{fill:#03D803;}
</style>
<g id="XMLID_17_">
	<path id="XMLID_23_" class="st0" d="M172.6,55.9c-5.2,0-9.6,1.8-13.6,5.4v-2.4c0-0.8-0.1-1.5-0.7-2.1c-0.6-0.6-1.2-0.9-2-0.9
		s-1.7,0.3-2.2,0.9c-0.6,0.6-1,1.3-1,2.1v35.9c0,0.8,0.5,1.5,1.1,2.1s1.4,0.9,2.2,0.9s1.4-0.3,2-0.9s0.8-1.3,0.8-2.1V75.3
		c0-3.7,1.5-6.9,4.1-9.5c2.6-2.6,5.9-3.9,9.6-3.9c3.7,0,7.3,1.3,9.9,3.9c2.6,2.6,4.4,5.8,4.4,9.5v19.4c0,0.8-0.1,1.5,0.5,2.1
		s1.1,0.9,1.9,0.9c0.8,0,1.8-0.3,2.4-0.9c0.6-0.6,1.2-1.3,1.2-2.1V75.3c0-5.4-2.4-9.9-6.2-13.7C183,57.8,178,55.9,172.6,55.9z"/>
	<path id="XMLID_26_" class="st0" d="M221,55.9c-5.8,0-10.7,2-14.8,6.1s-6.1,9-6.1,14.8c0,5.8,2,10.7,6.1,14.8s9,6.1,14.8,6.1
		s11-2.1,15-6.3v3.3c0,0.8,0.3,1.5,0.9,2.1c0.6,0.6,1.3,0.9,2.1,0.9s1.5-0.3,2.1-0.9s0.9-1.3,0.9-2.1V76.8c0-5.8-2.1-10.7-6.1-14.8
		C231.8,57.9,226.8,55.9,221,55.9z M231.6,87.4c-2.9,2.9-6.4,4.4-10.6,4.4c-4.1,0-7.7-1.5-10.6-4.4c-2.9-2.9-4.4-6.4-4.4-10.6
		c0-4.1,1.5-7.7,4.4-10.6s6.4-4.4,10.6-4.4c4.1,0,7.7,1.5,10.6,4.4c2.9,2.9,4.4,6.4,4.4,10.6C236,80.9,234.5,84.5,231.6,87.4z"/>
	<path id="XMLID_27_" class="st0" d="M285.8,56.7c-0.6-0.6-1.3-0.9-2.1-0.9c-0.8,0-1.5,0.3-2.1,0.9c-0.2,0.2-0.4,0.5-0.6,0.8
		l-13.8,30.1l-13.8-30.1c-0.2-0.3-0.4-0.6-0.6-0.8c-0.6-0.6-1.3-0.9-2.1-0.9s-1.5,0.3-2.1,0.9c-0.6,0.6-0.9,1.3-0.9,2.1
		c0,0.4,0.1,0.8,0.2,1.2l16.6,36.1c0.1,0.3,0.3,0.6,0.5,0.7c0.5,0.6,1.3,0.9,2.1,0.9c0.9,0,1.6-0.3,2.1-0.8c0.2-0.2,0.3-0.4,0.5-0.7
		L286.4,60c0.1-0.3,0.2-0.7,0.2-1.2C286.7,58,286.4,57.3,285.8,56.7z"/>
	<path id="XMLID_28_" d="M122.4,62.2c6.2,0,11.8,4,13.8,9.9c0.5,1.6,2.3,2.4,3.9,1.9c1.6-0.5,2.4-2.3,1.9-3.9
		c-2.9-8.4-10.7-14-19.6-14c-11.4,0-20.7,9.3-20.7,20.7c0,11.4,9.3,20.7,20.7,20.7c8.5,0,16.3-5.3,19.3-13.3
		c0.6-1.6-0.2-3.3-1.8-3.9c-1.6-0.6-3.3,0.2-3.9,1.8c-2.1,5.6-7.6,9.4-13.6,9.4c-8,0-14.6-6.5-14.6-14.6
		C107.8,68.8,114.4,62.2,122.4,62.2z"/>
	<path id="XMLID_29_" d="M33.5,62.2c6.2,0,11.8,4,13.8,9.9c0.5,1.6,2.3,2.4,3.9,1.9c1.6-0.5,2.4-2.3,1.9-3.9
		c-2.9-8.4-10.7-14-19.6-14c-11.4,0-20.7,9.3-20.7,20.7c0,11.4,9.3,20.7,20.7,20.7c8.5,0,16.3-5.3,19.3-13.3
		c0.6-1.6-0.2-3.3-1.8-3.9c-1.6-0.6-3.3,0.2-3.9,1.8c-2.1,5.6-7.6,9.4-13.6,9.4c-8,0-14.6-6.5-14.6-14.6S25.4,62.2,33.5,62.2z"/>
	<path id="XMLID_30_" d="M103,42.7L103,42.7c0-0.1,0-0.2,0-0.4l0,0l0,0c0-0.5,0.1-1.1-0.1-1.5c-0.5-1-1.3-1.8-2.5-1.8h-14
		c-1.7,0-3.1,1.3-3.1,3c0,1.7,1.4,3,3.1,3h9.5l-17,41L67.8,59h2.6c1.7,0,3.1-0.8,3.1-2.5S72.1,54,70.4,54H56.9
		c-1.7,0-3.1,0.8-3.1,2.5s1.4,2.5,3.1,2.5h4.3l14.3,35l-6.8,17c-0.2,0.4-0.3,1.1-0.3,1.6c0,0.8,0.3,1.6,0.9,2.2s1.3,0.9,2.1,0.9
		c0.8,0,1.5-0.3,2.1-0.9c0.3-0.3,0.6-0.7,0.7-1.1l28.6-69.8C103,43.5,103,43.1,103,42.7z"/>
</g>
</svg>
