<?xml version="1.0" encoding="utf-8"?>
<!-- Generator: Adobe Illustrator 21.0.0, SVG Export Plug-In . SVG Version: 6.00 Build 0)  -->
<svg version="1.1" id="Layer_1" xmlns="http://www.w3.org/2000/svg" xmlns:xlink="http://www.w3.org/1999/xlink" x="0px" y="0px"
	 viewBox="0 0 32 32" style="enable-background:new 0 0 32 32;" xml:space="preserve">
<title>phone</title>
<path d="M21.1,2.7h-6.8c-0.5,0-1,0.4-1,1s0.4,1,1,1l0,0h6.8c0.5,0,0.9,0.4,0.9,0.9c0,0,0,0,0,0v0v1.1H8.4V5.5c0,0,0,0,0,0
	c0-0.5,0.4-0.9,0.9-0.9h0h0.5c0.5,0,1-0.4,1-1s-0.4-1-1-1l0,0H9.3c-1.6,0-2.8,1.3-2.8,2.8c0,0,0,0,0,0v0v21.8c0,0,0,0,0,0.1
	c0,1.6,1.3,2.8,2.8,2.8h11.8c1.5,0,2.8-1.3,2.8-2.8c0,0,0,0,0,0v0V5.5c0,0,0,0,0-0.1C23.9,3.9,22.6,2.7,21.1,2.7L21.1,2.7L21.1,2.7z
	 M21.9,8.5v13.6H8.4V8.5H21.9z M21.1,28.3H9.3c-0.5,0-0.9-0.4-0.9-0.9c0,0,0,0,0,0v0v-3.2H22v3.2c0,0,0,0,0,0
	C22,27.8,21.6,28.2,21.1,28.3L21.1,28.3L21.1,28.3z"/>
<path d="M16,26.2c0,0.9-0.7,1.6-1.6,1.6s-1.6-0.7-1.6-1.6s0.7-1.6,1.6-1.6S16,25.3,16,26.2z"/>
</svg>
