<svg id="Layer_1" data-name="Layer 1" xmlns="http://www.w3.org/2000/svg" width="80" height="80" viewBox="0 0 80 80">
  <title>step3</title>
  <rect x="33.74" y="11.31" width="13.2" height="13.2" fill="#fff"/>
  <rect x="24.27" y="31.55" width="8.21" height="8.21" fill="#fff"/>
  <rect x="36.24" y="31.55" width="8.21" height="8.21" fill="#fff"/>
  <rect x="48.21" y="31.55" width="8.21" height="8.21" fill="#fff"/>
  <rect x="24.31" y="46.41" width="8.21" height="8.21" fill="#fff"/>
  <rect x="59.9" y="46.41" width="8.21" height="8.21" fill="#fff"/>
  <rect x="48.21" y="46.41" width="8.21" height="8.21" fill="#fff"/>
  <rect x="12.34" y="61.44" width="8.21" height="8.21" fill="#fff"/>
  <rect x="24.31" y="61.44" width="8.21" height="8.21" fill="#fff"/>
  <rect x="36.27" y="61.44" width="8.21" height="8.21" fill="#fff"/>
  <rect x="59.9" y="61.44" width="8.21" height="8.21" fill="#fff"/>
  <line x1="40.38" y1="24.51" x2="40.38" y2="31.55" fill="none" stroke="#fff" stroke-miterlimit="10"/>
  <line x1="28.41" y1="39.76" x2="28.41" y2="46.8" fill="none" stroke="#fff" stroke-miterlimit="10"/>
  <line x1="52.31" y1="39.76" x2="52.31" y2="46.8" fill="none" stroke="#fff" stroke-miterlimit="10"/>
  <line x1="64" y1="54.54" x2="64" y2="61.58" fill="none" stroke="#fff" stroke-miterlimit="10"/>
  <line x1="28.41" y1="54.33" x2="28.41" y2="61.37" fill="none" stroke="#fff" stroke-miterlimit="10"/>
  <line x1="29.55" y1="35.66" x2="36.59" y2="35.66" fill="none" stroke="#fff" stroke-miterlimit="10"/>
  <line x1="54.95" y1="50.52" x2="61.99" y2="50.52" fill="none" stroke="#fff" stroke-miterlimit="10"/>
  <line x1="19.07" y1="65.54" x2="26.11" y2="65.54" fill="none" stroke="#fff" stroke-miterlimit="10"/>
  <line x1="31.1" y1="65.54" x2="38.15" y2="65.54" fill="none" stroke="#fff" stroke-miterlimit="10"/>
  <line x1="42.13" y1="35.66" x2="49.18" y2="35.66" fill="none" stroke="#fff" stroke-miterlimit="10"/>
  <line x1="48.21" y1="31.55" x2="56.52" y2="39.86" fill="none" stroke="#616161" stroke-miterlimit="10"/>
  <line x1="56.52" y1="31.55" x2="48.21" y2="39.86" fill="none" stroke="#616161" stroke-miterlimit="10"/>
  <line x1="24.31" y1="61.44" x2="32.62" y2="69.75" fill="none" stroke="#616161" stroke-miterlimit="10"/>
  <line x1="32.62" y1="61.44" x2="24.31" y2="69.75" fill="none" stroke="#616161" stroke-miterlimit="10"/>
  <line x1="33.74" y1="11.31" x2="46.94" y2="24.51" fill="none" stroke="#616161" stroke-miterlimit="10"/>
  <line x1="46.94" y1="11.31" x2="33.74" y2="24.51" fill="none" stroke="#616161" stroke-miterlimit="10"/>
</svg>
