<svg id="Layer_1" data-name="Layer 1" xmlns="http://www.w3.org/2000/svg" width="65" height="80" viewBox="0 0 65 80">
  <title>step5</title>
  <path d="M55.67,64.42v5.11h-45V13.68h45v39.5" fill="#fff"/>
  <rect x="16.12" y="19.43" width="34.39" height="44.68" fill="none" stroke="#616161" stroke-miterlimit="10"/>
  <rect x="25.56" y="11.31" width="15.23" height="4.53" fill="#fff" stroke="#616161" stroke-miterlimit="10"/>
  <line x1="10.67" y1="19.43" x2="55.67" y2="19.43" fill="none" stroke="#616161" stroke-miterlimit="10"/>
  <line x1="24.1" y1="31.59" x2="35.23" y2="31.59" fill="none" stroke="#616161" stroke-miterlimit="10"/>
  <line x1="24.1" y1="36.71" x2="35.23" y2="36.71" fill="none" stroke="#616161" stroke-miterlimit="10"/>
  <line x1="24.1" y1="47.19" x2="35.23" y2="47.19" fill="none" stroke="#616161" stroke-miterlimit="10"/>
  <line x1="24.1" y1="41.99" x2="35.23" y2="41.99" fill="none" stroke="#616161" stroke-miterlimit="10"/>
  <line x1="24.1" y1="52.4" x2="35.23" y2="52.4" fill="none" stroke="#616161" stroke-miterlimit="10"/>
  <line x1="38.37" y1="29.18" x2="43.19" y2="33.99" fill="none" stroke="#616161" stroke-miterlimit="10"/>
  <line x1="43.19" y1="29.18" x2="38.37" y2="33.99" fill="none" stroke="#616161" stroke-miterlimit="10"/>
  <line x1="38.37" y1="39.58" x2="43.19" y2="44.4" fill="none" stroke="#616161" stroke-miterlimit="10"/>
  <line x1="43.19" y1="39.58" x2="38.37" y2="44.4" fill="none" stroke="#616161" stroke-miterlimit="10"/>
  <line x1="38.37" y1="49.99" x2="43.19" y2="54.81" fill="none" stroke="#616161" stroke-miterlimit="10"/>
  <line x1="43.19" y1="49.99" x2="38.37" y2="54.81" fill="none" stroke="#616161" stroke-miterlimit="10"/>
</svg>
