<svg id="Layer_1" data-name="Layer 1" xmlns="http://www.w3.org/2000/svg" width="100" height="80" viewBox="0 0 100 80">
  <title>step6</title>
  <g>
    <path d="M83.88,64.21v5.32H14V11.31H83.88V52.48" fill="#fff"/>
    <rect x="20.35" y="22.64" width="33.55" height="24.04" fill="none" stroke="#616161" stroke-miterlimit="10"/>
    <rect x="20.35" y="51.99" width="33.55" height="11.59" fill="none" stroke="#616161" stroke-miterlimit="10"/>
    <rect x="60.7" y="51.99" width="28.65" height="11.59" fill="#fff" stroke="#616161" stroke-miterlimit="10"/>
    <line x1="20.35" y1="22.64" x2="53.9" y2="46.68" fill="none" stroke="#616161" stroke-miterlimit="10"/>
    <line x1="20.35" y1="46.68" x2="53.9" y2="22.64" fill="none" stroke="#616161" stroke-miterlimit="10"/>
    <line x1="13.97" y1="16.62" x2="83.88" y2="16.62" fill="none" stroke="#616161" stroke-miterlimit="10"/>
    <line x1="21.15" y1="11.31" x2="21.15" y2="16.7" fill="none" stroke="#616161" stroke-miterlimit="10"/>
    <line x1="60.7" y1="22.64" x2="77.02" y2="22.64" fill="none" stroke="#616161" stroke-miterlimit="10"/>
    <line x1="60.7" y1="27.53" x2="77.02" y2="27.53" fill="none" stroke="#616161" stroke-miterlimit="10"/>
    <line x1="60.7" y1="32.43" x2="77.02" y2="32.43" fill="none" stroke="#616161" stroke-miterlimit="10"/>
    <line x1="60.7" y1="37.33" x2="77.02" y2="37.33" fill="none" stroke="#616161" stroke-miterlimit="10"/>
    <line x1="60.7" y1="42.22" x2="77.02" y2="42.22" fill="none" stroke="#616161" stroke-miterlimit="10"/>
    <line x1="60.7" y1="47.12" x2="77.02" y2="47.12" fill="none" stroke="#616161" stroke-miterlimit="10"/>
    <line x1="37.13" y1="51.99" x2="37.13" y2="63.57" fill="none" stroke="#616161" stroke-miterlimit="10"/>
  </g>
</svg>
