<svg id="Layer_1" data-name="Layer 1" xmlns="http://www.w3.org/2000/svg" width="90" height="80" viewBox="0 0 90 80">
  <title>step4</title>
  <rect x="7.28" y="11.27" width="75.12" height="58.38" fill="#fff"/>
  <rect x="18.15" y="24.93" width="20.63" height="32.4" fill="none" stroke="#616161" stroke-miterlimit="10"/>
  <rect x="51.38" y="24.93" width="20.63" height="32.4" fill="none" stroke="#616161" stroke-miterlimit="10"/>
  <line x1="18.15" y1="53.45" x2="38.78" y2="53.45" fill="none" stroke="#616161" stroke-miterlimit="10"/>
  <line x1="18.15" y1="26.64" x2="38.78" y2="26.64" fill="none" stroke="#616161" stroke-miterlimit="10"/>
  <line x1="26.15" y1="55.33" x2="30.73" y2="55.33" fill="none" stroke="#616161" stroke-miterlimit="10"/>
  <line x1="51.5" y1="53.45" x2="72.13" y2="53.45" fill="none" stroke="#616161" stroke-miterlimit="10"/>
  <line x1="51.5" y1="26.64" x2="72.13" y2="26.64" fill="none" stroke="#616161" stroke-miterlimit="10"/>
  <line x1="59.5" y1="55.33" x2="64.08" y2="55.33" fill="none" stroke="#616161" stroke-miterlimit="10"/>
  <rect x="13.95" y="29.77" width="14.47" height="7.53" fill="#fff" stroke="#616161" stroke-miterlimit="10"/>
  <rect x="21.19" y="40.37" width="14.47" height="7.53" fill="none" stroke="#616161" stroke-miterlimit="10"/>
  <rect x="55.48" y="40.02" width="12.44" height="6.95" fill="none" stroke="#616161" stroke-miterlimit="10"/>
  <polyline points="21.19 53.45 21.19 50.99 35.66 50.99 35.66 53.45" fill="none" stroke="#616161" stroke-miterlimit="10"/>
  <line x1="22.85" y1="63.26" x2="33.98" y2="63.26" fill="none" stroke="#616161" stroke-miterlimit="10"/>
  <line x1="56.13" y1="63.26" x2="67.26" y2="63.26" fill="none" stroke="#616161" stroke-miterlimit="10"/>
  <line x1="55.48" y1="30.64" x2="67.91" y2="30.64" fill="none" stroke="#616161" stroke-miterlimit="10"/>
  <line x1="55.48" y1="34.66" x2="67.91" y2="34.66" fill="none" stroke="#616161" stroke-miterlimit="10"/>
  <line x1="55.48" y1="50.67" x2="67.91" y2="50.67" fill="none" stroke="#616161" stroke-miterlimit="10"/>
  <line x1="18.15" y1="18.17" x2="38.78" y2="18.17" fill="none" stroke="#616161" stroke-miterlimit="10"/>
  <line x1="51.63" y1="18.17" x2="72.26" y2="18.17" fill="none" stroke="#616161" stroke-miterlimit="10"/>
</svg>
