<svg xmlns="http://www.w3.org/2000/svg" width="60" height="60" viewBox="0 0 60 60">
  <title>Artboard 1</title>
  <circle cx="30.48" cy="30.51" r="27.42" style="fill: #fff;stroke: #cfcfcf;stroke-miterlimit: 10"/>
  <g>
    <path d="M35.78,41.07h0A9.82,9.82,0,0,1,29.61,23.6a1.06,1.06,0,0,1,.71-.28,1,1,0,0,1,.6,1.88,7.74,7.74,0,1,0,4.84-1.7l-.6,0h0A1,1,0,0,1,35,21.45c.25,0,.53,0,.82,0a9.82,9.82,0,1,1,0,19.65h-.08Z" style="fill: #5c41b4"/>
    <path d="M25,24.3H14.61a1,1,0,0,1,0-2.07H25a1,1,0,1,1,0,2.07Z" style="fill: #5c41b4"/>
    <path d="M22,30.59H14.61a1,1,0,0,1,0-2.07H22a1,1,0,1,1,0,2.07Z" style="fill: #5c41b4"/>
    <path d="M22.91,37.13h-8.3a1,1,0,1,1,0-2.07h8.3a1,1,0,1,1,0,2.07Z" style="fill: #5c41b4"/>
  </g>
</svg>
