<?xml version="1.0" encoding="utf-8"?>
<!-- Generator: Adobe Illustrator 23.0.3, SVG Export Plug-In . SVG Version: 6.00 Build 0)  -->
<svg version="1.1" id="Layer_1" xmlns="http://www.w3.org/2000/svg" xmlns:xlink="http://www.w3.org/1999/xlink" x="0px" y="0px"
	 viewBox="0 0 478.9 478.9" style="enable-background:new 0 0 478.9 478.9;" xml:space="preserve">
<style type="text/css">
	.st0{clip-path:url(#SVGID_2_);}
	.st1{fill:#21D9BB;}
	.st2{fill:none;}
	.st3{fill:#F0DCD5;}
	.st4{fill:#33475B;}
	.st5{fill:#F5C26B;}
	.st6{fill:#DBAE60;}
	.st7{fill:#F7EEEA;}
	.st8{fill:#FFFFFF;}
	.st9{fill:#E8CBC0;}
</style>
<g id="Idle_7_">
	<g>
		<g>
			<defs>
				<circle id="SVGID_1_" cx="238.5" cy="265.2" r="213.7"/>
			</defs>
			<clipPath id="SVGID_2_">
				<use xlink:href="#SVGID_1_"  style="overflow:visible;"/>
			</clipPath>
			<g class="st0">
				<g>
					<path class="st1" d="M224.8,299.7h27.4c61.9,0,112.1,50.2,112.1,112.1v85.9H112.7v-85.9C112.7,349.9,162.9,299.7,224.8,299.7z"
						/>
					<path d="M364.2,501.2H112.7c-2,0-3.6-1.6-3.6-3.6v-85.9c0-63.8,51.9-115.7,115.7-115.7h27.4c63.8,0,115.7,51.9,115.7,115.7
						v85.9C367.8,499.6,366.2,501.2,364.2,501.2z M116.2,494.1h244.4v-82.3c0-59.8-48.7-108.5-108.5-108.5h-27.4
						c-59.8,0-108.5,48.7-108.5,108.5V494.1z"/>
				</g>
				<g>
					<g>
						<g>
							<line class="st2" x1="175.7" y1="497.7" x2="175.7" y2="438"/>
							<path d="M175.7,501.2c-2,0-3.6-1.6-3.6-3.6V438c0-2,1.6-3.6,3.6-3.6c2,0,3.6,1.6,3.6,3.6v59.7
								C179.2,499.6,177.6,501.2,175.7,501.2z"/>
						</g>
					</g>
					<g>
						<g>
							<line class="st2" x1="301.2" y1="497.7" x2="301.2" y2="438"/>
							<path d="M301.2,501.2c-2,0-3.6-1.6-3.6-3.6V438c0-2,1.6-3.6,3.6-3.6s3.6,1.6,3.6,3.6v59.7
								C304.8,499.6,303.2,501.2,301.2,501.2z"/>
						</g>
					</g>
				</g>
			</g>
		</g>
	</g>
</g>
<g id="Avatar_7">
	<g>
		<g>
			<path class="st3" d="M238.3,315.5L238.3,315.5c-45,0-81.5-36.5-81.5-81.5v-41.5c0-45,36.5-81.5,81.5-81.5h0
				c45,0,81.5,36.5,81.5,81.5V234C319.8,279,283.4,315.5,238.3,315.5z"/>
			<path class="st4" d="M238.3,319.1c-46.9,0-85.1-38.2-85.1-85.1v-41.5c0-46.9,38.2-85.1,85.1-85.1c46.9,0,85.1,38.2,85.1,85.1V234
				C323.4,280.9,285.3,319.1,238.3,319.1z M238.3,114.6c-43,0-77.9,35-77.9,77.9V234c0,43,35,77.9,77.9,77.9h0
				c43,0,77.9-35,77.9-77.9v-41.5C316.3,149.6,281.3,114.6,238.3,114.6z"/>
		</g>
		<g>
			<path class="st3" d="M232.7,213.3l-6.4,21c-1.3,4.2,1.9,8.5,6.3,8.5h8.9"/>
			<path d="M241.4,246.4h-8.9c-3.2,0-6.2-1.5-8.1-4.1c-1.9-2.6-2.5-5.9-1.5-9l6.4-21c0.6-1.9,2.6-2.9,4.5-2.4
				c1.9,0.6,2.9,2.6,2.4,4.5l-6.4,21c-0.3,0.9-0.1,1.9,0.5,2.6c0.6,0.8,1.4,1.2,2.4,1.2h8.9c2,0,3.6,1.6,3.6,3.6
				S243.3,246.4,241.4,246.4z"/>
		</g>
		<g>
			<path class="st5" d="M319.8,228.1l-0.2,0.1l-7.5,20.1c-5.7,15.5-24.3,21.6-38.2,12.6c-4.2-2.7-9-4.2-14-4.2h-21.6h-0.2h-21.6
				c-5,0-9.9,1.4-14,4.2c-13.8,9-32.4,2.8-38.2-12.6l-7.5-20.1c-1.9,7.9-2.9,16.1-2.9,24.6c0,51.2,36.2,94,84.4,104.1
				c48.2-10.2,84.4-52.9,84.4-104.1C322.7,244.2,321.7,236,319.8,228.1z"/>
			<path d="M238.4,360.4c-0.2,0-0.5,0-0.7-0.1c-24.3-5.1-46.4-18.6-62.3-37.9c-16.1-19.6-24.9-44.3-24.9-69.7c0-8.6,1-17.1,3-25.4
				c0.4-1.5,1.7-2.6,3.3-2.7c1.6-0.1,3,0.8,3.6,2.3l7.5,20.1c2.4,6.3,7.4,11.2,13.8,13.3c6.4,2.1,13.4,1.2,19-2.5
				c4.8-3.1,10.3-4.7,16-4.7H260c5.7,0,11.2,1.6,16,4.7c5.7,3.7,12.6,4.6,19.1,2.5c6.4-2.1,11.5-7,13.8-13.3l7.5-20.1
				c0.4-1,1.1-1.7,2.1-2.1l0.2-0.1c1-0.4,2-0.3,2.9,0.2c0.9,0.5,1.6,1.3,1.8,2.3c2,8.3,3,16.9,3,25.5c0,25.4-8.9,50.1-24.9,69.7
				c-15.9,19.3-38,32.8-62.3,37.9C238.9,360.4,238.6,360.4,238.4,360.4z M158.1,241.8c-0.4,3.6-0.6,7.3-0.6,10.9
				c0,23.7,8.3,46.9,23.3,65.2c14.7,17.9,35.1,30.4,57.5,35.3c22.4-4.9,42.8-17.4,57.5-35.3c15-18.3,23.3-41.5,23.3-65.2
				c0-3.8-0.2-7.6-0.6-11.4l-3,8.1c-3.1,8.4-9.8,14.8-18.3,17.6c-8.5,2.8-17.7,1.6-25.2-3.2c-3.6-2.3-7.8-3.6-12.1-3.6h-43.5
				c-4.3,0-8.5,1.2-12.1,3.6c-7.5,4.9-16.7,6.1-25.2,3.2c-8.5-2.8-15.2-9.2-18.3-17.6L158.1,241.8z"/>
		</g>
		<path class="st6" d="M180.7,299.8c-1.5,0-2.9-0.9-3.4-2.4c-2.2-6.4-3.7-13.2-4.5-20c-0.2-2,1.2-3.7,3.2-3.9c2-0.2,3.7,1.2,3.9,3.2
			c0.7,6.3,2,12.5,4.1,18.4c0.6,1.9-0.3,3.9-2.2,4.5C181.5,299.8,181.1,299.8,180.7,299.8z"/>
		<path class="st6" d="M197.2,327.9c-1,0-2-0.4-2.7-1.2c-4.5-5-8.4-10.6-11.7-16.6c-0.9-1.7-0.3-3.9,1.5-4.8
			c1.7-0.9,3.9-0.3,4.8,1.5c3,5.5,6.6,10.7,10.7,15.3c1.3,1.5,1.2,3.7-0.3,5C198.9,327.6,198.1,327.9,197.2,327.9z"/>
		<path class="st6" d="M293.2,311.9c-0.4,0-0.9-0.1-1.3-0.3c-1.8-0.7-2.7-2.8-2-4.7c4-9.7,6-20.1,6-30.9c0-2,1.6-3.6,3.6-3.6
			s3.6,1.6,3.6,3.6c0,11.7-2.2,23-6.5,33.6C296,311,294.6,311.9,293.2,311.9z"/>
		<path class="st6" d="M204.8,314.6c-1.3,0-2.6-0.7-3.2-2c-3.2-6.6-5.7-13.6-7.2-21.1c-0.4-1.9,0.8-3.8,2.8-4.2
			c1.9-0.4,3.8,0.8,4.2,2.8c1.4,6.8,3.7,13.3,6.6,19.4c0.9,1.8,0.1,3.9-1.6,4.8C205.9,314.5,205.4,314.6,204.8,314.6z"/>
		<path class="st6" d="M269.3,330.1c-0.5,0-1-0.1-1.5-0.3c-1.8-0.8-2.6-3-1.7-4.7c2-4.3,3.6-9,4.8-13.9c0.5-1.9,2.4-3.1,4.3-2.6
			c1.9,0.5,3.1,2.4,2.6,4.3c-1.3,5.4-3.1,10.5-5.3,15.3C271.9,329.4,270.6,330.1,269.3,330.1z"/>
		<path class="st6" d="M276.3,301.3c-0.1,0-0.2,0-0.3,0c-2-0.2-3.4-1.9-3.3-3.9c0.2-2.4,0.3-4.8,0.3-7.2c0-2,1.6-3.6,3.6-3.6
			s3.6,1.6,3.6,3.6c0,2.6-0.1,5.2-0.3,7.8C279.7,299.9,278.2,301.3,276.3,301.3z"/>
		<g>
			<g>
				<g>
					<path class="st7" d="M285.6,228.2h-16.3c-6.9,0-12.4-5.6-12.4-12.4v-17.3h41.2v17.3C298.1,222.6,292.5,228.2,285.6,228.2z"/>
					<path d="M285.6,231.7h-16.3c-8.8,0-16-7.2-16-16v-17.3c0-2,1.6-3.6,3.6-3.6h41.2c2,0,3.6,1.6,3.6,3.6v17.3
						C301.6,224.6,294.4,231.7,285.6,231.7z M260.4,202v13.7c0,4.9,4,8.9,8.9,8.9h16.3c4.9,0,8.9-4,8.9-8.9V202H260.4z"/>
				</g>
				<circle cx="277.4" cy="213.3" r="5.8"/>
				<g>
					<line class="st2" x1="298.1" y1="198.4" x2="319.6" y2="194.6"/>
					<path d="M298.1,202c-1.7,0-3.2-1.2-3.5-3c-0.3-1.9,1-3.8,2.9-4.1l21.6-3.8c1.9-0.3,3.8,1,4.1,2.9c0.3,1.9-1,3.8-2.9,4.1
						l-21.6,3.8C298.5,202,298.3,202,298.1,202z"/>
				</g>
			</g>
			<g>
				<g>
					<path class="st7" d="M206.1,228.2h-16.3c-6.9,0-12.4-5.6-12.4-12.4v-17.3h41.2v17.3C218.5,222.6,213,228.2,206.1,228.2z"/>
					<path d="M206.1,231.7h-16.3c-8.8,0-16-7.2-16-16v-17.3c0-2,1.6-3.6,3.6-3.6h41.2c2,0,3.6,1.6,3.6,3.6v17.3
						C222.1,224.6,214.9,231.7,206.1,231.7z M180.9,202v13.7c0,4.9,4,8.9,8.9,8.9h16.3c4.9,0,8.9-4,8.9-8.9V202H180.9z"/>
				</g>
				<circle cx="197.9" cy="213.3" r="5.8"/>
				<g>
					<line class="st2" x1="156.8" y1="194.6" x2="178.4" y2="198.4"/>
					<path d="M178.4,202c-0.2,0-0.4,0-0.6-0.1l-21.6-3.8c-1.9-0.3-3.2-2.2-2.9-4.1c0.3-1.9,2.2-3.2,4.1-2.9l21.6,3.8
						c1.9,0.3,3.2,2.2,2.9,4.1C181.6,200.8,180.1,202,178.4,202z"/>
				</g>
			</g>
			<g>
				<line class="st2" x1="218.5" y1="198.4" x2="256.8" y2="198.4"/>
				<path d="M256.8,202h-38.3c-2,0-3.6-1.6-3.6-3.6s1.6-3.6,3.6-3.6h38.3c2,0,3.6,1.6,3.6,3.6S258.8,202,256.8,202z"/>
			</g>
		</g>
		<g>
			<path class="st5" d="M319.8,224.3v-31.8c0-9.7-1.7-18.9-4.8-27.5c-11.2,1.3-23,1.9-35.1,1.9c-43,0-81.6-8.5-107.9-21.8
				c-9.6,13.3-15.2,29.7-15.2,47.4v13.8c-15.2-7.1-25.8-22.5-25.8-40.3c0-7.8,2-15.2,5.6-21.5c4.4-8,4.9-17.6,0.6-25.6
				c-3.1-5.6-4.7-12.1-4.6-19c0.4-19.8,16.1-36.4,35.9-37.7c0.5,0,1-0.1,1.4-0.1c10.9-0.3,20.8,3.9,28,10.8
				c11.6,11.2,27.7,16.4,43.6,13.6c5.9-1,12-1.4,18.3-1.1c41.7,1.9,75.8,34.7,79.9,75.8c0.1,1.3,0.2,2.6,0.3,3.9
				C341.1,187.8,333.3,208.6,319.8,224.3z"/>
			<path d="M319.8,227.9c-0.4,0-0.8-0.1-1.2-0.2c-1.4-0.5-2.3-1.9-2.3-3.3v-31.8c0-8.1-1.2-16-3.7-23.7c-10.7,1.1-21.6,1.7-32.7,1.7
				c-40.5,0-79.1-7.6-106.7-20.8c-8.4,12.7-12.8,27.4-12.8,42.8v13.8c0,1.2-0.6,2.4-1.6,3c-1,0.7-2.3,0.7-3.4,0.2
				c-16.9-7.8-27.8-24.9-27.8-43.5c0-8.1,2.1-16.2,6-23.3c4-7.2,4.2-15.4,0.5-22.2c-3.4-6.3-5.2-13.5-5-20.8
				c0.4-21.7,17.6-39.8,39.2-41.2c0.5,0,1-0.1,1.5-0.1c11.6-0.3,22.4,3.9,30.6,11.8c11,10.6,25.7,15.2,40.5,12.7
				c6.2-1.1,12.6-1.5,19.1-1.2c43.2,2,79,36,83.3,79c0.1,1.2,0.2,2.4,0.3,4.1c1.2,22.7-6.3,44.6-21,61.7
				C321.8,227.5,320.8,227.9,319.8,227.9z M315,161.5c1.5,0,2.8,0.9,3.4,2.4c3.3,9.2,5,18.8,5,28.7v21.1c9.3-14.2,13.9-31,13-48.3
				c-0.1-1.5-0.2-2.7-0.3-3.7c-3.9-39.6-36.8-70.8-76.5-72.6c-5.9-0.3-11.8,0.1-17.5,1.1c-17,2.9-34.1-2.4-46.7-14.6
				c-6.8-6.6-15.8-10.1-25.4-9.8c-0.4,0-0.9,0-1.3,0.1c-18,1.2-32.2,16.2-32.6,34.2c-0.1,6,1.3,12,4.2,17.3c4.8,8.9,4.6,19.7-0.6,29
				c-3.3,6-5.1,12.9-5.1,19.8c0,13.9,7.2,26.8,18.6,34.3v-7.7c0-17.9,5.5-35,15.9-49.5c1-1.4,2.9-1.9,4.5-1.1
				c26.8,13.6,65.5,21.4,106.3,21.4c11.7,0,23.4-0.6,34.7-1.9C314.8,161.5,314.9,161.5,315,161.5z"/>
		</g>
		<path class="st8" d="M147.5,104.5c-2,0-3.6-1.6-3.6-3.6c0-14.8,12.1-26.9,26.9-26.9c2,0,3.6,1.6,3.6,3.6c0,2-1.6,3.6-3.6,3.6
			c-10.9,0-19.7,8.9-19.7,19.7C151.1,102.9,149.5,104.5,147.5,104.5z"/>
		<g>
			<path class="st9" d="M156.8,194.6V232c-10.3,0-18.7-8.4-18.7-18.7C138.2,203,146.5,194.6,156.8,194.6z"/>
			<path d="M156.8,235.5c-12.3,0-22.2-10-22.2-22.2s10-22.2,22.2-22.2c2,0,3.6,1.6,3.6,3.6V232C160.4,233.9,158.8,235.5,156.8,235.5
				z M153.3,198.6c-6.6,1.6-11.5,7.6-11.5,14.7s4.9,13.1,11.5,14.7V198.6z"/>
		</g>
		<g>
			<path class="st9" d="M319.8,232v-37.3c10.3,0,18.7,8.4,18.7,18.7C338.5,223.6,330.2,232,319.8,232z"/>
			<path d="M319.8,235.5c-2,0-3.6-1.6-3.6-3.6v-37.3c0-2,1.6-3.6,3.6-3.6c12.3,0,22.2,10,22.2,22.2S332.1,235.5,319.8,235.5z
				 M323.4,198.6V228c6.6-1.6,11.5-7.6,11.5-14.7S330,200.2,323.4,198.6z"/>
		</g>
		<path class="st6" d="M281.9,152.6c-11.4,0-22.8-0.7-34.3-2.2c-2-0.2-3.3-2-3.1-4c0.2-2,2-3.3,4-3.1c20.1,2.5,40.3,2.8,59.9,0.7
			c2-0.2,3.7,1.2,3.9,3.2s-1.2,3.7-3.2,3.9C300.2,152.1,291.1,152.6,281.9,152.6z"/>
		<path class="st6" d="M224,146.3c-0.3,0-0.5,0-0.8-0.1c-24.3-5.3-38.9-11.9-39.5-12.2c-1.8-0.8-2.6-2.9-1.8-4.7
			c0.8-1.8,2.9-2.6,4.7-1.8c0.1,0.1,14.6,6.6,38.1,11.7c1.9,0.4,3.1,2.3,2.7,4.2C227.1,145.2,225.7,146.3,224,146.3z"/>
		<path class="st6" d="M268.8,135.6c-30.8,0-53.3-8.5-54.2-8.9c-1.8-0.7-2.8-2.8-2.1-4.6c0.7-1.8,2.8-2.8,4.6-2.1
			c0.3,0.1,22.3,8.4,51.6,8.4c2,0,3.6,1.6,3.6,3.6C272.4,134,270.8,135.6,268.8,135.6z"/>
		<path class="st6" d="M303.7,125.3c-1.1,0-2.2-0.5-2.9-1.5c-0.1-0.2-14.6-19.3-40.4-19.3c-2,0-3.6-1.6-3.6-3.6c0-2,1.6-3.6,3.6-3.6
			c29.5,0,45.5,21.4,46.2,22.3c1.2,1.6,0.8,3.8-0.8,5C305.2,125.1,304.5,125.3,303.7,125.3z"/>
	</g>
	<path class="st6" d="M185.2,189.5c-1.1,0-2.2-0.5-2.9-1.4c-1.2-1.6-0.8-3.8,0.7-5c9.3-6.9,22-7.3,31.7-1c1.7,1.1,2.1,3.3,1,4.9
		c-1.1,1.7-3.3,2.1-4.9,1c-7.2-4.7-16.6-4.4-23.5,0.7C186.7,189.3,185.9,189.5,185.2,189.5z"/>
	<path class="st6" d="M291.7,189.5c-0.7,0-1.5-0.2-2.1-0.7c-6.9-5.1-16.3-5.4-23.5-0.7c-1.7,1.1-3.9,0.6-4.9-1
		c-1.1-1.7-0.6-3.9,1-4.9c9.7-6.3,22.4-5.9,31.7,1c1.6,1.2,1.9,3.4,0.7,5C293.9,189,292.8,189.5,291.7,189.5z"/>
	<path d="M238.3,282.8c-6.6,0-13.1-1.7-18.8-4.9c-1.7-1-2.3-3.1-1.4-4.9c1-1.7,3.1-2.3,4.9-1.4c4.7,2.6,10,4,15.3,4
		c5.4,0,10.7-1.4,15.3-4c1.7-1,3.9-0.4,4.9,1.3c1,1.7,0.4,3.9-1.3,4.9C251.5,281.1,245,282.8,238.3,282.8z"/>
</g>
<g>
	<path d="M238.1,8c31.2,0,61.6,6.1,90.1,18.2c27.6,11.7,52.3,28.3,73.6,49.6c21.3,21.3,37.9,46,49.6,73.6
		c12.1,28.5,18.2,58.8,18.2,90.1s-6.1,61.6-18.2,90.1c-11.7,27.6-28.3,52.3-49.6,73.6c-21.3,21.3-46,37.9-73.6,49.6
		c-28.5,12.1-58.8,18.2-90.1,18.2s-61.6-6.1-90.1-18.2c-27.6-11.7-52.3-28.3-73.6-49.6c-21.3-21.3-37.9-46-49.6-73.6
		C12.7,301,6.6,270.7,6.6,239.5s6.1-61.6,18.2-90.1C36.5,121.8,53.2,97,74.4,75.8c21.3-21.3,46-37.9,73.6-49.6
		C176.5,14.1,206.8,8,238.1,8 M238.1,0C105.8,0-1.4,107.2-1.4,239.5s107.2,239.5,239.5,239.5s239.5-107.2,239.5-239.5
		S370.3,0,238.1,0L238.1,0z"/>
</g>
</svg>
