<svg xmlns="http://www.w3.org/2000/svg" width="60" height="60" viewBox="0 0 60 60">
  <title>Artboard 2</title>
  <g>
    <path d="M35.49,31.07c-3.81,0-6.57.05-6.6.05a1.23,1.23,0,0,1-.82-.33,1.14,1.14,0,0,1-.33-.81h0V23.24c0-.55-.21-1.19-1.27-1.24h-.14a.85.85,0,0,0-.54.2,1.37,1.37,0,0,0-.33.76v9.89h0a1.08,1.08,0,0,1-.17.58,1.25,1.25,0,0,1-1,.54c-.76,0-1.36-.68-2-1.79-1.16-2-1.69-1.67-2.19-1.37-.7.37-.34,1.44-.2,1.79h0c.44.55,1.73,2.37,3.91,7.31a7.06,7.06,0,0,0,7,4.52H33c5.34,0,6.1-5.2,6.15-5.8V35C39,34.44,38.11,31.07,35.49,31.07Z" style="fill: #5c41b4"/>
    <path d="M29.46,3.09A27.42,27.42,0,1,0,56.88,30.51,27.42,27.42,0,0,0,29.46,3.09Zm7,19.06a1.14,1.14,0,0,1-1.14,1.14H32.31a1.14,1.14,0,1,1,0-2.29h3.05A1.14,1.14,0,0,1,36.51,22.15ZM30,17.9l2.59-2.59a1.14,1.14,0,0,1,1.62,1.62l-2.59,2.59a1.14,1.14,0,0,1-.81.34h0a1.14,1.14,0,0,1-.81-2Zm-4.58-4.53a1.14,1.14,0,1,1,2.29,0v3.81a1.14,1.14,0,1,1-2.29,0ZM20.59,15a1.14,1.14,0,0,1,.78.31L24,17.9a1.14,1.14,0,0,1-.81,2h0a1.14,1.14,0,0,1-.81-.34l-2.59-2.59A1.14,1.14,0,0,1,20.59,15Zm-3.92,7.15A1.14,1.14,0,0,1,17.82,21h3.05a1.14,1.14,0,1,1,0,2.29H17.82A1.14,1.14,0,0,1,16.67,22.15ZM41.45,38.84s0,0,0,.06c-.25,2.74-2.35,7.92-8.45,7.92H30.93a6.72,6.72,0,0,1-.7-.07h0a9.45,9.45,0,0,1-8.61-5.85C19.22,35.38,18,34,18,34a1.29,1.29,0,0,1-.2-.28c-.57-1.17-1.07-3.67,1-4.89a3.15,3.15,0,0,1,4.27.76V22.92a3.64,3.64,0,0,1,1.08-2.43,3.13,3.13,0,0,1,2.07-.77h.31A3.46,3.46,0,0,1,30,23.2s0,.06,0,.1v5.53H35.5c4.75,0,5.9,5.68,5.94,5.93a1,1,0,0,1,0,.11,1.1,1.1,0,0,1,0,.11v3.81S41.45,38.82,41.45,38.84Z" style="fill: #5c41b4"/>
  </g>
</svg>
