<?xml version="1.0" encoding="utf-8"?>
<!-- Generator: Adobe Illustrator 23.0.3, SVG Export Plug-In . SVG Version: 6.00 Build 0)  -->
<svg version="1.1" id="Layer_1" xmlns="http://www.w3.org/2000/svg" xmlns:xlink="http://www.w3.org/1999/xlink" x="0px" y="0px"
	 viewBox="0 0 60 60" style="enable-background:new 0 0 60 60;" xml:space="preserve">
<style type="text/css">
	.st0{fill:#FFFFFF;}
	.st1{clip-path:url(#SVGID_2_);}
	.st2{fill:#1E96F3;stroke:#000000;stroke-width:0.993;stroke-linecap:round;stroke-linejoin:round;stroke-miterlimit:10;}
	.st3{fill:none;stroke:#000000;stroke-width:0.993;stroke-linecap:round;stroke-linejoin:round;stroke-miterlimit:10;}
	.st4{fill:#F4CD98;stroke:#010202;stroke-width:0.993;stroke-linecap:round;stroke-linejoin:round;stroke-miterlimit:10;}
	.st5{fill:#F4CD98;stroke:#000000;stroke-width:0.993;stroke-linecap:round;stroke-linejoin:round;stroke-miterlimit:10;}
	.st6{stroke:#000000;stroke-width:0.993;stroke-linecap:round;stroke-linejoin:round;stroke-miterlimit:10;}
	.st7{fill:#F9E3C7;}
	.st8{fill:none;}
</style>
<circle class="st0" cx="30" cy="30" r="29.7"/>
<g id="Idle_1_">
	<g>
		<g>
			<g>
				<defs>
					<circle id="SVGID_1_" cx="30" cy="30" r="29.7"/>
				</defs>
				<clipPath id="SVGID_2_">
					<use xlink:href="#SVGID_1_"  style="overflow:visible;"/>
				</clipPath>
				<g class="st1">
					<path class="st2" d="M28.1,34.8h3.8c8.6,0,15.6,7,15.6,15.6v11.9h-35V50.4C12.5,41.8,19.5,34.8,28.1,34.8z"/>
					<g>
						<g>
							<line class="st3" x1="21.3" y1="62.3" x2="21.3" y2="54"/>
						</g>
						<g>
							<line class="st3" x1="38.7" y1="62.3" x2="38.7" y2="54"/>
						</g>
					</g>
				</g>
			</g>
		</g>
	</g>
</g>
<circle class="st4" cx="41.3" cy="24.4" r="2.6"/>
<circle class="st4" cx="18.6" cy="24.4" r="2.6"/>
<path class="st5" d="M30,38.6L30,38.6c-6.3,0-11.3-5.1-11.3-11.3v-5.8c0-6.3,5.1-11.3,11.3-11.3l0,0c6.3,0,11.3,5.1,11.3,11.3v5.8
	C41.3,33.5,36.2,38.6,30,38.6z"/>
<path class="st3" d="M29.2,24.4l-0.9,2.9c-0.2,0.6,0.3,1.2,0.9,1.2h1.2"/>
<g>
	<g>
		<path class="st6" d="M43.5,19.9c0,0.6-0.4,1.2-1,1.3c-0.1,0-0.2,0-0.3,0.1c0,0-0.1,0-0.1,0c-0.1,0-0.2,0-0.3,0c0,0,0,0,0,0
			C35.2,20.9,30,15.4,30,8.7v0c0-0.1,0-0.1,0-0.2c0.1-0.8,0.7-1.3,1.5-1.3c0.8,0.1,1.3,0.7,1.3,1.5c0,0.1,0,0.2-0.1,0.3
			c0,0,0.1,0,0.1,0c0-0.1,0-0.2,0.1-0.3c0.2-0.7,1-1.1,1.7-0.9c0.7,0.2,1.1,1,0.9,1.7c0,0.1-0.1,0.2-0.2,0.3c0,0,0.1,0,0.1,0
			c0-0.1,0.1-0.2,0.1-0.3c0.4-0.6,1.3-0.8,1.9-0.4c0.6,0.4,0.8,1.3,0.4,1.9c-0.1,0.1-0.1,0.2-0.2,0.2c0,0,0.1,0,0.1,0.1
			c0.1-0.1,0.1-0.2,0.2-0.2c0.5-0.5,1.4-0.5,1.9,0s0.5,1.4,0,1.9c-0.1,0-0.1,0.1-0.2,0.1c0,0,0,0,0.1,0.1c0,0,0.1-0.1,0.2-0.1
			c0.7-0.4,1.5-0.1,1.9,0.5c0.4,0.7,0.1,1.5-0.5,1.9c0,0,0,0-0.1,0c0,0,0,0.1,0,0.1c0,0,0,0,0,0c0.7-0.2,1.5,0.2,1.7,1
			c0.2,0.7-0.2,1.4-0.8,1.7c0,0,0,0.1,0,0.2C42.9,18.6,43.5,19.2,43.5,19.9z"/>
	</g>
	<g>
		<path class="st6" d="M16.5,19.9c0,0.6,0.4,1.2,1,1.3c0.1,0,0.2,0,0.3,0.1c0,0,0.1,0,0.1,0c0.1,0,0.2,0,0.3,0c0,0,0,0,0,0
			C24.7,20.9,30,15.4,30,8.7v0c0-0.1,0-0.1,0-0.2c-0.1-0.8-0.7-1.3-1.5-1.3c-0.8,0.1-1.3,0.7-1.3,1.5c0,0.1,0,0.2,0.1,0.3
			c0,0-0.1,0-0.1,0c0-0.1,0-0.2-0.1-0.3c-0.2-0.7-1-1.1-1.7-0.9c-0.7,0.2-1.1,1-0.9,1.7c0,0.1,0.1,0.2,0.2,0.3c0,0-0.1,0-0.1,0
			c0-0.1-0.1-0.2-0.1-0.3C24,9,23.2,8.8,22.5,9.2c-0.6,0.4-0.8,1.3-0.4,1.9c0.1,0.1,0.1,0.2,0.2,0.2c0,0-0.1,0-0.1,0.1
			c-0.1-0.1-0.1-0.2-0.2-0.2c-0.5-0.5-1.4-0.5-1.9,0c-0.5,0.6-0.5,1.4,0,1.9c0.1,0,0.1,0.1,0.2,0.1c0,0,0,0-0.1,0.1
			c0,0-0.1-0.1-0.2-0.1c-0.7-0.4-1.5-0.1-1.9,0.5c-0.4,0.7-0.1,1.5,0.5,1.9c0,0,0,0,0.1,0c0,0,0,0.1,0,0.1c0,0,0,0,0,0
			c-0.7-0.2-1.5,0.2-1.7,1c-0.2,0.7,0.2,1.4,0.8,1.7c0,0,0,0.1,0,0.2C17,18.6,16.5,19.2,16.5,19.9z"/>
	</g>
</g>
<path class="st3" d="M33.8,30.7c-0.6,0.6-1.3,1-2.1,1.2c-0.8,0.2-1.7,0.2-2.5,0"/>
<path class="st3" d="M33.5,20.6c1.2-0.8,2.7-0.7,3.8,0.1"/>
<path class="st3" d="M26.4,20.6c-1.2-0.8-2.7-0.7-3.8,0.1"/>
<g>
	<g>
		<g>
			<path class="st7" d="M36.6,26.6h-2.3c-1,0-1.7-0.8-1.7-1.7v-2.4h5.7v2.4C38.3,25.8,37.5,26.6,36.6,26.6z"/>
			<path d="M36.6,27.1h-2.3c-1.2,0-2.2-1-2.2-2.2v-2.4c0-0.3,0.2-0.5,0.5-0.5h5.7c0.3,0,0.5,0.2,0.5,0.5v2.4
				C38.8,26.1,37.8,27.1,36.6,27.1z M33.1,22.9v1.9c0,0.7,0.6,1.2,1.2,1.2h2.3c0.7,0,1.2-0.6,1.2-1.2v-1.9H33.1z"/>
		</g>
		<circle cx="35.4" cy="24.5" r="0.8"/>
		<g>
			<line class="st8" x1="38.3" y1="22.4" x2="41.3" y2="23.7"/>
			<path d="M41.3,24.2c-0.1,0-0.1,0-0.2,0l-3-1.3c-0.3-0.1-0.4-0.4-0.3-0.7c0.1-0.3,0.4-0.4,0.7-0.3l3,1.3c0.3,0.1,0.4,0.4,0.3,0.7
				C41.7,24.1,41.5,24.2,41.3,24.2z"/>
		</g>
	</g>
	<g>
		<g>
			<path class="st7" d="M25.5,26.6h-2.3c-1,0-1.7-0.8-1.7-1.7v-2.4h5.7v2.4C27.3,25.8,26.5,26.6,25.5,26.6z"/>
			<path d="M25.5,27.1h-2.3c-1.2,0-2.2-1-2.2-2.2v-2.4c0-0.3,0.2-0.5,0.5-0.5h5.7c0.3,0,0.5,0.2,0.5,0.5v2.4
				C27.7,26.1,26.7,27.1,25.5,27.1z M22,22.9v1.9c0,0.7,0.6,1.2,1.2,1.2h2.3c0.7,0,1.2-0.6,1.2-1.2v-1.9H22z"/>
		</g>
		<circle cx="24.4" cy="24.5" r="0.8"/>
		<g>
			<line class="st8" x1="18.7" y1="23.7" x2="21.5" y2="22.4"/>
			<path d="M18.7,24.2c-0.2,0-0.4-0.1-0.5-0.3c-0.1-0.3,0-0.5,0.3-0.7l2.8-1.3c0.3-0.1,0.5,0,0.7,0.3c0.1,0.3,0,0.5-0.3,0.7
				l-2.8,1.3C18.8,24.2,18.7,24.2,18.7,24.2z"/>
		</g>
	</g>
	<g>
		<line class="st8" x1="27.3" y1="22.4" x2="32.6" y2="22.4"/>
		<path d="M32.6,22.9h-5.3c-0.3,0-0.5-0.2-0.5-0.5s0.2-0.5,0.5-0.5h5.3c0.3,0,0.5,0.2,0.5,0.5S32.9,22.9,32.6,22.9z"/>
	</g>
</g>
</svg>
