<svg version="1.1" viewBox="0.0 0.0 600.0 371.0" fill="none" stroke="none" stroke-linecap="square" stroke-miterlimit="10" width="600" height="371" xmlns:xlink="http://www.w3.org/1999/xlink" xmlns="http://www.w3.org/2000/svg"><path fill="#ffffff" d="M0 0L600.0 0L600.0 371.0L0 371.0L0 0Z" fill-rule="nonzero"/><path stroke="#333333" stroke-width="1.0" stroke-linecap="butt" d="M73.5 332.5L581.5 332.5" fill-rule="nonzero"/><path stroke="#ffffff" stroke-width="1.0" stroke-linecap="butt" d="M73.5 262.5L581.5 262.5" fill-rule="nonzero"/><path stroke="#ffffff" stroke-width="1.0" stroke-linecap="butt" d="M73.5 192.5L581.5 192.5" fill-rule="nonzero"/><path stroke="#ffffff" stroke-width="1.0" stroke-linecap="butt" d="M73.5 122.5L581.5 122.5" fill-rule="nonzero"/><path stroke="#ffffff" stroke-width="1.0" stroke-linecap="butt" d="M73.5 51.5L581.5 51.5" fill-rule="nonzero"/><clipPath id="id_0"><path d="M73.55 51.916668L581.45 51.916668L581.45 332.45L73.55 332.45L73.55 51.916668Z" clip-rule="nonzero"/></clipPath><path stroke="#000000" stroke-width="0.0" stroke-linecap="butt" stroke-opacity="0.0" clip-path="url(#id_0)" d="M159.0 332.0L127.0 332.0L127.0 101.0C127.0 99.89543 127.89543 99.0 129.0 99.0L157.0 99.0C158.10457 99.0 159.0 99.89543 159.0 101.0Z" fill-rule="nonzero"/><path fill="#67c118" clip-path="url(#id_0)" d="M159.0 332.0L127.0 332.0L127.0 101.0C127.0 99.89543 127.89543 99.0 129.0 99.0L157.0 99.0C158.10457 99.0 159.0 99.89543 159.0 101.0Z" fill-rule="nonzero"/><path stroke="#000000" stroke-width="0.0" stroke-linecap="butt" stroke-opacity="0.0" clip-path="url(#id_0)" d="M311.0 332.0L279.0 332.0L279.0 129.0C279.0 127.89543 279.89542 127.0 281.0 127.0L309.0 127.0C310.10458 127.0 311.0 127.89543 311.0 129.0Z" fill-rule="nonzero"/><path fill="#67c118" clip-path="url(#id_0)" d="M311.0 332.0L279.0 332.0L279.0 129.0C279.0 127.89543 279.89542 127.0 281.0 127.0L309.0 127.0C310.10458 127.0 311.0 127.89543 311.0 129.0Z" fill-rule="nonzero"/><path stroke="#000000" stroke-width="0.0" stroke-linecap="butt" stroke-opacity="0.0" clip-path="url(#id_0)" d="M462.0 332.0L430.0 332.0L430.0 105.0C430.0 103.89543 430.89542 103.0 432.0 103.0L460.0 103.0C461.10458 103.0 462.0 103.89543 462.0 105.0Z" fill-rule="nonzero"/><path fill="#67c118" clip-path="url(#id_0)" d="M462.0 332.0L430.0 332.0L430.0 105.0C430.0 103.89543 430.89542 103.0 432.0 103.0L460.0 103.0C461.10458 103.0 462.0 103.89543 462.0 105.0Z" fill-rule="nonzero"/><path stroke="#000000" stroke-width="0.0" stroke-linecap="butt" stroke-opacity="0.0" clip-path="url(#id_0)" d="M192.0 332.0L160.0 332.0L160.0 332.0L192.0 332.0Z" fill-rule="nonzero"/><path fill="#fdee35" clip-path="url(#id_0)" d="M192.0 332.0L160.0 332.0L160.0 332.0L192.0 332.0Z" fill-rule="nonzero"/><path stroke="#000000" stroke-width="0.0" stroke-linecap="butt" stroke-opacity="0.0" clip-path="url(#id_0)" d="M344.0 332.0L312.0 332.0L312.0 278.0C312.0 276.89542 312.89542 276.0 314.0 276.0L342.0 276.0C343.10458 276.0 344.0 276.89542 344.0 278.0Z" fill-rule="nonzero"/><path fill="#fdee35" clip-path="url(#id_0)" d="M344.0 332.0L312.0 332.0L312.0 278.0C312.0 276.89542 312.89542 276.0 314.0 276.0L342.0 276.0C343.10458 276.0 344.0 276.89542 344.0 278.0Z" fill-rule="nonzero"/><path stroke="#000000" stroke-width="0.0" stroke-linecap="butt" stroke-opacity="0.0" clip-path="url(#id_0)" d="M495.0 332.0L463.0 332.0L463.0 283.0C463.0 281.89542 463.89542 281.0 465.0 281.0L493.0 281.0C494.10458 281.0 495.0 281.89542 495.0 283.0Z" fill-rule="nonzero"/><path fill="#fdee35" clip-path="url(#id_0)" d="M495.0 332.0L463.0 332.0L463.0 283.0C463.0 281.89542 463.89542 281.0 465.0 281.0L493.0 281.0C494.10458 281.0 495.0 281.89542 495.0 283.0Z" fill-rule="nonzero"/><path stroke="#000000" stroke-width="0.0" stroke-linecap="butt" stroke-opacity="0.0" clip-path="url(#id_0)" d="M225.0 332.0L193.0 332.0L193.0 332.0L225.0 332.0Z" fill-rule="nonzero"/><path fill="#e65d37" clip-path="url(#id_0)" d="M225.0 332.0L193.0 332.0L193.0 332.0L225.0 332.0Z" fill-rule="nonzero"/><path stroke="#000000" stroke-width="0.0" stroke-linecap="butt" stroke-opacity="0.0" clip-path="url(#id_0)" d="M377.0 332.0L345.0 332.0L345.0 316.0C345.0 314.89542 345.89542 314.0 347.0 314.0L375.0 314.0C376.10458 314.0 377.0 314.89542 377.0 316.0Z" fill-rule="nonzero"/><path fill="#e65d37" clip-path="url(#id_0)" d="M377.0 332.0L345.0 332.0L345.0 316.0C345.0 314.89542 345.89542 314.0 347.0 314.0L375.0 314.0C376.10458 314.0 377.0 314.89542 377.0 316.0Z" fill-rule="nonzero"/><path stroke="#000000" stroke-width="0.0" stroke-linecap="butt" stroke-opacity="0.0" clip-path="url(#id_0)" d="M528.0 332.0L496.0 332.0L496.0 332.0L528.0 332.0Z" fill-rule="nonzero"/><path fill="#e65d37" clip-path="url(#id_0)" d="M528.0 332.0L496.0 332.0L496.0 332.0L528.0 332.0Z" fill-rule="nonzero"/><path fill="#000000" d="M33.05 332.21564Q33.05 330.6844 33.3625 329.7625Q33.675 328.825 34.284374 328.325Q34.909374 327.825 35.846874 327.825Q36.534374 327.825 37.05 328.10626Q37.58125 328.3875 37.925 328.91876Q38.26875 329.4344 38.45625 330.1844Q38.64375 330.9344 38.64375 332.21564Q38.64375 333.73126 38.33125 334.65314Q38.034374 335.575 37.409374 336.09064Q36.8 336.59064 35.846874 336.59064Q34.6125 336.59064 33.89375 335.7Q33.05 334.6375 33.05 332.21564ZM34.128124 332.21564Q34.128124 334.325 34.628124 335.02814Q35.128124 335.73126 35.846874 335.73126Q36.58125 335.73126 37.065624 335.02814Q37.565624 334.325 37.565624 332.21564Q37.565624 330.09064 37.065624 329.40314Q36.58125 328.7 35.83125 328.7Q35.1125 328.7 34.675 329.3094Q34.128124 330.09064 34.128124 332.21564ZM40.64375 336.45L40.64375 335.2469L41.846874 335.2469L41.846874 336.45L40.64375 336.45ZM43.05 332.21564Q43.05 330.6844 43.3625 329.7625Q43.675 328.825 44.284374 328.325Q44.909374 327.825 45.846874 327.825Q46.534374 327.825 47.05 328.10626Q47.58125 328.3875 47.925 328.91876Q48.26875 329.4344 48.45625 330.1844Q48.64375 330.9344 48.64375 332.21564Q48.64375 333.73126 48.33125 334.65314Q48.034374 335.575 47.409374 336.09064Q46.8 336.59064 45.846874 336.59064Q44.6125 336.59064 43.89375 335.7Q43.05 334.6375 43.05 332.21564ZM44.128124 332.21564Q44.128124 334.325 44.628124 335.02814Q45.128124 335.73126 45.846874 335.73126Q46.58125 335.73126 47.065624 335.02814Q47.565624 334.325 47.565624 332.21564Q47.565624 330.09064 47.065624 329.40314Q46.58125 328.7 45.83125 328.7Q45.1125 328.7 44.675 329.3094Q44.128124 330.09064 44.128124 332.21564ZM50.05 332.21564Q50.05 330.6844 50.3625 329.7625Q50.675 328.825 51.284374 328.325Q51.909374 327.825 52.846874 327.825Q53.534374 327.825 54.05 328.10626Q54.58125 328.3875 54.925 328.91876Q55.26875 329.4344 55.45625 330.1844Q55.64375 330.9344 55.64375 332.21564Q55.64375 333.73126 55.33125 334.65314Q55.034374 335.575 54.409374 336.09064Q53.8 336.59064 52.846874 336.59064Q51.6125 336.59064 50.89375 335.7Q50.05 334.6375 50.05 332.21564ZM51.128124 332.21564Q51.128124 334.325 51.628124 335.02814Q52.128124 335.73126 52.846874 335.73126Q53.58125 335.73126 54.065624 335.02814Q54.565624 334.325 54.565624 332.21564Q54.565624 330.09064 54.065624 329.40314Q53.58125 328.7 52.83125 328.7Q52.1125 328.7 51.675 329.3094Q51.128124 330.09064 51.128124 332.21564ZM57.253124 329.91876Q57.253124 328.9969 57.70625 328.35626Q58.175 327.71564 59.05 327.71564Q59.8625 327.71564 60.39375 328.29376Q60.925 328.8719 60.925 329.98126Q60.925 331.075 60.378124 331.66876Q59.846874 332.2469 59.065624 332.2469Q58.284374 332.2469 57.76875 331.66876Q57.253124 331.09064 57.253124 329.91876ZM59.08125 328.4344Q58.690624 328.4344 58.425 328.77814Q58.175 329.1219 58.175 330.02814Q58.175 330.85626 58.425 331.2Q58.690624 331.52814 59.08125 331.52814Q59.4875 331.52814 59.7375 331.1844Q60.003124 330.84064 60.003124 329.95Q60.003124 329.10626 59.7375 328.77814Q59.471874 328.4344 59.08125 328.4344ZM59.08125 336.7625L63.784374 327.71564L64.64375 327.71564L59.95625 336.7625L59.08125 336.7625ZM62.8 334.4344Q62.8 333.5125 63.253124 332.8719Q63.721874 332.23126 64.6125 332.23126Q65.425 332.23126 65.95625 332.8094Q66.4875 333.3719 66.4875 334.4969Q66.4875 335.59064 65.94063 336.1844Q65.40938 336.7625 64.6125 336.7625Q63.846874 336.7625 63.315624 336.1844Q62.8 335.60626 62.8 334.4344ZM64.64375 332.95Q64.2375 332.95 63.971874 333.29376Q63.721874 333.6375 63.721874 334.54376Q63.721874 335.35626 63.9875 335.7Q64.25313 336.04376 64.64375 336.04376Q65.03438 336.04376 65.3 335.7Q65.56563 335.35626 65.56563 334.45Q65.56563 333.6219 65.3 333.29376Q65.03438 332.95 64.64375 332.95Z" fill-rule="nonzero"/><path fill="#000000" d="M31.596874 265.30106L31.596874 266.31668L25.909374 266.31668Q25.909374 265.94168 26.034374 265.5823Q26.253124 265.00418 26.721874 264.44168Q27.20625 263.87918 28.1125 263.1448Q29.51875 261.98856 30.003124 261.31668Q30.503124 260.6448 30.503124 260.05106Q30.503124 259.42606 30.05 259.00418Q29.596874 258.56668 28.878124 258.56668Q28.1125 258.56668 27.659374 259.0198Q27.20625 259.47293 27.190624 260.28543L26.1125 260.17606Q26.221874 258.9573 26.940624 258.3323Q27.675 257.69168 28.909374 257.69168Q30.14375 257.69168 30.8625 258.37918Q31.58125 259.06668 31.58125 260.0823Q31.58125 260.59793 31.3625 261.09793Q31.159374 261.5823 30.659374 262.1448Q30.175 262.69168 29.05 263.6448Q28.096874 264.44168 27.815624 264.73856Q27.55 265.0198 27.378124 265.30106L31.596874 265.30106ZM33.05 264.06668L34.159374 263.97293Q34.284374 264.78543 34.721874 265.19168Q35.175 265.59793 35.815624 265.59793Q36.565624 265.59793 37.096874 265.0198Q37.628124 264.44168 37.628124 263.50418Q37.628124 262.59793 37.1125 262.0823Q36.6125 261.55106 35.784374 261.55106Q35.284374 261.55106 34.8625 261.78543Q34.45625 262.0198 34.221874 262.37918L33.2375 262.25418L34.065624 257.84793L38.346874 257.84793L38.346874 258.84793L34.909374 258.84793L34.45625 261.16043Q35.221874 260.61356 36.065624 260.61356Q37.190624 260.61356 37.95625 261.3948Q38.7375 262.17606 38.7375 263.41043Q38.7375 264.56668 38.065624 265.42606Q37.2375 266.4573 35.815624 266.4573Q34.64375 266.4573 33.89375 265.80106Q33.159374 265.1448 33.05 264.06668ZM40.64375 266.31668L40.64375 265.11356L41.846874 265.11356L41.846874 266.31668L40.64375 266.31668ZM43.05 262.0823Q43.05 260.55106 43.3625 259.62918Q43.675 258.69168 44.284374 258.19168Q44.909374 257.69168 45.846874 257.69168Q46.534374 257.69168 47.05 257.97293Q47.58125 258.25418 47.925 258.78543Q48.26875 259.30106 48.45625 260.05106Q48.64375 260.80106 48.64375 262.0823Q48.64375 263.59793 48.33125 264.5198Q48.034374 265.44168 47.409374 265.9573Q46.8 266.4573 45.846874 266.4573Q44.6125 266.4573 43.89375 265.56668Q43.05 264.50418 43.05 262.0823ZM44.128124 262.0823Q44.128124 264.19168 44.628124 264.8948Q45.128124 265.59793 45.846874 265.59793Q46.58125 265.59793 47.065624 264.8948Q47.565624 264.19168 47.565624 262.0823Q47.565624 259.9573 47.065624 259.2698Q46.58125 258.56668 45.83125 258.56668Q45.1125 258.56668 44.675 259.17606Q44.128124 259.9573 44.128124 262.0823ZM50.05 262.0823Q50.05 260.55106 50.3625 259.62918Q50.675 258.69168 51.284374 258.19168Q51.909374 257.69168 52.846874 257.69168Q53.534374 257.69168 54.05 257.97293Q54.58125 258.25418 54.925 258.78543Q55.26875 259.30106 55.45625 260.05106Q55.64375 260.80106 55.64375 262.0823Q55.64375 263.59793 55.33125 264.5198Q55.034374 265.44168 54.409374 265.9573Q53.8 266.4573 52.846874 266.4573Q51.6125 266.4573 50.89375 265.56668Q50.05 264.50418 50.05 262.0823ZM51.128124 262.0823Q51.128124 264.19168 51.628124 264.8948Q52.128124 265.59793 52.846874 265.59793Q53.58125 265.59793 54.065624 264.8948Q54.565624 264.19168 54.565624 262.0823Q54.565624 259.9573 54.065624 259.2698Q53.58125 258.56668 52.83125 258.56668Q52.1125 258.56668 51.675 259.17606Q51.128124 259.9573 51.128124 262.0823ZM57.253124 259.78543Q57.253124 258.86356 57.70625 258.22293Q58.175 257.5823 59.05 257.5823Q59.8625 257.5823 60.39375 258.16043Q60.925 258.73856 60.925 259.84793Q60.925 260.94168 60.378124 261.53543Q59.846874 262.11356 59.065624 262.11356Q58.284374 262.11356 57.76875 261.53543Q57.253124 260.9573 57.253124 259.78543ZM59.08125 258.30106Q58.690624 258.30106 58.425 258.6448Q58.175 258.98856 58.175 259.8948Q58.175 260.72293 58.425 261.06668Q58.690624 261.3948 59.08125 261.3948Q59.4875 261.3948 59.7375 261.05106Q60.003124 260.7073 60.003124 259.81668Q60.003124 258.97293 59.7375 258.6448Q59.471874 258.30106 59.08125 258.30106ZM59.08125 266.62918L63.784374 257.5823L64.64375 257.5823L59.95625 266.62918L59.08125 266.62918ZM62.8 264.30106Q62.8 263.37918 63.253124 262.73856Q63.721874 262.09793 64.6125 262.09793Q65.425 262.09793 65.95625 262.67606Q66.4875 263.23856 66.4875 264.36356Q66.4875 265.4573 65.94063 266.05106Q65.40938 266.62918 64.6125 266.62918Q63.846874 266.62918 63.315624 266.05106Q62.8 265.47293 62.8 264.30106ZM64.64375 262.81668Q64.2375 262.81668 63.971874 263.16043Q63.721874 263.50418 63.721874 264.41043Q63.721874 265.22293 63.9875 265.56668Q64.25313 265.91043 64.64375 265.91043Q65.03438 265.91043 65.3 265.56668Q65.56563 265.22293 65.56563 264.31668Q65.56563 263.48856 65.3 263.16043Q65.03438 262.81668 64.64375 262.81668Z" fill-rule="nonzero"/><path fill="#000000" d="M26.05 193.93333L27.159374 193.83958Q27.284374 194.65208 27.721874 195.05833Q28.175 195.46458 28.815624 195.46458Q29.565624 195.46458 30.096874 194.88646Q30.628124 194.30833 30.628124 193.37083Q30.628124 192.46458 30.1125 191.94896Q29.6125 191.41771 28.784374 191.41771Q28.284374 191.41771 27.8625 191.65208Q27.45625 191.88646 27.221874 192.24583L26.2375 192.12083L27.065624 187.71458L31.346874 187.71458L31.346874 188.71458L27.909374 188.71458L27.45625 191.02708Q28.221874 190.48021 29.065624 190.48021Q30.190624 190.48021 30.95625 191.26146Q31.7375 192.04271 31.7375 193.27708Q31.7375 194.43333 31.065624 195.29271Q30.2375 196.32396 28.815624 196.32396Q27.64375 196.32396 26.89375 195.66771Q26.159374 195.01146 26.05 193.93333ZM33.05 191.94896Q33.05 190.41771 33.3625 189.49583Q33.675 188.55833 34.284374 188.05833Q34.909374 187.55833 35.846874 187.55833Q36.534374 187.55833 37.05 187.83958Q37.58125 188.12083 37.925 188.65208Q38.26875 189.16771 38.45625 189.91771Q38.64375 190.66771 38.64375 191.94896Q38.64375 193.46458 38.33125 194.38646Q38.034374 195.30833 37.409374 195.82396Q36.8 196.32396 35.846874 196.32396Q34.6125 196.32396 33.89375 195.43333Q33.05 194.37083 33.05 191.94896ZM34.128124 191.94896Q34.128124 194.05833 34.628124 194.76146Q35.128124 195.46458 35.846874 195.46458Q36.58125 195.46458 37.065624 194.76146Q37.565624 194.05833 37.565624 191.94896Q37.565624 189.82396 37.065624 189.13646Q36.58125 188.43333 35.83125 188.43333Q35.1125 188.43333 34.675 189.04271Q34.128124 189.82396 34.128124 191.94896ZM40.64375 196.18333L40.64375 194.98021L41.846874 194.98021L41.846874 196.18333L40.64375 196.18333ZM43.05 191.94896Q43.05 190.41771 43.3625 189.49583Q43.675 188.55833 44.284374 188.05833Q44.909374 187.55833 45.846874 187.55833Q46.534374 187.55833 47.05 187.83958Q47.58125 188.12083 47.925 188.65208Q48.26875 189.16771 48.45625 189.91771Q48.64375 190.66771 48.64375 191.94896Q48.64375 193.46458 48.33125 194.38646Q48.034374 195.30833 47.409374 195.82396Q46.8 196.32396 45.846874 196.32396Q44.6125 196.32396 43.89375 195.43333Q43.05 194.37083 43.05 191.94896ZM44.128124 191.94896Q44.128124 194.05833 44.628124 194.76146Q45.128124 195.46458 45.846874 195.46458Q46.58125 195.46458 47.065624 194.76146Q47.565624 194.05833 47.565624 191.94896Q47.565624 189.82396 47.065624 189.13646Q46.58125 188.43333 45.83125 188.43333Q45.1125 188.43333 44.675 189.04271Q44.128124 189.82396 44.128124 191.94896ZM50.05 191.94896Q50.05 190.41771 50.3625 189.49583Q50.675 188.55833 51.284374 188.05833Q51.909374 187.55833 52.846874 187.55833Q53.534374 187.55833 54.05 187.83958Q54.58125 188.12083 54.925 188.65208Q55.26875 189.16771 55.45625 189.91771Q55.64375 190.66771 55.64375 191.94896Q55.64375 193.46458 55.33125 194.38646Q55.034374 195.30833 54.409374 195.82396Q53.8 196.32396 52.846874 196.32396Q51.6125 196.32396 50.89375 195.43333Q50.05 194.37083 50.05 191.94896ZM51.128124 191.94896Q51.128124 194.05833 51.628124 194.76146Q52.128124 195.46458 52.846874 195.46458Q53.58125 195.46458 54.065624 194.76146Q54.565624 194.05833 54.565624 191.94896Q54.565624 189.82396 54.065624 189.13646Q53.58125 188.43333 52.83125 188.43333Q52.1125 188.43333 51.675 189.04271Q51.128124 189.82396 51.128124 191.94896ZM57.253124 189.65208Q57.253124 188.73021 57.70625 188.08958Q58.175 187.44896 59.05 187.44896Q59.8625 187.44896 60.39375 188.02708Q60.925 188.60521 60.925 189.71458Q60.925 190.80833 60.378124 191.40208Q59.846874 191.98021 59.065624 191.98021Q58.284374 191.98021 57.76875 191.40208Q57.253124 190.82396 57.253124 189.65208ZM59.08125 188.16771Q58.690624 188.16771 58.425 188.51146Q58.175 188.85521 58.175 189.76146Q58.175 190.58958 58.425 190.93333Q58.690624 191.26146 59.08125 191.26146Q59.4875 191.26146 59.7375 190.91771Q60.003124 190.57396 60.003124 189.68333Q60.003124 188.83958 59.7375 188.51146Q59.471874 188.16771 59.08125 188.16771ZM59.08125 196.49583L63.784374 187.44896L64.64375 187.44896L59.95625 196.49583L59.08125 196.49583ZM62.8 194.16771Q62.8 193.24583 63.253124 192.60521Q63.721874 191.96458 64.6125 191.96458Q65.425 191.96458 65.95625 192.54271Q66.4875 193.10521 66.4875 194.23021Q66.4875 195.32396 65.94063 195.91771Q65.40938 196.49583 64.6125 196.49583Q63.846874 196.49583 63.315624 195.91771Q62.8 195.33958 62.8 194.16771ZM64.64375 192.68333Q64.2375 192.68333 63.971874 193.02708Q63.721874 193.37083 63.721874 194.27708Q63.721874 195.08958 63.9875 195.43333Q64.25313 195.77708 64.64375 195.77708Q65.03438 195.77708 65.3 195.43333Q65.56563 195.08958 65.56563 194.18333Q65.56563 193.35521 65.3 193.02708Q65.03438 192.68333 64.64375 192.68333Z" fill-rule="nonzero"/><path fill="#000000" d="M26.1125 118.58125L26.1125 117.56563L31.675 117.56563L31.675 118.39375Q30.8625 119.26875 30.05 120.72188Q29.253124 122.15938 28.815624 123.69063Q28.4875 124.76875 28.409374 126.05L27.315624 126.05Q27.33125 125.03438 27.70625 123.59688Q28.096874 122.15938 28.8 120.83125Q29.51875 119.50313 30.33125 118.58125L26.1125 118.58125ZM33.05 123.8L34.159374 123.70625Q34.284374 124.51875 34.721874 124.925Q35.175 125.33125 35.815624 125.33125Q36.565624 125.33125 37.096874 124.75313Q37.628124 124.175 37.628124 123.2375Q37.628124 122.33125 37.1125 121.81563Q36.6125 121.28438 35.784374 121.28438Q35.284374 121.28438 34.8625 121.51875Q34.45625 121.75313 34.221874 122.1125L33.2375 121.9875L34.065624 117.58125L38.346874 117.58125L38.346874 118.58125L34.909374 118.58125L34.45625 120.89375Q35.221874 120.34688 36.065624 120.34688Q37.190624 120.34688 37.95625 121.12813Q38.7375 121.90938 38.7375 123.14375Q38.7375 124.3 38.065624 125.15938Q37.2375 126.19063 35.815624 126.19063Q34.64375 126.19063 33.89375 125.53438Q33.159374 124.87813 33.05 123.8ZM40.64375 126.05L40.64375 124.84688L41.846874 124.84688L41.846874 126.05L40.64375 126.05ZM43.05 121.81563Q43.05 120.28438 43.3625 119.3625Q43.675 118.425 44.284374 117.925Q44.909374 117.425 45.846874 117.425Q46.534374 117.425 47.05 117.70625Q47.58125 117.9875 47.925 118.51875Q48.26875 119.03438 48.45625 119.78438Q48.64375 120.53438 48.64375 121.81563Q48.64375 123.33125 48.33125 124.25313Q48.034374 125.175 47.409374 125.69063Q46.8 126.19063 45.846874 126.19063Q44.6125 126.19063 43.89375 125.3Q43.05 124.2375 43.05 121.81563ZM44.128124 121.81563Q44.128124 123.925 44.628124 124.62813Q45.128124 125.33125 45.846874 125.33125Q46.58125 125.33125 47.065624 124.62813Q47.565624 123.925 47.565624 121.81563Q47.565624 119.69063 47.065624 119.00313Q46.58125 118.3 45.83125 118.3Q45.1125 118.3 44.675 118.90938Q44.128124 119.69063 44.128124 121.81563ZM50.05 121.81563Q50.05 120.28438 50.3625 119.3625Q50.675 118.425 51.284374 117.925Q51.909374 117.425 52.846874 117.425Q53.534374 117.425 54.05 117.70625Q54.58125 117.9875 54.925 118.51875Q55.26875 119.03438 55.45625 119.78438Q55.64375 120.53438 55.64375 121.81563Q55.64375 123.33125 55.33125 124.25313Q55.034374 125.175 54.409374 125.69063Q53.8 126.19063 52.846874 126.19063Q51.6125 126.19063 50.89375 125.3Q50.05 124.2375 50.05 121.81563ZM51.128124 121.81563Q51.128124 123.925 51.628124 124.62813Q52.128124 125.33125 52.846874 125.33125Q53.58125 125.33125 54.065624 124.62813Q54.565624 123.925 54.565624 121.81563Q54.565624 119.69063 54.065624 119.00313Q53.58125 118.3 52.83125 118.3Q52.1125 118.3 51.675 118.90938Q51.128124 119.69063 51.128124 121.81563ZM57.253124 119.51875Q57.253124 118.59688 57.70625 117.95625Q58.175 117.31563 59.05 117.31563Q59.8625 117.31563 60.39375 117.89375Q60.925 118.47188 60.925 119.58125Q60.925 120.675 60.378124 121.26875Q59.846874 121.84688 59.065624 121.84688Q58.284374 121.84688 57.76875 121.26875Q57.253124 120.69063 57.253124 119.51875ZM59.08125 118.03438Q58.690624 118.03438 58.425 118.37813Q58.175 118.72188 58.175 119.62813Q58.175 120.45625 58.425 120.8Q58.690624 121.12813 59.08125 121.12813Q59.4875 121.12813 59.7375 120.78438Q60.003124 120.44063 60.003124 119.55Q60.003124 118.70625 59.7375 118.37813Q59.471874 118.03438 59.08125 118.03438ZM59.08125 126.3625L63.784374 117.31563L64.64375 117.31563L59.95625 126.3625L59.08125 126.3625ZM62.8 124.03438Q62.8 123.1125 63.253124 122.47188Q63.721874 121.83125 64.6125 121.83125Q65.425 121.83125 65.95625 122.40938Q66.4875 122.97188 66.4875 124.09688Q66.4875 125.19063 65.94063 125.78438Q65.40938 126.3625 64.6125 126.3625Q63.846874 126.3625 63.315624 125.78438Q62.8 125.20625 62.8 124.03438ZM64.64375 122.55Q64.2375 122.55 63.971874 122.89375Q63.721874 123.2375 63.721874 124.14375Q63.721874 124.95625 63.9875 125.3Q64.25313 125.64375 64.64375 125.64375Q65.03438 125.64375 65.3 125.3Q65.56563 124.95625 65.56563 124.05Q65.56563 123.22188 65.3 122.89375Q65.03438 122.55 64.64375 122.55Z" fill-rule="nonzero"/><path fill="#000000" d="M23.01875 55.916668L21.971874 55.916668L21.971874 49.197918Q21.58125 49.557293 20.95625 49.932293Q20.346874 50.291668 19.8625 50.463543L19.8625 49.447918Q20.7375 49.026043 21.39375 48.447918Q22.065624 47.854168 22.346874 47.291668L23.01875 47.291668L23.01875 55.916668ZM26.05 51.682293Q26.05 50.151043 26.3625 49.229168Q26.675 48.291668 27.284374 47.791668Q27.909374 47.291668 28.846874 47.291668Q29.534374 47.291668 30.05 47.572918Q30.58125 47.854168 30.925 48.385418Q31.26875 48.901043 31.45625 49.651043Q31.64375 50.401043 31.64375 51.682293Q31.64375 53.197918 31.33125 54.119793Q31.034374 55.041668 30.409374 55.557293Q29.8 56.057293 28.846874 56.057293Q27.6125 56.057293 26.89375 55.166668Q26.05 54.104168 26.05 51.682293ZM27.128124 51.682293Q27.128124 53.791668 27.628124 54.494793Q28.128124 55.197918 28.846874 55.197918Q29.58125 55.197918 30.065624 54.494793Q30.565624 53.791668 30.565624 51.682293Q30.565624 49.557293 30.065624 48.869793Q29.58125 48.166668 28.83125 48.166668Q28.1125 48.166668 27.675 48.776043Q27.128124 49.557293 27.128124 51.682293ZM33.05 51.682293Q33.05 50.151043 33.3625 49.229168Q33.675 48.291668 34.284374 47.791668Q34.909374 47.291668 35.846874 47.291668Q36.534374 47.291668 37.05 47.572918Q37.58125 47.854168 37.925 48.385418Q38.26875 48.901043 38.45625 49.651043Q38.64375 50.401043 38.64375 51.682293Q38.64375 53.197918 38.33125 54.119793Q38.034374 55.041668 37.409374 55.557293Q36.8 56.057293 35.846874 56.057293Q34.6125 56.057293 33.89375 55.166668Q33.05 54.104168 33.05 51.682293ZM34.128124 51.682293Q34.128124 53.791668 34.628124 54.494793Q35.128124 55.197918 35.846874 55.197918Q36.58125 55.197918 37.065624 54.494793Q37.565624 53.791668 37.565624 51.682293Q37.565624 49.557293 37.065624 48.869793Q36.58125 48.166668 35.83125 48.166668Q35.1125 48.166668 34.675 48.776043Q34.128124 49.557293 34.128124 51.682293ZM40.64375 55.916668L40.64375 54.713543L41.846874 54.713543L41.846874 55.916668L40.64375 55.916668ZM43.05 51.682293Q43.05 50.151043 43.3625 49.229168Q43.675 48.291668 44.284374 47.791668Q44.909374 47.291668 45.846874 47.291668Q46.534374 47.291668 47.05 47.572918Q47.58125 47.854168 47.925 48.385418Q48.26875 48.901043 48.45625 49.651043Q48.64375 50.401043 48.64375 51.682293Q48.64375 53.197918 48.33125 54.119793Q48.034374 55.041668 47.409374 55.557293Q46.8 56.057293 45.846874 56.057293Q44.6125 56.057293 43.89375 55.166668Q43.05 54.104168 43.05 51.682293ZM44.128124 51.682293Q44.128124 53.791668 44.628124 54.494793Q45.128124 55.197918 45.846874 55.197918Q46.58125 55.197918 47.065624 54.494793Q47.565624 53.791668 47.565624 51.682293Q47.565624 49.557293 47.065624 48.869793Q46.58125 48.166668 45.83125 48.166668Q45.1125 48.166668 44.675 48.776043Q44.128124 49.557293 44.128124 51.682293ZM50.05 51.682293Q50.05 50.151043 50.3625 49.229168Q50.675 48.291668 51.284374 47.791668Q51.909374 47.291668 52.846874 47.291668Q53.534374 47.291668 54.05 47.572918Q54.58125 47.854168 54.925 48.385418Q55.26875 48.901043 55.45625 49.651043Q55.64375 50.401043 55.64375 51.682293Q55.64375 53.197918 55.33125 54.119793Q55.034374 55.041668 54.409374 55.557293Q53.8 56.057293 52.846874 56.057293Q51.6125 56.057293 50.89375 55.166668Q50.05 54.104168 50.05 51.682293ZM51.128124 51.682293Q51.128124 53.791668 51.628124 54.494793Q52.128124 55.197918 52.846874 55.197918Q53.58125 55.197918 54.065624 54.494793Q54.565624 53.791668 54.565624 51.682293Q54.565624 49.557293 54.065624 48.869793Q53.58125 48.166668 52.83125 48.166668Q52.1125 48.166668 51.675 48.776043Q51.128124 49.557293 51.128124 51.682293ZM57.253124 49.385418Q57.253124 48.463543 57.70625 47.822918Q58.175 47.182293 59.05 47.182293Q59.8625 47.182293 60.39375 47.760418Q60.925 48.338543 60.925 49.447918Q60.925 50.541668 60.378124 51.135418Q59.846874 51.713543 59.065624 51.713543Q58.284374 51.713543 57.76875 51.135418Q57.253124 50.557293 57.253124 49.385418ZM59.08125 47.901043Q58.690624 47.901043 58.425 48.244793Q58.175 48.588543 58.175 49.494793Q58.175 50.322918 58.425 50.666668Q58.690624 50.994793 59.08125 50.994793Q59.4875 50.994793 59.7375 50.651043Q60.003124 50.307293 60.003124 49.416668Q60.003124 48.572918 59.7375 48.244793Q59.471874 47.901043 59.08125 47.901043ZM59.08125 56.229168L63.784374 47.182293L64.64375 47.182293L59.95625 56.229168L59.08125 56.229168ZM62.8 53.901043Q62.8 52.979168 63.253124 52.338543Q63.721874 51.697918 64.6125 51.697918Q65.425 51.697918 65.95625 52.276043Q66.4875 52.838543 66.4875 53.963543Q66.4875 55.057293 65.94063 55.651043Q65.40938 56.229168 64.6125 56.229168Q63.846874 56.229168 63.315624 55.651043Q62.8 55.072918 62.8 53.901043ZM64.64375 52.416668Q64.2375 52.416668 63.971874 52.760418Q63.721874 53.104168 63.721874 54.010418Q63.721874 54.822918 63.9875 55.166668Q64.25313 55.510418 64.64375 55.510418Q65.03438 55.510418 65.3 55.166668Q65.56563 54.822918 65.56563 53.916668Q65.56563 53.088543 65.3 52.760418Q65.03438 52.416668 64.64375 52.416668Z" fill-rule="nonzero"/><path fill="#000000" d="M145.80994 349.45L145.80994 340.85626L149.05994 340.85626Q149.90369 340.85626 150.35681 340.9344Q150.99744 341.04376 151.41931 341.34064Q151.85681 341.6375 152.10681 342.16876Q152.37244 342.7 152.37244 343.34064Q152.37244 344.4344 151.66931 345.2Q150.98181 345.95 149.15369 345.95L146.95056 345.95L146.95056 349.45L145.80994 349.45ZM146.95056 344.95L149.16931 344.95Q150.27869 344.95 150.73181 344.54376Q151.20056 344.1219 151.20056 343.3719Q151.20056 342.84064 150.91931 342.46564Q150.65369 342.075 150.21619 341.95Q149.91931 341.8719 149.15369 341.8719L146.95056 341.8719L146.95056 344.95ZM153.66931 349.45L153.66931 343.23126L154.62244 343.23126L154.62244 344.16876Q154.98181 343.5125 155.27869 343.3094Q155.59119 343.09064 155.96619 343.09064Q156.49744 343.09064 157.04431 343.41876L156.68494 344.40314Q156.29431 344.16876 155.91931 344.16876Q155.55994 344.16876 155.27869 344.3875Q155.01306 344.59064 154.90369 344.96564Q154.71619 345.52814 154.71619 346.1844L154.71619 349.45L153.66931 349.45ZM157.29431 346.34064Q157.29431 344.60626 158.24744 343.77814Q159.04431 343.09064 160.20056 343.09064Q161.48181 343.09064 162.29431 343.9344Q163.12244 344.7625 163.12244 346.2469Q163.12244 347.45 162.76306 348.1375Q162.40369 348.825 161.70056 349.21564Q161.01306 349.59064 160.20056 349.59064Q158.90369 349.59064 158.09119 348.7625Q157.29431 347.91876 157.29431 346.34064ZM158.37244 346.34064Q158.37244 347.52814 158.88806 348.1219Q159.41931 348.71564 160.20056 348.71564Q160.99744 348.71564 161.51306 348.1219Q162.02869 347.52814 162.02869 346.3094Q162.02869 345.15314 161.49744 344.5594Q160.98181 343.96564 160.20056 343.96564Q159.41931 343.96564 158.88806 344.5594Q158.37244 345.1375 158.37244 346.34064ZM166.98181 348.5125L167.13806 349.4344Q166.68494 349.52814 166.34119 349.52814Q165.76306 349.52814 165.45056 349.35626Q165.13806 349.16876 164.99744 348.8719Q164.87244 348.575 164.87244 347.6219L164.87244 344.04376L164.10681 344.04376L164.10681 343.23126L164.87244 343.23126L164.87244 341.6844L165.91931 341.0594L165.91931 343.23126L166.98181 343.23126L166.98181 344.04376L165.91931 344.04376L165.91931 347.6844Q165.91931 348.1375 165.96619 348.2625Q166.02869 348.3875 166.15369 348.46564Q166.27869 348.54376 166.51306 348.54376Q166.70056 348.54376 166.98181 348.5125ZM167.29431 346.34064Q167.29431 344.60626 168.24744 343.77814Q169.04431 343.09064 170.20056 343.09064Q171.48181 343.09064 172.29431 343.9344Q173.12244 344.7625 173.12244 346.2469Q173.12244 347.45 172.76306 348.1375Q172.40369 348.825 171.70056 349.21564Q171.01306 349.59064 170.20056 349.59064Q168.90369 349.59064 168.09119 348.7625Q167.29431 347.91876 167.29431 346.34064ZM168.37244 346.34064Q168.37244 347.52814 168.88806 348.1219Q169.41931 348.71564 170.20056 348.71564Q170.99744 348.71564 171.51306 348.1219Q172.02869 347.52814 172.02869 346.3094Q172.02869 345.15314 171.49744 344.5594Q170.98181 343.96564 170.20056 343.96564Q169.41931 343.96564 168.88806 344.5594Q168.37244 345.1375 168.37244 346.34064ZM176.98181 348.5125L177.13806 349.4344Q176.68494 349.52814 176.34119 349.52814Q175.76306 349.52814 175.45056 349.35626Q175.13806 349.16876 174.99744 348.8719Q174.87244 348.575 174.87244 347.6219L174.87244 344.04376L174.10681 344.04376L174.10681 343.23126L174.87244 343.23126L174.87244 341.6844L175.91931 341.0594L175.91931 343.23126L176.98181 343.23126L176.98181 344.04376L175.91931 344.04376L175.91931 347.6844Q175.91931 348.1375 175.96619 348.2625Q176.02869 348.3875 176.15369 348.46564Q176.27869 348.54376 176.51306 348.54376Q176.70056 348.54376 176.98181 348.5125ZM177.63806 351.84064L177.51306 350.85626Q177.85681 350.95 178.12244 350.95Q178.46619 350.95 178.66931 350.825Q178.88806 350.71564 179.02869 350.5125Q179.12244 350.34064 179.35681 349.71564Q179.37244 349.6375 179.45056 349.46564L177.07556 343.23126L178.21619 343.23126L179.51306 346.825Q179.76306 347.5125 179.96619 348.27814Q180.15369 347.54376 180.40369 346.85626L181.73181 343.23126L182.77869 343.23126L180.41931 349.5594Q180.02869 350.575 179.82556 350.96564Q179.54431 351.4969 179.16931 351.73126Q178.80994 351.98126 178.30994 351.98126Q178.01306 351.98126 177.63806 351.84064ZM183.68494 351.84064L183.68494 343.23126L184.63806 343.23126L184.63806 344.02814Q184.98181 343.5594 185.40369 343.325Q185.84119 343.09064 186.45056 343.09064Q187.24744 343.09064 187.85681 343.4969Q188.46619 343.90314 188.76306 344.65314Q189.07556 345.40314 189.07556 346.29376Q189.07556 347.2469 188.73181 348.0125Q188.40369 348.77814 187.74744 349.1844Q187.09119 349.59064 186.37244 349.59064Q185.84119 349.59064 185.41931 349.3719Q184.99744 349.1375 184.73181 348.8094L184.73181 351.84064L183.68494 351.84064ZM184.63806 346.3719Q184.63806 347.575 185.12244 348.15314Q185.60681 348.71564 186.29431 348.71564Q186.99744 348.71564 187.49744 348.1219Q187.99744 347.52814 187.99744 346.27814Q187.99744 345.09064 187.51306 344.5125Q187.02869 343.91876 186.34119 343.91876Q185.66931 343.91876 185.15369 344.54376Q184.63806 345.16876 184.63806 346.3719ZM194.93494 347.45L196.02869 347.575Q195.77869 348.52814 195.07556 349.0594Q194.37244 349.59064 193.29431 349.59064Q191.93494 349.59064 191.12244 348.7469Q190.32556 347.90314 190.32556 346.3875Q190.32556 344.825 191.13806 343.96564Q191.95056 343.09064 193.23181 343.09064Q194.48181 343.09064 195.26306 343.9344Q196.05994 344.77814 196.05994 346.325Q196.05994 346.41876 196.05994 346.60626L191.41931 346.60626Q191.48181 347.6375 191.99744 348.1844Q192.51306 348.71564 193.29431 348.71564Q193.87244 348.71564 194.27869 348.41876Q194.70056 348.10626 194.93494 347.45ZM191.48181 345.7469L194.95056 345.7469Q194.88806 344.95 194.55994 344.5594Q194.04431 343.95 193.24744 343.95Q192.51306 343.95 192.01306 344.4344Q191.52869 344.91876 191.48181 345.7469ZM204.35681 349.45L203.30994 349.45L203.30994 342.73126Q202.91931 343.09064 202.29431 343.46564Q201.68494 343.825 201.20056 343.9969L201.20056 342.98126Q202.07556 342.5594 202.73181 341.98126Q203.40369 341.3875 203.68494 340.825L204.35681 340.825L204.35681 349.45Z" fill-rule="nonzero"/><path fill="#000000" d="M297.42188 349.45L297.42188 340.85626L300.67188 340.85626Q301.51562 340.85626 301.96875 340.9344Q302.60938 341.04376 303.03125 341.34064Q303.46875 341.6375 303.71875 342.16876Q303.98438 342.7 303.98438 343.34064Q303.98438 344.4344 303.28125 345.2Q302.59375 345.95 300.76562 345.95L298.5625 345.95L298.5625 349.45L297.42188 349.45ZM298.5625 344.95L300.78125 344.95Q301.89062 344.95 302.34375 344.54376Q302.8125 344.1219 302.8125 343.3719Q302.8125 342.84064 302.53125 342.46564Q302.26562 342.075 301.82812 341.95Q301.53125 341.8719 300.76562 341.8719L298.5625 341.8719L298.5625 344.95ZM305.28125 349.45L305.28125 343.23126L306.23438 343.23126L306.23438 344.16876Q306.59375 343.5125 306.89062 343.3094Q307.20312 343.09064 307.57812 343.09064Q308.10938 343.09064 308.65625 343.41876L308.29688 344.40314Q307.90625 344.16876 307.53125 344.16876Q307.17188 344.16876 306.89062 344.3875Q306.625 344.59064 306.51562 344.96564Q306.32812 345.52814 306.32812 346.1844L306.32812 349.45L305.28125 349.45ZM308.90625 346.34064Q308.90625 344.60626 309.85938 343.77814Q310.65625 343.09064 311.8125 343.09064Q313.09375 343.09064 313.90625 343.9344Q314.73438 344.7625 314.73438 346.2469Q314.73438 347.45 314.375 348.1375Q314.01562 348.825 313.3125 349.21564Q312.625 349.59064 311.8125 349.59064Q310.51562 349.59064 309.70312 348.7625Q308.90625 347.91876 308.90625 346.34064ZM309.98438 346.34064Q309.98438 347.52814 310.5 348.1219Q311.03125 348.71564 311.8125 348.71564Q312.60938 348.71564 313.125 348.1219Q313.64062 347.52814 313.64062 346.3094Q313.64062 345.15314 313.10938 344.5594Q312.59375 343.96564 311.8125 343.96564Q311.03125 343.96564 310.5 344.5594Q309.98438 345.1375 309.98438 346.34064ZM318.59375 348.5125L318.75 349.4344Q318.29688 349.52814 317.95312 349.52814Q317.375 349.52814 317.0625 349.35626Q316.75 349.16876 316.60938 348.8719Q316.48438 348.575 316.48438 347.6219L316.48438 344.04376L315.71875 344.04376L315.71875 343.23126L316.48438 343.23126L316.48438 341.6844L317.53125 341.0594L317.53125 343.23126L318.59375 343.23126L318.59375 344.04376L317.53125 344.04376L317.53125 347.6844Q317.53125 348.1375 317.57812 348.2625Q317.64062 348.3875 317.76562 348.46564Q317.89062 348.54376 318.125 348.54376Q318.3125 348.54376 318.59375 348.5125ZM318.90625 346.34064Q318.90625 344.60626 319.85938 343.77814Q320.65625 343.09064 321.8125 343.09064Q323.09375 343.09064 323.90625 343.9344Q324.73438 344.7625 324.73438 346.2469Q324.73438 347.45 324.375 348.1375Q324.01562 348.825 323.3125 349.21564Q322.625 349.59064 321.8125 349.59064Q320.51562 349.59064 319.70312 348.7625Q318.90625 347.91876 318.90625 346.34064ZM319.98438 346.34064Q319.98438 347.52814 320.5 348.1219Q321.03125 348.71564 321.8125 348.71564Q322.60938 348.71564 323.125 348.1219Q323.64062 347.52814 323.64062 346.3094Q323.64062 345.15314 323.10938 344.5594Q322.59375 343.96564 321.8125 343.96564Q321.03125 343.96564 320.5 344.5594Q319.98438 345.1375 319.98438 346.34064ZM328.59375 348.5125L328.75 349.4344Q328.29688 349.52814 327.95312 349.52814Q327.375 349.52814 327.0625 349.35626Q326.75 349.16876 326.60938 348.8719Q326.48438 348.575 326.48438 347.6219L326.48438 344.04376L325.71875 344.04376L325.71875 343.23126L326.48438 343.23126L326.48438 341.6844L327.53125 341.0594L327.53125 343.23126L328.59375 343.23126L328.59375 344.04376L327.53125 344.04376L327.53125 347.6844Q327.53125 348.1375 327.57812 348.2625Q327.64062 348.3875 327.76562 348.46564Q327.89062 348.54376 328.125 348.54376Q328.3125 348.54376 328.59375 348.5125ZM329.25 351.84064L329.125 350.85626Q329.46875 350.95 329.73438 350.95Q330.07812 350.95 330.28125 350.825Q330.5 350.71564 330.64062 350.5125Q330.73438 350.34064 330.96875 349.71564Q330.98438 349.6375 331.0625 349.46564L328.6875 343.23126L329.82812 343.23126L331.125 346.825Q331.375 347.5125 331.57812 348.27814Q331.76562 347.54376 332.01562 346.85626L333.34375 343.23126L334.39062 343.23126L332.03125 349.5594Q331.64062 350.575 331.4375 350.96564Q331.15625 351.4969 330.78125 351.73126Q330.42188 351.98126 329.92188 351.98126Q329.625 351.98126 329.25 351.84064ZM335.29688 351.84064L335.29688 343.23126L336.25 343.23126L336.25 344.02814Q336.59375 343.5594 337.01562 343.325Q337.45312 343.09064 338.0625 343.09064Q338.85938 343.09064 339.46875 343.4969Q340.07812 343.90314 340.375 344.65314Q340.6875 345.40314 340.6875 346.29376Q340.6875 347.2469 340.34375 348.0125Q340.01562 348.77814 339.35938 349.1844Q338.70312 349.59064 337.98438 349.59064Q337.45312 349.59064 337.03125 349.3719Q336.60938 349.1375 336.34375 348.8094L336.34375 351.84064L335.29688 351.84064ZM336.25 346.3719Q336.25 347.575 336.73438 348.15314Q337.21875 348.71564 337.90625 348.71564Q338.60938 348.71564 339.10938 348.1219Q339.60938 347.52814 339.60938 346.27814Q339.60938 345.09064 339.125 344.5125Q338.64062 343.91876 337.95312 343.91876Q337.28125 343.91876 336.76562 344.54376Q336.25 345.16876 336.25 346.3719ZM346.54688 347.45L347.64062 347.575Q347.39062 348.52814 346.6875 349.0594Q345.98438 349.59064 344.90625 349.59064Q343.54688 349.59064 342.73438 348.7469Q341.9375 347.90314 341.9375 346.3875Q341.9375 344.825 342.75 343.96564Q343.5625 343.09064 344.84375 343.09064Q346.09375 343.09064 346.875 343.9344Q347.67188 344.77814 347.67188 346.325Q347.67188 346.41876 347.67188 346.60626L343.03125 346.60626Q343.09375 347.6375 343.60938 348.1844Q344.125 348.71564 344.90625 348.71564Q345.48438 348.71564 345.89062 348.41876Q346.3125 348.10626 346.54688 347.45ZM343.09375 345.7469L346.5625 345.7469Q346.5 344.95 346.17188 344.5594Q345.65625 343.95 344.85938 343.95Q344.125 343.95 343.625 344.4344Q343.14062 344.91876 343.09375 345.7469ZM352.0 347.1844L353.0625 347.04376Q353.23438 347.9344 353.67188 348.34064Q354.10938 348.73126 354.73438 348.73126Q355.48438 348.73126 356.0 348.21564Q356.51562 347.7 356.51562 346.9344Q356.51562 346.21564 356.03125 345.7469Q355.5625 345.2625 354.82812 345.2625Q354.53125 345.2625 354.07812 345.3875L354.20312 344.45Q354.3125 344.46564 354.375 344.46564Q355.04688 344.46564 355.57812 344.1219Q356.125 343.7625 356.125 343.02814Q356.125 342.45 355.73438 342.075Q355.34375 341.6844 354.71875 341.6844Q354.10938 341.6844 353.6875 342.075Q353.28125 342.46564 353.17188 343.23126L352.10938 343.04376Q352.29688 341.9969 352.98438 341.41876Q353.67188 340.825 354.6875 340.825Q355.39062 340.825 355.98438 341.1375Q356.57812 341.4344 356.89062 341.95Q357.20312 342.46564 357.20312 343.0594Q357.20312 343.60626 356.90625 344.075Q356.60938 344.52814 356.03125 344.79376Q356.78125 344.96564 357.20312 345.52814Q357.625 346.075 357.625 346.91876Q357.625 348.04376 356.79688 348.825Q355.98438 349.60626 354.73438 349.60626Q353.60938 349.60626 352.85938 348.9344Q352.10938 348.2469 352.0 347.1844Z" fill-rule="nonzero"/><path fill="#000000" d="M449.0338 349.45L449.0338 340.85626L452.2838 340.85626Q453.12756 340.85626 453.5807 340.9344Q454.2213 341.04376 454.6432 341.34064Q455.0807 341.6375 455.3307 342.16876Q455.5963 342.7 455.5963 343.34064Q455.5963 344.4344 454.8932 345.2Q454.2057 345.95 452.37756 345.95L450.17444 345.95L450.17444 349.45L449.0338 349.45ZM450.17444 344.95L452.3932 344.95Q453.50256 344.95 453.9557 344.54376Q454.42444 344.1219 454.42444 343.3719Q454.42444 342.84064 454.1432 342.46564Q453.87756 342.075 453.44006 341.95Q453.1432 341.8719 452.37756 341.8719L450.17444 341.8719L450.17444 344.95ZM456.8932 349.45L456.8932 343.23126L457.8463 343.23126L457.8463 344.16876Q458.2057 343.5125 458.50256 343.3094Q458.81506 343.09064 459.19006 343.09064Q459.7213 343.09064 460.2682 343.41876L459.9088 344.40314Q459.5182 344.16876 459.1432 344.16876Q458.7838 344.16876 458.50256 344.3875Q458.23694 344.59064 458.12756 344.96564Q457.94006 345.52814 457.94006 346.1844L457.94006 349.45L456.8932 349.45ZM460.5182 346.34064Q460.5182 344.60626 461.4713 343.77814Q462.2682 343.09064 463.42444 343.09064Q464.7057 343.09064 465.5182 343.9344Q466.3463 344.7625 466.3463 346.2469Q466.3463 347.45 465.98694 348.1375Q465.62756 348.825 464.92444 349.21564Q464.23694 349.59064 463.42444 349.59064Q462.12756 349.59064 461.31506 348.7625Q460.5182 347.91876 460.5182 346.34064ZM461.5963 346.34064Q461.5963 347.52814 462.11194 348.1219Q462.6432 348.71564 463.42444 348.71564Q464.2213 348.71564 464.73694 348.1219Q465.25256 347.52814 465.25256 346.3094Q465.25256 345.15314 464.7213 344.5594Q464.2057 343.96564 463.42444 343.96564Q462.6432 343.96564 462.11194 344.5594Q461.5963 345.1375 461.5963 346.34064ZM470.2057 348.5125L470.36194 349.4344Q469.9088 349.52814 469.56506 349.52814Q468.98694 349.52814 468.67444 349.35626Q468.36194 349.16876 468.2213 348.8719Q468.0963 348.575 468.0963 347.6219L468.0963 344.04376L467.3307 344.04376L467.3307 343.23126L468.0963 343.23126L468.0963 341.6844L469.1432 341.0594L469.1432 343.23126L470.2057 343.23126L470.2057 344.04376L469.1432 344.04376L469.1432 347.6844Q469.1432 348.1375 469.19006 348.2625Q469.25256 348.3875 469.37756 348.46564Q469.50256 348.54376 469.73694 348.54376Q469.92444 348.54376 470.2057 348.5125ZM470.5182 346.34064Q470.5182 344.60626 471.4713 343.77814Q472.2682 343.09064 473.42444 343.09064Q474.7057 343.09064 475.5182 343.9344Q476.3463 344.7625 476.3463 346.2469Q476.3463 347.45 475.98694 348.1375Q475.62756 348.825 474.92444 349.21564Q474.23694 349.59064 473.42444 349.59064Q472.12756 349.59064 471.31506 348.7625Q470.5182 347.91876 470.5182 346.34064ZM471.5963 346.34064Q471.5963 347.52814 472.11194 348.1219Q472.6432 348.71564 473.42444 348.71564Q474.2213 348.71564 474.73694 348.1219Q475.25256 347.52814 475.25256 346.3094Q475.25256 345.15314 474.7213 344.5594Q474.2057 343.96564 473.42444 343.96564Q472.6432 343.96564 472.11194 344.5594Q471.5963 345.1375 471.5963 346.34064ZM480.2057 348.5125L480.36194 349.4344Q479.9088 349.52814 479.56506 349.52814Q478.98694 349.52814 478.67444 349.35626Q478.36194 349.16876 478.2213 348.8719Q478.0963 348.575 478.0963 347.6219L478.0963 344.04376L477.3307 344.04376L477.3307 343.23126L478.0963 343.23126L478.0963 341.6844L479.1432 341.0594L479.1432 343.23126L480.2057 343.23126L480.2057 344.04376L479.1432 344.04376L479.1432 347.6844Q479.1432 348.1375 479.19006 348.2625Q479.25256 348.3875 479.37756 348.46564Q479.50256 348.54376 479.73694 348.54376Q479.92444 348.54376 480.2057 348.5125ZM480.86194 351.84064L480.73694 350.85626Q481.0807 350.95 481.3463 350.95Q481.69006 350.95 481.8932 350.825Q482.11194 350.71564 482.25256 350.5125Q482.3463 350.34064 482.5807 349.71564Q482.5963 349.6375 482.67444 349.46564L480.29944 343.23126L481.44006 343.23126L482.73694 346.825Q482.98694 347.5125 483.19006 348.27814Q483.37756 347.54376 483.62756 346.85626L484.9557 343.23126L486.00256 343.23126L483.6432 349.5594Q483.25256 350.575 483.04944 350.96564Q482.7682 351.4969 482.3932 351.73126Q482.0338 351.98126 481.5338 351.98126Q481.23694 351.98126 480.86194 351.84064ZM486.9088 351.84064L486.9088 343.23126L487.86194 343.23126L487.86194 344.02814Q488.2057 343.5594 488.62756 343.325Q489.06506 343.09064 489.67444 343.09064Q490.4713 343.09064 491.0807 343.4969Q491.69006 343.90314 491.98694 344.65314Q492.29944 345.40314 492.29944 346.29376Q492.29944 347.2469 491.9557 348.0125Q491.62756 348.77814 490.9713 349.1844Q490.31506 349.59064 489.5963 349.59064Q489.06506 349.59064 488.6432 349.3719Q488.2213 349.1375 487.9557 348.8094L487.9557 351.84064L486.9088 351.84064ZM487.86194 346.3719Q487.86194 347.575 488.3463 348.15314Q488.8307 348.71564 489.5182 348.71564Q490.2213 348.71564 490.7213 348.1219Q491.2213 347.52814 491.2213 346.27814Q491.2213 345.09064 490.73694 344.5125Q490.25256 343.91876 489.56506 343.91876Q488.8932 343.91876 488.37756 344.54376Q487.86194 345.16876 487.86194 346.3719ZM498.1588 347.45L499.25256 347.575Q499.00256 348.52814 498.29944 349.0594Q497.5963 349.59064 496.5182 349.59064Q495.1588 349.59064 494.3463 348.7469Q493.54944 347.90314 493.54944 346.3875Q493.54944 344.825 494.36194 343.96564Q495.17444 343.09064 496.4557 343.09064Q497.7057 343.09064 498.48694 343.9344Q499.2838 344.77814 499.2838 346.325Q499.2838 346.41876 499.2838 346.60626L494.6432 346.60626Q494.7057 347.6375 495.2213 348.1844Q495.73694 348.71564 496.5182 348.71564Q497.0963 348.71564 497.50256 348.41876Q497.92444 348.10626 498.1588 347.45ZM494.7057 345.7469L498.17444 345.7469Q498.11194 344.95 497.7838 344.5594Q497.2682 343.95 496.4713 343.95Q495.73694 343.95 495.23694 344.4344Q494.75256 344.91876 494.7057 345.7469ZM503.61194 347.2L504.7213 347.10626Q504.8463 347.91876 505.2838 348.325Q505.73694 348.73126 506.37756 348.73126Q507.12756 348.73126 507.6588 348.15314Q508.19006 347.575 508.19006 346.6375Q508.19006 345.73126 507.67444 345.21564Q507.17444 344.6844 506.3463 344.6844Q505.8463 344.6844 505.42444 344.91876Q505.0182 345.15314 504.7838 345.5125L503.79944 345.3875L504.62756 340.98126L508.9088 340.98126L508.9088 341.98126L505.4713 341.98126L505.0182 344.29376Q505.7838 343.7469 506.62756 343.7469Q507.75256 343.7469 508.5182 344.52814Q509.29944 345.3094 509.29944 346.54376Q509.29944 347.7 508.62756 348.5594Q507.79944 349.59064 506.37756 349.59064Q505.2057 349.59064 504.4557 348.9344Q503.7213 348.27814 503.61194 347.2Z" fill-rule="nonzero"/><path fill="#67c118" d="M103.0 20.55C103.0 19.997715 103.447716 19.55 104.0 19.55L114.0 19.55C114.552284 19.55 115.0 19.997715 115.0 20.55L115.0 30.55C115.0 31.102285 114.552284 31.55 114.0 31.55L104.0 31.55C103.447716 31.55 103.0 31.102285 103.0 30.55Z" fill-rule="nonzero"/><path fill="#1a1a1a" d="M129.5625 20.95625L130.70312 20.95625L130.70312 25.925Q130.70312 27.221874 130.40625 27.9875Q130.10938 28.7375 129.34375 29.221874Q128.57812 29.690624 127.34375 29.690624Q126.140625 29.690624 125.359375 29.284374Q124.59375 28.8625 124.265625 28.08125Q123.9375 27.284374 123.9375 25.925L123.9375 20.95625L125.078125 20.95625L125.078125 25.909374Q125.078125 27.034374 125.28125 27.565624Q125.5 28.096874 126.0 28.39375Q126.515625 28.675 127.25 28.675Q128.5 28.675 129.03125 28.1125Q129.5625 27.534374 129.5625 25.909374L129.5625 20.95625ZM132.79688 29.55L132.79688 23.33125L133.73438 23.33125L133.73438 24.20625Q134.42188 23.190624 135.71875 23.190624Q136.28125 23.190624 136.75 23.39375Q137.23438 23.596874 137.46875 23.925Q137.70312 24.253124 137.79688 24.690624Q137.84375 24.9875 137.84375 25.721874L137.84375 29.55L136.79688 29.55L136.79688 25.76875Q136.79688 25.1125 136.67188 24.8Q136.54688 24.4875 136.23438 24.3Q135.92188 24.096874 135.5 24.096874Q134.82812 24.096874 134.32812 24.534374Q133.84375 24.95625 133.84375 26.14375L133.84375 29.55L132.79688 29.55ZM143.82812 29.55L143.82812 28.76875Q143.23438 29.690624 142.09375 29.690624Q141.34375 29.690624 140.71875 29.284374Q140.09375 28.8625 139.75 28.128124Q139.40625 27.39375 139.40625 26.440624Q139.40625 25.51875 139.71875 24.753124Q140.03125 23.9875 140.65625 23.596874Q141.28125 23.190624 142.04688 23.190624Q142.60938 23.190624 143.04688 23.425Q143.48438 23.659374 143.76562 24.034374L143.76562 20.95625L144.8125 20.95625L144.8125 29.55L143.82812 29.55ZM140.5 26.440624Q140.5 27.64375 141.0 28.2375Q141.5 28.815624 142.1875 28.815624Q142.875 28.815624 143.35938 28.253124Q143.84375 27.690624 143.84375 26.534374Q143.84375 25.253124 143.34375 24.659374Q142.85938 24.065624 142.14062 24.065624Q141.4375 24.065624 140.96875 24.64375Q140.5 25.20625 140.5 26.440624ZM151.04688 27.55L152.14062 27.675Q151.89062 28.628124 151.1875 29.159374Q150.48438 29.690624 149.40625 29.690624Q148.04688 29.690624 147.23438 28.846874Q146.4375 28.003124 146.4375 26.4875Q146.4375 24.925 147.25 24.065624Q148.0625 23.190624 149.34375 23.190624Q150.59375 23.190624 151.375 24.034374Q152.17188 24.878124 152.17188 26.425Q152.17188 26.51875 152.17188 26.70625L147.53125 26.70625Q147.59375 27.7375 148.10938 28.284374Q148.625 28.815624 149.40625 28.815624Q149.98438 28.815624 150.39062 28.51875Q150.8125 28.20625 151.04688 27.55ZM147.59375 25.846874L151.0625 25.846874Q151.0 25.05 150.67188 24.659374Q150.15625 24.05 149.35938 24.05Q148.625 24.05 148.125 24.534374Q147.64062 25.01875 147.59375 25.846874ZM153.78125 29.55L153.78125 23.33125L154.73438 23.33125L154.73438 24.26875Q155.09375 23.6125 155.39062 23.409374Q155.70312 23.190624 156.07812 23.190624Q156.60938 23.190624 157.15625 23.51875L156.79688 24.503124Q156.40625 24.26875 156.03125 24.26875Q155.67188 24.26875 155.39062 24.4875Q155.125 24.690624 155.01562 25.065624Q154.82812 25.628124 154.82812 26.284374L154.82812 29.55L153.78125 29.55ZM157.375 27.690624L158.40625 27.534374Q158.5 28.159374 158.89062 28.4875Q159.29688 28.815624 160.03125 28.815624Q160.75 28.815624 161.09375 28.534374Q161.45312 28.2375 161.45312 27.83125Q161.45312 27.471874 161.14062 27.26875Q160.92188 27.128124 160.0625 26.909374Q158.90625 26.6125 158.45312 26.409374Q158.01562 26.190624 157.78125 25.815624Q157.54688 25.440624 157.54688 24.971874Q157.54688 24.565624 157.73438 24.20625Q157.92188 23.846874 158.25 23.6125Q158.5 23.440624 158.92188 23.315624Q159.34375 23.190624 159.84375 23.190624Q160.5625 23.190624 161.10938 23.409374Q161.67188 23.6125 161.9375 23.971874Q162.20312 24.33125 162.29688 24.925L161.26562 25.065624Q161.20312 24.596874 160.85938 24.33125Q160.53125 24.05 159.90625 24.05Q159.1875 24.05 158.875 24.3Q158.5625 24.534374 158.5625 24.8625Q158.5625 25.065624 158.6875 25.221874Q158.82812 25.39375 159.09375 25.503124Q159.25 25.565624 160.03125 25.76875Q161.15625 26.08125 161.59375 26.26875Q162.03125 26.45625 162.28125 26.815624Q162.53125 27.175 162.53125 27.721874Q162.53125 28.253124 162.21875 28.721874Q161.92188 29.175 161.34375 29.440624Q160.76562 29.690624 160.03125 29.690624Q158.8125 29.690624 158.17188 29.190624Q157.54688 28.675 157.375 27.690624ZM166.09375 28.6125L166.25 29.534374Q165.79688 29.628124 165.45312 29.628124Q164.875 29.628124 164.5625 29.45625Q164.25 29.26875 164.10938 28.971874Q163.98438 28.675 163.98438 27.721874L163.98438 24.14375L163.21875 24.14375L163.21875 23.33125L163.98438 23.33125L163.98438 21.784374L165.03125 21.159374L165.03125 23.33125L166.09375 23.33125L166.09375 24.14375L165.03125 24.14375L165.03125 27.784374Q165.03125 28.2375 165.07812 28.3625Q165.14062 28.4875 165.26562 28.565624Q165.39062 28.64375 165.625 28.64375Q165.8125 28.64375 166.09375 28.6125ZM170.85938 28.784374Q170.26562 29.284374 169.71875 29.4875Q169.1875 29.690624 168.5625 29.690624Q167.53125 29.690624 166.98438 29.190624Q166.4375 28.690624 166.4375 27.909374Q166.4375 27.45625 166.64062 27.08125Q166.84375 26.690624 167.1875 26.471874Q167.53125 26.2375 167.95312 26.128124Q168.25 26.034374 168.89062 25.95625Q170.15625 25.815624 170.76562 25.596874Q170.76562 25.378124 170.76562 25.33125Q170.76562 24.675 170.46875 24.409374Q170.0625 24.065624 169.26562 24.065624Q168.53125 24.065624 168.17188 24.33125Q167.8125 24.58125 167.64062 25.2375L166.60938 25.096874Q166.75 24.440624 167.07812 24.034374Q167.40625 23.628124 168.01562 23.409374Q168.625 23.190624 169.42188 23.190624Q170.21875 23.190624 170.71875 23.378124Q171.21875 23.565624 171.45312 23.846874Q171.6875 24.128124 171.78125 24.565624Q171.82812 24.83125 171.82812 25.534374L171.82812 26.940624Q171.82812 28.409374 171.89062 28.8Q171.96875 29.190624 172.17188 29.55L171.0625 29.55Q170.90625 29.221874 170.85938 28.784374ZM170.76562 26.425Q170.1875 26.659374 169.04688 26.83125Q168.39062 26.925 168.125 27.05Q167.85938 27.159374 167.70312 27.378124Q167.5625 27.596874 167.5625 27.878124Q167.5625 28.3 167.875 28.58125Q168.20312 28.8625 168.8125 28.8625Q169.42188 28.8625 169.89062 28.596874Q170.375 28.33125 170.59375 27.8625Q170.76562 27.503124 170.76562 26.815624L170.76562 26.425ZM173.79688 29.55L173.79688 23.33125L174.73438 23.33125L174.73438 24.20625Q175.42188 23.190624 176.71875 23.190624Q177.28125 23.190624 177.75 23.39375Q178.23438 23.596874 178.46875 23.925Q178.70312 24.253124 178.79688 24.690624Q178.84375 24.9875 178.84375 25.721874L178.84375 29.55L177.79688 29.55L177.79688 25.76875Q177.79688 25.1125 177.67188 24.8Q177.54688 24.4875 177.23438 24.3Q176.92188 24.096874 176.5 24.096874Q175.82812 24.096874 175.32812 24.534374Q174.84375 24.95625 174.84375 26.14375L174.84375 29.55L173.79688 29.55ZM184.82812 29.55L184.82812 28.76875Q184.23438 29.690624 183.09375 29.690624Q182.34375 29.690624 181.71875 29.284374Q181.09375 28.8625 180.75 28.128124Q180.40625 27.39375 180.40625 26.440624Q180.40625 25.51875 180.71875 24.753124Q181.03125 23.9875 181.65625 23.596874Q182.28125 23.190624 183.04688 23.190624Q183.60938 23.190624 184.04688 23.425Q184.48438 23.659374 184.76562 24.034374L184.76562 20.95625L185.8125 20.95625L185.8125 29.55L184.82812 29.55ZM181.5 26.440624Q181.5 27.64375 182.0 28.2375Q182.5 28.815624 183.1875 28.815624Q183.875 28.815624 184.35938 28.253124Q184.84375 27.690624 184.84375 26.534374Q184.84375 25.253124 184.34375 24.659374Q183.85938 24.065624 183.14062 24.065624Q182.4375 24.065624 181.96875 24.64375Q181.5 25.20625 181.5 26.440624ZM194.85938 28.784374Q194.26562 29.284374 193.71875 29.4875Q193.1875 29.690624 192.5625 29.690624Q191.53125 29.690624 190.98438 29.190624Q190.4375 28.690624 190.4375 27.909374Q190.4375 27.45625 190.64062 27.08125Q190.84375 26.690624 191.1875 26.471874Q191.53125 26.2375 191.95312 26.128124Q192.25 26.034374 192.89062 25.95625Q194.15625 25.815624 194.76562 25.596874Q194.76562 25.378124 194.76562 25.33125Q194.76562 24.675 194.46875 24.409374Q194.0625 24.065624 193.26562 24.065624Q192.53125 24.065624 192.17188 24.33125Q191.8125 24.58125 191.64062 25.2375L190.60938 25.096874Q190.75 24.440624 191.07812 24.034374Q191.40625 23.628124 192.01562 23.409374Q192.625 23.190624 193.42188 23.190624Q194.21875 23.190624 194.71875 23.378124Q195.21875 23.565624 195.45312 23.846874Q195.6875 24.128124 195.78125 24.565624Q195.82812 24.83125 195.82812 25.534374L195.82812 26.940624Q195.82812 28.409374 195.89062 28.8Q195.96875 29.190624 196.17188 29.55L195.0625 29.55Q194.90625 29.221874 194.85938 28.784374ZM194.76562 26.425Q194.1875 26.659374 193.04688 26.83125Q192.39062 26.925 192.125 27.05Q191.85938 27.159374 191.70312 27.378124Q191.5625 27.596874 191.5625 27.878124Q191.5625 28.3 191.875 28.58125Q192.20312 28.8625 192.8125 28.8625Q193.42188 28.8625 193.89062 28.596874Q194.375 28.33125 194.59375 27.8625Q194.76562 27.503124 194.76562 26.815624L194.76562 26.425ZM197.76562 29.55L197.76562 20.95625L198.82812 20.95625L198.82812 29.55L197.76562 29.55ZM200.76562 29.55L200.76562 20.95625L201.82812 20.95625L201.82812 29.55L200.76562 29.55Z" fill-rule="nonzero"/><path fill="#fdee35" d="M219.0 20.55C219.0 19.997715 219.44771 19.55 220.0 19.55L230.0 19.55C230.55229 19.55 231.0 19.997715 231.0 20.55L231.0 30.55C231.0 31.102285 230.55229 31.55 230.0 31.55L220.0 31.55C219.44771 31.55 219.0 31.102285 219.0 30.55Z" fill-rule="nonzero"/><path fill="#1a1a1a" d="M239.92188 29.55L239.92188 20.95625L243.17188 20.95625Q244.01562 20.95625 244.46875 21.034374Q245.10938 21.14375 245.53125 21.440624Q245.96875 21.7375 246.21875 22.26875Q246.48438 22.8 246.48438 23.440624Q246.48438 24.534374 245.78125 25.3Q245.09375 26.05 243.26562 26.05L241.0625 26.05L241.0625 29.55L239.92188 29.55ZM241.0625 25.05L243.28125 25.05Q244.39062 25.05 244.84375 24.64375Q245.3125 24.221874 245.3125 23.471874Q245.3125 22.940624 245.03125 22.565624Q244.76562 22.175 244.32812 22.05Q244.03125 21.971874 243.26562 21.971874L241.0625 21.971874L241.0625 25.05ZM251.85938 28.784374Q251.26562 29.284374 250.71875 29.4875Q250.1875 29.690624 249.5625 29.690624Q248.53125 29.690624 247.98438 29.190624Q247.4375 28.690624 247.4375 27.909374Q247.4375 27.45625 247.64062 27.08125Q247.84375 26.690624 248.1875 26.471874Q248.53125 26.2375 248.95312 26.128124Q249.25 26.034374 249.89062 25.95625Q251.15625 25.815624 251.76562 25.596874Q251.76562 25.378124 251.76562 25.33125Q251.76562 24.675 251.46875 24.409374Q251.0625 24.065624 250.26562 24.065624Q249.53125 24.065624 249.17188 24.33125Q248.8125 24.58125 248.64062 25.2375L247.60938 25.096874Q247.75 24.440624 248.07812 24.034374Q248.40625 23.628124 249.01562 23.409374Q249.625 23.190624 250.42188 23.190624Q251.21875 23.190624 251.71875 23.378124Q252.21875 23.565624 252.45312 23.846874Q252.6875 24.128124 252.78125 24.565624Q252.82812 24.83125 252.82812 25.534374L252.82812 26.940624Q252.82812 28.409374 252.89062 28.8Q252.96875 29.190624 253.17188 29.55L252.0625 29.55Q251.90625 29.221874 251.85938 28.784374ZM251.76562 26.425Q251.1875 26.659374 250.04688 26.83125Q249.39062 26.925 249.125 27.05Q248.85938 27.159374 248.70312 27.378124Q248.5625 27.596874 248.5625 27.878124Q248.5625 28.3 248.875 28.58125Q249.20312 28.8625 249.8125 28.8625Q250.42188 28.8625 250.89062 28.596874Q251.375 28.33125 251.59375 27.8625Q251.76562 27.503124 251.76562 26.815624L251.76562 26.425ZM254.78125 29.55L254.78125 23.33125L255.73438 23.33125L255.73438 24.26875Q256.09375 23.6125 256.39062 23.409374Q256.70312 23.190624 257.07812 23.190624Q257.60938 23.190624 258.15625 23.51875L257.79688 24.503124Q257.40625 24.26875 257.03125 24.26875Q256.67188 24.26875 256.39062 24.4875Q256.125 24.690624 256.01562 25.065624Q255.82812 25.628124 255.82812 26.284374L255.82812 29.55L254.78125 29.55ZM261.09375 28.6125L261.25 29.534374Q260.79688 29.628124 260.45312 29.628124Q259.875 29.628124 259.5625 29.45625Q259.25 29.26875 259.10938 28.971874Q258.98438 28.675 258.98438 27.721874L258.98438 24.14375L258.21875 24.14375L258.21875 23.33125L258.98438 23.33125L258.98438 21.784374L260.03125 21.159374L260.03125 23.33125L261.09375 23.33125L261.09375 24.14375L260.03125 24.14375L260.03125 27.784374Q260.03125 28.2375 260.07812 28.3625Q260.14062 28.4875 260.26562 28.565624Q260.39062 28.64375 260.625 28.64375Q260.8125 28.64375 261.09375 28.6125ZM261.79688 22.175L261.79688 20.95625L262.85938 20.95625L262.85938 22.175L261.79688 22.175ZM261.79688 29.55L261.79688 23.33125L262.85938 23.33125L262.85938 29.55L261.79688 29.55ZM268.85938 28.784374Q268.26562 29.284374 267.71875 29.4875Q267.1875 29.690624 266.5625 29.690624Q265.53125 29.690624 264.98438 29.190624Q264.4375 28.690624 264.4375 27.909374Q264.4375 27.45625 264.64062 27.08125Q264.84375 26.690624 265.1875 26.471874Q265.53125 26.2375 265.95312 26.128124Q266.25 26.034374 266.89062 25.95625Q268.15625 25.815624 268.76562 25.596874Q268.76562 25.378124 268.76562 25.33125Q268.76562 24.675 268.46875 24.409374Q268.0625 24.065624 267.26562 24.065624Q266.53125 24.065624 266.17188 24.33125Q265.8125 24.58125 265.64062 25.2375L264.60938 25.096874Q264.75 24.440624 265.07812 24.034374Q265.40625 23.628124 266.01562 23.409374Q266.625 23.190624 267.42188 23.190624Q268.21875 23.190624 268.71875 23.378124Q269.21875 23.565624 269.45312 23.846874Q269.6875 24.128124 269.78125 24.565624Q269.82812 24.83125 269.82812 25.534374L269.82812 26.940624Q269.82812 28.409374 269.89062 28.8Q269.96875 29.190624 270.17188 29.55L269.0625 29.55Q268.90625 29.221874 268.85938 28.784374ZM268.76562 26.425Q268.1875 26.659374 267.04688 26.83125Q266.39062 26.925 266.125 27.05Q265.85938 27.159374 265.70312 27.378124Q265.5625 27.596874 265.5625 27.878124Q265.5625 28.3 265.875 28.58125Q266.20312 28.8625 266.8125 28.8625Q267.42188 28.8625 267.89062 28.596874Q268.375 28.33125 268.59375 27.8625Q268.76562 27.503124 268.76562 26.815624L268.76562 26.425ZM271.76562 29.55L271.76562 20.95625L272.82812 20.95625L272.82812 29.55L271.76562 29.55ZM283.5625 20.95625L284.70312 20.95625L284.70312 25.925Q284.70312 27.221874 284.40625 27.9875Q284.10938 28.7375 283.34375 29.221874Q282.57812 29.690624 281.34375 29.690624Q280.14062 29.690624 279.35938 29.284374Q278.59375 28.8625 278.26562 28.08125Q277.9375 27.284374 277.9375 25.925L277.9375 20.95625L279.07812 20.95625L279.07812 25.909374Q279.07812 27.034374 279.28125 27.565624Q279.5 28.096874 280.0 28.39375Q280.51562 28.675 281.25 28.675Q282.5 28.675 283.03125 28.1125Q283.5625 27.534374 283.5625 25.909374L283.5625 20.95625ZM286.79688 29.55L286.79688 23.33125L287.73438 23.33125L287.73438 24.20625Q288.42188 23.190624 289.71875 23.190624Q290.28125 23.190624 290.75 23.39375Q291.23438 23.596874 291.46875 23.925Q291.70312 24.253124 291.79688 24.690624Q291.84375 24.9875 291.84375 25.721874L291.84375 29.55L290.79688 29.55L290.79688 25.76875Q290.79688 25.1125 290.67188 24.8Q290.54688 24.4875 290.23438 24.3Q289.92188 24.096874 289.5 24.096874Q288.82812 24.096874 288.32812 24.534374Q287.84375 24.95625 287.84375 26.14375L287.84375 29.55L286.79688 29.55ZM297.82812 29.55L297.82812 28.76875Q297.23438 29.690624 296.09375 29.690624Q295.34375 29.690624 294.71875 29.284374Q294.09375 28.8625 293.75 28.128124Q293.40625 27.39375 293.40625 26.440624Q293.40625 25.51875 293.71875 24.753124Q294.03125 23.9875 294.65625 23.596874Q295.28125 23.190624 296.04688 23.190624Q296.60938 23.190624 297.04688 23.425Q297.48438 23.659374 297.76562 24.034374L297.76562 20.95625L298.8125 20.95625L298.8125 29.55L297.82812 29.55ZM294.5 26.440624Q294.5 27.64375 295.0 28.2375Q295.5 28.815624 296.1875 28.815624Q296.875 28.815624 297.35938 28.253124Q297.84375 27.690624 297.84375 26.534374Q297.84375 25.253124 297.34375 24.659374Q296.85938 24.065624 296.14062 24.065624Q295.4375 24.065624 294.96875 24.64375Q294.5 25.20625 294.5 26.440624ZM305.04688 27.55L306.14062 27.675Q305.89062 28.628124 305.1875 29.159374Q304.48438 29.690624 303.40625 29.690624Q302.04688 29.690624 301.23438 28.846874Q300.4375 28.003124 300.4375 26.4875Q300.4375 24.925 301.25 24.065624Q302.0625 23.190624 303.34375 23.190624Q304.59375 23.190624 305.375 24.034374Q306.17188 24.878124 306.17188 26.425Q306.17188 26.51875 306.17188 26.70625L301.53125 26.70625Q301.59375 27.7375 302.10938 28.284374Q302.625 28.815624 303.40625 28.815624Q303.98438 28.815624 304.39062 28.51875Q304.8125 28.20625 305.04688 27.55ZM301.59375 25.846874L305.0625 25.846874Q305.0 25.05 304.67188 24.659374Q304.15625 24.05 303.35938 24.05Q302.625 24.05 302.125 24.534374Q301.64062 25.01875 301.59375 25.846874ZM307.78125 29.55L307.78125 23.33125L308.73438 23.33125L308.73438 24.26875Q309.09375 23.6125 309.39062 23.409374Q309.70312 23.190624 310.07812 23.190624Q310.60938 23.190624 311.15625 23.51875L310.79688 24.503124Q310.40625 24.26875 310.03125 24.26875Q309.67188 24.26875 309.39062 24.4875Q309.125 24.690624 309.01562 25.065624Q308.82812 25.628124 308.82812 26.284374L308.82812 29.55L307.78125 29.55ZM311.375 27.690624L312.40625 27.534374Q312.5 28.159374 312.89062 28.4875Q313.29688 28.815624 314.03125 28.815624Q314.75 28.815624 315.09375 28.534374Q315.45312 28.2375 315.45312 27.83125Q315.45312 27.471874 315.14062 27.26875Q314.92188 27.128124 314.0625 26.909374Q312.90625 26.6125 312.45312 26.409374Q312.01562 26.190624 311.78125 25.815624Q311.54688 25.440624 311.54688 24.971874Q311.54688 24.565624 311.73438 24.20625Q311.92188 23.846874 312.25 23.6125Q312.5 23.440624 312.92188 23.315624Q313.34375 23.190624 313.84375 23.190624Q314.5625 23.190624 315.10938 23.409374Q315.67188 23.6125 315.9375 23.971874Q316.20312 24.33125 316.29688 24.925L315.26562 25.065624Q315.20312 24.596874 314.85938 24.33125Q314.53125 24.05 313.90625 24.05Q313.1875 24.05 312.875 24.3Q312.5625 24.534374 312.5625 24.8625Q312.5625 25.065624 312.6875 25.221874Q312.82812 25.39375 313.09375 25.503124Q313.25 25.565624 314.03125 25.76875Q315.15625 26.08125 315.59375 26.26875Q316.03125 26.45625 316.28125 26.815624Q316.53125 27.175 316.53125 27.721874Q316.53125 28.253124 316.21875 28.721874Q315.92188 29.175 315.34375 29.440624Q314.76562 29.690624 314.03125 29.690624Q312.8125 29.690624 312.17188 29.190624Q311.54688 28.675 311.375 27.690624ZM320.09375 28.6125L320.25 29.534374Q319.79688 29.628124 319.45312 29.628124Q318.875 29.628124 318.5625 29.45625Q318.25 29.26875 318.10938 28.971874Q317.98438 28.675 317.98438 27.721874L317.98438 24.14375L317.21875 24.14375L317.21875 23.33125L317.98438 23.33125L317.98438 21.784374L319.03125 21.159374L319.03125 23.33125L320.09375 23.33125L320.09375 24.14375L319.03125 24.14375L319.03125 27.784374Q319.03125 28.2375 319.07812 28.3625Q319.14062 28.4875 319.26562 28.565624Q319.39062 28.64375 319.625 28.64375Q319.8125 28.64375 320.09375 28.6125ZM324.85938 28.784374Q324.26562 29.284374 323.71875 29.4875Q323.1875 29.690624 322.5625 29.690624Q321.53125 29.690624 320.98438 29.190624Q320.4375 28.690624 320.4375 27.909374Q320.4375 27.45625 320.64062 27.08125Q320.84375 26.690624 321.1875 26.471874Q321.53125 26.2375 321.95312 26.128124Q322.25 26.034374 322.89062 25.95625Q324.15625 25.815624 324.76562 25.596874Q324.76562 25.378124 324.76562 25.33125Q324.76562 24.675 324.46875 24.409374Q324.0625 24.065624 323.26562 24.065624Q322.53125 24.065624 322.17188 24.33125Q321.8125 24.58125 321.64062 25.2375L320.60938 25.096874Q320.75 24.440624 321.07812 24.034374Q321.40625 23.628124 322.01562 23.409374Q322.625 23.190624 323.42188 23.190624Q324.21875 23.190624 324.71875 23.378124Q325.21875 23.565624 325.45312 23.846874Q325.6875 24.128124 325.78125 24.565624Q325.82812 24.83125 325.82812 25.534374L325.82812 26.940624Q325.82812 28.409374 325.89062 28.8Q325.96875 29.190624 326.17188 29.55L325.0625 29.55Q324.90625 29.221874 324.85938 28.784374ZM324.76562 26.425Q324.1875 26.659374 323.04688 26.83125Q322.39062 26.925 322.125 27.05Q321.85938 27.159374 321.70312 27.378124Q321.5625 27.596874 321.5625 27.878124Q321.5625 28.3 321.875 28.58125Q322.20312 28.8625 322.8125 28.8625Q323.42188 28.8625 323.89062 28.596874Q324.375 28.33125 324.59375 27.8625Q324.76562 27.503124 324.76562 26.815624L324.76562 26.425ZM327.79688 29.55L327.79688 23.33125L328.73438 23.33125L328.73438 24.20625Q329.42188 23.190624 330.71875 23.190624Q331.28125 23.190624 331.75 23.39375Q332.23438 23.596874 332.46875 23.925Q332.70312 24.253124 332.79688 24.690624Q332.84375 24.9875 332.84375 25.721874L332.84375 29.55L331.79688 29.55L331.79688 25.76875Q331.79688 25.1125 331.67188 24.8Q331.54688 24.4875 331.23438 24.3Q330.92188 24.096874 330.5 24.096874Q329.82812 24.096874 329.32812 24.534374Q328.84375 24.95625 328.84375 26.14375L328.84375 29.55L327.79688 29.55ZM338.82812 29.55L338.82812 28.76875Q338.23438 29.690624 337.09375 29.690624Q336.34375 29.690624 335.71875 29.284374Q335.09375 28.8625 334.75 28.128124Q334.40625 27.39375 334.40625 26.440624Q334.40625 25.51875 334.71875 24.753124Q335.03125 23.9875 335.65625 23.596874Q336.28125 23.190624 337.04688 23.190624Q337.60938 23.190624 338.04688 23.425Q338.48438 23.659374 338.76562 24.034374L338.76562 20.95625L339.8125 20.95625L339.8125 29.55L338.82812 29.55ZM335.5 26.440624Q335.5 27.64375 336.0 28.2375Q336.5 28.815624 337.1875 28.815624Q337.875 28.815624 338.35938 28.253124Q338.84375 27.690624 338.84375 26.534374Q338.84375 25.253124 338.34375 24.659374Q337.85938 24.065624 337.14062 24.065624Q336.4375 24.065624 335.96875 24.64375Q335.5 25.20625 335.5 26.440624Z" fill-rule="nonzero"/><path fill="#e65d37" d="M357.0 20.55C357.0 19.997715 357.44772 19.55 358.0 19.55L368.0 19.55C368.55228 19.55 369.0 19.997715 369.0 20.55L369.0 30.55C369.0 31.102285 368.55228 31.55 368.0 31.55L358.0 31.55C357.44772 31.55 357.0 31.102285 357.0 30.55Z" fill-rule="nonzero"/><path fill="#1a1a1a" d="M383.5625 20.95625L384.70312 20.95625L384.70312 25.925Q384.70312 27.221874 384.40625 27.9875Q384.10938 28.7375 383.34375 29.221874Q382.57812 29.690624 381.34375 29.690624Q380.14062 29.690624 379.35938 29.284374Q378.59375 28.8625 378.26562 28.08125Q377.9375 27.284374 377.9375 25.925L377.9375 20.95625L379.07812 20.95625L379.07812 25.909374Q379.07812 27.034374 379.28125 27.565624Q379.5 28.096874 380.0 28.39375Q380.51562 28.675 381.25 28.675Q382.5 28.675 383.03125 28.1125Q383.5625 27.534374 383.5625 25.909374L383.5625 20.95625ZM386.79688 29.55L386.79688 23.33125L387.73438 23.33125L387.73438 24.20625Q388.42188 23.190624 389.71875 23.190624Q390.28125 23.190624 390.75 23.39375Q391.23438 23.596874 391.46875 23.925Q391.70312 24.253124 391.79688 24.690624Q391.84375 24.9875 391.84375 25.721874L391.84375 29.55L390.79688 29.55L390.79688 25.76875Q390.79688 25.1125 390.67188 24.8Q390.54688 24.4875 390.23438 24.3Q389.92188 24.096874 389.5 24.096874Q388.82812 24.096874 388.32812 24.534374Q387.84375 24.95625 387.84375 26.14375L387.84375 29.55L386.79688 29.55ZM397.85938 28.784374Q397.26562 29.284374 396.71875 29.4875Q396.1875 29.690624 395.5625 29.690624Q394.53125 29.690624 393.98438 29.190624Q393.4375 28.690624 393.4375 27.909374Q393.4375 27.45625 393.64062 27.08125Q393.84375 26.690624 394.1875 26.471874Q394.53125 26.2375 394.95312 26.128124Q395.25 26.034374 395.89062 25.95625Q397.15625 25.815624 397.76562 25.596874Q397.76562 25.378124 397.76562 25.33125Q397.76562 24.675 397.46875 24.409374Q397.0625 24.065624 396.26562 24.065624Q395.53125 24.065624 395.17188 24.33125Q394.8125 24.58125 394.64062 25.2375L393.60938 25.096874Q393.75 24.440624 394.07812 24.034374Q394.40625 23.628124 395.01562 23.409374Q395.625 23.190624 396.42188 23.190624Q397.21875 23.190624 397.71875 23.378124Q398.21875 23.565624 398.45312 23.846874Q398.6875 24.128124 398.78125 24.565624Q398.82812 24.83125 398.82812 25.534374L398.82812 26.940624Q398.82812 28.409374 398.89062 28.8Q398.96875 29.190624 399.17188 29.55L398.0625 29.55Q397.90625 29.221874 397.85938 28.784374ZM397.76562 26.425Q397.1875 26.659374 396.04688 26.83125Q395.39062 26.925 395.125 27.05Q394.85938 27.159374 394.70312 27.378124Q394.5625 27.596874 394.5625 27.878124Q394.5625 28.3 394.875 28.58125Q395.20312 28.8625 395.8125 28.8625Q396.42188 28.8625 396.89062 28.596874Q397.375 28.33125 397.59375 27.8625Q397.76562 27.503124 397.76562 26.815624L397.76562 26.425ZM401.76562 29.55L400.78125 29.55L400.78125 20.95625L401.84375 20.95625L401.84375 24.01875Q402.51562 23.190624 403.54688 23.190624Q404.125 23.190624 404.625 23.425Q405.14062 23.64375 405.46875 24.065624Q405.8125 24.4875 406.0 25.08125Q406.1875 25.675 406.1875 26.346874Q406.1875 27.940624 405.39062 28.815624Q404.59375 29.690624 403.5 29.690624Q402.39062 29.690624 401.76562 28.76875L401.76562 29.55ZM401.75 26.39375Q401.75 27.503124 402.0625 28.003124Q402.5625 28.815624 403.40625 28.815624Q404.09375 28.815624 404.59375 28.221874Q405.10938 27.628124 405.10938 26.425Q405.10938 25.20625 404.625 24.628124Q404.14062 24.05 403.45312 24.05Q402.76562 24.05 402.25 24.659374Q401.75 25.253124 401.75 26.39375ZM407.76562 29.55L407.76562 20.95625L408.82812 20.95625L408.82812 29.55L407.76562 29.55ZM415.04688 27.55L416.14062 27.675Q415.89062 28.628124 415.1875 29.159374Q414.48438 29.690624 413.40625 29.690624Q412.04688 29.690624 411.23438 28.846874Q410.4375 28.003124 410.4375 26.4875Q410.4375 24.925 411.25 24.065624Q412.0625 23.190624 413.34375 23.190624Q414.59375 23.190624 415.375 24.034374Q416.17188 24.878124 416.17188 26.425Q416.17188 26.51875 416.17188 26.70625L411.53125 26.70625Q411.59375 27.7375 412.10938 28.284374Q412.625 28.815624 413.40625 28.815624Q413.98438 28.815624 414.39062 28.51875Q414.8125 28.20625 415.04688 27.55ZM411.59375 25.846874L415.0625 25.846874Q415.0 25.05 414.67188 24.659374Q414.15625 24.05 413.35938 24.05Q412.625 24.05 412.125 24.534374Q411.64062 25.01875 411.59375 25.846874ZM423.09375 28.6125L423.25 29.534374Q422.79688 29.628124 422.45312 29.628124Q421.875 29.628124 421.5625 29.45625Q421.25 29.26875 421.10938 28.971874Q420.98438 28.675 420.98438 27.721874L420.98438 24.14375L420.21875 24.14375L420.21875 23.33125L420.98438 23.33125L420.98438 21.784374L422.03125 21.159374L422.03125 23.33125L423.09375 23.33125L423.09375 24.14375L422.03125 24.14375L422.03125 27.784374Q422.03125 28.2375 422.07812 28.3625Q422.14062 28.4875 422.26562 28.565624Q422.39062 28.64375 422.625 28.64375Q422.8125 28.64375 423.09375 28.6125ZM423.40625 26.440624Q423.40625 24.70625 424.35938 23.878124Q425.15625 23.190624 426.3125 23.190624Q427.59375 23.190624 428.40625 24.034374Q429.23438 24.8625 429.23438 26.346874Q429.23438 27.55 428.875 28.2375Q428.51562 28.925 427.8125 29.315624Q427.125 29.690624 426.3125 29.690624Q425.01562 29.690624 424.20312 28.8625Q423.40625 28.01875 423.40625 26.440624ZM424.48438 26.440624Q424.48438 27.628124 425.0 28.221874Q425.53125 28.815624 426.3125 28.815624Q427.10938 28.815624 427.625 28.221874Q428.14062 27.628124 428.14062 26.409374Q428.14062 25.253124 427.60938 24.659374Q427.09375 24.065624 426.3125 24.065624Q425.53125 24.065624 425.0 24.659374Q424.48438 25.2375 424.48438 26.440624ZM439.5625 20.95625L440.70312 20.95625L440.70312 25.925Q440.70312 27.221874 440.40625 27.9875Q440.10938 28.7375 439.34375 29.221874Q438.57812 29.690624 437.34375 29.690624Q436.14062 29.690624 435.35938 29.284374Q434.59375 28.8625 434.26562 28.08125Q433.9375 27.284374 433.9375 25.925L433.9375 20.95625L435.07812 20.95625L435.07812 25.909374Q435.07812 27.034374 435.28125 27.565624Q435.5 28.096874 436.0 28.39375Q436.51562 28.675 437.25 28.675Q438.5 28.675 439.03125 28.1125Q439.5625 27.534374 439.5625 25.909374L439.5625 20.95625ZM442.79688 29.55L442.79688 23.33125L443.73438 23.33125L443.73438 24.20625Q444.42188 23.190624 445.71875 23.190624Q446.28125 23.190624 446.75 23.39375Q447.23438 23.596874 447.46875 23.925Q447.70312 24.253124 447.79688 24.690624Q447.84375 24.9875 447.84375 25.721874L447.84375 29.55L446.79688 29.55L446.79688 25.76875Q446.79688 25.1125 446.67188 24.8Q446.54688 24.4875 446.23438 24.3Q445.92188 24.096874 445.5 24.096874Q444.82812 24.096874 444.32812 24.534374Q443.84375 24.95625 443.84375 26.14375L443.84375 29.55L442.79688 29.55ZM453.82812 29.55L453.82812 28.76875Q453.23438 29.690624 452.09375 29.690624Q451.34375 29.690624 450.71875 29.284374Q450.09375 28.8625 449.75 28.128124Q449.40625 27.39375 449.40625 26.440624Q449.40625 25.51875 449.71875 24.753124Q450.03125 23.9875 450.65625 23.596874Q451.28125 23.190624 452.04688 23.190624Q452.60938 23.190624 453.04688 23.425Q453.48438 23.659374 453.76562 24.034374L453.76562 20.95625L454.8125 20.95625L454.8125 29.55L453.82812 29.55ZM450.5 26.440624Q450.5 27.64375 451.0 28.2375Q451.5 28.815624 452.1875 28.815624Q452.875 28.815624 453.35938 28.253124Q453.84375 27.690624 453.84375 26.534374Q453.84375 25.253124 453.34375 24.659374Q452.85938 24.065624 452.14062 24.065624Q451.4375 24.065624 450.96875 24.64375Q450.5 25.20625 450.5 26.440624ZM461.04688 27.55L462.14062 27.675Q461.89062 28.628124 461.1875 29.159374Q460.48438 29.690624 459.40625 29.690624Q458.04688 29.690624 457.23438 28.846874Q456.4375 28.003124 456.4375 26.4875Q456.4375 24.925 457.25 24.065624Q458.0625 23.190624 459.34375 23.190624Q460.59375 23.190624 461.375 24.034374Q462.17188 24.878124 462.17188 26.425Q462.17188 26.51875 462.17188 26.70625L457.53125 26.70625Q457.59375 27.7375 458.10938 28.284374Q458.625 28.815624 459.40625 28.815624Q459.98438 28.815624 460.39062 28.51875Q460.8125 28.20625 461.04688 27.55ZM457.59375 25.846874L461.0625 25.846874Q461.0 25.05 460.67188 24.659374Q460.15625 24.05 459.35938 24.05Q458.625 24.05 458.125 24.534374Q457.64062 25.01875 457.59375 25.846874ZM463.78125 29.55L463.78125 23.33125L464.73438 23.33125L464.73438 24.26875Q465.09375 23.6125 465.39062 23.409374Q465.70312 23.190624 466.07812 23.190624Q466.60938 23.190624 467.15625 23.51875L466.79688 24.503124Q466.40625 24.26875 466.03125 24.26875Q465.67188 24.26875 465.39062 24.4875Q465.125 24.690624 465.01562 25.065624Q464.82812 25.628124 464.82812 26.284374L464.82812 29.55L463.78125 29.55ZM467.375 27.690624L468.40625 27.534374Q468.5 28.159374 468.89062 28.4875Q469.29688 28.815624 470.03125 28.815624Q470.75 28.815624 471.09375 28.534374Q471.45312 28.2375 471.45312 27.83125Q471.45312 27.471874 471.14062 27.26875Q470.92188 27.128124 470.0625 26.909374Q468.90625 26.6125 468.45312 26.409374Q468.01562 26.190624 467.78125 25.815624Q467.54688 25.440624 467.54688 24.971874Q467.54688 24.565624 467.73438 24.20625Q467.92188 23.846874 468.25 23.6125Q468.5 23.440624 468.92188 23.315624Q469.34375 23.190624 469.84375 23.190624Q470.5625 23.190624 471.10938 23.409374Q471.67188 23.6125 471.9375 23.971874Q472.20312 24.33125 472.29688 24.925L471.26562 25.065624Q471.20312 24.596874 470.85938 24.33125Q470.53125 24.05 469.90625 24.05Q469.1875 24.05 468.875 24.3Q468.5625 24.534374 468.5625 24.8625Q468.5625 25.065624 468.6875 25.221874Q468.82812 25.39375 469.09375 25.503124Q469.25 25.565624 470.03125 25.76875Q471.15625 26.08125 471.59375 26.26875Q472.03125 26.45625 472.28125 26.815624Q472.53125 27.175 472.53125 27.721874Q472.53125 28.253124 472.21875 28.721874Q471.92188 29.175 471.34375 29.440624Q470.76562 29.690624 470.03125 29.690624Q468.8125 29.690624 468.17188 29.190624Q467.54688 28.675 467.375 27.690624ZM476.09375 28.6125L476.25 29.534374Q475.79688 29.628124 475.45312 29.628124Q474.875 29.628124 474.5625 29.45625Q474.25 29.26875 474.10938 28.971874Q473.98438 28.675 473.98438 27.721874L473.98438 24.14375L473.21875 24.14375L473.21875 23.33125L473.98438 23.33125L473.98438 21.784374L475.03125 21.159374L475.03125 23.33125L476.09375 23.33125L476.09375 24.14375L475.03125 24.14375L475.03125 27.784374Q475.03125 28.2375 475.07812 28.3625Q475.14062 28.4875 475.26562 28.565624Q475.39062 28.64375 475.625 28.64375Q475.8125 28.64375 476.09375 28.6125ZM480.85938 28.784374Q480.26562 29.284374 479.71875 29.4875Q479.1875 29.690624 478.5625 29.690624Q477.53125 29.690624 476.98438 29.190624Q476.4375 28.690624 476.4375 27.909374Q476.4375 27.45625 476.64062 27.08125Q476.84375 26.690624 477.1875 26.471874Q477.53125 26.2375 477.95312 26.128124Q478.25 26.034374 478.89062 25.95625Q480.15625 25.815624 480.76562 25.596874Q480.76562 25.378124 480.76562 25.33125Q480.76562 24.675 480.46875 24.409374Q480.0625 24.065624 479.26562 24.065624Q478.53125 24.065624 478.17188 24.33125Q477.8125 24.58125 477.64062 25.2375L476.60938 25.096874Q476.75 24.440624 477.07812 24.034374Q477.40625 23.628124 478.01562 23.409374Q478.625 23.190624 479.42188 23.190624Q480.21875 23.190624 480.71875 23.378124Q481.21875 23.565624 481.45312 23.846874Q481.6875 24.128124 481.78125 24.565624Q481.82812 24.83125 481.82812 25.534374L481.82812 26.940624Q481.82812 28.409374 481.89062 28.8Q481.96875 29.190624 482.17188 29.55L481.0625 29.55Q480.90625 29.221874 480.85938 28.784374ZM480.76562 26.425Q480.1875 26.659374 479.04688 26.83125Q478.39062 26.925 478.125 27.05Q477.85938 27.159374 477.70312 27.378124Q477.5625 27.596874 477.5625 27.878124Q477.5625 28.3 477.875 28.58125Q478.20312 28.8625 478.8125 28.8625Q479.42188 28.8625 479.89062 28.596874Q480.375 28.33125 480.59375 27.8625Q480.76562 27.503124 480.76562 26.815624L480.76562 26.425ZM483.79688 29.55L483.79688 23.33125L484.73438 23.33125L484.73438 24.20625Q485.42188 23.190624 486.71875 23.190624Q487.28125 23.190624 487.75 23.39375Q488.23438 23.596874 488.46875 23.925Q488.70312 24.253124 488.79688 24.690624Q488.84375 24.9875 488.84375 25.721874L488.84375 29.55L487.79688 29.55L487.79688 25.76875Q487.79688 25.1125 487.67188 24.8Q487.54688 24.4875 487.23438 24.3Q486.92188 24.096874 486.5 24.096874Q485.82812 24.096874 485.32812 24.534374Q484.84375 24.95625 484.84375 26.14375L484.84375 29.55L483.79688 29.55ZM494.82812 29.55L494.82812 28.76875Q494.23438 29.690624 493.09375 29.690624Q492.34375 29.690624 491.71875 29.284374Q491.09375 28.8625 490.75 28.128124Q490.40625 27.39375 490.40625 26.440624Q490.40625 25.51875 490.71875 24.753124Q491.03125 23.9875 491.65625 23.596874Q492.28125 23.190624 493.04688 23.190624Q493.60938 23.190624 494.04688 23.425Q494.48438 23.659374 494.76562 24.034374L494.76562 20.95625L495.8125 20.95625L495.8125 29.55L494.82812 29.55ZM491.5 26.440624Q491.5 27.64375 492.0 28.2375Q492.5 28.815624 493.1875 28.815624Q493.875 28.815624 494.35938 28.253124Q494.84375 27.690624 494.84375 26.534374Q494.84375 25.253124 494.34375 24.659374Q493.85938 24.065624 493.14062 24.065624Q492.4375 24.065624 491.96875 24.64375Q491.5 25.20625 491.5 26.440624Z" fill-rule="nonzero"/></svg>