<svg version="1.1" viewBox="0.0 0.0 621.0 371.0" fill="none" stroke="none" stroke-linecap="square" stroke-miterlimit="10" width="621" height="371" xmlns:xlink="http://www.w3.org/1999/xlink" xmlns="http://www.w3.org/2000/svg"><path fill="#ffffff" d="M0 0L621.0 0L621.0 371.0L0 371.0L0 0Z" fill-rule="nonzero"/><path stroke="#333333" stroke-width="1.0" stroke-linecap="butt" d="M47.5 316.5L602.5 316.5" fill-rule="nonzero"/><path stroke="#ffffff" stroke-width="1.0" stroke-linecap="butt" d="M47.5 250.5L602.5 250.5" fill-rule="nonzero"/><path stroke="#ffffff" stroke-width="1.0" stroke-linecap="butt" d="M47.5 184.5L602.5 184.5" fill-rule="nonzero"/><path stroke="#ffffff" stroke-width="1.0" stroke-linecap="butt" d="M47.5 119.5L602.5 119.5" fill-rule="nonzero"/><path stroke="#ffffff" stroke-width="1.0" stroke-linecap="butt" d="M47.5 53.5L602.5 53.5" fill-rule="nonzero"/><clipPath id="id_0"><path d="M47.55 53.416668L602.45 53.416668L602.45 316.45L47.55 316.45L47.55 53.416668Z" clip-rule="nonzero"/></clipPath><path stroke="#000000" stroke-width="0.0" stroke-linecap="butt" stroke-opacity="0.0" clip-path="url(#id_0)" d="M158.0 316.0L105.0 316.0L105.0 292.0C105.0 290.89542 105.89543 290.0 107.0 290.0L156.0 290.0C157.10457 290.0 158.0 290.89542 158.0 292.0Z" fill-rule="nonzero"/><path fill="#65bd19" clip-path="url(#id_0)" d="M158.0 316.0L105.0 316.0L105.0 292.0C105.0 290.89542 105.89543 290.0 107.0 290.0L156.0 290.0C157.10457 290.0 158.0 290.89542 158.0 292.0Z" fill-rule="nonzero"/><path stroke="#000000" stroke-width="0.0" stroke-linecap="butt" stroke-opacity="0.0" clip-path="url(#id_0)" d="M324.0 316.0L271.0 316.0L271.0 184.0C271.0 182.89543 271.89542 182.0 273.0 182.0L322.0 182.0C323.10458 182.0 324.0 182.89543 324.0 184.0Z" fill-rule="nonzero"/><path fill="#65bd19" clip-path="url(#id_0)" d="M324.0 316.0L271.0 316.0L271.0 184.0C271.0 182.89543 271.89542 182.0 273.0 182.0L322.0 182.0C323.10458 182.0 324.0 182.89543 324.0 184.0Z" fill-rule="nonzero"/><path stroke="#000000" stroke-width="0.0" stroke-linecap="butt" stroke-opacity="0.0" clip-path="url(#id_0)" d="M490.0 316.0L437.0 316.0L437.0 286.0C437.0 284.89542 437.89542 284.0 439.0 284.0L488.0 284.0C489.10458 284.0 490.0 284.89542 490.0 286.0Z" fill-rule="nonzero"/><path fill="#65bd19" clip-path="url(#id_0)" d="M490.0 316.0L437.0 316.0L437.0 286.0C437.0 284.89542 437.89542 284.0 439.0 284.0L488.0 284.0C489.10458 284.0 490.0 284.89542 490.0 286.0Z" fill-rule="nonzero"/><path stroke="#000000" stroke-width="0.0" stroke-linecap="butt" stroke-opacity="0.0" clip-path="url(#id_0)" d="M212.0 316.0L159.0 316.0L159.0 269.0C159.0 267.89542 159.89543 267.0 161.0 267.0L210.0 267.0C211.10457 267.0 212.0 267.89542 212.0 269.0Z" fill-rule="nonzero"/><path fill="#4e52e2" clip-path="url(#id_0)" d="M212.0 316.0L159.0 316.0L159.0 269.0C159.0 267.89542 159.89543 267.0 161.0 267.0L210.0 267.0C211.10457 267.0 212.0 267.89542 212.0 269.0Z" fill-rule="nonzero"/><path stroke="#000000" stroke-width="0.0" stroke-linecap="butt" stroke-opacity="0.0" clip-path="url(#id_0)" d="M378.0 316.0L325.0 316.0L325.0 92.0C325.0 90.89543 325.89542 90.0 327.0 90.0L376.0 90.0C377.10458 90.0 378.0 90.89543 378.0 92.0Z" fill-rule="nonzero"/><path fill="#4e52e2" clip-path="url(#id_0)" d="M378.0 316.0L325.0 316.0L325.0 92.0C325.0 90.89543 325.89542 90.0 327.0 90.0L376.0 90.0C377.10458 90.0 378.0 90.89543 378.0 92.0Z" fill-rule="nonzero"/><path stroke="#000000" stroke-width="0.0" stroke-linecap="butt" stroke-opacity="0.0" clip-path="url(#id_0)" d="M544.0 316.0L491.0 316.0L491.0 253.0C491.0 251.89543 491.89542 251.0 493.0 251.0L542.0 251.0C543.10455 251.0 544.0 251.89543 544.0 253.0Z" fill-rule="nonzero"/><path fill="#4e52e2" clip-path="url(#id_0)" d="M544.0 316.0L491.0 316.0L491.0 253.0C491.0 251.89543 491.89542 251.0 493.0 251.0L542.0 251.0C543.10455 251.0 544.0 251.89543 544.0 253.0Z" fill-rule="nonzero"/><path fill="#000000" d="M31.6125 317.3094Q31.6125 319.21564 30.95625 320.15314Q30.315624 321.075 28.925 321.075Q27.565624 321.075 26.909374 320.16876Q26.253124 319.2625 26.221874 317.45L26.221874 316.0125Q26.221874 314.1219 26.8625 313.21564Q27.51875 312.29376 28.909374 312.29376Q30.284374 312.29376 30.940624 313.1844Q31.596874 314.0594 31.6125 315.90314L31.6125 317.3094ZM30.51875 315.825Q30.51875 314.45 30.128124 313.825Q29.753124 313.1844 28.909374 313.1844Q28.08125 313.1844 27.690624 313.825Q27.315624 314.45 27.315624 315.7469L27.315624 317.48126Q27.315624 318.85626 27.70625 319.52814Q28.1125 320.1844 28.925 320.1844Q29.721874 320.1844 30.1125 319.5594Q30.503124 318.9344 30.51875 317.60626L30.51875 315.825ZM33.159374 314.0594Q33.159374 313.29376 33.64375 312.79376Q34.14375 312.29376 34.909374 312.29376Q35.690624 312.29376 36.175 312.79376Q36.659374 313.29376 36.659374 314.09064L36.659374 314.5125Q36.659374 315.27814 36.159374 315.77814Q35.675 316.2625 34.925 316.2625Q34.159374 316.2625 33.659374 315.77814Q33.159374 315.27814 33.159374 314.46564L33.159374 314.0594ZM33.971874 314.5125Q33.971874 314.96564 34.221874 315.2625Q34.4875 315.5594 34.925 315.5594Q35.346874 315.5594 35.596874 315.27814Q35.846874 314.98126 35.846874 314.48126L35.846874 314.0594Q35.846874 313.60626 35.596874 313.3094Q35.346874 312.9969 34.909374 312.9969Q34.471874 312.9969 34.221874 313.3094Q33.971874 313.60626 33.971874 314.075L33.971874 314.5125ZM37.315624 318.85626Q37.315624 318.09064 37.8 317.60626Q38.3 317.10626 39.065624 317.10626Q39.83125 317.10626 40.315624 317.60626Q40.815624 318.09064 40.815624 318.90314L40.815624 319.3094Q40.815624 320.075 40.33125 320.575Q39.846874 321.075 39.08125 321.075Q38.315624 321.075 37.815624 320.59064Q37.315624 320.09064 37.315624 319.27814L37.315624 318.85626ZM38.128124 319.3094Q38.128124 319.77814 38.378124 320.075Q38.64375 320.3719 39.08125 320.3719Q39.503124 320.3719 39.753124 320.09064Q40.003124 319.79376 40.003124 319.29376L40.003124 318.85626Q40.003124 318.3875 39.7375 318.10626Q39.4875 317.8094 39.065624 317.8094Q38.64375 317.8094 38.378124 318.10626Q38.128124 318.3875 38.128124 318.8875L38.128124 319.3094ZM35.175 320.3094L34.55 319.91876L38.721874 313.2469L39.33125 313.6375L35.175 320.3094Z" fill-rule="nonzero"/><path fill="#000000" d="M24.846874 255.19167L19.253124 255.19167L19.253124 254.41042L22.20625 251.12917Q22.8625 250.37917 23.1125 249.92604Q23.3625 249.45729 23.3625 248.95729Q23.3625 248.28542 22.95625 247.86354Q22.565624 247.42604 21.878124 247.42604Q21.08125 247.42604 20.628124 247.89479Q20.175 248.34792 20.175 249.17604L19.096874 249.17604Q19.096874 247.98854 19.846874 247.26979Q20.6125 246.53542 21.878124 246.53542Q23.08125 246.53542 23.76875 247.16042Q24.45625 247.78542 24.45625 248.83229Q24.45625 250.08229 22.846874 251.83229L20.565624 254.30104L24.846874 254.30104L24.846874 255.19167ZM31.6125 251.55104Q31.6125 253.45729 30.95625 254.39479Q30.315624 255.31667 28.925 255.31667Q27.565624 255.31667 26.909374 254.41042Q26.253124 253.50417 26.221874 251.69167L26.221874 250.25417Q26.221874 248.36354 26.8625 247.45729Q27.51875 246.53542 28.909374 246.53542Q30.284374 246.53542 30.940624 247.42604Q31.596874 248.30104 31.6125 250.14479L31.6125 251.55104ZM30.51875 250.06667Q30.51875 248.69167 30.128124 248.06667Q29.753124 247.42604 28.909374 247.42604Q28.08125 247.42604 27.690624 248.06667Q27.315624 248.69167 27.315624 249.98854L27.315624 251.72292Q27.315624 253.09792 27.70625 253.76979Q28.1125 254.42604 28.925 254.42604Q29.721874 254.42604 30.1125 253.80104Q30.503124 253.17604 30.51875 251.84792L30.51875 250.06667ZM33.159374 248.30104Q33.159374 247.53542 33.64375 247.03542Q34.14375 246.53542 34.909374 246.53542Q35.690624 246.53542 36.175 247.03542Q36.659374 247.53542 36.659374 248.33229L36.659374 248.75417Q36.659374 249.51979 36.159374 250.01979Q35.675 250.50417 34.925 250.50417Q34.159374 250.50417 33.659374 250.01979Q33.159374 249.51979 33.159374 248.70729L33.159374 248.30104ZM33.971874 248.75417Q33.971874 249.20729 34.221874 249.50417Q34.4875 249.80104 34.925 249.80104Q35.346874 249.80104 35.596874 249.51979Q35.846874 249.22292 35.846874 248.72292L35.846874 248.30104Q35.846874 247.84792 35.596874 247.55104Q35.346874 247.23854 34.909374 247.23854Q34.471874 247.23854 34.221874 247.55104Q33.971874 247.84792 33.971874 248.31667L33.971874 248.75417ZM37.315624 253.09792Q37.315624 252.33229 37.8 251.84792Q38.3 251.34792 39.065624 251.34792Q39.83125 251.34792 40.315624 251.84792Q40.815624 252.33229 40.815624 253.14479L40.815624 253.55104Q40.815624 254.31667 40.33125 254.81667Q39.846874 255.31667 39.08125 255.31667Q38.315624 255.31667 37.815624 254.83229Q37.315624 254.33229 37.315624 253.51979L37.315624 253.09792ZM38.128124 253.55104Q38.128124 254.01979 38.378124 254.31667Q38.64375 254.61354 39.08125 254.61354Q39.503124 254.61354 39.753124 254.33229Q40.003124 254.03542 40.003124 253.53542L40.003124 253.09792Q40.003124 252.62917 39.7375 252.34792Q39.4875 252.05104 39.065624 252.05104Q38.64375 252.05104 38.378124 252.34792Q38.128124 252.62917 38.128124 253.12917L38.128124 253.55104ZM35.175 254.55104L34.55 254.16042L38.721874 247.48854L39.33125 247.87917L35.175 254.55104Z" fill-rule="nonzero"/><path fill="#000000" d="M23.83125 186.57396L25.01875 186.57396L25.01875 187.44896L23.83125 187.44896L23.83125 189.43333L22.753124 189.43333L22.753124 187.44896L18.8625 187.44896L18.8625 186.80833L22.675 180.90208L23.83125 180.90208L23.83125 186.57396ZM20.096874 186.57396L22.753124 186.57396L22.753124 182.38646L22.6125 182.62083L20.096874 186.57396ZM31.6125 185.79271Q31.6125 187.69896 30.95625 188.63646Q30.315624 189.55833 28.925 189.55833Q27.565624 189.55833 26.909374 188.65208Q26.253124 187.74583 26.221874 185.93333L26.221874 184.49583Q26.221874 182.60521 26.8625 181.69896Q27.51875 180.77708 28.909374 180.77708Q30.284374 180.77708 30.940624 181.66771Q31.596874 182.54271 31.6125 184.38646L31.6125 185.79271ZM30.51875 184.30833Q30.51875 182.93333 30.128124 182.30833Q29.753124 181.66771 28.909374 181.66771Q28.08125 181.66771 27.690624 182.30833Q27.315624 182.93333 27.315624 184.23021L27.315624 185.96458Q27.315624 187.33958 27.70625 188.01146Q28.1125 188.66771 28.925 188.66771Q29.721874 188.66771 30.1125 188.04271Q30.503124 187.41771 30.51875 186.08958L30.51875 184.30833ZM33.159374 182.54271Q33.159374 181.77708 33.64375 181.27708Q34.14375 180.77708 34.909374 180.77708Q35.690624 180.77708 36.175 181.27708Q36.659374 181.77708 36.659374 182.57396L36.659374 182.99583Q36.659374 183.76146 36.159374 184.26146Q35.675 184.74583 34.925 184.74583Q34.159374 184.74583 33.659374 184.26146Q33.159374 183.76146 33.159374 182.94896L33.159374 182.54271ZM33.971874 182.99583Q33.971874 183.44896 34.221874 183.74583Q34.4875 184.04271 34.925 184.04271Q35.346874 184.04271 35.596874 183.76146Q35.846874 183.46458 35.846874 182.96458L35.846874 182.54271Q35.846874 182.08958 35.596874 181.79271Q35.346874 181.48021 34.909374 181.48021Q34.471874 181.48021 34.221874 181.79271Q33.971874 182.08958 33.971874 182.55833L33.971874 182.99583ZM37.315624 187.33958Q37.315624 186.57396 37.8 186.08958Q38.3 185.58958 39.065624 185.58958Q39.83125 185.58958 40.315624 186.08958Q40.815624 186.57396 40.815624 187.38646L40.815624 187.79271Q40.815624 188.55833 40.33125 189.05833Q39.846874 189.55833 39.08125 189.55833Q38.315624 189.55833 37.815624 189.07396Q37.315624 188.57396 37.315624 187.76146L37.315624 187.33958ZM38.128124 187.79271Q38.128124 188.26146 38.378124 188.55833Q38.64375 188.85521 39.08125 188.85521Q39.503124 188.85521 39.753124 188.57396Q40.003124 188.27708 40.003124 187.77708L40.003124 187.33958Q40.003124 186.87083 39.7375 186.58958Q39.4875 186.29271 39.065624 186.29271Q38.64375 186.29271 38.378124 186.58958Q38.128124 186.87083 38.128124 187.37083L38.128124 187.79271ZM35.175 188.79271L34.55 188.40208L38.721874 181.73021L39.33125 182.12083L35.175 188.79271Z" fill-rule="nonzero"/><path fill="#000000" d="M23.51875 115.14375L23.51875 116.05L23.315624 116.05Q22.05 116.08125 21.3 116.81563Q20.55 117.53438 20.425 118.84688Q21.1125 118.08125 22.26875 118.08125Q23.378124 118.08125 24.05 118.8625Q24.721874 119.64375 24.721874 120.89375Q24.721874 122.20625 24.003124 123.00313Q23.284374 123.8 22.065624 123.8Q20.846874 123.8 20.08125 122.8625Q19.33125 121.90938 19.33125 120.425L19.33125 120.01875Q19.33125 117.65938 20.33125 116.40938Q21.33125 115.15938 23.315624 115.14375L23.51875 115.14375ZM22.096874 118.9875Q21.534374 118.9875 21.065624 119.31563Q20.596874 119.64375 20.409374 120.15938L20.409374 120.55Q20.409374 121.6125 20.878124 122.25313Q21.3625 122.89375 22.065624 122.89375Q22.8 122.89375 23.221874 122.3625Q23.64375 121.81563 23.64375 120.94063Q23.64375 120.06563 23.221874 119.53438Q22.8 118.9875 22.096874 118.9875ZM31.6125 120.03438Q31.6125 121.94063 30.95625 122.87813Q30.315624 123.8 28.925 123.8Q27.565624 123.8 26.909374 122.89375Q26.253124 121.9875 26.221874 120.175L26.221874 118.7375Q26.221874 116.84688 26.8625 115.94063Q27.51875 115.01875 28.909374 115.01875Q30.284374 115.01875 30.940624 115.90938Q31.596874 116.78438 31.6125 118.62813L31.6125 120.03438ZM30.51875 118.55Q30.51875 117.175 30.128124 116.55Q29.753124 115.90938 28.909374 115.90938Q28.08125 115.90938 27.690624 116.55Q27.315624 117.175 27.315624 118.47188L27.315624 120.20625Q27.315624 121.58125 27.70625 122.25313Q28.1125 122.90938 28.925 122.90938Q29.721874 122.90938 30.1125 122.28438Q30.503124 121.65938 30.51875 120.33125L30.51875 118.55ZM33.159374 116.78438Q33.159374 116.01875 33.64375 115.51875Q34.14375 115.01875 34.909374 115.01875Q35.690624 115.01875 36.175 115.51875Q36.659374 116.01875 36.659374 116.81563L36.659374 117.2375Q36.659374 118.00313 36.159374 118.50313Q35.675 118.9875 34.925 118.9875Q34.159374 118.9875 33.659374 118.50313Q33.159374 118.00313 33.159374 117.19063L33.159374 116.78438ZM33.971874 117.2375Q33.971874 117.69063 34.221874 117.9875Q34.4875 118.28438 34.925 118.28438Q35.346874 118.28438 35.596874 118.00313Q35.846874 117.70625 35.846874 117.20625L35.846874 116.78438Q35.846874 116.33125 35.596874 116.03438Q35.346874 115.72188 34.909374 115.72188Q34.471874 115.72188 34.221874 116.03438Q33.971874 116.33125 33.971874 116.8L33.971874 117.2375ZM37.315624 121.58125Q37.315624 120.81563 37.8 120.33125Q38.3 119.83125 39.065624 119.83125Q39.83125 119.83125 40.315624 120.33125Q40.815624 120.81563 40.815624 121.62813L40.815624 122.03438Q40.815624 122.8 40.33125 123.3Q39.846874 123.8 39.08125 123.8Q38.315624 123.8 37.815624 123.31563Q37.315624 122.81563 37.315624 122.00313L37.315624 121.58125ZM38.128124 122.03438Q38.128124 122.50313 38.378124 122.8Q38.64375 123.09688 39.08125 123.09688Q39.503124 123.09688 39.753124 122.81563Q40.003124 122.51875 40.003124 122.01875L40.003124 121.58125Q40.003124 121.1125 39.7375 120.83125Q39.4875 120.53438 39.065624 120.53438Q38.64375 120.53438 38.378124 120.83125Q38.128124 121.1125 38.128124 121.6125L38.128124 122.03438ZM35.175 123.03438L34.55 122.64375L38.721874 115.97188L39.33125 116.3625L35.175 123.03438Z" fill-rule="nonzero"/><path fill="#000000" d="M24.440624 51.604168Q24.440624 52.244793 24.096874 52.744793Q23.753124 53.244793 23.190624 53.526043Q23.846874 53.807293 24.2375 54.369793Q24.628124 54.916668 24.628124 55.619793Q24.628124 56.713543 23.878124 57.385418Q23.14375 58.041668 21.925 58.041668Q20.690624 58.041668 19.940624 57.385418Q19.20625 56.713543 19.20625 55.619793Q19.20625 54.916668 19.58125 54.369793Q19.95625 53.807293 20.628124 53.526043Q20.065624 53.244793 19.7375 52.744793Q19.409374 52.244793 19.409374 51.604168Q19.409374 50.526043 20.096874 49.901043Q20.784374 49.260418 21.925 49.260418Q23.05 49.260418 23.7375 49.901043Q24.440624 50.526043 24.440624 51.604168ZM23.55 55.588543Q23.55 54.869793 23.096874 54.432293Q22.64375 53.979168 21.909374 53.979168Q21.175 53.979168 20.721874 54.432293Q20.284374 54.869793 20.284374 55.604168Q20.284374 56.322918 20.721874 56.744793Q21.159374 57.151043 21.925 57.151043Q22.675 57.151043 23.1125 56.729168Q23.55 56.307293 23.55 55.588543ZM21.925 50.151043Q21.284374 50.151043 20.878124 50.557293Q20.4875 50.947918 20.4875 51.635418Q20.4875 52.276043 20.878124 52.682293Q21.26875 53.088543 21.909374 53.088543Q22.565624 53.088543 22.95625 52.682293Q23.346874 52.276043 23.346874 51.635418Q23.346874 50.979168 22.940624 50.572918Q22.534374 50.151043 21.925 50.151043ZM31.6125 54.276043Q31.6125 56.182293 30.95625 57.119793Q30.315624 58.041668 28.925 58.041668Q27.565624 58.041668 26.909374 57.135418Q26.253124 56.229168 26.221874 54.416668L26.221874 52.979168Q26.221874 51.088543 26.8625 50.182293Q27.51875 49.260418 28.909374 49.260418Q30.284374 49.260418 30.940624 50.151043Q31.596874 51.026043 31.6125 52.869793L31.6125 54.276043ZM30.51875 52.791668Q30.51875 51.416668 30.128124 50.791668Q29.753124 50.151043 28.909374 50.151043Q28.08125 50.151043 27.690624 50.791668Q27.315624 51.416668 27.315624 52.713543L27.315624 54.447918Q27.315624 55.822918 27.70625 56.494793Q28.1125 57.151043 28.925 57.151043Q29.721874 57.151043 30.1125 56.526043Q30.503124 55.901043 30.51875 54.572918L30.51875 52.791668ZM33.159374 51.026043Q33.159374 50.260418 33.64375 49.760418Q34.14375 49.260418 34.909374 49.260418Q35.690624 49.260418 36.175 49.760418Q36.659374 50.260418 36.659374 51.057293L36.659374 51.479168Q36.659374 52.244793 36.159374 52.744793Q35.675 53.229168 34.925 53.229168Q34.159374 53.229168 33.659374 52.744793Q33.159374 52.244793 33.159374 51.432293L33.159374 51.026043ZM33.971874 51.479168Q33.971874 51.932293 34.221874 52.229168Q34.4875 52.526043 34.925 52.526043Q35.346874 52.526043 35.596874 52.244793Q35.846874 51.947918 35.846874 51.447918L35.846874 51.026043Q35.846874 50.572918 35.596874 50.276043Q35.346874 49.963543 34.909374 49.963543Q34.471874 49.963543 34.221874 50.276043Q33.971874 50.572918 33.971874 51.041668L33.971874 51.479168ZM37.315624 55.822918Q37.315624 55.057293 37.8 54.572918Q38.3 54.072918 39.065624 54.072918Q39.83125 54.072918 40.315624 54.572918Q40.815624 55.057293 40.815624 55.869793L40.815624 56.276043Q40.815624 57.041668 40.33125 57.541668Q39.846874 58.041668 39.08125 58.041668Q38.315624 58.041668 37.815624 57.557293Q37.315624 57.057293 37.315624 56.244793L37.315624 55.822918ZM38.128124 56.276043Q38.128124 56.744793 38.378124 57.041668Q38.64375 57.338543 39.08125 57.338543Q39.503124 57.338543 39.753124 57.057293Q40.003124 56.760418 40.003124 56.260418L40.003124 55.822918Q40.003124 55.354168 39.7375 55.072918Q39.4875 54.776043 39.065624 54.776043Q38.64375 54.776043 38.378124 55.072918Q38.128124 55.354168 38.128124 55.854168L38.128124 56.276043ZM35.175 57.276043L34.55 56.885418L38.721874 50.213543L39.33125 50.604168L35.175 57.276043Z" fill-rule="nonzero"/><path fill="#4d4d4d" d="M90.12383 334.45L89.04571 334.45L89.04571 327.23126L86.85821 328.02814L86.85821 327.04376L89.96758 325.8719L90.12383 325.8719L90.12383 334.45ZM96.18633 331.04376Q96.18633 332.35626 95.84258 333.5594Q95.49883 334.7469 94.78008 335.7625Q94.07696 336.77814 93.31133 337.2L93.07696 336.54376Q93.98321 335.85626 94.53008 334.40314Q95.07696 332.9344 95.09258 331.16876L95.09258 330.98126Q95.09258 329.7469 94.82696 328.6844Q94.57696 327.6219 94.10821 326.79376Q93.65508 325.95 93.07696 325.48126L93.31133 324.825Q94.07696 325.2469 94.78008 326.2469Q95.48321 327.2469 95.82696 328.46564Q96.18633 329.66876 96.18633 331.04376ZM100.46758 327.5594Q100.46758 326.79376 100.95196 326.29376Q101.45196 325.79376 102.21758 325.79376Q102.99883 325.79376 103.48321 326.29376Q103.96758 326.79376 103.96758 327.59064L103.96758 328.0125Q103.96758 328.77814 103.46758 329.27814Q102.98321 329.7625 102.23321 329.7625Q101.46758 329.7625 100.96758 329.27814Q100.46758 328.77814 100.46758 327.96564L100.46758 327.5594ZM101.28008 328.0125Q101.28008 328.46564 101.53008 328.7625Q101.79571 329.0594 102.23321 329.0594Q102.65508 329.0594 102.90508 328.77814Q103.15508 328.48126 103.15508 327.98126L103.15508 327.5594Q103.15508 327.10626 102.90508 326.8094Q102.65508 326.4969 102.21758 326.4969Q101.78008 326.4969 101.53008 326.8094Q101.28008 327.10626 101.28008 327.575L101.28008 328.0125ZM104.62383 332.35626Q104.62383 331.59064 105.10821 331.10626Q105.60821 330.60626 106.37383 330.60626Q107.13946 330.60626 107.62383 331.10626Q108.12383 331.59064 108.12383 332.40314L108.12383 332.8094Q108.12383 333.575 107.63946 334.075Q107.15508 334.575 106.38946 334.575Q105.62383 334.575 105.12383 334.09064Q104.62383 333.59064 104.62383 332.77814L104.62383 332.35626ZM105.43633 332.8094Q105.43633 333.27814 105.68633 333.575Q105.95196 333.8719 106.38946 333.8719Q106.81133 333.8719 107.06133 333.59064Q107.31133 333.29376 107.31133 332.79376L107.31133 332.35626Q107.31133 331.8875 107.04571 331.60626Q106.79571 331.3094 106.37383 331.3094Q105.95196 331.3094 105.68633 331.60626Q105.43633 331.8875 105.43633 332.3875L105.43633 332.8094ZM102.48321 333.8094L101.85821 333.41876L106.03008 326.7469L106.63946 327.1375L102.48321 333.8094ZM112.38946 331.21564Q112.38946 330.29376 112.74883 329.54376Q113.12383 328.79376 113.78008 328.40314Q114.43633 327.9969 115.26446 327.9969Q116.56133 327.9969 117.35821 328.8875Q118.17071 329.77814 118.17071 331.27814L118.17071 331.35626Q118.17071 332.27814 117.81133 333.0125Q117.45196 333.7469 116.79571 334.16876Q116.13946 334.575 115.28008 334.575Q113.99883 334.575 113.18633 333.6844Q112.38946 332.77814 112.38946 331.29376L112.38946 331.21564ZM113.48321 331.35626Q113.48321 332.40314 113.96758 333.04376Q114.46758 333.6844 115.28008 333.6844Q116.10821 333.6844 116.59258 333.04376Q117.07696 332.3875 117.07696 331.21564Q117.07696 330.1844 116.57696 329.54376Q116.09258 328.8875 115.26446 328.8875Q114.46758 328.8875 113.96758 329.52814Q113.48321 330.15314 113.48321 331.35626ZM120.21758 334.45L120.21758 328.95L119.21758 328.95L119.21758 328.10626L120.21758 328.10626L120.21758 327.46564Q120.21758 326.4344 120.74883 325.8875Q121.29571 325.325 122.29571 325.325Q122.67071 325.325 123.04571 325.41876L122.98321 326.3094Q122.70196 326.2469 122.40508 326.2469Q121.87383 326.2469 121.57696 326.5594Q121.29571 326.8719 121.29571 327.4344L121.29571 328.10626L122.65508 328.10626L122.65508 328.95L121.29571 328.95L121.29571 334.45L120.21758 334.45ZM130.59259 333.825Q129.96759 334.575 128.73322 334.575Q127.71758 334.575 127.18633 333.98126Q126.65508 333.3875 126.65508 332.23126L126.65508 328.10626L127.73321 328.10626L127.73321 332.2Q127.73321 333.65314 128.90509 333.65314Q130.15509 333.65314 130.56134 332.71564L130.56134 328.10626L131.65509 328.10626L131.65509 334.45L130.62384 334.45L130.59259 333.825ZM137.37384 332.7625Q137.37384 332.325 137.03009 332.09064Q136.70197 331.84064 135.87384 331.66876Q135.06134 331.4969 134.57697 331.2469Q134.09259 330.9969 133.85822 330.66876Q133.63947 330.325 133.63947 329.85626Q133.63947 329.075 134.29572 328.54376Q134.95197 327.9969 135.98322 327.9969Q137.06134 327.9969 137.71759 328.5594Q138.38947 329.10626 138.38947 329.96564L137.31134 329.96564Q137.31134 329.52814 136.92072 329.21564Q136.54572 328.8875 135.98322 328.8875Q135.38947 328.8875 135.04572 329.15314Q134.71759 329.40314 134.71759 329.8094Q134.71759 330.2 135.03009 330.40314Q135.34259 330.60626 136.15509 330.79376Q136.96759 330.96564 137.46759 331.21564Q137.96759 331.46564 138.20197 331.825Q138.45197 332.1844 138.45197 332.6844Q138.45197 333.54376 137.76447 334.0594Q137.09259 334.575 136.01447 334.575Q135.24884 334.575 134.65509 334.3094Q134.07697 334.02814 133.74884 333.54376Q133.42072 333.0594 133.42072 332.4969L134.49884 332.4969Q134.53009 333.04376 134.93634 333.3719Q135.34259 333.6844 136.01447 333.6844Q136.62384 333.6844 136.99884 333.4344Q137.37384 333.1844 137.37384 332.7625ZM142.31134 334.575Q141.01447 334.575 140.20197 333.73126Q139.40509 332.8719 139.40509 331.45L139.40509 331.2625Q139.40509 330.3094 139.76447 329.575Q140.12384 328.825 140.76447 328.41876Q141.42072 327.9969 142.17072 327.9969Q143.40509 327.9969 144.09259 328.8094Q144.78009 329.6219 144.78009 331.1375L144.78009 331.59064L140.48322 331.59064Q140.51447 332.52814 141.03009 333.10626Q141.56134 333.6844 142.37384 333.6844Q142.93634 333.6844 143.32697 333.45Q143.73322 333.21564 144.04572 332.825L144.70197 333.34064Q143.90509 334.575 142.31134 334.575ZM142.17072 328.8875Q141.51447 328.8875 141.06134 329.3719Q140.62384 329.84064 140.53009 330.7L143.70197 330.7L143.70197 330.6219Q143.65509 329.79376 143.24884 329.34064Q142.85822 328.8875 142.17072 328.8875ZM148.74884 329.075Q148.49884 329.04376 148.21759 329.04376Q147.13947 329.04376 146.76447 329.95L146.76447 334.45L145.68634 334.45L145.68634 328.10626L146.73322 328.10626L146.74884 328.84064Q147.28009 327.9969 148.26447 327.9969Q148.57697 327.9969 148.74884 328.075L148.74884 329.075ZM154.15509 326.575L154.15509 328.10626L155.32697 328.10626L155.32697 328.95L154.15509 328.95L154.15509 332.8719Q154.15509 333.2625 154.31134 333.45Q154.46759 333.6375 154.84259 333.6375Q155.03009 333.6375 155.35822 333.575L155.35822 334.45Q154.93634 334.575 154.53009 334.575Q153.81134 334.575 153.43634 334.1375Q153.06134 333.6844 153.06134 332.8719L153.06134 328.95L151.90509 328.95L151.90509 328.10626L153.06134 328.10626L153.06134 326.575L154.15509 326.575ZM159.74884 329.075Q159.49884 329.04376 159.21759 329.04376Q158.13947 329.04376 157.76447 329.95L157.76447 334.45L156.68634 334.45L156.68634 328.10626L157.73322 328.10626L157.74884 328.84064Q158.28009 327.9969 159.26447 327.9969Q159.57697 327.9969 159.74884 328.075L159.74884 329.075ZM164.59259 334.45Q164.49884 334.2625 164.43634 333.77814Q163.68634 334.575 162.63947 334.575Q161.70197 334.575 161.09259 334.04376Q160.49884 333.5125 160.49884 332.6844Q160.49884 331.7 161.24884 331.15314Q161.99884 330.60626 163.37384 330.60626L164.42072 330.60626L164.42072 330.10626Q164.42072 329.54376 164.07697 329.21564Q163.74884 328.8719 163.07697 328.8719Q162.49884 328.8719 162.10822 329.16876Q161.71759 329.45 161.71759 329.8719L160.62384 329.8719Q160.62384 329.3875 160.95197 328.95Q161.29572 328.5125 161.87384 328.2625Q162.45197 327.9969 163.13947 327.9969Q164.24884 327.9969 164.85822 328.54376Q165.48322 329.09064 165.51447 330.04376L165.51447 332.96564Q165.51447 333.84064 165.73322 334.35626L165.73322 334.45L164.59259 334.45ZM162.79572 333.6219Q163.31134 333.6219 163.76447 333.35626Q164.21759 333.09064 164.42072 332.66876L164.42072 331.3719L163.57697 331.3719Q161.57697 331.3719 161.57697 332.54376Q161.57697 333.04376 161.92072 333.34064Q162.26447 333.6219 162.79572 333.6219ZM168.70197 328.10626L168.73322 328.90314Q169.46759 327.9969 170.63947 327.9969Q172.65509 327.9969 172.67072 330.2625L172.67072 334.45L171.57697 334.45L171.57697 330.2469Q171.57697 329.575 171.26447 329.2469Q170.96759 328.91876 170.31134 328.91876Q169.78009 328.91876 169.37384 329.2Q168.98322 329.48126 168.76447 329.9344L168.76447 334.45L167.68634 334.45L167.68634 328.10626L168.70197 328.10626ZM178.37384 332.7625Q178.37384 332.325 178.03009 332.09064Q177.70197 331.84064 176.87384 331.66876Q176.06134 331.4969 175.57697 331.2469Q175.09259 330.9969 174.85822 330.66876Q174.63947 330.325 174.63947 329.85626Q174.63947 329.075 175.29572 328.54376Q175.95197 327.9969 176.98322 327.9969Q178.06134 327.9969 178.71759 328.5594Q179.38947 329.10626 179.38947 329.96564L178.31134 329.96564Q178.31134 329.52814 177.92072 329.21564Q177.54572 328.8875 176.98322 328.8875Q176.38947 328.8875 176.04572 329.15314Q175.71759 329.40314 175.71759 329.8094Q175.71759 330.2 176.03009 330.40314Q176.34259 330.60626 177.15509 330.79376Q177.96759 330.96564 178.46759 331.21564Q178.96759 331.46564 179.20197 331.825Q179.45197 332.1844 179.45197 332.6844Q179.45197 333.54376 178.76447 334.0594Q178.09259 334.575 177.01447 334.575Q176.24884 334.575 175.65509 334.3094Q175.07697 334.02814 174.74884 333.54376Q174.42072 333.0594 174.42072 332.4969L175.49884 332.4969Q175.53009 333.04376 175.93634 333.3719Q176.34259 333.6844 177.01447 333.6844Q177.62384 333.6844 177.99884 333.4344Q178.37384 333.1844 178.37384 332.7625ZM181.85822 334.45L180.78009 334.45L180.78009 328.10626L181.85822 328.10626L181.85822 334.45ZM180.68634 326.4344Q180.68634 326.16876 180.84259 325.98126Q181.01447 325.79376 181.32697 325.79376Q181.63947 325.79376 181.79572 325.98126Q181.96759 326.16876 181.96759 326.4344Q181.96759 326.6844 181.79572 326.8719Q181.63947 327.04376 181.32697 327.04376Q181.01447 327.04376 180.84259 326.8719Q180.68634 326.6844 180.68634 326.4344ZM185.15509 326.575L185.15509 328.10626L186.32697 328.10626L186.32697 328.95L185.15509 328.95L185.15509 332.8719Q185.15509 333.2625 185.31134 333.45Q185.46759 333.6375 185.84259 333.6375Q186.03009 333.6375 186.35822 333.575L186.35822 334.45Q185.93634 334.575 185.53009 334.575Q184.81134 334.575 184.43634 334.1375Q184.06134 333.6844 184.06134 332.8719L184.06134 328.95L182.90509 328.95L182.90509 328.10626L184.06134 328.10626L184.06134 326.575L185.15509 326.575ZM188.85822 334.45L187.78009 334.45L187.78009 328.10626L188.85822 328.10626L188.85822 334.45ZM187.68634 326.4344Q187.68634 326.16876 187.84259 325.98126Q188.01447 325.79376 188.32697 325.79376Q188.63947 325.79376 188.79572 325.98126Q188.96759 326.16876 188.96759 326.4344Q188.96759 326.6844 188.79572 326.8719Q188.63947 327.04376 188.32697 327.04376Q188.01447 327.04376 187.84259 326.8719Q187.68634 326.6844 187.68634 326.4344ZM190.38947 331.21564Q190.38947 330.29376 190.74884 329.54376Q191.12384 328.79376 191.78009 328.40314Q192.43634 327.9969 193.26447 327.9969Q194.56134 327.9969 195.35822 328.8875Q196.17072 329.77814 196.17072 331.27814L196.17072 331.35626Q196.17072 332.27814 195.81134 333.0125Q195.45197 333.7469 194.79572 334.16876Q194.13947 334.575 193.28009 334.575Q191.99884 334.575 191.18634 333.6844Q190.38947 332.77814 190.38947 331.29376L190.38947 331.21564ZM191.48322 331.35626Q191.48322 332.40314 191.96759 333.04376Q192.46759 333.6844 193.28009 333.6844Q194.10822 333.6844 194.59259 333.04376Q195.07697 332.3875 195.07697 331.21564Q195.07697 330.1844 194.57697 329.54376Q194.09259 328.8875 193.26447 328.8875Q192.46759 328.8875 191.96759 329.52814Q191.48322 330.15314 191.48322 331.35626ZM198.70197 328.10626L198.73322 328.90314Q199.46759 327.9969 200.63947 327.9969Q202.65509 327.9969 202.67072 330.2625L202.67072 334.45L201.57697 334.45L201.57697 330.2469Q201.57697 329.575 201.26447 329.2469Q200.96759 328.91876 200.31134 328.91876Q199.78009 328.91876 199.37384 329.2Q198.98322 329.48126 198.76447 329.9344L198.76447 334.45L197.68634 334.45L197.68634 328.10626L198.70197 328.10626ZM208.21759 334.45L208.21759 328.95L207.21759 328.95L207.21759 328.10626L208.21759 328.10626L208.21759 327.46564Q208.21759 326.4344 208.74884 325.8875Q209.29572 325.325 210.29572 325.325Q210.67072 325.325 211.04572 325.41876L210.98322 326.3094Q210.70197 326.2469 210.40509 326.2469Q209.87384 326.2469 209.57697 326.5594Q209.29572 326.8719 209.29572 327.4344L209.29572 328.10626L210.65509 328.10626L210.65509 328.95L209.29572 328.95L209.29572 334.45L208.21759 334.45ZM214.74884 329.075Q214.49884 329.04376 214.21759 329.04376Q213.13947 329.04376 212.76447 329.95L212.76447 334.45L211.68634 334.45L211.68634 328.10626L212.73322 328.10626L212.74884 328.84064Q213.28009 327.9969 214.26447 327.9969Q214.57697 327.9969 214.74884 328.075L214.74884 329.075ZM215.38947 331.21564Q215.38947 330.29376 215.74884 329.54376Q216.12384 328.79376 216.78009 328.40314Q217.43634 327.9969 218.26447 327.9969Q219.56134 327.9969 220.35822 328.8875Q221.17072 329.77814 221.17072 331.27814L221.17072 331.35626Q221.17072 332.27814 220.81134 333.0125Q220.45197 333.7469 219.79572 334.16876Q219.13947 334.575 218.28009 334.575Q216.99884 334.575 216.18634 333.6844Q215.38947 332.77814 215.38947 331.29376L215.38947 331.21564ZM216.48322 331.35626Q216.48322 332.40314 216.96759 333.04376Q217.46759 333.6844 218.28009 333.6844Q219.10822 333.6844 219.59259 333.04376Q220.07697 332.3875 220.07697 331.21564Q220.07697 330.1844 219.57697 329.54376Q219.09259 328.8875 218.26447 328.8875Q217.46759 328.8875 216.96759 329.52814Q216.48322 330.15314 216.48322 331.35626ZM223.70197 328.10626L223.73322 328.8094Q224.42072 327.9969 225.60822 327.9969Q226.93634 327.9969 227.42072 329.0125Q227.73322 328.5594 228.23322 328.27814Q228.74884 327.9969 229.43634 327.9969Q231.53009 327.9969 231.56134 330.2L231.56134 334.45L230.48322 334.45L230.48322 330.2625Q230.48322 329.59064 230.17072 329.2625Q229.85822 328.91876 229.12384 328.91876Q228.51447 328.91876 228.10822 329.27814Q227.71759 329.6375 227.65509 330.2469L227.65509 334.45L226.57697 334.45L226.57697 330.29376Q226.57697 328.91876 225.21759 328.91876Q224.15509 328.91876 223.76447 329.825L223.76447 334.45L222.67072 334.45L222.67072 328.10626L223.70197 328.10626Z" fill-rule="nonzero"/><path fill="#4d4d4d" d="M98.85821 349.45L97.78008 349.45L97.78008 343.10626L98.85821 343.10626L98.85821 349.45ZM97.68633 341.4344Q97.68633 341.16876 97.84258 340.98126Q98.01446 340.79376 98.32696 340.79376Q98.63946 340.79376 98.79571 340.98126Q98.96758 341.16876 98.96758 341.4344Q98.96758 341.6844 98.79571 341.8719Q98.63946 342.04376 98.32696 342.04376Q98.01446 342.04376 97.84258 341.8719Q97.68633 341.6844 97.68633 341.4344ZM101.70196 343.10626L101.73321 343.90314Q102.46758 342.9969 103.63946 342.9969Q105.65508 342.9969 105.67071 345.2625L105.67071 349.45L104.57696 349.45L104.57696 345.2469Q104.57696 344.575 104.26446 344.2469Q103.96758 343.91876 103.31133 343.91876Q102.78008 343.91876 102.37383 344.2Q101.98321 344.48126 101.76446 344.9344L101.76446 349.45L100.68633 349.45L100.68633 343.10626L101.70196 343.10626ZM109.93633 346.2625L107.07696 346.2625L107.07696 345.3875L109.93633 345.3875L109.93633 346.2625ZM114.59258 349.45Q114.49883 349.2625 114.43633 348.77814Q113.68633 349.575 112.63946 349.575Q111.70196 349.575 111.09258 349.04376Q110.49883 348.5125 110.49883 347.6844Q110.49883 346.7 111.24883 346.15314Q111.99883 345.60626 113.37383 345.60626L114.42071 345.60626L114.42071 345.10626Q114.42071 344.54376 114.07696 344.21564Q113.74883 343.8719 113.07696 343.8719Q112.49883 343.8719 112.10821 344.16876Q111.71758 344.45 111.71758 344.8719L110.62383 344.8719Q110.62383 344.3875 110.95196 343.95Q111.29571 343.5125 111.87383 343.2625Q112.45196 342.9969 113.13946 342.9969Q114.24883 342.9969 114.85821 343.54376Q115.48321 344.09064 115.51446 345.04376L115.51446 347.96564Q115.51446 348.84064 115.73321 349.35626L115.73321 349.45L114.59258 349.45ZM112.79571 348.6219Q113.31133 348.6219 113.76446 348.35626Q114.21758 348.09064 114.42071 347.66876L114.42071 346.3719L113.57696 346.3719Q111.57696 346.3719 111.57696 347.54376Q111.57696 348.04376 111.92071 348.34064Q112.26446 348.6219 112.79571 348.6219ZM123.03008 346.35626Q123.03008 347.79376 122.37383 348.6844Q121.71758 349.575 120.57696 349.575Q119.42071 349.575 118.76446 348.84064L118.76446 351.8875L117.68633 351.8875L117.68633 343.10626L118.67071 343.10626L118.71758 343.8094Q119.38946 342.9969 120.56133 342.9969Q121.70196 342.9969 122.35821 343.85626Q123.03008 344.71564 123.03008 346.2469L123.03008 346.35626ZM121.95196 346.23126Q121.95196 345.15314 121.48321 344.54376Q121.03008 343.91876 120.23321 343.91876Q119.24883 343.91876 118.76446 344.77814L118.76446 347.8094Q119.24883 348.6844 120.24883 348.6844Q121.03008 348.6844 121.48321 348.075Q121.95196 347.45 121.95196 346.23126ZM130.03009 346.35626Q130.03009 347.79376 129.37384 348.6844Q128.71759 349.575 127.57696 349.575Q126.42071 349.575 125.76446 348.84064L125.76446 351.8875L124.68633 351.8875L124.68633 343.10626L125.67071 343.10626L125.71758 343.8094Q126.38946 342.9969 127.56133 342.9969Q128.70197 342.9969 129.35822 343.85626Q130.03009 344.71564 130.03009 346.2469L130.03009 346.35626ZM128.95197 346.23126Q128.95197 345.15314 128.48322 344.54376Q128.03009 343.91876 127.23321 343.91876Q126.24883 343.91876 125.76446 344.77814L125.76446 347.8094Q126.24883 348.6844 127.24883 348.6844Q128.03009 348.6844 128.48322 348.075Q128.95197 347.45 128.95197 346.23126ZM140.03009 346.35626Q140.03009 347.79376 139.37384 348.6844Q138.71759 349.575 137.57697 349.575Q136.42072 349.575 135.76447 348.84064L135.76447 351.8875L134.68634 351.8875L134.68634 343.10626L135.67072 343.10626L135.71759 343.8094Q136.38947 342.9969 137.56134 342.9969Q138.70197 342.9969 139.35822 343.85626Q140.03009 344.71564 140.03009 346.2469L140.03009 346.35626ZM138.95197 346.23126Q138.95197 345.15314 138.48322 344.54376Q138.03009 343.91876 137.23322 343.91876Q136.24884 343.91876 135.76447 344.77814L135.76447 347.8094Q136.24884 348.6844 137.24884 348.6844Q138.03009 348.6844 138.48322 348.075Q138.95197 347.45 138.95197 346.23126ZM144.74884 344.075Q144.49884 344.04376 144.21759 344.04376Q143.13947 344.04376 142.76447 344.95L142.76447 349.45L141.68634 349.45L141.68634 343.10626L142.73322 343.10626L142.74884 343.84064Q143.28009 342.9969 144.26447 342.9969Q144.57697 342.9969 144.74884 343.075L144.74884 344.075ZM145.38947 346.21564Q145.38947 345.29376 145.74884 344.54376Q146.12384 343.79376 146.78009 343.40314Q147.43634 342.9969 148.26447 342.9969Q149.56134 342.9969 150.35822 343.8875Q151.17072 344.77814 151.17072 346.27814L151.17072 346.35626Q151.17072 347.27814 150.81134 348.0125Q150.45197 348.7469 149.79572 349.16876Q149.13947 349.575 148.28009 349.575Q146.99884 349.575 146.18634 348.6844Q145.38947 347.77814 145.38947 346.29376L145.38947 346.21564ZM146.48322 346.35626Q146.48322 347.40314 146.96759 348.04376Q147.46759 348.6844 148.28009 348.6844Q149.10822 348.6844 149.59259 348.04376Q150.07697 347.3875 150.07697 346.21564Q150.07697 345.1844 149.57697 344.54376Q149.09259 343.8875 148.26447 343.8875Q147.46759 343.8875 146.96759 344.52814Q146.48322 345.15314 146.48322 346.35626ZM153.70197 343.10626L153.73322 343.8094Q154.42072 342.9969 155.60822 342.9969Q156.93634 342.9969 157.42072 344.0125Q157.73322 343.5594 158.23322 343.27814Q158.74884 342.9969 159.43634 342.9969Q161.53009 342.9969 161.56134 345.2L161.56134 349.45L160.48322 349.45L160.48322 345.2625Q160.48322 344.59064 160.17072 344.2625Q159.85822 343.91876 159.12384 343.91876Q158.51447 343.91876 158.10822 344.27814Q157.71759 344.6375 157.65509 345.2469L157.65509 349.45L156.57697 349.45L156.57697 345.29376Q156.57697 343.91876 155.21759 343.91876Q154.15509 343.91876 153.76447 344.825L153.76447 349.45L152.67072 349.45L152.67072 343.10626L153.70197 343.10626ZM163.38947 346.21564Q163.38947 345.29376 163.74884 344.54376Q164.12384 343.79376 164.78009 343.40314Q165.43634 342.9969 166.26447 342.9969Q167.56134 342.9969 168.35822 343.8875Q169.17072 344.77814 169.17072 346.27814L169.17072 346.35626Q169.17072 347.27814 168.81134 348.0125Q168.45197 348.7469 167.79572 349.16876Q167.13947 349.575 166.28009 349.575Q164.99884 349.575 164.18634 348.6844Q163.38947 347.77814 163.38947 346.29376L163.38947 346.21564ZM164.48322 346.35626Q164.48322 347.40314 164.96759 348.04376Q165.46759 348.6844 166.28009 348.6844Q167.10822 348.6844 167.59259 348.04376Q168.07697 347.3875 168.07697 346.21564Q168.07697 345.1844 167.57697 344.54376Q167.09259 343.8875 166.26447 343.8875Q165.46759 343.8875 164.96759 344.52814Q164.48322 345.15314 164.48322 346.35626ZM174.70197 343.10626L174.73322 343.8094Q175.42072 342.9969 176.60822 342.9969Q177.93634 342.9969 178.42072 344.0125Q178.73322 343.5594 179.23322 343.27814Q179.74884 342.9969 180.43634 342.9969Q182.53009 342.9969 182.56134 345.2L182.56134 349.45L181.48322 349.45L181.48322 345.2625Q181.48322 344.59064 181.17072 344.2625Q180.85822 343.91876 180.12384 343.91876Q179.51447 343.91876 179.10822 344.27814Q178.71759 344.6375 178.65509 345.2469L178.65509 349.45L177.57697 349.45L177.57697 345.29376Q177.57697 343.91876 176.21759 343.91876Q175.15509 343.91876 174.76447 344.825L174.76447 349.45L173.67072 349.45L173.67072 343.10626L174.70197 343.10626ZM187.31134 349.575Q186.01447 349.575 185.20197 348.73126Q184.40509 347.8719 184.40509 346.45L184.40509 346.2625Q184.40509 345.3094 184.76447 344.575Q185.12384 343.825 185.76447 343.41876Q186.42072 342.9969 187.17072 342.9969Q188.40509 342.9969 189.09259 343.8094Q189.78009 344.6219 189.78009 346.1375L189.78009 346.59064L185.48322 346.59064Q185.51447 347.52814 186.03009 348.10626Q186.56134 348.6844 187.37384 348.6844Q187.93634 348.6844 188.32697 348.45Q188.73322 348.21564 189.04572 347.825L189.70197 348.34064Q188.90509 349.575 187.31134 349.575ZM187.17072 343.8875Q186.51447 343.8875 186.06134 344.3719Q185.62384 344.84064 185.53009 345.7L188.70197 345.7L188.70197 345.6219Q188.65509 344.79376 188.24884 344.34064Q187.85822 343.8875 187.17072 343.8875ZM194.37384 347.7625Q194.37384 347.325 194.03009 347.09064Q193.70197 346.84064 192.87384 346.66876Q192.06134 346.4969 191.57697 346.2469Q191.09259 345.9969 190.85822 345.66876Q190.63947 345.325 190.63947 344.85626Q190.63947 344.075 191.29572 343.54376Q191.95197 342.9969 192.98322 342.9969Q194.06134 342.9969 194.71759 343.5594Q195.38947 344.10626 195.38947 344.96564L194.31134 344.96564Q194.31134 344.52814 193.92072 344.21564Q193.54572 343.8875 192.98322 343.8875Q192.38947 343.8875 192.04572 344.15314Q191.71759 344.40314 191.71759 344.8094Q191.71759 345.2 192.03009 345.40314Q192.34259 345.60626 193.15509 345.79376Q193.96759 345.96564 194.46759 346.21564Q194.96759 346.46564 195.20197 346.825Q195.45197 347.1844 195.45197 347.6844Q195.45197 348.54376 194.76447 349.0594Q194.09259 349.575 193.01447 349.575Q192.24884 349.575 191.65509 349.3094Q191.07697 349.02814 190.74884 348.54376Q190.42072 348.0594 190.42072 347.4969L191.49884 347.4969Q191.53009 348.04376 191.93634 348.3719Q192.34259 348.6844 193.01447 348.6844Q193.62384 348.6844 193.99884 348.4344Q194.37384 348.1844 194.37384 347.7625ZM200.37384 347.7625Q200.37384 347.325 200.03009 347.09064Q199.70197 346.84064 198.87384 346.66876Q198.06134 346.4969 197.57697 346.2469Q197.09259 345.9969 196.85822 345.66876Q196.63947 345.325 196.63947 344.85626Q196.63947 344.075 197.29572 343.54376Q197.95197 342.9969 198.98322 342.9969Q200.06134 342.9969 200.71759 343.5594Q201.38947 344.10626 201.38947 344.96564L200.31134 344.96564Q200.31134 344.52814 199.92072 344.21564Q199.54572 343.8875 198.98322 343.8875Q198.38947 343.8875 198.04572 344.15314Q197.71759 344.40314 197.71759 344.8094Q197.71759 345.2 198.03009 345.40314Q198.34259 345.60626 199.15509 345.79376Q199.96759 345.96564 200.46759 346.21564Q200.96759 346.46564 201.20197 346.825Q201.45197 347.1844 201.45197 347.6844Q201.45197 348.54376 200.76447 349.0594Q200.09259 349.575 199.01447 349.575Q198.24884 349.575 197.65509 349.3094Q197.07697 349.02814 196.74884 348.54376Q196.42072 348.0594 196.42072 347.4969L197.49884 347.4969Q197.53009 348.04376 197.93634 348.3719Q198.34259 348.6844 199.01447 348.6844Q199.62384 348.6844 199.99884 348.4344Q200.37384 348.1844 200.37384 347.7625ZM206.59259 349.45Q206.49884 349.2625 206.43634 348.77814Q205.68634 349.575 204.63947 349.575Q203.70197 349.575 203.09259 349.04376Q202.49884 348.5125 202.49884 347.6844Q202.49884 346.7 203.24884 346.15314Q203.99884 345.60626 205.37384 345.60626L206.42072 345.60626L206.42072 345.10626Q206.42072 344.54376 206.07697 344.21564Q205.74884 343.8719 205.07697 343.8719Q204.49884 343.8719 204.10822 344.16876Q203.71759 344.45 203.71759 344.8719L202.62384 344.8719Q202.62384 344.3875 202.95197 343.95Q203.29572 343.5125 203.87384 343.2625Q204.45197 342.9969 205.13947 342.9969Q206.24884 342.9969 206.85822 343.54376Q207.48322 344.09064 207.51447 345.04376L207.51447 347.96564Q207.51447 348.84064 207.73322 349.35626L207.73322 349.45L206.59259 349.45ZM204.79572 348.6219Q205.31134 348.6219 205.76447 348.35626Q206.21759 348.09064 206.42072 347.66876L206.42072 346.3719L205.57697 346.3719Q203.57697 346.3719 203.57697 347.54376Q203.57697 348.04376 203.92072 348.34064Q204.26447 348.6219 204.79572 348.6219ZM209.42072 346.23126Q209.42072 344.7469 210.10822 343.8719Q210.79572 342.9969 211.92072 342.9969Q213.07697 342.9969 213.73322 343.8094L213.78009 343.10626L214.78009 343.10626L214.78009 349.29376Q214.78009 350.52814 214.04572 351.23126Q213.31134 351.95 212.09259 351.95Q211.40509 351.95 210.74884 351.65314Q210.09259 351.35626 209.74884 350.85626L210.31134 350.2Q210.99884 351.0594 212.01447 351.0594Q212.79572 351.0594 213.23322 350.60626Q213.68634 350.16876 213.68634 349.35626L213.68634 348.8094Q213.03009 349.575 211.90509 349.575Q210.79572 349.575 210.10822 348.6844Q209.42072 347.77814 209.42072 346.23126ZM210.51447 346.35626Q210.51447 347.41876 210.95197 348.04376Q211.38947 348.65314 212.18634 348.65314Q213.20197 348.65314 213.68634 347.71564L213.68634 344.825Q213.18634 343.91876 212.18634 343.91876Q211.40509 343.91876 210.95197 344.52814Q210.51447 345.1375 210.51447 346.35626ZM219.31134 349.575Q218.01447 349.575 217.20197 348.73126Q216.40509 347.8719 216.40509 346.45L216.40509 346.2625Q216.40509 345.3094 216.76447 344.575Q217.12384 343.825 217.76447 343.41876Q218.42072 342.9969 219.17072 342.9969Q220.40509 342.9969 221.09259 343.8094Q221.78009 344.6219 221.78009 346.1375L221.78009 346.59064L217.48322 346.59064Q217.51447 347.52814 218.03009 348.10626Q218.56134 348.6844 219.37384 348.6844Q219.93634 348.6844 220.32697 348.45Q220.73322 348.21564 221.04572 347.825L221.70197 348.34064Q220.90509 349.575 219.31134 349.575ZM219.17072 343.8875Q218.51447 343.8875 218.06134 344.3719Q217.62384 344.84064 217.53009 345.7L220.70197 345.7L220.70197 345.6219Q220.65509 344.79376 220.24884 344.34064Q219.85822 343.8875 219.17072 343.8875Z" fill-rule="nonzero"/><path fill="#4d4d4d" d="M257.29688 334.45L251.70312 334.45L251.70312 333.66876L254.65625 330.3875Q255.3125 329.6375 255.5625 329.1844Q255.8125 328.71564 255.8125 328.21564Q255.8125 327.54376 255.40625 327.1219Q255.01562 326.6844 254.32812 326.6844Q253.53125 326.6844 253.07812 327.15314Q252.625 327.60626 252.625 328.4344L251.54688 328.4344Q251.54688 327.2469 252.29688 326.52814Q253.0625 325.79376 254.32812 325.79376Q255.53125 325.79376 256.21875 326.41876Q256.90625 327.04376 256.90625 328.09064Q256.90625 329.34064 255.29688 331.09064L253.01562 333.5594L257.29688 333.5594L257.29688 334.45ZM261.32812 331.04376Q261.32812 332.35626 260.98438 333.5594Q260.64062 334.7469 259.92188 335.7625Q259.21875 336.77814 258.45312 337.2L258.21875 336.54376Q259.125 335.85626 259.67188 334.40314Q260.21875 332.9344 260.23438 331.16876L260.23438 330.98126Q260.23438 329.7469 259.96875 328.6844Q259.71875 327.6219 259.25 326.79376Q258.79688 325.95 258.21875 325.48126L258.45312 324.825Q259.21875 325.2469 259.92188 326.2469Q260.625 327.2469 260.96875 328.46564Q261.32812 329.66876 261.32812 331.04376ZM265.60938 327.5594Q265.60938 326.79376 266.09375 326.29376Q266.59375 325.79376 267.35938 325.79376Q268.14062 325.79376 268.625 326.29376Q269.10938 326.79376 269.10938 327.59064L269.10938 328.0125Q269.10938 328.77814 268.60938 329.27814Q268.125 329.7625 267.375 329.7625Q266.60938 329.7625 266.10938 329.27814Q265.60938 328.77814 265.60938 327.96564L265.60938 327.5594ZM266.42188 328.0125Q266.42188 328.46564 266.67188 328.7625Q266.9375 329.0594 267.375 329.0594Q267.79688 329.0594 268.04688 328.77814Q268.29688 328.48126 268.29688 327.98126L268.29688 327.5594Q268.29688 327.10626 268.04688 326.8094Q267.79688 326.4969 267.35938 326.4969Q266.92188 326.4969 266.67188 326.8094Q266.42188 327.10626 266.42188 327.575L266.42188 328.0125ZM269.76562 332.35626Q269.76562 331.59064 270.25 331.10626Q270.75 330.60626 271.51562 330.60626Q272.28125 330.60626 272.76562 331.10626Q273.26562 331.59064 273.26562 332.40314L273.26562 332.8094Q273.26562 333.575 272.78125 334.075Q272.29688 334.575 271.53125 334.575Q270.76562 334.575 270.26562 334.09064Q269.76562 333.59064 269.76562 332.77814L269.76562 332.35626ZM270.57812 332.8094Q270.57812 333.27814 270.82812 333.575Q271.09375 333.8719 271.53125 333.8719Q271.95312 333.8719 272.20312 333.59064Q272.45312 333.29376 272.45312 332.79376L272.45312 332.35626Q272.45312 331.8875 272.1875 331.60626Q271.9375 331.3094 271.51562 331.3094Q271.09375 331.3094 270.82812 331.60626Q270.57812 331.8875 270.57812 332.3875L270.57812 332.8094ZM267.625 333.8094L267.0 333.41876L271.17188 326.7469L271.78125 327.1375L267.625 333.8094ZM279.29688 326.575L279.29688 328.10626L280.46875 328.10626L280.46875 328.95L279.29688 328.95L279.29688 332.8719Q279.29688 333.2625 279.45312 333.45Q279.60938 333.6375 279.98438 333.6375Q280.17188 333.6375 280.5 333.575L280.5 334.45Q280.07812 334.575 279.67188 334.575Q278.95312 334.575 278.57812 334.1375Q278.20312 333.6844 278.20312 332.8719L278.20312 328.95L277.04688 328.95L277.04688 328.10626L278.20312 328.10626L278.20312 326.575L279.29688 326.575ZM284.89062 329.075Q284.64062 329.04376 284.35938 329.04376Q283.28125 329.04376 282.90625 329.95L282.90625 334.45L281.82812 334.45L281.82812 328.10626L282.875 328.10626L282.89062 328.84064Q283.42188 327.9969 284.40625 327.9969Q284.71875 327.9969 284.89062 328.075L284.89062 329.075ZM289.73438 334.45Q289.64062 334.2625 289.57812 333.77814Q288.82812 334.575 287.78125 334.575Q286.84375 334.575 286.23438 334.04376Q285.64062 333.5125 285.64062 332.6844Q285.64062 331.7 286.39062 331.15314Q287.14062 330.60626 288.51562 330.60626L289.5625 330.60626L289.5625 330.10626Q289.5625 329.54376 289.21875 329.21564Q288.89062 328.8719 288.21875 328.8719Q287.64062 328.8719 287.25 329.16876Q286.85938 329.45 286.85938 329.8719L285.76562 329.8719Q285.76562 329.3875 286.09375 328.95Q286.4375 328.5125 287.01562 328.2625Q287.59375 327.9969 288.28125 327.9969Q289.39062 327.9969 290.0 328.54376Q290.625 329.09064 290.65625 330.04376L290.65625 332.96564Q290.65625 333.84064 290.875 334.35626L290.875 334.45L289.73438 334.45ZM287.9375 333.6219Q288.45312 333.6219 288.90625 333.35626Q289.35938 333.09064 289.5625 332.66876L289.5625 331.3719L288.71875 331.3719Q286.71875 331.3719 286.71875 332.54376Q286.71875 333.04376 287.0625 333.34064Q287.40625 333.6219 287.9375 333.6219ZM293.84375 328.10626L293.875 328.90314Q294.60938 327.9969 295.78125 327.9969Q297.79688 327.9969 297.8125 330.2625L297.8125 334.45L296.71875 334.45L296.71875 330.2469Q296.71875 329.575 296.40625 329.2469Q296.10938 328.91876 295.45312 328.91876Q294.92188 328.91876 294.51562 329.2Q294.125 329.48126 293.90625 329.9344L293.90625 334.45L292.82812 334.45L292.82812 328.10626L293.84375 328.10626ZM303.51562 332.7625Q303.51562 332.325 303.17188 332.09064Q302.84375 331.84064 302.01562 331.66876Q301.20312 331.4969 300.71875 331.2469Q300.23438 330.9969 300.0 330.66876Q299.78125 330.325 299.78125 329.85626Q299.78125 329.075 300.4375 328.54376Q301.09375 327.9969 302.125 327.9969Q303.20312 327.9969 303.85938 328.5594Q304.53125 329.10626 304.53125 329.96564L303.45312 329.96564Q303.45312 329.52814 303.0625 329.21564Q302.6875 328.8875 302.125 328.8875Q301.53125 328.8875 301.1875 329.15314Q300.85938 329.40314 300.85938 329.8094Q300.85938 330.2 301.17188 330.40314Q301.48438 330.60626 302.29688 330.79376Q303.10938 330.96564 303.60938 331.21564Q304.10938 331.46564 304.34375 331.825Q304.59375 332.1844 304.59375 332.6844Q304.59375 333.54376 303.90625 334.0594Q303.23438 334.575 302.15625 334.575Q301.39062 334.575 300.79688 334.3094Q300.21875 334.02814 299.89062 333.54376Q299.5625 333.0594 299.5625 332.4969L300.64062 332.4969Q300.67188 333.04376 301.07812 333.3719Q301.48438 333.6844 302.15625 333.6844Q302.76562 333.6844 303.14062 333.4344Q303.51562 333.1844 303.51562 332.7625ZM307.0 334.45L305.92188 334.45L305.92188 328.10626L307.0 328.10626L307.0 334.45ZM305.82812 326.4344Q305.82812 326.16876 305.98438 325.98126Q306.15625 325.79376 306.46875 325.79376Q306.78125 325.79376 306.9375 325.98126Q307.10938 326.16876 307.10938 326.4344Q307.10938 326.6844 306.9375 326.8719Q306.78125 327.04376 306.46875 327.04376Q306.15625 327.04376 305.98438 326.8719Q305.82812 326.6844 305.82812 326.4344ZM310.29688 326.575L310.29688 328.10626L311.46875 328.10626L311.46875 328.95L310.29688 328.95L310.29688 332.8719Q310.29688 333.2625 310.45312 333.45Q310.60938 333.6375 310.98438 333.6375Q311.17188 333.6375 311.5 333.575L311.5 334.45Q311.07812 334.575 310.67188 334.575Q309.95312 334.575 309.57812 334.1375Q309.20312 333.6844 309.20312 332.8719L309.20312 328.95L308.04688 328.95L308.04688 328.10626L309.20312 328.10626L309.20312 326.575L310.29688 326.575ZM314.0 334.45L312.92188 334.45L312.92188 328.10626L314.0 328.10626L314.0 334.45ZM312.82812 326.4344Q312.82812 326.16876 312.98438 325.98126Q313.15625 325.79376 313.46875 325.79376Q313.78125 325.79376 313.9375 325.98126Q314.10938 326.16876 314.10938 326.4344Q314.10938 326.6844 313.9375 326.8719Q313.78125 327.04376 313.46875 327.04376Q313.15625 327.04376 312.98438 326.8719Q312.82812 326.6844 312.82812 326.4344ZM315.53125 331.21564Q315.53125 330.29376 315.89062 329.54376Q316.26562 328.79376 316.92188 328.40314Q317.57812 327.9969 318.40625 327.9969Q319.70312 327.9969 320.5 328.8875Q321.3125 329.77814 321.3125 331.27814L321.3125 331.35626Q321.3125 332.27814 320.95312 333.0125Q320.59375 333.7469 319.9375 334.16876Q319.28125 334.575 318.42188 334.575Q317.14062 334.575 316.32812 333.6844Q315.53125 332.77814 315.53125 331.29376L315.53125 331.21564ZM316.625 331.35626Q316.625 332.40314 317.10938 333.04376Q317.60938 333.6844 318.42188 333.6844Q319.25 333.6844 319.73438 333.04376Q320.21875 332.3875 320.21875 331.21564Q320.21875 330.1844 319.71875 329.54376Q319.23438 328.8875 318.40625 328.8875Q317.60938 328.8875 317.10938 329.52814Q316.625 330.15314 316.625 331.35626ZM323.84375 328.10626L323.875 328.90314Q324.60938 327.9969 325.78125 327.9969Q327.79688 327.9969 327.8125 330.2625L327.8125 334.45L326.71875 334.45L326.71875 330.2469Q326.71875 329.575 326.40625 329.2469Q326.10938 328.91876 325.45312 328.91876Q324.92188 328.91876 324.51562 329.2Q324.125 329.48126 323.90625 329.9344L323.90625 334.45L322.82812 334.45L322.82812 328.10626L323.84375 328.10626ZM333.35938 334.45L333.35938 328.95L332.35938 328.95L332.35938 328.10626L333.35938 328.10626L333.35938 327.46564Q333.35938 326.4344 333.89062 325.8875Q334.4375 325.325 335.4375 325.325Q335.8125 325.325 336.1875 325.41876L336.125 326.3094Q335.84375 326.2469 335.54688 326.2469Q335.01562 326.2469 334.71875 326.5594Q334.4375 326.8719 334.4375 327.4344L334.4375 328.10626L335.79688 328.10626L335.79688 328.95L334.4375 328.95L334.4375 334.45L333.35938 334.45ZM339.89062 329.075Q339.64062 329.04376 339.35938 329.04376Q338.28125 329.04376 337.90625 329.95L337.90625 334.45L336.82812 334.45L336.82812 328.10626L337.875 328.10626L337.89062 328.84064Q338.42188 327.9969 339.40625 327.9969Q339.71875 327.9969 339.89062 328.075L339.89062 329.075ZM340.53125 331.21564Q340.53125 330.29376 340.89062 329.54376Q341.26562 328.79376 341.92188 328.40314Q342.57812 327.9969 343.40625 327.9969Q344.70312 327.9969 345.5 328.8875Q346.3125 329.77814 346.3125 331.27814L346.3125 331.35626Q346.3125 332.27814 345.95312 333.0125Q345.59375 333.7469 344.9375 334.16876Q344.28125 334.575 343.42188 334.575Q342.14062 334.575 341.32812 333.6844Q340.53125 332.77814 340.53125 331.29376L340.53125 331.21564ZM341.625 331.35626Q341.625 332.40314 342.10938 333.04376Q342.60938 333.6844 343.42188 333.6844Q344.25 333.6844 344.73438 333.04376Q345.21875 332.3875 345.21875 331.21564Q345.21875 330.1844 344.71875 329.54376Q344.23438 328.8875 343.40625 328.8875Q342.60938 328.8875 342.10938 329.52814Q341.625 330.15314 341.625 331.35626ZM348.84375 328.10626L348.875 328.8094Q349.5625 327.9969 350.75 327.9969Q352.07812 327.9969 352.5625 329.0125Q352.875 328.5594 353.375 328.27814Q353.89062 327.9969 354.57812 327.9969Q356.67188 327.9969 356.70312 330.2L356.70312 334.45L355.625 334.45L355.625 330.2625Q355.625 329.59064 355.3125 329.2625Q355.0 328.91876 354.26562 328.91876Q353.65625 328.91876 353.25 329.27814Q352.85938 329.6375 352.79688 330.2469L352.79688 334.45L351.71875 334.45L351.71875 330.29376Q351.71875 328.91876 350.35938 328.91876Q349.29688 328.91876 348.90625 329.825L348.90625 334.45L347.8125 334.45L347.8125 328.10626L348.84375 328.10626ZM362.35938 334.45L362.35938 328.95L361.35938 328.95L361.35938 328.10626L362.35938 328.10626L362.35938 327.46564Q362.35938 326.4344 362.89062 325.8875Q363.4375 325.325 364.4375 325.325Q364.8125 325.325 365.1875 325.41876L365.125 326.3094Q364.84375 326.2469 364.54688 326.2469Q364.01562 326.2469 363.71875 326.5594Q363.4375 326.8719 363.4375 327.4344L363.4375 328.10626L364.79688 328.10626L364.79688 328.95L363.4375 328.95L363.4375 334.45L362.35938 334.45ZM368.45312 334.575Q367.15625 334.575 366.34375 333.73126Q365.54688 332.8719 365.54688 331.45L365.54688 331.2625Q365.54688 330.3094 365.90625 329.575Q366.26562 328.825 366.90625 328.41876Q367.5625 327.9969 368.3125 327.9969Q369.54688 327.9969 370.23438 328.8094Q370.92188 329.6219 370.92188 331.1375L370.92188 331.59064L366.625 331.59064Q366.65625 332.52814 367.17188 333.10626Q367.70312 333.6844 368.51562 333.6844Q369.07812 333.6844 369.46875 333.45Q369.875 333.21564 370.1875 332.825L370.84375 333.34064Q370.04688 334.575 368.45312 334.575ZM368.3125 328.8875Q367.65625 328.8875 367.20312 329.3719Q366.76562 329.84064 366.67188 330.7L369.84375 330.7L369.84375 330.6219Q369.79688 329.79376 369.39062 329.34064Q369.0 328.8875 368.3125 328.8875ZM375.73438 334.45Q375.64062 334.2625 375.57812 333.77814Q374.82812 334.575 373.78125 334.575Q372.84375 334.575 372.23438 334.04376Q371.64062 333.5125 371.64062 332.6844Q371.64062 331.7 372.39062 331.15314Q373.14062 330.60626 374.51562 330.60626L375.5625 330.60626L375.5625 330.10626Q375.5625 329.54376 375.21875 329.21564Q374.89062 328.8719 374.21875 328.8719Q373.64062 328.8719 373.25 329.16876Q372.85938 329.45 372.85938 329.8719L371.76562 329.8719Q371.76562 329.3875 372.09375 328.95Q372.4375 328.5125 373.01562 328.2625Q373.59375 327.9969 374.28125 327.9969Q375.39062 327.9969 376.0 328.54376Q376.625 329.09064 376.65625 330.04376L376.65625 332.96564Q376.65625 333.84064 376.875 334.35626L376.875 334.45L375.73438 334.45ZM373.9375 333.6219Q374.45312 333.6219 374.90625 333.35626Q375.35938 333.09064 375.5625 332.66876L375.5625 331.3719L374.71875 331.3719Q372.71875 331.3719 372.71875 332.54376Q372.71875 333.04376 373.0625 333.34064Q373.40625 333.6219 373.9375 333.6219ZM380.29688 326.575L380.29688 328.10626L381.46875 328.10626L381.46875 328.95L380.29688 328.95L380.29688 332.8719Q380.29688 333.2625 380.45312 333.45Q380.60938 333.6375 380.98438 333.6375Q381.17188 333.6375 381.5 333.575L381.5 334.45Q381.07812 334.575 380.67188 334.575Q379.95312 334.575 379.57812 334.1375Q379.20312 333.6844 379.20312 332.8719L379.20312 328.95L378.04688 328.95L378.04688 328.10626L379.20312 328.10626L379.20312 326.575L380.29688 326.575ZM386.73438 333.825Q386.10938 334.575 384.875 334.575Q383.85938 334.575 383.32812 333.98126Q382.79688 333.3875 382.79688 332.23126L382.79688 328.10626L383.875 328.10626L383.875 332.2Q383.875 333.65314 385.04688 333.65314Q386.29688 333.65314 386.70312 332.71564L386.70312 328.10626L387.79688 328.10626L387.79688 334.45L386.76562 334.45L386.73438 333.825ZM392.89062 329.075Q392.64062 329.04376 392.35938 329.04376Q391.28125 329.04376 390.90625 329.95L390.90625 334.45L389.82812 334.45L389.82812 328.10626L390.875 328.10626L390.89062 328.84064Q391.42188 327.9969 392.40625 327.9969Q392.71875 327.9969 392.89062 328.075L392.89062 329.075ZM396.45312 334.575Q395.15625 334.575 394.34375 333.73126Q393.54688 332.8719 393.54688 331.45L393.54688 331.2625Q393.54688 330.3094 393.90625 329.575Q394.26562 328.825 394.90625 328.41876Q395.5625 327.9969 396.3125 327.9969Q397.54688 327.9969 398.23438 328.8094Q398.92188 329.6219 398.92188 331.1375L398.92188 331.59064L394.625 331.59064Q394.65625 332.52814 395.17188 333.10626Q395.70312 333.6844 396.51562 333.6844Q397.07812 333.6844 397.46875 333.45Q397.875 333.21564 398.1875 332.825L398.84375 333.34064Q398.04688 334.575 396.45312 334.575ZM396.3125 328.8875Q395.65625 328.8875 395.20312 329.3719Q394.76562 329.84064 394.67188 330.7L397.84375 330.7L397.84375 330.6219Q397.79688 329.79376 397.39062 329.34064Q397.0 328.8875 396.3125 328.8875Z" fill-rule="nonzero"/><path fill="#4d4d4d" d="M304.0 349.45L302.92188 349.45L302.92188 340.45L304.0 340.45L304.0 349.45ZM307.0 349.45L305.92188 349.45L305.92188 343.10626L307.0 343.10626L307.0 349.45ZM305.82812 341.4344Q305.82812 341.16876 305.98438 340.98126Q306.15625 340.79376 306.46875 340.79376Q306.78125 340.79376 306.9375 340.98126Q307.10938 341.16876 307.10938 341.4344Q307.10938 341.6844 306.9375 341.8719Q306.78125 342.04376 306.46875 342.04376Q306.15625 342.04376 305.98438 341.8719Q305.82812 341.6844 305.82812 341.4344ZM312.51562 347.7625Q312.51562 347.325 312.17188 347.09064Q311.84375 346.84064 311.01562 346.66876Q310.20312 346.4969 309.71875 346.2469Q309.23438 345.9969 309.0 345.66876Q308.78125 345.325 308.78125 344.85626Q308.78125 344.075 309.4375 343.54376Q310.09375 342.9969 311.125 342.9969Q312.20312 342.9969 312.85938 343.5594Q313.53125 344.10626 313.53125 344.96564L312.45312 344.96564Q312.45312 344.52814 312.0625 344.21564Q311.6875 343.8875 311.125 343.8875Q310.53125 343.8875 310.1875 344.15314Q309.85938 344.40314 309.85938 344.8094Q309.85938 345.2 310.17188 345.40314Q310.48438 345.60626 311.29688 345.79376Q312.10938 345.96564 312.60938 346.21564Q313.10938 346.46564 313.34375 346.825Q313.59375 347.1844 313.59375 347.6844Q313.59375 348.54376 312.90625 349.0594Q312.23438 349.575 311.15625 349.575Q310.39062 349.575 309.79688 349.3094Q309.21875 349.02814 308.89062 348.54376Q308.5625 348.0594 308.5625 347.4969L309.64062 347.4969Q309.67188 348.04376 310.07812 348.3719Q310.48438 348.6844 311.15625 348.6844Q311.76562 348.6844 312.14062 348.4344Q312.51562 348.1844 312.51562 347.7625ZM316.29688 341.575L316.29688 343.10626L317.46875 343.10626L317.46875 343.95L316.29688 343.95L316.29688 347.8719Q316.29688 348.2625 316.45312 348.45Q316.60938 348.6375 316.98438 348.6375Q317.17188 348.6375 317.5 348.575L317.5 349.45Q317.07812 349.575 316.67188 349.575Q315.95312 349.575 315.57812 349.1375Q315.20312 348.6844 315.20312 347.8719L315.20312 343.95L314.04688 343.95L314.04688 343.10626L315.20312 343.10626L315.20312 341.575L316.29688 341.575ZM327.17188 346.35626Q327.17188 347.79376 326.51562 348.6844Q325.85938 349.575 324.71875 349.575Q323.5625 349.575 322.90625 348.84064L322.90625 351.8875L321.82812 351.8875L321.82812 343.10626L322.8125 343.10626L322.85938 343.8094Q323.53125 342.9969 324.70312 342.9969Q325.84375 342.9969 326.5 343.85626Q327.17188 344.71564 327.17188 346.2469L327.17188 346.35626ZM326.09375 346.23126Q326.09375 345.15314 325.625 344.54376Q325.17188 343.91876 324.375 343.91876Q323.39062 343.91876 322.90625 344.77814L322.90625 347.8094Q323.39062 348.6844 324.39062 348.6844Q325.17188 348.6844 325.625 348.075Q326.09375 347.45 326.09375 346.23126ZM332.73438 349.45Q332.64062 349.2625 332.57812 348.77814Q331.82812 349.575 330.78125 349.575Q329.84375 349.575 329.23438 349.04376Q328.64062 348.5125 328.64062 347.6844Q328.64062 346.7 329.39062 346.15314Q330.14062 345.60626 331.51562 345.60626L332.5625 345.60626L332.5625 345.10626Q332.5625 344.54376 332.21875 344.21564Q331.89062 343.8719 331.21875 343.8719Q330.64062 343.8719 330.25 344.16876Q329.85938 344.45 329.85938 344.8719L328.76562 344.8719Q328.76562 344.3875 329.09375 343.95Q329.4375 343.5125 330.01562 343.2625Q330.59375 342.9969 331.28125 342.9969Q332.39062 342.9969 333.0 343.54376Q333.625 344.09064 333.65625 345.04376L333.65625 347.96564Q333.65625 348.84064 333.875 349.35626L333.875 349.45L332.73438 349.45ZM330.9375 348.6219Q331.45312 348.6219 331.90625 348.35626Q332.35938 348.09064 332.5625 347.66876L332.5625 346.3719L331.71875 346.3719Q329.71875 346.3719 329.71875 347.54376Q329.71875 348.04376 330.0625 348.34064Q330.40625 348.6219 330.9375 348.6219ZM335.5625 346.23126Q335.5625 344.7469 336.25 343.8719Q336.9375 342.9969 338.0625 342.9969Q339.21875 342.9969 339.875 343.8094L339.92188 343.10626L340.92188 343.10626L340.92188 349.29376Q340.92188 350.52814 340.1875 351.23126Q339.45312 351.95 338.23438 351.95Q337.54688 351.95 336.89062 351.65314Q336.23438 351.35626 335.89062 350.85626L336.45312 350.2Q337.14062 351.0594 338.15625 351.0594Q338.9375 351.0594 339.375 350.60626Q339.82812 350.16876 339.82812 349.35626L339.82812 348.8094Q339.17188 349.575 338.04688 349.575Q336.9375 349.575 336.25 348.6844Q335.5625 347.77814 335.5625 346.23126ZM336.65625 346.35626Q336.65625 347.41876 337.09375 348.04376Q337.53125 348.65314 338.32812 348.65314Q339.34375 348.65314 339.82812 347.71564L339.82812 344.825Q339.32812 343.91876 338.32812 343.91876Q337.54688 343.91876 337.09375 344.52814Q336.65625 345.1375 336.65625 346.35626ZM345.45312 349.575Q344.15625 349.575 343.34375 348.73126Q342.54688 347.8719 342.54688 346.45L342.54688 346.2625Q342.54688 345.3094 342.90625 344.575Q343.26562 343.825 343.90625 343.41876Q344.5625 342.9969 345.3125 342.9969Q346.54688 342.9969 347.23438 343.8094Q347.92188 344.6219 347.92188 346.1375L347.92188 346.59064L343.625 346.59064Q343.65625 347.52814 344.17188 348.10626Q344.70312 348.6844 345.51562 348.6844Q346.07812 348.6844 346.46875 348.45Q346.875 348.21564 347.1875 347.825L347.84375 348.34064Q347.04688 349.575 345.45312 349.575ZM345.3125 343.8875Q344.65625 343.8875 344.20312 344.3719Q343.76562 344.84064 343.67188 345.7L346.84375 345.7L346.84375 345.6219Q346.79688 344.79376 346.39062 344.34064Q346.0 343.8875 345.3125 343.8875Z" fill-rule="nonzero"/><path fill="#4d4d4d" d="M443.92303 329.65314L444.73553 329.65314Q445.51678 329.6375 445.95428 329.2469Q446.39178 328.85626 446.39178 328.1844Q446.39178 326.6844 444.89178 326.6844Q444.18866 326.6844 443.76678 327.09064Q443.36053 327.4969 443.36053 328.15314L442.26678 328.15314Q442.26678 327.1375 443.00116 326.46564Q443.75116 325.79376 444.89178 325.79376Q446.0949 325.79376 446.7824 326.4344Q447.4699 327.075 447.4699 328.21564Q447.4699 328.77814 447.11053 329.29376Q446.75116 329.8094 446.12616 330.075Q446.82928 330.29376 447.20428 330.8094Q447.5949 331.325 447.5949 332.075Q447.5949 333.21564 446.8449 333.90314Q446.0949 334.575 444.89178 334.575Q443.70428 334.575 442.93866 333.91876Q442.18866 333.2625 442.18866 332.2L443.2824 332.2Q443.2824 332.8719 443.7199 333.27814Q444.1574 333.6844 444.9074 333.6844Q445.68866 333.6844 446.0949 333.27814Q446.51678 332.85626 446.51678 332.09064Q446.51678 331.35626 446.06366 330.96564Q445.61053 330.5594 444.73553 330.54376L443.92303 330.54376L443.92303 329.65314ZM451.9699 331.04376Q451.9699 332.35626 451.62616 333.5594Q451.2824 334.7469 450.56366 335.7625Q449.86053 336.77814 449.0949 337.2L448.86053 336.54376Q449.76678 335.85626 450.31366 334.40314Q450.86053 332.9344 450.87616 331.16876L450.87616 330.98126Q450.87616 329.7469 450.61053 328.6844Q450.36053 327.6219 449.89178 326.79376Q449.43866 325.95 448.86053 325.48126L449.0949 324.825Q449.86053 325.2469 450.56366 326.2469Q451.26678 327.2469 451.61053 328.46564Q451.9699 329.66876 451.9699 331.04376ZM456.25116 327.5594Q456.25116 326.79376 456.73553 326.29376Q457.23553 325.79376 458.00116 325.79376Q458.7824 325.79376 459.26678 326.29376Q459.75116 326.79376 459.75116 327.59064L459.75116 328.0125Q459.75116 328.77814 459.25116 329.27814Q458.76678 329.7625 458.01678 329.7625Q457.25116 329.7625 456.75116 329.27814Q456.25116 328.77814 456.25116 327.96564L456.25116 327.5594ZM457.06366 328.0125Q457.06366 328.46564 457.31366 328.7625Q457.57928 329.0594 458.01678 329.0594Q458.43866 329.0594 458.68866 328.77814Q458.93866 328.48126 458.93866 327.98126L458.93866 327.5594Q458.93866 327.10626 458.68866 326.8094Q458.43866 326.4969 458.00116 326.4969Q457.56366 326.4969 457.31366 326.8094Q457.06366 327.10626 457.06366 327.575L457.06366 328.0125ZM460.4074 332.35626Q460.4074 331.59064 460.89178 331.10626Q461.39178 330.60626 462.1574 330.60626Q462.92303 330.60626 463.4074 331.10626Q463.9074 331.59064 463.9074 332.40314L463.9074 332.8094Q463.9074 333.575 463.42303 334.075Q462.93866 334.575 462.17303 334.575Q461.4074 334.575 460.9074 334.09064Q460.4074 333.59064 460.4074 332.77814L460.4074 332.35626ZM461.2199 332.8094Q461.2199 333.27814 461.4699 333.575Q461.73553 333.8719 462.17303 333.8719Q462.5949 333.8719 462.8449 333.59064Q463.0949 333.29376 463.0949 332.79376L463.0949 332.35626Q463.0949 331.8875 462.82928 331.60626Q462.57928 331.3094 462.1574 331.3094Q461.73553 331.3094 461.4699 331.60626Q461.2199 331.8875 461.2199 332.3875L461.2199 332.8094ZM458.26678 333.8094L457.64178 333.41876L461.81366 326.7469L462.42303 327.1375L458.26678 333.8094ZM469.75116 331.10626L469.75116 334.45L468.62616 334.45L468.62616 325.91876L471.7824 325.91876Q473.17303 325.91876 473.9699 326.6375Q474.76678 327.34064 474.76678 328.52814Q474.76678 329.7625 473.98553 330.4344Q473.2199 331.10626 471.76678 331.10626L469.75116 331.10626ZM469.75116 330.1844L471.7824 330.1844Q472.68866 330.1844 473.1574 329.7625Q473.64178 329.34064 473.64178 328.54376Q473.64178 327.77814 473.1574 327.325Q472.68866 326.85626 471.8449 326.84064L469.75116 326.84064L469.75116 330.1844ZM477.64178 334.45L476.56366 334.45L476.56366 325.45L477.64178 325.45L477.64178 334.45ZM483.37616 334.45Q483.2824 334.2625 483.2199 333.77814Q482.4699 334.575 481.42303 334.575Q480.48553 334.575 479.87616 334.04376Q479.2824 333.5125 479.2824 332.6844Q479.2824 331.7 480.0324 331.15314Q480.7824 330.60626 482.1574 330.60626L483.20428 330.60626L483.20428 330.10626Q483.20428 329.54376 482.86053 329.21564Q482.5324 328.8719 481.86053 328.8719Q481.2824 328.8719 480.89178 329.16876Q480.50116 329.45 480.50116 329.8719L479.4074 329.8719Q479.4074 329.3875 479.73553 328.95Q480.07928 328.5125 480.6574 328.2625Q481.23553 327.9969 481.92303 327.9969Q483.0324 327.9969 483.64178 328.54376Q484.26678 329.09064 484.29803 330.04376L484.29803 332.96564Q484.29803 333.84064 484.51678 334.35626L484.51678 334.45L483.37616 334.45ZM481.57928 333.6219Q482.0949 333.6219 482.54803 333.35626Q483.00116 333.09064 483.20428 332.66876L483.20428 331.3719L482.36053 331.3719Q480.36053 331.3719 480.36053 332.54376Q480.36053 333.04376 480.70428 333.34064Q481.04803 333.6219 481.57928 333.6219ZM487.48553 328.10626L487.51678 328.90314Q488.25116 327.9969 489.42303 327.9969Q491.43866 327.9969 491.45428 330.2625L491.45428 334.45L490.36053 334.45L490.36053 330.2469Q490.36053 329.575 490.04803 329.2469Q489.75116 328.91876 489.0949 328.91876Q488.56366 328.91876 488.1574 329.2Q487.76678 329.48126 487.54803 329.9344L487.54803 334.45L486.4699 334.45L486.4699 328.10626L487.48553 328.10626ZM500.1574 332.7625Q500.1574 332.325 499.81366 332.09064Q499.48553 331.84064 498.6574 331.66876Q497.8449 331.4969 497.36053 331.2469Q496.87616 330.9969 496.64178 330.66876Q496.42303 330.325 496.42303 329.85626Q496.42303 329.075 497.07928 328.54376Q497.73553 327.9969 498.76678 327.9969Q499.8449 327.9969 500.50116 328.5594Q501.17303 329.10626 501.17303 329.96564L500.0949 329.96564Q500.0949 329.52814 499.70428 329.21564Q499.32928 328.8875 498.76678 328.8875Q498.17303 328.8875 497.82928 329.15314Q497.50116 329.40314 497.50116 329.8094Q497.50116 330.2 497.81366 330.40314Q498.12616 330.60626 498.93866 330.79376Q499.75116 330.96564 500.25116 331.21564Q500.75116 331.46564 500.98553 331.825Q501.23553 332.1844 501.23553 332.6844Q501.23553 333.54376 500.54803 334.0594Q499.87616 334.575 498.79803 334.575Q498.0324 334.575 497.43866 334.3094Q496.86053 334.02814 496.5324 333.54376Q496.20428 333.0594 496.20428 332.4969L497.2824 332.4969Q497.31366 333.04376 497.7199 333.3719Q498.12616 333.6844 498.79803 333.6844Q499.4074 333.6844 499.7824 333.4344Q500.1574 333.1844 500.1574 332.7625ZM505.0949 334.575Q503.79803 334.575 502.98553 333.73126Q502.18866 332.8719 502.18866 331.45L502.18866 331.2625Q502.18866 330.3094 502.54803 329.575Q502.9074 328.825 503.54803 328.41876Q504.20428 327.9969 504.95428 327.9969Q506.18866 327.9969 506.87616 328.8094Q507.56366 329.6219 507.56366 331.1375L507.56366 331.59064L503.26678 331.59064Q503.29803 332.52814 503.81366 333.10626Q504.3449 333.6844 505.1574 333.6844Q505.7199 333.6844 506.11053 333.45Q506.51678 333.21564 506.82928 332.825L507.48553 333.34064Q506.68866 334.575 505.0949 334.575ZM504.95428 328.8875Q504.29803 328.8875 503.8449 329.3719Q503.4074 329.84064 503.31366 330.7L506.48553 330.7L506.48553 330.6219Q506.43866 329.79376 506.0324 329.34064Q505.64178 328.8875 504.95428 328.8875ZM509.64178 334.45L508.56366 334.45L508.56366 325.45L509.64178 325.45L509.64178 334.45ZM514.0949 334.575Q512.79803 334.575 511.98553 333.73126Q511.18866 332.8719 511.18866 331.45L511.18866 331.2625Q511.18866 330.3094 511.54803 329.575Q511.9074 328.825 512.54803 328.41876Q513.2043 327.9969 513.9543 327.9969Q515.18866 327.9969 515.87616 328.8094Q516.56366 329.6219 516.56366 331.1375L516.56366 331.59064L512.2668 331.59064Q512.29803 332.52814 512.81366 333.10626Q513.3449 333.6844 514.1574 333.6844Q514.7199 333.6844 515.11053 333.45Q515.5168 333.21564 515.8293 332.825L516.48553 333.34064Q515.68866 334.575 514.0949 334.575ZM513.9543 328.8875Q513.29803 328.8875 512.8449 329.3719Q512.4074 329.84064 512.31366 330.7L515.48553 330.7L515.48553 330.6219Q515.43866 329.79376 515.0324 329.34064Q514.6418 328.8875 513.9543 328.8875ZM520.00116 333.6844Q520.5793 333.6844 521.0168 333.34064Q521.4543 332.98126 521.50116 332.45L522.5324 332.45Q522.50116 332.9969 522.1418 333.4969Q521.79803 333.98126 521.2199 334.27814Q520.6574 334.575 520.00116 334.575Q518.7043 334.575 517.93866 333.71564Q517.18866 332.84064 517.18866 331.34064L517.18866 331.15314Q517.18866 330.23126 517.5168 329.5125Q517.86053 328.79376 518.48553 328.40314Q519.12616 327.9969 520.00116 327.9969Q521.06366 327.9969 521.7668 328.6375Q522.48553 329.2625 522.5324 330.29376L521.50116 330.29376Q521.4543 329.66876 521.0324 329.27814Q520.61053 328.8875 520.00116 328.8875Q519.17303 328.8875 518.7199 329.48126Q518.2668 330.075 518.2668 331.2L518.2668 331.40314Q518.2668 332.4969 518.7199 333.09064Q519.17303 333.6844 520.00116 333.6844ZM524.93866 326.575L524.93866 328.10626L526.11053 328.10626L526.11053 328.95L524.93866 328.95L524.93866 332.8719Q524.93866 333.2625 525.0949 333.45Q525.25116 333.6375 525.62616 333.6375Q525.81366 333.6375 526.1418 333.575L526.1418 334.45Q525.7199 334.575 525.31366 334.575Q524.5949 334.575 524.2199 334.1375Q523.8449 333.6844 523.8449 332.8719L523.8449 328.95L522.68866 328.95L522.68866 328.10626L523.8449 328.10626L523.8449 326.575L524.93866 326.575ZM530.0949 334.575Q528.79803 334.575 527.98553 333.73126Q527.18866 332.8719 527.18866 331.45L527.18866 331.2625Q527.18866 330.3094 527.54803 329.575Q527.9074 328.825 528.54803 328.41876Q529.2043 327.9969 529.9543 327.9969Q531.18866 327.9969 531.87616 328.8094Q532.56366 329.6219 532.56366 331.1375L532.56366 331.59064L528.2668 331.59064Q528.29803 332.52814 528.81366 333.10626Q529.3449 333.6844 530.1574 333.6844Q530.7199 333.6844 531.11053 333.45Q531.5168 333.21564 531.8293 332.825L532.48553 333.34064Q531.68866 334.575 530.0949 334.575ZM529.9543 328.8875Q529.29803 328.8875 528.8449 329.3719Q528.4074 329.84064 528.31366 330.7L531.48553 330.7L531.48553 330.6219Q531.43866 329.79376 531.0324 329.34064Q530.6418 328.8875 529.9543 328.8875ZM533.2043 331.23126Q533.2043 329.7625 533.8918 328.8875Q534.5793 327.9969 535.7043 327.9969Q536.81366 327.9969 537.4699 328.7469L537.4699 325.45L538.54803 325.45L538.54803 334.45L537.54803 334.45L537.50116 333.7625Q536.8449 334.575 535.68866 334.575Q534.5949 334.575 533.8918 333.66876Q533.2043 332.7625 533.2043 331.3094L533.2043 331.23126ZM534.2824 331.35626Q534.2824 332.4344 534.7199 333.04376Q535.17303 333.65314 535.9543 333.65314Q536.98553 333.65314 537.4699 332.71564L537.4699 329.8094Q536.98553 328.91876 535.9699 328.91876Q535.17303 328.91876 534.7199 329.52814Q534.2824 330.1375 534.2824 331.35626Z" fill-rule="nonzero"/><path fill="#65bd19" d="M210.0 21.05C210.0 20.497715 210.44771 20.05 211.0 20.05L221.0 20.05C221.55229 20.05 222.0 20.497715 222.0 21.05L222.0 31.05C222.0 31.602285 221.55229 32.05 221.0 32.05L211.0 32.05C210.44771 32.05 210.0 31.602285 210.0 31.05Z" fill-rule="nonzero"/><path fill="#1a1a1a" d="M234.5625 22.01875L235.70312 22.01875L235.70312 28.065624Q235.70312 29.284374 234.95312 29.9875Q234.21875 30.675 233.0 30.675Q231.73438 30.675 231.01562 30.01875Q230.3125 29.3625 230.3125 28.190624L231.4375 28.190624Q231.4375 28.925 231.82812 29.346874Q232.23438 29.753124 233.0 29.753124Q233.70312 29.753124 234.125 29.315624Q234.5625 28.8625 234.5625 28.08125L234.5625 22.01875ZM237.53125 27.315624Q237.53125 26.39375 237.89062 25.64375Q238.26562 24.89375 238.92188 24.503124Q239.57812 24.096874 240.40625 24.096874Q241.70312 24.096874 242.5 24.9875Q243.3125 25.878124 243.3125 27.378124L243.3125 27.45625Q243.3125 28.378124 242.95312 29.1125Q242.59375 29.846874 241.9375 30.26875Q241.28125 30.675 240.42188 30.675Q239.14062 30.675 238.32812 29.784374Q237.53125 28.878124 237.53125 27.39375L237.53125 27.315624ZM238.625 27.45625Q238.625 28.503124 239.10938 29.14375Q239.60938 29.784374 240.42188 29.784374Q241.25 29.784374 241.73438 29.14375Q242.21875 28.4875 242.21875 27.315624Q242.21875 26.284374 241.71875 25.64375Q241.23438 24.9875 240.40625 24.9875Q239.60938 24.9875 239.10938 25.628124Q238.625 26.253124 238.625 27.45625ZM246.0 30.55L244.92188 30.55L244.92188 24.20625L246.0 24.20625L246.0 30.55ZM244.82812 22.534374Q244.82812 22.26875 244.98438 22.08125Q245.15625 21.89375 245.46875 21.89375Q245.78125 21.89375 245.9375 22.08125Q246.10938 22.26875 246.10938 22.534374Q246.10938 22.784374 245.9375 22.971874Q245.78125 23.14375 245.46875 23.14375Q245.15625 23.14375 244.98438 22.971874Q244.82812 22.784374 244.82812 22.534374ZM251.51562 28.8625Q251.51562 28.425 251.17188 28.190624Q250.84375 27.940624 250.01562 27.76875Q249.20312 27.596874 248.71875 27.346874Q248.23438 27.096874 248.0 26.76875Q247.78125 26.425 247.78125 25.95625Q247.78125 25.175 248.4375 24.64375Q249.09375 24.096874 250.125 24.096874Q251.20312 24.096874 251.85938 24.659374Q252.53125 25.20625 252.53125 26.065624L251.45312 26.065624Q251.45312 25.628124 251.0625 25.315624Q250.6875 24.9875 250.125 24.9875Q249.53125 24.9875 249.1875 25.253124Q248.85938 25.503124 248.85938 25.909374Q248.85938 26.3 249.17188 26.503124Q249.48438 26.70625 250.29688 26.89375Q251.10938 27.065624 251.60938 27.315624Q252.10938 27.565624 252.34375 27.925Q252.59375 28.284374 252.59375 28.784374Q252.59375 29.64375 251.90625 30.159374Q251.23438 30.675 250.15625 30.675Q249.39062 30.675 248.79688 30.409374Q248.21875 30.128124 247.89062 29.64375Q247.5625 29.159374 247.5625 28.596874L248.64062 28.596874Q248.67188 29.14375 249.07812 29.471874Q249.48438 29.784374 250.15625 29.784374Q250.76562 29.784374 251.14062 29.534374Q251.51562 29.284374 251.51562 28.8625ZM255.29688 22.675L255.29688 24.20625L256.46875 24.20625L256.46875 25.05L255.29688 25.05L255.29688 28.971874Q255.29688 29.3625 255.45312 29.55Q255.60938 29.7375 255.98438 29.7375Q256.17188 29.7375 256.5 29.675L256.5 30.55Q256.07812 30.675 255.67188 30.675Q254.95312 30.675 254.57812 30.2375Q254.20312 29.784374 254.20312 28.971874L254.20312 25.05L253.04688 25.05L253.04688 24.20625L254.20312 24.20625L254.20312 22.675L255.29688 22.675ZM266.89062 22.940624L264.14062 22.940624L264.14062 30.55L263.03125 30.55L263.03125 22.940624L260.28125 22.940624L260.28125 22.01875L266.89062 22.01875L266.89062 22.940624ZM270.45312 30.675Q269.15625 30.675 268.34375 29.83125Q267.54688 28.971874 267.54688 27.55L267.54688 27.3625Q267.54688 26.409374 267.90625 25.675Q268.26562 24.925 268.90625 24.51875Q269.5625 24.096874 270.3125 24.096874Q271.54688 24.096874 272.23438 24.909374Q272.92188 25.721874 272.92188 27.2375L272.92188 27.690624L268.625 27.690624Q268.65625 28.628124 269.17188 29.20625Q269.70312 29.784374 270.51562 29.784374Q271.07812 29.784374 271.46875 29.55Q271.875 29.315624 272.1875 28.925L272.84375 29.440624Q272.04688 30.675 270.45312 30.675ZM270.3125 24.9875Q269.65625 24.9875 269.20312 25.471874Q268.76562 25.940624 268.67188 26.8L271.84375 26.8L271.84375 26.721874Q271.79688 25.89375 271.39062 25.440624Q271.0 24.9875 270.3125 24.9875ZM277.73438 30.55Q277.64062 30.3625 277.57812 29.878124Q276.82812 30.675 275.78125 30.675Q274.84375 30.675 274.23438 30.14375Q273.64062 29.6125 273.64062 28.784374Q273.64062 27.8 274.39062 27.253124Q275.14062 26.70625 276.51562 26.70625L277.5625 26.70625L277.5625 26.20625Q277.5625 25.64375 277.21875 25.315624Q276.89062 24.971874 276.21875 24.971874Q275.64062 24.971874 275.25 25.26875Q274.85938 25.55 274.85938 25.971874L273.76562 25.971874Q273.76562 25.4875 274.09375 25.05Q274.4375 24.6125 275.01562 24.3625Q275.59375 24.096874 276.28125 24.096874Q277.39062 24.096874 278.0 24.64375Q278.625 25.190624 278.65625 26.14375L278.65625 29.065624Q278.65625 29.940624 278.875 30.45625L278.875 30.55L277.73438 30.55ZM275.9375 29.721874Q276.45312 29.721874 276.90625 29.45625Q277.35938 29.190624 277.5625 28.76875L277.5625 27.471874L276.71875 27.471874Q274.71875 27.471874 274.71875 28.64375Q274.71875 29.14375 275.0625 29.440624Q275.40625 29.721874 275.9375 29.721874ZM281.84375 24.20625L281.875 24.909374Q282.5625 24.096874 283.75 24.096874Q285.07812 24.096874 285.5625 25.1125Q285.875 24.659374 286.375 24.378124Q286.89062 24.096874 287.57812 24.096874Q289.67188 24.096874 289.70312 26.3L289.70312 30.55L288.625 30.55L288.625 26.3625Q288.625 25.690624 288.3125 25.3625Q288.0 25.01875 287.26562 25.01875Q286.65625 25.01875 286.25 25.378124Q285.85938 25.7375 285.79688 26.346874L285.79688 30.55L284.71875 30.55L284.71875 26.39375Q284.71875 25.01875 283.35938 25.01875Q282.29688 25.01875 281.90625 25.925L281.90625 30.55L280.8125 30.55L280.8125 24.20625L281.84375 24.20625Z" fill-rule="nonzero"/><path fill="#4e52e2" d="M307.0 21.05C307.0 20.497715 307.44772 20.05 308.0 20.05L318.0 20.05C318.55228 20.05 319.0 20.497715 319.0 21.05L319.0 31.05C319.0 31.602285 318.55228 32.05 318.0 32.05L308.0 32.05C307.44772 32.05 307.0 31.602285 307.0 31.05Z" fill-rule="nonzero"/><path fill="#1a1a1a" d="M331.5625 22.01875L332.70312 22.01875L332.70312 28.065624Q332.70312 29.284374 331.95312 29.9875Q331.21875 30.675 330.0 30.675Q328.73438 30.675 328.01562 30.01875Q327.3125 29.3625 327.3125 28.190624L328.4375 28.190624Q328.4375 28.925 328.82812 29.346874Q329.23438 29.753124 330.0 29.753124Q330.70312 29.753124 331.125 29.315624Q331.5625 28.8625 331.5625 28.08125L331.5625 22.01875ZM334.53125 27.315624Q334.53125 26.39375 334.89062 25.64375Q335.26562 24.89375 335.92188 24.503124Q336.57812 24.096874 337.40625 24.096874Q338.70312 24.096874 339.5 24.9875Q340.3125 25.878124 340.3125 27.378124L340.3125 27.45625Q340.3125 28.378124 339.95312 29.1125Q339.59375 29.846874 338.9375 30.26875Q338.28125 30.675 337.42188 30.675Q336.14062 30.675 335.32812 29.784374Q334.53125 28.878124 334.53125 27.39375L334.53125 27.315624ZM335.625 27.45625Q335.625 28.503124 336.10938 29.14375Q336.60938 29.784374 337.42188 29.784374Q338.25 29.784374 338.73438 29.14375Q339.21875 28.4875 339.21875 27.315624Q339.21875 26.284374 338.71875 25.64375Q338.23438 24.9875 337.40625 24.9875Q336.60938 24.9875 336.10938 25.628124Q335.625 26.253124 335.625 27.45625ZM343.0 30.55L341.92188 30.55L341.92188 24.20625L343.0 24.20625L343.0 30.55ZM341.82812 22.534374Q341.82812 22.26875 341.98438 22.08125Q342.15625 21.89375 342.46875 21.89375Q342.78125 21.89375 342.9375 22.08125Q343.10938 22.26875 343.10938 22.534374Q343.10938 22.784374 342.9375 22.971874Q342.78125 23.14375 342.46875 23.14375Q342.15625 23.14375 341.98438 22.971874Q341.82812 22.784374 341.82812 22.534374ZM348.51562 28.8625Q348.51562 28.425 348.17188 28.190624Q347.84375 27.940624 347.01562 27.76875Q346.20312 27.596874 345.71875 27.346874Q345.23438 27.096874 345.0 26.76875Q344.78125 26.425 344.78125 25.95625Q344.78125 25.175 345.4375 24.64375Q346.09375 24.096874 347.125 24.096874Q348.20312 24.096874 348.85938 24.659374Q349.53125 25.20625 349.53125 26.065624L348.45312 26.065624Q348.45312 25.628124 348.0625 25.315624Q347.6875 24.9875 347.125 24.9875Q346.53125 24.9875 346.1875 25.253124Q345.85938 25.503124 345.85938 25.909374Q345.85938 26.3 346.17188 26.503124Q346.48438 26.70625 347.29688 26.89375Q348.10938 27.065624 348.60938 27.315624Q349.10938 27.565624 349.34375 27.925Q349.59375 28.284374 349.59375 28.784374Q349.59375 29.64375 348.90625 30.159374Q348.23438 30.675 347.15625 30.675Q346.39062 30.675 345.79688 30.409374Q345.21875 30.128124 344.89062 29.64375Q344.5625 29.159374 344.5625 28.596874L345.64062 28.596874Q345.67188 29.14375 346.07812 29.471874Q346.48438 29.784374 347.15625 29.784374Q347.76562 29.784374 348.14062 29.534374Q348.51562 29.284374 348.51562 28.8625ZM352.29688 22.675L352.29688 24.20625L353.46875 24.20625L353.46875 25.05L352.29688 25.05L352.29688 28.971874Q352.29688 29.3625 352.45312 29.55Q352.60938 29.7375 352.98438 29.7375Q353.17188 29.7375 353.5 29.675L353.5 30.55Q353.07812 30.675 352.67188 30.675Q351.95312 30.675 351.57812 30.2375Q351.20312 29.784374 351.20312 28.971874L351.20312 25.05L350.04688 25.05L350.04688 24.20625L351.20312 24.20625L351.20312 22.675L352.29688 22.675ZM362.70312 28.315624L359.125 28.315624L358.32812 30.55L357.17188 30.55L360.42188 22.01875L361.40625 22.01875L364.67188 30.55L363.51562 30.55L362.70312 28.315624ZM359.46875 27.39375L362.375 27.39375L360.92188 23.409374L359.46875 27.39375ZM365.5625 27.33125Q365.5625 25.8625 366.25 24.9875Q366.9375 24.096874 368.0625 24.096874Q369.17188 24.096874 369.82812 24.846874L369.82812 21.55L370.90625 21.55L370.90625 30.55L369.90625 30.55L369.85938 29.8625Q369.20312 30.675 368.04688 30.675Q366.95312 30.675 366.25 29.76875Q365.5625 28.8625 365.5625 27.409374L365.5625 27.33125ZM366.64062 27.45625Q366.64062 28.534374 367.07812 29.14375Q367.53125 29.753124 368.3125 29.753124Q369.34375 29.753124 369.82812 28.815624L369.82812 25.909374Q369.34375 25.01875 368.32812 25.01875Q367.53125 25.01875 367.07812 25.628124Q366.64062 26.2375 366.64062 27.45625ZM374.90625 29.08125L376.48438 24.20625L377.59375 24.20625L375.3125 30.55L374.48438 30.55L372.1875 24.20625L373.29688 24.20625L374.90625 29.08125ZM382.73438 30.55Q382.64062 30.3625 382.57812 29.878124Q381.82812 30.675 380.78125 30.675Q379.84375 30.675 379.23438 30.14375Q378.64062 29.6125 378.64062 28.784374Q378.64062 27.8 379.39062 27.253124Q380.14062 26.70625 381.51562 26.70625L382.5625 26.70625L382.5625 26.20625Q382.5625 25.64375 382.21875 25.315624Q381.89062 24.971874 381.21875 24.971874Q380.64062 24.971874 380.25 25.26875Q379.85938 25.55 379.85938 25.971874L378.76562 25.971874Q378.76562 25.4875 379.09375 25.05Q379.4375 24.6125 380.01562 24.3625Q380.59375 24.096874 381.28125 24.096874Q382.39062 24.096874 383.0 24.64375Q383.625 25.190624 383.65625 26.14375L383.65625 29.065624Q383.65625 29.940624 383.875 30.45625L383.875 30.55L382.73438 30.55ZM380.9375 29.721874Q381.45312 29.721874 381.90625 29.45625Q382.35938 29.190624 382.5625 28.76875L382.5625 27.471874L381.71875 27.471874Q379.71875 27.471874 379.71875 28.64375Q379.71875 29.14375 380.0625 29.440624Q380.40625 29.721874 380.9375 29.721874ZM386.84375 24.20625L386.875 25.003124Q387.60938 24.096874 388.78125 24.096874Q390.79688 24.096874 390.8125 26.3625L390.8125 30.55L389.71875 30.55L389.71875 26.346874Q389.71875 25.675 389.40625 25.346874Q389.10938 25.01875 388.45312 25.01875Q387.92188 25.01875 387.51562 25.3Q387.125 25.58125 386.90625 26.034374L386.90625 30.55L385.82812 30.55L385.82812 24.20625L386.84375 24.20625ZM395.35938 29.784374Q395.9375 29.784374 396.375 29.440624Q396.8125 29.08125 396.85938 28.55L397.89062 28.55Q397.85938 29.096874 397.5 29.596874Q397.15625 30.08125 396.57812 30.378124Q396.01562 30.675 395.35938 30.675Q394.0625 30.675 393.29688 29.815624Q392.54688 28.940624 392.54688 27.440624L392.54688 27.253124Q392.54688 26.33125 392.875 25.6125Q393.21875 24.89375 393.84375 24.503124Q394.48438 24.096874 395.35938 24.096874Q396.42188 24.096874 397.125 24.7375Q397.84375 25.3625 397.89062 26.39375L396.85938 26.39375Q396.8125 25.76875 396.39062 25.378124Q395.96875 24.9875 395.35938 24.9875Q394.53125 24.9875 394.07812 25.58125Q393.625 26.175 393.625 27.3L393.625 27.503124Q393.625 28.596874 394.07812 29.190624Q394.53125 29.784374 395.35938 29.784374ZM401.45312 30.675Q400.15625 30.675 399.34375 29.83125Q398.54688 28.971874 398.54688 27.55L398.54688 27.3625Q398.54688 26.409374 398.90625 25.675Q399.26562 24.925 399.90625 24.51875Q400.5625 24.096874 401.3125 24.096874Q402.54688 24.096874 403.23438 24.909374Q403.92188 25.721874 403.92188 27.2375L403.92188 27.690624L399.625 27.690624Q399.65625 28.628124 400.17188 29.20625Q400.70312 29.784374 401.51562 29.784374Q402.07812 29.784374 402.46875 29.55Q402.875 29.315624 403.1875 28.925L403.84375 29.440624Q403.04688 30.675 401.45312 30.675ZM401.3125 24.9875Q400.65625 24.9875 400.20312 25.471874Q399.76562 25.940624 399.67188 26.8L402.84375 26.8L402.84375 26.721874Q402.79688 25.89375 402.39062 25.440624Q402.0 24.9875 401.3125 24.9875ZM404.5625 27.33125Q404.5625 25.8625 405.25 24.9875Q405.9375 24.096874 407.0625 24.096874Q408.17188 24.096874 408.82812 24.846874L408.82812 21.55L409.90625 21.55L409.90625 30.55L408.90625 30.55L408.85938 29.8625Q408.20312 30.675 407.04688 30.675Q405.95312 30.675 405.25 29.76875Q404.5625 28.8625 404.5625 27.409374L404.5625 27.33125ZM405.64062 27.45625Q405.64062 28.534374 406.07812 29.14375Q406.53125 29.753124 407.3125 29.753124Q408.34375 29.753124 408.82812 28.815624L408.82812 25.909374Q408.34375 25.01875 407.32812 25.01875Q406.53125 25.01875 406.07812 25.628124Q405.64062 26.2375 405.64062 27.45625Z" fill-rule="nonzero"/></svg>