<?xml version="1.0" encoding="utf-8"?>
<!-- Generator: Adobe Illustrator 23.0.4, SVG Export Plug-In . SVG Version: 6.00 Build 0)  -->
<svg version="1.1" id="Layer_1" xmlns="http://www.w3.org/2000/svg" xmlns:xlink="http://www.w3.org/1999/xlink" x="0px" y="0px"
	 viewBox="0 0 792 500" style="enable-background:new 0 0 792 500;" xml:space="preserve">
<style type="text/css">
	.st0{fill:#FFFFFF;}
	.st1{fill:#0F0F0F;}
</style>
<title>-wht</title>
<path id="Fill-14" class="st0" d="M56.8,333.4c-27,0-44.9-11.9-56.8-26l24-26.8C34,291.5,43.6,298,55.8,298
	c14.4,0,23.3-8.7,23.3-28.8V157.4h39.2V271C118.2,313.1,93.5,333.5,56.8,333.4"/>
<path id="Fill-16" class="st0" d="M304.3,244.2c0-29.7-21.8-54.5-52.6-54.5s-52.1,24.3-52.1,54v0.5c0,29.7,21.8,54.5,52.6,54.5
	s52.1-24.3,52.1-54V244.2L304.3,244.2z M251.7,333.9c-53.6,0-92-39.9-92-89.3v-0.5c0-49.3,38.9-89.7,92.5-89.7s92,39.9,92,89.3v0.5
	C344.2,293.5,305.3,333.9,251.7,333.9L251.7,333.9z"/>
<path id="Fill-17" class="st0" d="M385.5,157.3l38.2,0.1L423.1,331l-38.2-0.1L385.5,157.3z"/>
<path id="Fill-18" class="st0" d="M539.8,333.4c-27.1,0.1-53.3-9.8-73.6-27.8l22.6-27c15.6,12.9,32,21.1,51.8,21.1
	c15.6,0,25-6.2,25-16.4v-0.5c0-9.7-6-14.6-35-22.1c-35-8.9-57.5-18.6-57.5-53v-0.5c0-31.5,25.3-52.3,60.7-52.3
	c25.3,0,46.8,7.9,64.5,22.1l-5.7,8.3l-14.1,20.4c-2-1.4-4-2.7-5.9-3.9c-13.3-8.3-26.4-13.2-39.2-13.2c-14.6,0-22.3,6.7-22.3,15.1
	v0.5c0,11.4,7.4,15.1,37.4,22.8c35.2,9.2,55,21.8,55,52.1v0.5C603.5,314.2,577.3,333.5,539.8,333.4"/>
<path id="Fill-19" class="st0" d="M718.6,330.9h-38.2V192.6h-52.8v-35.2h90.8L718.6,330.9"/>
<path id="Fill-20-Copy-3" class="st1" d="M785,159.7l-51.6,31.6v-33.9l51.6-31.6V159.7"/>
<path id="Fill-21-Copy-3" class="st0" d="M733.4,93.5v33.9l21.4,11.2l25.8-16.3L733.4,93.5z"/>
</svg>
