<?xml version="1.0" encoding="utf-8"?>
<!-- Generator: Adobe Illustrator 19.0.0, SVG Export Plug-In . SVG Version: 6.00 Build 0)  -->
<svg version="1.1" id="Layer_1" xmlns="http://www.w3.org/2000/svg" xmlns:xlink="http://www.w3.org/1999/xlink" x="0px" y="0px"
	 viewBox="0 0 100 100" style="enable-background:new 0 0 100 100;" xml:space="preserve">
<style type="text/css">
	.st0{fill:#182228;}
	.st1{fill:#7A1A11;}
	.st2{fill:#BC904A;}
	.st3{fill:#414B50;}
</style>
<g id="XMLID_488_">
	<circle id="XMLID_25_" class="st0" cx="49.9" cy="50.1" r="32.7"/>
</g>
<g id="XMLID_494_">
	<path id="XMLID_21_" class="st1" d="M70.8,50.1c0-11.6-9.4-20.9-20.9-20.9s-20.9,9.4-20.9,20.9c0,8.3,4.8,15.4,11.7,18.8l-4.9,10
		c0,0,11.6,6.7,26.5,0.3l0.4-0.2l-4.5-9.8C65.6,66.1,70.8,58.7,70.8,50.1z"/>
</g>
<g id="XMLID_1379_">
	<g id="XMLID_1395_">
		<path id="XMLID_22_" class="st2" d="M63.6,61.4H34.4l-0.6-0.7l0.4-9.5l0.3-0.5l-7.1-4l0.4-1.2c0.2,0,17.7,1.4,29,0.7
			c11.3-0.7,15.4-0.7,15.5-0.7l0.3,1.2l-8.1,4v10L63.6,61.4z M35,60.1h28v-9.8l0.4-0.6l5.8-2.9c-2.4,0.1-6.4,0.3-12.5,0.6
			C48.1,48,35.9,47.4,30.4,47l5,2.8l0.3,0.6v0.5l-0.2,0.5l-0.2,0.2L35,60.1z"/>
	</g>
	<g id="XMLID_1394_">
		<path id="XMLID_1_" class="st2" d="M72.1,46.1v-1.4h-1V44c0,0,0,0-1.3,0.2c-1.3,0.2-11.1-1.5-11.1-1.5l-1-0.5v-0.6
			c-0.3-1.5-1.4-1.5-1.4-1.5v0.3l-1.2,0.5c0,0,0.8-0.2,1.1,0.2c0.3,0.4-0.6,0.8-0.6,0.8s-4.1,0.1-5.9,0.2c-1.8,0.1-6.7-0.1-6.8-0.5
			s1-0.9,1-0.9l-1-0.4l-0.4-0.3c-1.5,0.2-1.3,2.2-1.3,2.2c-3.4,1.1-13.5,1.6-13.5,1.6l0.4,0.8h-1.5l1,1.4
			C27.6,46.1,60.4,47.4,72.1,46.1z"/>
		<path id="XMLID_18_" class="st2" d="M55.3,47.3c-13.1,0-27.6-0.5-27.8-0.5L27,46.5l-1-1.4l0.5-1h0.5l0.5-0.8
			c0.1,0,9.2-0.5,12.9-1.5c0-0.9,0.5-2.2,1.8-2.4l0.5,0.1l0.3,0.3l0.9,0.3l0,1.2c1.4,0.2,4.1,0.3,5.6,0.2c1.4-0.1,4.4-0.2,5.5-0.2
			l-0.4-1l1-0.4l0.5-0.5c0.6,0,1.7,0.4,2.1,2l0,0.3l0.6,0.3c3.7,0.7,9.9,1.7,10.8,1.5l1.3-0.2l0.7,0.6v0.2h0.4l0.6,0.6v1.4l-0.6,0.6
			C68.2,47.2,62,47.3,55.3,47.3z M27.9,45.5c3.3,0.1,32.2,1.1,43.5,0v-0.1H71l-0.6-0.7l-0.6,0.1c-1.4,0.2-9.7-1.3-11.3-1.6l-0.2,0
			l-1-0.5l-0.4-0.6v-0.6c0-0.2-0.1-0.3-0.2-0.4c0,0.1,0,0.3,0,0.5c-0.2,0.6-0.8,0.9-1,0.9l-0.2,0c0,0-4.1,0.1-5.9,0.2
			c-0.7,0-7.2,0.3-7.5-1c-0.1-0.3,0-0.6,0.2-0.9l-0.2-0.1c-0.6,0.3-0.5,1.5-0.5,1.5l-0.4,0.7c-2.8,0.9-10.1,1.4-12.7,1.6L28,45.4
			L27.9,45.5L27.9,45.5z"/>
	</g>
	<g id="XMLID_1393_">
		<path id="XMLID_17_" class="st2" d="M43.8,61.4c-0.4,0-0.6-0.3-0.6-0.6v-9.9l-1.9-3.7c-0.2-0.3,0-0.7,0.3-0.9
			c0.3-0.2,0.7,0,0.9,0.3l2,3.9l0.1,0.3v10.1C44.4,61.1,44.1,61.4,43.8,61.4z"/>
	</g>
	<g id="XMLID_1392_">
		<path id="XMLID_16_" class="st2" d="M42.7,61.4c-0.4,0-0.6-0.3-0.6-0.6v-9.8l-3.7-3.7c-0.3-0.2-0.3-0.7,0-0.9
			c0.3-0.2,0.7-0.3,0.9,0l3.9,3.9l0.2,0.5v10.1C43.3,61.1,43,61.4,42.7,61.4z"/>
	</g>
	<g id="XMLID_1391_">
		<path id="XMLID_15_" class="st2" d="M55.1,61.4c-0.4,0-0.6-0.3-0.6-0.6V50.7l0.2-0.5l3.9-3.9c0.3-0.2,0.7-0.2,0.9,0
			c0.2,0.3,0.2,0.7,0,0.9l-3.7,3.7v9.8C55.7,61.1,55.5,61.4,55.1,61.4z"/>
	</g>
	<g id="XMLID_1390_">
		<path id="XMLID_14_" class="st2" d="M54,61.4c-0.4,0-0.6-0.3-0.6-0.6l0-10.3l1.1-3.7c0.1-0.3,0.5-0.5,0.8-0.4
			c0.3,0.1,0.5,0.5,0.4,0.8l-1.1,3.6v10C54.7,61.1,54.4,61.4,54,61.4z"/>
	</g>
	<g id="XMLID_1389_">
		<path id="XMLID_13_" class="st2" d="M42.7,51.9h-8c-0.4,0-0.6-0.3-0.6-0.6s0.3-0.6,0.6-0.6h8c0.4,0,0.6,0.3,0.6,0.6
			S43,51.9,42.7,51.9z"/>
	</g>
	<g id="XMLID_1387_">
		<path id="XMLID_12_" class="st2" d="M54,51.9H43.8c-0.4,0-0.6-0.3-0.6-0.6s0.3-0.6,0.6-0.6H54c0.4,0,0.6,0.3,0.6,0.6
			S54.4,51.9,54,51.9z"/>
	</g>
	<g id="XMLID_1386_">
		<path id="XMLID_11_" class="st2" d="M63.6,51.9h-8.5c-0.4,0-0.6-0.3-0.6-0.6s0.3-0.6,0.6-0.6h8.5c0.4,0,0.6,0.3,0.6,0.6
			S64,51.9,63.6,51.9z"/>
	</g>
	<g id="XMLID_1385_">
		<path id="XMLID_10_" class="st2" d="M35.7,80.2c-0.1,0-0.2,0-0.3-0.1c-0.3-0.1-0.5-0.5-0.3-0.8l8.6-18.9c0.1-0.3,0.5-0.5,0.8-0.3
			c0.3,0.1,0.5,0.5,0.3,0.8l-8.6,18.9C36.2,80.1,36,80.2,35.7,80.2z"/>
	</g>
	<g id="XMLID_1384_">
		<path id="XMLID_9_" class="st2" d="M62.9,80.2c-0.2,0-0.5-0.1-0.6-0.4L53.7,61c-0.1-0.3,0-0.7,0.3-0.8c0.3-0.1,0.7,0,0.8,0.3
			l8.6,18.9c0.1,0.3,0,0.7-0.3,0.8C63.1,80.2,63,80.2,62.9,80.2z"/>
	</g>
	<g id="XMLID_1383_">
		<path id="XMLID_8_" class="st2" d="M55.9,65.6H42.7c-0.4,0-0.6-0.3-0.6-0.6s0.3-0.6,0.6-0.6h13.2c0.4,0,0.6,0.3,0.6,0.6
			S56.3,65.6,55.9,65.6z"/>
	</g>
	<g id="XMLID_1382_">
		<path id="XMLID_7_" class="st2" d="M49.4,69.9c-3.7,0-8.1-0.5-8.1-0.5c-0.4,0-0.6-0.4-0.6-0.7c0-0.4,0.4-0.6,0.7-0.6
			c0,0,4.3,0.5,8,0.5c3.6,0,8.1-0.5,8.1-0.5c0.4,0,0.7,0.2,0.7,0.6c0,0.4-0.2,0.7-0.6,0.7C57.6,69.4,53.1,69.9,49.4,69.9z"/>
	</g>
	<g id="XMLID_1381_">
		<path id="XMLID_6_" class="st2" d="M49.4,74.2c-6.1,0-10.3-1.2-10.5-1.3c-0.3-0.1-0.5-0.5-0.4-0.8c0.1-0.3,0.5-0.5,0.8-0.4
			c0,0,4.2,1.2,10.1,1.2c5.5,0,9.9-1.2,10-1.2c0.3-0.1,0.7,0.1,0.8,0.4c0.1,0.3-0.1,0.7-0.4,0.8C59.5,72.9,55,74.2,49.4,74.2z"/>
	</g>
	<g id="XMLID_1380_">
		<path id="XMLID_5_" class="st2" d="M49.4,78.8c-6.1,0-11.5-2.2-11.7-2.3c-0.3-0.1-0.5-0.5-0.3-0.8c0.1-0.3,0.5-0.5,0.8-0.3
			c0.1,0,5.3,2.2,11.2,2.2c6.1,0,11.5-1.7,11.6-1.7c0.3-0.1,0.7,0.1,0.8,0.4c0.1,0.3-0.1,0.7-0.4,0.8C61.1,77.1,55.7,78.8,49.4,78.8
			z"/>
	</g>
</g>
<g id="XMLID_892_">
	<path id="XMLID_2_" class="st3" d="M49.5,83.7c-18.5,0-33.6-15.1-33.6-33.6s15.1-33.6,33.6-33.6c18.5,0,33.6,15.1,33.6,33.6
		S68,83.7,49.5,83.7z M49.5,18.2c-17.6,0-31.8,14.3-31.8,31.8c0,17.6,14.3,31.8,31.8,31.8s31.8-14.3,31.8-31.8
		C81.3,32.5,67,18.2,49.5,18.2z"/>
</g>
</svg>
