<?xml version="1.0" encoding="utf-8"?>
<!-- Generator: Adobe Illustrator 19.0.0, SVG Export Plug-In . SVG Version: 6.00 Build 0)  -->
<svg version="1.1" id="Layer_1" xmlns="http://www.w3.org/2000/svg" xmlns:xlink="http://www.w3.org/1999/xlink" x="0px" y="0px"
	 viewBox="-24 -48 352 197" style="enable-background:new -24 -48 352 197;" xml:space="preserve">
<style type="text/css">
	.st0{fill:#9F1D20;}
	.st1{fill:url(#XMLID_2_);}
	.st2{fill:url(#XMLID_3_);}
	.st3{fill:url(#XMLID_4_);}
	.st4{fill:url(#XMLID_5_);}
	.st5{fill:url(#XMLID_6_);}
	.st6{fill:url(#XMLID_7_);}
	.st7{fill:url(#XMLID_8_);}
	.st8{fill:url(#XMLID_9_);}
	.st9{fill:url(#XMLID_10_);}
	.st10{fill:url(#XMLID_11_);}
	.st11{fill:url(#XMLID_12_);}
	.st12{fill:url(#XMLID_13_);}
	.st13{fill:url(#XMLID_14_);}
	.st14{fill:url(#XMLID_15_);}
	.st15{fill:url(#XMLID_16_);}
	.st16{fill:url(#XMLID_17_);}
	.st17{fill:url(#XMLID_18_);}
	.st18{fill:url(#XMLID_19_);}
	.st19{fill:url(#XMLID_20_);}
	.st20{fill:url(#XMLID_21_);}
	.st21{fill:url(#XMLID_22_);}
	.st22{fill:url(#XMLID_23_);}
	.st23{fill:url(#XMLID_24_);}
	.st24{fill:url(#XMLID_25_);}
	.st25{fill:url(#XMLID_26_);}
	.st26{fill:url(#XMLID_27_);}
	.st27{fill:url(#XMLID_28_);}
	.st28{fill:url(#XMLID_29_);}
	.st29{fill:url(#XMLID_30_);}
	.st30{fill:url(#XMLID_31_);}
	.st31{fill:url(#XMLID_32_);}
	.st32{fill:url(#XMLID_33_);}
	.st33{fill:url(#XMLID_34_);}
</style>
<g id="XMLID_252_">
	<path id="XMLID_356_" class="st0" d="M117.5-3.4C117.4-3.4,117.5-3.3,117.5-3.4c0.1,0,0.2-0.1,0.3-0.2
		C117.6-3.6,117.5-3.4,117.5-3.4z"/>
	<path id="XMLID_355_" class="st0" d="M119.1-7.1c-0.2,0.5-0.5,1-0.8,1.4c-0.3,0.3-0.5,0.7-0.8,1.1c-0.1,0.1-0.2,0.1-0.3,0.2
		c-0.1,0.3-0.4,0.5-0.6,0.7c-0.1,0.1-0.2,0.2-0.2,0.3c0.1-0.1,0.2,0,0.2,0.1c0.1,0.1,0.1,0.1,0.2,0c0.1-0.1,0.2-0.1,0.2-0.2
		c0.1-0.1,0.3-0.2,0.4-0.3c0.2,0,0.3-0.2,0.3-0.3v-0.1h-0.1c-0.1,0-0.1,0.1-0.2,0.2c0.3-0.3,0.4-0.7,0.5-1.1
		c0.1-0.3,0.4-0.6,0.6-0.9c0.1-0.2,0.3-0.4,0.4-0.6c0.1-0.2,0.2-0.4,0.2-0.7C119.2-7.2,119.1-7.1,119.1-7.1z"/>
	<path id="XMLID_354_" class="st0" d="M120.5-12.3c0-0.1,0-0.2,0-0.3c0-0.3,0-0.6-0.1-0.9c0-0.1-0.1-0.2-0.2-0.2
		c-0.1,0-0.1,0.1-0.1,0.2c0,0.3,0,0.7,0,1c0,0.6-0.1,1.2,0,1.8c0,0.3-0.1,0.6-0.2,0.9c-0.1,0.3-0.1,0.5-0.2,0.8c0,0.1,0,0.2,0.1,0.2
		l0.1-0.1c0.1-0.2,0.1-0.5,0.2-0.7c0.1-0.4,0.1-0.8,0.4-1.1c0,0,0,0,0-0.1C120.5-11.3,120.7-11.8,120.5-12.3z"/>
	<path id="XMLID_353_" class="st0" d="M116.8-4.6c-0.1,0.1-0.2,0.2-0.2,0.3c-0.1,0.1-0.1,0.2,0,0.3s0.2,0,0.3-0.1
		c0.2-0.1,0.2-0.4,0.3-0.5c0.3-0.2,0.3-0.5,0.5-0.7c0.1-0.1,0-0.1,0-0.2c-0.2-0.2-0.1-0.4,0.1-0.4c0.1,0,0.2,0,0.2-0.1
		c0.1,0,0.2-0.1,0-0.2c-0.1,0,0,0,0-0.1c0-0.2,0.2-0.3,0.3-0.6c0-0.1,0.1-0.2,0-0.3c-0.1,0-0.1,0.1-0.2,0.2
		c-0.4,0.6-0.7,1.3-1.2,1.8c0,0-0.1,0.1,0,0.1C116.9-4.7,116.9-4.6,116.8-4.6z"/>
	<path id="XMLID_352_" class="st0" d="M121.2-13.2c0,0,0-0.1-0.1-0.1c-0.3,0-0.5,0.2-0.4,0.6c0.1,0.3,0.2,0.5,0.3,0.8
		c0.1-0.2,0.2-0.5,0.2-0.7C121.3-12.8,121.3-13,121.2-13.2z"/>
	<path id="XMLID_351_" class="st0" d="M119.6-11.3c0,0.1,0,0.2,0,0.3s-0.1,0.2,0,0.3c0.2-0.1,0.2-0.7,0.1-0.9
		C119.6-11.5,119.6-11.4,119.6-11.3z"/>
	<path id="XMLID_350_" class="st0" d="M119.8-13.3C119.8-13.3,119.7-13.4,119.8-13.3c-0.1,0-0.1,0-0.1,0.1c0,0.2,0,0.3,0,0.5
		c0,0-0.1,0.1,0.1,0.1c0.1,0,0.1-0.1,0.1-0.2C119.8-12.9,119.8-13.1,119.8-13.3L119.8-13.3z"/>
	<path id="XMLID_349_" class="st0" d="M120.2-14.8C120.2-14.8,120.1-14.9,120.2-14.8c-0.1,0-0.1,0-0.1,0c0,0.2,0.1,0.4,0.1,0.6
		C120.3-14.4,120.3-14.6,120.2-14.8z"/>
	<path id="XMLID_348_" class="st0" d="M119.7-15.3c-0.1-0.2,0-0.3-0.2-0.5C119.5-15.4,119.5-15.4,119.7-15.3z"/>
	<path id="XMLID_347_" class="st0" d="M119.7-14.6c0-0.1-0.1-0.2-0.1-0.3h-0.1c0,0.1,0,0.1,0,0.2C119.5-14.7,119.5-14.6,119.7-14.6
		C119.6-14.6,119.7-14.6,119.7-14.6z"/>
	<path id="XMLID_346_" class="st0" d="M111.3-1.2h0.1c0.1-0.1,0-0.1,0-0.2h-0.1C111.3-1.3,111.3-1.2,111.3-1.2z"/>
	<polygon id="XMLID_268_" class="st0" points="111.5,-1.4 111.5,-1.4 111.5,-1.4 111.5,-1.4 	"/>
	<path id="XMLID_267_" class="st0" d="M117.2-9.8c0,0-0.1-0.1-0.2-0.1c-0.1,0-0.1,0.1-0.1,0.2c0,0.1,0,0.1,0,0.2
		c0,0.1,0,0.2,0.1,0.2s0.1,0,0.1-0.1s0-0.1,0.1-0.2C117.3-9.6,117.3-9.7,117.2-9.8z"/>
	<path id="XMLID_266_" class="st0" d="M118.1-10.7c0,0.1-0.1,0.2,0,0.2c0,0,0.1,0.1,0.1,0c0.1-0.1,0.1-0.2,0-0.3
		C118.1-10.7,118.1-10.7,118.1-10.7z"/>
	<path id="XMLID_265_" class="st0" d="M117.2-10.2C117.2-10.2,117.1-10.1,117.2-10.2c0,0.1,0.1,0.2,0.1,0.1v-0.1
		C117.3-10.3,117.2-10.3,117.2-10.2z"/>
	<path id="XMLID_253_" class="st0" d="M120.8-16.5c-0.1-0.2-0.2-0.4-0.3-0.7c-0.1-0.2-0.2-0.4-0.2-0.6c0-0.1,0-0.1-0.1-0.1
		c-0.3-0.4-0.5-0.8-0.7-1.2c-0.1-0.2-0.2-0.4-0.4-0.6c-0.1-0.1-0.1-0.1,0-0.2s0-0.1-0.1-0.2c-0.5-0.4-0.9-0.8-1.3-1.2
		c0.2,0,0.3,0.1,0.4,0.2c0.1-0.1,0-0.2,0-0.2c-0.5-0.5-1-1-1.6-1.6l0,0c-0.5-0.3-0.9-0.7-1.5-0.9l0,0c-0.1-0.1-0.3-0.2-0.4-0.2
		c-0.3-0.1-0.6-0.2-0.9-0.3c-0.7-0.3-1.5-0.4-2.3-0.5s-1.6,0-2.3,0c-0.4,0-0.8,0.1-1.3,0c-0.2,0-0.4-0.1-0.5,0
		c-0.5,0.1-1,0.2-1.4,0.3c-0.5,0.1-1.1,0.2-1.5,0.5s-0.6,0.7-0.9,1c-0.4,0.4-0.7,0.9-0.7,1.5c0,0.1,0,0.2,0,0.3
		c0.1,0.1,0.1,0.2,0.1,0.4c0,0.2,0,0.3,0.1,0.5l-0.4,0.3c0,0,0.4-0.4,0-0.3s-0.7,0.8-0.8,1c0-0.1,0.1-0.2-0.2-0.2
		c-0.4,0.1-0.8,0.9-1.1,1.5c-0.3,0.6-0.6,1.3-0.6,1.3c0-0.2,0.1-0.4,0.1-0.6c0.1-0.2,0.1-0.5,0.1-0.8c0-0.2,0.1-0.4,0.1-0.5
		s0.1-0.2,0-0.3c-0.1-0.1-0.2,0.1-0.2,0.1l0,0c0,0.2-0.3,0.3-0.2,0.5c0,0,0,0.1-0.1,0.1c-0.1,0.1-0.1,0.2-0.2,0.2
		c-0.1,0.1-0.2,0.2-0.2,0.3c0,0.1,0,0.2-0.1,0.2c0,0-0.1,0.1-0.1,0v-0.1c0-0.1,0.1-0.2,0.1-0.2c0-0.1,0.1-0.2,0-0.2
		s-0.1,0.1-0.1,0.2c-0.4,0.6-0.5,1.3-0.7,2c-0.1,0.2-0.2,0.5-0.1,0.7c0,0.1,0,0.2-0.2,0.2c-0.1,0-0.2-0.1-0.2-0.2
		c0-0.4,0.1-0.7,0.1-1c0-0.2,0.1-0.3,0.2-0.5l0.1-0.1c0-0.4,0.1-0.7,0.3-1.1c0.1-0.2,0.1-0.4,0.1-0.6c-0.1-0.1-0.1-0.3,0.1-0.3
		c0.1,0,0.1,0,0-0.1v-0.1c0.2-0.1,0.1-0.4,0.3-0.5c0,0,0-0.1,0-0.2c-0.1,0-0.1,0-0.1,0.1c-0.1,0.1-0.3,0.2-0.4,0.4
		c-0.3,0.4-0.6,0.8-0.7,1.3c0,0.2-0.1,0.3-0.2,0.4s-0.2,0.3-0.2,0.4c0,0.2-0.1,0.4-0.2,0.5s-0.2,0.2-0.1,0.4v0.1
		c-0.1,0.2-0.3,0.4-0.1,0.6c0,0.1,0,0.1,0,0.2c-0.2,0.3-0.2,0.7-0.2,1c0,0.1,0,0.1,0,0.2c-0.1,0.2-0.1,0.4-0.1,0.6
		c0,0.2,0,0.3-0.1,0.5c0,0.1,0,0.1,0,0.2c0.1,0.1,0.2,0.2,0.2,0.4c0,0.6,0.1,1.2,0.2,1.8c0,0.3,0.2,0.6,0.2,0.9c0,0,0,0.1,0.1,0.1
		c0.1,0.2,0.2,0.3,0.2,0.5c0.1,0.3,0.2,0.6,0.3,0.9c0.3,0.7,0.8,1.2,1.1,1.9c0.2,0.3,0.4,0.6,0.6,0.9c-0.1,0-0.1-0.1-0.2,0
		c0.5,0.5,0.9,0.9,1.4,1.4c0.3,0.2,0.6,0.4,0.9,0.6c0.3,0.3,0.7,0.6,1.2,0.9l-0.1,0.1v0.1h0.1c0.1-0.2,0.2,0,0.3,0.1
		c0,0.1-0.2,0-0.1,0.1c0,0.1,0.1,0.1,0.1,0.2c0.1,0,0.1,0,0.2-0.1c0,0,0-0.1,0.1,0c0,0,0.1,0.1,0,0.1c-0.1,0.1,0,0.1,0.1,0.2
		c0.1,0.1,0.1,0,0.2,0c0.1-0.1,0.1-0.1,0.2,0c0.9,0.6,1.8,0.8,2.8,1.1c0.2,0.1,0.5,0.2,0.8,0.2c0.1,0,0.2,0,0.4,0.1s0.4,0.1,0.7,0.1
		c0.1,0,0.2,0,0.2,0h0.1c0.1-0.2,0.3,0,0.4,0c0.2,0,0.3-0.1,0.5,0.1h0.1c0.1-0.1,0.2,0,0.3-0.1c0.3-0.1,0.6-0.2,0.8-0.2
		c0.1,0,0.1-0.1,0.1-0.1c0-0.1,0.1-0.1,0.2-0.1c0.2,0,0.2,0,0.2-0.1v-0.1c0.1-0.1,0-0.3,0.2-0.3c0.1,0,0.2-0.1,0.1,0.1
		c0,0,0,0,0,0.1c0.1,0,0.3,0,0.2-0.2c0-0.1,0.1-0.2,0.2-0.2c0.2-0.1,0.4-0.1,0.5-0.2c0.2,0,0.4-0.1,0.3-0.3c0-0.1-0.2-0.1-0.4-0.1
		s-0.4,0.1-0.7,0.1c-0.3,0.1-0.7,0.1-1,0.3h-0.1c-0.1-0.2-0.3-0.1-0.4-0.1h-0.1c-0.4-0.1-0.8,0-1.2,0h-0.1c0.1-0.1,0.3-0.1,0.4-0.1
		c0.5,0,0.9-0.1,1.3-0.1c0.4,0,0.7-0.1,1-0.2c0.8-0.2,1.5-0.5,2.3-0.8c1.1-0.5,2-1.2,2.9-2c0.2-0.1,0.3-0.3,0.5-0.5
		c0,0.2-0.3,0.3-0.3,0.4c0.3-0.1,0.4-0.3,0.4-0.6c0-0.1,0-0.1,0.1-0.1c0.1-0.1,0.2-0.3,0.4-0.5c0.1-0.1,0.2-0.3,0.1-0.5
		c0-0.1,0-0.2,0.1-0.2c0-0.1,0.2-0.2,0-0.3c0.1-0.1,0-0.3,0.1-0.4c0.2-0.3,0.3-0.7,0.5-1.1c0.1-0.2,0.2-0.5,0.3-0.7
		c0.1-0.1,0.1-0.3,0.1-0.4c0-0.2,0.1-0.4,0.3-0.6c0.1-0.2,0.1-0.4,0.1-0.6v-0.1c0.1-0.3,0.1-0.6,0.2-1c0.1-0.3,0-0.6-0.1-0.8
		c-0.1-0.3-0.1-0.5,0-0.8v-0.1c-0.2-0.2,0-0.4-0.1-0.7c0-0.1-0.1-0.3-0.1-0.4c0-0.1-0.1-0.2,0-0.3s0.1-0.2,0-0.4
		c-0.1-0.1-0.2-0.2-0.2-0.4c0-0.1-0.1-0.2,0-0.2c0.1-0.1,0.1,0.1,0.2,0.1c0.1,0.1,0.2,0.2,0.2,0.3c0,0,0,0.1,0.1,0.1s0.1-0.1,0-0.1
		c0-0.1-0.1-0.2-0.1-0.3c0,0-0.1-0.1,0-0.1s0.1,0.1,0.1,0.1c0,0.1,0,0.1,0,0.2c0.1,0.2,0.2,0.3,0.4,0.1l0.1-0.1
		c0.1,0.1,0.2,0,0.2-0.1c0.1,0.2,0.2,0.3,0.3,0.4c0.1,0.1,0.1,0.1,0.2,0C120.9-16.1,120.9-16.3,120.8-16.5z M110.5-1.2
		c0.1-0.1,0.2-0.1,0.3,0C110.7-1.1,110.6-1.1,110.5-1.2C110.5-1.1,110.5-1.2,110.5-1.2z M106-11c-1.3,0.3-2.1,0.5-2.4,0.7
		c-0.4,0.1-0.8,0.3-1.1,0.5c-0.2,0.1-0.4,0.1-0.5-0.1c-0.1-0.2-0.2-0.5-0.3-0.8c-0.1-0.3,0-0.5,0.5-0.4c0.9-0.1,1.6-0.3,2-0.4
		c0.4-0.1,0.8-0.3,1.3-0.4c0.5-0.1,1.1-0.3,1.8-0.4c0.6-0.1,1.1-0.2,1.6-0.3c0.3-0.1,0.5,0.2,0.7,0.8s0.1,0.9-0.2,0.7
		C108.8-11.4,107.7-11.3,106-11z M112.2-3.2c-0.1,0.1-0.2,0-0.2,0h-0.1c0-0.1,0-0.1,0.1-0.1C112-3.3,112.1-3.3,112.2-3.2
		C112.2-3.3,112.2-3.2,112.2-3.2z M113.6-13.7c-0.1,0.2-0.4,0.6-0.6,1.3c-0.2,0.7-0.6,1.5-0.9,2.5c-0.4,1-0.9,2.1-1.5,3.5
		c-0.2,0.4-0.3,0.4-0.5,0.2c-0.1-0.2-0.5-0.5-1-0.8s-1.1-1-1.8-1.8c-0.4-0.5-0.2-0.6,0.4-0.2c0.8,0.6,1.4,0.8,2,0.7
		c0.3-0.1,0.7-0.9,1.3-2.5s0.7-2.5,0.4-2.9c-0.7-0.6-1.9-0.7-3.4-0.5s-2.6,0.5-3.1,0.7c-0.2,0.3-0.4,0.3-0.6,0.1
		c-0.2-0.8-0.1-1.8,0.3-2.9c0.4-1.2,0.6-2.2,0.7-3c0-0.5,0.1-0.8,0.4-0.7c0.2,0,0.4,0.1,0.7,0.2c0.2,0.1,0.3,0.3,0.2,0.6
		c-0.1,0.3-0.3,0.8-0.5,1.3c0,0,0,0,0,0.1c0.2,0.1,0.4,0.2,0.5,0.1c1.5-0.3,2.7-0.7,3.7-1.3c0.2-0.1,0.4-0.1,0.5,0s0.3,0.3,0.5,0.4
		c0.1,0.1,0.3,0.3,0.3,0.6c0,0.3-0.1,0.4-0.3,0.4c-0.3,0-1.3,0.2-2.8,0.6c-1.4,0.4-2.4,0.8-3,1c-0.2,0.9-0.2,1.4-0.1,1.4
		c0.1,0.2,0.6,0.2,1.5-0.1c0.9-0.2,1.8-0.4,3-0.5c1.1-0.1,1.8-0.1,2.2,0c0.3,0.2,0.6,0.4,1.1,0.8C113.8-14.1,113.8-13.9,113.6-13.7z
		 M114.3-4.3c0.1-0.2,0.4-0.3,0.6-0.4C114.8-4.5,114.5-4.5,114.3-4.3z M117.3-13.9c0,0.2,0,0.3,0.1,0.4c0.1,0.1-0.1,0.1-0.1,0.2
		c-0.1-0.3-0.1-0.6-0.2-0.9C117.3-14.1,117.3-14,117.3-13.9z M118.3-10.3c-0.2,0.4-0.2,0.7-0.3,1.1c-0.1,0.3-0.2,0.6-0.2,0.9
		c0,0.1-0.1,0.2-0.2,0.2c-0.1,0-0.1-0.1-0.1-0.2v-0.1c0.2-0.4,0.2-0.8,0.3-1.2c0,0,0-0.1-0.1-0.1s-0.1,0-0.1,0.1
		c0,0.4-0.3,0.6-0.4,0.9c0,0,0,0.1-0.1,0.1s-0.1,0-0.1-0.1v-0.1c0-0.1-0.1-0.1-0.1,0c-0.1,0.1-0.2,0.2-0.3,0.3c0-0.1,0-0.2,0-0.3
		c0.1-0.4,0.3-0.7,0.3-1.1c0,0,0,0,0-0.1c0.4-0.3,0.3-0.7,0.4-1.1c0.1-0.3,0.1-0.5,0.1-0.8c0-0.1,0-0.2,0.1-0.3c0-0.3-0.1-0.6,0-0.9
		c0.2,0.3,0.3,0.6,0,0.9c0.2,0.2,0.2,0.4,0.2,0.6c0,0.3,0,0.3,0.3,0.3c0.1,0,0.1,0,0.1,0.1c0.1,0.1,0.2,0.2,0.3,0.3
		c0.1,0,0.1,0.1,0.1,0.2C118.3-10.6,118.3-10.4,118.3-10.3z"/>
</g>
<g id="XMLID_40_">
	
		<linearGradient id="XMLID_2_" gradientUnits="userSpaceOnUse" x1="74.679" y1="68.5205" x2="75.679" y2="68.5205" gradientTransform="matrix(1.5 5.5089 2.5981 -3.1806 -286.5566 -88.5972)">
		<stop  offset="0" style="stop-color:#E1BE29"/>
		<stop  offset="0.25" style="stop-color:#BC9908"/>
		<stop  offset="1" style="stop-color:#F7DB63"/>
	</linearGradient>
	<path id="XMLID_41_" class="st1" d="M2.9,109.1c1,0.4,2,1,3,1.5c-0.4-1.2-0.6-3-0.7-5.8C4.7,102.9,3.9,106.2,2.9,109.1z"/>
	
		<linearGradient id="XMLID_3_" gradientUnits="userSpaceOnUse" x1="17.7326" y1="29.9867" x2="18.7326" y2="29.9867" gradientTransform="matrix(0.6 1.1258 1.0392 -0.65 -32.7428 110.677)">
		<stop  offset="0" style="stop-color:#E1BE29"/>
		<stop  offset="0.25" style="stop-color:#BC9908"/>
		<stop  offset="1" style="stop-color:#F7DB63"/>
	</linearGradient>
	<path id="XMLID_248_" class="st2" d="M9.2,112.4c0.2-0.4,0.5-0.8,0.7-1.3c-0.4,0.4-0.8,0.7-1.2,1C8.8,112.2,9,112.3,9.2,112.4z"/>
	
		<linearGradient id="XMLID_4_" gradientUnits="userSpaceOnUse" x1="56.3946" y1="75.76" x2="57.3946" y2="75.76" gradientTransform="matrix(1.4 1.5651 2.4249 -0.9036 -250.0994 88.9752)">
		<stop  offset="0" style="stop-color:#E1BE29"/>
		<stop  offset="0.25" style="stop-color:#BC9908"/>
		<stop  offset="1" style="stop-color:#F7DB63"/>
	</linearGradient>
	<path id="XMLID_250_" class="st3" d="M11.8,109.4c0.6,1.3,1.5,1.6,2.8,0C13.8,108.3,12.8,108.6,11.8,109.4z"/>
	
		<linearGradient id="XMLID_5_" gradientUnits="userSpaceOnUse" x1="62.8411" y1="47.6284" x2="63.8411" y2="47.6284" gradientTransform="matrix(0.95 5.6075 1.6454 -3.2375 -127.9928 -92.5642)">
		<stop  offset="0" style="stop-color:#E1BE29"/>
		<stop  offset="0.25" style="stop-color:#BC9908"/>
		<stop  offset="1" style="stop-color:#F7DB63"/>
	</linearGradient>
	<path id="XMLID_360_" class="st4" d="M9.9,111C9.9,111.1,9.9,111.1,9.9,111c0.6-0.6,1.3-1.2,1.9-1.7c-0.5-1-0.8-2.7-0.9-4.7
		C10.9,107,10.7,109.4,9.9,111z"/>
	
		<linearGradient id="XMLID_6_" gradientUnits="userSpaceOnUse" x1="-215.1936" y1="-431.7124" x2="-214.1936" y2="-431.7124" gradientTransform="matrix(0.1 4.9363 0.1732 -2.85 106.9428 -68.7002)">
		<stop  offset="0" style="stop-color:#E1BE29"/>
		<stop  offset="0.25" style="stop-color:#BC9908"/>
		<stop  offset="1" style="stop-color:#F7DB63"/>
	</linearGradient>
	<path id="XMLID_361_" class="st5" d="M10.8,104.7c0-2.3-0.2-4.4-0.2-5.7C10.6,101,10.7,103,10.8,104.7z"/>
	
		<linearGradient id="XMLID_7_" gradientUnits="userSpaceOnUse" x1="98.6613" y1="98.0552" x2="99.6613" y2="98.0552" gradientTransform="matrix(16.205 25.7487 28.0679 -14.866 -4335.6401 -1042.2462)">
		<stop  offset="0" style="stop-color:#E1BE29"/>
		<stop  offset="0.25" style="stop-color:#BC9908"/>
		<stop  offset="1" style="stop-color:#F7DB63"/>
	</linearGradient>
	<path id="XMLID_363_" class="st6" d="M27.8,51.5c1.4-3.3,0.8,14,2.3,10.8c1.4-2,4.3-7.8,6.2-13.2c2-5.4,3.1-10.2,1.3-10
		c-2.7,0.7-5,1.9-7.2,3.3c-1.1,0.7-2.3,1.4-3.4,2c-1.2,0.6-2.3,1.1-3.6,1.6C18.8,51.3,14,57.8,9.1,62.4c-1.2,0.5-2.1-0.9-3-2.2
		c1,2.7,2,5.3,3.2,7.9c0.7,2.3,2.5-1.2,4.4-5.8c2-4.5,4.2-10,6.1-11.4c0.7-1.6-1.5,13.7-0.1,10.5c1.5-1.9,2.9-4.4,4.3-6.5
		c0.7-1,1.3-1.9,2-2.5C26.7,51.8,27.3,51.4,27.8,51.5z"/>
	
		<linearGradient id="XMLID_8_" gradientUnits="userSpaceOnUse" x1="92.6658" y1="91.0809" x2="93.6658" y2="91.0809" gradientTransform="matrix(4.8298 12.582 8.3654 -7.2642 -1225.3115 -420.5956)">
		<stop  offset="0" style="stop-color:#E1BE29"/>
		<stop  offset="0.25" style="stop-color:#BC9908"/>
		<stop  offset="1" style="stop-color:#F7DB63"/>
	</linearGradient>
	<path id="XMLID_364_" class="st7" d="M-10.5,93.1c-1.3-9-3.6-11-6.5-10.2c-0.6,4.2-1.5,8.9-1.2,11.2c0.8-1.5,2.5-4.7,2.5-4.7
		c0.3,11.5,3.6,8,6.9,4.4c0.1-2.6,0.2-5.2,0.2-7.9C-9.9,86.3-10.8,89.7-10.5,93.1z"/>
	
		<linearGradient id="XMLID_9_" gradientUnits="userSpaceOnUse" x1="52.2928" y1="61.0711" x2="53.2928" y2="61.0711" gradientTransform="matrix(1.05 1.8187 1.8187 -1.05 -184.3496 50.7628)">
		<stop  offset="0" style="stop-color:#E1BE29"/>
		<stop  offset="0.25" style="stop-color:#BC9908"/>
		<stop  offset="1" style="stop-color:#F7DB63"/>
	</linearGradient>
	<path id="XMLID_366_" class="st8" d="M-18.9,83.3c0,0.1,0,0.3,0,0.4c0.6-0.3,1.3-0.6,1.9-0.8c0.1-0.4,0.1-0.9,0.2-1.3
		C-17.5,82.1-18.2,82.7-18.9,83.3z"/>
	
		<linearGradient id="XMLID_10_" gradientUnits="userSpaceOnUse" x1="50.9444" y1="54.6757" x2="51.9444" y2="54.6757" gradientTransform="matrix(0.95 1.9918 1.6454 -1.15 84.9083 -11.74)">
		<stop  offset="0" style="stop-color:#E1BE29"/>
		<stop  offset="0.25" style="stop-color:#BC9908"/>
		<stop  offset="1" style="stop-color:#F7DB63"/>
	</linearGradient>
	<path id="XMLID_368_" class="st9" d="M223.5,28.9c0.1,0,0.2-0.1,0.3-0.1s0.2-0.1,0.3-0.2s0.1-0.1,0.1-0.1s0,0,0-0.1l0,0l0,0
		l0.1-0.2c0-0.1,0-0.1,0-0.1V28c0.1-0.1,0.1-0.3,0.1-0.4s0-0.2,0.1-0.2l0.2-0.5l-0.2-0.2h-0.4h0.2c0,0,0.3,0,0.2,0.1
		s-0.1,0.2-0.2,0.2c0,0-0.1,0-0.2,0.1c0,0-0.1,0.1-0.2,0.2c-0.1,0.1-0.2,0.2-0.4,0.3c-0.2,0.1-0.2,0.2-0.3,0.2
		c0,0.1-0.1,0.1-0.2,0.2c-0.1,0-0.1,0.1-0.1,0.1s0,0,0,0.1c0,0.2-0.1,0.3-0.1,0.4s0,0.3,0.1,0.4c0.1,0,0.2,0,0.2,0
		C223.4,28.9,223.4,28.9,223.5,28.9z"/>
	
		<linearGradient id="XMLID_11_" gradientUnits="userSpaceOnUse" x1="80.9352" y1="80.2634" x2="81.9352" y2="80.2634" gradientTransform="matrix(2.2 5.2611 3.8105 -3.0375 -259.1577 -149.9559)">
		<stop  offset="0" style="stop-color:#E1BE29"/>
		<stop  offset="0.25" style="stop-color:#BC9908"/>
		<stop  offset="1" style="stop-color:#F7DB63"/>
	</linearGradient>
	<path id="XMLID_369_" class="st10" d="M225.4,37.8c0.1,0.1,0.2,0.1,0.3,0.2s0.2,0.1,0.3,0l0.1-0.1c0,0,0-0.1,0.1-0.2
		s0.1-0.2,0.1-0.3c0-0.1,0-0.1,0-0.1s0-0.1,0.1-0.2c0-0.1,0.1-0.2,0.2-0.4c0-0.1,0.1-0.2,0.2-0.5c0.1-0.2,0.2-0.4,0.2-0.6
		c0-0.1,0-0.1,0.1-0.2v-0.1c0-0.1,0-0.1,0-0.1s0,0,0-0.1c0,0,0-0.1,0-0.2c0-0.2,0-0.2,0-0.2s0,0,0.1-0.1c0-0.1,0.1-0.2,0.1-0.4
		c0-0.1,0.1-0.3,0.1-0.4c0.1-0.3,0.2-0.5,0.2-0.6s0-0.3-0.1-0.5l-0.1-0.1c-0.1,0-0.1,0-0.1-0.1c-0.2-0.2-0.4-0.3-0.6-0.3
		c-0.2,0-0.3-0.1-0.4-0.1c-0.1,0-0.2-0.1-0.3-0.1s-0.2,0-0.3,0s-0.1,0-0.2,0c-0.1,0-0.1,0-0.2,0c-0.1,0-0.2,0-0.4,0c0,0-0.1,0-0.2,0
		c-0.1,0-0.1,0-0.2,0c0,0-0.2,0-0.4,0.1c-0.2,0-0.3,0.1-0.4,0.1c-0.1,0-0.2,0.1-0.2,0.1s-0.1,0-0.1,0.1c0,0,0,0.1-0.1,0.1
		c0,0,0,0.1-0.1,0.2c0,0.1,0,0.2,0,0.4c0,0.2,0,0.3,0,0.4s0,0.2,0,0.4c0,0.1,0,0.3,0,0.4c0.1-0.1,0.2-0.1,0.2-0.1s0.1,0,0.3,0
		c0,0,0-0.1,0.1-0.2c0-0.1,0.1-0.2,0.1-0.3c0-0.1,0.1-0.2,0.1-0.4c0-0.1,0-0.1,0-0.1s0-0.1,0-0.2l0,0l0,0c0.1,0,0.1-0.1,0.1-0.1
		s0-0.1,0.1-0.1s0.3,0,0.4,0.1c0.1,0.1,0.2,0.1,0.3,0.2s0.1,0.1,0.2,0.1c0,0,0,0.1,0.1,0.1c0,0,0,0,0.1,0.1c0,0,0.1,0.1,0.2,0.2
		c0.1,0.1,0.1,0.1,0.1,0.1s0,0.1,0.1,0.2c0,0,0,0,0,0.1c0,0,0,0,0.1,0.1l0,0c0,0,0,0,0,0.1s0,0.1,0.1,0.2l0.1,0.1c0,0.1,0,0.1,0,0.1
		v0.1c0,0,0,0.1,0,0.2s0,0.1,0,0.2s0,0.1,0.1,0.2c0,0.1,0,0.2,0.1,0.3v0.1c0,0,0,0,0,0.1v0.1c0,0.1,0,0.2,0,0.2v0.1c0,0,0,0,0,0.1
		c0,0,0,0.1-0.1,0.1c-0.1,0.2-0.2,0.3-0.4,0.4c-0.2,0-0.3,0-0.4,0.1l0,0l0,0c-0.1,0-0.1-0.1-0.2-0.1c-0.1,0-0.1-0.1-0.1-0.2
		c0,0-0.1-0.1-0.1-0.2s-0.1-0.2-0.1-0.3c-0.1-0.1-0.1-0.1-0.2-0.1c-0.1,0-0.2,0.1-0.3,0.2c0.1,0.2,0.3,0.3,0.4,0.4
		c0.1,0.1,0.3,0.3,0.4,0.5c0.1,0.1,0.1,0.2,0.2,0.2C225.2,37.6,225.3,37.7,225.4,37.8z"/>
	
		<linearGradient id="XMLID_12_" gradientUnits="userSpaceOnUse" x1="76.3047" y1="89.7142" x2="77.3047" y2="89.7142" gradientTransform="matrix(2.8 2.5115 4.8498 -1.45 -427.3063 -38.0508)">
		<stop  offset="0" style="stop-color:#E1BE29"/>
		<stop  offset="0.25" style="stop-color:#BC9908"/>
		<stop  offset="1" style="stop-color:#F7DB63"/>
	</linearGradient>
	<path id="XMLID_370_" class="st11" d="M223.4,24c0.1,0.1,0.1,0.2,0.1,0.3c0,0.1,0,0.1,0,0.1l0,0v0.1v0.1c0,0,0,0,0.1,0.1
		c0,0.1,0,0.2,0,0.4c0,0.2,0,0.3,0,0.3s0.1,0.1,0.1,0c0.1,0,0.1,0,0.2,0c0.1,0,0.1,0,0.2,0c0,0,0.1,0,0.2,0c0.1,0,0.3-0.1,0.3-0.1
		c0.1,0,0.2,0,0.3,0c0.2,0,0.3,0.1,0.4,0.3l0,0l0.1-0.1c0.1-0.1,0.1-0.2,0.2-0.3c0-0.1,0.1-0.2,0.1-0.3c0.1-0.1,0.1-0.2,0.2-0.4
		c0.1-0.2,0.1-0.3,0.1-0.4s-0.1-0.1-0.2-0.2c-0.1-0.1-0.2-0.1-0.2-0.2c-0.2-0.1-0.4-0.2-0.5-0.2s-0.2,0-0.3-0.1
		c-0.1,0-0.2,0-0.3-0.1c-0.2-0.1-0.4-0.1-0.6-0.1c-0.2,0-0.4,0-0.6,0l-0.6,0.2c-0.3,0.1-0.5,0.2-0.6,0.3s-0.2,0.2-0.3,0.3
		c-0.1,0-0.1,0.1-0.1,0.1v0.1v0.1l-0.1,0.1c-0.1,0.1-0.2,0.1-0.2,0.2c-0.1,0.1-0.1,0.1-0.3,0.1c-0.1,0-0.2,0-0.1,0c0,0,0,0-0.1,0.1
		c-0.1,0-0.1,0.1-0.2,0.1c-0.1,0.1-0.1,0.2-0.3,0.6c0,0.1,0,0.2,0,0.3c0,0.1,0,0.3,0,0.3h0.1c0,0,0,0,0.1,0c0.2,0,0.3,0,0.3,0
		c0.1,0,0.1,0,0.2,0c0.2-0.1,0.3-0.1,0.4-0.1c0.1,0,0.2,0,0.3-0.1c0.2-0.1,0.2-0.1,0.2-0.1s0-0.1,0.1-0.1c0-0.1,0-0.1,0-0.1l0,0
		c0-0.1,0-0.2,0-0.3c-0.1-0.1-0.2-0.1-0.2-0.2V25v-0.1c0,0,0-0.1-0.1-0.1c0-0.1,0-0.1,0-0.1s0,0,0-0.1c0,0,0,0,0.1,0c0,0,0,0,0.1,0
		s0.1-0.1,0.1-0.1s0-0.1,0-0.2c0,0,0,0,0.1,0c0,0,0-0.1,0.1-0.2s0.1-0.1,0.1-0.1s0.1,0,0.1-0.1c0.1-0.1,0.1-0.2,0.1-0.2s0,0,0.1,0
		s0.1,0,0.2-0.1c0,0,0.1,0,0.2,0C223.1,23.6,223.3,23.7,223.4,24z"/>
	
		<linearGradient id="XMLID_13_" gradientUnits="userSpaceOnUse" x1="-2.1954" y1="1.6951" x2="-1.1954" y2="1.6951" gradientTransform="matrix(0.45 1.0392 0.7794 -0.6 222.9917 29.779)">
		<stop  offset="0" style="stop-color:#E1BE29"/>
		<stop  offset="0.25" style="stop-color:#BC9908"/>
		<stop  offset="1" style="stop-color:#F7DB63"/>
	</linearGradient>
	<path id="XMLID_371_" class="st12" d="M223.5,26.6c0,0.1-0.1,0.1-0.1,0.2s-0.1,0.1-0.1,0.2c-0.1,0.1-0.1,0.2-0.2,0.3
		c0,0.1,0,0.2,0,0.3c0,0,0.1,0,0.1-0.1c0.1-0.1,0.2-0.2,0.2-0.3c0.1-0.1,0.2-0.2,0.2-0.3c0.1-0.1,0.1-0.2,0.2-0.2
		c0-0.1,0.1-0.1,0.1-0.1s0.1-0.1,0.1-0.2c-0.2,0-0.3,0-0.4,0C223.6,26.5,223.6,26.5,223.5,26.6z"/>
	
		<linearGradient id="XMLID_14_" gradientUnits="userSpaceOnUse" x1="29.005" y1="63.1612" x2="30.005" y2="63.1612" gradientTransform="matrix(0.9 0.9526 1.5588 -0.55 95.5877 39.3813)">
		<stop  offset="0" style="stop-color:#E1BE29"/>
		<stop  offset="0.25" style="stop-color:#BC9908"/>
		<stop  offset="1" style="stop-color:#F7DB63"/>
	</linearGradient>
	<path id="XMLID_372_" class="st13" d="M220.2,33c0,0,0.1-0.1,0.2-0.1c0.1,0,0.2-0.1,0.2-0.1l0.3-0.2c0.1-0.1,0.2-0.1,0.3-0.1
		s0.2-0.1,0.3-0.3c0,0-0.1,0-0.2,0c-0.1,0-0.2,0.1-0.2,0.2c-0.1,0.1-0.1,0.1-0.2,0.1c-0.1,0-0.2,0-0.3,0.1c-0.2,0.1-0.3,0.2-0.5,0.2
		c-0.2,0.1-0.3,0.1-0.4,0.2v0.1c0,0.1,0,0.1,0,0.1s0,0,0,0.1c0.1,0,0.2,0,0.3-0.1C220,33,220.1,33,220.2,33z"/>
	
		<linearGradient id="XMLID_15_" gradientUnits="userSpaceOnUse" x1="40.2011" y1="26.185" x2="41.2011" y2="26.185" gradientTransform="matrix(0.65 2.5981 1.1258 -1.5 165.3784 -37.8525)">
		<stop  offset="0" style="stop-color:#E1BE29"/>
		<stop  offset="0.25" style="stop-color:#BC9908"/>
		<stop  offset="1" style="stop-color:#F7DB63"/>
	</linearGradient>
	<path id="XMLID_379_" class="st14" d="M220.7,29.6c0,0.1,0,0.2,0,0.3c0,0.1,0.1,0.1,0.2,0.3c0.1,0,0.2-0.1,0.3-0.2s0.1-0.1,0.1-0.1
		s0,0,0.2-0.1s0.2-0.2,0.2-0.3c-0.1-0.1-0.1-0.2,0-0.3c0.1-0.2,0.1-0.4,0.1-0.6c0-0.1,0-0.3,0-0.4s0.1-0.2,0.1-0.2
		c0-0.1,0-0.2,0-0.2v-0.4c0-0.1,0-0.1,0-0.1s0,0,0-0.1c-0.1,0-0.2,0-0.2,0.1c0,0-0.1,0.1-0.2,0.1c0,0-0.1,0-0.3,0.1
		s-0.3,0.1-0.4,0.2c0,0.1-0.1,0.1,0,0.1c0,0,0,0-0.1,0l0,0c0,0,0,0-0.1,0.1c0,0.2,0,0.4,0.1,0.6c0,0.2,0.1,0.4,0.1,0.5
		C220.6,29.2,220.6,29.4,220.7,29.6z"/>
	
		<linearGradient id="XMLID_16_" gradientUnits="userSpaceOnUse" x1="-54.5389" y1="-95.2127" x2="-53.5389" y2="-95.2127" gradientTransform="matrix(0.25 1.1258 0.433 -0.65 274.6051 27.0773)">
		<stop  offset="0" style="stop-color:#E1BE29"/>
		<stop  offset="0.25" style="stop-color:#BC9908"/>
		<stop  offset="1" style="stop-color:#F7DB63"/>
	</linearGradient>
	<path id="XMLID_380_" class="st15" d="M220,28.4V28c0-0.1,0-0.1-0.1-0.1c0,0-0.1-0.1-0.1-0.2s-0.1-0.1-0.1-0.1l-0.1-0.1v0.1
		c0,0,0,0,0,0.1s0.1,0.2,0.1,0.3c0,0.1,0.1,0.3,0.2,0.5c0,0,0.1,0.1,0.1,0.2s0.1,0.1,0.1,0.1s0-0.1,0-0.2
		C220.1,28.5,220.1,28.5,220,28.4z"/>
	
		<linearGradient id="XMLID_17_" gradientUnits="userSpaceOnUse" x1="-1857.5632" y1="-1986.8636" x2="-1856.5632" y2="-1986.8636" gradientTransform="matrix(2.222443e-02 6.494926e-02 3.849383e-02 -3.749847e-02 335.8756 81.6738)">
		<stop  offset="0" style="stop-color:#E1BE29"/>
		<stop  offset="0.25" style="stop-color:#BC9908"/>
		<stop  offset="1" style="stop-color:#F7DB63"/>
	</linearGradient>
	<path id="XMLID_381_" class="st16" d="M218.1,35.6C218.1,35.5,218.2,35.5,218.1,35.6L218.1,35.6z"/>
	
		<linearGradient id="XMLID_18_" gradientUnits="userSpaceOnUse" x1="59.6959" y1="59.8748" x2="60.6959" y2="59.8748" gradientTransform="matrix(1.1 2.5981 1.9053 -1.5 40.5701 -31.8519)">
		<stop  offset="0" style="stop-color:#E1BE29"/>
		<stop  offset="0.25" style="stop-color:#BC9908"/>
		<stop  offset="1" style="stop-color:#F7DB63"/>
	</linearGradient>
	<path id="XMLID_382_" class="st17" d="M221.9,33.5c0-0.1,0-0.2-0.1-0.3c-0.2,0-0.4,0.1-0.6,0.3c-0.3,0.2-0.5,0.3-0.7,0.4
		c-0.1,0.1-0.2,0.1-0.2,0.1c-0.1,0-0.1,0.1-0.2,0.2l-0.1,0.1l-0.1,0.1l-0.1,0.2c0,0.1,0,0.2,0,0.3c0,0.1,0,0.1,0,0.2v0.1v0.1
		c0,0,0,0.1,0,0.2s0,0.1,0,0.1s0,0,0,0.1v0.1c0,0,0,0.1,0,0.2s0.1,0.1,0.1,0.1s0,0.1,0.1,0.1s0.3-0.1,0.4-0.1c0.1,0,0.3-0.1,0.4-0.1
		c0.1,0,0.2-0.1,0.3-0.1c0,0-0.3,0,0.4-0.1l0,0l0.1-0.2c0,0-0.1-0.1,0-0.1c0.1-0.1,0.1-0.1,0.2-0.2c0.1-0.2,0.1-0.3,0.1-0.3
		s0-0.1,0-0.2c0-0.2,0-0.3,0.1-0.5c0-0.2,0-0.4,0-0.6C221.9,33.6,221.9,33.5,221.9,33.5z"/>
	
		<linearGradient id="XMLID_19_" gradientUnits="userSpaceOnUse" x1="80.2569" y1="75.3755" x2="81.2569" y2="75.3755" gradientTransform="matrix(1.9 6.755 3.2909 -3.9 -231.9834 -219.4371)">
		<stop  offset="0" style="stop-color:#E1BE29"/>
		<stop  offset="0.25" style="stop-color:#BC9908"/>
		<stop  offset="1" style="stop-color:#F7DB63"/>
	</linearGradient>
	<path id="XMLID_383_" class="st18" d="M169.8,28.1c-1.6,0.4-2.1,1.3-2.1,2.7v2.7c0,1.2,0.4,2.4,1.5,2.4h0.9c0.8,0,1.3-1.5,1.4-3.9
		C171.4,29.6,170.9,28.1,169.8,28.1z"/>
	
		<linearGradient id="XMLID_20_" gradientUnits="userSpaceOnUse" x1="-16.8112" y1="-35.2872" x2="-15.8112" y2="-35.2872" gradientTransform="matrix(0.35 1.2124 0.6062 -0.7 191.7505 23.4753)">
		<stop  offset="0" style="stop-color:#E1BE29"/>
		<stop  offset="0.25" style="stop-color:#BC9908"/>
		<stop  offset="1" style="stop-color:#F7DB63"/>
	</linearGradient>
	<path id="XMLID_384_" class="st19" d="M164.3,29.1L164.3,29.1h0.5l0.2-0.4v-1l0,0C164.6,27.8,164.3,28.3,164.3,29.1z"/>
	
		<linearGradient id="XMLID_21_" gradientUnits="userSpaceOnUse" x1="85.6339" y1="91.3689" x2="86.6339" y2="91.3689" gradientTransform="matrix(3.85 4.4167 6.6684 -2.55 -696.8547 -69.7892)">
		<stop  offset="0" style="stop-color:#E1BE29"/>
		<stop  offset="0.25" style="stop-color:#BC9908"/>
		<stop  offset="1" style="stop-color:#F7DB63"/>
	</linearGradient>
	<path id="XMLID_385_" class="st20" d="M246,76.2l-0.4,0.2c-0.1,0.1-0.2,0.2-0.3,0.3c-0.1,0.1-0.3,0.2-0.5,0.3
		c-0.1,0-0.2,0.1-0.2,0.1c-0.2,0.1-0.3,0.2-0.4,0.2c0,0.1-0.1,0.1-0.1,0.2c0,0,0,0.1,0,0.2s-0.1,0.1-0.3,0.1c-0.1,0-0.2,0.1-0.2,0.1
		c-0.1,0-0.2,0-0.3,0.1l-0.2,0.2c-0.4,0.3-0.8,0.5-1,0.6c-0.2,0-0.4,0.2-0.5,0.6c-0.2,0-0.3,0-0.4,0.1l-1,0.7c0.1,0,0.2,0,0.2-0.1
		c0.1,0,0.1-0.1,0.2-0.1c0.2-0.1,0.3-0.1,0.3-0.1s0.1,0,0.6-0.1s0.8-0.1,0.8-0.2c0,0,0.2-0.1,0.5-0.2c0.2,0,0.4-0.1,0.6-0.2
		c0.1-0.1,0.3-0.1,0.6-0.2c0.2-0.1,0.5-0.2,0.9-0.3c0.3-0.1,0.6-0.2,0.9-0.3c0.2-0.1,0.3-0.2,0.2-0.2c0.1,0,0.2,0,0.3,0
		c0.2-0.7,0.4-0.1,0.6-0.2s0.4-0.2,0.5-0.5c0.2-0.4,0.2-0.9,0.1-1.2c0-0.3-0.1-0.5,0-0.6c0-0.1,0.1-0.1,0.1-0.1s0.1,0,0.2-0.1
		c0-0.1,0.1-0.2,0.1-0.4c-0.2,0-0.5,0.2-0.9,0.4C246.5,76,246.2,76.1,246,76.2z"/>
	
		<linearGradient id="XMLID_22_" gradientUnits="userSpaceOnUse" x1="68.2837" y1="61.4228" x2="69.2837" y2="61.4228" gradientTransform="matrix(1.2197 4.4167 2.1126 -2.55 -25.7524 -72.9903)">
		<stop  offset="0" style="stop-color:#E1BE29"/>
		<stop  offset="0.25" style="stop-color:#BC9908"/>
		<stop  offset="1" style="stop-color:#F7DB63"/>
	</linearGradient>
	<path id="XMLID_386_" class="st21" d="M188.8,76.4c0,0.1-0.2,0-0.2-0.2v-0.9c0-0.1,0.2-0.2,0.2-0.2c-0.1-0.1,0.1-0.2,0.1-0.5
		l-0.1-2.7c-0.1,0-0.1,0-0.2,0c0,0-0.1,0-0.2,0c-0.1,0-0.2,0.1-0.5,0.4c-0.2,0.3-0.3,0.4-0.4,0.5c-0.2,0.2-0.3,0.4-0.3,0.3
		c0,0,0,0.1-0.1,0.3c-0.1,0.2-0.3,0.5-0.5,0.7s-0.2,0.5,0.1,0.8c0.1,0.1,0.2,0.2,0.3,0.3c0.2,0.2,0.3,0.4,0.5,0.7
		c0.1,0.1,0.2,0.2,0.3,0.3c0.1,0.1,0.2,0.2,0.3,0.3c0.1,0.1,0.2,0.2,0.3,0.3l0.1,0.2h0.3v-0.4C188.8,76.4,188.7,76.3,188.8,76.4z"/>
	
		<linearGradient id="XMLID_23_" gradientUnits="userSpaceOnUse" x1="-1289.5768" y1="-1003.2543" x2="-1288.5768" y2="-1003.2543" gradientTransform="matrix(3.750610e-02 6.496248e-02 6.496248e-02 -3.750610e-02 304.1644 144.0482)">
		<stop  offset="0" style="stop-color:#E1BE29"/>
		<stop  offset="0.25" style="stop-color:#BC9908"/>
		<stop  offset="1" style="stop-color:#F7DB63"/>
	</linearGradient>
	<path id="XMLID_387_" class="st22" d="M190.6,97.9C190.7,98,190.7,98,190.6,97.9C190.7,97.9,190.6,97.9,190.6,97.9z"/>
	
		<linearGradient id="XMLID_24_" gradientUnits="userSpaceOnUse" x1="37.1374" y1="69.8213" x2="38.1374" y2="69.8213" gradientTransform="matrix(1.05 1.0392 1.8187 -0.6 45.4495 -7.6212)">
		<stop  offset="0" style="stop-color:#E1BE29"/>
		<stop  offset="0.25" style="stop-color:#BC9908"/>
		<stop  offset="1" style="stop-color:#F7DB63"/>
	</linearGradient>
	<path id="XMLID_388_" class="st23" d="M213-9.8c-0.7-0.4-1.4-0.8-2.1-1.2C211.7-10.6,212.4-10.2,213-9.8z"/>
	
		<linearGradient id="XMLID_25_" gradientUnits="userSpaceOnUse" x1="88.0123" y1="86.4708" x2="89.0123" y2="86.4708" gradientTransform="matrix(3.2222 8.4004 5.5811 -4.85 -629.6998 -237.7707)">
		<stop  offset="0" style="stop-color:#E1BE29"/>
		<stop  offset="0.25" style="stop-color:#BC9908"/>
		<stop  offset="1" style="stop-color:#F7DB63"/>
	</linearGradient>
	<path id="XMLID_389_" class="st24" d="M140.5,83.9c0-0.2,0-0.3,0-0.3s0-0.1,0-0.2c0-0.1,0-0.2,0-0.2s0.1-0.1,0.1-0.2
		c0-0.2,0-0.3-0.1-0.5c0-0.2-0.1-0.3-0.1-0.5l-2,0.8c-0.2,0.1-0.4,0.3-0.7,0.3h-0.1c-0.1,0-0.1,0.1-0.1,0c0,0,0,0-0.1,0.1l-0.9,0.6
		c-0.2,0.1-0.4,0.2-0.6,0.4c-0.1,0.1-0.2,0.3-0.4,0.4l-0.1,0.1c-0.1,0.1-0.2,0.2-0.2,0.4l-0.4,0.6c-0.1,0.1-0.1,0.1-0.2,0.2
		c0,0-0.1,0.2-0.2,0.4c0,0.3-0.1,0.4,0,0.3c0-0.1,0.1,0,0.2,0.2c0,0.2,0,0.4,0,0.6c-0.1,0.2,0.1,0.4,0.6,0.7
		c0.2,0.2,0.4,0.4,0.6,0.6c0.1,0.2,0.4,0.4,1,0.7l0.8,0.7c0.2,0.2,0.7,0.5,1.3,0.9s1,0.7,1.3,0.7c0-0.2,0.1-0.4,0-0.4
		c0,0,0-0.2,0.1-0.4c0.1-0.4,0.1-0.5,0.1-0.5s-0.1-0.1-0.1-0.3c0-0.1,0-0.2,0-0.5c0-0.2,0.1-0.4,0.1-0.5c0-0.2,0-0.4,0-0.5
		s0-0.3,0-0.6c0-0.2,0.2-0.6,0.2-1s0.2-0.8,0.2-1.1v-0.6v-0.6c0-0.3-0.2-0.5-0.1-0.5C140.6,84.2,140.5,84.1,140.5,83.9z"/>
	
		<linearGradient id="XMLID_26_" gradientUnits="userSpaceOnUse" x1="84.0836" y1="80.0651" x2="85.0836" y2="80.0651" gradientTransform="matrix(2.3196 8.054 4.0177 -4.65 -387.8589 -227.1641)">
		<stop  offset="0" style="stop-color:#E1BE29"/>
		<stop  offset="0.25" style="stop-color:#BC9908"/>
		<stop  offset="1" style="stop-color:#F7DB63"/>
	</linearGradient>
	<path id="XMLID_390_" class="st25" d="M131.6,77.4c-0.4,0.2-0.7,0.4-0.9,0.6c-0.2,0.3-0.4,0.3-0.7,0.3h-1.7
		c-0.2,1.3-0.3,0.6-0.3,0.8c0,0.2-0.1,0.6-0.2,0.9c-0.1,0.6-0.2,1.1-0.3,1.5s0,0.9,0.2,1.6c0.3,0.9,0.4,1.7,0.4,2.3s0,1,0,1.3
		c0.2,0,0.3-0.1,0.3-0.1s0.1-0.1,0.4-0.2c0.2-0.1,0.2-0.1,0.2-0.2c0,0,0.1-0.1,0.2-0.2c0.6-0.4,1-0.7,1.1-0.9s0.2-0.4,0.4-0.6
		c0.2-0.2,0.3-0.3,0.3-0.4c0-0.1,0-0.1,0-0.1s0,0,0-0.2s0.1-0.1,0.1-0.1h0.1c0,0,0-0.3,0-0.4c0-0.2,0-0.7,0.1-1.1l0,0l0,0l0,0l0,0
		c0-0.2,0.1-0.7,0.1-1.2c0.1-0.3,0.1-0.5,0.2-0.7c0.1-0.3,0.2-0.6,0.2-0.8c0-0.2,0-0.5,0.1-0.7l0.2-1.4c-0.1,0-0.2,0.1-0.3,0.1
		C131.8,77.4,131.7,77.4,131.6,77.4z"/>
	
		<linearGradient id="XMLID_27_" gradientUnits="userSpaceOnUse" x1="89.0947" y1="88.4595" x2="90.0947" y2="88.4595" gradientTransform="matrix(3.6707 8.2272 6.3579 -4.75 -754.1431 -238.267)">
		<stop  offset="0" style="stop-color:#E1BE29"/>
		<stop  offset="0.25" style="stop-color:#BC9908"/>
		<stop  offset="1" style="stop-color:#F7DB63"/>
	</linearGradient>
	<path id="XMLID_391_" class="st26" d="M140.7,74c-0.2-0.1-0.2-0.1-0.2-0.1s0,0.1-0.2,0.2s-0.4,0.1-0.4,0.1s-0.1,0-0.4,0.2l-0.7,0.5
		l-0.1,0.1h-0.1c-0.4,0-0.6,0.5-0.7,0.5c-0.1,0-0.3,0.2-0.7,0.5c-0.1,0.1-0.3,0.2-0.6,0.4c-0.3,0.2-0.6,0.3-0.8,0.4c0,0,0,0-0.1,0
		c0,0,0,0.1-0.1,0.2c-0.3,0.1-0.6,0.2-0.8,0.2c-0.3,0.1-0.4-0.1-0.4-0.6c0.3-0.1,0.6-0.2,0.8-0.3c0.2-0.1,0.3-0.2,0.5-0.3
		c0.1-0.1,0.2-0.2,0.4-0.4c0.1-0.2,0.3-0.3,0.6-0.5c0.1,0,0.2-0.1,0.4-0.2c0.1-0.1,0.4-0.1,0.4-0.2v-0.2c0,0-0.4,0.1-0.9,0.3
		c-0.5,0.2-0.8,0.3-1,0.5c-0.4,0.2-0.6,0.3-0.7,0.4c-0.1,0.1-0.2,0.2-0.2,0.2c0,0.1-0.1,0.1-0.1,0.2s-0.1,0.3-0.2,0.5
		c-0.2,0.3-0.2,0.5-0.1,0.6c0.1,0.1,0.1,0.3,0,0.6c-0.1,0.6-0.2,1-0.2,1.3c-0.1,0.2-0.1,0.4-0.1,0.6c0,0.1-0.1,0.3-0.2,0.4
		c-0.1,0.1-0.3,0.4-0.3,0.8v1.9c0,0.1,0,0.1,0,0.1s0,0.1,0.1,0.2v0.1c0,0,0,0,0,0.2c0.5-0.1,0.7-0.3,0.7-0.5s0.1-0.5,0.3-0.9
		l0.5-1.8c0.1-0.3,0.2-0.6,0.2-0.8c0-0.2,0.1-0.3,0.1-0.4c0.1,0.1,0.1,0.1,0.1,0.1s-0.1,0.1-0.1,0.2v1.2c0,0.5,0,0.8,0,1.1
		c0,0.2,0,0.5,0,0.7c0.2,0,0.6-0.2,1.1-0.6c0.5-0.4,0.9-0.6,1.3-0.7c0,0,0.1-0.1,0.2-0.1l0.1-0.1l0.1-0.1l1.7-0.7
		c0.1-0.1,0.1-0.2,0.1-0.1s0,0,0.2-0.1c0.2-0.2,0.3-0.4,0.3-0.6s0-0.4,0-0.5l0.3-2.5c0-0.2,0-0.3-0.1-0.3s0-0.1,0.1-0.4
		c0,0,0-0.3,0-0.8C140.9,74.4,140.8,74.1,140.7,74z"/>
	
		<linearGradient id="XMLID_28_" gradientUnits="userSpaceOnUse" x1="-210.5856" y1="-195.7901" x2="-209.5856" y2="-195.7901" gradientTransform="matrix(0.15 0.3464 0.2598 -0.2 197.3639 102.8929)">
		<stop  offset="0" style="stop-color:#E1BE29"/>
		<stop  offset="0.25" style="stop-color:#BC9908"/>
		<stop  offset="1" style="stop-color:#F7DB63"/>
	</linearGradient>
	<path id="XMLID_392_" class="st27" d="M114.9,69.1c0,0.2,0,0.3-0.1,0.2c0-0.1,0-0.1,0.1,0.2c0.1,0,0.1-0.1,0.2-0.1c0,0,0-0.1,0-0.3
		C115.1,69.1,114.9,69.1,114.9,69.1z"/>
	
		<linearGradient id="XMLID_29_" gradientUnits="userSpaceOnUse" x1="89.4072" y1="88.0044" x2="90.4072" y2="88.0044" gradientTransform="matrix(3.6222 9.0932 6.2739 -5.25 -740.4821 -287.3833)">
		<stop  offset="0" style="stop-color:#E1BE29"/>
		<stop  offset="0.25" style="stop-color:#BC9908"/>
		<stop  offset="1" style="stop-color:#F7DB63"/>
	</linearGradient>
	<path id="XMLID_393_" class="st28" d="M141,65.1c0-0.2,0-0.4,0-0.6c0-0.3,0.1-0.4,0-0.4c0,0-0.1-0.1-0.1-0.3
		c-0.1-0.4-0.1-0.6-0.1-0.6s0-0.2-0.2-0.4c-0.1,0-0.2,0-0.3,0s-0.2,0.1-0.4,0.1c-0.5,0.1-0.8,0.1-0.9,0.2c-0.1,0-0.4,0.1-0.8,0.2
		c-0.1,0-0.1,0.1-0.2,0c0,0-0.1,0-0.2,0c-0.2,0.1-0.3,0.2-0.4,0.3c-0.1,0.1-0.3,0.3-0.4,0.5c-0.1,0.1-0.2,0.2-0.4,0.4
		c-0.2,0.2-0.3,0.4-0.3,0.6c-0.1,0.2-0.2,0.5-0.2,0.7c-0.1,0.2-0.2,0.4-0.2,0.5c-0.1,0.1-0.2,0.3-0.2,0.4c0,0-0.1,0.1-0.2,0.1
		l-0.1,0.1V67l-0.1,0.2c0,0.1,0,0.1,0,0.2c0,0,0,0.1-0.1,0.2s-0.2,0.2-0.2,0.2c0,0.1-0.1,0.2-0.1,0.2c-0.1,0.1-0.2,0.2-0.2,0.2
		c-0.1,0.1-0.1,0.1-0.2,0.2c0,0.1-0.1,0.3-0.2,0.7c-0.1,0.4-0.1,0.6-0.1,0.7c0,0.2,0,0.3,0,0.2c0-0.1,0,0,0,0.2c0,0.5,0,0.8-0.1,0.9
		c0,0.1-0.1,0.2-0.1,0.5c0,0.2-0.1,0.6-0.1,0.9c0,0.2-0.1,0.4-0.1,0.5s0,0.2,0.2,0.3c0.1,0,0.4,0,0.8-0.2c0.5-0.1,0.7-0.2,0.8-0.2
		l2.4-1.3c0.1-0.1,0.3-0.2,0.5-0.3c0.2-0.1,0.3-0.2,0.4-0.2c0.1-0.1,0.2-0.2,0.4-0.3c0.2-0.1,0.4-0.3,0.6-0.3c0.2-0.2,0.4-0.6,0.5-1
		c0.1-0.2,0.1-0.3,0.1-0.4s0-0.2,0-0.4c0-0.2,0.1-0.3,0.1-0.2c0,0.1,0.1,0.1,0.1-0.1s0-0.3,0-0.2c0,0.1,0,0.1,0-0.1c0,0,0-0.1,0-0.2
		s0-0.1,0-0.2s0.1-0.2,0.1-0.2s0-0.1-0.1-0.3l0.1-1.4C141,65.6,141,65.3,141,65.1z"/>
	
		<linearGradient id="XMLID_30_" gradientUnits="userSpaceOnUse" x1="90.9246" y1="88.5551" x2="91.9246" y2="88.5551" gradientTransform="matrix(3.9 11.7299 6.755 -6.7722 -808.1235 -385.5731)">
		<stop  offset="0" style="stop-color:#E1BE29"/>
		<stop  offset="0.25" style="stop-color:#BC9908"/>
		<stop  offset="1" style="stop-color:#F7DB63"/>
	</linearGradient>
	<path id="XMLID_394_" class="st29" d="M149.6,80.9c-0.3-0.2-0.7-0.3-1.3-0.4c-0.5-0.1-1.2-0.1-2-0.1c-0.1,0-0.1,0-0.2,0
		c0.1,0,0.1-0.1-0.1,0c-0.4,0.1-0.9,0-1.4,0s-0.8,0.5-1,1.4c0,0.2-0.1,0.3,0,0.4c0,0.1,0,0.2,0,0.3c0,0.2-0.1,0.3-0.1,0.3
		s0,0-0.1,0.2c0,0.1-0.1,0.3-0.1,0.7s-0.1,0.6-0.1,0.8s0,0.4,0,0.3c0,0,0,0.1-0.1,0.3c0,0.1,0,0.1,0,0.1s0,0.1,0,0.2v0.1
		c0,0,0,0,0,0.1c0,0.2-0.1,0.3-0.1,0.3c0-0.1,0,0,0.1,0.3c0,0.1,0.1,0.3,0,0.6c0,0.3-0.1,0.6-0.2,0.8c-0.1,0.6-0.1,1.2,0,2
		s0.1,1.3,0,1.7c-0.1,0.6-0.1,0.9-0.2,1.1c0,0.2,0.1,0.4,0.3,0.7l0.2,0.3c0.3,0.3,0.6,0.5,0.9,0.5c0.2,0,0.4-0.1,0.5-0.2
		c0.1-0.1,0.2-0.2,0.4-0.3c0.1-0.1,0.2-0.1,0.2-0.1s0.1-0.1,0.1-0.2c0-0.2,0.1-0.3,0.2-0.4c0.1-0.1,0.2-0.1,0.2-0.1
		c0.1,0,0.1,0,0.2-0.1c0.6-0.5,1-1,1.3-1.6s0.5-1.2,0.7-1.7c0.2-0.6,0.4-1.2,0.5-1.9c0.2-0.7,0.5-1.3,0.9-1.9
		c0.4-0.7,0.7-1.3,0.9-1.8s0.3-1.2,0.3-2c-0.1,0-0.3-0.1-0.5-0.2C150.2,81.2,149.9,81.1,149.6,80.9z"/>
	
		<linearGradient id="XMLID_31_" gradientUnits="userSpaceOnUse" x1="70.0621" y1="67.9565" x2="71.0621" y2="67.9565" gradientTransform="matrix(1.4035 3.7239 2.431 -2.15 -119.0169 -51.2752)">
		<stop  offset="0" style="stop-color:#E1BE29"/>
		<stop  offset="0.25" style="stop-color:#BC9908"/>
		<stop  offset="1" style="stop-color:#F7DB63"/>
	</linearGradient>
	<path id="XMLID_395_" class="st30" d="M144,66l0.1,1.5c0.2,0,0.4,0,0.4-0.1s0.1-0.3,0.3-0.6l0.7-0.9c0.5-0.6,0.9-1,1-1.3
		c0.2-0.3,0.2-0.5,0.1-0.6c-0.1-0.1-0.3-0.2-0.5-0.2s-0.4-0.1-0.6-0.2l-0.4-0.2l-0.7-0.2c-0.1,0.2-0.1,0.3-0.2,0.3
		c0,0-0.1,0.1-0.2,0.3c-0.1,0.5-0.2,0.8-0.1,0.9c0,0.1,0.1,0.4,0.1,0.7c0,0.1,0,0.2-0.1,0.2C144.1,65.6,144,65.7,144,66z"/>
	
		<linearGradient id="XMLID_32_" gradientUnits="userSpaceOnUse" x1="-2.5683" y1="17.5164" x2="-2.5683" y2="17.5164" gradientTransform="matrix(0.5 0.866 0.866 -0.5 235.9145 81.3824)">
		<stop  offset="0" style="stop-color:#E1BE29"/>
		<stop  offset="0.25" style="stop-color:#BC9908"/>
		<stop  offset="1" style="stop-color:#F7DB63"/>
	</linearGradient>
	<path id="XMLID_396_" class="st31" d="M249.8,70.4L249.8,70.4L249.8,70.4z"/>
	
		<linearGradient id="XMLID_33_" gradientUnits="userSpaceOnUse" x1="87.7054" y1="82.8118" x2="88.7054" y2="82.8118" gradientTransform="matrix(2.75 12.1243 4.7632 -7 -436.929 -457.4461)">
		<stop  offset="0" style="stop-color:#E1BE29"/>
		<stop  offset="0.25" style="stop-color:#BC9908"/>
		<stop  offset="1" style="stop-color:#F7DB63"/>
	</linearGradient>
	<path id="XMLID_397_" class="st32" d="M197,34.2L197,34.2c0,0.1,0,0.2,0.1,0.2c0,0,0.1,0.1,0.2,0.2c0.2,0,0.2,0,0.3-0.1
		c0,0,0.1,0,0.1-0.1h0.1h0.1l0.8-0.4c0.1-0.1,0.2-0.1,0.4-0.1s0.3-0.1,0.5-0.1c0.1,0,0.2,0,0.4,0s0.4,0,0.5,0.1c0,0,0.1,0.1,0.1,0.2
		s0.1,0.2,0.1,0.2c0,0.1,0,0.2,0,0.2s-0.1,0.1-0.1,0.2c0.1,0.1,0.2,0.2,0.1,0.3c0,0.1-0.1,0.2-0.3,0.3c-0.1,0.1-0.3,0.2-0.4,0.3
		c-0.2,0.1-0.3,0.2-0.3,0.3l-0.1,0.1l-0.1,0.1c0,0,0,0-0.1,0l-0.1,0.1c-0.1,0-0.1,0-0.1,0l0,0c0,0-0.1,0-0.2,0.1
		c-0.1,0.1-0.2,0.1-0.3,0.2s-0.2,0.1-0.2,0.2c-0.1,0.1-0.1,0.1-0.1,0.2c0,0-0.1,0-0.2,0.1c-0.1,0-0.2,0.1-0.2,0.1c0,0.1,0,0.1,0,0
		c0,0,0,0,0.1,0.1v0.1c0,0.1,0,0.1,0,0.1s0,0,0.1,0.1s0.2,0.2,0.3,0.2s0.2,0,0.3-0.1h0.1c0.1,0,0.2,0,0.1,0c0,0,0.1,0,0.3,0
		s0.4,0,0.6,0c0.2,0,0.3,0.1,0.4,0.1c0.1,0,0.2,0,0.2,0c0.1,0,0.1,0,0.2,0c0.1,0,0.2,0,0.2,0.1c0,0,0.1,0.1,0.1,0.2
		c0.1,0,0.2,0,0.2,0s0,0,0.1,0.1c0,0.1,0,0.2,0,0.3c0,0.1,0,0.2,0,0.3c0,0.1,0,0.2-0.1,0.3c0,0-0.1,0.1-0.2,0.1
		c-0.1,0-0.1,0.1-0.2,0.1c0.1,0.1,0.3,0.2,0.6,0.3c0.2,0.1,0.4,0.2,0.6,0.3h0.2c0,0,0-0.1,0.1-0.2c0-0.1,0-0.2,0-0.3
		c0-0.4,0-0.7,0-1c0-0.2,0-0.5-0.1-0.9c0-0.1,0-0.2,0-0.3c0-0.1,0-0.2-0.1-0.3c0-0.1,0-0.2,0-0.3c0-0.1,0-0.2,0-0.3
		c0-0.1,0-0.1,0-0.2v-0.1c0-0.2,0-0.4,0-0.6s0-0.4,0-0.6s0-0.4,0-0.6s0-0.4,0-0.6s0-0.4,0-0.6s0.1-0.4,0.1-0.6s0-0.4,0.1-0.6
		c0-0.2,0.1-0.5,0.1-0.6l0.1-1.2c0-0.2,0-0.4,0-0.6s0-0.4,0-0.6c0-0.3,0-0.7,0-1.1s-0.1-0.8-0.3-1.2c-0.1-0.1-0.1-0.2-0.1-0.3
		c-0.4-0.2-0.9-0.3-1.4-0.3c-0.1,0-0.2,0-0.2,0h-0.1h-0.1c-0.1,0-0.2,0-0.3,0s-0.2,0.1-0.3,0.1c-0.1,0.1-0.3,0.1-0.3,0.1
		c-0.2,0.1-0.4,0.2-0.6,0.5c-0.1,0.1-0.2,0.3-0.2,0.5s-0.1,0.3-0.1,0.5s-0.1,0.3-0.1,0.4s0,0.2-0.1,0.2c0,0.1-0.1,0.2-0.2,0.2
		c-0.1,0.1-0.2,0.1-0.3,0.2c0,0.1,0,0.2,0,0.2c0,0.1,0,0.1,0,0.2c-0.1,0.1-0.1,0.3-0.1,0.3c0,0.1,0,0.1,0,0.1v0.1c0,0,0,0.1,0,0.2
		s0,0.1-0.1,0.1l-0.1,0.1l0.1,0.2c0.1,0,0.2,0,0.3,0s0.2,0,0.2,0c0.1,0,0.2,0,0.2-0.1c0,0,0.1,0,0.1-0.1c0,0,0.1,0,0.2-0.1
		c0.1,0,0.3,0,0.5,0h0.1c0,0,0,0,0.1,0s0.2,0,0.2,0c0.1,0,0.1,0,0.2,0c0.2,0,0.2,0,0.2,0s0.1,0,0.2,0c0.1,0,0.2,0,0.2,0
		c0.1,0,0.1,0,0.2,0c0.3,0,0.4,0,0.4,0.1c0,0,0.1,0.1,0.1,0.3c0,0,0.1,0.2,0.1,0.4c0.1,0.2,0.1,0.4,0,0.5c-0.2,0.2-0.3,0.3-0.4,0.3
		c-0.1,0-0.3,0.1-0.4,0.1c-0.1,0-0.2,0.1-0.4,0.2c-0.1,0.1-0.3,0.3-0.4,0.6c-0.1,0.2-0.1,0.2-0.1,0.2s-0.1,0.1-0.1,0.2
		c-0.1,0.1-0.1,0.1-0.2,0.2c-0.1,0-0.2,0-0.2,0c0-0.1-0.1-0.1,0-0.2c0,0,0-0.1,0.1-0.2c0-0.1,0-0.2,0-0.3c0,0,0-0.1,0.1-0.1
		c0,0,0-0.1,0-0.2s0-0.2,0-0.4c-0.1,0-0.2,0-0.4,0c-0.1,0-0.2,0-0.3,0.2s-0.2,0.3-0.2,0.3s-0.1,0.1-0.3,0.1c0,0.1,0,0.1,0,0.2
		s0,0.1-0.1,0.1c-0.1,0.1-0.1,0.1-0.2,0.1h-0.1c0,0,0,0-0.1,0.1c0,0,0,0.1-0.1,0.2c0,0.1,0,0.2,0,0.2s0,0,0,0.1s-0.1,0.1-0.1,0.1
		s0,0.1,0.1,0.2C197.1,34,197.1,34.1,197,34.2z"/>
	
		<linearGradient id="XMLID_34_" gradientUnits="userSpaceOnUse" x1="101.5156" y1="100.2437" x2="102.5156" y2="100.2437" gradientTransform="matrix(148.9 132.969 257.9024 -76.7697 -40883.5391 -5809.2983)">
		<stop  offset="0" style="stop-color:#E1BE29"/>
		<stop  offset="0.25" style="stop-color:#BC9908"/>
		<stop  offset="1" style="stop-color:#F7DB63"/>
	</linearGradient>
	<path id="XMLID_400_" class="st33" d="M322.4,61.2c-0.3-1.1-0.6-2.2-0.9-3.3c-0.7-2.2-1.5-4.3-2.6-6.4c-1-2.1-2.1-4.2-3.4-6.2
		c-0.6-1-1.3-1.9-2-2.9c-0.3-0.5-0.7-0.9-1.1-1.4c-0.4-0.3-0.9-0.7-1.3-1c-6.8-5.4-14.2-11.3-21.3-16.5c-7.1-5.3-13.8-9.9-19-13.1
		c-5.2-3.3-8.9-5.2-9.6-5.5c-2.7-1.4-5.1-2.6-7.3-3.8c-2-1-4-2.1-5.9-3.1c-1.8-0.9-3.3-1.7-4.7-2.4c-1.4-0.7-2.7-1.2-3.8-1.7
		c-4.4-1.9-6.8-2.1-8.7-1.7c-2,0.4-3.6,1.3-6.5,1.4c-0.7,0-1.5,0-2.4-0.2c-0.9-0.1-1.9-0.4-3-0.7c-1.7-0.5-3.7-1.3-6-2.6
		c0.2,0.1,0.5,0.3,0.7,0.4c0.9,0.6,1.7,1.2,2.4,1.8c1.5,1.3,2.8,2.6,3.8,4s1.7,2.8,2.1,4.2c0.4,1.3,0.4,2.6,0.1,3.6
		c-0.3,1-0.9,1.9-2,2.3c-1,0.4-2.4,0.5-4.2,0.1c-0.9-0.2-1.8-0.6-2.8-1.1s-2.2-1.2-3.4-2c-2.4-1.7-5.2-4-8.3-7.2
		c-1.1-1.1-2.2-2.3-3.3-3.4c-1.1-1.1-2.1-2.1-3-3c-1.9-1.9-3.6-3.5-5.1-4.8c-3-2.7-5.3-4.3-7.2-5.3c-1.9-0.9-3.3-1-4.4-0.5
		c-1.2,0.4-2,1.4-2.8,2.8c-0.7,1.4-1.5,2.9-2.2,4.6c-0.7,1.6-1.4,3.4-2.4,4.7c-0.9,1.3-2,2.4-3.3,2.9c-0.6,0.3-1.4,0.3-2.2,0.2
		s-1.6-0.4-2.5-1s-1.7-0.7-2.4-0.7c-0.4,0-0.7,0.1-1,0.2c-0.3,0.1-0.7,0.2-1,0.4c-1.3,0.7-2.6,1.7-4.2,1.8c-1.3-0.7-2.6-1.4-3.8-1.9
		s-2.4-0.8-3.5-1.1c-2.2-0.4-4.3-0.5-6.3-0.1c-1,0.2-2,0.5-2.9,0.9c-0.5,0.2-1,0.4-1.5,0.6c-0.5,0.2-1,0.4-1.5,0.6
		c-1,0.5-1.9,1-2.9,1.6c-0.5,0.3-1,0.6-1.4,0.9c-0.5,0.3-1,0.7-1.5,0.9c-2,1.2-4.1,2.6-6.1,3.9l-1.6,1c-0.5,0.3-1.1,0.6-1.6,0.9
		c-1.1,0.6-2.2,1.1-3.3,1.6s-2.3,1-3.4,1.4c-0.6,0.2-1.1,0.4-1.8,0.6c-0.6,0.1-1.2,0.3-1.8,0.4c-2.4,0.4-4.9,0.5-7.5,0.2
		c-1.3,0.2-2.6,1.1-3.9,2.7c-1.3,1.5-2.5,3.6-3.7,6c-1.2,2.3-2.4,4.9-3.6,7.4c-0.6,1.2-1.2,2.5-1.8,3.6c-0.6,1.1-1.3,2.2-1.9,3.2
		c-1.8,1.3-3.7,0-5.5-1.6s-3.4-3.5-4.9-3.6c-4.5,0.1-8.8,5.2-13.2,11.8c4.6-2.5,8-6.4,12.9-8.4c1.6-0.5,0.9,4.5-0.5,10.1
		s-3.7,11.7-4.9,13.8c-1.1,3.4-1.9-13.9-3-10.5c-2.1-0.1-4.3,6.7-6.9,10.9c-1.2,3.4-0.1-12.1-0.7-10.4c-1.6,1.6-3.4,7.2-5,12
		c-1.6,4.7-3,8.5-3.9,6.2c-1.3-2.5-2.5-5.1-3.6-7.6c-0.8-1-1.5-1.7-2.5-1.3c-0.7,1.2-1.4,2.4-2.1,3.7c-5,8.3-10.8,15.6-16.3,21.4
		c0,0.4-0.1,0.9-0.1,1.4c2.8-1,5.2,0.6,7,9.6c-0.5-3.4,0.1-6.9,1.5-7.5c0.1,2.6,0.2,5.3,0.2,7.9c-2.9,3.9-5.9,7.8-6.9-3.7
		c0,0-1.5,3.3-2.2,4.9c-0.5-2.3,0.1-7.1,0.5-11.2c-0.6,0.2-1.2,0.5-1.8,0.9c0.1,3.9,0.7,8.5,1.4,12.1c0.6,3.6,1.3,6.2,1.3,6.2
		c3.6,0.3,7,0.9,10.4,1.8c3.3,0.8,6.6,1.7,9.8,2.9c0.8-3,1.4-6.4,1.9-4.5c0.3,2.8,0.7,4.5,1.1,5.7c0.9,0.4,1.9,0.8,2.8,1.2
		c0.4-0.3,0.7-0.7,1.1-1.1c0,0,0,0,0-0.1c0.7-1.7,0.7-4.1,0.5-6.4c-0.3-1.7-0.5-3.7-0.6-5.7c0.1,1.3,0.4,3.5,0.6,5.7
		c0.3,2,0.7,3.6,1.2,4.6c0.4-0.4,0.9-0.7,1.3-0.9c-0.4,0.3-0.7,0.7-1.1,1.2c-0.1-0.1-0.1-0.2-0.2-0.3c-0.6,0.6-1.2,1.3-1.8,1.9
		c-0.2,0.4-0.4,0.9-0.6,1.3c2.1,1,4.3,1.8,6.5,2.8c0.5-0.4,1-0.7,1.5-1.2c1.7-2,3.4-3.9,4,3.7c0.4,0.2,0.8,0.3,1.2,0.6
		c-0.1-0.5-0.1-0.9-0.2-1.4c0.2,0.5,0.3,1,0.4,1.5c1.6,0.8,3.3,1.6,5,2.4c3.3,1.5,6.6,2.8,10.1,4.2c1.4,0.6,2.8,1.3,4.2,1.8
		c1.4,0.6,2.8,1.1,4.2,1.5c2.8,0.8,5.5,1.5,8.3,2.1c1.4,0.3,2.8,0.6,4.2,0.8l2.1,0.3l2.1,0.2c2.8,0.3,5.6,0.5,8.4,0.6
		c1.4,0.1,2.8,0.2,4.2,0.3s2.8,0,4.2,0c2.8,0,5.7,0,8.6,0.1c0.7,0,1.5,0,2.2,0.1c0.7,0,1.5,0,2.2,0c1.5,0,3,0,4.5,0s3,0.1,4.6,0.2
		c1.5,0.1,3.1,0.2,4.7,0.2c3.4,0.2,6.9,0.6,10.4,1.1c0.9,0.1,1.8,0.2,2.6,0.4c0.9,0.1,1.8,0.2,2.6,0.3c1.8,0.2,3.5,0.5,5.3,0.7
		c1.8,0.3,3.6,0.6,5.4,0.9c1.8,0.3,3.7,0.6,5.5,0.8c1.8,0.3,3.7,0.6,5.6,1c1.9,0.4,3.8,0.8,5.7,1.1c3.8,0.6,7.5,0.7,11.1,0.3
		c3.5-0.5,7-1.5,10.3-2.6c0.8-0.3,1.7-0.6,2.5-0.9l2.4-1.1c1.6-0.7,3.2-1.5,4.8-2.3l2.4-1.2c0.8-0.4,1.6-0.8,2.4-1.3
		c1.6-0.9,3.2-1.7,4.8-2.6c1.6-0.8,3.3-1.6,4.9-2.4c1.6-0.8,3.3-1.6,5.1-2.4c1.7-0.7,3.5-1.4,5.3-2c1.8-0.7,3.7-1.3,5.7-1.8
		c2-0.5,4-0.9,6.1-1.3c2.1-0.4,4.3-0.7,6.7-0.9c4.7-0.3,9.8-0.5,15.6-0.1c2.1,0.1,4.2-0.4,6.3-1.2s4.1-1.9,6-3.4
		c1.9-1.5,3.8-3.2,5.6-5.2c0.5-0.5,0.9-1,1.3-1.5c0.4-0.5,0.9-1.1,1.3-1.6c0.9-1.1,1.7-2.2,2.5-3.4s1.6-2.3,2.4-3.5s1.5-2.5,2.2-3.7
		s1.4-2.5,2.1-3.7c0.7-1.3,1.3-2.6,2-3.8c0.6-1.3,1.2-2.5,1.8-3.7c0.6-1.3,1.2-2.5,1.7-3.7c1.1-2.4,2.2-4.7,3.1-6.7
		C322.9,63.4,322.6,62.3,322.4,61.2z M79.3,104.6c1.6-2.7,3.6,0.1,5.2,7.7C82.3,118.8,80.6,112.4,79.3,104.6z M149.6,28.5h0.3
		l1.8,0.7c0.3,0,0.5-0.7,0.7-1.4h0.2c0.3,0,0.6,1.4,0.9,4.1c0,2.9-0.3,4.3-0.9,4.3c-2-1.1-3.1-2.7-3.1-4.7c-0.2,0-0.4-0.9-0.6-2.3
		L149.6,28.5z M138.1,37.4v0.5v0.5l0.3,1c0,0.4-0.2,0.6-0.5,0.6h-0.3c-0.2,0-0.8-0.1-1.7-0.3c-0.8-0.4-1.2-0.6-1.2-1.2l-0.1-0.5
		l0.1-1v-0.6c0-0.2-0.1-0.4-0.2-0.5c0.1-0.2,0.1-0.4,0.1-0.7c0-0.2,0.1-0.9-1.3-2.2v-0.2c1.3,0.4,2.7,1,3.5,1.9
		C137.3,35.6,137.8,36.5,138.1,37.4z M113.2,24.4c0.9,0.4,1.4,0.7,2,0.7h0.8c1,0,3.8-1.1,8.4-3.1l2.8-1.3v-0.3
		c0-0.3-0.1-0.6-0.2-0.8v0.1h-0.3l-0.2-0.3c-0.1,0-0.2,0-0.3,0l-0.1-0.3c0,0,0.1,0,0.2,0l0.2,0.3c0.2,0,0.4,0.1,0.5,0.3l0.2-0.6
		v-0.4c0,0,0.6-0.1,0.6-0.3c-0.2-0.6-0.3-1.8-0.4-3.4c-0.2-0.6-0.3-1-0.6-1.1c-0.9-0.4-2.3-0.6-2.3-0.7V13l1.8-0.4l0.2,0.1v-0.1l0,0
		v-0.1c0-0.2,0-0.4-1.3-0.6v-0.1l0.1-0.1l0,0l1.2,0.1v-0.1c0,0.1,0.3,0.1,0.6,0.1l0,0c0.7,0,1.4,0.6,2.5,1.7c0.8,1.2,1,2.2,1,3.2v1
		l0.1,0.9c0.4,0.2,0.9,0.5,1.4,0.5h1.5c0.9,0,1.6,0,2.1,0.5c1.4,0.1,2.1,0,2.1,0.2s-0.3,0.4-0.8,0.5l-0.3,0.3l-0.5-0.1
		c-1.5,1.2-2.5,1.7-3.1,1.7c-2.2,0.5-3.3,0.9-3.3,1.2c-0.7,1.9-1.2,3.9-1.5,6.1c-1,3.1-1.7,4.6-2.2,4.6c-0.9,1-1.8,1.5-2.9,1.5
		c0,0.1-0.8,0.2-2.3,0.3c-0.6,0-1.4-0.1-2.4-0.4c-1-0.9-1.5-1.5-1.5-1.9c-0.1,0-0.2-0.3-0.2-0.3h0.2c0.8,0,1.4,0.3,1.9,0.3
		c0.2-0.2,0.5-0.3,1.1-0.3c2.4-0.9,4-2,4.9-3.4c1-2,1.5-3.2,1.5-3.6l0.1-1.4v-0.5v-0.5h-0.3l-7.3,3.1c-1.4,0.4-2.5,0.9-3.1,0.9h-0.1
		c-0.6,0-1-0.6-1.9-1.7c-0.1,0-0.7-0.4-0.7-1.1V25C113.1,24.5,113,24.4,113.2,24.4z M157.6,82c0,0.2-0.1,0.3-0.2,0.4
		c-0.1,0-0.2,0.1-0.3,0.2c0,0.1-0.1,0.2,0,0.2c0,0,0,0.1-0.2,0.2l-0.1,0.2c-0.2,0.3-0.3,0.5-0.3,0.6c-0.1,0.2-0.2,0.4-0.3,0.5
		s-0.3,0.2-0.5,0.5c-0.1,0.1-0.1,0.2-0.2,0.3c0,0.1-0.1,0.2-0.2,0.3c-0.1,0.1-0.2,0.1-0.2,0.2c-0.1,0-0.2,0.1-0.3,0.2
		c-0.2,0.2-0.5,0.7-0.7,1.3c-0.2,0.7-0.4,1.3-0.7,2.1c-0.2,0.7-0.5,1.5-0.7,2.2c-0.3,0.7-0.5,1.2-0.8,1.6c-0.1,0.2-0.1,0.4-0.2,0.4
		c0,0-0.1,0.1-0.2,0.3c-0.1,0.2-0.1,0.3-0.2,0.3l-0.1,0.1c-0.1,0.1-0.1,0.1-0.2,0.2c0,0.1-0.1,0.3-0.1,0.6c0,0.2-0.1,0.3-0.1,0.4
		c0,0,0,0.1-0.1,0.2c-0.1,0.2-0.2,0.4-0.2,0.6c-0.1,0.1-0.2,0.3-0.4,0.5c-0.3,0.2-0.6,0.6-0.8,1s-0.5,0.7-0.8,0.9
		c-0.1,0.1-0.2,0.1-0.3,0.2c-0.1,0-0.2,0.1-0.3,0.3l-0.1,0.1c-0.1,0.1-0.1,0.1-0.1,0.1s0,0.1-0.1,0.2c-0.2,0-0.4,0-0.4-0.1
		s-0.1,0-0.4,0.1c-0.2,0.1-0.4,0.2-0.5,0.2c-0.1,0.1-0.3,0.1-0.5,0.1s-0.4,0.1-0.6,0c-0.1,0-0.4,0-0.7,0c-0.1-0.2-0.2-0.5-0.5-1
		c-0.2-0.4-0.4-0.7-0.5-0.9c0-0.3-0.1-0.4,0-0.5c0,0-0.1-0.1-0.3-0.1c0.1,1.1,0.1,1.9,0.2,2.4c0.1,0.5,0.1,1.3,0.1,2.4v0.3v0.2v0.4
		c0,0.1,0.2,0.2,0.2,0.3c0.1,0.1,0.2,0.2,0.3,0.5l0.1,0.8c0.1,1.3,0,2.3-0.3,3.2s-0.8,1.4-1.3,1.6c-0.5,0.2-1.1-0.1-1.7-0.7
		c-0.6-0.6-1-1.8-1.2-3.4c0-0.2,0-0.5,0-0.9c0-0.3,0-0.6,0.1-0.8c0-0.1,0.1-0.1,0.1-0.1s0.1,0,0.2-0.1c0.1-0.1,0.2-0.2,0.3-0.3
		s0.3-0.1,0.3-0.2c0,0,0.4-0.1,0.4-0.2c0-0.1,0-0.3,0-0.6c0-0.5,0-0.9,0-1.3c0-0.4,0-0.7,0-1s-0.3-0.7-0.3-1s-0.2-0.8-0.2-1.3
		c0-0.2,0-0.3,0-0.4c0-0.1,0-0.2,0-0.4s0.1-0.4,0.1-0.5s0.2-0.3,0.2-0.5s0.2-0.2,0.2-0.2s0-0.1,0-0.3s-0.3-0.3-0.2-0.5
		c0-0.2-0.3-0.3-0.4-0.6c0-0.1-0.1-0.2-0.2-0.3c-0.2-0.1-0.3-0.2-0.5-0.4c-0.1-0.2-0.3-0.3-0.4-0.5l-1.6-1.3c0,0,0,0-0.1-0.1
		l-0.6-0.5c0,0-0.1,0-0.1-0.1l-0.4-0.4c-0.3-0.2-0.4-0.4-0.4-0.4s-0.1-0.2-0.3-0.4c-0.2-0.1-0.4-0.4-0.8-0.8
		c-0.4-0.4-0.6-0.6-0.8-0.6l-0.5,1.3c-0.1,0.2-0.2,0.5-0.1,0.6c0.1,0.2,0,0.4-0.1,0.5c0,0.1-0.1,0.2-0.1,0.2c0,0.1,0,0.2,0,0.3
		c0,0.2-0.1,0.4-0.1,0.6c0,0.1,0,0.3,0,0.5c0,0.3-0.1,0.7-0.3,1c-0.1,0.4-0.2,0.7-0.2,0.9c0,0.4,0,0.8,0,1.3s-0.1,0.8-0.2,1.1
		c-0.2,0.4-0.4,0.7-0.6,1c-0.2,0.2-0.3,0.4-0.4,0.6c-0.1,0.1-0.1,0.2-0.2,0.2c0,0.1-0.1,0.2-0.3,0.2l-1.3-0.1
		c-0.1-0.1-0.1-0.2-0.1-0.2s0-0.1-0.1-0.2c-0.1-0.1-0.1-0.3-0.1-0.4c0-0.2,0-0.3-0.1-0.4c0-0.1-0.1-0.1,0-0.1c0,0,0,0-0.1-0.2
		c0-0.1-0.1-0.2-0.1-0.2c0-0.1,0-0.1-0.1-0.2c0-0.1-0.1-0.2-0.1-0.2l0.1-1.5l0.2-0.4v-0.1c0,0.1,0,0,0-0.2l0.1-0.1l0.1-0.1
		c0-0.1,0.1-0.2,0.1-0.2c0-0.1,0.1-0.2,0.2-0.3c0-0.2,0.1-0.3,0-0.3c0-0.1,0-0.2,0.1-0.3s0.1-0.2,0.1-0.2s0.2-0.1,0.2-0.3v-0.2V92
		v-0.1c0,0.1,0,0,0-0.2s0-0.4,0.1-0.6c0.1-0.3,0.1-0.5,0.1-0.6s0-0.2,0.1-0.5c0,0,0.1-0.2,0.2-0.5c0.1-0.3,0.2-0.5,0.2-0.8
		c0.1-0.2,0.1-0.4,0.1-0.6c0-0.2-0.1-0.1-0.3,0.1c-0.3,0.3-0.6,0.5-0.7,0.5c-0.2,0.1-0.4,0.2-0.7,0.4c-0.2,0.1-0.3,0.2-0.4,0.3
		c-0.1,0.1-0.2,0.2-0.5,0.4c-0.2,0.1-0.5,0.2-0.8,0.2c-0.3,0.1-0.6,0-0.9-0.2c-0.4-0.2-0.6-0.5-0.7-0.8c-0.1-0.3-0.2-0.7-0.3-1.1
		c0.1-0.1,0.2-0.2,0.2-0.1c0,0,0.1,0,0.2-0.1c0-0.3,0-0.5,0.1-0.6c0-0.1,0.1-0.2,0.2-0.5c0.1-0.4,0.1-0.7,0-0.9s-0.2-0.5-0.3-0.8
		c-0.2-0.8-0.4-1.4-0.5-1.8c-0.1-0.4-0.1-0.8-0.1-1.1s0.1-0.6,0.1-0.8s0.1-0.5,0.1-0.8c0-0.4-0.1-0.6-0.1-0.7c0,0,0-0.3-0.1-0.8
		c0-0.2-0.1-0.4-0.1-0.4s0-0.2,0-0.4c0-0.1-0.1-0.3-0.1-0.5s-0.1-0.4-0.1-0.5c-0.2-0.5-0.3-0.9-0.3-1.1s0.2-0.5,0.5-1
		c0-0.1,0.1-0.1,0.1-0.2c0,0,0.1,0,0.2-0.1c0.3-0.1,0.6-0.2,0.7-0.2c0.2,0,0.3-0.1,0.5-0.2c0.1-0.1,0.1-0.1,0.1-0.1s0.1,0,0.2-0.2
		c0.1-0.1,0.2-0.1,0.2-0.2c0.1,0,0.1-0.1,0.2-0.1c0.5,0,0.8,0,1,0.1s0.5,0.2,0.9,0.4c0.4,0.1,0.8,0.1,1.2,0c0.6-0.1,1-0.2,1.3-0.2
		c0.2,0,0.5-0.4,0.7-1l0.2-2.1v-0.7c0-0.1-0.1-0.2-0.1-0.3c0-0.1-0.1-0.2-0.1-0.4c0-0.3-0.1-0.5-0.2-0.5c-0.1,0-0.2-0.2-0.2-0.6
		c-0.2,0-0.4,0-0.5,0s-0.3,0-0.5,0c-0.1,0-0.1-0.1-0.2-0.1c0,0-0.1-0.1-0.2-0.1c-0.1,0-0.4,0.1-0.9,0.2s-0.8,0.2-0.9,0.3l-0.4,0.3
		l-0.8,0.8l-2,2.7c-0.3,0.6-0.6,1.1-0.7,1.5c-0.1,0.4-0.2,0.7-0.3,0.7l-0.1,0.3c-0.1,0.1-0.1,0.3-0.2,0.5c0,0.2-0.1,0.4-0.1,0.6
		l-0.9,2.5c-0.1,0.3-0.2,0.6-0.3,0.8c-0.1,0.3-0.2,0.6-0.3,0.9c0,0.3-0.1,0.6-0.1,0.7c0,0.1-0.1,0.3-0.1,0.3c0,0.1-0.1,0.2-0.1,0.3
		s-0.1,0.2-0.2,0.4c-0.1,0.4-0.2,0.8-0.2,1.3c-0.1,0.4-0.1,0.8-0.2,1.3l-0.1,0.1c0,0.1,0,0.1,0,0.1l0,0l-0.1,0.2
		c-0.1,0.6-0.1,1.1-0.1,1.7c0,0.5,0,1.1-0.1,1.7c0,0.3-0.1,0.6-0.2,1c-0.1,0.4-0.1,0.7-0.1,1c0,0.2,0,0.6,0,1.1s0,0.9-0.1,1
		c0,0.2-0.1,0.4-0.1,0.5s-0.1,0.3-0.1,0.6c0,0.4,0,0.6,0,0.6s-0.1,0.2-0.1,0.4l-0.1,0.9c0,0.3,0,0.6,0.1,0.8
		c0.1,0.3,0.1,0.5,0.1,0.8c-0.1,0.3-0.2,0.5-0.2,0.5s-0.1,0.2-0.1,0.5l-0.1,1.6c-0.2,0.2-0.4,0.3-0.6,0.3s-0.3,0.1-0.6,0.2
		c-0.1,0-0.1,0.1-0.2,0.1c0,0-0.1,0-0.2,0c-0.3,0-0.4,0-0.5-0.1c0-0.1-0.1-0.1-0.3-0.2c-0.1,0-0.3,0-0.6,0.1c-0.3,0-0.5,0.1-0.6,0
		c-0.1,0-0.3,0-0.6,0c0-0.2-0.1-0.3,0-0.3c0,0,0,0-0.1-0.1s-0.2-0.2-0.4-0.2c-0.2-0.1-0.3-0.2-0.4-0.3c-0.1-0.1-0.2-0.2-0.2-0.3
		s-0.1-0.2-0.1-0.3c-0.2-0.4-0.4-0.7-0.4-0.9s-0.1-0.6-0.2-1.2c0-0.2-0.1-0.5-0.2-0.8c-0.2-0.3-0.2-0.6-0.1-0.9
		c0.1-0.2,0.1-0.6,0-1.1c-0.1-0.2-0.1-0.5-0.2-0.8c0-0.3-0.1-0.5-0.1-0.8c0-0.4-0.1-0.9-0.1-1.3c0-0.4-0.1-0.8-0.1-1.3v-0.1v-0.2
		c0-0.2-0.1-0.3-0.1-0.2c0-0.1-0.2-0.3-0.3-0.5c0-0.2,0-0.5,0-0.6c0.1-0.2,0.1-0.3,0-0.4c0,0,0-0.1-0.1-0.3c0-0.2-0.1-0.3-0.1-0.4
		c-0.1-0.3-0.1-0.4,0-0.4s0.1,0,0.1-0.2s0-0.3,0-0.2c0,0,0,0,0-0.1c-0.1-0.2-0.1-0.4-0.2-0.5c0-0.1-0.2-0.2-0.6-0.3
		c-0.3-0.1-0.5-0.2-0.5-0.3c-0.1-0.1-0.2-0.2-0.5-0.4c-0.2-0.1-0.3-0.2-0.4-0.2c-0.1-0.1-0.2-0.2-0.3-0.3c-0.1,0-0.1-0.1-0.1,0
		c0,0-0.1,0-0.3,0c-0.7-0.1-1.1-0.3-1.2-0.8c-0.1-0.4-0.2-0.8-0.4-1.3v-0.1v-0.1c-0.3-0.5-0.3-1.1-0.1-1.8c0-0.3,0.1-0.6,0.1-0.8
		c0-0.2,0-0.5,0-0.7c0-0.3,0-0.4-0.1-0.4c0,0,0,0,0.1-0.2c0.1-0.1,0.1-0.2,0.1-0.2s0-0.1,0-0.2c0.1-0.4,0.1-0.6,0.2-0.6
		c0,0.1,0.1,0,0.2-0.2c0.1-0.2,0.1-0.3,0.1-0.4s0-0.2,0.1-0.4c0.2-0.2,0.3-0.3,0.4-0.3c0.1,0,0.2-0.2,0.4-0.6
		c0.1-0.1,0.1-0.2,0.2-0.3c0-0.1,0.1-0.2,0.2-0.3c0.1-0.2,0.2-0.3,0.1-0.3c0,0,0-0.1,0.2-0.2c0.1-0.2,0.2-0.3,0.3-0.5
		s0.2-0.3,0.3-0.4c0-0.1,0.1-0.2,0.1-0.2c0-0.1,0.1-0.2,0.2-0.3l1-1.2c0.1-0.2,0.2-0.4,0.4-0.6c0.2-0.1,0.4-0.3,0.5-0.6
		c0.1-0.2,0.2-0.4,0.3-0.6c0.2,0,0.3,0.1,0.2,0.1c0,0,0,0.1,0.2,0.1c0-0.2,0.1-0.3,0.1-0.6c-0.2,0-0.3,0.1-0.4,0.1
		c0-0.2,0.2-0.5,0.4-0.9c0.2-0.3,0.5-0.6,0.7-0.6c-0.1-0.2-0.1-0.5,0.1-0.7c0.1-0.2,0.2-0.4,0.4-0.6l0.1-0.1
		c0.2-0.2,0.3-0.5,0.4-0.7c0.1-0.2,0.2-0.4,0.3-0.6c0.1-0.1,0.1-0.1,0.2-0.2c0,0,0.1-0.1,0.2-0.2l0.6-1c0.2-0.3,0.4-0.6,0.6-0.9
		c0.2-0.3,0.4-0.6,0.6-0.9l0.2-0.4c0.3-0.3,0.4-0.5,0.5-0.6c0-0.1,0.1-0.3,0.3-0.6c0.2-0.2,0.4-0.5,0.6-0.8c0.2-0.3,0.4-0.5,0.5-0.8
		c0.1-0.1,0.1-0.1,0.1-0.2c0,0,0-0.1,0.2-0.2c0.1-0.1,0.2-0.2,0.2-0.4c0.1-0.2,0.1-0.4,0.2-0.5c0-0.1,0.1-0.2,0.1-0.2
		c0-0.1,0-0.1,0.1-0.2s0.2-0.2,0.4-0.5c0-0.1,0.1-0.1,0.1-0.2c0,0,0.1-0.1,0.2-0.2l0.1-0.3c0-0.3,0.2-0.6,0.4-0.7
		c0.1-0.1,0.1-0.2,0.2-0.3c0-0.1,0.1-0.2,0.3-0.2c0.4,0,0.6,0.1,0.8,0.3c0.2,0.2,0.4,0.5,0.6,0.8l0.4,0.3c0.2,0.2,0.3,0.4,0.3,0.5
		c-0.1,0.1,0,0.2,0.3,0.5c0.2,0.4,0.4,0.6,0.3,0.8c0,0.1,0,0.4,0.1,0.7c0.1,0.1,0.1,0.3,0.2,0.7c0.2,0.2,0.3,0.2,0.3,0.2
		c-0.1,0,0,0.1,0.1,0.4c0,0.1,0.1,0.2,0.1,0.3c0,0.1,0.1,0.2,0.2,0.3c0.1,0.1,0.1,0.3,0.1,0.6c0,0.2,0,0.4,0,0.6s0,0.3,0,0.2
		c0,0,0,0.1,0,0.2s0.1,0.2,0,0.3c0,0.1,0,0.2,0,0.4c0,0.2,0,0.2,0,0.2c0-0.1,0.1,0,0.1,0.3c-0.1,0.2-0.3,0.3-0.6,0.3
		c0,0.3,0.1,0.5,0.1,0.7s0,0.3-0.1,0.6c-0.4,0.3-0.6,0.6-0.7,0.9c-0.1,0.2-0.5,0.4-1.1,0.4c-0.2,0-0.3,0.1-0.3,0.1s-0.1,0-0.3-0.1
		c-0.4-0.1-0.6-0.1-0.8-0.1s-0.5,0.3-0.9,0.7c-0.2,0.2-0.4,0.4-0.5,0.6s-0.3,0.4-0.5,0.6l-0.4,0.5v0.1c0,0.2-0.3,0.5-0.5,0.8
		s-0.3,0.6-0.5,0.9c-0.1,0.2-0.2,0.4-0.2,0.6c-0.1,0.2-0.2,0.4-0.2,0.6c-0.2,0.1-0.3,0.3-0.4,0.5c-0.1,0.2-0.2,0.4-0.3,0.6
		c-0.2,0.2-0.3,0.4-0.4,0.6c-0.4,0.7-0.5,1.2-0.4,1.4c0.1,0.3,0.3,0.5,0.3,0.8c0,0.2,0.1,0.4,0.1,0.5s0.1,0.2,0.1,0.4
		c0,0.3,0,0.7,0,1.1s0,0.8-0.2,1.2l-0.1,1.8c0,0.2,0,0.5-0.2,0.7s-0.3,0.4-0.2,0.4s0.1,0.1,0.2,0.2l-0.2,2.4c0,0.1,0,0.3,0,0.4
		c0,0.2,0,0.3,0,0.5s0.1,0.4,0.2,0.5c0.1,0.1,0.3,0.2,0.3,0.3v0.4c0,0.5,0,1,0.1,1.5s0,1-0.1,1.6c0,0.3,0.1,0.6,0.2,0.8
		c0.1,0.2,0.2,0.5,0.2,0.8c0.2-0.2,0.4-0.6,0.5-1.1s0.2-0.9,0.4-1.1c0.2-0.4,0.3-0.8,0.3-1.2s0.1-0.8,0.2-1.2c0.1-0.5,0.2-1,0.4-1.5
		s0.3-1,0.4-1.5c0.1-0.4,0.2-0.9,0.2-1.3c0.1-0.4,0.2-0.8,0.4-1.1c0.1-0.2,0.1-0.5,0.2-0.7c0-0.2,0.1-0.5,0.2-0.7
		c0-0.1,0.1-0.2,0.2-0.3c0.1-0.1,0.1-0.3,0.2-0.4c0-0.1,0.1-0.2,0.1-0.3c0-0.1,0.1-0.2,0.2-0.4c0-0.2,0.2-0.7,0.5-1.4
		c0.3-0.7,0.5-1.2,0.6-1.4c0.2-0.4,0.4-0.8,0.7-1.2l1.2-2.8c0,0,0-0.1,0.1-0.1c0.1-0.2,0.2-0.3,0.3-0.5c0.1-0.1,0.2-0.3,0.3-0.5
		s0.2-0.5,0.5-0.7c0.2-0.2,0.4-0.5,0.6-0.7c0.1-0.2,0-0.4-0.1-0.6c-0.2-0.2-0.3-0.3-0.3-0.5c0-0.1-0.1-0.3-0.1-0.6
		c0-0.2,0-0.4,0.2-0.6c0.3-0.3,0.4-0.5,0.4-0.6c-0.1,0,0.1-0.1,0.4-0.3c0.2-0.1,0.3-0.2,0.3-0.2c0-0.1,0.1-0.2,0.2-0.3
		c0.2-0.2,0.3-0.4,0.5-0.6c0.2-0.1,0.4-0.3,0.6-0.6c0.1-0.1,0.2-0.2,0.2-0.2c0.1-0.1,0.2-0.2,0.3-0.2c0.3-0.2,0.6-0.2,0.9-0.2
		c0.3,0.1,0.6,0,0.8-0.2c0.1,0,0.2-0.3,0.2-0.7c0-0.4,0.1-0.7,0.1-0.8c0,0,0.1,0,0.1-0.1v-0.2c0-0.1-0.2-0.2-0.1-0.3
		c0-0.1-0.1-0.2-0.1-0.2c0-0.1,0-0.1-0.1-0.2c0-0.1-0.1-0.3-0.3-0.5c-0.1-0.2-0.2-0.3-0.2-0.3c0-0.1-0.1-0.2-0.2-0.3
		c-0.1-0.2-0.3-0.4-0.5-0.6s-0.5-0.4-0.5-0.6c0-0.5,0-0.7,0-0.7s0.2,0,0.3-0.1c0.2-0.4,0.6-0.7,0.8-0.9c0.2-0.2,0.5-0.2,0.9-0.1
		c0.1,0,0.2,0.1,0.3,0.1s0.2,0,0.2,0.1c0.6,0.1,0.9,0.2,1,0.3c0.1,0.1,0.2,0.3,0.4,0.5c0.2,0.3,0.3,0.4,0.4,0.2c0-0.1,0.1,0,0.2,0.2
		c0.1,0.2,0.1,0.2,0.1,0.2s0,0,0.1,0.2c0,0.1,0.1,0.1,0.1,0.2c0,0,0.1,0.1,0.2,0.2c0.2,0.1,0.3,0.2,0.3,0.3c0,0.1,0,0.2,0.1,0.3
		c0.1,0.2,0.2,0.3,0.3,0.4s0.1,0.3,0.1,0.5s0,0.4,0,0.5c0,0.2,0.1,0.4,0.2,0.4c0.1,0,0,0.3-0.1,0.7c0.2,0,0.3,0,0.4-0.1
		c0.1-0.1,0.3-0.1,0.6-0.2c0.1,0,0.1-0.1,0.2,0c0,0,0.1,0,0.2-0.1c0.2,0,0.3,0,0.4-0.1c0.2-0.1,0.4-0.1,0.6-0.2
		c0.2,0,0.3-0.1,0.6-0.2l0.9-0.1c0.2,0,0.5-0.1,0.7-0.1s0.3-0.1,0.4-0.2c0.1-0.1,0.1-0.2,0.2-0.4c0-0.2,0.1-0.4,0.1-0.6s0-0.5,0-0.7
		s0-0.4,0-0.6c-0.1-0.5,0-1,0.1-1.4l0.2-1.3l0.1-0.3c0-0.5,0-1,0-1.5s0-1-0.2-1.4c0-0.2-0.1-0.4-0.3-0.5c-0.1-0.1-0.3-0.2-0.4-0.5
		c-0.1-0.2-0.1-0.4-0.2-0.5c0-0.1-0.1-0.3-0.1-0.6c0-0.1,0.1-0.2,0.2-0.5c0.1-0.2,0.3-0.4,0.3-0.5c0.1-0.2,0.2-0.2,0.3-0.2
		s0.2-0.1,0.5-0.2c0.2,0,0.5,0,0.9,0.1s0.6,0.2,0.8,0.4c0.2,0.2,0.4,0.3,0.6,0.4c0.2,0,0.3,0.1,0.4,0.2c0.1,0.1,0.2,0.1,0.3,0.2
		s0.2,0.2,0.3,0.4c0.1,0.2,0.1,0.3,0.2,0.3c0,0,0.1,0,0.2,0.2l0.6,1.3c0,0.9-0.1,1.8-0.4,2.8c0,0.1-0.1,0.3-0.2,0.4
		c-0.1,0.1-0.1,0.3-0.2,0.5c-0.1,0.4-0.2,0.7-0.5,1.1c-0.2,0.4-0.4,1-0.4,1.9c0,0.2-0.1,0.5-0.1,0.8s0.1,0.6,0.2,0.8
		c0.8,0,1.3,0.1,1.6,0.2s0.6,0.2,1,0.3c0.2,0,0.4,0.1,0.5,0.2s0.3,0.1,0.4,0.1c0.2,0,0.2,0,0.2,0s0,0,0.2,0c0.1,0,0.1,0,0.1,0.1
		s0.1,0.1,0.4,0c0.1,0,0.1-0.1,0.1-0.1s0.1,0,0.3,0l0.9,0.4l0.2,0.1l0.1,0.1c0.2,0.1,0.4,0.2,0.6,0.3c0.2,0.1,0.4,0.2,0.6,0.3
		c0.1,0.1,0.1,0.2,0.2,0.3c0,0.1,0.3,0.2,0.3,0.3v0.7c0,0.2,0,0.4,0,0.5s0,0.3-0.1,0.7c-0.1,0.2-0.2,0.4-0.2,0.5
		c-0.1,0.1-0.2,0.2-0.4,0.4c-0.2,0.1-0.4,0.2-0.5,0.3c-0.2,0.1-0.4,0.2-0.6,0.2c-0.2,0-0.4,0.1-0.7,0.2c-0.1,0.1-0.2,0.2-0.2,0.2
		c0,0.1-0.2,0.2-0.4,0.2c-0.4,0.1-0.6,0.2-0.6,0.2c0,0.1-0.1,0.2-0.4,0.3l-0.8,0.7c-0.2,0.2-0.4,0.4-0.5,0.6l-0.1,0.2
		c0.2,0.1,0.4,0.2,0.6,0.4c0.1,0.2,0.3,0.4,0.6,0.6l0.3,0.4c0.1,0.1,0.1,0.2,0.2,0.2c0,0.1,0.1,0.2,0.1,0.3c0,0.2,0.1,0.3,0,0.4
		c0,0-0.1,0.2-0.2,0.4c-0.2,0.4-0.4,0.6-0.6,0.8c-0.2,0.1-0.4,0.3-0.9,0.4c-0.2,0.1-0.4,0.1-0.6,0.1c-0.2,0-0.5,0-0.7,0.1
		c-0.1,0-0.3,0-0.5,0.1s-0.4,0.1-0.6,0.2c0,0.2-0.1,0.5-0.2,0.7c-0.1,0.2-0.2,0.4-0.1,0.5c0,0.2,0,0.2,0.1,0.2c0,0,0,0.1-0.1,0.3
		c0,0.1-0.1,0.2-0.1,0.2c0,0.1-0.1,0.2-0.2,0.2l0.2,0.4c-0.1,0.1-0.1,0.1-0.2,0.1c0,0,0,0.1-0.5,0.2v0.2c0.2,0,0.3,0,0.4,0
		c0,0,0.3,0,0.4,0.2c0,0.1,0,0.2-0.1,0.4c0,0.2,0,0.4,0.1,0.5c0,0.2,0,0.4-0.1,0.7c0,0.3,0,0.5,0.2,0.5c0.6,0,1.2-0.1,1.9-0.2
		c0.8-0.1,1.3-0.2,1.6-0.3c0.3-0.1,0.6-0.1,0.8-0.1s0.6,0,0.9,0.1c0.4,0.1,0.9,0.1,1.7,0.2c0.3,0,0.7,0.1,1.3,0.2s1,0.2,1.3,0.4
		c0.2,0.2,0.5,0.3,0.7,0.3s0.5,0.1,0.7,0.2c0.3,0.1,0.5,0.2,0.6,0.4l0.9,0.9c0.2,0.1,0.3,0.2,0.3,0.2c0,0.1,0.2,0.2,0.3,0.5
		c0,0.1,0.2,0.3,0.2,0.6V82H157.6z M158.2,38.5c0,2.3-1.3,3.8-3.5,4.5l-1,0.2c-2.2-0.3-3.6-0.8-3.6-1.6V41c4-2.1,4.6-3.7,4.6-4.9
		l0.5-1.8l-1.1-12.5V21l-0.6-1.3c0.2-1,0.8-1.4,1.4-1.4c1.1,0,2,0.6,2.7,1.8l-0.1,7l0.6,10.6v0.8H158.2z M213.9,25.1L213.9,25.1
		C214,25,214,24.9,214,25l0,0c0-0.1,0-0.3,0.1-0.4c0-0.1,0.1-0.2,0.3-0.2c0.2-0.1,0.5-0.1,0.7,0s0.4,0.2,0.5,0.2
		c0.1,0.1,0.2,0.1,0.3,0.2c0,0,0.1,0.1,0.2,0.2c0,0,0.1,0.1,0.2,0.1c0.1,0,0.2,0.1,0.3,0.2c0.2,0.1,0.3,0.2,0.3,0.2s-0.1,0.1,0,0.2
		v0.1c0,0-0.2,0.1-0.1,0.1l-0.4,0.1l0,0c0,0,0.5,0.1,0.5,0.2c0.1,0.1,0.6,0.3,0.5,0.4c0,0.1,0,0.2-0.1,0.3V27v0.1
		c0,0.2,0,0.3-0.1,0.5c-0.1,0.1-0.1,0.2-0.2,0.2c0,0.1-0.1,0.1-0.3,0.1c-0.1,0-0.2,0-0.3-0.1s-0.2-0.1-0.3-0.2s-0.2-0.2-0.3-0.3
		c-0.1-0.1-0.2-0.2-0.2-0.2c-0.1,0-0.2,0-0.3,0.1s-0.3,0.3-0.5,0.6c-0.1,0.1-0.1,0.2-0.2,0.3c0,0-0.1,0.1-0.2,0.3
		c0,0.1-0.1,0.1-0.1,0.1s0,0-0.1,0.1l-0.1,0.1c0,0,0,0.1-0.1,0.1c0-0.3,0.1-0.5,0.3-0.8s0.3-0.6,0.3-0.8c0-0.1,0.1-0.1,0.1-0.1
		s0,0,0.1-0.1c0-0.1,0-0.2,0.1-0.2c0,0,0.1-0.1,0.1-0.2c0.1-0.1,0.1-0.2,0.1-0.2c0-0.1-0.1-0.2-0.1-0.2c-0.1,0-0.1-0.1-0.2-0.1
		c-0.1,0-0.1-0.1-0.2-0.2c-0.1-0.1-0.1-0.1-0.2-0.1c-0.1,0-0.1-0.1-0.2-0.1c-0.1,0-0.1-0.1-0.2-0.2c0-0.1,0.1-0.2,0.1-0.2
		s0,0,0.1-0.1c0,0-0.1,0-0.1-0.1C213.9,25.2,213.9,25.1,213.9,25.1L213.9,25.1z M185.8,30.9c0.1-0.1,0.2-0.2,0.3-0.2s0.2,0,0.4,0
		c0.1,0,0.3-0.1,0.4-0.2c0.1-0.1,0.3-0.2,0.4-0.3l0.1-0.1c0.1,0,0.1-0.1,0.2-0.1c0.1-0.1,0.2-0.1,0.2-0.2c0.1-0.1,0.1-0.1,0.2-0.2
		l0.1-0.1c0.1,0,0.1-0.1,0.1-0.1c0.1,0,0.1,0,0.2,0c0,0,0.1,0,0.2-0.1c0.4-0.4,0.7-0.6,1.1-0.6c0.4-0.1,0.8-0.1,1.1-0.2
		c0.5-0.2,0.8-0.3,1-0.4s0.4-0.1,0.4-0.2c0.1-0.1,0.1-0.2,0.1-0.4c0-0.2,0-0.5,0.1-0.8l0.3-1.6c0-0.3,0.1-0.5,0.1-0.7s0-0.4,0-0.5
		c0-0.2,0-0.3,0-0.5s-0.1-0.4-0.1-0.7c0-0.2-0.1-0.3-0.1-0.4s-0.1-0.1-0.1-0.1s0,0-0.1,0c0,0,0,0-0.1-0.1c-0.1-0.2,0-0.3,0.2-0.4
		s0.4-0.2,0.6-0.2h0.2c0.1,0,0.1,0,0.2,0c0.3,0.1,0.5,0.3,0.7,0.6c0.2,0.3,0.3,0.6,0.3,0.9c0,0.2,0.1,0.3,0.1,0.4
		c0.1,0.1,0,0.2-0.2,0.2c-0.2,0.1-0.4,0.2-0.5,0.4c-0.1,0.2-0.1,0.2-0.2,0.3c0,0-0.1,0.1-0.1,0.3c0,0.1,0,0.2,0,0.1c0,0,0,0-0.1,0.1
		c0,0,0,0.1-0.1,0.3c0,0.2-0.1,0.3-0.1,0.5s-0.1,0.4-0.2,0.5c-0.1,0.2-0.1,0.3-0.1,0.3c0,0.1,0,0.2,0,0.2s0,0.1-0.1,0.2
		c-0.1,0.5-0.1,0.7-0.1,0.7c0.1,0,0.2,0,0.5-0.1c0.1,0,0.1-0.1,0.2-0.2c0-0.1,0-0.2,0-0.3c0.1,0,0.1,0,0.1,0s0.1,0,0.2-0.1l0.1-0.1
		c0.1,0,0.1,0,0.2-0.1h0.3c0.1,0,0.2,0,0.3,0.1s0.2,0.1,0.3,0.2c0.1,0,0.1,0,0.2,0c0,0,0.1,0,0.2,0c0.2,0.1,0.4,0.2,0.5,0.3v-0.1
		c0,0,0,0,0-0.1s0.1-0.1,0.2-0.2c0.1-0.1,0.2-0.1,0.4-0.2c0.1-0.1,0.3-0.1,0.4-0.2c0.1-0.1,0.2-0.2,0.3-0.3c0.1-0.2,0.2-0.4,0.4-0.6
		s0.4-0.3,0.6-0.4c0.1,0,0.2-0.1,0.2-0.1s0-0.1,0.1-0.1s0.1,0,0.2-0.1c0.1,0,0.1,0,0.2-0.1c0.2,0,0.3-0.1,0.4-0.1
		c0.1-0.1,0.3-0.1,0.4,0c0.1,0,0.2,0,0.3,0c0.2,0,0.3,0,0.5,0s0.3,0,0.5,0.1c0.1,0,0.3,0,0.3,0.1h0.2l0.2,0.1c0.1,0,0.1,0.1,0.2,0.1
		c0.1,0,0.1,0.1,0.2,0.1c0.1,0,0.1,0.1,0.2,0.2c0.1,0.1,0.2,0.3,0.2,0.5c0.1,0.1,0.1,0.3,0.1,0.5s0,0.3,0.1,0.5c0.1,0.3,0.1,0.7,0,1
		c0,0.1,0,0.2-0.1,0.4c0,0.2-0.1,0.4-0.1,0.6s0,0.4-0.1,0.6c0,0.2,0,0.3,0,0.5s0,0.4,0,0.7c0,0.3,0,0.6,0,0.9s0,0.6,0,0.8
		c0,0.3,0,0.5,0.1,0.6c0,0.2,0,0.2,0,0.3c0,0,0,0.1,0,0.2s0,0.2,0,0.2c0,0.1,0,0.2,0,0.3c0,0.3,0,0.6,0,0.9s0.1,0.6,0.1,1
		c0,0.1,0,0.2,0,0.2c0,0.1,0,0.1,0,0.2c0,0.2,0,0.3,0.1,0.5c0,0.1,0.1,0.3,0.2,0.5c0,0.1,0,0.2,0,0.2s0,0.1,0,0.2s0,0.2,0,0.2
		s0,0.1,0,0.2s0,0.1,0,0.2c0,0,0,0.1,0,0.2v0.2c0,0.1,0,0.1,0,0.1s0,0,0,0.1c0,0.2,0.1,0.4,0.2,0.6c0.1,0.3,0.1,0.5,0.2,0.8
		c0,0.3,0,0.6,0,0.8c0,0.3-0.2,0.5-0.4,0.8c-0.1,0.1-0.2,0.2-0.3,0.2h-0.1h-0.1c0,0-0.1,0.1-0.2,0.2l0,0c0,0,0,0-0.1,0
		s-0.1,0-0.1,0.1c0,0,0,0-0.1,0c0,0-0.1-0.1-0.2-0.1c-0.1-0.1-0.2-0.1-0.2-0.1c-0.1-0.1-0.3-0.3-0.4-0.4c-0.1-0.2-0.2-0.3-0.2-0.4
		c0,0,0-0.1,0-0.3c0-0.2,0.1-0.3,0.1-0.5c-0.1-0.1-0.2-0.1-0.3-0.2c-0.1,0-0.2-0.1-0.3-0.2s-0.3-0.2-0.4-0.3
		c-0.1-0.1-0.3-0.2-0.4-0.2c-0.1-0.1-0.2-0.1-0.3-0.1c0,0-0.1,0-0.1,0.1c0,0-0.1,0.1-0.2,0.1c-0.1,0-0.2,0-0.2,0s-0.1,0-0.2,0.1
		c-0.1,0-0.1,0-0.3,0c-0.1,0-0.3,0-0.5,0c-0.1,0-0.2,0-0.2,0c-0.1,0-0.1,0-0.2,0c-0.1,0-0.1,0-0.2,0c-0.1,0-0.1,0-0.2,0
		c-0.1,0-0.1,0.1-0.1,0.1s-0.1,0.1-0.2,0.1c-0.2,0.1-0.4,0.1-0.5,0.2c-0.2,0.1-0.3,0-0.5-0.3c-0.1-0.1-0.1-0.1-0.2-0.2
		c0,0-0.1-0.1-0.2-0.1c0,0-0.1-0.1-0.1-0.2s0-0.1-0.1-0.2c-0.1-0.2-0.1-0.3-0.2-0.4c0-0.1-0.1-0.2-0.1-0.4c0-0.1-0.1-0.2-0.1-0.2
		l-0.1-0.1c0,0,0-0.1,0-0.2s0-0.2,0.1-0.3c0.1-0.3,0.1-0.6,0.1-0.9c0-0.4,0-0.7,0-1s0-0.6,0-0.9s0-0.6,0.1-0.9c0-0.4,0.1-0.7,0.1-1
		s0-0.6,0-1s0-0.6,0-0.7c0.1-0.1,0.1-0.3,0.2-0.5c0-0.1,0.1-0.3,0.1-0.6c0-0.3,0.1-0.5,0.1-0.7c0.1-0.1,0.1-0.2,0.1-0.4
		c0-0.2,0-0.4,0.1-0.5c0-0.1,0-0.2,0-0.2c0-0.1,0-0.1,0-0.2s0-0.1,0-0.2s0-0.1,0-0.2l-0.1,0.1c-0.1,0.1-0.2,0.2-0.3,0.2
		s-0.1,0-0.1,0s-0.1,0-0.1-0.1c0,0-0.1,0-0.2,0c-0.1,0-0.3,0-0.4,0c-0.1,0-0.3,0-0.4,0c-0.1,0-0.2,0-0.4-0.1c-0.2,0-0.3,0-0.3,0.1
		c0.1,0,0.2,0.1,0.2,0.1c0.1,0,0.2,0.1,0.3,0.2c0,0.1,0.1,0.2,0.2,0.3c0.1,0.1,0.2,0.2,0.2,0.3c0.1,0.1,0.1,0.2,0,0.3
		c0,0.1-0.1,0.2-0.1,0.4c0,0.1-0.1,0.2-0.2,0.3c-0.1,0.1-0.1,0.2,0,0.4c0,0,0.1-0.1,0.2-0.1c0.1-0.1,0.1-0.1,0.2-0.1
		c0.1,0,0.1-0.1,0.2-0.1c0.1,0,0.1-0.1,0.2-0.1c0.1-0.1,0.2-0.2,0.4-0.3c0.1-0.1,0.3-0.2,0.4-0.3c0,0.1,0,0.3-0.1,0.5
		c0,0.2-0.1,0.4-0.1,0.4s-0.1,0.1-0.2,0.2c-0.2,0.1-0.3,0.2-0.3,0.3c-0.2,0.2-0.4,0.4-0.5,0.6c-0.2,0.2-0.3,0.4-0.5,0.6
		c0,0.1-0.1,0.2-0.2,0.3c-0.1,0.1-0.2,0.2-0.3,0.3c-0.1,0.1-0.2,0.2-0.3,0.3c-0.1,0.1-0.2,0.2-0.2,0.2c0,0.1-0.1,0.1-0.1,0.2
		c0,0-0.1,0-0.1,0.1c0,0,0,0.1-0.1,0.1c0,0.1-0.1,0.1-0.2,0.3c-0.1,0.2-0.1,0.3-0.2,0.4c0,0.1,0,0.2-0.1,0.4c0,0.2,0,0.5,0,0.7
		c0,0.3,0,0.5,0,0.8s0,0.5,0,0.8s0,0.5,0,0.7c0,0.1,0,0.2,0,0.2s0,0.1,0,0.2c0,0.2,0,0.3,0,0.3s0,0.1,0.1,0.2c0,0.2,0,0.3,0.1,0.5
		c0,0.2,0,0.3,0.1,0.4c0,0.1,0.1,0.3,0.1,0.4c0,0.2,0,0.3,0,0.4s-0.1,0.2,0,0.2c0,0,0,0.1,0,0.2c0,0.2,0,0.4,0,0.5
		c0.1,0.2,0,0.4-0.1,0.8c0,0-0.1,0-0.2,0.1c-0.1,0-0.2,0.1-0.3,0.1c0,0.2-0.1,0.3-0.3,0.3c-0.1-0.1-0.1-0.2-0.2-0.3
		c0-0.1-0.1-0.2-0.1-0.3c-0.1-0.2-0.2-0.4-0.2-0.5s0-0.2,0-0.2v-0.1c0,0,0-0.1,0-0.2s0-0.1,0-0.1s0,0-0.1-0.1v-0.1l0,0l0,0
		c0,0,0,0,0-0.1s0-0.2,0-0.2c0-0.1,0-0.2,0-0.3c0-0.1,0-0.1,0-0.2c0,0,0-0.1,0.1-0.2c0-0.1,0-0.2,0-0.2c0-0.1,0-0.1,0-0.2
		s0-0.2,0-0.2s0-0.1,0-0.2c0-0.2,0-0.4,0-0.4c0.1-0.1,0.1-0.2,0.1-0.3c0-0.3-0.1-0.6-0.1-1s-0.1-0.7-0.1-1v-0.3c0-0.2,0-0.3-0.1-0.3
		s-0.1,0-0.2,0.1c-0.1,0.1-0.1,0.2-0.2,0.3c0,0.1-0.1,0.2-0.1,0.3c0,0.1-0.1,0.2-0.1,0.2s-0.1,0-0.1,0.1c0,0,0,0.1-0.1,0.1
		c0,0.1,0,0.1,0,0.1l0,0c0,0.1-0.1,0.1-0.2,0.3c-0.1,0.1-0.1,0.2-0.2,0.3c0,0.1-0.1,0.1-0.1,0.1l-0.1,0.1l-0.1,0.1
		c0,0-0.1,0.1-0.1,0.2c-0.1,0.1-0.1,0.2-0.1,0.2c0,0.1,0,0.1-0.1,0.2c0,0.1-0.1,0.1-0.1,0.2s-0.1,0.1-0.2,0.2
		c-0.1,0.1-0.3,0.1-0.3,0c-0.1-0.1-0.2-0.1-0.2-0.1c-0.1,0-0.1,0-0.2,0.1c-0.1,0.1-0.1,0.1-0.2,0.2v0.1c-0.1,0-0.2-0.1-0.2-0.2
		c-0.1-0.1-0.2-0.2-0.3-0.3c-0.2-0.1-0.3-0.2-0.3-0.3c0-0.1,0-0.2,0-0.4c0-0.1,0-0.2-0.1-0.4c-0.1-0.2-0.1-0.3-0.1-0.4
		c0-0.3,0-0.5,0-0.7s0-0.4,0.2-0.6c0-0.1,0-0.2,0-0.2c0-0.1,0-0.1,0-0.2c0-0.2,0.1-0.2,0.2-0.3c0.1,0,0.2-0.1,0.3-0.3
		c0.1-0.3,0.2-0.4,0.3-0.5s0.1-0.2,0.2-0.2c0.1,0,0.1-0.1,0.2-0.1c0.1,0,0.2-0.1,0.2-0.3c0.1-0.1,0.1-0.2,0.2-0.3
		c0.1-0.1,0.2-0.2,0.2-0.3c0.1,0,0.1-0.1,0.1-0.1s0-0.1,0.1-0.2c0-0.1,0.1-0.1,0.1-0.1s0.1,0,0.1-0.1c0.1,0,0.2-0.1,0.2-0.3
		c0.1-0.1,0.2-0.2,0.2-0.3c0.2-0.2,0.3-0.3,0.3-0.3s0.1-0.1,0.2-0.2c0.1-0.2,0.3-0.4,0.4-0.6c0.1-0.2,0.3-0.4,0.4-0.6
		c0,0,0.1-0.1,0.2-0.3c0.1-0.1,0.1-0.3,0.2-0.4c0.1-0.1,0.1-0.3,0.1-0.4s0-0.2,0-0.3c-0.1,0-0.2,0-0.4,0s-0.3,0.1-0.4,0.1
		c-0.4,0.1-0.7,0.2-0.9,0.3c-0.2,0.1-0.5,0.2-0.6,0.3c-0.2,0.1-0.4,0.3-0.6,0.4c-0.2,0.2-0.5,0.4-0.8,0.7c-0.1,0.1-0.2,0.2-0.3,0.3
		c-0.1,0.1-0.2,0.2-0.2,0.3c0,0.1,0,0.2,0,0.2s0,0.1,0,0.2c0,0.2,0,0.2,0,0.3s0,0.1,0,0.2c-0.1,0-0.2,0-0.3-0.1
		c-0.2-0.1-0.3-0.1-0.5-0.2s-0.3-0.2-0.5-0.3c-0.1-0.1-0.3-0.2-0.3-0.3c0-0.1-0.1-0.1-0.1-0.1l0,0c0-0.1,0.1-0.1,0-0.2
		C185.8,31,185.9,31,185.8,30.9z M167.5,43.7c-0.4,4.6-0.9,7-1.4,7h-0.3l-0.7-9.7l0.3-7.8h-0.3c-1.4,1.3-2.2,3.8-2.2,5.9l-0.2,0.2
		h-0.6c-0.6,0-1.1-1.1-1.8-3l1.9-7.1c0.5-1.5,0.8-2.6,0.8-3.4v-0.4l-1.4-0.2h-0.2c-0.6,0-1.2-0.8-1.7-2.5c0-1,1-1.2,3.1-1.2
		c3.3-2.5,5-3.8,5.3-3.8c2.4,0.9,3.6,1.7,3.6,2.4v0.7c0,0.8-1.1,1.7-3.7,2.7c-0.6,0.6-0.3,1.2-0.3,1.7v0.7c0,0.3,0,0.5,0.5,0.5
		c1.2-0.6,1.8-0.9,2.5-0.9c1.5,0,3.1,1.7,3.1,5v0.2c0,5.8-1.1,8.7-3.3,8.7C168.5,40,167.5,41.5,167.5,43.7z M217.7,106.3
		c-0.5,0.5-0.8,1.1-1.1,1.6c-0.1,0.2-0.2,0.3-0.5,0.3c-0.4,0-0.7,0.2-1.1,0.4c-0.3,0.2-0.7,0.3-1,0.4c-0.3,0-0.6,0.1-0.6,0
		c-0.1,0-0.3,0.1-0.7,0.2c-0.1,0-0.2,0.1-0.3,0.1s-0.2,0-0.3,0.1c-0.3,0.1-0.4,0.1-0.5,0.2c-0.1,0-0.2,0.1-0.2,0.1
		c-0.1,0-0.2,0.1-0.3,0.1s-0.4,0.1-0.7,0.1l-1.9,0.3c-0.1,0-0.2,0-0.3,0s-0.2,0-0.3,0l-1.4,0.2c-0.1,0-0.2,0.1-0.3,0.1
		s-0.2,0.2-0.4,0.2h-0.4c-0.5,0-1.1-0.1-1.7-0.1c-0.6,0-1.1-0.2-1.6-0.2c-0.3,0-0.5-0.1-0.7-0.1s-0.5-0.1-0.7-0.1l-1.4-0.1
		c-0.3-0.1-0.7-0.2-0.9-0.2c-0.3-0.1-0.6-0.2-0.9-0.4l-0.5-0.2c-0.5-0.2-0.9-0.4-1.1-0.6c-0.2-0.1-0.4-0.2-0.6-0.2
		c-0.2-0.1-0.3-0.2-0.5-0.4c-0.7-0.5-1.3-1-1.8-1.5s-0.9-1.2-1.4-2c-0.1-0.2-0.2-0.4-0.3-0.7s-0.2-0.5-0.3-0.6
		c-0.1-0.2-0.3-0.4-0.3-0.5c-0.1-0.1-0.3-0.2-0.3-0.2s0-0.1,0-0.2c0-0.1,0.3-0.2,0.3-0.3c-0.4-0.9-0.3-1.7-0.3-2.5s0-1.7,0-2.9
		c0-0.2-0.1-0.7,0.1-1.5c0.2-0.7,0.1-1.3,0.2-1.7c0.2-1.1,0.3-2.1,0.5-3.1s0.4-2,0.6-3.1c0-0.2,0.1-0.5,0.1-0.6
		c0-0.2,0.1-0.3,0.1-0.5c-0.1,0.1-0.2,0.1-0.2,0.2c0,0-0.1,0.1-0.2,0.2l-2.3,2.8c-0.3,0.3-0.5,0.6-0.7,1s-0.4,0.7-0.6,1.1
		c-0.3,0.6-0.6,1-0.8,1.3c-0.3,0.3-0.5,0.7-0.8,1.2c0,0.1-0.1,0.2-0.2,0.3c-0.1,0.1-0.1,0.2-0.2,0.3c-0.4,0.6-0.8,1.3-1.4,2.1
		c-0.5,0.8-0.9,1.4-1.2,1.9l-2.3,4.5c-0.3,0.4-0.5,0.8-0.8,1.1s-0.6,0.7-0.8,1.1c-0.1,0.1-0.2,0.3-0.3,0.5s-0.2,0.4-0.3,0.5
		c-0.1,0.3-0.1,0.5-0.1,0.8c0,0.2,0,0.5-0.1,0.7c0,0.3-0.2,0.5-0.5,0.7s-0.6,0.5-1,0.9c-0.3,0.2-0.4,0.4-0.4,0.4
		c0-0.1-0.2,0.3-0.5,0.3h-0.2c-0.1,0-0.2-0.1-0.4-0.1c-0.3,0-0.6-0.3-0.8-0.4c-0.3,0-0.5-0.2-0.6-0.5c0-0.3-0.1-0.6-0.2-0.9
		c0-0.1-0.1-0.2-0.2-0.2c-0.1-0.1-0.1-0.2-0.1-0.2c0-0.3,0-0.5,0.1-0.5c0.1-0.1,0.1-0.2,0-0.5c-0.1-0.4-0.2-0.7-0.2-1
		c0-0.2,0-0.4,0-0.6c0.1-0.2,0.1-0.3,0.2-0.5c0.1-0.1,0.2-0.3,0.3-0.5c0.1-0.3,0.1-0.5,0.2-0.7c0-0.2,0.2-0.3,0.6-0.3
		c0.2-0.7,0.4-1,0.6-1.1c0.2-0.1,0.5-0.3,0.8-0.7l0.5-0.6c0.4-0.5,0.9-1.1,1.3-1.6c0.4-0.5,0.8-1,1.1-1.6c0.2-0.3,0.4-0.7,0.6-1
		c0.2-0.3,0.4-0.7,0.7-1c0.1-0.1,0.2-0.2,0.2-0.3l0.7-0.9c0.2-0.2,0.4-0.4,0.5-0.6c0.1-0.1,0.2-0.2,0.2-0.2c0.1-0.1,0.1-0.2,0.2-0.4
		c0.3-0.4,0.6-0.8,1-1.2c0.3-0.4,0.7-0.7,1.1-1.1c0.3-0.2,0.5-0.5,0.6-0.8s0.3-0.5,0.6-0.7l0.8-0.7c0.3-0.2,0.5-0.3,0.6-0.6
		c0.1-0.1,0.2-0.2,0.2-0.3c0.1-0.1,0.1-0.2,0.2-0.4c0.1-0.1,0.4-0.4,0.9-0.9c0.5-0.4,1-0.8,1.3-1.1l0.1-0.2c-0.5,0-1.1,0.2-1.9,0.5
		c-0.2,0.1-0.4,0.2-0.6,0.3c-0.2,0.1-0.3,0.2-0.6,0.3s-0.6,0.2-0.9,0.3c-0.3,0.1-0.6,0.3-0.8,0.4c-0.1,0-0.1,0-0.2,0
		c0,0-0.1,0.1-0.2,0.2c-0.3,0-0.5,0.1-0.6,0.2c-0.1,0.1-0.3,0.2-0.5,0.3h-0.1c0,0-0.1,0-0.2,0c-0.5,0.2-1.1,0.4-1.8,0.7
		s-1.3,0.5-1.7,0.8l-2.2,1.3c-0.5,0.3-1.1,0.7-1.6,1s-1,0.7-1.5,1.1l-0.9,0.7c-0.1,0.1-0.2,0.1-0.2,0.2c0,0-0.2,0.1-0.4,0.1
		c-0.4,0-0.7,0-0.8-0.1c0-0.2-0.2-0.6-0.4-0.9c-0.2-0.4-0.4-0.8-0.5-1.1l-0.5-1.8c0-0.2,0-0.5,0-0.8c0.1-0.3,0.2-0.6,0.3-0.8
		s0.2-0.5,0.2-0.8c0.1-0.3,0.1-0.6,0.2-0.9c0-0.1,0.1-0.3,0.1-0.7c0.1-0.2,0.2-0.3,0.3-0.4c0.1-0.1,0.2-0.2,0.3-0.4
		c0.2,0,0.4,0,0.6,0.1c0.2,0,0.3,0.1,0.4,0.1c0,0,0.1-0.1,0.1-0.2c0.6,0.1,1.1,0.2,1.3,0.3s0.5,0.3,0.9,0.6c0.2,0.1,0.4,0.3,0.8,0.5
		c0.4,0.2,0.7,0.2,0.9,0.1l0.1-0.1c0.5-0.2,1-0.5,1.4-0.7c0.5-0.2,1-0.4,1.5-0.6c0.2,0,0.3-0.1,0.5-0.1c0.1,0,0.3-0.1,0.5-0.2
		c0.1-0.1,0.3-0.2,0.4-0.2c0.2-0.1,0.3-0.1,0.5-0.2l2.7-1.2c0.3-0.1,0.7-0.2,1.1-0.3c0.4-0.1,0.7-0.2,0.8-0.4l0.9-0.4
		c0.1-0.1,0.2-0.1,0.3-0.1s0.2,0,0.3-0.1l0.6-0.2c-0.1-0.4-0.3-1-0.6-1.7s-0.5-1.1-0.6-1.3c-0.1-0.3-0.2-0.5-0.3-0.7
		c0-0.1,0-0.2-0.1-0.2c0-0.1-0.1-0.1-0.1-0.2l-0.3-0.2c-0.1-0.1-0.1-0.1-0.1-0.1s0-0.1-0.1-0.2c-0.1-0.2-0.3-0.5-0.6-0.9
		c-0.3-0.3-0.4-0.6-0.5-0.9c-0.1,0-0.3,0.1-0.6,0.3c-0.2,0.1-0.4,0.3-0.5,0.3c-0.2,0.2-0.3,0.3-0.4,0.4c0,0.1-0.1,0.2-0.1,0.2
		c0,0.1-0.1,0.1-0.2,0.2c-0.1,0-0.3,0.1-0.7,0.3c-0.2,0.1-0.4,0.2-0.6,0.2c-0.1,0-0.2,0.1-0.4,0.2s-0.5,0.3-0.8,0.6
		c-0.3,0.3-0.6,0.5-0.9,0.8c-0.3,0.2-0.7,0.4-1,0.5c-0.4,0.1-0.7,0.1-1-0.1c-0.2-0.1-0.4-0.2-0.5-0.4c-0.1-0.2-0.2-0.2-0.5-0.2
		c0-0.2-0.1-0.5-0.2-0.6c-0.1-0.2-0.2-0.4-0.3-0.6c-0.1-0.1-0.2-0.3-0.2-0.5c-0.1-0.2-0.2-0.4-0.4-0.5C176,76,176,75.9,176,76
		s-0.1,0.1-0.2,0c-0.2-0.1-0.3-0.2-0.4-0.5c-0.1-0.2-0.1-0.4-0.2-0.6c-0.1-0.1,0-0.2,0-0.4c0-0.2,0-0.4,0-0.6s-0.1-0.4,0-0.5
		c0.3-0.2,0.5-0.5,1.1-0.7c0.2,0,0.4-0.1,0.5-0.2s0.2-0.1,0.2-0.2c0.1,0,0.2,0,0.4-0.1c0.2,0,0.6,0,1.1,0c0.2,0,0.4,0.1,0.6,0.2
		c0.2,0.1,0.3,0.2,0.5,0.2c0.2,0.1,0.4,0.1,0.6,0.1c0.2,0,0.5-0.1,0.9-0.2c0.2,0,0.4-0.1,0.7-0.3c0.3-0.1,0.6-0.3,1-0.4
		c0.3-0.1,0.6-0.3,0.9-0.4c0.3-0.1,0.4-0.2,0.5-0.3c0.3-0.2,0.6-0.4,1-0.6c0.3-0.1,0.7-0.3,1-0.5c0.3-0.1,0.6-0.3,1-0.5
		c0.4-0.3,0.8-0.4,1-0.4c-0.1-0.2-0.1-0.4,0-0.6c0.1-0.1,0.2-0.3,0.1-0.6c0-0.4,0-0.7,0-0.9c0-0.2,0-0.4,0-0.6s0-0.4,0-0.7
		c0-0.2,0.1-0.6,0.1-1.1c0-0.4,0-0.9,0-1.3s-0.1-0.9-0.1-1.4c0-0.2,0-0.4,0-0.6s0-0.3,0-0.6c0-0.4,0.1-0.8,0.1-1.2
		c0-0.4,0.1-0.7,0.1-1.1c0.1-0.8,0.1-1.3,0.1-1.6c0-0.3,0-0.6-0.1-0.7c0-0.2-0.1-0.3-0.2-0.5c-0.1-0.1-0.1-0.4-0.1-0.9
		c0-0.2,0.1-0.5,0.3-0.7c0.1-0.1,0.2-0.2,0.3-0.2s0.2-0.1,0.3-0.2c0.2-0.2,0.4-0.4,0.6-0.7c0.1-0.1,0.2-0.2,0.3-0.3
		c0-0.1,0.1-0.2,0.2-0.3c0.1,0,0.2,0.1,0.4,0.3c0.2,0.2,0.3,0.3,0.4,0.4l0.9,0.9c0.2,0.2,0.4,0.4,0.4,0.5c0.1,0.1,0.1,0.3,0.2,0.7
		c0.1,0.2,0.2,0.3,0.3,0.2c0.1-0.1,0.3,0.1,0.7,0.4c0.3,0.2,0.4,0.5,0.5,0.7s0.3,0.5,0.6,0.9c0.3,0.3,0.6,0.7,0.8,1.4
		c0.2,0.6,0.4,1.2,0.4,1.7c0,0.4-0.1,0.6-0.3,0.8c-0.1,0.1-0.2,0.2-0.2,0.2s-0.1,0.1-0.3,0.2s-0.3,0.2-0.5,0.2
		c-0.2,0.1-0.4,0.1-0.6,0.2c0,0.1-0.1,0.2-0.1,0.4c0,0.2-0.1,0.3-0.1,0.5l-0.3,0.9c-0.1,0.9-0.3,1.6-0.4,2.2
		c-0.1,0.6-0.2,1.4-0.2,2.3c0,0.4,0,0.9-0.1,1.4s-0.1,0.9-0.1,1.3c0,0.2,0,0.5,0.1,0.7c0,0.2,0,0.5-0.1,0.8c0,0.2,0,0.4,0,0.7
		c0,0.3,0,0.5,0,0.7s0,0.4,0.1,0.6s0.1,0.4,0,0.7c0,0.2,0,0.4,0,0.7c0,0.2,0,0.5,0,0.7c0,0,0.2,0,0.4-0.1c0.2,0,0.3-0.1,0.4-0.2
		l0.1-0.1c0.1-0.2,0.2-0.3,0.2-0.3s0.1,0,0.1-0.1s0-0.2,0.1-0.5c0.1-0.2,0.2-0.4,0.3-0.6c0.1-0.1,0.2-0.3,0.4-0.6
		c0.3-0.4,0.5-0.6,0.7-0.6s0.3-0.2,0.6-0.7c0.1-0.4,0.3-0.7,0.6-1s0.6-0.6,0.8-0.9c0.4-0.5,0.8-1,1.1-1.5s0.7-1.1,1-1.7
		c0.1-0.1,0.1-0.2,0.1-0.3s0-0.3,0.1-0.4c0-0.2,0.1-0.4,0.1-0.3c0,0,0.1,0,0.2-0.2c0-0.1,0.1-0.2,0.1-0.3c0-0.1,0.1-0.2,0.2-0.3
		c0.3-0.4,0.6-0.8,0.9-1.3c0.3-0.5,0.7-0.9,1-1.2c0-0.1,0.1-0.2,0.2-0.2c0.1-0.1,0.1-0.2,0.2-0.2c0-0.1,0.1-0.1,0.1-0.2
		c0,0,0-0.1,0.1-0.2c0.1-0.5,0.1-0.8,0.1-0.9s0.2-0.2,0.7-0.3c0.2,0,0.3-0.1,0.4-0.1c0.1,0,0.2-0.1,0.3-0.1c0.4-0.1,0.6-0.2,0.6-0.2
		c0.2,0,0.5,0.1,0.7,0.3c0.3,0.2,0.5,0.4,0.6,0.6c0.3,0.4,0.6,0.7,0.8,0.9c0.2,0.2,0.4,0.6,0.6,1.2c0,0.2,0.1,0.3,0.2,0.4
		c0.1,0.1,0.1,0.2,0.1,0.4c0.1,0.8,0.2,1.4,0.1,2c0,0.2-0.1,0.4-0.1,0.5s0,0.3-0.1,0.5c0,0.1-0.1,0.1-0.1,0.2c0,0-0.1,0.1-0.1,0.2
		c-0.3,0.6-0.6,1.1-1,1.5s-0.8,0.8-1.3,1.2c-0.2,0.2-0.4,0.3-0.6,0.5c-0.2,0.1-0.4,0.3-0.7,0.5c-0.1,0.1-0.2,0.1-0.3,0.2
		c-0.1,0-0.2,0.1-0.3,0.2c-0.3,0.1-0.6,0.2-0.8,0.3c-0.4,0.2-0.7,0.4-0.7,0.5c-0.1,0.1-0.2,0.3-0.6,0.6c-0.2,0.2-0.4,0.4-0.6,0.4
		h-0.6c-0.3,0-0.4,0-0.3,0c0,0-0.1,0.2-0.5,0.5c-0.3,0.2-0.7,0.4-1.2,0.6c-0.5,0.1-0.7,0.3-0.9,0.6c-0.3,0.4-0.5,0.5-0.5,0.5
		s-0.2,0-0.6,0.1c-0.1,0-0.3,0.1-0.4,0.1c-0.2,0-0.3,0.1-0.4,0.2c-0.1,0.1-0.2,0.2-0.4,0.4c-0.1,0.2-0.2,0.3-0.3,0.5
		c-0.3,0.3-0.5,0.5-0.6,0.7c-0.1,0.1-0.2,0.3-0.3,0.8c-0.1,0.4-0.2,0.9-0.3,1.2l0.5-0.1c0.3,0,0.5,0,0.8-0.1s0.6-0.1,0.9-0.2
		c0.4,0,0.8-0.1,1.2-0.2s0.7-0.3,1.1-0.4c0.3-0.1,0.5-0.2,0.6-0.2s0.2,0,0.3-0.1c0.1,0,0.3-0.1,0.6-0.2s0.6-0.3,1.1-0.6
		c0.3-0.3,0.6-0.5,0.7-0.6c0.1-0.1,0.2-0.2,0.4-0.4c0,0,0.1-0.1,0.3-0.1s0.3-0.1,0.4-0.1c0.2-0.1,0.4-0.1,0.5-0.1s0.3,0,0.6,0
		c0.1,0,0.2-0.1,0.3-0.1c0.2,0,0.3,0,0.4,0c0.1,0,0.2,0,0.4,0c0.4,0,0.8,0.2,1.2,0.3c0.4,0.2,0.7,0.4,1,0.8l0.1,0.1
		c0.2,0.2,0.3,0.4,0.4,0.5c0,0.1,0,0.2,0,0.5c0,0.2-0.1,0.4-0.1,0.5s-0.1,0.1-0.1,0.1v0.1c0,0.1-0.1,0.2-0.1,0.3
		c-0.2,0.4-0.6,0.8-1.2,1.2c-0.6,0.3-1.1,0.6-1.5,0.8c-0.4,0.1-1,0.3-1.8,0.5s-1.5,0.3-1.9,0.3c-0.6,0-1.2,0.1-1.9,0.4l-5.1,1.5
		l-0.1,0.2l-0.1,0.1c0.2,0,0.4,0.2,0.6,0.4c0.2,0.2,0.3,0.4,0.4,0.5c0.1,0.1,0.2,0.2,0.2,0.3s0.1,0.1,0.3,0.2c0,0.1,0.1,0.2,0.1,0.3
		s0,0.2,0.1,0.3c0.1,0.2,0.3,0.7,0.6,1.3s0.4,1.1,0.4,1.4l-0.1,1.2c0,0.1,0,0.2,0,0.1c0,0,0,0.1-0.1,0.2c-0.1,0.2-0.2,0.5-0.3,0.7
		s-0.3,0.5-0.4,0.8c-0.1,0.7-0.2,1.4-0.3,2.4c-0.1,0.9-0.1,1.8-0.1,2.8c0,0.9,0.2,1.8,0.3,2.6c0.2,0.8,0.4,1.5,0.8,1.9
		c0.5,0.7,1.1,1.3,1.7,1.8c0.2,0.1,0.3,0.1,0.4,0.1c0.1,0.1,0.3,0.2,0.6,0.2c0.3,0.1,0.5,0.1,0.7,0.2c0.3,0,0.6,0.1,0.9,0.1
		c0.3,0,0.6,0.1,0.9,0.2c0.2,0,0.6,0.1,1,0.1c0.5,0,0.9,0.1,1.4,0.2c1,0.2,2,0.2,3.2,0c1.1-0.2,2.2-0.5,3.2-0.9
		c0.3-0.1,0.4-0.1,0.5-0.2c0.1,0,0.3-0.1,0.8-0.1c0-0.1,0.1-0.2,0.1-0.2c0-0.1,0.1-0.2,0.1-0.4c0-0.6,0-1.1-0.1-1.5
		s-0.2-0.8-0.3-1.4c-0.1-0.4-0.2-0.9-0.4-1.3c-0.2-0.4-0.3-0.8-0.4-1.2c-0.1-0.2-0.2-0.6-0.4-1s-0.1-0.7,0-0.8
		c0.2-0.1,0.4-0.1,0.6,0.1c0.2,0.2,0.4,0.3,0.5,0.4l0.3,0.2c0.1,0.1,0.2,0.2,0.2,0.3c0.1,0.1,0.1,0.3,0.2,0.4l0.2,0.1
		c0.1,0.2,0.2,0.6,0.5,1c0.2,0.4,0.4,0.7,0.6,1c0.3,0.3,0.5,0.6,0.7,0.8c0.2,0.4,0.4,0.7,0.6,0.9c0.1,0.1,0.2,0.2,0.2,0.2
		s0.1,0,0.4,0c0.2,0,0.3,0,0.3,0s0,0.1,0.1,0.2c0.1,0.1,0.4,0.2,1.1,0.3c0.6,0.1,1,0.2,1.2,0.2c0.5,0.2,0.8,0.4,0.8,0.7
		c0,0.4,0,0.7-0.1,0.7s-0.1,0.1,0,0.4C218.2,105,218.1,105.8,217.7,106.3z M221.8,42c-0.1,0-0.2-0.1-0.2-0.1c-0.1,0-0.1,0-0.2-0.1
		c-0.3-0.1-0.6-0.2-1-0.3c-0.4-0.1-0.7-0.2-0.9-0.3c-0.2-0.1-0.3-0.1-0.3-0.2c-0.1,0-0.1,0-0.1,0H219c-0.1,0-0.2,0-0.4-0.1
		c-0.3-0.1-0.5-0.1-0.7-0.2c-0.2,0-0.4-0.1-0.7-0.3c-0.2-0.1-0.5-0.2-0.8-0.2s-0.6-0.1-0.8-0.1c-0.1,0-0.2,0-0.2-0.1
		c-0.1,0-0.2-0.1-0.2-0.1c-0.1,0-0.2,0-0.3,0s-0.2,0-0.2,0c-0.1,0-0.2-0.1-0.5-0.1c-0.2,0-0.4,0-0.6,0c-0.2,0-0.4,0-0.6-0.1
		c-0.2,0-0.3-0.1-0.4-0.2c-0.1-0.1-0.1-0.2-0.2-0.2l-0.1-0.1c-0.1-0.1-0.1-0.2-0.1-0.2c0-0.1,0.1-0.1,0.1-0.3c0.1,0,0.2,0,0.2,0
		s0,0,0.1,0.1c0-0.1,0-0.1,0-0.1s0-0.1,0.1-0.2s0.2-0.2,0.2-0.4c0,0,0.1,0,0.1-0.1h0.1h0.1h0.1c0.1,0,0.2,0,0.3,0s0.2,0,0.3,0
		c0.2,0,0.4,0,0.5,0.1c0.1,0,0.3,0.1,0.5,0.1c0.1,0,0.2,0,0.2,0.1c0,0,0.1,0,0.3,0s0.3,0,0.3,0h0.1c0,0,0,0,0.1,0
		c0,0,0.1-0.1,0.3-0.1l-0.1-0.2c0.2-0.1,0.3-0.2,0.2-0.3c-0.1,0-0.1-0.2-0.2-0.3c-0.1-0.1-0.1-0.1-0.2-0.2c-0.1,0-0.1-0.1-0.2-0.1
		c-0.1-0.1-0.1-0.1-0.2-0.2c-0.1-0.1-0.2-0.2-0.2-0.4c-0.1-0.2-0.1-0.3-0.2-0.4c-0.1-0.1-0.1-0.3-0.1-0.4s0-0.2,0-0.3
		c0-0.1,0-0.2-0.1-0.3c0-0.2-0.1-0.4-0.1-0.5c0-0.2,0-0.3,0-0.5V34v-0.1c0.1-0.1,0.1-0.1,0.1-0.1s-0.1,0,0-0.1
		c0-0.1,0.1-0.1,0.1-0.1s0,0,0-0.1v-0.1c0-0.1,0-0.1,0-0.1v-0.1c0,0,0,0,0-0.1s0-0.1,0-0.1v-0.1c0,0,0-0.1,0-0.2l0,0c0,0,0,0,0-0.1
		c0,0,0-0.1,0.1-0.2l0.2-0.9c0-0.1,0.1-0.2,0.1-0.2c0-0.1,0-0.1-0.1-0.2l-0.1,0.1c0,0,0,0-0.1,0.1c0,0,0,0-0.1,0
		c-0.2,0.1-0.3,0.2-0.4,0.3c-0.1,0.1-0.2,0.2-0.2,0.3c-0.1,0.1-0.2,0.3-0.3,0.4c-0.1,0.2-0.2,0.4-0.3,0.5s-0.1,0.2-0.2,0.3
		c0,0.1-0.1,0-0.3,0c-0.1,0-0.1-0.1-0.2-0.2c-0.1-0.1-0.1-0.1-0.2-0.1c-0.2-0.2-0.4-0.3-0.4-0.3s-0.1-0.1-0.1-0.3c0-0.1,0-0.1,0-0.1
		s0,0,0.1-0.1c0-0.1,0-0.2,0-0.3c0-0.1,0-0.2,0.1-0.3c0-0.1,0.1-0.1,0.2-0.2c0.1,0,0.2,0,0.3-0.1c0,0,0.1,0,0.1-0.1
		c0.1-0.1,0.2-0.1,0.3-0.2s0.2-0.1,0.3-0.2s0.1-0.1,0.2-0.1c0.2-0.1,0.4-0.3,0.5-0.3c0.1-0.1,0.3-0.1,0.5-0.2c0.2,0,0.3-0.1,0.5,0
		c0.2,0,0.3,0.1,0.4,0.3c0.2,0.4,0.2,0.7,0.1,1c-0.1,0.3-0.1,0.6-0.1,0.7s0,0.2,0,0.3c0,0.1,0,0.2,0,0.4c0,0.2-0.1,0.4-0.1,0.7
		c0,0.2-0.1,0.5-0.1,0.7s0,0.2,0,0.3c0,0,0,0,0,0.1c0,0,0,0,0,0.1c0,0,0,0.1,0.1,0.2v0.1c0,0.1,0,0.1,0,0.2c0,0.4,0.1,0.6,0.2,0.7
		c0.1,0.1,0.2,0.3,0.4,0.5l0.1,0.1c0,0,0,0.1,0.1,0.1c0.1,0.1,0.2,0.2,0.3,0.3c0.1,0.1,0.2,0.2,0.3,0.3c0.1,0.2,0.3,0.3,0.3,0.4
		c0.1,0.1,0.1,0.3,0.1,0.6c0,0.1,0,0.2,0,0.3c0,0.1,0,0.2,0,0.3c0,0.1-0.1,0.2-0.1,0.3c0,0.1,0,0.2-0.1,0.3c0.2,0.1,0.3,0.1,0.4,0.1
		c0.1,0,0.2,0,0.3,0.1c0.3,0.1,0.5,0.1,0.8,0.2c0.2,0.1,0.5,0.2,0.8,0.2c0.1,0,0.2,0.1,0.4,0.1c0.1,0,0.3,0.1,0.4,0.1
		c0.1,0,0.2,0.1,0.4,0.1s0.3,0.1,0.4,0.1c0.1,0,0.2,0,0.2,0s0.1,0.1,0.2,0.1c0.1,0,0.1,0,0.2,0c0.1,0,0.1,0,0.2,0.1
		c0.1,0,0.1,0,0.2,0c0,0,0.1,0,0.2,0c0.1,0,0.1,0,0.2,0c0.1,0,0.1,0,0.2,0.1c0.1,0,0.2,0,0.4,0s0.3,0,0.5,0s0.3,0,0.5,0s0.3,0,0.4,0
		c0.1,0,0.2,0,0.4,0c0.1,0,0.3,0,0.4,0c0,0,0,0,0-0.1c0,0,0,0,0-0.1c0,0,0-0.1,0.1-0.1c0,0,0,0,0-0.1s-0.1-0.1-0.1-0.2
		c-0.1,0-0.1-0.1-0.1-0.1h-0.1c0,0,0,0,0.1-0.1c0-0.1,0-0.2-0.1-0.3c-0.1-0.1-0.1-0.1-0.2-0.2c-0.1-0.1-0.1-0.2-0.2-0.2
		c0-0.1-0.1-0.1-0.1-0.2c-0.1-0.2-0.3-0.4-0.5-0.6c-0.2-0.3-0.4-0.5-0.5-0.6c-0.1,0-0.1-0.1-0.1-0.2s-0.1-0.2-0.2-0.2
		c0-0.1-0.1-0.1-0.2,0h-0.1c0,0-0.1,0-0.1,0.1l-0.1,0.1c0,0-0.1,0-0.1,0.1c-0.1,0-0.1,0.1-0.1,0.1s0,0-0.1,0.1c-0.1,0-0.2,0-0.2,0
		s-0.1,0-0.2,0.1c-0.1,0-0.1,0.1-0.2,0.1c0,0-0.1,0-0.2,0.1c-0.1,0.1-0.2,0.2-0.3,0.2c-0.1,0.1-0.2,0.1-0.3,0.3c0,0.1,0,0.1,0,0.2
		s0,0.1-0.1,0.2s-0.1,0.1-0.1,0.2c0,0-0.1,0-0.1,0.1c-0.1,0.1-0.2,0.2-0.2,0.3c0,0.2-0.1,0.3-0.2,0.5c-0.1,0-0.2,0-0.2-0.1
		s-0.1-0.2-0.1-0.3c0-0.1-0.1-0.1-0.1-0.1v-0.1c0-0.1,0-0.1,0-0.1s0,0-0.1-0.1c0-0.1,0-0.1,0-0.2c0,0,0-0.1-0.1-0.1
		c0-0.1-0.1-0.2-0.1-0.2c-0.1-0.1-0.1-0.1-0.1-0.2s-0.1-0.3-0.2-0.4c-0.1-0.1-0.1-0.2-0.2-0.4c-0.1-0.1-0.1-0.2-0.2-0.3
		c0-0.1,0-0.1,0-0.2v-0.1c0,0,0-0.1-0.1-0.1c0,0,0-0.1-0.1-0.2c0-0.1,0-0.1,0-0.1s0,0-0.1-0.1c0-0.1-0.1-0.1-0.2-0.2
		c-0.1-0.1-0.1-0.1-0.1-0.2c0.2,0,0.3,0,0.3,0s0.1,0.1,0.2,0.1l0.1,0.1c0,0,0,0,0.1,0.1c0,0.1,0,0.1,0.1,0.1c0,0,0,0,0.1,0
		c0-0.1,0-0.1,0-0.1v-0.1c0-0.1,0-0.1,0-0.1s0,0,0-0.1s-0.1-0.2-0.1-0.3v-0.1v-0.1c0,0-0.1,0-0.2,0l-0.1,0.1c0,0-0.1,0.1-0.3,0.1
		l0,0l0,0l0,0l-0.1,0.1c0,0-0.1,0-0.2,0.1c-0.1,0-0.1,0-0.2,0c-0.2-0.1-0.2-0.2-0.2-0.4c0-0.2,0-0.3,0.2-0.4
		c0.1-0.1,0.2-0.1,0.1-0.2s0-0.1,0.1-0.1c0.1-0.1,0.1-0.1,0.2-0.2c0-0.1,0.1-0.1,0.1-0.2l0.1-0.1c0.1-0.1,0.1-0.1,0-0.2
		c0-0.1-0.1-0.2-0.1-0.1c0,0,0,0,0-0.1s0-0.2,0-0.3c0-0.1,0-0.3,0.1-0.4s0.1-0.2,0.1-0.2v-0.1l0,0c0,0,0,0,0.1-0.1
		c0.1,0,0.1-0.1,0.1-0.1c0-0.1,0-0.1,0.1-0.2s0.2-0.2,0.4-0.1c0.1,0,0.1,0,0.1,0h0.1c0,0,0.1,0.1,0.2,0.2c0.1,0,0.2,0,0.4-0.1
		s0.3-0.2,0.4-0.3c0-0.1,0-0.2-0.1-0.2c-0.1-0.1-0.2-0.1-0.3-0.1s-0.2-0.1-0.2-0.2c-0.1-0.1-0.1-0.2-0.1-0.3v-0.1
		c0-0.1,0.1-0.2,0.1-0.3c0.1-0.1,0.1-0.2,0.1-0.2s0-0.1-0.1-0.3c0-0.1-0.1-0.2-0.1-0.2c0-0.1-0.1-0.2-0.1-0.2s0-0.1-0.1-0.1
		c0,0,0-0.1-0.1-0.1c0-0.1-0.1-0.2-0.1-0.4c-0.1-0.1-0.1-0.2-0.2-0.4c0,0,0-0.1-0.1-0.2c0-0.1-0.1-0.3-0.2-0.5
		c-0.1-0.2-0.1-0.3-0.2-0.5c-0.1-0.1-0.1-0.2-0.1-0.3c0-0.1-0.1-0.2-0.1-0.3c0-0.1-0.1-0.2-0.1-0.2s0-0.1,0-0.2s0-0.1,0-0.1
		c-0.1-0.2-0.2-0.4-0.2-0.7c0-0.2-0.1-0.5-0.1-0.7c0-0.1,0-0.2,0-0.3c0-0.1,0-0.2,0-0.2c0-0.1,0-0.1,0-0.1s0,0,0-0.1s0-0.1,0-0.1
		s0-0.1,0-0.2c0-0.2,0-0.3,0-0.3s0-0.1-0.1-0.3c0,0,0,0,0-0.1v-0.1c0-0.1-0.1-0.2,0-0.2c0,0,0,0,0.1-0.1c0-0.1,0-0.2,0-0.2
		c0-0.1,0-0.2,0.2-0.2l0.1,0.1h0.1l0,0c0.1,0,0.2,0.1,0.3,0.3c0.1,0.2,0.2,0.2,0.3,0.3l0.1,0.1c0.1,0,0.1,0.1,0.1,0.1
		c0.1,0.2,0.1,0.2,0.1,0.3c0,0,0,0.1-0.1,0.1l0,0c0,0.1-0.1,0.2-0.2,0.3c0,0.1,0,0.1,0.1,0.1c0,0,0,0,0,0.1v0.1c0,0,0,0,0,0.1
		c0,0.2,0,0.4,0,0.5c0,0.2,0,0.4,0.1,0.5c0,0.2,0.1,0.4,0.1,0.6c0.1,0.2,0.1,0.4,0.2,0.6c0.1,0,0.2-0.1,0.3-0.2s0.1-0.2,0.2-0.3
		c0-0.1,0-0.2,0-0.4c0-0.2,0-0.3,0-0.4s0-0.2,0-0.3c0-0.1,0-0.1,0-0.1s0-0.1-0.1-0.1c0,0-0.1-0.1-0.1-0.2s-0.1-0.2-0.1-0.3
		c0-0.2,0-0.3,0-0.4s0-0.2,0.1-0.3c0.1-0.1,0.1-0.2,0.2-0.3c0.1-0.2,0.1-0.3,0.2-0.3c0.1,0,0.2,0,0.3-0.1c0.1,0,0.1-0.1,0.1-0.1
		l0.1-0.1c0.1,0,0.1,0,0.2,0c0,0,0.1,0,0.1-0.1c0.1,0,0.2-0.1,0.3-0.1c0.1-0.1,0.2-0.1,0.3-0.1c0.4-0.1,0.7-0.2,1-0.3
		c0.3-0.1,0.7-0.2,1-0.3h0.5h0.1c0.1,0,0.1,0,0.1,0c0.1,0,0.2,0.1,0.4,0.1c0.1,0,0.2,0,0.4,0.1l1.1,0.3c0.1,0,0.1,0,0.1,0.1l0.1,0.1
		c0.1,0.1,0.2,0.1,0.3,0.1s0.2,0.1,0.3,0.2s0.3,0.3,0.4,0.5c0.1,0.2,0.2,0.5,0.2,0.7c0,0.1,0,0.2-0.1,0.4c-0.1,0.2-0.1,0.3-0.1,0.3
		c-0.1,0.1-0.2,0.1-0.3,0.2s-0.2,0-0.3,0s-0.2-0.1-0.2-0.2c-0.1-0.1-0.2,0-0.3,0.1c0,0.1-0.1,0.3-0.2,0.5c-0.1,0.2-0.2,0.5-0.3,0.7
		c-0.1,0.3-0.2,0.5-0.3,0.8s-0.2,0.5-0.2,0.6c-0.1,0.2-0.2,0.4-0.3,0.7c-0.1,0.2-0.1,0.5,0,0.7c0,0.1,0,0.2,0,0.4c0,0.2,0,0.3,0,0.4
		c-0.1,0.2-0.2,0.3-0.4,0.5s-0.4,0.3-0.5,0.4l-0.6,0.4c-0.1,0.1-0.2,0.2-0.2,0.2c0,0.1-0.1,0.2-0.1,0.4c0.2,0,0.4-0.1,0.6-0.2
		c0.2-0.1,0.4-0.2,0.6-0.2c0.1,0,0.2,0,0.3,0s0.2,0,0.2-0.1c0.1,0,0.2-0.1,0.2-0.1c0.1,0,0.3-0.1,0.6-0.1s0.5,0,0.6,0
		c0.2,0,0.3,0,0.5,0.1s0.3,0.1,0.5,0.2c0.3,0.1,0.4,0.2,0.5,0.2c0.1,0.1,0.2,0.1,0.3,0.2c0.2,0,0.2,0.1,0.2,0.1s0,0.1,0.1,0.1
		l0.1,0.1c0,0,0,0,0.1,0c0,0,0,0,0,0.1c0,0,0.1,0.1,0.1,0.2c0.1,0.2,0.2,0.3,0.3,0.4s0.2,0.3,0.2,0.4s0,0.1,0.1,0.1c0,0,0,0,0,0.1
		V34c0,0,0,0.1,0,0.2s0,0.2-0.1,0.3c-0.1,0.1-0.1,0.2-0.2,0.3c-0.1,0.1-0.2,0.2-0.3,0.2c-0.1,0.1-0.2,0.2-0.2,0.3c0,0,0,0.1-0.1,0.2
		c0,0.1-0.1,0.2-0.1,0.2c0,0.1,0,0.1,0,0.2c0,0,0,0.1,0,0.2v0.1v0.1c0,0.1,0,0.2,0,0.3c0,0.1,0,0.2-0.1,0.3
		c-0.1,0.1-0.1,0.2-0.1,0.2s0,0.1-0.1,0.2c0,0.1-0.1,0.3-0.2,0.4c-0.1,0.2-0.2,0.3-0.3,0.4s-0.1,0.3-0.2,0.5
		c-0.1,0.2-0.1,0.3-0.2,0.5l-0.1,0.1c0,0,0,0.1-0.1,0.1l-0.1,0.2c0,0-0.1,0.1-0.1,0.2c-0.1,0.1-0.1,0.1-0.1,0.2s-0.1,0.2-0.1,0.3
		c0,0.1-0.1,0.2-0.1,0.2c-0.1,0.1-0.1,0.1-0.2,0.2c-0.1,0.1-0.1,0.1-0.2,0.1c-0.1,0-0.2,0.1-0.2,0.1s-0.1,0.1-0.2,0.1
		c0.1,0,0.2,0,0.3,0c0.2,0,0.3,0,0.5,0c0,0,0.1,0,0.2,0c0.1,0,0.1,0,0.2,0c0.1,0,0.1,0,0.1,0s0,0,0.1,0s0.2,0,0.3,0s0.2,0,0.3,0
		c0.3,0,0.4,0,0.5,0s0.2,0,0.3,0s0.2,0,0.4,0c0.1,0,0.3,0,0.4,0.1c0.1,0,0.2,0,0.2,0s0.1,0,0.2,0c0.1,0,0.2,0.1,0.1,0.1
		c0,0.1,0,0.1,0,0.2l0.1,0.1c0,0.1,0,0.1,0,0.2c0,0,0,0.1,0,0.2s0,0.2,0,0.2s0,0-0.1,0.1v0.1v0.1c0,0,0,0-0.1,0s-0.1,0-0.1,0.1
		c-0.1,0-0.1,0-0.2,0c0,0-0.1,0-0.3,0c-0.1,0-0.1,0-0.1,0s0,0-0.1,0l-0.2,0.1c-0.2,0-0.3,0-0.4,0.1c-0.1,0.1-0.3,0.1-0.4,0.2
		c-0.2,0.1-0.3,0.1-0.5,0.2s-0.4,0.1-0.7,0c-0.2,0-0.3,0-0.5,0.1c-0.1,0-0.2,0.1-0.2,0.1h-0.1l0,0h-0.1c-0.1,0-0.2,0.1-0.3,0.1
		s-0.2,0-0.2,0c-0.2,0-0.3,0-0.5,0s-0.3,0-0.5,0h-0.1h-0.1c-0.1,0-0.2,0-0.4-0.1c-0.2,0-0.3-0.1-0.3-0.1c-0.1-0.1-0.3-0.1-0.5-0.1
		s-0.3-0.1-0.5-0.1C222.1,42.1,221.9,42,221.8,42z M261.1,66.8c0,0.1-0.1,0.2-0.1,0.2c-0.2,0.2-0.4,0.4-0.7,0.6
		c-0.3,0.1-0.5,0.3-0.7,0.6c-0.1,0-0.1,0.1-0.2,0.1c0,0-0.1,0.1-0.2,0.2c-0.2,0.1-0.5,0.2-0.9,0.3c-0.3,0.1-0.6,0.2-0.9,0.4
		l-0.4,0.4c-0.2,0.1-0.4,0.2-0.6,0.2c-0.2,0.1-0.4,0.2-0.5,0.3c-0.2,0.1-0.2,0.1-0.2,0.2c0,0-0.1,0.1-0.3,0.2c-0.5,0.3-1,0.6-1.5,1
		c-0.1,0.1-0.3,0.2-0.6,0.2c-0.2,0.1-0.4,0.2-0.5,0.2c-0.2,0.1-0.3,0.1-0.4,0.2c-0.1,0-0.2,0.1-0.2,0.2c0,0-0.1,0.1-0.2,0.2
		s-0.3,0.2-0.3,0.3v0.1c0,0,0,0,0,0.1v0.1v0.1c-0.1,0.2-0.1,0.3-0.1,0.3c-0.1,0-0.1,0.1-0.3,0.4c-0.1,0.4-0.2,0.7-0.3,0.8
		c-0.1,0.1-0.1,0.3-0.1,0.4c-0.1,0.4,0,0.6,0,0.7s0.1,0.2,0.1,0.4v0.1c0,0.2,0,0.3,0.2,0.3c0.2-0.1,0.3-0.1,0.6-0.1
		c0.3,0,0.5,0.1,0.5,0c0,0,0.2-0.1,0.6-0.1c0.2,0,0.3-0.1,0.3-0.1s0-0.1,0.2-0.2c0.4-0.2,0.8-0.3,1.3-0.3s1-0.1,1.4-0.1
		c0.4,0,0.7,0,0.7,0c0.1,0.1,0.2,0.2,0.6,0.5c0,0.5,0.8,0.9-0.6,1.2v0.1v0.1c0,0.4-0.4,0.6-0.7,0.8c-0.3,0.2-0.7,0.3-1.1,0.3
		c-0.4,0.1-0.8,0.1-1.2,0.2c-0.4,0-0.8,0.2-1.2,0.4c-0.1,0-0.2,0.1-0.4,0.1c0,0-0.1,0.1-0.2,0.1l-0.4,0.2c-0.1,0.1-0.1,0.1-0.1,0.1
		s0,0-0.1,0L251,80c-0.1,0.1-0.2,0.1-0.2,0.1s0,0-0.2,0.2c-0.2,0.4-0.3,0.7-0.4,1.1c-0.1,0.4-0.1,0.8,0,1.2c0.1,0.7,0.1,1.1,0.1,1.3
		s-0.1,0.6-0.1,1c0,0.2,0,0.3-0.1,0.2c0,0-0.1,0-0.1,0.2s0,0.4,0.1,0.5c0,0.1,0.1,0.2,0.1,0.4c-0.1,0.4-0.1,0.7-0.2,0.9
		c0,0.2,0,0.5,0,0.9c0,0.2,0,0.4,0.1,0.5s0,0.3,0,0.5s-0.1,0.4-0.1,0.4s0,0.2,0,0.6v0.9c0,0.4,0.1,0.7,0.2,0.8s0.2,0.5,0,1.1
		c0,0.2,0,0.4,0.1,0.4s0.1,0.2,0.1,0.4c0,0.4,0,0.8,0,1s0.1,0.5,0.1,0.9s0.2,0.7,0.2,0.8s0,0.2,0,0.2s0,0.1,0,0.2c0,0.1,0,0.4,0,0.8
		c0,0.4-0.1,0.7-0.1,0.7c0,0.1-0.1,0.3-0.1,0.7c0,0.1,0.1,0.2,0,0.2c0,0.1,0.1,0.1,0.1,0.2v0.8c0,0.5,0,0.8,0,0.9
		c0,0.1,0,0.3-0.7,0.7v0.1c0,0.2-0.3,0.4-0.3,0.7c-0.1,0.2-0.2,0.5-0.4,0.7c-0.2,0.3-0.4,0.4-0.5,0.4s-0.3,0-0.6-0.1
		c-0.4,0-0.6,0-0.7,0.1s-0.4,0-0.9-0.3c-0.1,0-0.2-0.1-0.2,0c0,0,0,0-0.2-0.2l-0.6-0.2c0,0,0-0.1-0.1-0.1c-0.3-0.2-0.5-0.3-0.4-0.3
		c0,0-0.2-0.1-0.7-0.3l-0.8-0.4c-0.2-0.1-0.4-0.2-0.6-0.3s-0.4-0.2-0.6-0.3c-0.2-0.2-0.5-0.4-0.7-0.5s-0.4-0.5-0.7-0.5h-0.2
		c-0.1,0-0.2-0.1-0.4-0.2c-0.1-0.1-0.3-0.1-0.4-0.1c-0.2,0-0.2-0.1-0.2,0c0,0,0,0-0.1,0c-0.1-0.1-0.2-0.2-0.4-0.2
		c-0.2-0.2-0.4-0.3-0.6-0.3c-0.1,0-0.3-0.2-0.7-0.5l-1-0.9c-0.2-0.2-0.4-0.4-0.5-0.5s-0.1-0.2-0.1-0.3s0-0.2-0.1-0.2
		c0-0.1-0.1-0.2-0.3-0.3c-0.1-0.1-0.1-0.2-0.2-0.3c0-0.1-0.1-0.3-0.2-0.4c-0.1-0.2-0.1-0.3-0.2-0.2c0,0-0.1,0-0.2-0.1l-0.1-0.1
		c0-0.1-0.1-0.2-0.1-0.2c0-0.1-0.1-0.3-0.2-0.6l-0.6-0.9l-0.1-0.2c-0.1-0.2-0.2-0.6-0.2-1.1c-0.1-0.6-0.1-0.9-0.2-1.1
		c0-0.1-0.1-0.3-0.1-0.6s0-0.6,0.1-0.8c0-0.2,0.1-0.3,0-0.3c0,0,0,0,0.1-0.1c0.2-0.3,0.3-0.5,0.3-0.6c0.1-0.1,0.1-0.2,0.1-0.2
		s0.1-0.1,0.2-0.2c0.1-0.1,0.3-0.3,0.4-0.6l0.1-0.1c0,0,0-0.1,0.1-0.1c0.1-0.2,0.2-0.2,0.3-0.1c0.1,0.1,0.3,0.1,0.5-0.2
		c0.1-0.1,0.2-0.2,0.2-0.3s0.1-0.1,0.3,0c0,0,0.1,0.1,0.2,0.1s0.1,0.1,0.2,0.1c0.3,0,0.5-0.1,0.7-0.2c0.2,0,0.6-0.1,1.1-0.1
		s1-0.1,1.3-0.1c0.4-0.1,0.6-0.1,0.6-0.1s0.1-0.1,0.3-0.2l0.9,0.2h0.1c0.6,0,1.1,0.3,1.3,0.4c0.3,0.1,0.5,0.3,0.6,0.4
		c0.1,0.1,0.3,0.3,0.4,0.4c0.1,0.1,0.4,0.3,0.7,0.6c0.3,0.3,0.4,0.5,0.4,0.6s-0.2,0.3-0.5,0.5c-0.2,0.2-0.4,0.5-0.5,0.9
		s-0.3,0.8-0.6,1.3c-0.2,0.2-0.4,0.3-0.4,0.3s-0.2,0-0.4,0.1c-0.1,0-0.1,0-0.2,0l0,0c-0.3,0.1-0.5,0.2-0.6,0.2s-0.2,0-0.2,0
		s-0.1-0.1-0.2-0.2c-0.1,0-0.2-0.1-0.4,0c-0.3,0.1-0.4,0-0.3,0s0-0.3-0.2-0.3h0.6h-0.7c-0.2,0-0.5,0.1-0.8,0s-0.6-0.2-1-0.4
		c-0.3-0.1-0.6-0.2-0.9-0.3c-0.2-0.1-0.4-0.1-0.4-0.1c-0.4,0-0.5,0-0.4,0s0-0.1-0.4-0.2c-0.2,0.4-0.3,0.8-0.2,1.3
		c0.1,0.4,0.2,0.8,0.3,1.2c0.2,0.4,0.4,0.8,0.6,1.1c0.3,0.4,0.5,0.7,0.8,1c0.1,0.1,0.1,0.2,0.2,0.3l2.4,1.7c0.3,0.2,0.7,0.5,1.1,0.7
		s0.8,0.3,1.3,0.4l1.4,0.3c0.1,0,0.2,0.1,0.2,0.1c0.1,0,0.2,0.2,0.3,0.2h0.2h0.2c0.2,0,0.4-0.1,0.4-0.1c0,0.1,0.1-0.1,0.4-0.2
		c0.2-0.1,0.2-0.2,0.3-0.2c0-0.1,0.1-0.2,0.2-0.2l0.1-0.2c0-0.2-0.1-0.4,0-0.7c0-0.3-0.2-0.5-0.2-0.7v-1.3c0-0.3,0-0.7,0.1-1.1
		c-0.1-0.2-0.1-0.3-0.1-0.2c0,0,0,0,0-0.1v-0.3l0.2-2.8c0-0.1,0.2-0.2,0.2-0.3s0-0.2,0-0.3c-0.1-0.2-0.1-0.4,0-0.7
		c0-0.2,0-0.4,0-0.4s0-0.3,0-0.7c0-0.1,0-0.4,0.1-0.7c0-0.4,0.1-0.7,0.1-1c0-0.2,0-0.4,0-0.6c0-0.2,0-0.3-0.1-0.5
		c0-0.2-0.1-0.4-0.1-0.7c0.2,0,0.3-0.1,0.3-0.1h-0.3c0.1,0,0.4-0.5,0.5-0.5s0.4-0.4,0.4-0.7V84c-1.3-0.1-0.4-0.1-0.4-0.1
		s-0.2,0,0-0.1c0-0.4,0-0.6-0.1-0.6c0,0,0-0.2,0.1-0.6c0-0.4,0-0.8,0-1.2c-0.4,0-0.9,0.1-1.4,0.3s-0.9,0.3-1.4,0.4l-1.8,0.5
		c-0.3,0.1-0.6,0.2-1,0.2s-0.7,0-0.7,0.1l-4,1.1c0,0-0.2,0.1-0.4,0.2c-0.2,0.1-0.4,0.1-0.4,0.2c0,0-0.1,0.2-0.2,0.4
		c-0.1,0.1-0.2,0.1-0.2,0.2c-0.1,0-0.2,0.1-0.3,0.2l-0.1,0.1c-0.3,0.2-0.6,0.4-0.9,0.4s-0.6,0.1-1,0.1c0,0.1,0,0.1,0,0.2
		c0-0.1-0.1,0-0.2,0.1c-0.2,0.2-0.4,0.3-0.5,0.2s-0.3,0-0.3,0.2c-0.2,0-0.4,0-0.5-0.1l-0.6-0.3c-0.1-0.1-0.2-0.2-0.2-0.4
		c-0.1-0.1-0.1-0.1-0.1-0.2c0,0,0-0.1,0-0.2l-0.2-0.2c-0.1-0.2-0.1-0.3-0.1-0.3s0-0.1,0-0.3s0-0.4,0.1-0.5s0.1-0.2,0.2-0.4
		c0.1-0.2,0.1-0.3,0.1-0.3s0-0.2,0.1-0.5c0.1-0.4,0.2-0.6,0.3-0.6s0.2-0.2,0.2-0.6c0.2,0,0.2-0.1,0.2,0c0,0,0.1,0,0.2-0.1
		c0.1,0,0.2,0,0.3-0.1c0.2-0.1,0.3-0.1,0.2-0.1s-0.1,0,0.1-0.1c0.1-0.1,0.1-0.2,0.1-0.1c0,0,0,0.1,0.1,0.1c0.2-0.1,0.4-0.1,0.3-0.1
		c0-0.1,0.1-0.2,0.3-0.2h0.1l0.9-0.7c0.2,0,0.2-0.2,0.2-0.3c0,0,0.1-0.1,0.4-0.2c0.1-0.1,0.2-0.1,0.3-0.1c0.1,0,0.2-0.1,0.3-0.2
		l1.2-0.9c0.2-0.1,0.3-0.1,0.3-0.2c0,0,0.1-0.1,0.2-0.2c0.2-0.1,0.3-0.1,0.3-0.1s0.2-0.1,0.3-0.2c0.1-0.1,0.1-0.2,0.2-0.2
		c0-0.1,0.1-0.2,0.2-0.3c0.1-0.1,0.2-0.1,0.3-0.1c0.1,0,0.2-0.1,0.3-0.2c0.2-0.1,0.3-0.2,0.3-0.2c0-0.1,0.1-0.1,0.2-0.2
		s0.3-0.2,0.6-0.3c0.2-0.1,0.4-0.3,0.6-0.4s0.4-0.2,0.4-0.2c0-0.1,0.1-0.1,0.2-0.2c0.2-0.1,0.3-0.1,0.3-0.1s0.2-0.1,0.4-0.2
		c0.1-0.1,0.1-0.1,0.2-0.1c0,0,0.2-0.1,0.4-0.2c0,0,0.1-0.1,0.3-0.2c0.1-0.1,0.3-0.2,0.4-0.2c0.1-0.1,0.3-0.2,0.5-0.3
		c0.5-0.1,0.8-0.2,1.1-0.5c0.2-0.2,0.4-0.4,0.6-0.6c0.1,0,0.1-0.1,0.2,0c0,0,0.1,0,0.3-0.2c0,0,0.1,0,0.2-0.1h0.1c0,0,0,0,0.1,0
		c0.4-0.2,0.7-0.4,0.9-0.5c0.1-0.1,0.2-0.2,0.4-0.3c0.2-0.1,0.3-0.3,0.4-0.4c0-0.4,0-0.7,0-0.9c0-0.2,0.1-0.3,0.2-0.4
		c0.1,0,0.3,0,0.7,0.3c0.1,0.1,0.2,0.1,0.2,0.1c0.1,0,0.1,0.2,0.2,0.2h0.3h0.1c0,0,0.1,0.1,0.2,0.1l0.8-0.4c0.1,0,0.1-0.1,0.2-0.1
		c0,0,0.1-0.1,0.2-0.1c0.2-0.1,0.3-0.1,0.3-0.2c0.1,0,0.2-0.1,0.4-0.2l0.6-0.4c0.3-0.1,0.5-0.2,0.7-0.3c0.2-0.1,0.4-0.2,0.7-0.4
		c0.3-0.1,0.5-0.2,0.7-0.4c0.2-0.2,0.4-0.3,0.7-0.4c0-0.1-0.1-0.2-0.1-0.4c-0.4,0.1-0.9,0.2-1.3,0.3c-0.4,0.1-0.8,0.2-1.3,0.3
		c-0.2,0-0.4,0.1-0.5,0.1s-0.2,0.1-0.4,0.2l-0.9,0.3c-0.2,0.1-0.4,0.2-0.6,0.3c-0.3,0-0.5,0.4-0.6,0.4h-0.1c-0.3,0-0.6-0.1-0.8-0.1
		l-0.5-0.2c-0.3,0-0.5,0.1-0.7,0.2s-0.3,0.1-0.6,0.2c-0.1,0-0.3,0.1-0.6,0.2l-0.7,0.2c-0.2,0-0.4,0-0.5,0.1s-0.3,0.1-0.5,0.2
		c-0.3,0.1-0.4,0.2-0.4,0.2c0,0.1-0.1,0.1-0.2,0.2c-0.2,0.1-0.4,0.1-0.4,0.1s-0.2,0-0.5,0.2c-0.1,0.1-0.2,0.2-0.3,0.2
		c-0.1,0-0.3,0.1-0.5,0.1l-0.3,0.1c-0.2,0.1-0.3,0.1-0.3,0.1s-0.1-0.1-0.3-0.1c-0.2,0-0.3,0.1-0.3,0.1s-0.1,0.1-0.2,0.2
		s-0.2,0.1-0.3,0.1c-0.1,0-0.2,0-0.3,0.1c-0.2,0.1-0.4,0.2-0.5,0.3c-0.1,0.1-0.3,0.2-0.5,0.3c-0.2,0-0.4,0.1-0.6,0.1
		s-0.4,0.1-0.6,0.2s-0.4,0.1-0.5,0.1s-0.3,0-0.5,0.1h-0.6h-0.2l-0.2,0.3c-0.5,0.2-0.8,0.7-1.1,0.8c-0.2,0.1-0.6,0.2-1.3,0.1
		c-0.2,0-0.4-0.1-0.4,0c0,0-0.1,0.1-0.2,0.1l-0.2,0.1l-0.3,0.2c-0.2,0.1-0.5,0.2-0.7,0.2c-0.2,0.1-0.5,0.2-0.8,0.3l-0.7,0.3
		c-0.3,0.1-0.5,0.2-0.6,0.2c-0.1,0.1-0.3,0.2-0.5,0.3c-0.1,0.1-0.3,0.1-0.5,0.2c-0.1,0.1-0.2,0.1-0.1,0.1c0.1,0,0,0-0.2,0.1
		c0,0,0,0-0.1,0.1c0,0,0,0-0.2,0.1s-0.4,0.2-0.5,0.3c-0.1,0.1-0.3,0.1-0.5,0.2l-0.3,0.1l-1.5,0.6c-0.5,0.2-0.7,0.3-0.7,0.4
		c0,0-0.2,0.1-0.5,0.3c-0.8,0.1-1.3-0.1-1.5-0.7c-0.1-0.6-0.1-1.1,0.1-1.7c0.1-0.2,0.1-0.3,0.2-0.4c0-0.1,0.1-0.1,0.2-0.2
		c0-0.1,0-0.1,0-0.1l0,0l0,0v-0.1c0-0.1,0-0.1,0-0.1l0,0h1.5c0.3,0,0.5-0.1,0.6-0.2s0.3-0.2,0.6-0.2c0,0.2,0,0.3,0,0.3
		s-0.1,0.1-0.2,0.3c0.5,0,1.1-0.2,1.7-0.6c0.1-0.1,0.2-0.1,0.4-0.2c0.1,0,0.2-0.1,0.4-0.2c0.1-0.1,0.3-0.2,0.6-0.2
		c0.3-0.1,0.5-0.2,0.7-0.2l1.7-0.7c0.1,0,0.2-0.1,0.2-0.1c0.1,0,0.2,0,0.2-0.1l1.7-0.7c0.3-0.1,0.5-0.2,0.6-0.3
		c0.1-0.1,0.2-0.2,0.3-0.3c0.2,0,0.3,0,0.3,0.1c0,0,0,0,0.1-0.2c0.2,0,0.4,0,0.7-0.1c0.3-0.1,0.5-0.1,0.6-0.2l0.7-0.3l0.3-0.2
		c0.2-0.1,0.4-0.1,0.4-0.2c0,0,0.2-0.1,0.6-0.2l1.9-0.7c0.2,0,0.3-0.2,0.4-0.4c0.4-0.7,0.5-1.2,0.4-1.6s-0.1-0.8-0.1-1.2
		c0-0.1,0.1-0.2,0.1-0.2c0-0.1,0-0.2,0-0.4c0-0.2,0-0.3,0.1-0.3c0,0,0.1-0.1,0.1-0.3c-0.2,0-0.4,0-0.5-0.1c-0.1,0-0.3-0.1-0.5-0.1
		c0,0,0,0.1-0.1,0.3c-0.1,0.2-0.1,0.3-0.2,0.4s-0.2,0.1-0.3,0.1c-0.1,0-0.3-0.2-0.5-0.4c-0.2,0.1-0.4,0.1-0.6,0.2
		c-0.1,0.1-0.3-0.1-0.7-0.3c-0.2-0.1-0.3-0.4-0.2-0.4c0,0-0.1,0-0.3,0c-0.1,0-0.2,0.3-0.2,0.3c-0.1,0.1-0.2,0.3-0.4,0.3
		c-0.2-0.1-0.4-0.2-0.6-0.2c-0.2-0.1-0.3-0.2-0.5-0.3l-0.8-0.3l-0.4-0.3c-0.2-0.1-0.3-0.1-0.5-0.1s-0.3-0.1-0.5-0.2
		c-0.3-0.1-0.4-0.4-0.5-0.6c0-0.2-0.2,0.7-0.5-0.7h-0.1c0,0-0.1,0.2-0.2,0.2c-0.2-0.1-0.3,0.1-0.3,0s-0.1-0.2-0.2-0.3
		c-0.1-0.2-0.2-0.2-0.2-0.2s0,0,0.1-0.1c-0.2,0-0.4,0-0.5,0s-0.2-0.1-0.3-0.4l-0.4-0.6c-0.1-0.1-0.2-0.3-0.2-0.6
		c-0.1-0.3-0.1-0.5,0-0.7c0.1-0.1,0.1-0.1,0.2-0.1c0,0,0.1-0.1,0.2-0.2c0.3-0.4,0.7-0.6,1-0.6s0.8-0.1,1.4-0.2
		c0.3-0.1,0.5-0.1,0.5-0.2c0,0,0.2-0.1,0.5-0.2c0.3-0.2,0.4-0.2,0.5-0.1c0,0.1,0.2,0.1,0.5,0.2c0.1-0.3,0.2-0.5,0.2-0.5
		c0.1,0,0.3,0,0.6,0c0.2,0,0.2-0.1,0.2-0.1s0.1-0.1,0.4-0.1c0.4,0,0.7,0,0.8,0c0.1,0,0.4-0.2,0.7-0.4c0.1-0.1,0.3-0.2,0.4-0.2
		s0.3-0.2,0.5-0.3c0.2,0,0.3-0.3,0.3-0.3s0,0,0.1,0c0,0,0.1,0.2,0.2,0.2s0.2,0.1,0.5,0s0.6-0.1,0.7-0.2c0.1,0,0.2-0.1,0.3-0.1
		c0.1,0,0.2,0,0.3-0.1c0.1-0.1,0.3-0.2,0.6-0.4c0.1-0.1,0.2-0.1,0.2-0.1s0.1-0.1,0.1-0.3v-1l0.1-0.2c0.1-0.2,0.1-0.5,0.1-0.7
		s0-0.5,0.1-0.8c0-0.2,0.1-0.3,0.1-0.3s0,0,0.1-0.2c0.2-0.7,0.3-1.2,0.3-1.4c0-0.2,0.2-0.7,0.5-1.4c0.1-0.2,0.2-0.6,0.3-1.2
		c0.1-0.7,0.2-1,0.2-1.2c-0.1-0.4-0.3-0.5-0.5-0.5c-0.2,0.1-0.5-0.1-0.8-0.3c-0.2-0.2-0.3-0.4-0.2-0.5c0.1-0.1,0.2-0.3,0.3-0.5
		c0-0.2,0.1-0.4,0.1-0.5s0.1-0.2,0.2-0.3c0.2-0.3,0.4-0.5,0.6-0.4c0.2,0,0.5,0.1,0.9,0c0.2,0,0.2,0,0.3,0c0,0,0-0.1,0,0l0,0l0,0l0,0
		c0,0,0.2,0,0.4,0l0.8,0.1c0.2,0.1,0.3,0.2,0.4,0.6c0.1,0.3,0.1,0.7,0.1,1.2s0,0.9-0.1,1.1c0,0.2-0.1,0.4,0,0.6c0,0.2,0,0.4,0,0.7
		c0,0.2-0.1,0.4-0.2,0.5s-0.1,0.2-0.1,0.2s-0.1,0.1-0.1,0.2s-0.1,0.2-0.2,0.3c0,0.2-0.1,0.4-0.1,0.6s-0.1,0.3-0.2,0.4l-0.1,0.2
		c-0.1,0.3-0.2,0.6-0.2,1l1.2,0.7c0.1,0.1,0.1,0.2,0.2,0.3c0,0.1,0.1,0.2,0.3,0.2c0.2,0,0.4,0,0.5-0.1s0.3-0.1,0.5-0.1h0.4
		c0.2,0,0.6-0.1,1-0.1c0.3-0.1,0.6-0.2,1-0.2c0.2,0,0.3-0.1,0.3-0.1s0.1,0,0.2-0.1c0.2,0,0.3-0.1,0.4-0.1s0.3-0.1,0.4-0.2
		c0.3-0.1,0.6-0.1,0.9-0.1s0.7,0.1,1,0.1h0.2c0.1,0,0.1-0.1,0.1-0.1s0.2-0.1,0.6,0c0.3,0.1,0.4,0.1,0.4,0.2c0,0,0.1,0.2,0.2,0.4
		c0.2,0.2,0.2,0.5,0.1,0.7s-0.2,0.6-0.1,1c0,0.4,0,0.7-0.1,0.6c0,0-0.1,0-0.2,0.2s-0.1,0.3-0.2,0.4c0,0.1-0.1,0.2-0.2,0.3
		c0,0.1,0.1,0.2,0.1,0.2c0.1,0,0.1,0,0.3,0.1c0,0.2,0,0.3-0.1,0.3c-0.1,0.1-0.1,0.2-0.2,0.3c-0.2,0.3-0.4,0.5-0.5,0.6
		s-0.1,0.2-0.1,0.2h-0.1c0,0-0.2,0.1-0.4,0.2c-0.4,0.3-0.7,0.5-0.8,0.7c-0.1,0.2-0.2,0.3-0.3,0.4c-0.1,0.1-0.3,0-0.6,0
		c-0.3,0-0.9,0-1.8,0c-0.2,0-0.5,0.1-0.7,0.1s-0.4,0.1-0.7,0.2l-0.1,0.1c-0.2,0.1-0.3,0.2-0.3,0.2c-0.1,0-0.2,0.1-0.5,0.1l-0.8,0.2
		c-0.1,0-0.1,0.1-0.2,0.1c0,0-0.1,0.2-0.2,0.2h-0.1h-0.1l-0.2-0.1c-0.1,0.1-0.3,0-0.4,0.1c-0.2,0.1-0.3,0.3-0.4,0.5
		c-0.2,0.7-0.3,1.3-0.2,2c0,0.3,0.1,0.4,0.1,0.5c0,0,0.1,0.2,0.1,0.4v1.5v0.1v0.5c0,0.2-0.2,0.6-0.1,1.2c0.3,0.2,0.3,0.3,0.4,0.3
		s0.3-0.1,0.7-0.2l0.6-0.1c0.1,0,0.2-0.1,0.2-0.1c0.1,0,0.2-0.1,0.3-0.1c0.4,0,0.6,0,0.7-0.1l2.7-0.6c0.2-0.1,0.5-0.2,0.6-0.2
		c0.2,0,0.4-0.1,0.6-0.1s0.3,0,0.3-0.1c0.1,0,0.1-0.1,0.2-0.1c0.1-0.1,0.3-0.1,0.6-0.1c0.3,0,0.6,0,0.7-0.1c0.2,0,0.4-0.1,0.3-0.1
		c0,0,0.1-0.1,0.3-0.1l2.2-0.3c0.7-0.1,1.4-0.1,2.1-0.2c0.7,0,1.4,0,2.1,0.2c0.6,0.1,0.9,0.4,1,1l0.1,0.4
		C261.2,66.6,261.2,66.7,261.1,66.8z"/>
</g>
</svg>
