<?xml version="1.0" encoding="utf-8"?>
<!-- Generator: Adobe Illustrator 19.0.0, SVG Export Plug-In . SVG Version: 6.00 Build 0)  -->
<svg version="1.1" id="Layer_1" xmlns="http://www.w3.org/2000/svg" xmlns:xlink="http://www.w3.org/1999/xlink" x="0px" y="0px"
	 viewBox="0 0 100 100" style="enable-background:new 0 0 100 100;" xml:space="preserve">
<style type="text/css">
	.st0{fill:#7F8BA3;}
	.st1{fill:#EEE2CF;}
	.st2{fill:#707D95;}
	.st3{fill:#A1B799;}
	.st4{fill:#7A1A11;}
	.st5{fill:#AEC3A4;}
	.st6{fill:#CDD8C1;}
	.st7{fill:#B55C39;}
	.st8{fill:#D69F50;}
</style>
<g id="XMLID_842_">
	<g id="XMLID_1251_">
		<g id="XMLID_1253_">
			<g id="XMLID_60_">
				<g id="XMLID_89_">
					<path id="XMLID_184_" class="st0" d="M60.5,37.4c-2.5,0.7-3.7,3-3.7,3c-1.8-0.5-3.9-0.8-6.1-0.9c0,0-1-2.1-0.8-3.7
						c0.3-1.8,0.5-5.8,5.2-7.6c4.7-1.7,8.2,4.1,8.2,4.1s3-1.8,6.7-1.9c3.7-0.2,4.3,5.8,4.3,5.8s-8,4.2-8.6,9.7c-1.4-2.1-3.8-3.8-7-5
						C59.2,38.2,60.2,37.6,60.5,37.4z M60.5,37.4L60.5,37.4C60.6,37.4,60.6,37.4,60.5,37.4z"/>
				</g>
				<g id="XMLID_88_">
					<path id="XMLID_42_" class="st1" d="M66.9,49.7c0-0.3,0-0.6-0.1-0.9h0.1c0,0,1.5-0.8,3.8-0.4c0,0-3.1,1-4,2.7l0,0
						C66.8,50.6,66.9,50.2,66.9,49.7z"/>
				</g>
				<g id="XMLID_87_">
					<path id="XMLID_41_" class="st0" d="M70.6,48.4c-2.3-0.3-3.8,0.4-3.8,0.4h-0.1c-0.1-0.4-0.2-0.8-0.3-1.2
						c0.6-2.6,5.5-9.3,11.7-8.8s4.3,9.5,4.3,9.5c0.6-0.1,5.2,1.5,5,5.7c-0.3,4.3-6.9,5-6.9,5c-0.1-0.3-0.1-0.8-0.3-1.2
						c0,0-1.7-9-14.3-5c0.3-0.5,0.5-1.1,0.7-1.7l0,0C67.5,49.4,70.6,48.4,70.6,48.4z"/>
				</g>
				<g id="XMLID_86_">
					<path id="XMLID_40_" class="st2" d="M78.2,38.8C71.9,38.3,67,45,66.4,47.6c-0.2-0.5-0.4-1-0.8-1.6l0,0c0.6-5.7,8.6-9.7,8.6-9.7
						c1.1-0.2,2.1-0.3,3-0.3c9.7-0.3,8.3,10.3,8.3,10.3c5.4,0.8,5,6.7,5,6.7c-0.9,8-9.8,7.8-10.1,7.8c0-0.5,0-1.1-0.1-1.7
						c0,0,6.6-0.9,6.9-5c0.3-4.3-4.3-5.8-5-5.7C82.4,48.3,84.5,39.3,78.2,38.8z"/>
				</g>
				<g id="XMLID_85_">
					<path id="XMLID_39_" class="st2" d="M71.5,54c-4-0.1-6.5,0.2-6.5,0.2c0.3-0.4,0.7-1,1-1.4c12.6-3.9,14.3,5,14.3,5
						c0.1,0.4,0.2,0.9,0.3,1.2c0.1,0.6,0.1,1.2,0.1,1.7C80.3,68,71.2,68,71.2,68c-4.3,7-10.5,2.8-10.5,2.8c0.6-0.8,1-1.7,1-2.5l0,0
						c0,0,6.2,3.5,8-3.8c0,0,5,1.6,7.2-2.4C79.1,57.9,75.5,54.1,71.5,54z"/>
				</g>
				<g id="XMLID_84_">
					<path id="XMLID_38_" class="st1" d="M61.8,56.8c0.7-0.4,1.4-0.9,2-1.4c1.9,2.4,2,4.9,2,4.9C63.9,57.5,61.8,56.9,61.8,56.8
						L61.8,56.8z"/>
				</g>
				<g id="XMLID_83_">
					<path id="XMLID_37_" class="st0" d="M61.8,56.9c0,0,2.1,0.7,3.9,3.5c0,0,0-2.4-2-4.9c0.4-0.4,0.9-0.8,1.3-1.2
						c0,0,2.4-0.3,6.5-0.2c4,0.1,7.6,3.9,5.5,8c-2.2,3.9-7.3,2.3-7.3,2.3c-1.9,7.3-8,3.8-8,3.8l0,0c0.4-3-1.7-6.8-7.2-8.9l0,0
						C57.3,58.9,59.7,58,61.8,56.9L61.8,56.9z"/>
				</g>
				<g id="XMLID_82_">
					<path id="XMLID_36_" class="st3" d="M60.6,37.4L60.6,37.4C60.6,37.4,60.6,37.4,60.6,37.4z"/>
				</g>
				<g id="XMLID_81_">
					<path id="XMLID_35_" class="st4" d="M56.9,58.3c2.2-1.1,2.6-2.2,2.8-3c0.1-0.4,0.1-0.8,0.1-0.8c-0.7-4.2-4-2.8-4-2.8l0,0
						c0-0.5,0-1-0.2-1.7c-0.5-2.2-6.6-3.6-6.8-3.7c0.1,0.1,2,1.1-2.6,2.3c-2.3,0.6-3,1.7-3,2.8c-0.6,0-5-0.2-4.2,3.7
						c0,0,0.3,0.9,1,1.7c0.3,0.4,0.9,0.9,1.5,1.1l-0.1,0.2c-4.3-1.6-7-4.3-7-7.6c0-5.1,6.5-8.9,15.3-8.9c8.7,0,15,3.5,15,8.6
						C64.7,53.8,61.7,56.8,56.9,58.3L56.9,58.3z"/>
				</g>
				<g id="XMLID_80_">
					<path id="XMLID_34_" class="st1" d="M60.5,37.4c-0.3,0.2-1.3,0.8-1.8,3.7c-0.6-0.3-1.3-0.4-1.9-0.6
						C56.8,40.5,58,38.1,60.5,37.4z"/>
				</g>
				<g id="XMLID_79_">
					<path id="XMLID_33_" class="st5" d="M55.7,51.9L55.7,51.9c0,0,3.3-1.4,4,2.8c0,0,0.1,0.3-0.1,0.8c-0.2,0.8-0.7,1.8-2.8,3
						l0.1,0.2c-2.1,0.7-4.6,1.1-7.3,1.1c-3.1,0-5.9-0.5-8.3-1.4l0.1-0.2c-0.6-0.3-1.1-0.7-1.5-1.1c-0.3-0.9-0.9-3.4,3.5-3.8
						c0,0,0,0,0-0.1l0,0c0.1-0.3,0.6-2.4,4.6-2.9c0,0,2.4-0.2,2.8-1C50.7,49.2,54.5,50.1,55.7,51.9z"/>
				</g>
				<g id="XMLID_78_">
					<path id="XMLID_32_" class="st2" d="M54.5,59.4c5.5,2.1,7.6,5.8,7.2,8.9c-0.1,1-0.5,1.8-1,2.5c-0.4,0.6-1,1-1.7,1.5
						c-4.6,2.8-8.2-1.8-8.2-1.8c-5.6,6.1-9.5,1.5-9.5,1.5c-0.3-0.3-0.5-0.8-0.7-1.1c-0.5-1-0.9-1.8-1-2.7c-1.4-6.3,6.3-8.3,6.3-8.3
						v-0.3c0.4,0.1,0.8,0.1,1.2,0.2l0,0c0,0-6.1,3.2-4.8,7.6c1.3,4.4,3.6,3.7,5.5,2.3c1.9-1.5,2.8-2.8,2.8-2.8s4,5.2,7,3.2
						s1.1-7.7-4.3-10.4l0,0C53.8,59.5,54.2,59.4,54.5,59.4L54.5,59.4z"/>
				</g>
				<g id="XMLID_77_">
					<path id="XMLID_31_" class="st1" d="M49.6,59.9c0.3,0,0.6,0,1,0c-0.6,3-0.1,5,0,5c-1.8-1.9-1.9-5-1.9-5
						C49,59.8,49.3,59.9,49.6,59.9z"/>
				</g>
				<g id="XMLID_76_">
					<path id="XMLID_30_" class="st2" d="M49.6,39.5c-0.3,0-0.8,0-1.1,0l0,0c-1.8-3.3-1.4-6.3-0.8-8.1c0.3-1.1,0.8-1.8,0.8-1.8
						c0.3-0.4,0.8-0.9,1.1-1.2c8.6-8.6,14.3,0.3,14.3,0.3C76.5,22.9,77.3,36,77.3,36l0,0c-0.9,0-1.9,0.1-3,0.3c0,0-0.5-6-4.3-5.8
						c-3.7,0.2-6.7,1.9-6.7,1.9s-3.5-5.8-8.2-4.1c-4.7,1.7-5,5.8-5.2,7.6c-0.3,1.6,0.8,3.7,0.8,3.7C50.3,39.6,50,39.5,49.6,39.5z"/>
				</g>
				<g id="XMLID_75_">
					<path id="XMLID_29_" class="st0" d="M53.6,59.6c5.4,2.8,7.2,8.4,4.3,10.4c-3,2-7-3.2-7-3.2S50,68.1,48,69.6
						c-1.9,1.5-4.2,2.3-5.5-2.3c-1.3-4.4,4.8-7.6,4.8-7.6l0,0c0.5,0.1,1,0.1,1.5,0.1c0,0,0,3.1,1.9,5c-0.1-0.2-0.6-2.1,0-5
						C51.6,59.8,52.6,59.7,53.6,59.6L53.6,59.6z"/>
				</g>
				<g id="XMLID_74_">
					<path id="XMLID_28_" class="st6" d="M55.6,50.1c0.2,0.6,0.2,1.2,0.2,1.7c-1.2-1.7-5-2.6-5-2.6c-0.3,0.9-2.8,1-2.8,1
						c-3.9,0.4-4.5,2.4-4.6,2.9c-0.2-0.4-0.3-1-0.3-1.5c0-1.1,0.7-2.2,3-2.8c4.7-1.2,2.8-2.3,2.6-2.3C48.9,46.6,55,47.9,55.6,50.1z"
						/>
				</g>
				<g id="XMLID_73_">
					<path id="XMLID_27_" class="st0" d="M44,40.1c-0.3,0.1-0.8,0.2-1.1,0.3c-1.7-3.5-5-3-5-3c2.3,1.1,2.8,3.7,2.8,3.7
						c-2.6,1-4.8,2.3-6.2,3.9c0,0-3.9-5.9-10.3-7.3l0,0c2.4-9,11.4-3.6,11.4-3.6c5.6-11.1,12.1-2.7,12.1-2.7c-0.6,1.8-1,4.8,0.8,8.1
						l0,0C46.9,39.6,45.4,39.9,44,40.1z"/>
				</g>
				<g id="XMLID_72_">
					<path id="XMLID_26_" class="st1" d="M37.8,37.3c0,0,3.3-0.4,5,3c-0.8,0.2-1.5,0.4-2.3,0.7C40.6,41.1,40.1,38.5,37.8,37.3z"/>
				</g>
				<g id="XMLID_71_">
					<path id="XMLID_25_" class="st6" d="M38.9,55.2c-0.9-3.8,3.6-3.7,4.2-3.7c0,0.5,0.2,1,0.3,1.5l0,0v0.1c-4.3,0.4-3.8,3-3.5,3.8
						C39.2,56.1,38.9,55.2,38.9,55.2z"/>
				</g>
				<g id="XMLID_70_">
					<path id="XMLID_24_" class="st2" d="M39.6,68.1c0.2,0.8,0.5,1.7,1,2.7C33.4,76.7,29.8,69,29.8,69c-5.7,0-8.1-3.6-8.1-3.6
						c-0.3-0.8-0.5-1.6-0.6-2.3c-0.3-1-0.3-2.1-0.3-3c0.5-8.2,12.5-7.6,12.5-7.6c0.3,0.4,0.5,0.9,0.9,1.3c0,0-10.4,1.6-10.3,6.3
						c0.2,4.7,3.5,5.3,5.7,5.3c1.2,0,1.7,0,1.7,0c0,0,1.8,4.6,5,4.2C39.2,69.4,39.6,68.1,39.6,68.1L39.6,68.1z"/>
				</g>
				<g id="XMLID_69_">
					<path id="XMLID_23_" class="st0" d="M45.9,59.9c0,0-7.7,2.1-6.3,8.3l0,0c0,0-0.3,1.3-3.5,1.7c-3.1,0.4-5-4.2-5-4.2
						c-0.1,0-0.5,0-1.7,0c-2.2,0-5.5-0.6-5.7-5.3C23.7,55.6,34.1,54,34.1,54c0.7,0.9,1.5,1.6,2.5,2.3C34.3,60,35,61.4,35,61.4
						c1-2.5,3.9-3.8,3.9-3.8l0,0c2,1,4.4,1.7,7,2V59.9z"/>
				</g>
				<g id="XMLID_68_">
					<path id="XMLID_22_" class="st1" d="M36.7,56.3c0.7,0.4,1.4,0.9,2.3,1.3l0,0c0,0-2.9,1.3-3.9,3.8C35,61.4,34.4,60,36.7,56.3z"
						/>
				</g>
				<g id="XMLID_65_">
					<path id="XMLID_138_" class="st7" d="M54.5,59.4c-0.3,0.1-0.6,0.1-1,0.2c-1,0.2-1.9,0.2-3,0.3c-0.3,0-0.6,0-1,0s-0.6,0-1,0
						c-0.5,0-1-0.1-1.5-0.1c-0.4,0-0.9-0.1-1.2-0.2c-2.6-0.3-5-1-7-2c-0.8-0.3-1.6-0.8-2.3-1.3c-1-0.7-1.8-1.5-2.5-2.3
						c-0.3-0.4-0.6-0.9-0.9-1.3c-0.5-1-0.8-2-0.8-3c0-0.8,0.2-1.6,0.4-2.3c0.1-0.3,0.3-0.5,0.4-0.9c0.3-0.5,0.7-1,1.1-1.5
						c1.4-1.7,3.6-3,6.2-3.9c0.7-0.3,1.5-0.5,2.3-0.7c0.3-0.1,0.8-0.2,1.1-0.3c1.5-0.3,3-0.5,4.5-0.5c0.3,0,0.8,0,1.1,0
						c0.3,0,0.7,0,1,0c2.2,0.1,4.2,0.3,6.1,0.9c0.7,0.2,1.3,0.3,1.9,0.6c3.1,1.1,5.7,3,7,5l0,0c0.3,0.5,0.6,1,0.8,1.6
						c0.2,0.4,0.3,0.8,0.3,1.2c0,0.3,0.1,0.6,0.1,0.9c0,0.5-0.1,1-0.2,1.4c-0.2,0.6-0.3,1.1-0.7,1.7c-0.3,0.5-0.6,1-1,1.4
						c-0.3,0.4-0.8,0.9-1.3,1.2c-0.6,0.5-1.2,1-2,1.4C59.7,58,57.3,58.9,54.5,59.4z M56.9,58.5c4.7-1.6,7.7-4.7,7.7-8.2
						c0-5.1-6.3-8.6-15-8.6s-15.3,3.7-15.3,8.9c0,3.3,2.7,6.1,7,7.6c2.3,0.9,5.2,1.4,8.3,1.4C52.3,59.6,54.9,59.2,56.9,58.5z"/>
				</g>
				<g id="XMLID_64_">
					<path id="XMLID_21_" class="st1" d="M32.5,49.7c0,0-3.8-0.5-5.3,0.6c0.1-0.2,1.5-2.5,5.8-3C32.7,48.1,32.5,48.9,32.5,49.7z"/>
				</g>
				<g id="XMLID_63_">
					<path id="XMLID_20_" class="st0" d="M27.1,50.3c1.6-1.1,5.3-0.6,5.3-0.6c0,1,0.3,2.1,0.8,3c0,0-12-0.6-12.5,7.6l0,0
						c-4.4-0.3-7-1.7-7.9-4.9c-1-3.2,2-6.5,2-6.5s-1.9-5,3.3-8c6.4-3.6,14.9,5.2,15.1,5.6C33,46.7,33,47,32.8,47.3
						C28.6,47.8,27.2,50.1,27.1,50.3z"/>
				</g>
				<g id="XMLID_62_">
					<path id="XMLID_19_" class="st2" d="M24.2,37.7c-1.2-0.3-2.5-0.3-3.9-0.3l0,0V36c5.9-12.1,13.6-5.7,13.6-5.7
						c0.8-2.6,3-4.6,3-4.6c8.7-4.4,12.8,2.9,12.8,2.9c-0.3,0.3-0.8,0.8-1.1,1.2c0,0-0.4,0.7-0.8,1.8c0,0-6.5-8.4-12.1,2.7
						C35.6,34.1,26.6,28.7,24.2,37.7L24.2,37.7z"/>
				</g>
				<g id="XMLID_61_">
					<path id="XMLID_18_" class="st2" d="M20.8,60.3c-0.1,0.9,0,1.8,0.3,3c-3.6-0.2-7-1.2-7-1.2c-9.6-5.9-2.6-13.6-2.6-13.6
						c-1.1-5.9,3-8.9,3-8.9c2.1-1.3,4.1-1.9,5.9-2.1c1.4-0.2,2.7-0.1,3.9,0.3c6.3,1.4,10.3,7.3,10.3,7.3c-0.4,0.5-0.8,1-1.1,1.5
						c-0.3-0.3-8.7-9.1-15.1-5.6c-5.3,3-3.3,8-3.3,8s-3,3.3-2,6.5C13.8,58.6,16.4,60,20.8,60.3L20.8,60.3z"/>
				</g>
			</g>
			<g id="XMLID_46_">
				<g id="XMLID_59_">
					<path id="XMLID_16_" class="st8" d="M45,74.2L45,74.2c-2.6-0.1-4.1-1.8-4.2-1.9c-0.3-0.4-0.5-0.9-0.8-1.2
						c-0.5-1-0.9-1.9-1.1-2.9c-1.4-6.7,6.8-8.9,6.9-9l0.3,1c-0.3,0.1-7.2,2-6,7.6c0.2,0.8,0.5,1.7,1,2.5c0.2,0.3,0.4,0.7,0.7,1.1
						l0,0c0,0,1.2,1.4,3.2,1.5c1.7,0,3.6-1,5.4-3l0.4-0.5l0.4,0.5c0.2,0.2,3.3,4.2,7.5,1.7c0.6-0.3,1.1-0.9,1.6-1.4
						c0.5-0.7,0.9-1.5,1-2.3c0.3-2.4-1.2-6.1-6.9-8.3l0.4-1c6.3,2.4,8,6.6,7.6,9.5c-0.2,1-0.5,2-1.2,2.8c-0.5,0.6-1.1,1.1-1.8,1.7
						c-4,2.4-7.3-0.3-8.4-1.5C48.9,73.2,46.9,74.2,45,74.2z"/>
				</g>
				<g id="XMLID_58_">
					<path id="XMLID_15_" class="st8" d="M64.9,72.6c-2.5,0-4.5-1.3-4.6-1.4l0.6-0.9c0,0,2.5,1.7,5.2,1c1.7-0.3,3.3-1.7,4.5-3.7
						l0.2-0.3h0.3c0.3,0,8.6-0.1,8.9-6.7c0-0.5,0-1-0.1-1.7c-0.1-0.3-0.1-0.8-0.3-1.2c0-0.1-0.6-2.8-3.2-4.4
						c-2.5-1.5-6-1.6-10.3-0.2l-0.3-1c4.7-1.5,8.5-1.3,11.2,0.3c3.1,1.8,3.7,5,3.7,5.1c0.1,0.4,0.2,0.9,0.3,1.3
						c0.1,0.6,0.1,1.2,0.1,1.8c-0.3,6.9-8,7.6-9.6,7.7c-1.4,2.2-3,3.5-5,3.9C65.9,72.6,65.4,72.6,64.9,72.6z"/>
				</g>
				<g id="XMLID_57_">
					<path id="XMLID_14_" class="st8" d="M80.8,61.3c-0.1,0-0.2,0-0.2,0v-1.1c0.1,0,8.7,0.3,9.5-7.3c0-0.2,0.3-5.4-4.6-6.1l-0.5-0.1
						l0.1-0.5c0-0.1,0.6-4.8-1.9-7.6c-1.3-1.5-3.3-2.2-5.8-2.1c-0.9,0-1.8,0.1-2.8,0.3c-0.8,0.4-7.7,4.3-8.3,9.3L65.1,46
						c0.7-5.8,8.6-10,9-10.2l0.2-0.1c1.1-0.3,2.1-0.3,3-0.3c2.9-0.1,5.1,0.8,6.7,2.5c2.3,2.6,2.3,6.5,2.3,8c5.3,1.1,5,7.1,5,7.1
						C90.3,61.1,82,61.3,80.8,61.3z"/>
				</g>
				<g id="XMLID_56_">
					<path id="XMLID_13_" class="st8" d="M48.1,39.8c-1.9-3.5-1.5-6.6-0.9-8.5c0.4-1.2,0.9-1.9,0.9-1.9c0.4-0.5,0.8-0.9,1.2-1.3
						c2.9-2.9,5.8-4.2,8.6-3.9c3.3,0.3,5.5,2.9,6.3,3.8c3.8-1.7,7-1.7,9.4-0.3c3.9,2.3,4.3,8,4.3,8.3L76.8,36c0-0.1-0.3-5.3-3.8-7.4
						c-2.2-1.3-5.1-1.1-8.8,0.6l-0.4,0.2l-0.3-0.4c0,0-2.2-3.3-5.7-3.7c-2.5-0.3-5,1-7.7,3.6c-0.3,0.3-0.7,0.7-1.1,1.1l0,0
						c0,0-0.3,0.6-0.7,1.7c-0.6,1.7-1,4.5,0.8,7.6L48.1,39.8z"/>
				</g>
				<g id="XMLID_55_">
					<path id="XMLID_12_" class="st8" d="M20.9,37.4h-1.1v-1.6l0.1-0.1c2.2-4.3,4.8-6.9,7.8-7.6c2.7-0.6,4.9,0.5,5.9,1.1
						c1-2.3,2.8-4.1,2.9-4.2l0.1-0.1c9.1-4.6,13.5,3,13.6,3.1l-1,0.5c-0.2-0.3-3.9-6.8-12-2.7c-0.3,0.3-2.2,2.2-2.8,4.3l-0.3,0.8
						l-0.6-0.5c0,0-2.5-2.1-5.7-1.4c-2.7,0.6-5,2.9-7,6.9C20.9,36.1,20.9,37.4,20.9,37.4z"/>
				</g>
				<g id="XMLID_54_">
					<path id="XMLID_11_" class="st8" d="M21,63.8c-3.6-0.2-7-1.2-7.1-1.3l-0.1-0.1c-3.1-1.9-4.9-4.3-5.3-6.9
						c-0.5-3.6,1.7-6.5,2.3-7.4c-1-5.9,3-8.9,3.2-9c2.1-1.3,4.2-2,6.2-2.3c1.4-0.2,2.7-0.1,4.1,0.3c6.4,1.4,10.4,7.3,10.5,7.6
						L34,45.3c0-0.1-3.9-5.8-9.9-7.1c-1.2-0.3-2.5-0.3-3.7-0.3c-1.9,0.2-3.8,0.9-5.7,2.1c-0.1,0.1-3.7,2.8-2.7,8.3l0.1,0.3l-0.2,0.2
						c0,0-2.8,3.1-2.3,6.7c0.3,2.3,1.9,4.3,4.7,6c0.5,0.2,3.7,1,6.9,1.2L21,63.8z"/>
				</g>
				<g id="XMLID_53_">
					<path id="XMLID_10_" class="st8" d="M35.5,73.6c-0.4,0-0.9-0.1-1.2-0.2c-2.7-0.6-4.3-3-4.8-3.9c-5.7-0.2-8.1-3.7-8.3-3.7
						l-0.1-0.1c-0.3-0.8-0.5-1.6-0.7-2.3c-0.3-1.1-0.3-2.1-0.3-3c0.5-8.7,13-8.1,13-8.1l0,1c-0.1,0-11.4-0.5-11.9,7
						c-0.1,0.9,0,1.7,0.3,2.8c0.2,0.7,0.3,1.4,0.6,2.1c0.3,0.4,2.5,3.2,7.6,3.2h0.3l0.2,0.3c0,0,1.5,3,4.2,3.7
						c1.7,0.4,3.7-0.3,5.8-2l0.7,0.9C39,72.8,37.2,73.6,35.5,73.6z"/>
				</g>
				<g id="XMLID_52_">
					<path id="XMLID_9_" class="st4" d="M54.3,55.1l-0.6-0.9c1-0.7,1.4-1.4,1.5-2.3c0-0.4,0-1-0.2-1.5c-0.3-1.5-4.8-2.9-6.4-3.2
						h-0.2L48.3,47l0.4-0.3l0.1-0.5c0.1,0,6.6,1.4,7.2,4c0.2,0.7,0.3,1.3,0.2,1.8C56.2,53.2,55.6,54.2,54.3,55.1z"/>
				</g>
				<g id="XMLID_51_">
					<path id="XMLID_8_" class="st4" d="M42.9,53.3c-0.3-0.6-0.3-1.1-0.3-1.7c0-1.1,0.6-2.6,3.4-3.3c2.5-0.6,2.7-1.1,2.7-1.1
						s-0.1-0.1-0.2-0.1l0.5-1c0.4,0.2,0.9,0.7,0.8,1.2c-0.1,0.9-1.2,1.5-3.6,2.1c-1.7,0.4-2.6,1.2-2.6,2.3c0,0.3,0.1,0.8,0.3,1.2
						L42.9,53.3z"/>
				</g>
				<g id="XMLID_50_">
					<path id="XMLID_7_" class="st4" d="M43.9,55c0,0-0.6-0.7-1-1.7l1-0.4c0.3,0.8,0.9,1.4,0.9,1.4L43.9,55z"/>
				</g>
				<g id="XMLID_49_">
					<polygon id="XMLID_6_" class="st4" points="42.9,53.1 42.9,53.1 43.9,53.1 					"/>
				</g>
				<g id="XMLID_48_">
					<path id="XMLID_5_" class="st4" d="M41.6,58.7c-0.2,0-0.3-0.1-0.4-0.2c-0.6-0.3-1.2-0.7-1.7-1.3c-0.8-0.9-1.1-1.7-1.1-1.8
						c-0.3-1.3-0.1-2.3,0.5-3c1.2-1.5,3.7-1.4,4.2-1.4v1.1h-0.2c-0.2,0-2.3-0.1-3.3,1c-0.4,0.5-0.5,1.1-0.3,2l0,0c0,0,0.3,0.8,1,1.4
						c0.4,0.4,0.9,0.8,1.3,1c0.1,0,0.2,0.1,0.3,0.1L41.6,58.7z"/>
				</g>
				<g id="XMLID_47_">
					<path id="XMLID_2_" class="st1" d="M49.6,60.4c-0.3,0-0.6,0-1,0c-0.5,0-1-0.1-1.6-0.1c-0.4,0-0.9-0.1-1.3-0.2
						c-2.6-0.3-5.1-1-7.2-2.1c-0.9-0.4-1.7-0.9-2.3-1.3c-1-0.7-1.9-1.6-2.6-2.4c-0.3-0.4-0.6-0.9-0.9-1.4c-0.6-1-0.9-2.2-0.9-3.3
						c0-0.9,0.2-1.7,0.5-2.5c0.1-0.3,0.3-0.6,0.4-0.9c0.3-0.5,0.7-1.1,1.1-1.7c1.5-1.7,3.7-3,6.3-4.1c0.7-0.3,1.5-0.5,2.3-0.7
						c0.3-0.1,0.8-0.2,1.1-0.3c1.5-0.3,3-0.5,4.6-0.5c0.7-0.1,1.5,0,2.3,0c2.2,0.1,4.3,0.3,6.2,0.9c0.7,0.2,1.3,0.3,2,0.6
						c3.3,1.2,5.9,3,7.3,5.2l0.1,0.2c0.3,0.4,0.5,1,0.7,1.5c0.2,0.4,0.3,0.9,0.3,1.3c0,0.3,0.1,0.6,0.1,1c0,0.5-0.1,1-0.2,1.6
						c-0.2,0.6-0.4,1.2-0.7,1.8c-0.3,0.5-0.6,1-1,1.5c-0.3,0.4-0.9,0.9-1.3,1.3c-0.6,0.5-1.3,1-2,1.5c-2.1,1.2-4.7,2.2-7.5,2.6
						c-0.3,0.1-0.7,0.1-1,0.2c-1,0.2-1.9,0.3-3,0.3C50.3,60.4,50,60.4,49.6,60.4z M49.6,40.1c-0.3,0-0.7,0-1,0
						c-1.6,0.1-3,0.3-4.5,0.5l0,0c-0.3,0.1-0.8,0.2-1.1,0.3c-0.8,0.2-1.5,0.4-2.2,0.7c-2.5,1-4.6,2.3-5.9,3.7c-0.4,0.4-0.8,1-1,1.4
						c-0.2,0.3-0.3,0.5-0.3,0.8c-0.3,0.7-0.4,1.4-0.4,2.2c0,1,0.3,1.9,0.7,2.8c0.2,0.4,0.4,0.8,0.8,1.2c0.6,0.8,1.5,1.5,2.4,2.2
						c0.6,0.4,1.4,0.9,2.2,1.2c2,1,4.4,1.7,7,2c0.4,0.1,0.8,0.1,1.2,0.2c0.5,0.1,1,0.1,1.5,0.1c0.6,0,1.2,0,1.8,0
						c1,0,1.9-0.1,2.9-0.3c0.3,0,0.6-0.1,1-0.2c2.7-0.4,5.1-1.3,7.1-2.5c0.7-0.4,1.3-0.9,1.9-1.3c0.4-0.3,0.9-0.8,1.2-1.2
						c0.3-0.4,0.7-0.9,0.9-1.3c0.3-0.5,0.5-1,0.6-1.6c0.1-0.4,0.1-0.9,0.1-1.3c0-0.3,0-0.5-0.1-0.8c-0.1-0.3-0.2-0.7-0.3-1.1
						c-0.2-0.5-0.4-1-0.7-1.4l-0.1-0.2c-1.3-1.9-3.7-3.6-6.6-4.6c-0.6-0.3-1.2-0.4-1.9-0.6c-1.8-0.5-3.8-0.8-5.9-0.9
						C50.3,40.1,50,40.1,49.6,40.1z"/>
				</g>
			</g>
		</g>
		<g id="XMLID_1252_">
			<g id="XMLID_96_">
				<path id="XMLID_17_" class="st6" d="M59.6,55.3c0,0-1-2.9-4.1-2.1c0,0,0.3-0.4,0.4-1.6c0,0,2.3-0.9,3.3,1.7
					C59.4,53.3,60,54.6,59.6,55.3z"/>
			</g>
		</g>
	</g>
	<g id="XMLID_843_">
		<g id="XMLID_92_">
			<path id="XMLID_1_" class="st4" d="M49.7,53.9c0,0-1.9,1.9,0,3.9C49.7,57.8,51.6,56.2,49.7,53.9z"/>
		</g>
	</g>
</g>
</svg>
