<?xml version="1.0" encoding="utf-8"?>
<!-- Generator: Adobe Illustrator 19.0.0, SVG Export Plug-In . SVG Version: 6.00 Build 0)  -->
<svg version="1.1" id="Layer_1" xmlns="http://www.w3.org/2000/svg" xmlns:xlink="http://www.w3.org/1999/xlink" x="0px" y="0px"
	 viewBox="0 0 100 100" style="enable-background:new 0 0 100 100;" xml:space="preserve">
<style type="text/css">
	.st0{fill:#707D95;}
	.st1{fill:#D69F50;}
	.st2{fill:#182228;}
	.st3{fill:#7A1A11;}
	.st4{fill:#EEE2CF;}
	.st5{fill:#AEC3A4;}
	.st6{fill:#E5DBCB;}
</style>
<g id="XMLID_1203_">
	<g id="XMLID_1234_">
		<g id="XMLID_1237_">
			<path id="XMLID_31_" class="st0" d="M42.1,33.8l-5.6-12.6c0,0,0.8-2.4,2.5-2.5c0,0,7.4,0,9-4.2c0,0,2,3.6,6.7,3.3
				s5.4,3.6,5.4,3.6l-4.2,11.5"/>
			<path id="XMLID_32_" class="st1" d="M41.6,34l-5.7-12.8l0.1-0.3c0-0.1,0.9-2.7,3.1-2.9c0.1,0,7-0.1,8.5-3.8l0.4-1.2l0.6,1.1
				c0.1,0.2,1.9,3.3,6.2,3.1c5.3-0.3,6,4,6,4v0.2L56.4,33l-1.1-0.4l4.2-11.4c-0.2-0.6-1-3.1-4.8-2.9c-3.6,0.3-5.8-1.7-6.7-2.8
				c-2.2,3.6-8.7,3.6-8.9,3.6c-1,0.1-1.7,1.4-2,2l5.5,12.4L41.6,34z"/>
		</g>
		<g id="XMLID_1236_">
			<path id="XMLID_42_" class="st2" d="M51.8,32.6l1.5-6.6c0,0,0.4-2-1.5-2.7c-2-0.8-3.1-1.3-3.1-1.3s-1.1,0.6-3.1,1.3
				c-2,0.8-1.5,2.7-1.5,2.7l1.5,6.6"/>
		</g>
		<g id="XMLID_1235_">
			<path id="XMLID_29_" class="st3" d="M47.9,31.9l-0.6-4.7c0,0-0.1-1.5,1.4-1.5s1.5,1.5,1.5,1.5l-0.4,4.8"/>
			<path id="XMLID_30_" class="st4" d="M50.2,32.1L49,32.1l0.4-4.8c0-0.2-0.1-0.9-0.9-0.9c-0.3,0-0.4,0.1-0.6,0.2
				c-0.3,0.3-0.3,0.7-0.3,0.7l0.6,4.6l-1.2,0.2l-0.6-4.7c0-0.2-0.1-1,0.5-1.6c0.3-0.3,0.7-0.6,1.4-0.6c1.5,0,2.1,1.3,2.1,2.1
				L50.2,32.1z"/>
		</g>
	</g>
	<g id="XMLID_1230_">
		<g id="XMLID_1233_">
			<path id="XMLID_27_" class="st5" d="M55.4,34.3l4.8-13c0,0,2.2-1.1,3.6,0c0,0,6.1,4.2,10.1,3.4c0,0-1.9,3.8,1.8,7
				s1.4,6.3,1.4,6.3l-11,5.3"/>
			<path id="XMLID_28_" class="st1" d="M66.3,43.8l-0.5-1l10.9-5.3c0.3-0.6,1.4-3-1.4-5.4c-2.8-2.5-2.5-5.3-2.2-6.7
				c-0.1,0-0.2,0-0.2,0c-4.1,0-9.2-3.5-9.3-3.6c-0.8-0.8-2.3-0.3-2.8,0l-4.8,12.7L55,34l4.8-13.2l0.2-0.1c0.1-0.1,2.6-1.3,4.2,0.1
				c0,0,5.9,4,9.6,3.3l1.1-0.3l-0.5,1c-0.1,0.2-1.6,3.5,1.6,6.3c4,3.4,1.5,7,1.5,7l-0.1,0.1L66.3,43.8z"/>
		</g>
		<g id="XMLID_1232_">
			<path id="XMLID_41_" class="st2" d="M63.2,40.1l5.7-3.6c0,0,1.7-1.1,0.8-3c-0.9-2-1.4-3.1-1.4-3.1s-1.2-0.4-3.1-1.3
				c-2-0.8-3,0.8-3,0.8l-3.5,5.9"/>
		</g>
		<g id="XMLID_1231_">
			<path id="XMLID_25_" class="st3" d="M60.8,36.9l2.8-3.7c0,0,1-1.2,2-0.1c1.1,1,0,2.2,0,2.2l-3.7,3.2"/>
			<path id="XMLID_26_" class="st4" d="M62.4,38.8L61.6,38l3.7-3.2c0.1-0.1,0.5-0.8-0.1-1.3c-0.2-0.2-0.3-0.3-0.6-0.3
				c-0.3,0-0.7,0.3-0.7,0.3l-2.7,3.6l-0.9-0.7l2.8-3.7c0.1-0.1,0.7-0.8,1.5-0.8c0.3,0,0.8,0.1,1.4,0.6c1.1,1,0.6,2.4,0.1,3
				L62.4,38.8z"/>
		</g>
	</g>
	<g id="XMLID_1226_">
		<g id="XMLID_1229_">
			<path id="XMLID_23_" class="st0" d="M64.7,43.9L77.1,38c0,0,2.4,0.8,2.5,2.5c0,0,0.5,7.3,4.4,8.3c0,0-3.6,2.6-3.1,7.4
				c0.4,4.8-3.4,5.5-3.4,5.5l-11.6-3.9"/>
			<path id="XMLID_24_" class="st1" d="M77.6,62.3l-11.8-4l0.3-1.1L77.6,61c0.6-0.2,3.1-1.1,2.8-4.8C80,52.5,81.9,50,83,48.9
				c-3.4-1.9-3.9-8.1-3.9-8.5c-0.1-1.1-1.4-1.7-2-2l-12.2,5.9l-0.5-1l12.6-6l0.3,0.1c0.1,0,2.7,0.8,3,3c0,0.1,0.6,7,4,7.8l1.2,0.3
				l-1,0.7c-0.2,0.1-3.3,2.5-2.9,6.9c0.4,5.3-3.8,6.1-3.8,6.1L77.6,62.3z"/>
		</g>
		<g id="XMLID_1228_">
			<path id="XMLID_40_" class="st2" d="M66.1,53.5l6.6,1.4c0,0,2,0.4,2.6-1.6c0.7-2,1.2-3.1,1.2-3.1s-0.6-1.1-1.4-3.1
				s-2.7-1.4-2.7-1.4l-6.5,1.7"/>
		</g>
		<g id="XMLID_1227_">
			<path id="XMLID_21_" class="st3" d="M66.6,49.5l4.6-0.8c0,0,1.5-0.2,1.6,1.4c0,1.5-1.5,1.6-1.5,1.6l-4.8-0.3"/>
			<path id="XMLID_22_" class="st4" d="M71.4,52.3L66.4,52l0.1-1.2l4.9,0.3c0.2,0,0.9-0.2,0.8-1c0-0.3-0.1-0.4-0.3-0.6
				c-0.3-0.2-0.6-0.3-0.8-0.2L66.7,50l-0.2-1.1l4.7-0.8c0.2,0,1-0.1,1.6,0.5c0.3,0.3,0.6,0.7,0.6,1.4C73.5,51.7,72.2,52.3,71.4,52.3
				z"/>
		</g>
	</g>
	<g id="XMLID_1222_">
		<g id="XMLID_1225_">
			<path id="XMLID_19_" class="st5" d="M64.6,57.1l13.1,4.6c0,0,1.2,2.2,0.1,3.6c0,0-3.7,5.7-2.3,9.5c0,0-4.8-1.2-7.8,2.5
				c-3.1,3.6-6.3,1.5-6.3,1.5l-5.5-10.9"/>
			<path id="XMLID_20_" class="st1" d="M63.6,80c-1.5,0-2.6-0.7-2.6-0.7l-0.2-0.1l-0.1-0.2l-5.5-10.9l1-0.5l5.4,10.8
				c0.6,0.3,3,1.4,5.3-1.5c2.5-3,5.9-3,7.5-2.9c-0.8-4,2.5-8.9,2.6-9.2c0.7-0.9,0.2-2.3,0-2.8l-12.8-4.5l0.4-1.1l13.2,4.7l0.1,0.2
				c0.1,0.1,1.4,2.5,0,4.2c0,0-3.6,5.4-2.2,9l0.4,1l-1.1-0.3c-0.2-0.1-4.5-1-7.3,2.3C66.4,79.5,64.8,80,63.6,80z"/>
		</g>
		<g id="XMLID_1224_">
			<path id="XMLID_39_" class="st2" d="M58.8,65l3.7,5.6c0,0,1.1,1.7,3.1,0.8c1.9-0.9,3.1-1.4,3.1-1.4s0.3-1.2,1.2-3.1
				c0.8-2-0.9-3-0.9-3L63,60.5"/>
		</g>
		<g id="XMLID_1223_">
			<path id="XMLID_17_" class="st3" d="M62,62.5l3.8,2.7c0,0,1.2,1,0.2,2s-2.2,0.1-2.2,0.1l-3.3-3.6"/>
			<path id="XMLID_18_" class="st4" d="M64.9,68.4c-0.6,0-1.1-0.3-1.5-0.6l-3.3-3.6l0.8-0.8l3.3,3.6c0.1,0.1,0.8,0.5,1.3-0.1
				c0.2-0.2,0.3-0.3,0.3-0.6c0-0.3-0.3-0.7-0.3-0.7l-3.8-2.7l0.7-0.9l3.8,2.7c0.1,0.1,0.8,0.7,0.8,1.5c0,0.3-0.1,0.8-0.6,1.4
				C65.9,68.2,65.4,68.4,64.9,68.4z"/>
		</g>
	</g>
	<g id="XMLID_1218_">
		<g id="XMLID_1221_">
			<path id="XMLID_15_" class="st0" d="M55.7,66.5L61.5,79c0,0-0.7,2.4-2.5,2.6c0,0-8.1,0.8-8.7,4.1c0,0-2-3.2-6.7-2.7
				c-4.7,0.4-5.4-3.3-5.4-3.3l4.9-13.6"/>
			<path id="XMLID_16_" class="st1" d="M50.8,87.3L50,86c-0.1-0.1-2-2.9-6.1-2.5c-5.1,0.5-6-3.7-6-3.8v-0.2l4.9-13.7l1.1,0.4
				L39,79.7c0.2,0.6,1.1,3.1,4.8,2.7c3.5-0.3,5.6,1.2,6.5,2.2c1.7-2.7,8-3.5,8.7-3.6c1-0.1,1.7-1.4,1.9-2l-5.8-12.2l1-0.5L62.1,79
				v0.2c0,0.1-0.8,2.8-2.9,3c-2,0.3-7.8,1.4-8.1,3.6L50.8,87.3z"/>
		</g>
		<g id="XMLID_1220_">
			<path id="XMLID_38_" class="st2" d="M46.3,68l-1.3,6.6c0,0-0.3,2,1.6,2.6c2,0.7,3.1,1.2,3.1,1.2s1.1-0.6,3-1.4
				c1.9-0.8,1.4-2.7,1.4-2.7l-1.7-6.5"/>
		</g>
		<g id="XMLID_1219_">
			<path id="XMLID_13_" class="st3" d="M50.1,68.5l0.8,4.6c0,0,0.2,1.5-1.4,1.6c-1.4,0.1-1.5-1.4-1.5-1.4l0.3-4.9"/>
			<path id="XMLID_14_" class="st4" d="M49.6,75.3c-1.4,0-2-1.2-2-2l0.3-4.9l1.2,0.1l-0.3,4.9c0,0.2,0.1,0.9,0.9,0.8
				c0.3,0,0.4-0.1,0.5-0.2c0.2-0.3,0.3-0.6,0.2-0.8l-0.8-4.6l1.1-0.2l0.8,4.6c0,0.2,0.1,1-0.5,1.6C50.7,75,50.2,75.3,49.6,75.3
				C49.6,75.3,49.6,75.3,49.6,75.3z"/>
		</g>
	</g>
	<g id="XMLID_1214_">
		<g id="XMLID_1217_">
			<path id="XMLID_11_" class="st5" d="M43.3,66.8l-5.2,12.8c0,0-2.3,1.1-3.6-0.1c0,0-6.9-5.2-10.2-3.6c0,0,2.2-3.7-1.4-7
				s-1.3-6.4-1.3-6.4l11.2-5"/>
			<path id="XMLID_12_" class="st1" d="M36.1,80.7c-0.7,0-1.4-0.2-2-0.7c-1.8-1.4-7.1-4.8-9.6-3.6L23,77.2l0.8-1.5
				c0.1-0.2,1.9-3.4-1.3-6.3c-3.9-3.6-1.4-7-1.3-7.1l0.1-0.1l11.4-5.1l0.5,1l-11,4.9c-0.3,0.6-1.5,2.9,1.3,5.4
				c2.6,2.4,2.4,5.1,2,6.6c3.6-0.3,8.9,3.6,9.6,4.1c0.8,0.8,2.3,0.3,2.8,0.1l5.1-12.6l1.1,0.4l-5.3,13l-0.2,0.1
				C38.4,80.2,37.3,80.7,36.1,80.7z"/>
		</g>
		<g id="XMLID_1216_">
			<path id="XMLID_37_" class="st2" d="M35.7,60.7L30,64.2c0,0-1.7,1-0.8,3c0.8,2,1.3,3.1,1.3,3.1s1.2,0.4,3.1,1.4
				c2,0.9,3-0.8,3-0.8l3.6-5.7"/>
		</g>
		<g id="XMLID_1215_">
			<path id="XMLID_9_" class="st3" d="M38,64l-2.9,3.6c0,0-1,1.1-2,0.1c-1-1.1,0-2.2,0-2.2l3.8-3.1"/>
			<path id="XMLID_10_" class="st4" d="M34,68.8c-0.3,0-0.8-0.1-1.4-0.6c-1-1.1-0.6-2.4,0-3l3.8-3.1l0.8,0.9l-3.8,3.1
				c-0.1,0.1-0.6,0.7,0,1.3c0.2,0.2,0.3,0.3,0.5,0.3l0,0c0.3,0,0.6-0.3,0.7-0.3l2.9-3.6l0.9,0.7L35.6,68
				C35.5,68.2,34.9,68.8,34,68.8L34,68.8z"/>
		</g>
	</g>
	<g id="XMLID_1210_">
		<g id="XMLID_1213_">
			<path id="XMLID_7_" class="st5" d="M42.1,33.8l-5.6-12.6c0,0-2.3-1-3.6,0.3c0,0-5.6,4.9-9.5,3.8c0,0,1.7,3.9-1.7,7.2
				s-1,6.4-1,6.4l11.4,4.6"/>
			<path id="XMLID_8_" class="st1" d="M31.9,43.9l-11.5-4.7l-0.1-0.1c0,0-2.7-3.5,1.1-7.1c3.1-3,1.6-6.4,1.6-6.6l-0.5-1.2l1.2,0.3
				c3.5,1,8.9-3.6,8.9-3.7c1.5-1.4,4.1-0.3,4.2-0.3l0.2,0.1l5.7,12.8l-1.1,0.5L36,21.5c-0.5-0.2-2-0.6-2.7,0.2
				c-0.3,0.2-5.1,4.4-9.1,4.2c0.3,1.4,0.5,4.4-2.1,7c-2.6,2.6-1.4,4.9-1,5.5l11.2,4.6L31.9,43.9z"/>
		</g>
		<g id="XMLID_1212_">
			<path id="XMLID_36_" class="st2" d="M34.8,40l-5.9-3.3c0,0-1.8-1-0.9-3s1.1-3.1,1.1-3.1s1.2-0.4,3.1-1.4c1.9-0.9,3.1,0.7,3.1,0.7
				l3.8,5.6"/>
		</g>
		<g id="XMLID_1211_">
			<path id="XMLID_5_" class="st3" d="M36.9,36.7l-3-3.6c0,0-1.1-1.1-2,0c-1,1.1,0.1,2.2,0.1,2.2l3.9,3"/>
			<path id="XMLID_6_" class="st4" d="M35.5,38.8l-3.9-3c-0.7-0.6-1.2-1.9-0.2-3.1c0.5-0.5,1-0.7,1.4-0.7c0.8,0,1.4,0.6,1.5,0.7
				l3.1,3.6l-0.8,0.8l-3.1-3.6c-0.1-0.1-0.4-0.3-0.7-0.3c-0.2,0-0.3,0.1-0.5,0.3c-0.6,0.6-0.1,1.2,0.1,1.4l3.8,2.9L35.5,38.8z"/>
		</g>
	</g>
	<g id="XMLID_1206_">
		<g id="XMLID_1209_">
			<path id="XMLID_3_" class="st0" d="M33.5,43.9l-12.8-5.2c0,0-2.4,0.8-2.5,2.6c0,0-0.8,7.4-4.5,8.7c0,0,4.3,2.2,4.2,7
				c-0.1,4.8,3.7,5.3,3.7,5.3l11.4-4.6"/>
			<path id="XMLID_4_" class="st1" d="M21.8,63h-0.2c-0.1,0-4.3-0.6-4.2-5.9c0.1-4.3-3.8-6.4-3.9-6.4l-1.2-0.6l1.2-0.5
				c3.3-1.3,4.2-8.2,4.2-8.3c0.1-2,2.7-3.1,2.8-3.1l0.3-0.1l13,5.3l-0.4,1.1l-12.6-5.1c-0.5,0.3-1.8,0.9-1.9,2c0,0.3-0.8,6.5-4,8.7
				c1.4,0.9,3.7,3.2,3.6,7c-0.1,3.7,2.5,4.5,3.1,4.7l11.2-4.6l0.4,1.1L21.8,63z"/>
		</g>
		<g id="XMLID_1208_">
			<path id="XMLID_35_" class="st2" d="M32.7,53.6l-6.5,1.8c0,0-2,0.5-2.7-1.4c-0.8-2-1.4-3.1-1.4-3.1s0.5-1.1,1.2-3.1
				c0.7-2,2.6-1.6,2.6-1.6l6.6,1.3"/>
		</g>
		<g id="XMLID_1207_">
			<path id="XMLID_1_" class="st3" d="M31.9,49.7l-4.7-0.5c0,0-1.5,0-1.4,1.4s1.6,1.4,1.6,1.4l4.8-0.6"/>
			<path id="XMLID_2_" class="st4" d="M27.4,52.8c-0.9,0-2.2-0.5-2.2-2c0-0.8,0.3-1.2,0.5-1.4c0.6-0.6,1.4-0.6,1.5-0.6l4.7,0.5
				l-0.1,1.2l-4.7-0.5c-0.1,0-0.4,0.1-0.7,0.3c-0.2,0.2-0.2,0.3-0.2,0.6c0,0.8,0.8,0.9,1,0.9l0,0l4.8-0.6l0.2,1.2L27.4,52.8
				L27.4,52.8z"/>
		</g>
	</g>
	<g id="XMLID_1205_">
		<circle id="XMLID_34_" class="st6" cx="50.5" cy="49.4" r="19.3"/>
	</g>
	<g id="XMLID_1204_">
		<circle id="XMLID_33_" class="st3" cx="50.5" cy="49.4" r="17.5"/>
	</g>
</g>
</svg>
