<?xml version="1.0" encoding="utf-8"?>
<!-- Generator: Adobe Illustrator 19.0.0, SVG Export Plug-In . SVG Version: 6.00 Build 0)  -->
<svg version="1.1" id="Layer_1" xmlns="http://www.w3.org/2000/svg" xmlns:xlink="http://www.w3.org/1999/xlink" x="0px" y="0px"
	 viewBox="0 0 100 100" style="enable-background:new 0 0 100 100;" xml:space="preserve">
<style type="text/css">
	.st0{fill:#707D95;}
	.st1{fill:#BC904A;}
	.st2{fill:#182228;}
	.st3{fill:#27343A;}
	.st4{fill:#EEE2CF;}
	.st5{fill:#7A1A11;}
</style>
<g id="XMLID_1002_">
	<path id="XMLID_15_" class="st0" d="M57.1,25.6c0,0,10.2,1.1,13.1-1c2.9-2.1,17.7-5.4,16.4,1s-1.2,9.6-1.2,9.6L71,36.1L57.1,25.6z"
		/>
	<path id="XMLID_16_" class="st1" d="M70.8,36.6L55.1,24.8l2.1,0.2c2.8,0.3,10.5,0.7,12.7-0.9c2.4-1.8,12.3-4.2,15.9-1.9
		c0.8,0.5,1.7,1.6,1.3,3.5C85.8,32,86,35.1,86,35.1l0,0.6L70.8,36.6z M59,26.3l12.1,9.2l13.7-0.9c0-1.2,0.1-4.2,1.2-9.1
		c0.2-1.1,0-1.8-0.8-2.3c-3.2-2-12.5,0.3-14.6,1.9C68.3,26.6,62.2,26.5,59,26.3z"/>
</g>
<g id="XMLID_1001_">
	<circle id="XMLID_11_" class="st2" cx="46.9" cy="48.8" r="31.1"/>
	<path id="XMLID_12_" class="st1" d="M46.9,80.7C29.3,80.7,15,66.4,15,48.8s14.3-31.9,31.9-31.9c17.6,0,31.9,14.3,31.9,31.9
		S64.5,80.7,46.9,80.7z M46.9,18.5c-16.7,0-30.3,13.6-30.3,30.3c0,16.7,13.6,30.3,30.3,30.3s30.3-13.6,30.3-30.3
		C77.2,32.1,63.6,18.5,46.9,18.5z"/>
</g>
<g id="XMLID_726_">
	<circle id="XMLID_21_" class="st3" cx="47.6" cy="48.8" r="17.7"/>
</g>
<g id="XMLID_1000_">
	<path id="XMLID_9_" class="st4" d="M54,63c0,0,11.7-12.9,26.5-12.8c0,0,8.1,1.8,9.4-2.6l-3.5-22c0,0-3.8,5.4-11,4.2
		c0,0-20.4-6.2-39.4,5.4"/>
	<path id="XMLID_10_" class="st1" d="M54.7,63L53.4,62c0.5-0.5,12.1-13,27.1-13c0,0,0.1,0,0.1,0l0.2,0.2c0.1,0,7.1,1.6,8.4-1.7
		l-3.2-20c-1.8,1.6-5.3,4-10.5,3.2c-0.3-0.1-20.3-6-38.8,5.3l-0.9-1.5c19.2-11.6,39.9-5.5,40.1-5.4c6.4,1.1,10-3.8,10-3.9l1.2-1.7
		l3.8,24.3l-0.1-0.3c-1.5,4.9-9.3,4.7-10.4,2.7c0,0,0,0,0,0C66.3,50,54.8,62.9,54.7,63z"/>
</g>
<g id="XMLID_995_">
	<path id="XMLID_20_" class="st5" d="M47.8,71.4c0.5,1.5,2.6,2.1,4.6,1.4c2-0.7,3.2-2.5,2.7-4c-0.4-1.1-1.6-1.7-3.1-1.7l0,0
		c0,0-0.8-1.1,0-1.8c0,0-2.4-0.6-4,1.4c0,0,0.9,0.1,1,1.4h0C47.9,69,47.4,70.3,47.8,71.4z"/>
</g>
<g id="XMLID_990_">
	<g id="XMLID_993_">
		<path id="XMLID_7_" class="st1" d="M42.9,31c0-0.1,0-0.1,0-0.2c-0.4-1.2-2.8-1.4-5.4-0.6c-2.6,0.9-4.3,2.6-3.9,3.7
			c0,0.1,0,0.1,0.1,0.2"/>
		<path id="XMLID_8_" class="st1" d="M32.9,34.6c-0.1-0.1-0.1-0.2-0.1-0.3c-0.3-0.9,0.1-1.9,1.1-2.9c0.8-0.8,2-1.5,3.4-1.9
			c3.1-1.1,5.9-0.6,6.5,1.1c0,0.1,0.1,0.2,0.1,0.3l-1.7,0.3l0.9-0.1l-0.9,0.1c-0.2-0.4-1.9-0.8-4.3,0c-1.1,0.4-2.1,0.9-2.8,1.6
			c-0.5,0.5-0.7,0.9-0.6,1.1L32.9,34.6z"/>
	</g>
	<g id="XMLID_992_">
		<path id="XMLID_3_" class="st4" d="M42.9,31c0.2,1.2-1.5,2.7-4,3.6c-2.4,0.8-4.7,0.6-5.3-0.4l-0.2,0.1l11.6,33.9
			c0.4,1.2,3,1.4,5.5,0.5c2.6-0.9,4.5-2.6,4.1-3.8L43.1,31L42.9,31z"/>
		<path id="XMLID_4_" class="st1" d="M47.6,70.1c-1.6,0-2.9-0.5-3.3-1.6L32.4,33.7l1.7-0.6l0.3,0.6c0.2,0.4,1.9,0.8,4.3,0
			c2.4-0.8,3.5-2.1,3.4-2.6L42,30.4l1.7-0.6l11.9,34.8c0.7,1.9-1.9,4-4.6,4.9C49.8,69.9,48.7,70.1,47.6,70.1z M35,35.9l11,32
			c0.1,0.4,2,0.8,4.4,0c2.5-0.8,3.7-2.3,3.5-2.7l-11-32c-0.8,0.9-2.1,1.7-3.7,2.2C37.6,36,36.1,36.1,35,35.9z"/>
	</g>
	<g id="XMLID_991_">
		<path id="XMLID_1_" class="st1" d="M42.9,31c0.2,1.2-1.5,2.7-4,3.6c-2.4,0.8-4.7,0.6-5.3-0.4"/>
		<path id="XMLID_2_" class="st1" d="M36.1,36c-1.5,0-2.7-0.5-3.2-1.4l1.5-0.8c0.2,0.4,1.9,0.8,4.3,0c2.4-0.8,3.5-2.1,3.4-2.6
			l1.7-0.3c0.3,1.7-1.6,3.5-4.5,4.5C38.1,35.8,37,36,36.1,36z"/>
	</g>
</g>
<g id="XMLID_979_">
	<path id="XMLID_19_" class="st5" d="M40.5,27.3c-0.5-1.5-2.6-2.2-4.6-1.5c-2,0.7-3.3,2.5-2.8,4c0.4,1.1,1.6,1.8,3,1.7l0,0
		c0,0,0.8,1.1-0.1,1.8c0,0,2.3,0.6,4.1-1.4c0,0-0.9-0.1-1-1.4l0,0C40.3,29.7,40.9,28.4,40.5,27.3z"/>
</g>
</svg>
