<?xml version="1.0" encoding="utf-8"?>
<!-- Generator: Adobe Illustrator 19.0.0, SVG Export Plug-In . SVG Version: 6.00 Build 0)  -->
<svg version="1.1" id="Layer_1" xmlns="http://www.w3.org/2000/svg" xmlns:xlink="http://www.w3.org/1999/xlink" x="0px" y="0px"
	 viewBox="0 0 100 100" style="enable-background:new 0 0 100 100;" xml:space="preserve">
<style type="text/css">
	.st0{fill:#707D95;}
	.st1{fill:#BC904A;}
	.st2{fill:#424B50;}
	.st3{fill:#EEE2CF;}
	.st4{fill:#7F8BA3;}
	.st5{fill:#7A1A11;}
	.st6{fill:#160706;}
</style>
<g id="XMLID_721_">
	<path id="XMLID_13_" class="st0" d="M56.6,28.5c0,0,9.7,1,12.4-1c2.7-2,16.8-5.1,15.5,1s-1.1,9.1-1.1,9.1l-13.7,0.9L56.6,28.5z"/>
	<path id="XMLID_17_" class="st1" d="M69.6,39L54.7,27.7l2,0.2c2.6,0.3,9.9,0.7,12-0.9c2.3-1.7,11.7-4,15.1-1.8
		c0.8,0.5,1.7,1.5,1.3,3.3c-1.2,6-1.1,8.9-1.1,8.9l0,0.5L69.6,39z M58.5,29.2L70,37.9l13-0.8c0-1.1,0.1-4,1.1-8.7
		c0.2-1,0-1.7-0.8-2.2c-3-1.9-11.9,0.3-13.9,1.8C67.3,29.5,61.5,29.4,58.5,29.2z"/>
</g>
<g id="XMLID_720_">
	<g id="XMLID_3_">
		<circle id="XMLID_23_" class="st2" cx="47" cy="50.6" r="29.5"/>
	</g>
	<g id="XMLID_2_">
		<path id="XMLID_14_" class="st3" d="M47,80.9c-16.7,0-30.3-13.6-30.3-30.3S30.2,20.3,47,20.3c16.7,0,30.3,13.6,30.3,30.3
			S63.7,80.9,47,80.9z M47,21.8c-15.9,0-28.8,12.9-28.8,28.8c0,15.9,12.9,28.8,28.8,28.8s28.8-12.9,28.8-28.8
			C75.7,34.7,62.8,21.8,47,21.8z"/>
	</g>
</g>
<g id="XMLID_719_">
	<circle id="XMLID_22_" class="st4" cx="46.2" cy="50.6" r="16.8"/>
</g>
<g id="XMLID_718_">
	<path id="XMLID_11_" class="st5" d="M53.7,64c0,0,11.2-12.2,25.2-12.1c0,0,7.7,1.8,9-2.4l-3.3-20.9c0,0-3.7,5.1-10.4,4
		c0,0-19.3-5.9-37.5,5.1"/>
	<path id="XMLID_12_" class="st1" d="M54.3,64.7l-1.1-1.1c0.5-0.5,11.5-12.5,25.8-12.4l0.2,0c0.1,0,6.8,1.4,8-1.8l-3-19.2
		c-1.6,1.6-5,3.9-10,3c-0.3-0.1-19.3-5.7-36.9,5l-0.8-1.3c18.2-11,37.9-5.2,38.1-5.2c6.1,1,9.5-3.7,9.6-3.7l1.1-1.5l3.6,23l-0.1,0.3
		c-1.4,4.6-8.8,4.2-9.8,3.2c0,0,0,0,0,0C65.3,53,54.4,64.6,54.3,64.7z"/>
</g>
<g id="XMLID_714_">
	<path id="XMLID_21_" class="st6" d="M47.7,72c0.5,1.4,2.5,2,4.4,1.3c1.9-0.7,3.1-2.4,2.6-3.8c-0.4-1.1-1.6-1.7-2.9-1.6l0,0
		c0,0-0.8-1,0-1.7c0,0-2.2-0.5-3.8,1.4c0,0,0.8,0.1,1,1.3l0,0C47.9,69.8,47.4,71,47.7,72z"/>
</g>
<g id="XMLID_705_">
	<g id="XMLID_713_">
		<path id="XMLID_9_" class="st5" d="M43.1,33.7c0-0.1,0-0.1,0-0.2c-0.4-1.1-2.7-1.4-5.1-0.5c-2.4,0.8-4.1,2.4-3.7,3.6
			c0,0.1,0,0.1,0.1,0.2"/>
		<path id="XMLID_10_" class="st1" d="M33.7,37c0-0.1-0.1-0.2-0.1-0.3c-0.3-0.8,0.1-1.8,1-2.7c0.8-0.7,1.9-1.4,3.2-1.8
			c2.9-1,5.6-0.6,6.1,1c0,0.1,0.1,0.2,0.1,0.3l-1.5,0.3l0-0.1c-0.2-0.5-1.8-0.8-4.1,0c-1.1,0.4-2,0.9-2.6,1.5
			c-0.5,0.5-0.7,0.9-0.6,1.1L33.7,37z"/>
	</g>
	<g id="XMLID_712_">
		<path id="XMLID_5_" class="st5" d="M43.1,33.7c0.2,1.1-1.4,2.6-3.8,3.4c-2.3,0.8-4.5,0.6-5-0.4l-0.2,0.1l11,32.2
			c0.4,1.1,2.8,1.3,5.3,0.5c2.4-0.8,4.2-2.5,3.9-3.6l-11-32.2L43.1,33.7z"/>
		<path id="XMLID_6_" class="st1" d="M47.6,70.8c-1.5,0-2.7-0.4-3.1-1.5l-11.3-33l1.5-0.5l0.3,0.6c0.3,0.5,2,0.7,4.1,0
			c2.1-0.7,3.3-2,3.2-2.5l-0.1-0.6l1.5-0.5l11.3,33c0.6,1.8-1.8,3.7-4.3,4.6C49.7,70.6,48.6,70.8,47.6,70.8z M35.5,38.2l10.4,30.5
			c0.2,0.5,1.9,0.8,4.3,0c2.3-0.8,3.5-2.2,3.4-2.6L43.2,35.6c-0.7,0.9-2,1.6-3.5,2.2C38.1,38.3,36.6,38.5,35.5,38.2z"/>
	</g>
	<g id="XMLID_711_">
		<path id="XMLID_1_" class="st5" d="M43.1,33.7c0.2,1.1-1.4,2.6-3.8,3.4c-2.3,0.8-4.5,0.6-5-0.4"/>
		<path id="XMLID_4_" class="st1" d="M36.6,38.3c-1.4,0-2.5-0.4-3-1.3l1.4-0.7c0.3,0.5,2,0.7,4.1,0c2.1-0.7,3.3-2,3.2-2.5l1.5-0.3
			c0.3,1.6-1.5,3.3-4.3,4.2C38.6,38.2,37.5,38.3,36.6,38.3z"/>
	</g>
</g>
<g id="XMLID_699_">
	<path id="XMLID_20_" class="st6" d="M40.9,30.1c-0.5-1.4-2.5-2.1-4.4-1.4c-1.9,0.7-3.1,2.4-2.6,3.8c0.4,1.1,1.5,1.7,2.9,1.7l0,0
		c0,0,0.8,1-0.1,1.7c0,0,2.2,0.6,3.9-1.3c0,0-0.8-0.1-0.9-1.3l0,0C40.7,32.4,41.2,31.2,40.9,30.1z"/>
</g>
</svg>
