<?xml version="1.0" encoding="utf-8"?>
<!-- Generator: Adobe Illustrator 19.0.0, SVG Export Plug-In . SVG Version: 6.00 Build 0)  -->
<svg version="1.1" id="Layer_1" xmlns="http://www.w3.org/2000/svg" xmlns:xlink="http://www.w3.org/1999/xlink" x="0px" y="0px"
	 viewBox="0 0 600 360" style="enable-background:new 0 0 600 360;" xml:space="preserve">
<style type="text/css">
	.st0{fill:#FFFFFF;stroke:#CFCFCF;stroke-miterlimit:10;}
	.st1{fill:#CFCFCF;}
</style>
<path id="XMLID_125_" class="st0" d="M546.1,315v-24.9V28.9c0-9.6-7.8-17.4-17.4-17.4H71.9c-9.6,0-17.4,7.8-17.4,17.4v261.2V315
	v17.5h15.5c0.6,0.1,1.3-0.1,1.9-0.1h456.8c0.7,0,1.5,0.1,2.1,0h15.5L546.1,315z M528.8,318.5H69.2V30.9h459.6V318.5z"/>
<path id="XMLID_2_" class="st0" d="M8,332.4v9.5c0,0,7.2,8.3,32.9,8.3s526.5,0,526.5,0s21.9-1.8,26.3-7.4v-10.4H8z"/>
<path id="XMLID_124_" class="st1" d="M223.8,333c0,2.5,2.1,4.6,4.6,4.6h144.8c2.5,0,4.6-2.1,4.6-4.6c0-0.2,0-0.4-0.1-0.7H223.9
	C223.8,332.6,223.8,332.8,223.8,333z"/>
</svg>
